<?xml version="1.0" encoding="UTF-8" standalone="no"?>
<!DOCTYPE svg PUBLIC "-//W3C//DTD SVG 1.1//EN"
 "http://www.w3.org/Graphics/SVG/1.1/DTD/svg11.dtd">
<!-- Generated by graphviz version 2.43.0 (0)
 -->
<!-- Title: align.h Pages: 1 -->
<svg width="2202pt" height="588pt"
 viewBox="0.00 0.00 2201.50 588.00" xmlns="http://www.w3.org/2000/svg" xmlns:xlink="http://www.w3.org/1999/xlink">
<g id="graph0" class="graph" transform="scale(1 1) rotate(0) translate(4 584)">
<title>align.h</title>
<polygon fill="white" stroke="transparent" points="-4,4 -4,-584 2197.5,-584 2197.5,4 -4,4"/>
<!-- Node1 -->
<g id="node1" class="node">
<title>Node1</title>
<g id="a_node1"><a xlink:title=" ">
<polygon fill="#bfbfbf" stroke="black" points="1085.5,-560.5 1085.5,-579.5 1135.5,-579.5 1135.5,-560.5 1085.5,-560.5"/>
<text text-anchor="middle" x="1110.5" y="-567.5" font-family="Helvetica,sans-Serif" font-size="10.00">align.h</text>
</a>
</g>
</g>
<!-- Node2 -->
<g id="node2" class="node">
<title>Node2</title>
<g id="a_node2"><a xlink:href="arch_2arm32-linux_2odp_2api_2abi_2align_8h_source.html" target="_top" xlink:title=" ">
<polygon fill="white" stroke="black" points="881.5,-504.5 881.5,-523.5 931.5,-523.5 931.5,-504.5 881.5,-504.5"/>
<text text-anchor="middle" x="906.5" y="-511.5" font-family="Helvetica,sans-Serif" font-size="10.00">align.h</text>
</a>
</g>
</g>
<!-- Node1&#45;&gt;Node2 -->
<g id="edge1" class="edge">
<title>Node1&#45;&gt;Node2</title>
<path fill="none" stroke="midnightblue" d="M1075.68,-559.78C1034.78,-548.96 967.93,-531.26 931.72,-521.68"/>
<polygon fill="midnightblue" stroke="midnightblue" points="1074.92,-563.2 1085.49,-562.38 1076.71,-556.44 1074.92,-563.2"/>
</g>
<!-- Node3 -->
<g id="node3" class="node">
<title>Node3</title>
<g id="a_node3"><a xlink:href="arch_2arm64-linux_2odp_2api_2abi_2align_8h_source.html" target="_top" xlink:title=" ">
<polygon fill="white" stroke="black" points="949.5,-504.5 949.5,-523.5 999.5,-523.5 999.5,-504.5 949.5,-504.5"/>
<text text-anchor="middle" x="974.5" y="-511.5" font-family="Helvetica,sans-Serif" font-size="10.00">align.h</text>
</a>
</g>
</g>
<!-- Node1&#45;&gt;Node3 -->
<g id="edge2" class="edge">
<title>Node1&#45;&gt;Node3</title>
<path fill="none" stroke="midnightblue" d="M1079.37,-556.64C1053.84,-546.5 1018.39,-532.43 995.95,-523.52"/>
<polygon fill="midnightblue" stroke="midnightblue" points="1078.36,-560.01 1088.95,-560.44 1080.95,-553.5 1078.36,-560.01"/>
</g>
<!-- Node4 -->
<g id="node4" class="node">
<title>Node4</title>
<g id="a_node4"><a xlink:href="arch_2default-linux_2odp_2api_2abi_2align_8h_source.html" target="_top" xlink:title=" ">
<polygon fill="white" stroke="black" points="1017.5,-504.5 1017.5,-523.5 1067.5,-523.5 1067.5,-504.5 1017.5,-504.5"/>
<text text-anchor="middle" x="1042.5" y="-511.5" font-family="Helvetica,sans-Serif" font-size="10.00">align.h</text>
</a>
</g>
</g>
<!-- Node1&#45;&gt;Node4 -->
<g id="edge3" class="edge">
<title>Node1&#45;&gt;Node4</title>
<path fill="none" stroke="midnightblue" d="M1091.74,-554.1C1079.5,-544.38 1063.94,-532.03 1053.62,-523.83"/>
<polygon fill="midnightblue" stroke="midnightblue" points="1089.57,-556.85 1099.57,-560.32 1093.92,-551.36 1089.57,-556.85"/>
</g>
<!-- Node5 -->
<g id="node5" class="node">
<title>Node5</title>
<g id="a_node5"><a xlink:href="arch_2mips64-linux_2odp_2api_2abi_2align_8h_source.html" target="_top" xlink:title=" ">
<polygon fill="white" stroke="black" points="1085.5,-504.5 1085.5,-523.5 1135.5,-523.5 1135.5,-504.5 1085.5,-504.5"/>
<text text-anchor="middle" x="1110.5" y="-511.5" font-family="Helvetica,sans-Serif" font-size="10.00">align.h</text>
</a>
</g>
</g>
<!-- Node1&#45;&gt;Node5 -->
<g id="edge4" class="edge">
<title>Node1&#45;&gt;Node5</title>
<path fill="none" stroke="midnightblue" d="M1110.5,-549.8C1110.5,-540.91 1110.5,-530.78 1110.5,-523.75"/>
<polygon fill="midnightblue" stroke="midnightblue" points="1107,-550.08 1110.5,-560.08 1114,-550.08 1107,-550.08"/>
</g>
<!-- Node6 -->
<g id="node6" class="node">
<title>Node6</title>
<g id="a_node6"><a xlink:href="arch_2power64-linux_2odp_2api_2abi_2align_8h_source.html" target="_top" xlink:title=" ">
<polygon fill="white" stroke="black" points="1153.5,-504.5 1153.5,-523.5 1203.5,-523.5 1203.5,-504.5 1153.5,-504.5"/>
<text text-anchor="middle" x="1178.5" y="-511.5" font-family="Helvetica,sans-Serif" font-size="10.00">align.h</text>
</a>
</g>
</g>
<!-- Node1&#45;&gt;Node6 -->
<g id="edge5" class="edge">
<title>Node1&#45;&gt;Node6</title>
<path fill="none" stroke="midnightblue" d="M1129.26,-554.1C1141.5,-544.38 1157.06,-532.03 1167.38,-523.83"/>
<polygon fill="midnightblue" stroke="midnightblue" points="1127.08,-551.36 1121.43,-560.32 1131.43,-556.85 1127.08,-551.36"/>
</g>
<!-- Node7 -->
<g id="node7" class="node">
<title>Node7</title>
<g id="a_node7"><a xlink:href="arch_2x86__32-linux_2odp_2api_2abi_2align_8h_source.html" target="_top" xlink:title=" ">
<polygon fill="white" stroke="black" points="1221.5,-504.5 1221.5,-523.5 1271.5,-523.5 1271.5,-504.5 1221.5,-504.5"/>
<text text-anchor="middle" x="1246.5" y="-511.5" font-family="Helvetica,sans-Serif" font-size="10.00">align.h</text>
</a>
</g>
</g>
<!-- Node1&#45;&gt;Node7 -->
<g id="edge6" class="edge">
<title>Node1&#45;&gt;Node7</title>
<path fill="none" stroke="midnightblue" d="M1141.63,-556.64C1167.16,-546.5 1202.61,-532.43 1225.05,-523.52"/>
<polygon fill="midnightblue" stroke="midnightblue" points="1140.05,-553.5 1132.05,-560.44 1142.64,-560.01 1140.05,-553.5"/>
</g>
<!-- Node8 -->
<g id="node8" class="node">
<title>Node8</title>
<g id="a_node8"><a xlink:href="arch_2x86__64-linux_2odp_2api_2abi_2align_8h_source.html" target="_top" xlink:title=" ">
<polygon fill="white" stroke="black" points="1289.5,-504.5 1289.5,-523.5 1339.5,-523.5 1339.5,-504.5 1289.5,-504.5"/>
<text text-anchor="middle" x="1314.5" y="-511.5" font-family="Helvetica,sans-Serif" font-size="10.00">align.h</text>
</a>
</g>
</g>
<!-- Node1&#45;&gt;Node8 -->
<g id="edge7" class="edge">
<title>Node1&#45;&gt;Node8</title>
<path fill="none" stroke="midnightblue" d="M1145.32,-559.78C1186.22,-548.96 1253.07,-531.26 1289.28,-521.68"/>
<polygon fill="midnightblue" stroke="midnightblue" points="1144.29,-556.44 1135.51,-562.38 1146.08,-563.2 1144.29,-556.44"/>
</g>
<!-- Node9 -->
<g id="node9" class="node">
<title>Node9</title>
<g id="a_node9"><a xlink:href="api_2align_8h.html" target="_top" xlink:title=" ">
<polygon fill="white" stroke="black" points="1289.5,-448.5 1289.5,-467.5 1339.5,-467.5 1339.5,-448.5 1289.5,-448.5"/>
<text text-anchor="middle" x="1314.5" y="-455.5" font-family="Helvetica,sans-Serif" font-size="10.00">align.h</text>
</a>
</g>
</g>
<!-- Node8&#45;&gt;Node9 -->
<g id="edge8" class="edge">
<title>Node8&#45;&gt;Node9</title>
<path fill="none" stroke="midnightblue" d="M1314.5,-493.8C1314.5,-484.91 1314.5,-474.78 1314.5,-467.75"/>
<polygon fill="midnightblue" stroke="midnightblue" points="1311,-494.08 1314.5,-504.08 1318,-494.08 1311,-494.08"/>
</g>
<!-- Node10 -->
<g id="node10" class="node">
<title>Node10</title>
<g id="a_node10"><a xlink:href="api_2abi-default_2atomic_8h.html" target="_top" xlink:title=" ">
<polygon fill="white" stroke="black" points="269,-280.5 269,-299.5 328,-299.5 328,-280.5 269,-280.5"/>
<text text-anchor="middle" x="298.5" y="-287.5" font-family="Helvetica,sans-Serif" font-size="10.00">atomic.h</text>
</a>
</g>
</g>
<!-- Node9&#45;&gt;Node10 -->
<g id="edge9" class="edge">
<title>Node9&#45;&gt;Node10</title>
<path fill="none" stroke="midnightblue" d="M1279.36,-451.86C1152.67,-433.24 707.62,-366.8 342.5,-300 337.9,-299.16 333.04,-298.22 328.29,-297.27"/>
<polygon fill="midnightblue" stroke="midnightblue" points="1278.88,-455.33 1289.28,-453.32 1279.89,-448.41 1278.88,-455.33"/>
</g>
<!-- Node28 -->
<g id="node21" class="node">
<title>Node28</title>
<g id="a_node21"><a xlink:href="odp__api_8h.html" target="_top" xlink:title=" ">
<polygon fill="white" stroke="black" points="1347.5,-56.5 1347.5,-75.5 1411.5,-75.5 1411.5,-56.5 1347.5,-56.5"/>
<text text-anchor="middle" x="1379.5" y="-63.5" font-family="Helvetica,sans-Serif" font-size="10.00">odp_api.h</text>
</a>
</g>
</g>
<!-- Node9&#45;&gt;Node28 -->
<g id="edge66" class="edge">
<title>Node9&#45;&gt;Node28</title>
<path fill="none" stroke="midnightblue" d="M1349.92,-456.36C1514.14,-452.93 2193.5,-433.53 2193.5,-347 2193.5,-347 2193.5,-347 2193.5,-177 2193.5,-96.65 1562.61,-72.52 1411.66,-67.9"/>
<polygon fill="midnightblue" stroke="midnightblue" points="1349.79,-452.86 1339.86,-456.56 1349.93,-459.86 1349.79,-452.86"/>
</g>
<!-- Node57 -->
<g id="node23" class="node">
<title>Node57</title>
<g id="a_node23"><a xlink:href="api_2abi-default_2cpumask_8h.html" target="_top" xlink:title=" ">
<polygon fill="white" stroke="black" points="1743.5,-280.5 1743.5,-299.5 1813.5,-299.5 1813.5,-280.5 1743.5,-280.5"/>
<text text-anchor="middle" x="1778.5" y="-287.5" font-family="Helvetica,sans-Serif" font-size="10.00">cpumask.h</text>
</a>
</g>
</g>
<!-- Node9&#45;&gt;Node57 -->
<g id="edge23" class="edge">
<title>Node9&#45;&gt;Node57</title>
<path fill="none" stroke="midnightblue" d="M1348.08,-444.99C1437.16,-413.12 1677.95,-326.97 1754.67,-299.52"/>
<polygon fill="midnightblue" stroke="midnightblue" points="1346.71,-441.76 1338.47,-448.42 1349.06,-448.35 1346.71,-441.76"/>
</g>
<!-- Node81 -->
<g id="node32" class="node">
<title>Node81</title>
<g id="a_node32"><a xlink:href="api_2spec_2std__types_8h.html" target="_top" xlink:title=" ">
<polygon fill="white" stroke="black" points="1246,-392.5 1246,-411.5 1319,-411.5 1319,-392.5 1246,-392.5"/>
<text text-anchor="middle" x="1282.5" y="-399.5" font-family="Helvetica,sans-Serif" font-size="10.00">std_types.h</text>
</a>
</g>
</g>
<!-- Node9&#45;&gt;Node81 -->
<g id="edge33" class="edge">
<title>Node9&#45;&gt;Node81</title>
<path fill="none" stroke="midnightblue" d="M1304,-439.27C1298.53,-430.05 1292.08,-419.17 1287.69,-411.75"/>
<polygon fill="midnightblue" stroke="midnightblue" points="1301.11,-441.26 1309.22,-448.08 1307.13,-437.7 1301.11,-441.26"/>
</g>
<!-- Node11 -->
<g id="node11" class="node">
<title>Node11</title>
<g id="a_node11"><a xlink:href="arch_2arm32-linux_2odp_2api_2abi_2atomic_8h_source.html" target="_top" xlink:title=" ">
<polygon fill="white" stroke="black" points="154,-224.5 154,-243.5 213,-243.5 213,-224.5 154,-224.5"/>
<text text-anchor="middle" x="183.5" y="-231.5" font-family="Helvetica,sans-Serif" font-size="10.00">atomic.h</text>
</a>
</g>
</g>
<!-- Node10&#45;&gt;Node11 -->
<g id="edge10" class="edge">
<title>Node10&#45;&gt;Node11</title>
<path fill="none" stroke="midnightblue" d="M271.02,-276.1C249.53,-266.01 220.28,-252.27 201.64,-243.52"/>
<polygon fill="midnightblue" stroke="midnightblue" points="269.74,-279.36 280.28,-280.44 272.71,-273.02 269.74,-279.36"/>
</g>
<!-- Node12 -->
<g id="node12" class="node">
<title>Node12</title>
<g id="a_node12"><a xlink:href="arch_2arm64-linux_2odp_2api_2abi_2atomic_8h_source.html" target="_top" xlink:title=" ">
<polygon fill="white" stroke="black" points="231,-224.5 231,-243.5 290,-243.5 290,-224.5 231,-224.5"/>
<text text-anchor="middle" x="260.5" y="-231.5" font-family="Helvetica,sans-Serif" font-size="10.00">atomic.h</text>
</a>
</g>
</g>
<!-- Node10&#45;&gt;Node12 -->
<g id="edge11" class="edge">
<title>Node10&#45;&gt;Node12</title>
<path fill="none" stroke="midnightblue" d="M286.44,-271.86C279.86,-262.5 271.99,-251.33 266.66,-243.75"/>
<polygon fill="midnightblue" stroke="midnightblue" points="283.61,-273.92 292.23,-280.08 289.33,-269.89 283.61,-273.92"/>
</g>
<!-- Node13 -->
<g id="node13" class="node">
<title>Node13</title>
<g id="a_node13"><a xlink:href="arch_2default-linux_2odp_2api_2abi_2atomic_8h_source.html" target="_top" xlink:title=" ">
<polygon fill="white" stroke="black" points="308,-224.5 308,-243.5 367,-243.5 367,-224.5 308,-224.5"/>
<text text-anchor="middle" x="337.5" y="-231.5" font-family="Helvetica,sans-Serif" font-size="10.00">atomic.h</text>
</a>
</g>
</g>
<!-- Node10&#45;&gt;Node13 -->
<g id="edge12" class="edge">
<title>Node10&#45;&gt;Node13</title>
<path fill="none" stroke="midnightblue" d="M310.88,-271.86C317.64,-262.5 325.71,-251.33 331.18,-243.75"/>
<polygon fill="midnightblue" stroke="midnightblue" points="307.96,-269.93 304.94,-280.08 313.63,-274.03 307.96,-269.93"/>
</g>
<!-- Node14 -->
<g id="node14" class="node">
<title>Node14</title>
<g id="a_node14"><a xlink:href="arch_2mips64-linux_2odp_2api_2abi_2atomic_8h_source.html" target="_top" xlink:title=" ">
<polygon fill="white" stroke="black" points="385,-224.5 385,-243.5 444,-243.5 444,-224.5 385,-224.5"/>
<text text-anchor="middle" x="414.5" y="-231.5" font-family="Helvetica,sans-Serif" font-size="10.00">atomic.h</text>
</a>
</g>
</g>
<!-- Node10&#45;&gt;Node14 -->
<g id="edge13" class="edge">
<title>Node10&#45;&gt;Node14</title>
<path fill="none" stroke="midnightblue" d="M326.22,-276.1C347.89,-266.01 377.4,-252.27 396.21,-243.52"/>
<polygon fill="midnightblue" stroke="midnightblue" points="324.47,-273.05 316.88,-280.44 327.42,-279.4 324.47,-273.05"/>
</g>
<!-- Node15 -->
<g id="node15" class="node">
<title>Node15</title>
<g id="a_node15"><a xlink:href="arch_2power64-linux_2odp_2api_2abi_2atomic_8h_source.html" target="_top" xlink:title=" ">
<polygon fill="white" stroke="black" points="0,-224.5 0,-243.5 59,-243.5 59,-224.5 0,-224.5"/>
<text text-anchor="middle" x="29.5" y="-231.5" font-family="Helvetica,sans-Serif" font-size="10.00">atomic.h</text>
</a>
</g>
</g>
<!-- Node10&#45;&gt;Node15 -->
<g id="edge14" class="edge">
<title>Node10&#45;&gt;Node15</title>
<path fill="none" stroke="midnightblue" d="M259.01,-281.81C212.93,-273.3 134.52,-258.46 67.5,-244 64.85,-243.43 62.1,-242.82 59.35,-242.19"/>
<polygon fill="midnightblue" stroke="midnightblue" points="258.42,-285.26 268.89,-283.62 259.68,-278.37 258.42,-285.26"/>
</g>
<!-- Node16 -->
<g id="node16" class="node">
<title>Node16</title>
<g id="a_node16"><a xlink:href="arch_2x86__32-linux_2odp_2api_2abi_2atomic_8h_source.html" target="_top" xlink:title=" ">
<polygon fill="white" stroke="black" points="77,-224.5 77,-243.5 136,-243.5 136,-224.5 77,-224.5"/>
<text text-anchor="middle" x="106.5" y="-231.5" font-family="Helvetica,sans-Serif" font-size="10.00">atomic.h</text>
</a>
</g>
</g>
<!-- Node10&#45;&gt;Node16 -->
<g id="edge15" class="edge">
<title>Node10&#45;&gt;Node16</title>
<path fill="none" stroke="midnightblue" d="M259.11,-277.92C222.6,-267.65 169.11,-252.61 136.11,-243.33"/>
<polygon fill="midnightblue" stroke="midnightblue" points="258.35,-281.34 268.92,-280.68 260.24,-274.6 258.35,-281.34"/>
</g>
<!-- Node17 -->
<g id="node17" class="node">
<title>Node17</title>
<g id="a_node17"><a xlink:href="arch_2x86__64-linux_2odp_2api_2abi_2atomic_8h_source.html" target="_top" xlink:title=" ">
<polygon fill="white" stroke="black" points="462,-224.5 462,-243.5 521,-243.5 521,-224.5 462,-224.5"/>
<text text-anchor="middle" x="491.5" y="-231.5" font-family="Helvetica,sans-Serif" font-size="10.00">atomic.h</text>
</a>
</g>
</g>
<!-- Node10&#45;&gt;Node17 -->
<g id="edge16" class="edge">
<title>Node10&#45;&gt;Node17</title>
<path fill="none" stroke="midnightblue" d="M338.1,-277.92C374.79,-267.65 428.57,-252.61 461.73,-243.33"/>
<polygon fill="midnightblue" stroke="midnightblue" points="336.92,-274.62 328.23,-280.68 338.81,-281.36 336.92,-274.62"/>
</g>
<!-- Node18 -->
<g id="node18" class="node">
<title>Node18</title>
<g id="a_node18"><a xlink:href="api_2atomic_8h.html" target="_top" xlink:title=" ">
<polygon fill="white" stroke="red" points="462,-168.5 462,-187.5 521,-187.5 521,-168.5 462,-168.5"/>
<text text-anchor="middle" x="491.5" y="-175.5" font-family="Helvetica,sans-Serif" font-size="10.00">atomic.h</text>
</a>
</g>
</g>
<!-- Node17&#45;&gt;Node18 -->
<g id="edge17" class="edge">
<title>Node17&#45;&gt;Node18</title>
<path fill="none" stroke="midnightblue" d="M491.5,-213.8C491.5,-204.91 491.5,-194.78 491.5,-187.75"/>
<polygon fill="midnightblue" stroke="midnightblue" points="488,-214.08 491.5,-224.08 495,-214.08 488,-214.08"/>
</g>
<!-- Node19 -->
<g id="node19" class="node">
<title>Node19</title>
<g id="a_node19"><a xlink:href="api_2abi-default_2barrier_8h.html" target="_top" xlink:title=" ">
<polygon fill="white" stroke="red" points="791,-112.5 791,-131.5 848,-131.5 848,-112.5 791,-112.5"/>
<text text-anchor="middle" x="819.5" y="-119.5" font-family="Helvetica,sans-Serif" font-size="10.00">barrier.h</text>
</a>
</g>
</g>
<!-- Node18&#45;&gt;Node19 -->
<g id="edge18" class="edge">
<title>Node18&#45;&gt;Node19</title>
<path fill="none" stroke="midnightblue" d="M531.34,-170.44C598.29,-159.42 731.81,-137.44 790.59,-127.76"/>
<polygon fill="midnightblue" stroke="midnightblue" points="530.48,-167.03 521.19,-172.11 531.62,-173.94 530.48,-167.03"/>
</g>
<!-- Node27 -->
<g id="node20" class="node">
<title>Node27</title>
<g id="a_node20"><a xlink:href="api_2barrier_8h.html" target="_top" xlink:title=" ">
<polygon fill="white" stroke="black" points="521,-112.5 521,-131.5 578,-131.5 578,-112.5 521,-112.5"/>
<text text-anchor="middle" x="549.5" y="-119.5" font-family="Helvetica,sans-Serif" font-size="10.00">barrier.h</text>
</a>
</g>
</g>
<!-- Node18&#45;&gt;Node27 -->
<g id="edge19" class="edge">
<title>Node18&#45;&gt;Node27</title>
<path fill="none" stroke="midnightblue" d="M508.41,-161.25C518.7,-151.67 531.47,-139.79 540.01,-131.83"/>
<polygon fill="midnightblue" stroke="midnightblue" points="505.75,-158.95 500.82,-168.32 510.52,-164.07 505.75,-158.95"/>
</g>
<!-- Node18&#45;&gt;Node28 -->
<g id="edge22" class="edge">
<title>Node18&#45;&gt;Node28</title>
<path fill="none" stroke="midnightblue" d="M491.81,-157.86C493.17,-142.85 497.7,-122.76 511.5,-112 545.09,-85.82 1194.42,-70.82 1347.41,-67.64"/>
<polygon fill="midnightblue" stroke="midnightblue" points="488.3,-157.94 491.28,-168.11 495.29,-158.3 488.3,-157.94"/>
</g>
<!-- Node27&#45;&gt;Node28 -->
<g id="edge20" class="edge">
<title>Node27&#45;&gt;Node28</title>
<path fill="none" stroke="midnightblue" d="M588.43,-118.47C730.08,-109.25 1216.63,-77.6 1347.09,-69.11"/>
<polygon fill="midnightblue" stroke="midnightblue" points="587.82,-115 578.07,-119.14 588.28,-121.98 587.82,-115"/>
</g>
<!-- Node29 -->
<g id="node22" class="node">
<title>Node29</title>
<g id="a_node22"><a xlink:href="odp_8h.html" target="_top" xlink:title=" ">
<polygon fill="white" stroke="black" points="1357.5,-0.5 1357.5,-19.5 1401.5,-19.5 1401.5,-0.5 1357.5,-0.5"/>
<text text-anchor="middle" x="1379.5" y="-7.5" font-family="Helvetica,sans-Serif" font-size="10.00">odp.h</text>
</a>
</g>
</g>
<!-- Node28&#45;&gt;Node29 -->
<g id="edge21" class="edge">
<title>Node28&#45;&gt;Node29</title>
<path fill="none" stroke="midnightblue" d="M1379.5,-45.8C1379.5,-36.91 1379.5,-26.78 1379.5,-19.75"/>
<polygon fill="midnightblue" stroke="midnightblue" points="1376,-46.08 1379.5,-56.08 1383,-46.08 1376,-46.08"/>
</g>
<!-- Node58 -->
<g id="node24" class="node">
<title>Node58</title>
<g id="a_node24"><a xlink:href="arch_2arm32-linux_2odp_2api_2abi_2cpumask_8h_source.html" target="_top" xlink:title=" ">
<polygon fill="white" stroke="black" points="1919.5,-224.5 1919.5,-243.5 1989.5,-243.5 1989.5,-224.5 1919.5,-224.5"/>
<text text-anchor="middle" x="1954.5" y="-231.5" font-family="Helvetica,sans-Serif" font-size="10.00">cpumask.h</text>
</a>
</g>
</g>
<!-- Node57&#45;&gt;Node58 -->
<g id="edge24" class="edge">
<title>Node57&#45;&gt;Node58</title>
<path fill="none" stroke="midnightblue" d="M1816.19,-277.44C1849.37,-267.26 1896.93,-252.66 1926.74,-243.52"/>
<polygon fill="midnightblue" stroke="midnightblue" points="1814.92,-274.16 1806.39,-280.44 1816.97,-280.86 1814.92,-274.16"/>
</g>
<!-- Node59 -->
<g id="node25" class="node">
<title>Node59</title>
<g id="a_node25"><a xlink:href="arch_2arm64-linux_2odp_2api_2abi_2cpumask_8h_source.html" target="_top" xlink:title=" ">
<polygon fill="white" stroke="black" points="2007.5,-224.5 2007.5,-243.5 2077.5,-243.5 2077.5,-224.5 2007.5,-224.5"/>
<text text-anchor="middle" x="2042.5" y="-231.5" font-family="Helvetica,sans-Serif" font-size="10.00">cpumask.h</text>
</a>
</g>
</g>
<!-- Node57&#45;&gt;Node59 -->
<g id="edge25" class="edge">
<title>Node57&#45;&gt;Node59</title>
<path fill="none" stroke="midnightblue" d="M1823.5,-279.8C1875.47,-269.17 1959.88,-251.9 2007.3,-242.2"/>
<polygon fill="midnightblue" stroke="midnightblue" points="1822.65,-276.4 1813.56,-281.83 1824.06,-283.25 1822.65,-276.4"/>
</g>
<!-- Node60 -->
<g id="node26" class="node">
<title>Node60</title>
<g id="a_node26"><a xlink:href="arch_2default-linux_2odp_2api_2abi_2cpumask_8h_source.html" target="_top" xlink:title=" ">
<polygon fill="white" stroke="black" points="2095.5,-224.5 2095.5,-243.5 2165.5,-243.5 2165.5,-224.5 2095.5,-224.5"/>
<text text-anchor="middle" x="2130.5" y="-231.5" font-family="Helvetica,sans-Serif" font-size="10.00">cpumask.h</text>
</a>
</g>
</g>
<!-- Node57&#45;&gt;Node60 -->
<g id="edge26" class="edge">
<title>Node57&#45;&gt;Node60</title>
<path fill="none" stroke="midnightblue" d="M1823.64,-283.22C1883.77,-275.33 1993.41,-260.31 2086.5,-244 2089.42,-243.49 2092.44,-242.93 2095.47,-242.35"/>
<polygon fill="midnightblue" stroke="midnightblue" points="1823.17,-279.75 1813.71,-284.52 1824.08,-286.69 1823.17,-279.75"/>
</g>
<!-- Node61 -->
<g id="node27" class="node">
<title>Node61</title>
<g id="a_node27"><a xlink:href="arch_2mips64-linux_2odp_2api_2abi_2cpumask_8h_source.html" target="_top" xlink:title=" ">
<polygon fill="white" stroke="black" points="1567.5,-224.5 1567.5,-243.5 1637.5,-243.5 1637.5,-224.5 1567.5,-224.5"/>
<text text-anchor="middle" x="1602.5" y="-231.5" font-family="Helvetica,sans-Serif" font-size="10.00">cpumask.h</text>
</a>
</g>
</g>
<!-- Node57&#45;&gt;Node61 -->
<g id="edge27" class="edge">
<title>Node57&#45;&gt;Node61</title>
<path fill="none" stroke="midnightblue" d="M1740.81,-277.44C1707.63,-267.26 1660.07,-252.66 1630.26,-243.52"/>
<polygon fill="midnightblue" stroke="midnightblue" points="1740.03,-280.86 1750.61,-280.44 1742.08,-274.16 1740.03,-280.86"/>
</g>
<!-- Node62 -->
<g id="node28" class="node">
<title>Node62</title>
<g id="a_node28"><a xlink:href="arch_2power64-linux_2odp_2api_2abi_2cpumask_8h_source.html" target="_top" xlink:title=" ">
<polygon fill="white" stroke="black" points="1655.5,-224.5 1655.5,-243.5 1725.5,-243.5 1725.5,-224.5 1655.5,-224.5"/>
<text text-anchor="middle" x="1690.5" y="-231.5" font-family="Helvetica,sans-Serif" font-size="10.00">cpumask.h</text>
</a>
</g>
</g>
<!-- Node57&#45;&gt;Node62 -->
<g id="edge28" class="edge">
<title>Node57&#45;&gt;Node62</title>
<path fill="none" stroke="midnightblue" d="M1755.52,-274.9C1739.39,-265 1718.32,-252.07 1704.6,-243.65"/>
<polygon fill="midnightblue" stroke="midnightblue" points="1754.01,-278.08 1764.36,-280.32 1757.67,-272.11 1754.01,-278.08"/>
</g>
<!-- Node63 -->
<g id="node29" class="node">
<title>Node63</title>
<g id="a_node29"><a xlink:href="arch_2x86__32-linux_2odp_2api_2abi_2cpumask_8h_source.html" target="_top" xlink:title=" ">
<polygon fill="white" stroke="black" points="1831.5,-224.5 1831.5,-243.5 1901.5,-243.5 1901.5,-224.5 1831.5,-224.5"/>
<text text-anchor="middle" x="1866.5" y="-231.5" font-family="Helvetica,sans-Serif" font-size="10.00">cpumask.h</text>
</a>
</g>
</g>
<!-- Node57&#45;&gt;Node63 -->
<g id="edge29" class="edge">
<title>Node57&#45;&gt;Node63</title>
<path fill="none" stroke="midnightblue" d="M1801.48,-274.9C1817.61,-265 1838.68,-252.07 1852.4,-243.65"/>
<polygon fill="midnightblue" stroke="midnightblue" points="1799.33,-272.11 1792.64,-280.32 1802.99,-278.08 1799.33,-272.11"/>
</g>
<!-- Node64 -->
<g id="node30" class="node">
<title>Node64</title>
<g id="a_node30"><a xlink:href="arch_2x86__64-linux_2odp_2api_2abi_2cpumask_8h_source.html" target="_top" xlink:title=" ">
<polygon fill="white" stroke="black" points="1743.5,-224.5 1743.5,-243.5 1813.5,-243.5 1813.5,-224.5 1743.5,-224.5"/>
<text text-anchor="middle" x="1778.5" y="-231.5" font-family="Helvetica,sans-Serif" font-size="10.00">cpumask.h</text>
</a>
</g>
</g>
<!-- Node57&#45;&gt;Node64 -->
<g id="edge30" class="edge">
<title>Node57&#45;&gt;Node64</title>
<path fill="none" stroke="midnightblue" d="M1778.5,-269.8C1778.5,-260.91 1778.5,-250.78 1778.5,-243.75"/>
<polygon fill="midnightblue" stroke="midnightblue" points="1775,-270.08 1778.5,-280.08 1782,-270.08 1775,-270.08"/>
</g>
<!-- Node65 -->
<g id="node31" class="node">
<title>Node65</title>
<g id="a_node31"><a xlink:href="api_2cpumask_8h.html" target="_top" xlink:title=" ">
<polygon fill="white" stroke="red" points="1677.5,-168.5 1677.5,-187.5 1747.5,-187.5 1747.5,-168.5 1677.5,-168.5"/>
<text text-anchor="middle" x="1712.5" y="-175.5" font-family="Helvetica,sans-Serif" font-size="10.00">cpumask.h</text>
</a>
</g>
</g>
<!-- Node64&#45;&gt;Node65 -->
<g id="edge31" class="edge">
<title>Node64&#45;&gt;Node65</title>
<path fill="none" stroke="midnightblue" d="M1759.95,-217.82C1748.12,-208.15 1733.21,-195.95 1723.3,-187.83"/>
<polygon fill="midnightblue" stroke="midnightblue" points="1757.94,-220.7 1767.9,-224.32 1762.37,-215.28 1757.94,-220.7"/>
</g>
<!-- Node65&#45;&gt;Node28 -->
<g id="edge32" class="edge">
<title>Node65&#45;&gt;Node28</title>
<path fill="none" stroke="midnightblue" d="M1688.29,-163.77C1661.05,-149.34 1615.17,-126.4 1573.5,-112 1517.95,-92.81 1450.62,-79.26 1411.66,-72.32"/>
<polygon fill="midnightblue" stroke="midnightblue" points="1686.64,-166.86 1697.1,-168.49 1689.94,-160.68 1686.64,-166.86"/>
</g>
<!-- Node82 -->
<g id="node33" class="node">
<title>Node82</title>
<g id="a_node33"><a xlink:href="api_2std__types_8h.html" target="_top" xlink:title=" ">
<polygon fill="white" stroke="red" points="1103,-336.5 1103,-355.5 1176,-355.5 1176,-336.5 1103,-336.5"/>
<text text-anchor="middle" x="1139.5" y="-343.5" font-family="Helvetica,sans-Serif" font-size="10.00">std_types.h</text>
</a>
</g>
</g>
<!-- Node81&#45;&gt;Node82 -->
<g id="edge34" class="edge">
<title>Node81&#45;&gt;Node82</title>
<path fill="none" stroke="midnightblue" d="M1250.47,-388.91C1223.59,-378.75 1185.86,-364.51 1162.05,-355.52"/>
<polygon fill="midnightblue" stroke="midnightblue" points="1249.25,-392.19 1259.84,-392.44 1251.72,-385.64 1249.25,-392.19"/>
</g>
<!-- Node82&#45;&gt;Node10 -->
<g id="edge35" class="edge">
<title>Node82&#45;&gt;Node10</title>
<path fill="none" stroke="midnightblue" d="M1092.56,-344.73C969.15,-343.49 625.61,-336.75 342.5,-300 337.86,-299.4 332.98,-298.58 328.22,-297.69"/>
<polygon fill="midnightblue" stroke="midnightblue" points="1092.75,-348.23 1102.78,-344.82 1092.81,-341.23 1092.75,-348.23"/>
</g>
<!-- Node82&#45;&gt;Node19 -->
<g id="edge36" class="edge">
<title>Node82&#45;&gt;Node19</title>
<path fill="none" stroke="midnightblue" d="M1118.48,-330.42C1057.28,-287.96 880.5,-165.32 831.96,-131.64"/>
<polygon fill="midnightblue" stroke="midnightblue" points="1116.74,-333.47 1126.96,-336.3 1120.73,-327.72 1116.74,-333.47"/>
</g>
<!-- Node82&#45;&gt;Node27 -->
<g id="edge46" class="edge">
<title>Node82&#45;&gt;Node27</title>
<path fill="none" stroke="midnightblue" d="M1092.85,-344C930.72,-340.29 400.19,-326.19 375.5,-300 369.4,-293.53 369.98,-286.96 375.5,-280 419.18,-224.93 481.46,-295.31 529.5,-244 559.33,-212.14 554.21,-153.71 550.99,-131.7"/>
<polygon fill="midnightblue" stroke="midnightblue" points="1092.91,-347.5 1102.99,-344.23 1093.07,-340.5 1092.91,-347.5"/>
</g>
<!-- Node82&#45;&gt;Node28 -->
<g id="edge65" class="edge">
<title>Node82&#45;&gt;Node28</title>
<path fill="none" stroke="midnightblue" d="M1186.31,-342.63C1257.66,-338.21 1389.4,-326.63 1427.5,-300 1454.57,-281.08 1463.5,-268.02 1463.5,-235 1463.5,-235 1463.5,-235 1463.5,-177 1463.5,-146.9 1462.11,-136.41 1444.5,-112 1432.7,-95.64 1413.02,-83.23 1398.4,-75.63"/>
<polygon fill="midnightblue" stroke="midnightblue" points="1186.01,-339.14 1176.23,-343.23 1186.42,-346.13 1186.01,-339.14"/>
</g>
<!-- Node82&#45;&gt;Node57 -->
<g id="edge38" class="edge">
<title>Node82&#45;&gt;Node57</title>
<path fill="none" stroke="midnightblue" d="M1186.3,-341.04C1308.48,-330.72 1635.05,-303.12 1743.18,-293.98"/>
<polygon fill="midnightblue" stroke="midnightblue" points="1185.82,-337.57 1176.15,-341.9 1186.41,-344.55 1185.82,-337.57"/>
</g>
<!-- Node83 -->
<g id="node34" class="node">
<title>Node83</title>
<g id="a_node34"><a xlink:href="api_2abi-default_2byteorder_8h.html" target="_top" xlink:title=" ">
<polygon fill="white" stroke="red" points="1567.5,-280.5 1567.5,-299.5 1639.5,-299.5 1639.5,-280.5 1567.5,-280.5"/>
<text text-anchor="middle" x="1603.5" y="-287.5" font-family="Helvetica,sans-Serif" font-size="10.00">byteorder.h</text>
</a>
</g>
</g>
<!-- Node82&#45;&gt;Node83 -->
<g id="edge37" class="edge">
<title>Node82&#45;&gt;Node83</title>
<path fill="none" stroke="midnightblue" d="M1186.47,-340.97C1263.38,-334.13 1420.91,-319.11 1553.5,-300 1558.04,-299.35 1562.8,-298.59 1567.5,-297.79"/>
<polygon fill="midnightblue" stroke="midnightblue" points="1185.81,-337.52 1176.16,-341.88 1186.43,-344.49 1185.81,-337.52"/>
</g>
<!-- Node92 -->
<g id="node35" class="node">
<title>Node92</title>
<g id="a_node35"><a xlink:href="api_2abi-default_2init_8h.html" target="_top" xlink:title=" ">
<polygon fill="white" stroke="red" points="385,-280.5 385,-299.5 426,-299.5 426,-280.5 385,-280.5"/>
<text text-anchor="middle" x="405.5" y="-287.5" font-family="Helvetica,sans-Serif" font-size="10.00">init.h</text>
</a>
</g>
</g>
<!-- Node82&#45;&gt;Node92 -->
<g id="edge39" class="edge">
<title>Node82&#45;&gt;Node92</title>
<path fill="none" stroke="midnightblue" d="M1092.67,-343.46C956.35,-338.75 561.45,-323.41 434.5,-300 431.8,-299.5 429.01,-298.84 426.26,-298.09"/>
<polygon fill="midnightblue" stroke="midnightblue" points="1092.67,-346.96 1102.78,-343.81 1092.91,-339.97 1092.67,-346.96"/>
</g>
<!-- Node100 -->
<g id="node36" class="node">
<title>Node100</title>
<g id="a_node36"><a xlink:href="api_2abi-default_2ipsec_8h.html" target="_top" xlink:title=" ">
<polygon fill="white" stroke="red" points="444,-280.5 444,-299.5 495,-299.5 495,-280.5 444,-280.5"/>
<text text-anchor="middle" x="469.5" y="-287.5" font-family="Helvetica,sans-Serif" font-size="10.00">ipsec.h</text>
</a>
</g>
</g>
<!-- Node82&#45;&gt;Node100 -->
<g id="edge40" class="edge">
<title>Node82&#45;&gt;Node100</title>
<path fill="none" stroke="midnightblue" d="M1092.71,-344.57C987.11,-342.98 722.5,-335.45 504.5,-300 501.4,-299.5 498.18,-298.85 495,-298.13"/>
<polygon fill="midnightblue" stroke="midnightblue" points="1092.68,-348.07 1102.72,-344.71 1092.77,-341.07 1092.68,-348.07"/>
</g>
<!-- Node109 -->
<g id="node37" class="node">
<title>Node109</title>
<g id="a_node37"><a xlink:href="api_2abi-default_2packet__io_8h.html" target="_top" xlink:title=" ">
<polygon fill="white" stroke="red" points="513.5,-280.5 513.5,-299.5 585.5,-299.5 585.5,-280.5 513.5,-280.5"/>
<text text-anchor="middle" x="549.5" y="-287.5" font-family="Helvetica,sans-Serif" font-size="10.00">packet_io.h</text>
</a>
</g>
</g>
<!-- Node82&#45;&gt;Node109 -->
<g id="edge41" class="edge">
<title>Node82&#45;&gt;Node109</title>
<path fill="none" stroke="midnightblue" d="M1092.91,-342.96C998.5,-338.44 778,-325.84 594.5,-300 591.66,-299.6 588.73,-299.13 585.79,-298.63"/>
<polygon fill="midnightblue" stroke="midnightblue" points="1092.83,-346.46 1102.98,-343.44 1093.16,-339.47 1092.83,-346.46"/>
</g>
<!-- Node39 -->
<g id="node38" class="node">
<title>Node39</title>
<g id="a_node38"><a xlink:href="api_2abi-default_2rwlock__recursive_8h.html" target="_top" xlink:title=" ">
<polygon fill="white" stroke="red" points="603.5,-280.5 603.5,-299.5 711.5,-299.5 711.5,-280.5 603.5,-280.5"/>
<text text-anchor="middle" x="657.5" y="-287.5" font-family="Helvetica,sans-Serif" font-size="10.00">rwlock_recursive.h</text>
</a>
</g>
</g>
<!-- Node82&#45;&gt;Node39 -->
<g id="edge42" class="edge">
<title>Node82&#45;&gt;Node39</title>
<path fill="none" stroke="midnightblue" d="M1092.34,-340.48C1014.71,-332.91 855.18,-316.85 720.5,-300 717.65,-299.64 714.73,-299.27 711.78,-298.88"/>
<polygon fill="midnightblue" stroke="midnightblue" points="1092.45,-344 1102.74,-341.49 1093.12,-337.04 1092.45,-344"/>
</g>
<!-- Node137 -->
<g id="node39" class="node">
<title>Node137</title>
<g id="a_node39"><a xlink:href="api_2abi-default_2schedule_8h.html" target="_top" xlink:title=" ">
<polygon fill="white" stroke="red" points="730,-280.5 730,-299.5 799,-299.5 799,-280.5 730,-280.5"/>
<text text-anchor="middle" x="764.5" y="-287.5" font-family="Helvetica,sans-Serif" font-size="10.00">schedule.h</text>
</a>
</g>
</g>
<!-- Node82&#45;&gt;Node137 -->
<g id="edge43" class="edge">
<title>Node82&#45;&gt;Node137</title>
<path fill="none" stroke="midnightblue" d="M1092.42,-339.6C1028.1,-332 909.23,-317.13 808.5,-300 805.43,-299.48 802.24,-298.9 799.05,-298.29"/>
<polygon fill="midnightblue" stroke="midnightblue" points="1092.3,-343.11 1102.64,-340.8 1093.12,-336.16 1092.3,-343.11"/>
</g>
<!-- Node145 -->
<g id="node40" class="node">
<title>Node145</title>
<g id="a_node40"><a xlink:href="api_2abi-default_2spinlock__recursive_8h.html" target="_top" xlink:title=" ">
<polygon fill="white" stroke="red" points="817.5,-280.5 817.5,-299.5 933.5,-299.5 933.5,-280.5 817.5,-280.5"/>
<text text-anchor="middle" x="875.5" y="-287.5" font-family="Helvetica,sans-Serif" font-size="10.00">spinlock_recursive.h</text>
</a>
</g>
</g>
<!-- Node82&#45;&gt;Node145 -->
<g id="edge44" class="edge">
<title>Node82&#45;&gt;Node145</title>
<path fill="none" stroke="midnightblue" d="M1092.92,-335.47C1043.13,-325.29 964.91,-309.29 917.11,-299.51"/>
<polygon fill="midnightblue" stroke="midnightblue" points="1092.29,-338.92 1102.79,-337.49 1093.7,-332.06 1092.29,-338.92"/>
</g>
<!-- Node154 -->
<g id="node41" class="node">
<title>Node154</title>
<g id="a_node41"><a xlink:href="api_2abi-default_2traffic__mngr_8h.html" target="_top" xlink:title=" ">
<polygon fill="white" stroke="red" points="951.5,-280.5 951.5,-299.5 1035.5,-299.5 1035.5,-280.5 951.5,-280.5"/>
<text text-anchor="middle" x="993.5" y="-287.5" font-family="Helvetica,sans-Serif" font-size="10.00">traffic_mngr.h</text>
</a>
</g>
</g>
<!-- Node82&#45;&gt;Node154 -->
<g id="edge45" class="edge">
<title>Node82&#45;&gt;Node154</title>
<path fill="none" stroke="midnightblue" d="M1106.8,-332.91C1079.35,-322.75 1040.83,-308.51 1016.53,-299.52"/>
<polygon fill="midnightblue" stroke="midnightblue" points="1105.77,-336.26 1116.37,-336.44 1108.2,-329.69 1105.77,-336.26"/>
</g>
<!-- Node162 -->
<g id="node42" class="node">
<title>Node162</title>
<g id="a_node42"><a xlink:href="api_2buffer_8h.html" target="_top" xlink:title=" ">
<polygon fill="white" stroke="black" points="1492,-112.5 1492,-131.5 1545,-131.5 1545,-112.5 1492,-112.5"/>
<text text-anchor="middle" x="1518.5" y="-119.5" font-family="Helvetica,sans-Serif" font-size="10.00">buffer.h</text>
</a>
</g>
</g>
<!-- Node82&#45;&gt;Node162 -->
<g id="edge47" class="edge">
<title>Node82&#45;&gt;Node162</title>
<path fill="none" stroke="midnightblue" d="M1186.24,-345.12C1268.81,-344.33 1435.75,-337.95 1477.5,-300 1527.68,-254.38 1522.49,-160.54 1519.54,-131.66"/>
<polygon fill="midnightblue" stroke="midnightblue" points="1186.09,-341.62 1176.12,-345.19 1186.14,-348.62 1186.09,-341.62"/>
</g>
<!-- Node117 -->
<g id="node43" class="node">
<title>Node117</title>
<g id="a_node43"><a xlink:href="api_2classification_8h.html" target="_top" xlink:title=" ">
<polygon fill="white" stroke="red" points="1120,-168.5 1120,-187.5 1209,-187.5 1209,-168.5 1120,-168.5"/>
<text text-anchor="middle" x="1164.5" y="-175.5" font-family="Helvetica,sans-Serif" font-size="10.00">classification.h</text>
</a>
</g>
</g>
<!-- Node82&#45;&gt;Node117 -->
<g id="edge49" class="edge">
<title>Node82&#45;&gt;Node117</title>
<path fill="none" stroke="midnightblue" d="M1128.41,-327.66C1114.48,-303.49 1094.23,-258.73 1110.5,-224 1118.16,-207.64 1135.01,-195.16 1147.87,-187.54"/>
<polygon fill="midnightblue" stroke="midnightblue" points="1125.53,-329.65 1133.7,-336.39 1131.52,-326.03 1125.53,-329.65"/>
</g>
<!-- Node123 -->
<g id="node44" class="node">
<title>Node123</title>
<g id="a_node44"><a xlink:href="api_2crypto_8h.html" target="_top" xlink:title=" ">
<polygon fill="white" stroke="red" points="1537.5,-168.5 1537.5,-187.5 1593.5,-187.5 1593.5,-168.5 1537.5,-168.5"/>
<text text-anchor="middle" x="1565.5" y="-175.5" font-family="Helvetica,sans-Serif" font-size="10.00">crypto.h</text>
</a>
</g>
</g>
<!-- Node82&#45;&gt;Node123 -->
<g id="edge51" class="edge">
<title>Node82&#45;&gt;Node123</title>
<path fill="none" stroke="midnightblue" d="M1186.28,-345.14C1275.3,-344.5 1464.74,-338.51 1515.5,-300 1552.8,-271.7 1562.45,-210.59 1564.79,-187.81"/>
<polygon fill="midnightblue" stroke="midnightblue" points="1186.17,-341.64 1176.19,-345.19 1186.21,-348.64 1186.17,-341.64"/>
</g>
<!-- Node119 -->
<g id="node45" class="node">
<title>Node119</title>
<g id="a_node45"><a xlink:href="api_2packet_8h.html" target="_top" xlink:title=" ">
<polygon fill="white" stroke="red" points="1265.5,-112.5 1265.5,-131.5 1323.5,-131.5 1323.5,-112.5 1265.5,-112.5"/>
<text text-anchor="middle" x="1294.5" y="-119.5" font-family="Helvetica,sans-Serif" font-size="10.00">packet.h</text>
</a>
</g>
</g>
<!-- Node82&#45;&gt;Node119 -->
<g id="edge53" class="edge">
<title>Node82&#45;&gt;Node119</title>
<path fill="none" stroke="midnightblue" d="M1185.86,-335.95C1207.72,-329.43 1232.46,-318.4 1248.5,-300 1293.14,-248.77 1295.29,-159.51 1294.8,-131.59"/>
<polygon fill="midnightblue" stroke="midnightblue" points="1184.77,-332.62 1176.06,-338.64 1186.63,-339.37 1184.77,-332.62"/>
</g>
<!-- Node131 -->
<g id="node46" class="node">
<title>Node131</title>
<g id="a_node46"><a xlink:href="api_2packet__io_8h.html" target="_top" xlink:title=" ">
<polygon fill="white" stroke="red" points="1167.5,-280.5 1167.5,-299.5 1239.5,-299.5 1239.5,-280.5 1167.5,-280.5"/>
<text text-anchor="middle" x="1203.5" y="-287.5" font-family="Helvetica,sans-Serif" font-size="10.00">packet_io.h</text>
</a>
</g>
</g>
<!-- Node82&#45;&gt;Node131 -->
<g id="edge55" class="edge">
<title>Node82&#45;&gt;Node131</title>
<path fill="none" stroke="midnightblue" d="M1157.49,-329.82C1168.96,-320.15 1183.41,-307.95 1193.03,-299.83"/>
<polygon fill="midnightblue" stroke="midnightblue" points="1155.17,-327.2 1149.78,-336.32 1159.68,-332.55 1155.17,-327.2"/>
</g>
<!-- Node132 -->
<g id="node47" class="node">
<title>Node132</title>
<g id="a_node47"><a xlink:href="api_2spec_2classification_8h.html" target="_top" xlink:title=" ">
<polygon fill="white" stroke="black" points="1120,-224.5 1120,-243.5 1209,-243.5 1209,-224.5 1120,-224.5"/>
<text text-anchor="middle" x="1164.5" y="-231.5" font-family="Helvetica,sans-Serif" font-size="10.00">classification.h</text>
</a>
</g>
</g>
<!-- Node82&#45;&gt;Node132 -->
<g id="edge64" class="edge">
<title>Node82&#45;&gt;Node132</title>
<path fill="none" stroke="midnightblue" d="M1143.74,-326.35C1149.22,-302.25 1158.52,-261.31 1162.55,-243.59"/>
<polygon fill="midnightblue" stroke="midnightblue" points="1140.27,-325.84 1141.46,-336.37 1147.09,-327.39 1140.27,-325.84"/>
</g>
<!-- Node163 -->
<g id="node48" class="node">
<title>Node163</title>
<g id="a_node48"><a xlink:href="api_2proto__stats_8h.html" target="_top" xlink:title=" ">
<polygon fill="white" stroke="black" points="1307.5,-168.5 1307.5,-187.5 1387.5,-187.5 1387.5,-168.5 1307.5,-168.5"/>
<text text-anchor="middle" x="1347.5" y="-175.5" font-family="Helvetica,sans-Serif" font-size="10.00">proto_stats.h</text>
</a>
</g>
</g>
<!-- Node82&#45;&gt;Node163 -->
<g id="edge59" class="edge">
<title>Node82&#45;&gt;Node163</title>
<path fill="none" stroke="midnightblue" d="M1186.28,-339.29C1216.25,-333.59 1254.45,-322.29 1281.5,-300 1319.36,-268.81 1338.91,-209.98 1345.19,-187.78"/>
<polygon fill="midnightblue" stroke="midnightblue" points="1185.3,-335.91 1176.05,-341.08 1186.51,-342.8 1185.3,-335.91"/>
</g>
<!-- Node127 -->
<g id="node49" class="node">
<title>Node127</title>
<g id="a_node49"><a xlink:href="api_2queue_8h.html" target="_top" xlink:title=" ">
<polygon fill="white" stroke="red" points="1379.5,-112.5 1379.5,-131.5 1435.5,-131.5 1435.5,-112.5 1379.5,-112.5"/>
<text text-anchor="middle" x="1407.5" y="-119.5" font-family="Helvetica,sans-Serif" font-size="10.00">queue.h</text>
</a>
</g>
</g>
<!-- Node82&#45;&gt;Node127 -->
<g id="edge61" class="edge">
<title>Node82&#45;&gt;Node127</title>
<path fill="none" stroke="midnightblue" d="M1186.42,-344.07C1255.33,-341.6 1378.76,-332.61 1406.5,-300 1449.1,-249.9 1421.18,-159.88 1410.87,-131.68"/>
<polygon fill="midnightblue" stroke="midnightblue" points="1186.13,-340.58 1176.25,-344.4 1186.36,-347.57 1186.13,-340.58"/>
</g>
<!-- Node164 -->
<g id="node50" class="node">
<title>Node164</title>
<g id="a_node50"><a xlink:href="spec_2chksum_8h.html" target="_top" xlink:title=" ">
<polygon fill="white" stroke="red" points="1333.5,-280.5 1333.5,-299.5 1397.5,-299.5 1397.5,-280.5 1333.5,-280.5"/>
<text text-anchor="middle" x="1365.5" y="-287.5" font-family="Helvetica,sans-Serif" font-size="10.00">chksum.h</text>
</a>
</g>
</g>
<!-- Node82&#45;&gt;Node164 -->
<g id="edge63" class="edge">
<title>Node82&#45;&gt;Node164</title>
<path fill="none" stroke="midnightblue" d="M1185.16,-334.09C1229.08,-323.6 1294.36,-308 1333.15,-298.73"/>
<polygon fill="midnightblue" stroke="midnightblue" points="1184.22,-330.72 1175.31,-336.44 1185.85,-337.52 1184.22,-330.72"/>
</g>
<!-- Node162&#45;&gt;Node28 -->
<g id="edge48" class="edge">
<title>Node162&#45;&gt;Node28</title>
<path fill="none" stroke="midnightblue" d="M1487.02,-108.77C1460.91,-98.63 1424.46,-84.47 1401.42,-75.52"/>
<polygon fill="midnightblue" stroke="midnightblue" points="1485.89,-112.08 1496.48,-112.44 1488.42,-105.56 1485.89,-112.08"/>
</g>
<!-- Node117&#45;&gt;Node28 -->
<g id="edge50" class="edge">
<title>Node117&#45;&gt;Node28</title>
<path fill="none" stroke="midnightblue" d="M1175.64,-160.19C1186.27,-145.42 1203.58,-124.42 1223.5,-112 1262.13,-87.92 1314.11,-76.32 1347.22,-71.03"/>
<polygon fill="midnightblue" stroke="midnightblue" points="1172.74,-158.23 1169.93,-168.44 1178.5,-162.21 1172.74,-158.23"/>
</g>
<!-- Node123&#45;&gt;Node28 -->
<g id="edge52" class="edge">
<title>Node123&#45;&gt;Node28</title>
<path fill="none" stroke="midnightblue" d="M1567.09,-157.86C1567.19,-143.46 1564.86,-124.19 1553.5,-112 1534.41,-91.51 1456.54,-77.63 1411.71,-71.17"/>
<polygon fill="midnightblue" stroke="midnightblue" points="1563.58,-157.98 1566.6,-168.13 1570.57,-158.31 1563.58,-157.98"/>
</g>
<!-- Node119&#45;&gt;Node28 -->
<g id="edge54" class="edge">
<title>Node119&#45;&gt;Node28</title>
<path fill="none" stroke="midnightblue" d="M1316.69,-106.9C1332.28,-97 1352.63,-84.07 1365.88,-75.65"/>
<polygon fill="midnightblue" stroke="midnightblue" points="1314.72,-104.01 1308.16,-112.32 1318.47,-109.92 1314.72,-104.01"/>
</g>
<!-- Node131&#45;&gt;Node28 -->
<g id="edge58" class="edge">
<title>Node131&#45;&gt;Node28</title>
<path fill="none" stroke="midnightblue" d="M1209.24,-270.77C1211.79,-262.59 1214.83,-252.82 1217.5,-244 1235.25,-185.46 1214.64,-156.61 1256.5,-112 1280.31,-86.63 1319.59,-75.51 1347.35,-70.67"/>
<polygon fill="midnightblue" stroke="midnightblue" points="1205.87,-269.8 1206.22,-280.38 1212.55,-271.89 1205.87,-269.8"/>
</g>
<!-- Node131&#45;&gt;Node132 -->
<g id="edge56" class="edge">
<title>Node131&#45;&gt;Node132</title>
<path fill="none" stroke="midnightblue" d="M1191.12,-271.86C1184.36,-262.5 1176.29,-251.33 1170.82,-243.75"/>
<polygon fill="midnightblue" stroke="midnightblue" points="1188.37,-274.03 1197.06,-280.08 1194.04,-269.93 1188.37,-274.03"/>
</g>
<!-- Node132&#45;&gt;Node117 -->
<g id="edge57" class="edge">
<title>Node132&#45;&gt;Node117</title>
<path fill="none" stroke="midnightblue" d="M1164.5,-213.8C1164.5,-204.91 1164.5,-194.78 1164.5,-187.75"/>
<polygon fill="midnightblue" stroke="midnightblue" points="1161,-214.08 1164.5,-224.08 1168,-214.08 1161,-214.08"/>
</g>
<!-- Node163&#45;&gt;Node28 -->
<g id="edge60" class="edge">
<title>Node163&#45;&gt;Node28</title>
<path fill="none" stroke="midnightblue" d="M1352.83,-158.67C1359.83,-134.62 1371.82,-93.39 1377,-75.59"/>
<polygon fill="midnightblue" stroke="midnightblue" points="1349.44,-157.79 1350.01,-168.37 1356.17,-159.74 1349.44,-157.79"/>
</g>
<!-- Node127&#45;&gt;Node28 -->
<g id="edge62" class="edge">
<title>Node127&#45;&gt;Node28</title>
<path fill="none" stroke="midnightblue" d="M1398.16,-102.98C1393.41,-93.82 1387.84,-83.09 1384.04,-75.75"/>
<polygon fill="midnightblue" stroke="midnightblue" points="1395.17,-104.82 1402.88,-112.08 1401.38,-101.59 1395.17,-104.82"/>
</g>
</g>
</svg>
