<?xml version="1.0" encoding="UTF-8" standalone="no"?>
<!DOCTYPE svg PUBLIC "-//W3C//DTD SVG 1.1//EN"
 "http://www.w3.org/Graphics/SVG/1.1/DTD/svg11.dtd">
<!-- Generated by graphviz version 2.43.0 (0)
 -->
<!-- Title: proto_stats_types.h Pages: 1 -->
<svg width="661pt" height="1092pt"
 viewBox="0.00 0.00 660.50 1092.00" xmlns="http://www.w3.org/2000/svg" xmlns:xlink="http://www.w3.org/1999/xlink">
<g id="graph0" class="graph" transform="scale(1 1) rotate(0) translate(4 1088)">
<title>proto_stats_types.h</title>
<polygon fill="white" stroke="transparent" points="-4,4 -4,-1088 656.5,-1088 656.5,4 -4,4"/>
<!-- Node1 -->
<g id="node1" class="node">
<title>Node1</title>
<g id="a_node1"><a xlink:title=" ">
<polygon fill="#bfbfbf" stroke="black" points="418,-1064.5 418,-1083.5 531,-1083.5 531,-1064.5 418,-1064.5"/>
<text text-anchor="middle" x="474.5" y="-1071.5" font-family="Helvetica,sans-Serif" font-size="10.00">proto_stats_types.h</text>
</a>
</g>
</g>
<!-- Node2 -->
<g id="node2" class="node">
<title>Node2</title>
<g id="a_node2"><a xlink:href="api_2proto__stats__types_8h.html" target="_top" xlink:title=" ">
<polygon fill="white" stroke="black" points="418,-1008.5 418,-1027.5 531,-1027.5 531,-1008.5 418,-1008.5"/>
<text text-anchor="middle" x="474.5" y="-1015.5" font-family="Helvetica,sans-Serif" font-size="10.00">proto_stats_types.h</text>
</a>
</g>
</g>
<!-- Node1&#45;&gt;Node2 -->
<g id="edge1" class="edge">
<title>Node1&#45;&gt;Node2</title>
<path fill="none" stroke="midnightblue" d="M474.5,-1053.8C474.5,-1044.91 474.5,-1034.78 474.5,-1027.75"/>
<polygon fill="midnightblue" stroke="midnightblue" points="471,-1054.08 474.5,-1064.08 478,-1054.08 471,-1054.08"/>
</g>
<!-- Node3 -->
<g id="node3" class="node">
<title>Node3</title>
<g id="a_node3"><a xlink:href="api_2spec_2packet_8h.html" target="_top" xlink:title=" ">
<polygon fill="white" stroke="black" points="372.5,-840.5 372.5,-859.5 430.5,-859.5 430.5,-840.5 372.5,-840.5"/>
<text text-anchor="middle" x="401.5" y="-847.5" font-family="Helvetica,sans-Serif" font-size="10.00">packet.h</text>
</a>
</g>
</g>
<!-- Node2&#45;&gt;Node3 -->
<g id="edge2" class="edge">
<title>Node2&#45;&gt;Node3</title>
<path fill="none" stroke="midnightblue" d="M475.51,-998.15C476,-973.15 473.88,-928.41 455.5,-896 446.47,-880.08 429.48,-867.36 416.96,-859.57"/>
<polygon fill="midnightblue" stroke="midnightblue" points="472,-998.3 475.13,-1008.42 479,-998.55 472,-998.3"/>
</g>
<!-- Node29 -->
<g id="node29" class="node">
<title>Node29</title>
<g id="a_node29"><a xlink:href="api_2spec_2packet__types_8h.html" target="_top" xlink:title=" ">
<polygon fill="white" stroke="black" points="356.5,-952.5 356.5,-971.5 446.5,-971.5 446.5,-952.5 356.5,-952.5"/>
<text text-anchor="middle" x="401.5" y="-959.5" font-family="Helvetica,sans-Serif" font-size="10.00">packet_types.h</text>
</a>
</g>
</g>
<!-- Node2&#45;&gt;Node29 -->
<g id="edge42" class="edge">
<title>Node2&#45;&gt;Node29</title>
<path fill="none" stroke="midnightblue" d="M454.36,-1002.1C441.22,-992.38 424.52,-980.03 413.44,-971.83"/>
<polygon fill="midnightblue" stroke="midnightblue" points="452.65,-1005.19 462.77,-1008.32 456.81,-999.56 452.65,-1005.19"/>
</g>
<!-- Node31 -->
<g id="node31" class="node">
<title>Node31</title>
<g id="a_node31"><a xlink:href="api_2spec_2proto__stats_8h.html" target="_top" xlink:title=" ">
<polygon fill="white" stroke="black" points="553.5,-952.5 553.5,-971.5 633.5,-971.5 633.5,-952.5 553.5,-952.5"/>
<text text-anchor="middle" x="593.5" y="-959.5" font-family="Helvetica,sans-Serif" font-size="10.00">proto_stats.h</text>
</a>
</g>
</g>
<!-- Node2&#45;&gt;Node31 -->
<g id="edge45" class="edge">
<title>Node2&#45;&gt;Node31</title>
<path fill="none" stroke="midnightblue" d="M502.64,-1004.23C524.9,-994.13 555.36,-980.31 574.73,-971.52"/>
<polygon fill="midnightblue" stroke="midnightblue" points="501.02,-1001.12 493.36,-1008.44 503.91,-1007.5 501.02,-1001.12"/>
</g>
<!-- Node4 -->
<g id="node4" class="node">
<title>Node4</title>
<g id="a_node4"><a xlink:href="api_2packet_8h.html" target="_top" xlink:title=" ">
<polygon fill="white" stroke="black" points="365.5,-784.5 365.5,-803.5 423.5,-803.5 423.5,-784.5 365.5,-784.5"/>
<text text-anchor="middle" x="394.5" y="-791.5" font-family="Helvetica,sans-Serif" font-size="10.00">packet.h</text>
</a>
</g>
</g>
<!-- Node3&#45;&gt;Node4 -->
<g id="edge3" class="edge">
<title>Node3&#45;&gt;Node4</title>
<path fill="none" stroke="midnightblue" d="M399.05,-830.1C397.89,-821.14 396.56,-810.86 395.63,-803.75"/>
<polygon fill="midnightblue" stroke="midnightblue" points="395.59,-830.62 400.34,-840.08 402.53,-829.72 395.59,-830.62"/>
</g>
<!-- Node5 -->
<g id="node5" class="node">
<title>Node5</title>
<g id="a_node5"><a xlink:href="api_2spec_2comp_8h.html" target="_top" xlink:title=" ">
<polygon fill="white" stroke="black" points="30,-728.5 30,-747.5 83,-747.5 83,-728.5 30,-728.5"/>
<text text-anchor="middle" x="56.5" y="-735.5" font-family="Helvetica,sans-Serif" font-size="10.00">comp.h</text>
</a>
</g>
</g>
<!-- Node4&#45;&gt;Node5 -->
<g id="edge4" class="edge">
<title>Node4&#45;&gt;Node5</title>
<path fill="none" stroke="midnightblue" d="M355.29,-786.74C285.79,-775.63 142.73,-752.78 83.3,-743.28"/>
<polygon fill="midnightblue" stroke="midnightblue" points="354.96,-790.23 365.39,-788.35 356.07,-783.32 354.96,-790.23"/>
</g>
<!-- Node7 -->
<g id="node7" class="node">
<title>Node7</title>
<g id="a_node7"><a xlink:href="odp__api_8h.html" target="_top" xlink:title=" ">
<polygon fill="white" stroke="black" points="363.5,-56.5 363.5,-75.5 427.5,-75.5 427.5,-56.5 363.5,-56.5"/>
<text text-anchor="middle" x="395.5" y="-63.5" font-family="Helvetica,sans-Serif" font-size="10.00">odp_api.h</text>
</a>
</g>
</g>
<!-- Node4&#45;&gt;Node7 -->
<g id="edge41" class="edge">
<title>Node4&#45;&gt;Node7</title>
<path fill="none" stroke="midnightblue" d="M434.07,-789.42C493.65,-781.62 599.5,-757.3 599.5,-683 599.5,-683 599.5,-683 599.5,-177 599.5,-99.95 485.35,-76.62 427.82,-69.76"/>
<polygon fill="midnightblue" stroke="midnightblue" points="433.38,-785.98 423.87,-790.66 434.22,-792.93 433.38,-785.98"/>
</g>
<!-- Node9 -->
<g id="node9" class="node">
<title>Node9</title>
<g id="a_node9"><a xlink:href="api_2spec_2crypto_8h.html" target="_top" xlink:title=" ">
<polygon fill="white" stroke="black" points="94.5,-672.5 94.5,-691.5 150.5,-691.5 150.5,-672.5 94.5,-672.5"/>
<text text-anchor="middle" x="122.5" y="-679.5" font-family="Helvetica,sans-Serif" font-size="10.00">crypto.h</text>
</a>
</g>
</g>
<!-- Node4&#45;&gt;Node9 -->
<g id="edge8" class="edge">
<title>Node4&#45;&gt;Node9</title>
<path fill="none" stroke="midnightblue" d="M355.27,-790.37C312.97,-786.18 244.69,-775.42 192.5,-748 165.19,-733.65 140.61,-705.84 129.21,-691.7"/>
<polygon fill="midnightblue" stroke="midnightblue" points="355.16,-793.87 365.44,-791.3 355.8,-786.9 355.16,-793.87"/>
</g>
<!-- Node13 -->
<g id="node13" class="node">
<title>Node13</title>
<g id="a_node13"><a xlink:href="api_2spec_2event_8h.html" target="_top" xlink:title=" ">
<polygon fill="white" stroke="black" points="368,-728.5 368,-747.5 421,-747.5 421,-728.5 368,-728.5"/>
<text text-anchor="middle" x="394.5" y="-735.5" font-family="Helvetica,sans-Serif" font-size="10.00">event.h</text>
</a>
</g>
</g>
<!-- Node4&#45;&gt;Node13 -->
<g id="edge14" class="edge">
<title>Node4&#45;&gt;Node13</title>
<path fill="none" stroke="midnightblue" d="M394.5,-773.8C394.5,-764.91 394.5,-754.78 394.5,-747.75"/>
<polygon fill="midnightblue" stroke="midnightblue" points="391,-774.08 394.5,-784.08 398,-774.08 391,-774.08"/>
</g>
<!-- Node19 -->
<g id="node19" class="node">
<title>Node19</title>
<g id="a_node19"><a xlink:href="api_2spec_2packet__io_8h.html" target="_top" xlink:title=" ">
<polygon fill="white" stroke="black" points="209.5,-392.5 209.5,-411.5 281.5,-411.5 281.5,-392.5 209.5,-392.5"/>
<text text-anchor="middle" x="245.5" y="-399.5" font-family="Helvetica,sans-Serif" font-size="10.00">packet_io.h</text>
</a>
</g>
</g>
<!-- Node4&#45;&gt;Node19 -->
<g id="edge40" class="edge">
<title>Node4&#45;&gt;Node19</title>
<path fill="none" stroke="midnightblue" d="M354.97,-787.73C299.83,-777.91 206.5,-751.21 206.5,-683 206.5,-683 206.5,-683 206.5,-513 206.5,-473.29 229.36,-429.9 240.08,-411.75"/>
<polygon fill="midnightblue" stroke="midnightblue" points="354.69,-791.23 365.12,-789.43 355.84,-784.33 354.69,-791.23"/>
</g>
<!-- Node27 -->
<g id="node27" class="node">
<title>Node27</title>
<g id="a_node27"><a xlink:href="api_2spec_2packet__flags_8h.html" target="_top" xlink:title=" ">
<polygon fill="white" stroke="black" points="462.5,-728.5 462.5,-747.5 548.5,-747.5 548.5,-728.5 462.5,-728.5"/>
<text text-anchor="middle" x="505.5" y="-735.5" font-family="Helvetica,sans-Serif" font-size="10.00">packet_flags.h</text>
</a>
</g>
</g>
<!-- Node4&#45;&gt;Node27 -->
<g id="edge37" class="edge">
<title>Node4&#45;&gt;Node27</title>
<path fill="none" stroke="midnightblue" d="M421.51,-779.86C442.09,-769.85 469.84,-756.35 487.71,-747.65"/>
<polygon fill="midnightblue" stroke="midnightblue" points="419.8,-776.8 412.33,-784.32 422.86,-783.1 419.8,-776.8"/>
</g>
<!-- Node6 -->
<g id="node6" class="node">
<title>Node6</title>
<g id="a_node6"><a xlink:href="api_2comp_8h.html" target="_top" xlink:title=" ">
<polygon fill="white" stroke="black" points="0,-504.5 0,-523.5 53,-523.5 53,-504.5 0,-504.5"/>
<text text-anchor="middle" x="26.5" y="-511.5" font-family="Helvetica,sans-Serif" font-size="10.00">comp.h</text>
</a>
</g>
</g>
<!-- Node5&#45;&gt;Node6 -->
<g id="edge5" class="edge">
<title>Node5&#45;&gt;Node6</title>
<path fill="none" stroke="midnightblue" d="M53.97,-718.3C47.8,-672.64 32.16,-556.85 27.7,-523.88"/>
<polygon fill="midnightblue" stroke="midnightblue" points="50.52,-718.86 55.32,-728.3 57.45,-717.92 50.52,-718.86"/>
</g>
<!-- Node6&#45;&gt;Node7 -->
<g id="edge6" class="edge">
<title>Node6&#45;&gt;Node7</title>
<path fill="none" stroke="midnightblue" d="M24.03,-494.29C21.37,-472.43 17.5,-435.16 17.5,-403 17.5,-403 17.5,-403 17.5,-177 17.5,-105.24 271.86,-77.19 363.27,-69.43"/>
<polygon fill="midnightblue" stroke="midnightblue" points="20.59,-494.98 25.32,-504.46 27.54,-494.1 20.59,-494.98"/>
</g>
<!-- Node8 -->
<g id="node8" class="node">
<title>Node8</title>
<g id="a_node8"><a xlink:href="odp_8h.html" target="_top" xlink:title=" ">
<polygon fill="white" stroke="black" points="373.5,-0.5 373.5,-19.5 417.5,-19.5 417.5,-0.5 373.5,-0.5"/>
<text text-anchor="middle" x="395.5" y="-7.5" font-family="Helvetica,sans-Serif" font-size="10.00">odp.h</text>
</a>
</g>
</g>
<!-- Node7&#45;&gt;Node8 -->
<g id="edge7" class="edge">
<title>Node7&#45;&gt;Node8</title>
<path fill="none" stroke="midnightblue" d="M395.5,-45.8C395.5,-36.91 395.5,-26.78 395.5,-19.75"/>
<polygon fill="midnightblue" stroke="midnightblue" points="392,-46.08 395.5,-56.08 399,-46.08 392,-46.08"/>
</g>
<!-- Node10 -->
<g id="node10" class="node">
<title>Node10</title>
<g id="a_node10"><a xlink:href="api_2crypto_8h.html" target="_top" xlink:title=" ">
<polygon fill="white" stroke="black" points="45.5,-224.5 45.5,-243.5 101.5,-243.5 101.5,-224.5 45.5,-224.5"/>
<text text-anchor="middle" x="73.5" y="-231.5" font-family="Helvetica,sans-Serif" font-size="10.00">crypto.h</text>
</a>
</g>
</g>
<!-- Node9&#45;&gt;Node10 -->
<g id="edge9" class="edge">
<title>Node9&#45;&gt;Node10</title>
<path fill="none" stroke="midnightblue" d="M112.91,-663.4C102.24,-642.15 86.5,-605.02 86.5,-571 86.5,-571 86.5,-571 86.5,-345 86.5,-306.92 78.72,-261.94 75.2,-243.52"/>
<polygon fill="midnightblue" stroke="midnightblue" points="109.91,-665.23 117.64,-672.47 116.12,-661.99 109.91,-665.23"/>
</g>
<!-- Node10&#45;&gt;Node7 -->
<g id="edge13" class="edge">
<title>Node10&#45;&gt;Node7</title>
<path fill="none" stroke="midnightblue" d="M84.53,-215.63C102.47,-188.89 140.63,-138.01 186.5,-112 243.16,-79.87 320.36,-70.64 363.31,-68.02"/>
<polygon fill="midnightblue" stroke="midnightblue" points="81.4,-214.01 78.85,-224.3 87.26,-217.85 81.4,-214.01"/>
</g>
<!-- Node11 -->
<g id="node11" class="node">
<title>Node11</title>
<g id="a_node11"><a xlink:href="api_2spec_2ipsec_8h.html" target="_top" xlink:title=" ">
<polygon fill="white" stroke="black" points="177,-168.5 177,-187.5 228,-187.5 228,-168.5 177,-168.5"/>
<text text-anchor="middle" x="202.5" y="-175.5" font-family="Helvetica,sans-Serif" font-size="10.00">ipsec.h</text>
</a>
</g>
</g>
<!-- Node10&#45;&gt;Node11 -->
<g id="edge10" class="edge">
<title>Node10&#45;&gt;Node11</title>
<path fill="none" stroke="midnightblue" d="M103.35,-220.5C127.54,-210.38 160.96,-196.39 182.16,-187.52"/>
<polygon fill="midnightblue" stroke="midnightblue" points="101.81,-217.35 93.94,-224.44 104.52,-223.81 101.81,-217.35"/>
</g>
<!-- Node12 -->
<g id="node12" class="node">
<title>Node12</title>
<g id="a_node12"><a xlink:href="api_2ipsec_8h.html" target="_top" xlink:title=" ">
<polygon fill="white" stroke="black" points="196,-112.5 196,-131.5 247,-131.5 247,-112.5 196,-112.5"/>
<text text-anchor="middle" x="221.5" y="-119.5" font-family="Helvetica,sans-Serif" font-size="10.00">ipsec.h</text>
</a>
</g>
</g>
<!-- Node11&#45;&gt;Node12 -->
<g id="edge11" class="edge">
<title>Node11&#45;&gt;Node12</title>
<path fill="none" stroke="midnightblue" d="M209.05,-158.4C212.22,-149.36 215.89,-138.94 218.42,-131.75"/>
<polygon fill="midnightblue" stroke="midnightblue" points="205.65,-157.49 205.64,-168.08 212.26,-159.81 205.65,-157.49"/>
</g>
<!-- Node12&#45;&gt;Node7 -->
<g id="edge12" class="edge">
<title>Node12&#45;&gt;Node7</title>
<path fill="none" stroke="midnightblue" d="M256.84,-110.03C289.68,-99.84 337.93,-84.87 368,-75.54"/>
<polygon fill="midnightblue" stroke="midnightblue" points="255.69,-106.73 247.17,-113.03 257.76,-113.41 255.69,-106.73"/>
</g>
<!-- Node14 -->
<g id="node14" class="node">
<title>Node14</title>
<g id="a_node14"><a xlink:href="api_2event_8h.html" target="_top" xlink:title=" ">
<polygon fill="white" stroke="black" points="368,-672.5 368,-691.5 421,-691.5 421,-672.5 368,-672.5"/>
<text text-anchor="middle" x="394.5" y="-679.5" font-family="Helvetica,sans-Serif" font-size="10.00">event.h</text>
</a>
</g>
</g>
<!-- Node13&#45;&gt;Node14 -->
<g id="edge15" class="edge">
<title>Node13&#45;&gt;Node14</title>
<path fill="none" stroke="midnightblue" d="M394.5,-717.8C394.5,-708.91 394.5,-698.78 394.5,-691.75"/>
<polygon fill="midnightblue" stroke="midnightblue" points="391,-718.08 394.5,-728.08 398,-718.08 391,-718.08"/>
</g>
<!-- Node14&#45;&gt;Node7 -->
<g id="edge36" class="edge">
<title>Node14&#45;&gt;Node7</title>
<path fill="none" stroke="midnightblue" d="M412.84,-665.5C421.37,-657.46 431.04,-647.02 437.5,-636 452.8,-609.93 457.5,-601.23 457.5,-571 457.5,-571 457.5,-571 457.5,-513 457.5,-437.78 490.5,-422.22 490.5,-347 490.5,-347 490.5,-347 490.5,-177 490.5,-129.06 438.17,-91.69 411.19,-75.6"/>
<polygon fill="midnightblue" stroke="midnightblue" points="410.24,-663.13 405.15,-672.42 414.93,-668.33 410.24,-663.13"/>
</g>
<!-- Node15 -->
<g id="node15" class="node">
<title>Node15</title>
<g id="a_node15"><a xlink:href="api_2spec_2queue_8h.html" target="_top" xlink:title=" ">
<polygon fill="white" stroke="black" points="285.5,-616.5 285.5,-635.5 341.5,-635.5 341.5,-616.5 285.5,-616.5"/>
<text text-anchor="middle" x="313.5" y="-623.5" font-family="Helvetica,sans-Serif" font-size="10.00">queue.h</text>
</a>
</g>
</g>
<!-- Node14&#45;&gt;Node15 -->
<g id="edge16" class="edge">
<title>Node14&#45;&gt;Node15</title>
<path fill="none" stroke="midnightblue" d="M372.93,-666.62C358.14,-656.76 338.99,-643.99 326.48,-635.65"/>
<polygon fill="midnightblue" stroke="midnightblue" points="371.22,-669.69 381.49,-672.32 375.11,-663.86 371.22,-669.69"/>
</g>
<!-- Node25 -->
<g id="node25" class="node">
<title>Node25</title>
<g id="a_node25"><a xlink:href="api_2spec_2schedule_8h.html" target="_top" xlink:title=" ">
<polygon fill="white" stroke="black" points="360,-616.5 360,-635.5 429,-635.5 429,-616.5 360,-616.5"/>
<text text-anchor="middle" x="394.5" y="-623.5" font-family="Helvetica,sans-Serif" font-size="10.00">schedule.h</text>
</a>
</g>
</g>
<!-- Node14&#45;&gt;Node25 -->
<g id="edge33" class="edge">
<title>Node14&#45;&gt;Node25</title>
<path fill="none" stroke="midnightblue" d="M394.5,-661.8C394.5,-652.91 394.5,-642.78 394.5,-635.75"/>
<polygon fill="midnightblue" stroke="midnightblue" points="391,-662.08 394.5,-672.08 398,-662.08 391,-662.08"/>
</g>
<!-- Node16 -->
<g id="node16" class="node">
<title>Node16</title>
<g id="a_node16"><a xlink:href="api_2queue_8h.html" target="_top" xlink:title=" ">
<polygon fill="white" stroke="black" points="285.5,-560.5 285.5,-579.5 341.5,-579.5 341.5,-560.5 285.5,-560.5"/>
<text text-anchor="middle" x="313.5" y="-567.5" font-family="Helvetica,sans-Serif" font-size="10.00">queue.h</text>
</a>
</g>
</g>
<!-- Node15&#45;&gt;Node16 -->
<g id="edge17" class="edge">
<title>Node15&#45;&gt;Node16</title>
<path fill="none" stroke="midnightblue" d="M313.5,-605.8C313.5,-596.91 313.5,-586.78 313.5,-579.75"/>
<polygon fill="midnightblue" stroke="midnightblue" points="310,-606.08 313.5,-616.08 317,-606.08 310,-606.08"/>
</g>
<!-- Node16&#45;&gt;Node7 -->
<g id="edge32" class="edge">
<title>Node16&#45;&gt;Node7</title>
<path fill="none" stroke="midnightblue" d="M327.14,-552.37C333.22,-544.23 340.01,-534.05 344.5,-524 357.99,-493.84 414.5,-268.04 414.5,-235 414.5,-235 414.5,-235 414.5,-177 414.5,-138.82 403.25,-94.26 398.06,-75.75"/>
<polygon fill="midnightblue" stroke="midnightblue" points="324.35,-550.24 320.96,-560.28 329.87,-554.55 324.35,-550.24"/>
</g>
<!-- Node17 -->
<g id="node17" class="node">
<title>Node17</title>
<g id="a_node17"><a xlink:href="spec_2packet__io__stats_8h.html" target="_top" xlink:title=" ">
<polygon fill="white" stroke="black" points="235,-504.5 235,-523.5 336,-523.5 336,-504.5 235,-504.5"/>
<text text-anchor="middle" x="285.5" y="-511.5" font-family="Helvetica,sans-Serif" font-size="10.00">packet_io_stats.h</text>
</a>
</g>
</g>
<!-- Node16&#45;&gt;Node17 -->
<g id="edge18" class="edge">
<title>Node16&#45;&gt;Node17</title>
<path fill="none" stroke="midnightblue" d="M304.16,-550.98C299.41,-541.82 293.84,-531.09 290.04,-523.75"/>
<polygon fill="midnightblue" stroke="midnightblue" points="301.17,-552.82 308.88,-560.08 307.38,-549.59 301.17,-552.82"/>
</g>
<!-- Node18 -->
<g id="node18" class="node">
<title>Node18</title>
<g id="a_node18"><a xlink:href="packet__io__stats_8h.html" target="_top" xlink:title=" ">
<polygon fill="white" stroke="black" points="235,-448.5 235,-467.5 336,-467.5 336,-448.5 235,-448.5"/>
<text text-anchor="middle" x="285.5" y="-455.5" font-family="Helvetica,sans-Serif" font-size="10.00">packet_io_stats.h</text>
</a>
</g>
</g>
<!-- Node17&#45;&gt;Node18 -->
<g id="edge19" class="edge">
<title>Node17&#45;&gt;Node18</title>
<path fill="none" stroke="midnightblue" d="M285.5,-493.8C285.5,-484.91 285.5,-474.78 285.5,-467.75"/>
<polygon fill="midnightblue" stroke="midnightblue" points="282,-494.08 285.5,-504.08 289,-494.08 282,-494.08"/>
</g>
<!-- Node18&#45;&gt;Node19 -->
<g id="edge20" class="edge">
<title>Node18&#45;&gt;Node19</title>
<path fill="none" stroke="midnightblue" d="M272.8,-439.86C265.87,-430.5 257.59,-419.33 251.98,-411.75"/>
<polygon fill="midnightblue" stroke="midnightblue" points="270.13,-442.13 278.89,-448.08 275.75,-437.96 270.13,-442.13"/>
</g>
<!-- Node20 -->
<g id="node20" class="node">
<title>Node20</title>
<g id="a_node20"><a xlink:href="api_2packet__io_8h.html" target="_top" xlink:title=" ">
<polygon fill="white" stroke="black" points="209.5,-336.5 209.5,-355.5 281.5,-355.5 281.5,-336.5 209.5,-336.5"/>
<text text-anchor="middle" x="245.5" y="-343.5" font-family="Helvetica,sans-Serif" font-size="10.00">packet_io.h</text>
</a>
</g>
</g>
<!-- Node19&#45;&gt;Node20 -->
<g id="edge21" class="edge">
<title>Node19&#45;&gt;Node20</title>
<path fill="none" stroke="midnightblue" d="M245.5,-381.8C245.5,-372.91 245.5,-362.78 245.5,-355.75"/>
<polygon fill="midnightblue" stroke="midnightblue" points="242,-382.08 245.5,-392.08 249,-382.08 242,-382.08"/>
</g>
<!-- Node20&#45;&gt;Node7 -->
<g id="edge31" class="edge">
<title>Node20&#45;&gt;Node7</title>
<path fill="none" stroke="midnightblue" d="M291.34,-336.48C314.11,-330.04 340.33,-318.93 357.5,-300 377.72,-277.7 376.5,-265.1 376.5,-235 376.5,-235 376.5,-235 376.5,-177 376.5,-138.82 387.75,-94.26 392.94,-75.75"/>
<polygon fill="midnightblue" stroke="midnightblue" points="290.3,-333.13 281.51,-339.04 292.07,-339.91 290.3,-333.13"/>
</g>
<!-- Node20&#45;&gt;Node11 -->
<g id="edge26" class="edge">
<title>Node20&#45;&gt;Node11</title>
<path fill="none" stroke="midnightblue" d="M199.47,-335.25C180.29,-328.67 159.87,-317.8 148.5,-300 130.32,-271.53 134.17,-254.59 148.5,-224 156.16,-207.64 173.01,-195.16 185.87,-187.54"/>
<polygon fill="midnightblue" stroke="midnightblue" points="198.45,-338.6 209.04,-338.23 200.54,-331.91 198.45,-338.6"/>
</g>
<!-- Node21 -->
<g id="node21" class="node">
<title>Node21</title>
<g id="a_node21"><a xlink:href="api_2spec_2classification_8h.html" target="_top" xlink:title=" ">
<polygon fill="white" stroke="black" points="158,-280.5 158,-299.5 247,-299.5 247,-280.5 158,-280.5"/>
<text text-anchor="middle" x="202.5" y="-287.5" font-family="Helvetica,sans-Serif" font-size="10.00">classification.h</text>
</a>
</g>
</g>
<!-- Node20&#45;&gt;Node21 -->
<g id="edge22" class="edge">
<title>Node20&#45;&gt;Node21</title>
<path fill="none" stroke="midnightblue" d="M232.08,-328.14C224.59,-318.74 215.56,-307.4 209.47,-299.75"/>
<polygon fill="midnightblue" stroke="midnightblue" points="229.43,-330.44 238.4,-336.08 234.91,-326.08 229.43,-330.44"/>
</g>
<!-- Node23 -->
<g id="node23" class="node">
<title>Node23</title>
<g id="a_node23"><a xlink:href="api_2spec_2traffic__mngr_8h.html" target="_top" xlink:title=" ">
<polygon fill="white" stroke="black" points="264.5,-280.5 264.5,-299.5 348.5,-299.5 348.5,-280.5 264.5,-280.5"/>
<text text-anchor="middle" x="306.5" y="-287.5" font-family="Helvetica,sans-Serif" font-size="10.00">traffic_mngr.h</text>
</a>
</g>
</g>
<!-- Node20&#45;&gt;Node23 -->
<g id="edge27" class="edge">
<title>Node20&#45;&gt;Node23</title>
<path fill="none" stroke="midnightblue" d="M262.97,-329.54C273.84,-319.91 287.44,-307.87 296.52,-299.83"/>
<polygon fill="midnightblue" stroke="midnightblue" points="260.47,-327.07 255.3,-336.32 265.11,-332.32 260.47,-327.07"/>
</g>
<!-- Node22 -->
<g id="node22" class="node">
<title>Node22</title>
<g id="a_node22"><a xlink:href="api_2classification_8h.html" target="_top" xlink:title=" ">
<polygon fill="white" stroke="black" points="158,-224.5 158,-243.5 247,-243.5 247,-224.5 158,-224.5"/>
<text text-anchor="middle" x="202.5" y="-231.5" font-family="Helvetica,sans-Serif" font-size="10.00">classification.h</text>
</a>
</g>
</g>
<!-- Node21&#45;&gt;Node22 -->
<g id="edge23" class="edge">
<title>Node21&#45;&gt;Node22</title>
<path fill="none" stroke="midnightblue" d="M202.5,-269.8C202.5,-260.91 202.5,-250.78 202.5,-243.75"/>
<polygon fill="midnightblue" stroke="midnightblue" points="199,-270.08 202.5,-280.08 206,-270.08 199,-270.08"/>
</g>
<!-- Node22&#45;&gt;Node7 -->
<g id="edge25" class="edge">
<title>Node22&#45;&gt;Node7</title>
<path fill="none" stroke="midnightblue" d="M220.67,-217.37C260.55,-183.07 354.63,-102.16 385.5,-75.61"/>
<polygon fill="midnightblue" stroke="midnightblue" points="217.9,-215.13 212.6,-224.31 222.47,-220.44 217.9,-215.13"/>
</g>
<!-- Node22&#45;&gt;Node11 -->
<g id="edge24" class="edge">
<title>Node22&#45;&gt;Node11</title>
<path fill="none" stroke="midnightblue" d="M202.5,-213.8C202.5,-204.91 202.5,-194.78 202.5,-187.75"/>
<polygon fill="midnightblue" stroke="midnightblue" points="199,-214.08 202.5,-224.08 206,-214.08 199,-214.08"/>
</g>
<!-- Node24 -->
<g id="node24" class="node">
<title>Node24</title>
<g id="a_node24"><a xlink:href="api_2traffic__mngr_8h.html" target="_top" xlink:title=" ">
<polygon fill="white" stroke="black" points="264.5,-224.5 264.5,-243.5 348.5,-243.5 348.5,-224.5 264.5,-224.5"/>
<text text-anchor="middle" x="306.5" y="-231.5" font-family="Helvetica,sans-Serif" font-size="10.00">traffic_mngr.h</text>
</a>
</g>
</g>
<!-- Node23&#45;&gt;Node24 -->
<g id="edge28" class="edge">
<title>Node23&#45;&gt;Node24</title>
<path fill="none" stroke="midnightblue" d="M306.5,-269.8C306.5,-260.91 306.5,-250.78 306.5,-243.75"/>
<polygon fill="midnightblue" stroke="midnightblue" points="303,-270.08 306.5,-280.08 310,-270.08 303,-270.08"/>
</g>
<!-- Node24&#45;&gt;Node7 -->
<g id="edge30" class="edge">
<title>Node24&#45;&gt;Node7</title>
<path fill="none" stroke="midnightblue" d="M313.56,-214.87C323.27,-190.71 341.89,-146.92 362.5,-112 370.38,-98.65 381.3,-84.41 388.38,-75.61"/>
<polygon fill="midnightblue" stroke="midnightblue" points="310.18,-213.91 309.75,-224.5 316.69,-216.48 310.18,-213.91"/>
</g>
<!-- Node24&#45;&gt;Node11 -->
<g id="edge29" class="edge">
<title>Node24&#45;&gt;Node11</title>
<path fill="none" stroke="midnightblue" d="M280.67,-219.59C261.44,-209.61 235.76,-196.27 219.17,-187.65"/>
<polygon fill="midnightblue" stroke="midnightblue" points="279.3,-222.82 289.79,-224.32 282.53,-216.61 279.3,-222.82"/>
</g>
<!-- Node26 -->
<g id="node26" class="node">
<title>Node26</title>
<g id="a_node26"><a xlink:href="api_2schedule_8h.html" target="_top" xlink:title=" ">
<polygon fill="white" stroke="black" points="393,-392.5 393,-411.5 462,-411.5 462,-392.5 393,-392.5"/>
<text text-anchor="middle" x="427.5" y="-399.5" font-family="Helvetica,sans-Serif" font-size="10.00">schedule.h</text>
</a>
</g>
</g>
<!-- Node25&#45;&gt;Node26 -->
<g id="edge34" class="edge">
<title>Node25&#45;&gt;Node26</title>
<path fill="none" stroke="midnightblue" d="M397.28,-606.3C404.07,-560.64 421.28,-444.85 426.18,-411.88"/>
<polygon fill="midnightblue" stroke="midnightblue" points="393.8,-605.89 395.79,-616.3 400.73,-606.92 393.8,-605.89"/>
</g>
<!-- Node26&#45;&gt;Node7 -->
<g id="edge35" class="edge">
<title>Node26&#45;&gt;Node7</title>
<path fill="none" stroke="midnightblue" d="M434.26,-382.81C441.67,-361.23 452.5,-324 452.5,-291 452.5,-291 452.5,-291 452.5,-177 452.5,-135.06 419.43,-93.19 403.67,-75.62"/>
<polygon fill="midnightblue" stroke="midnightblue" points="430.93,-381.72 430.87,-392.31 437.53,-384.07 430.93,-381.72"/>
</g>
<!-- Node28 -->
<g id="node28" class="node">
<title>Node28</title>
<g id="a_node28"><a xlink:href="api_2packet__flags_8h.html" target="_top" xlink:title=" ">
<polygon fill="white" stroke="black" points="485.5,-448.5 485.5,-467.5 571.5,-467.5 571.5,-448.5 485.5,-448.5"/>
<text text-anchor="middle" x="528.5" y="-455.5" font-family="Helvetica,sans-Serif" font-size="10.00">packet_flags.h</text>
</a>
</g>
</g>
<!-- Node27&#45;&gt;Node28 -->
<g id="edge38" class="edge">
<title>Node27&#45;&gt;Node28</title>
<path fill="none" stroke="midnightblue" d="M508.79,-718.32C512.34,-696.49 517.5,-659.24 517.5,-627 517.5,-627 517.5,-627 517.5,-569 517.5,-531 524.08,-485.98 527.06,-467.53"/>
<polygon fill="midnightblue" stroke="midnightblue" points="505.29,-718.03 507.07,-728.48 512.19,-719.2 505.29,-718.03"/>
</g>
<!-- Node28&#45;&gt;Node7 -->
<g id="edge39" class="edge">
<title>Node28&#45;&gt;Node7</title>
<path fill="none" stroke="midnightblue" d="M528.5,-438.25C528.5,-416.36 528.5,-379.05 528.5,-347 528.5,-347 528.5,-347 528.5,-177 528.5,-146.2 525.86,-134.18 504.5,-112 483.91,-90.62 451.68,-79.02 427.59,-72.98"/>
<polygon fill="midnightblue" stroke="midnightblue" points="525,-438.44 528.5,-448.44 532,-438.44 525,-438.44"/>
</g>
<!-- Node30 -->
<g id="node30" class="node">
<title>Node30</title>
<g id="a_node30"><a xlink:href="api_2packet__types_8h.html" target="_top" xlink:title=" ">
<polygon fill="white" stroke="black" points="356.5,-896.5 356.5,-915.5 446.5,-915.5 446.5,-896.5 356.5,-896.5"/>
<text text-anchor="middle" x="401.5" y="-903.5" font-family="Helvetica,sans-Serif" font-size="10.00">packet_types.h</text>
</a>
</g>
</g>
<!-- Node29&#45;&gt;Node30 -->
<g id="edge43" class="edge">
<title>Node29&#45;&gt;Node30</title>
<path fill="none" stroke="midnightblue" d="M401.5,-941.8C401.5,-932.91 401.5,-922.78 401.5,-915.75"/>
<polygon fill="midnightblue" stroke="midnightblue" points="398,-942.08 401.5,-952.08 405,-942.08 398,-942.08"/>
</g>
<!-- Node30&#45;&gt;Node3 -->
<g id="edge44" class="edge">
<title>Node30&#45;&gt;Node3</title>
<path fill="none" stroke="midnightblue" d="M401.5,-885.8C401.5,-876.91 401.5,-866.78 401.5,-859.75"/>
<polygon fill="midnightblue" stroke="midnightblue" points="398,-886.08 401.5,-896.08 405,-886.08 398,-886.08"/>
</g>
<!-- Node32 -->
<g id="node32" class="node">
<title>Node32</title>
<g id="a_node32"><a xlink:href="api_2proto__stats_8h.html" target="_top" xlink:title=" ">
<polygon fill="white" stroke="black" points="572.5,-840.5 572.5,-859.5 652.5,-859.5 652.5,-840.5 572.5,-840.5"/>
<text text-anchor="middle" x="612.5" y="-847.5" font-family="Helvetica,sans-Serif" font-size="10.00">proto_stats.h</text>
</a>
</g>
</g>
<!-- Node31&#45;&gt;Node32 -->
<g id="edge46" class="edge">
<title>Node31&#45;&gt;Node32</title>
<path fill="none" stroke="midnightblue" d="M596.72,-942.35C600.88,-918.25 607.96,-877.31 611.02,-859.59"/>
<polygon fill="midnightblue" stroke="midnightblue" points="593.24,-941.92 594.99,-952.37 600.14,-943.11 593.24,-941.92"/>
</g>
<!-- Node32&#45;&gt;Node7 -->
<g id="edge47" class="edge">
<title>Node32&#45;&gt;Node7</title>
<path fill="none" stroke="midnightblue" d="M619.26,-830.81C626.67,-809.23 637.5,-772 637.5,-739 637.5,-739 637.5,-739 637.5,-177 637.5,-85.85 493.46,-69.87 427.64,-67.33"/>
<polygon fill="midnightblue" stroke="midnightblue" points="615.93,-829.72 615.87,-840.31 622.53,-832.07 615.93,-829.72"/>
</g>
</g>
</svg>
