<?xml version="1.0" encoding="UTF-8" standalone="no"?>
<!DOCTYPE svg PUBLIC "-//W3C//DTD SVG 1.1//EN"
 "http://www.w3.org/Graphics/SVG/1.1/DTD/svg11.dtd">
<!-- Generated by graphviz version 2.43.0 (0)
 -->
<!-- Title: align.h Pages: 1 -->
<svg width="3064pt" height="476pt"
 viewBox="0.00 0.00 3063.69 476.00" xmlns="http://www.w3.org/2000/svg" xmlns:xlink="http://www.w3.org/1999/xlink">
<g id="graph0" class="graph" transform="scale(1 1) rotate(0) translate(4 472)">
<title>align.h</title>
<polygon fill="white" stroke="transparent" points="-4,4 -4,-472 3059.69,-472 3059.69,4 -4,4"/>
<!-- Node1 -->
<g id="node1" class="node">
<title>Node1</title>
<g id="a_node1"><a xlink:title=" ">
<polygon fill="#bfbfbf" stroke="black" points="1363.5,-448.5 1363.5,-467.5 1413.5,-467.5 1413.5,-448.5 1363.5,-448.5"/>
<text text-anchor="middle" x="1388.5" y="-455.5" font-family="Helvetica,sans-Serif" font-size="10.00">align.h</text>
</a>
</g>
</g>
<!-- Node2 -->
<g id="node2" class="node">
<title>Node2</title>
<g id="a_node2"><a xlink:href="api_2abi-default_2atomic_8h.html" target="_top" xlink:title=" ">
<polygon fill="white" stroke="black" points="308,-280.5 308,-299.5 367,-299.5 367,-280.5 308,-280.5"/>
<text text-anchor="middle" x="337.5" y="-287.5" font-family="Helvetica,sans-Serif" font-size="10.00">atomic.h</text>
</a>
</g>
</g>
<!-- Node1&#45;&gt;Node2 -->
<g id="edge1" class="edge">
<title>Node1&#45;&gt;Node2</title>
<path fill="none" stroke="midnightblue" d="M1353.37,-451.45C1191.23,-425.84 516.74,-319.31 367.02,-295.66"/>
<polygon fill="midnightblue" stroke="midnightblue" points="1352.88,-454.92 1363.3,-453.02 1353.97,-448 1352.88,-454.92"/>
</g>
<!-- Node20 -->
<g id="node13" class="node">
<title>Node20</title>
<g id="a_node13"><a xlink:href="odp__api_8h.html" target="_top" xlink:title=" ">
<polygon fill="white" stroke="black" points="1494.5,-56.5 1494.5,-75.5 1558.5,-75.5 1558.5,-56.5 1494.5,-56.5"/>
<text text-anchor="middle" x="1526.5" y="-63.5" font-family="Helvetica,sans-Serif" font-size="10.00">odp_api.h</text>
</a>
</g>
</g>
<!-- Node1&#45;&gt;Node20 -->
<g id="edge74" class="edge">
<title>Node1&#45;&gt;Node20</title>
<path fill="none" stroke="midnightblue" d="M1424,-456.42C1656.68,-452.4 2954.5,-426.4 2954.5,-347 2954.5,-347 2954.5,-347 2954.5,-177 2954.5,-158.52 3323.21,-191.53 2643.5,-112 2425.07,-86.44 1718.01,-70.87 1558.62,-67.63"/>
<polygon fill="midnightblue" stroke="midnightblue" points="1423.67,-452.93 1413.73,-456.6 1423.79,-459.92 1423.67,-452.93"/>
</g>
<!-- Node49 -->
<g id="node15" class="node">
<title>Node49</title>
<g id="a_node15"><a xlink:href="api_2abi-default_2cpumask_8h.html" target="_top" xlink:title=" ">
<polygon fill="white" stroke="black" points="891.5,-280.5 891.5,-299.5 961.5,-299.5 961.5,-280.5 891.5,-280.5"/>
<text text-anchor="middle" x="926.5" y="-287.5" font-family="Helvetica,sans-Serif" font-size="10.00">cpumask.h</text>
</a>
</g>
</g>
<!-- Node1&#45;&gt;Node49 -->
<g id="edge15" class="edge">
<title>Node1&#45;&gt;Node49</title>
<path fill="none" stroke="midnightblue" d="M1355.07,-444.99C1266.37,-413.12 1026.61,-326.97 950.22,-299.52"/>
<polygon fill="midnightblue" stroke="midnightblue" points="1354.04,-448.34 1364.63,-448.42 1356.41,-441.75 1354.04,-448.34"/>
</g>
<!-- Node73 -->
<g id="node25" class="node">
<title>Node73</title>
<g id="a_node25"><a xlink:href="api_2spec_2std__types_8h.html" target="_top" xlink:title=" ">
<polygon fill="white" stroke="black" points="1712,-392.5 1712,-411.5 1785,-411.5 1785,-392.5 1712,-392.5"/>
<text text-anchor="middle" x="1748.5" y="-399.5" font-family="Helvetica,sans-Serif" font-size="10.00">std_types.h</text>
</a>
</g>
</g>
<!-- Node1&#45;&gt;Node73 -->
<g id="edge26" class="edge">
<title>Node1&#45;&gt;Node73</title>
<path fill="none" stroke="midnightblue" d="M1423.79,-451.71C1492.26,-441.44 1642.48,-418.9 1711.94,-408.48"/>
<polygon fill="midnightblue" stroke="midnightblue" points="1422.9,-448.3 1413.53,-453.25 1423.94,-455.22 1422.9,-448.3"/>
</g>
<!-- Node3 -->
<g id="node3" class="node">
<title>Node3</title>
<g id="a_node3"><a xlink:href="arch_2arm32-linux_2odp_2api_2abi_2atomic_8h_source.html" target="_top" xlink:title=" ">
<polygon fill="white" stroke="black" points="154,-224.5 154,-243.5 213,-243.5 213,-224.5 154,-224.5"/>
<text text-anchor="middle" x="183.5" y="-231.5" font-family="Helvetica,sans-Serif" font-size="10.00">atomic.h</text>
</a>
</g>
</g>
<!-- Node2&#45;&gt;Node3 -->
<g id="edge2" class="edge">
<title>Node2&#45;&gt;Node3</title>
<path fill="none" stroke="midnightblue" d="M303.39,-277.04C274.41,-266.88 233.54,-252.55 207.79,-243.52"/>
<polygon fill="midnightblue" stroke="midnightblue" points="302.5,-280.44 313.1,-280.44 304.82,-273.83 302.5,-280.44"/>
</g>
<!-- Node4 -->
<g id="node4" class="node">
<title>Node4</title>
<g id="a_node4"><a xlink:href="arch_2arm64-linux_2odp_2api_2abi_2atomic_8h_source.html" target="_top" xlink:title=" ">
<polygon fill="white" stroke="black" points="231,-224.5 231,-243.5 290,-243.5 290,-224.5 231,-224.5"/>
<text text-anchor="middle" x="260.5" y="-231.5" font-family="Helvetica,sans-Serif" font-size="10.00">atomic.h</text>
</a>
</g>
</g>
<!-- Node2&#45;&gt;Node4 -->
<g id="edge3" class="edge">
<title>Node2&#45;&gt;Node4</title>
<path fill="none" stroke="midnightblue" d="M316.6,-274.34C302.59,-264.52 284.62,-251.91 272.84,-243.65"/>
<polygon fill="midnightblue" stroke="midnightblue" points="314.93,-277.45 325.13,-280.32 318.95,-271.72 314.93,-277.45"/>
</g>
<!-- Node5 -->
<g id="node5" class="node">
<title>Node5</title>
<g id="a_node5"><a xlink:href="arch_2default-linux_2odp_2api_2abi_2atomic_8h_source.html" target="_top" xlink:title=" ">
<polygon fill="white" stroke="black" points="308,-224.5 308,-243.5 367,-243.5 367,-224.5 308,-224.5"/>
<text text-anchor="middle" x="337.5" y="-231.5" font-family="Helvetica,sans-Serif" font-size="10.00">atomic.h</text>
</a>
</g>
</g>
<!-- Node2&#45;&gt;Node5 -->
<g id="edge4" class="edge">
<title>Node2&#45;&gt;Node5</title>
<path fill="none" stroke="midnightblue" d="M337.5,-269.8C337.5,-260.91 337.5,-250.78 337.5,-243.75"/>
<polygon fill="midnightblue" stroke="midnightblue" points="334,-270.08 337.5,-280.08 341,-270.08 334,-270.08"/>
</g>
<!-- Node6 -->
<g id="node6" class="node">
<title>Node6</title>
<g id="a_node6"><a xlink:href="arch_2mips64-linux_2odp_2api_2abi_2atomic_8h_source.html" target="_top" xlink:title=" ">
<polygon fill="white" stroke="black" points="385,-224.5 385,-243.5 444,-243.5 444,-224.5 385,-224.5"/>
<text text-anchor="middle" x="414.5" y="-231.5" font-family="Helvetica,sans-Serif" font-size="10.00">atomic.h</text>
</a>
</g>
</g>
<!-- Node2&#45;&gt;Node6 -->
<g id="edge5" class="edge">
<title>Node2&#45;&gt;Node6</title>
<path fill="none" stroke="midnightblue" d="M358.4,-274.34C372.41,-264.52 390.38,-251.91 402.16,-243.65"/>
<polygon fill="midnightblue" stroke="midnightblue" points="356.05,-271.72 349.87,-280.32 360.07,-277.45 356.05,-271.72"/>
</g>
<!-- Node7 -->
<g id="node7" class="node">
<title>Node7</title>
<g id="a_node7"><a xlink:href="arch_2power64-linux_2odp_2api_2abi_2atomic_8h_source.html" target="_top" xlink:title=" ">
<polygon fill="white" stroke="black" points="0,-224.5 0,-243.5 59,-243.5 59,-224.5 0,-224.5"/>
<text text-anchor="middle" x="29.5" y="-231.5" font-family="Helvetica,sans-Serif" font-size="10.00">atomic.h</text>
</a>
</g>
</g>
<!-- Node2&#45;&gt;Node7 -->
<g id="edge6" class="edge">
<title>Node2&#45;&gt;Node7</title>
<path fill="none" stroke="midnightblue" d="M297.86,-283.25C245.09,-275.4 148.95,-260.41 67.5,-244 64.84,-243.46 62.09,-242.88 59.33,-242.27"/>
<polygon fill="midnightblue" stroke="midnightblue" points="297.41,-286.72 307.82,-284.72 298.44,-279.8 297.41,-286.72"/>
</g>
<!-- Node8 -->
<g id="node8" class="node">
<title>Node8</title>
<g id="a_node8"><a xlink:href="arch_2x86__32-linux_2odp_2api_2abi_2atomic_8h_source.html" target="_top" xlink:title=" ">
<polygon fill="white" stroke="black" points="77,-224.5 77,-243.5 136,-243.5 136,-224.5 77,-224.5"/>
<text text-anchor="middle" x="106.5" y="-231.5" font-family="Helvetica,sans-Serif" font-size="10.00">atomic.h</text>
</a>
</g>
</g>
<!-- Node2&#45;&gt;Node8 -->
<g id="edge7" class="edge">
<title>Node2&#45;&gt;Node8</title>
<path fill="none" stroke="midnightblue" d="M297.83,-279.79C258.8,-270.73 197.54,-256.46 144.5,-244 141.86,-243.38 139.12,-242.73 136.37,-242.08"/>
<polygon fill="midnightblue" stroke="midnightblue" points="297.2,-283.24 307.74,-282.09 298.79,-276.42 297.2,-283.24"/>
</g>
<!-- Node9 -->
<g id="node9" class="node">
<title>Node9</title>
<g id="a_node9"><a xlink:href="arch_2x86__64-linux_2odp_2api_2abi_2atomic_8h_source.html" target="_top" xlink:title=" ">
<polygon fill="white" stroke="black" points="462,-224.5 462,-243.5 521,-243.5 521,-224.5 462,-224.5"/>
<text text-anchor="middle" x="491.5" y="-231.5" font-family="Helvetica,sans-Serif" font-size="10.00">atomic.h</text>
</a>
</g>
</g>
<!-- Node2&#45;&gt;Node9 -->
<g id="edge8" class="edge">
<title>Node2&#45;&gt;Node9</title>
<path fill="none" stroke="midnightblue" d="M371.61,-277.04C400.59,-266.88 441.46,-252.55 467.21,-243.52"/>
<polygon fill="midnightblue" stroke="midnightblue" points="370.18,-273.83 361.9,-280.44 372.5,-280.44 370.18,-273.83"/>
</g>
<!-- Node10 -->
<g id="node10" class="node">
<title>Node10</title>
<g id="a_node10"><a xlink:href="api_2atomic_8h.html" target="_top" xlink:title=" ">
<polygon fill="white" stroke="red" points="982,-168.5 982,-187.5 1041,-187.5 1041,-168.5 982,-168.5"/>
<text text-anchor="middle" x="1011.5" y="-175.5" font-family="Helvetica,sans-Serif" font-size="10.00">atomic.h</text>
</a>
</g>
</g>
<!-- Node9&#45;&gt;Node10 -->
<g id="edge9" class="edge">
<title>Node9&#45;&gt;Node10</title>
<path fill="none" stroke="midnightblue" d="M531.21,-224.11C707.63,-196.18 907.47,-184.19 981.77,-180.4"/>
<polygon fill="midnightblue" stroke="midnightblue" points="530.55,-220.67 521.23,-225.71 531.66,-227.58 530.55,-220.67"/>
</g>
<!-- Node11 -->
<g id="node11" class="node">
<title>Node11</title>
<g id="a_node11"><a xlink:href="api_2abi-default_2barrier_8h.html" target="_top" xlink:title=" ">
<polygon fill="white" stroke="red" points="1107,-112.5 1107,-131.5 1164,-131.5 1164,-112.5 1107,-112.5"/>
<text text-anchor="middle" x="1135.5" y="-119.5" font-family="Helvetica,sans-Serif" font-size="10.00">barrier.h</text>
</a>
</g>
</g>
<!-- Node10&#45;&gt;Node11 -->
<g id="edge10" class="edge">
<title>Node10&#45;&gt;Node11</title>
<path fill="none" stroke="midnightblue" d="M1040.51,-164.37C1063.73,-154.26 1095.66,-140.35 1115.94,-131.52"/>
<polygon fill="midnightblue" stroke="midnightblue" points="1038.92,-161.24 1031.15,-168.44 1041.71,-167.66 1038.92,-161.24"/>
</g>
<!-- Node19 -->
<g id="node12" class="node">
<title>Node19</title>
<g id="a_node12"><a xlink:href="api_2barrier_8h.html" target="_top" xlink:title=" ">
<polygon fill="white" stroke="black" points="1032,-112.5 1032,-131.5 1089,-131.5 1089,-112.5 1032,-112.5"/>
<text text-anchor="middle" x="1060.5" y="-119.5" font-family="Helvetica,sans-Serif" font-size="10.00">barrier.h</text>
</a>
</g>
</g>
<!-- Node10&#45;&gt;Node19 -->
<g id="edge11" class="edge">
<title>Node10&#45;&gt;Node19</title>
<path fill="none" stroke="midnightblue" d="M1026.53,-160.43C1035.12,-150.97 1045.54,-139.48 1052.56,-131.75"/>
<polygon fill="midnightblue" stroke="midnightblue" points="1023.72,-158.33 1019.59,-168.08 1028.9,-163.03 1023.72,-158.33"/>
</g>
<!-- Node10&#45;&gt;Node20 -->
<g id="edge14" class="edge">
<title>Node10&#45;&gt;Node20</title>
<path fill="none" stroke="midnightblue" d="M1009.08,-158.26C1008.32,-143.49 1010.04,-123.51 1022.5,-112 1057.13,-79.99 1388.33,-70.02 1494.16,-67.63"/>
<polygon fill="midnightblue" stroke="midnightblue" points="1005.61,-158.68 1010.01,-168.32 1012.58,-158.04 1005.61,-158.68"/>
</g>
<!-- Node19&#45;&gt;Node20 -->
<g id="edge12" class="edge">
<title>Node19&#45;&gt;Node20</title>
<path fill="none" stroke="midnightblue" d="M1099.15,-111.91C1252.12,-85.97 1424.11,-73.35 1494.28,-68.9"/>
<polygon fill="midnightblue" stroke="midnightblue" points="1098.37,-108.5 1089.1,-113.64 1099.55,-115.4 1098.37,-108.5"/>
</g>
<!-- Node21 -->
<g id="node14" class="node">
<title>Node21</title>
<g id="a_node14"><a xlink:href="odp_8h.html" target="_top" xlink:title=" ">
<polygon fill="white" stroke="black" points="1504.5,-0.5 1504.5,-19.5 1548.5,-19.5 1548.5,-0.5 1504.5,-0.5"/>
<text text-anchor="middle" x="1526.5" y="-7.5" font-family="Helvetica,sans-Serif" font-size="10.00">odp.h</text>
</a>
</g>
</g>
<!-- Node20&#45;&gt;Node21 -->
<g id="edge13" class="edge">
<title>Node20&#45;&gt;Node21</title>
<path fill="none" stroke="midnightblue" d="M1526.5,-45.8C1526.5,-36.91 1526.5,-26.78 1526.5,-19.75"/>
<polygon fill="midnightblue" stroke="midnightblue" points="1523,-46.08 1526.5,-56.08 1530,-46.08 1523,-46.08"/>
</g>
<!-- Node50 -->
<g id="node16" class="node">
<title>Node50</title>
<g id="a_node16"><a xlink:href="arch_2arm32-linux_2odp_2api_2abi_2cpumask_8h_source.html" target="_top" xlink:title=" ">
<polygon fill="white" stroke="black" points="539.5,-224.5 539.5,-243.5 609.5,-243.5 609.5,-224.5 539.5,-224.5"/>
<text text-anchor="middle" x="574.5" y="-231.5" font-family="Helvetica,sans-Serif" font-size="10.00">cpumask.h</text>
</a>
</g>
</g>
<!-- Node49&#45;&gt;Node50 -->
<g id="edge16" class="edge">
<title>Node49&#45;&gt;Node50</title>
<path fill="none" stroke="midnightblue" d="M881.36,-283.22C821.23,-275.33 711.59,-260.31 618.5,-244 615.58,-243.49 612.56,-242.93 609.53,-242.35"/>
<polygon fill="midnightblue" stroke="midnightblue" points="880.92,-286.69 891.29,-284.52 881.83,-279.75 880.92,-286.69"/>
</g>
<!-- Node51 -->
<g id="node17" class="node">
<title>Node51</title>
<g id="a_node17"><a xlink:href="arch_2arm64-linux_2odp_2api_2abi_2cpumask_8h_source.html" target="_top" xlink:title=" ">
<polygon fill="white" stroke="black" points="627.5,-224.5 627.5,-243.5 697.5,-243.5 697.5,-224.5 627.5,-224.5"/>
<text text-anchor="middle" x="662.5" y="-231.5" font-family="Helvetica,sans-Serif" font-size="10.00">cpumask.h</text>
</a>
</g>
</g>
<!-- Node49&#45;&gt;Node51 -->
<g id="edge17" class="edge">
<title>Node49&#45;&gt;Node51</title>
<path fill="none" stroke="midnightblue" d="M881.5,-279.8C829.53,-269.17 745.12,-251.9 697.7,-242.2"/>
<polygon fill="midnightblue" stroke="midnightblue" points="880.94,-283.25 891.44,-281.83 882.35,-276.4 880.94,-283.25"/>
</g>
<!-- Node52 -->
<g id="node18" class="node">
<title>Node52</title>
<g id="a_node18"><a xlink:href="arch_2default-linux_2odp_2api_2abi_2cpumask_8h_source.html" target="_top" xlink:title=" ">
<polygon fill="white" stroke="black" points="715.5,-224.5 715.5,-243.5 785.5,-243.5 785.5,-224.5 715.5,-224.5"/>
<text text-anchor="middle" x="750.5" y="-231.5" font-family="Helvetica,sans-Serif" font-size="10.00">cpumask.h</text>
</a>
</g>
</g>
<!-- Node49&#45;&gt;Node52 -->
<g id="edge18" class="edge">
<title>Node49&#45;&gt;Node52</title>
<path fill="none" stroke="midnightblue" d="M888.81,-277.44C855.63,-267.26 808.07,-252.66 778.26,-243.52"/>
<polygon fill="midnightblue" stroke="midnightblue" points="888.03,-280.86 898.61,-280.44 890.08,-274.16 888.03,-280.86"/>
</g>
<!-- Node53 -->
<g id="node19" class="node">
<title>Node53</title>
<g id="a_node19"><a xlink:href="arch_2mips64-linux_2odp_2api_2abi_2cpumask_8h_source.html" target="_top" xlink:title=" ">
<polygon fill="white" stroke="black" points="803.5,-224.5 803.5,-243.5 873.5,-243.5 873.5,-224.5 803.5,-224.5"/>
<text text-anchor="middle" x="838.5" y="-231.5" font-family="Helvetica,sans-Serif" font-size="10.00">cpumask.h</text>
</a>
</g>
</g>
<!-- Node49&#45;&gt;Node53 -->
<g id="edge19" class="edge">
<title>Node49&#45;&gt;Node53</title>
<path fill="none" stroke="midnightblue" d="M903.52,-274.9C887.39,-265 866.32,-252.07 852.6,-243.65"/>
<polygon fill="midnightblue" stroke="midnightblue" points="902.01,-278.08 912.36,-280.32 905.67,-272.11 902.01,-278.08"/>
</g>
<!-- Node54 -->
<g id="node20" class="node">
<title>Node54</title>
<g id="a_node20"><a xlink:href="arch_2power64-linux_2odp_2api_2abi_2cpumask_8h_source.html" target="_top" xlink:title=" ">
<polygon fill="white" stroke="black" points="891.5,-224.5 891.5,-243.5 961.5,-243.5 961.5,-224.5 891.5,-224.5"/>
<text text-anchor="middle" x="926.5" y="-231.5" font-family="Helvetica,sans-Serif" font-size="10.00">cpumask.h</text>
</a>
</g>
</g>
<!-- Node49&#45;&gt;Node54 -->
<g id="edge20" class="edge">
<title>Node49&#45;&gt;Node54</title>
<path fill="none" stroke="midnightblue" d="M926.5,-269.8C926.5,-260.91 926.5,-250.78 926.5,-243.75"/>
<polygon fill="midnightblue" stroke="midnightblue" points="923,-270.08 926.5,-280.08 930,-270.08 923,-270.08"/>
</g>
<!-- Node55 -->
<g id="node21" class="node">
<title>Node55</title>
<g id="a_node21"><a xlink:href="arch_2x86__32-linux_2odp_2api_2abi_2cpumask_8h_source.html" target="_top" xlink:title=" ">
<polygon fill="white" stroke="black" points="979.5,-224.5 979.5,-243.5 1049.5,-243.5 1049.5,-224.5 979.5,-224.5"/>
<text text-anchor="middle" x="1014.5" y="-231.5" font-family="Helvetica,sans-Serif" font-size="10.00">cpumask.h</text>
</a>
</g>
</g>
<!-- Node49&#45;&gt;Node55 -->
<g id="edge21" class="edge">
<title>Node49&#45;&gt;Node55</title>
<path fill="none" stroke="midnightblue" d="M949.48,-274.9C965.61,-265 986.68,-252.07 1000.4,-243.65"/>
<polygon fill="midnightblue" stroke="midnightblue" points="947.33,-272.11 940.64,-280.32 950.99,-278.08 947.33,-272.11"/>
</g>
<!-- Node56 -->
<g id="node22" class="node">
<title>Node56</title>
<g id="a_node22"><a xlink:href="arch_2x86__64-linux_2odp_2api_2abi_2cpumask_8h_source.html" target="_top" xlink:title=" ">
<polygon fill="white" stroke="black" points="1143.5,-224.5 1143.5,-243.5 1213.5,-243.5 1213.5,-224.5 1143.5,-224.5"/>
<text text-anchor="middle" x="1178.5" y="-231.5" font-family="Helvetica,sans-Serif" font-size="10.00">cpumask.h</text>
</a>
</g>
</g>
<!-- Node49&#45;&gt;Node56 -->
<g id="edge22" class="edge">
<title>Node49&#45;&gt;Node56</title>
<path fill="none" stroke="midnightblue" d="M971.58,-279.34C1020.77,-268.8 1098.48,-252.15 1143.35,-242.53"/>
<polygon fill="midnightblue" stroke="midnightblue" points="970.58,-275.97 961.54,-281.49 972.05,-282.82 970.58,-275.97"/>
</g>
<!-- Node57 -->
<g id="node23" class="node">
<title>Node57</title>
<g id="a_node23"><a xlink:href="api_2cpumask_8h.html" target="_top" xlink:title=" ">
<polygon fill="white" stroke="red" points="1143.5,-168.5 1143.5,-187.5 1213.5,-187.5 1213.5,-168.5 1143.5,-168.5"/>
<text text-anchor="middle" x="1178.5" y="-175.5" font-family="Helvetica,sans-Serif" font-size="10.00">cpumask.h</text>
</a>
</g>
</g>
<!-- Node56&#45;&gt;Node57 -->
<g id="edge23" class="edge">
<title>Node56&#45;&gt;Node57</title>
<path fill="none" stroke="midnightblue" d="M1178.5,-213.8C1178.5,-204.91 1178.5,-194.78 1178.5,-187.75"/>
<polygon fill="midnightblue" stroke="midnightblue" points="1175,-214.08 1178.5,-224.08 1182,-214.08 1175,-214.08"/>
</g>
<!-- Node57&#45;&gt;Node20 -->
<g id="edge25" class="edge">
<title>Node57&#45;&gt;Node20</title>
<path fill="none" stroke="midnightblue" d="M1182.88,-158.38C1187.43,-143.38 1196.1,-123.03 1211.5,-112 1256.41,-79.84 1423.41,-70.46 1494.32,-67.9"/>
<polygon fill="midnightblue" stroke="midnightblue" points="1179.47,-157.59 1180.26,-168.15 1186.23,-159.4 1179.47,-157.59"/>
</g>
<!-- Node69 -->
<g id="node24" class="node">
<title>Node69</title>
<g id="a_node24"><a xlink:href="api_2spec_2init_8h.html" target="_top" xlink:title=" ">
<polygon fill="white" stroke="red" points="1221,-112.5 1221,-131.5 1262,-131.5 1262,-112.5 1221,-112.5"/>
<text text-anchor="middle" x="1241.5" y="-119.5" font-family="Helvetica,sans-Serif" font-size="10.00">init.h</text>
</a>
</g>
</g>
<!-- Node57&#45;&gt;Node69 -->
<g id="edge24" class="edge">
<title>Node57&#45;&gt;Node69</title>
<path fill="none" stroke="midnightblue" d="M1196.54,-161.54C1207.77,-151.91 1221.82,-139.87 1231.19,-131.83"/>
<polygon fill="midnightblue" stroke="midnightblue" points="1193.94,-159.16 1188.62,-168.32 1198.49,-164.47 1193.94,-159.16"/>
</g>
<!-- Node74 -->
<g id="node26" class="node">
<title>Node74</title>
<g id="a_node26"><a xlink:href="api_2std__types_8h.html" target="_top" xlink:title=" ">
<polygon fill="white" stroke="red" points="1712,-336.5 1712,-355.5 1785,-355.5 1785,-336.5 1712,-336.5"/>
<text text-anchor="middle" x="1748.5" y="-343.5" font-family="Helvetica,sans-Serif" font-size="10.00">std_types.h</text>
</a>
</g>
</g>
<!-- Node73&#45;&gt;Node74 -->
<g id="edge27" class="edge">
<title>Node73&#45;&gt;Node74</title>
<path fill="none" stroke="midnightblue" d="M1748.5,-381.8C1748.5,-372.91 1748.5,-362.78 1748.5,-355.75"/>
<polygon fill="midnightblue" stroke="midnightblue" points="1745,-382.08 1748.5,-392.08 1752,-382.08 1745,-382.08"/>
</g>
<!-- Node74&#45;&gt;Node2 -->
<g id="edge28" class="edge">
<title>Node74&#45;&gt;Node2</title>
<path fill="none" stroke="midnightblue" d="M1701.56,-343.2C1480.4,-334.74 545.63,-298.97 367.05,-292.13"/>
<polygon fill="midnightblue" stroke="midnightblue" points="1701.72,-346.71 1711.84,-343.6 1701.99,-339.72 1701.72,-346.71"/>
</g>
<!-- Node74&#45;&gt;Node11 -->
<g id="edge29" class="edge">
<title>Node74&#45;&gt;Node11</title>
<path fill="none" stroke="midnightblue" d="M1701.83,-345.26C1570.2,-344.85 1201.24,-335.43 1134.5,-244 1109.23,-209.39 1124.87,-153.1 1132.27,-131.66"/>
<polygon fill="midnightblue" stroke="midnightblue" points="1701.99,-348.76 1711.99,-345.28 1702,-341.76 1701.99,-348.76"/>
</g>
<!-- Node74&#45;&gt;Node19 -->
<g id="edge39" class="edge">
<title>Node74&#45;&gt;Node19</title>
<path fill="none" stroke="midnightblue" d="M1701.5,-345.01C1583.6,-344.43 1278.13,-339.09 1185.5,-300 1110.29,-268.26 1072.77,-163.15 1063.08,-131.86"/>
<polygon fill="midnightblue" stroke="midnightblue" points="1701.64,-348.51 1711.65,-345.05 1701.67,-341.51 1701.64,-348.51"/>
</g>
<!-- Node74&#45;&gt;Node20 -->
<g id="edge73" class="edge">
<title>Node74&#45;&gt;Node20</title>
<path fill="none" stroke="midnightblue" d="M1795.48,-344.36C2002.99,-341.35 2829.19,-327.69 2876.5,-300 2905.78,-282.87 2916.5,-268.92 2916.5,-235 2916.5,-235 2916.5,-235 2916.5,-177 2916.5,-106.57 1767.52,-73.28 1558.81,-67.81"/>
<polygon fill="midnightblue" stroke="midnightblue" points="1795.18,-340.86 1785.23,-344.5 1795.28,-347.86 1795.18,-340.86"/>
</g>
<!-- Node74&#45;&gt;Node49 -->
<g id="edge31" class="edge">
<title>Node74&#45;&gt;Node49</title>
<path fill="none" stroke="midnightblue" d="M1701.68,-341.92C1552.79,-332.14 1092.34,-301.89 961.5,-293.3"/>
<polygon fill="midnightblue" stroke="midnightblue" points="1701.64,-345.43 1711.85,-342.59 1702.1,-338.44 1701.64,-345.43"/>
</g>
<!-- Node74&#45;&gt;Node69 -->
<g id="edge69" class="edge">
<title>Node74&#45;&gt;Node69</title>
<path fill="none" stroke="midnightblue" d="M1701.7,-344.8C1607.05,-343.62 1396.81,-336.8 1336.5,-300 1272.19,-260.76 1248.77,-161.73 1243.02,-131.74"/>
<polygon fill="midnightblue" stroke="midnightblue" points="1701.8,-348.3 1711.84,-344.91 1701.88,-341.3 1701.8,-348.3"/>
</g>
<!-- Node75 -->
<g id="node27" class="node">
<title>Node75</title>
<g id="a_node27"><a xlink:href="api_2abi-default_2byteorder_8h.html" target="_top" xlink:title=" ">
<polygon fill="white" stroke="red" points="1833.5,-280.5 1833.5,-299.5 1905.5,-299.5 1905.5,-280.5 1833.5,-280.5"/>
<text text-anchor="middle" x="1869.5" y="-287.5" font-family="Helvetica,sans-Serif" font-size="10.00">byteorder.h</text>
</a>
</g>
</g>
<!-- Node74&#45;&gt;Node75 -->
<g id="edge30" class="edge">
<title>Node74&#45;&gt;Node75</title>
<path fill="none" stroke="midnightblue" d="M1776.81,-332.37C1799.47,-322.26 1830.63,-308.35 1850.42,-299.52"/>
<polygon fill="midnightblue" stroke="midnightblue" points="1775.38,-329.17 1767.67,-336.44 1778.23,-335.56 1775.38,-329.17"/>
</g>
<!-- Node84 -->
<g id="node28" class="node">
<title>Node84</title>
<g id="a_node28"><a xlink:href="api_2abi-default_2init_8h.html" target="_top" xlink:title=" ">
<polygon fill="white" stroke="red" points="1924,-280.5 1924,-299.5 1965,-299.5 1965,-280.5 1924,-280.5"/>
<text text-anchor="middle" x="1944.5" y="-287.5" font-family="Helvetica,sans-Serif" font-size="10.00">init.h</text>
</a>
</g>
</g>
<!-- Node74&#45;&gt;Node84 -->
<g id="edge32" class="edge">
<title>Node74&#45;&gt;Node84</title>
<path fill="none" stroke="midnightblue" d="M1790.95,-333.83C1824.54,-324.9 1872.61,-311.96 1914.5,-300 1917.53,-299.13 1920.73,-298.2 1923.86,-297.27"/>
<polygon fill="midnightblue" stroke="midnightblue" points="1789.78,-330.52 1781.02,-336.46 1791.58,-337.28 1789.78,-330.52"/>
</g>
<!-- Node92 -->
<g id="node29" class="node">
<title>Node92</title>
<g id="a_node29"><a xlink:href="api_2abi-default_2ipsec_8h.html" target="_top" xlink:title=" ">
<polygon fill="white" stroke="red" points="1983,-280.5 1983,-299.5 2034,-299.5 2034,-280.5 1983,-280.5"/>
<text text-anchor="middle" x="2008.5" y="-287.5" font-family="Helvetica,sans-Serif" font-size="10.00">ipsec.h</text>
</a>
</g>
</g>
<!-- Node74&#45;&gt;Node92 -->
<g id="edge33" class="edge">
<title>Node74&#45;&gt;Node92</title>
<path fill="none" stroke="midnightblue" d="M1795.16,-336.43C1840.77,-327.88 1912.12,-314.02 1973.5,-300 1976.56,-299.3 1979.76,-298.53 1982.92,-297.75"/>
<polygon fill="midnightblue" stroke="midnightblue" points="1794.45,-333.01 1785.26,-338.28 1795.74,-339.89 1794.45,-333.01"/>
</g>
<!-- Node101 -->
<g id="node30" class="node">
<title>Node101</title>
<g id="a_node30"><a xlink:href="api_2abi-default_2packet__io_8h.html" target="_top" xlink:title=" ">
<polygon fill="white" stroke="red" points="2052.5,-280.5 2052.5,-299.5 2124.5,-299.5 2124.5,-280.5 2052.5,-280.5"/>
<text text-anchor="middle" x="2088.5" y="-287.5" font-family="Helvetica,sans-Serif" font-size="10.00">packet_io.h</text>
</a>
</g>
</g>
<!-- Node74&#45;&gt;Node101 -->
<g id="edge34" class="edge">
<title>Node74&#45;&gt;Node101</title>
<path fill="none" stroke="midnightblue" d="M1795.22,-338.46C1853.3,-330.18 1955.4,-315.18 2042.5,-300 2045.71,-299.44 2049.03,-298.84 2052.37,-298.22"/>
<polygon fill="midnightblue" stroke="midnightblue" points="1794.66,-335 1785.25,-339.87 1795.64,-341.93 1794.66,-335"/>
</g>
<!-- Node31 -->
<g id="node31" class="node">
<title>Node31</title>
<g id="a_node31"><a xlink:href="api_2abi-default_2rwlock__recursive_8h.html" target="_top" xlink:title=" ">
<polygon fill="white" stroke="red" points="2142.5,-280.5 2142.5,-299.5 2250.5,-299.5 2250.5,-280.5 2142.5,-280.5"/>
<text text-anchor="middle" x="2196.5" y="-287.5" font-family="Helvetica,sans-Serif" font-size="10.00">rwlock_recursive.h</text>
</a>
</g>
</g>
<!-- Node74&#45;&gt;Node31 -->
<g id="edge35" class="edge">
<title>Node74&#45;&gt;Node31</title>
<path fill="none" stroke="midnightblue" d="M1795.34,-339.92C1867.87,-331.95 2011.69,-315.82 2133.5,-300 2136.35,-299.63 2139.27,-299.24 2142.22,-298.84"/>
<polygon fill="midnightblue" stroke="midnightblue" points="1794.73,-336.46 1785.17,-341.03 1795.49,-343.42 1794.73,-336.46"/>
</g>
<!-- Node129 -->
<g id="node32" class="node">
<title>Node129</title>
<g id="a_node32"><a xlink:href="api_2abi-default_2schedule_8h.html" target="_top" xlink:title=" ">
<polygon fill="white" stroke="red" points="2269,-280.5 2269,-299.5 2338,-299.5 2338,-280.5 2269,-280.5"/>
<text text-anchor="middle" x="2303.5" y="-287.5" font-family="Helvetica,sans-Serif" font-size="10.00">schedule.h</text>
</a>
</g>
</g>
<!-- Node74&#45;&gt;Node129 -->
<g id="edge36" class="edge">
<title>Node74&#45;&gt;Node129</title>
<path fill="none" stroke="midnightblue" d="M1795.4,-342.66C1885.64,-337.77 2089.54,-324.78 2259.5,-300 2262.59,-299.55 2265.78,-299.02 2268.98,-298.45"/>
<polygon fill="midnightblue" stroke="midnightblue" points="1795.02,-339.18 1785.22,-343.2 1795.4,-346.17 1795.02,-339.18"/>
</g>
<!-- Node137 -->
<g id="node33" class="node">
<title>Node137</title>
<g id="a_node33"><a xlink:href="api_2abi-default_2spinlock__recursive_8h.html" target="_top" xlink:title=" ">
<polygon fill="white" stroke="red" points="2356.5,-280.5 2356.5,-299.5 2472.5,-299.5 2472.5,-280.5 2356.5,-280.5"/>
<text text-anchor="middle" x="2414.5" y="-287.5" font-family="Helvetica,sans-Serif" font-size="10.00">spinlock_recursive.h</text>
</a>
</g>
</g>
<!-- Node74&#45;&gt;Node137 -->
<g id="edge37" class="edge">
<title>Node74&#45;&gt;Node137</title>
<path fill="none" stroke="midnightblue" d="M1795.48,-342.37C1896.48,-336.52 2141.71,-321.24 2346.5,-300 2349.7,-299.67 2352.98,-299.31 2356.29,-298.92"/>
<polygon fill="midnightblue" stroke="midnightblue" points="1795.09,-338.89 1785.31,-342.96 1795.5,-345.87 1795.09,-338.89"/>
</g>
<!-- Node146 -->
<g id="node34" class="node">
<title>Node146</title>
<g id="a_node34"><a xlink:href="api_2abi-default_2traffic__mngr_8h.html" target="_top" xlink:title=" ">
<polygon fill="white" stroke="red" points="2490.5,-280.5 2490.5,-299.5 2574.5,-299.5 2574.5,-280.5 2490.5,-280.5"/>
<text text-anchor="middle" x="2532.5" y="-287.5" font-family="Helvetica,sans-Serif" font-size="10.00">traffic_mngr.h</text>
</a>
</g>
</g>
<!-- Node74&#45;&gt;Node146 -->
<g id="edge38" class="edge">
<title>Node74&#45;&gt;Node146</title>
<path fill="none" stroke="midnightblue" d="M1795.59,-343.96C1912.2,-340.98 2223.67,-330.56 2481.5,-300 2484.36,-299.66 2487.3,-299.27 2490.25,-298.84"/>
<polygon fill="midnightblue" stroke="midnightblue" points="1795.15,-340.47 1785.24,-344.22 1795.33,-347.47 1795.15,-340.47"/>
</g>
<!-- Node154 -->
<g id="node35" class="node">
<title>Node154</title>
<g id="a_node35"><a xlink:href="api_2buffer_8h.html" target="_top" xlink:title=" ">
<polygon fill="white" stroke="black" points="1272,-168.5 1272,-187.5 1325,-187.5 1325,-168.5 1272,-168.5"/>
<text text-anchor="middle" x="1298.5" y="-175.5" font-family="Helvetica,sans-Serif" font-size="10.00">buffer.h</text>
</a>
</g>
</g>
<!-- Node74&#45;&gt;Node154 -->
<g id="edge40" class="edge">
<title>Node74&#45;&gt;Node154</title>
<path fill="none" stroke="midnightblue" d="M1701.75,-344.8C1611.24,-343.58 1416.15,-336.63 1361.5,-300 1320.78,-272.7 1304.72,-210.44 1300.06,-187.6"/>
<polygon fill="midnightblue" stroke="midnightblue" points="1701.96,-348.3 1712,-344.92 1702.04,-341.3 1701.96,-348.3"/>
</g>
<!-- Node109 -->
<g id="node36" class="node">
<title>Node109</title>
<g id="a_node36"><a xlink:href="api_2classification_8h.html" target="_top" xlink:title=" ">
<polygon fill="white" stroke="black" points="1346,-168.5 1346,-187.5 1435,-187.5 1435,-168.5 1346,-168.5"/>
<text text-anchor="middle" x="1390.5" y="-175.5" font-family="Helvetica,sans-Serif" font-size="10.00">classification.h</text>
</a>
</g>
</g>
<!-- Node74&#45;&gt;Node109 -->
<g id="edge42" class="edge">
<title>Node74&#45;&gt;Node109</title>
<path fill="none" stroke="midnightblue" d="M1701.36,-342.12C1619.76,-336.59 1455.92,-322.97 1403.5,-300 1367.95,-284.43 1352.94,-279.16 1336.5,-244 1325.69,-220.87 1354.52,-199.16 1374.1,-187.62"/>
<polygon fill="midnightblue" stroke="midnightblue" points="1701.62,-345.64 1711.83,-342.81 1702.09,-338.66 1701.62,-345.64"/>
</g>
<!-- Node110 -->
<g id="node37" class="node">
<title>Node110</title>
<g id="a_node37"><a xlink:href="api_2spec_2ipsec_8h.html" target="_top" xlink:title=" ">
<polygon fill="white" stroke="red" points="1503,-112.5 1503,-131.5 1554,-131.5 1554,-112.5 1503,-112.5"/>
<text text-anchor="middle" x="1528.5" y="-119.5" font-family="Helvetica,sans-Serif" font-size="10.00">ipsec.h</text>
</a>
</g>
</g>
<!-- Node74&#45;&gt;Node110 -->
<g id="edge70" class="edge">
<title>Node74&#45;&gt;Node110</title>
<path fill="none" stroke="midnightblue" d="M1701.72,-340.33C1671.1,-335.06 1632.01,-323.85 1605.5,-300 1552.19,-252.03 1534.2,-160.58 1529.73,-131.86"/>
<polygon fill="midnightblue" stroke="midnightblue" points="1701.33,-343.81 1711.75,-341.9 1702.41,-336.9 1701.33,-343.81"/>
</g>
<!-- Node115 -->
<g id="node38" class="node">
<title>Node115</title>
<g id="a_node38"><a xlink:href="api_2crypto_8h.html" target="_top" xlink:title=" ">
<polygon fill="white" stroke="black" points="1567.5,-168.5 1567.5,-187.5 1623.5,-187.5 1623.5,-168.5 1567.5,-168.5"/>
<text text-anchor="middle" x="1595.5" y="-175.5" font-family="Helvetica,sans-Serif" font-size="10.00">crypto.h</text>
</a>
</g>
</g>
<!-- Node74&#45;&gt;Node115 -->
<g id="edge45" class="edge">
<title>Node74&#45;&gt;Node115</title>
<path fill="none" stroke="midnightblue" d="M1702.18,-335.96C1677.78,-329.32 1648.63,-318.18 1627.5,-300 1605.94,-281.44 1603.83,-271.49 1596.5,-244 1591.27,-224.37 1592.9,-200.21 1594.33,-187.59"/>
<polygon fill="midnightblue" stroke="midnightblue" points="1701.41,-339.38 1711.96,-338.46 1703.14,-332.6 1701.41,-339.38"/>
</g>
<!-- Node111 -->
<g id="node39" class="node">
<title>Node111</title>
<g id="a_node39"><a xlink:href="api_2packet_8h.html" target="_top" xlink:title=" ">
<polygon fill="white" stroke="red" points="1719.5,-280.5 1719.5,-299.5 1777.5,-299.5 1777.5,-280.5 1719.5,-280.5"/>
<text text-anchor="middle" x="1748.5" y="-287.5" font-family="Helvetica,sans-Serif" font-size="10.00">packet.h</text>
</a>
</g>
</g>
<!-- Node74&#45;&gt;Node111 -->
<g id="edge48" class="edge">
<title>Node74&#45;&gt;Node111</title>
<path fill="none" stroke="midnightblue" d="M1748.5,-325.8C1748.5,-316.91 1748.5,-306.78 1748.5,-299.75"/>
<polygon fill="midnightblue" stroke="midnightblue" points="1745,-326.08 1748.5,-336.08 1752,-326.08 1745,-326.08"/>
</g>
<!-- Node112 -->
<g id="node40" class="node">
<title>Node112</title>
<g id="a_node40"><a xlink:href="api_2spec_2comp_8h.html" target="_top" xlink:title=" ">
<polygon fill="white" stroke="red" points="1718,-224.5 1718,-243.5 1771,-243.5 1771,-224.5 1718,-224.5"/>
<text text-anchor="middle" x="1744.5" y="-231.5" font-family="Helvetica,sans-Serif" font-size="10.00">comp.h</text>
</a>
</g>
</g>
<!-- Node74&#45;&gt;Node112 -->
<g id="edge65" class="edge">
<title>Node74&#45;&gt;Node112</title>
<path fill="none" stroke="midnightblue" d="M1730.39,-329.24C1722.69,-321.33 1714.56,-311.09 1710.5,-300 1702.8,-278.95 1721.76,-256.12 1734.36,-243.91"/>
<polygon fill="midnightblue" stroke="midnightblue" points="1728.14,-331.93 1737.79,-336.3 1732.97,-326.86 1728.14,-331.93"/>
</g>
<!-- Node114 -->
<g id="node41" class="node">
<title>Node114</title>
<g id="a_node41"><a xlink:href="api_2spec_2crypto_8h.html" target="_top" xlink:title=" ">
<polygon fill="white" stroke="black" points="1605.5,-224.5 1605.5,-243.5 1661.5,-243.5 1661.5,-224.5 1605.5,-224.5"/>
<text text-anchor="middle" x="1633.5" y="-231.5" font-family="Helvetica,sans-Serif" font-size="10.00">crypto.h</text>
</a>
</g>
</g>
<!-- Node74&#45;&gt;Node114 -->
<g id="edge67" class="edge">
<title>Node74&#45;&gt;Node114</title>
<path fill="none" stroke="midnightblue" d="M1702.09,-337.37C1679.58,-331.17 1654.27,-320.02 1639.5,-300 1627.12,-283.22 1629.44,-256.98 1631.72,-243.55"/>
<polygon fill="midnightblue" stroke="midnightblue" points="1701.31,-340.78 1711.86,-339.8 1703,-333.99 1701.31,-340.78"/>
</g>
<!-- Node127 -->
<g id="node42" class="node">
<title>Node127</title>
<g id="a_node42"><a xlink:href="api_2spec_2packet__flags_8h.html" target="_top" xlink:title=" ">
<polygon fill="white" stroke="red" points="1827.5,-224.5 1827.5,-243.5 1913.5,-243.5 1913.5,-224.5 1827.5,-224.5"/>
<text text-anchor="middle" x="1870.5" y="-231.5" font-family="Helvetica,sans-Serif" font-size="10.00">packet_flags.h</text>
</a>
</g>
</g>
<!-- Node74&#45;&gt;Node127 -->
<g id="edge71" class="edge">
<title>Node74&#45;&gt;Node127</title>
<path fill="none" stroke="midnightblue" d="M1765.68,-329.51C1791.75,-306.01 1840.43,-262.11 1860.97,-243.59"/>
<polygon fill="midnightblue" stroke="midnightblue" points="1763.16,-327.07 1758.07,-336.37 1767.84,-332.27 1763.16,-327.07"/>
</g>
<!-- Node123 -->
<g id="node43" class="node">
<title>Node123</title>
<g id="a_node43"><a xlink:href="api_2packet__io_8h.html" target="_top" xlink:title=" ">
<polygon fill="white" stroke="red" points="1433.5,-280.5 1433.5,-299.5 1505.5,-299.5 1505.5,-280.5 1433.5,-280.5"/>
<text text-anchor="middle" x="1469.5" y="-287.5" font-family="Helvetica,sans-Serif" font-size="10.00">packet_io.h</text>
</a>
</g>
</g>
<!-- Node74&#45;&gt;Node123 -->
<g id="edge54" class="edge">
<title>Node74&#45;&gt;Node123</title>
<path fill="none" stroke="midnightblue" d="M1701.87,-335.98C1646.74,-325.3 1556.13,-307.77 1505.9,-298.05"/>
<polygon fill="midnightblue" stroke="midnightblue" points="1701.26,-339.42 1711.74,-337.88 1702.59,-332.55 1701.26,-339.42"/>
</g>
<!-- Node124 -->
<g id="node44" class="node">
<title>Node124</title>
<g id="a_node44"><a xlink:href="api_2spec_2classification_8h.html" target="_top" xlink:title=" ">
<polygon fill="white" stroke="black" points="1346,-224.5 1346,-243.5 1435,-243.5 1435,-224.5 1346,-224.5"/>
<text text-anchor="middle" x="1390.5" y="-231.5" font-family="Helvetica,sans-Serif" font-size="10.00">classification.h</text>
</a>
</g>
</g>
<!-- Node74&#45;&gt;Node124 -->
<g id="edge64" class="edge">
<title>Node74&#45;&gt;Node124</title>
<path fill="none" stroke="midnightblue" d="M1701.67,-343.68C1622.91,-340.63 1468.22,-330.78 1424.5,-300 1405.13,-286.36 1395.96,-258.23 1392.39,-243.86"/>
<polygon fill="midnightblue" stroke="midnightblue" points="1701.69,-347.18 1711.81,-344.05 1701.94,-340.19 1701.69,-347.18"/>
</g>
<!-- Node155 -->
<g id="node45" class="node">
<title>Node155</title>
<g id="a_node45"><a xlink:href="api_2proto__stats_8h.html" target="_top" xlink:title=" ">
<polygon fill="white" stroke="black" points="1633.5,-112.5 1633.5,-131.5 1713.5,-131.5 1713.5,-112.5 1633.5,-112.5"/>
<text text-anchor="middle" x="1673.5" y="-119.5" font-family="Helvetica,sans-Serif" font-size="10.00">proto_stats.h</text>
</a>
</g>
</g>
<!-- Node74&#45;&gt;Node155 -->
<g id="edge59" class="edge">
<title>Node74&#45;&gt;Node155</title>
<path fill="none" stroke="midnightblue" d="M1729.51,-329.76C1720.86,-321.8 1711.28,-311.35 1705.5,-300 1675.47,-241 1673.23,-158.33 1673.35,-131.66"/>
<polygon fill="midnightblue" stroke="midnightblue" points="1727.21,-332.4 1737.06,-336.32 1731.81,-327.12 1727.21,-332.4"/>
</g>
<!-- Node119 -->
<g id="node46" class="node">
<title>Node119</title>
<g id="a_node46"><a xlink:href="api_2queue_8h.html" target="_top" xlink:title=" ">
<polygon fill="white" stroke="red" points="2330.5,-168.5 2330.5,-187.5 2386.5,-187.5 2386.5,-168.5 2330.5,-168.5"/>
<text text-anchor="middle" x="2358.5" y="-175.5" font-family="Helvetica,sans-Serif" font-size="10.00">queue.h</text>
</a>
</g>
</g>
<!-- Node74&#45;&gt;Node119 -->
<g id="edge61" class="edge">
<title>Node74&#45;&gt;Node119</title>
<path fill="none" stroke="midnightblue" d="M1795.51,-344.89C2002.15,-344.17 2821.16,-338.88 2858.5,-300 2927.09,-228.58 2501.69,-190.1 2386.64,-181.08"/>
<polygon fill="midnightblue" stroke="midnightblue" points="1795.28,-341.39 1785.3,-344.92 1795.31,-348.39 1795.28,-341.39"/>
</g>
<!-- Node156 -->
<g id="node47" class="node">
<title>Node156</title>
<g id="a_node47"><a xlink:href="spec_2chksum_8h.html" target="_top" xlink:title=" ">
<polygon fill="white" stroke="red" points="2592.5,-280.5 2592.5,-299.5 2656.5,-299.5 2656.5,-280.5 2592.5,-280.5"/>
<text text-anchor="middle" x="2624.5" y="-287.5" font-family="Helvetica,sans-Serif" font-size="10.00">chksum.h</text>
</a>
</g>
</g>
<!-- Node74&#45;&gt;Node156 -->
<g id="edge63" class="edge">
<title>Node74&#45;&gt;Node156</title>
<path fill="none" stroke="midnightblue" d="M1795.51,-345.13C1922.95,-344.91 2285.47,-340.47 2583.5,-300 2586.39,-299.61 2589.38,-299.12 2592.36,-298.57"/>
<polygon fill="midnightblue" stroke="midnightblue" points="1795.32,-341.63 1785.33,-345.14 1795.33,-348.63 1795.32,-341.63"/>
</g>
<!-- Node158 -->
<g id="node48" class="node">
<title>Node158</title>
<g id="a_node48"><a xlink:href="api_2spec_2cpu_8h.html" target="_top" xlink:title=" ">
<polygon fill="white" stroke="red" points="2675,-280.5 2675,-299.5 2718,-299.5 2718,-280.5 2675,-280.5"/>
<text text-anchor="middle" x="2696.5" y="-287.5" font-family="Helvetica,sans-Serif" font-size="10.00">cpu.h</text>
</a>
</g>
</g>
<!-- Node74&#45;&gt;Node158 -->
<g id="edge66" class="edge">
<title>Node74&#45;&gt;Node158</title>
<path fill="none" stroke="midnightblue" d="M1795.39,-344.14C1957.76,-340.96 2495.42,-328.46 2665.5,-300 2668.6,-299.48 2671.82,-298.76 2674.97,-297.95"/>
<polygon fill="midnightblue" stroke="midnightblue" points="1795.17,-340.65 1785.24,-344.34 1795.31,-347.65 1795.17,-340.65"/>
</g>
<!-- Node160 -->
<g id="node49" class="node">
<title>Node160</title>
<g id="a_node49"><a xlink:href="api_2spec_2hash_8h.html" target="_top" xlink:title=" ">
<polygon fill="white" stroke="red" points="2736,-280.5 2736,-299.5 2785,-299.5 2785,-280.5 2736,-280.5"/>
<text text-anchor="middle" x="2760.5" y="-287.5" font-family="Helvetica,sans-Serif" font-size="10.00">hash.h</text>
</a>
</g>
</g>
<!-- Node74&#45;&gt;Node160 -->
<g id="edge68" class="edge">
<title>Node74&#45;&gt;Node160</title>
<path fill="none" stroke="midnightblue" d="M1795.08,-344.17C1963.92,-340.96 2543.53,-328.1 2726.5,-300 2729.52,-299.54 2732.65,-298.91 2735.75,-298.2"/>
<polygon fill="midnightblue" stroke="midnightblue" points="1794.95,-340.67 1785.02,-344.36 1795.08,-347.67 1794.95,-340.67"/>
</g>
<!-- Node162 -->
<g id="node50" class="node">
<title>Node162</title>
<g id="a_node50"><a xlink:href="api_2spec_2pool_8h.html" target="_top" xlink:title=" ">
<polygon fill="white" stroke="red" points="2803,-280.5 2803,-299.5 2850,-299.5 2850,-280.5 2803,-280.5"/>
<text text-anchor="middle" x="2826.5" y="-287.5" font-family="Helvetica,sans-Serif" font-size="10.00">pool.h</text>
</a>
</g>
</g>
<!-- Node74&#45;&gt;Node162 -->
<g id="edge72" class="edge">
<title>Node74&#45;&gt;Node162</title>
<path fill="none" stroke="midnightblue" d="M1795.3,-344.37C1971.8,-341.79 2597.01,-330.63 2793.5,-300 2796.55,-299.52 2799.72,-298.87 2802.84,-298.13"/>
<polygon fill="midnightblue" stroke="midnightblue" points="1795,-340.88 1785.06,-344.52 1795.11,-347.88 1795,-340.88"/>
</g>
<!-- Node154&#45;&gt;Node20 -->
<g id="edge41" class="edge">
<title>Node154&#45;&gt;Node20</title>
<path fill="none" stroke="midnightblue" d="M1323.14,-163.72C1348.38,-150.26 1388.86,-129.04 1424.5,-112 1452.44,-98.64 1485.3,-84.41 1506.01,-75.6"/>
<polygon fill="midnightblue" stroke="midnightblue" points="1321.42,-160.67 1314.26,-168.48 1324.73,-166.85 1321.42,-160.67"/>
</g>
<!-- Node109&#45;&gt;Node20 -->
<g id="edge44" class="edge">
<title>Node109&#45;&gt;Node20</title>
<path fill="none" stroke="midnightblue" d="M1403.49,-160.01C1414.7,-146.05 1431.83,-126.33 1449.5,-112 1468.02,-96.98 1492.12,-83.75 1508.39,-75.59"/>
<polygon fill="midnightblue" stroke="midnightblue" points="1400.46,-158.2 1397.04,-168.23 1405.97,-162.52 1400.46,-158.2"/>
</g>
<!-- Node109&#45;&gt;Node110 -->
<g id="edge43" class="edge">
<title>Node109&#45;&gt;Node110</title>
<path fill="none" stroke="midnightblue" d="M1421.75,-164.77C1447.67,-154.63 1483.86,-140.47 1506.74,-131.52"/>
<polygon fill="midnightblue" stroke="midnightblue" points="1420.4,-161.54 1412.37,-168.44 1422.95,-168.06 1420.4,-161.54"/>
</g>
<!-- Node115&#45;&gt;Node20 -->
<g id="edge47" class="edge">
<title>Node115&#45;&gt;Node20</title>
<path fill="none" stroke="midnightblue" d="M1587.49,-158.81C1581.32,-145.46 1572.23,-127.11 1562.5,-112 1553.83,-98.54 1541.94,-84.33 1534.23,-75.56"/>
<polygon fill="midnightblue" stroke="midnightblue" points="1584.46,-160.6 1591.76,-168.28 1590.84,-157.72 1584.46,-160.6"/>
</g>
<!-- Node115&#45;&gt;Node110 -->
<g id="edge46" class="edge">
<title>Node115&#45;&gt;Node110</title>
<path fill="none" stroke="midnightblue" d="M1576.67,-161.82C1564.66,-152.15 1549.53,-139.95 1539.46,-131.83"/>
<polygon fill="midnightblue" stroke="midnightblue" points="1574.75,-164.77 1584.74,-168.32 1579.15,-159.32 1574.75,-164.77"/>
</g>
<!-- Node111&#45;&gt;Node20 -->
<g id="edge53" class="edge">
<title>Node111&#45;&gt;Node20</title>
<path fill="none" stroke="midnightblue" d="M1763.48,-272.47C1769.72,-264.48 1776.27,-254.38 1779.5,-244 1782.14,-235.51 1781.57,-232.64 1779.5,-224 1766.47,-169.69 1766.53,-146.37 1722.5,-112 1674.48,-74.51 1600.86,-67.22 1558.85,-66.38"/>
<polygon fill="midnightblue" stroke="midnightblue" points="1760.71,-270.32 1756.98,-280.23 1766.08,-274.81 1760.71,-270.32"/>
</g>
<!-- Node111&#45;&gt;Node112 -->
<g id="edge49" class="edge">
<title>Node111&#45;&gt;Node112</title>
<path fill="none" stroke="midnightblue" d="M1747.1,-270.1C1746.44,-261.14 1745.67,-250.86 1745.15,-243.75"/>
<polygon fill="midnightblue" stroke="midnightblue" points="1743.61,-270.37 1747.84,-280.08 1750.59,-269.85 1743.61,-270.37"/>
</g>
<!-- Node111&#45;&gt;Node114 -->
<g id="edge50" class="edge">
<title>Node111&#45;&gt;Node114</title>
<path fill="none" stroke="midnightblue" d="M1721.02,-276.1C1699.53,-266.01 1670.28,-252.27 1651.64,-243.52"/>
<polygon fill="midnightblue" stroke="midnightblue" points="1719.74,-279.36 1730.28,-280.44 1722.71,-273.02 1719.74,-279.36"/>
</g>
<!-- Node111&#45;&gt;Node127 -->
<g id="edge52" class="edge">
<title>Node111&#45;&gt;Node127</title>
<path fill="none" stroke="midnightblue" d="M1777.04,-276.37C1799.89,-266.26 1831.31,-252.35 1851.26,-243.52"/>
<polygon fill="midnightblue" stroke="midnightblue" points="1775.56,-273.2 1767.83,-280.44 1778.39,-279.6 1775.56,-273.2"/>
</g>
<!-- Node114&#45;&gt;Node115 -->
<g id="edge51" class="edge">
<title>Node114&#45;&gt;Node115</title>
<path fill="none" stroke="midnightblue" d="M1621.44,-215.86C1614.86,-206.5 1606.99,-195.33 1601.66,-187.75"/>
<polygon fill="midnightblue" stroke="midnightblue" points="1618.61,-217.92 1627.23,-224.08 1624.33,-213.89 1618.61,-217.92"/>
</g>
<!-- Node123&#45;&gt;Node20 -->
<g id="edge58" class="edge">
<title>Node123&#45;&gt;Node20</title>
<path fill="none" stroke="midnightblue" d="M1469.06,-270.01C1468.94,-236.73 1471.59,-166.27 1493.5,-112 1499.16,-97.99 1510.17,-84.34 1517.92,-75.82"/>
<polygon fill="midnightblue" stroke="midnightblue" points="1465.56,-270.19 1469.19,-280.14 1472.56,-270.09 1465.56,-270.19"/>
</g>
<!-- Node123&#45;&gt;Node110 -->
<g id="edge57" class="edge">
<title>Node123&#45;&gt;Node110</title>
<path fill="none" stroke="midnightblue" d="M1476.11,-270.39C1488.84,-234.59 1516.29,-157.34 1525.45,-131.57"/>
<polygon fill="midnightblue" stroke="midnightblue" points="1472.72,-269.48 1472.67,-280.08 1479.32,-271.82 1472.72,-269.48"/>
</g>
<!-- Node123&#45;&gt;Node124 -->
<g id="edge55" class="edge">
<title>Node123&#45;&gt;Node124</title>
<path fill="none" stroke="midnightblue" d="M1448.47,-274.62C1434.03,-264.76 1415.36,-251.99 1403.16,-243.65"/>
<polygon fill="midnightblue" stroke="midnightblue" points="1446.58,-277.57 1456.81,-280.32 1450.53,-271.79 1446.58,-277.57"/>
</g>
<!-- Node124&#45;&gt;Node109 -->
<g id="edge56" class="edge">
<title>Node124&#45;&gt;Node109</title>
<path fill="none" stroke="midnightblue" d="M1390.5,-213.8C1390.5,-204.91 1390.5,-194.78 1390.5,-187.75"/>
<polygon fill="midnightblue" stroke="midnightblue" points="1387,-214.08 1390.5,-224.08 1394,-214.08 1387,-214.08"/>
</g>
<!-- Node155&#45;&gt;Node20 -->
<g id="edge60" class="edge">
<title>Node155&#45;&gt;Node20</title>
<path fill="none" stroke="midnightblue" d="M1640.58,-108.91C1612.94,-98.75 1574.16,-84.51 1549.68,-75.52"/>
<polygon fill="midnightblue" stroke="midnightblue" points="1639.61,-112.28 1650.21,-112.44 1642.03,-105.71 1639.61,-112.28"/>
</g>
<!-- Node119&#45;&gt;Node20 -->
<g id="edge62" class="edge">
<title>Node119&#45;&gt;Node20</title>
<path fill="none" stroke="midnightblue" d="M2320.01,-171.91C2178.56,-153.21 1688.97,-88.48 1558.6,-71.24"/>
<polygon fill="midnightblue" stroke="midnightblue" points="2319.97,-175.44 2330.34,-173.28 2320.89,-168.5 2319.97,-175.44"/>
</g>
</g>
</svg>
