<?xml version="1.0" encoding="UTF-8" standalone="no"?>
<!DOCTYPE svg PUBLIC "-//W3C//DTD SVG 1.1//EN"
 "http://www.w3.org/Graphics/SVG/1.1/DTD/svg11.dtd">
<!-- Generated by graphviz version 2.43.0 (0)
 -->
<!-- Title: schedule_types.h Pages: 1 -->
<svg width="666pt" height="1148pt"
 viewBox="0.00 0.00 665.50 1148.00" xmlns="http://www.w3.org/2000/svg" xmlns:xlink="http://www.w3.org/1999/xlink">
<g id="graph0" class="graph" transform="scale(1 1) rotate(0) translate(4 1144)">
<title>schedule_types.h</title>
<polygon fill="white" stroke="transparent" points="-4,4 -4,-1144 661.5,-1144 661.5,4 -4,4"/>
<!-- Node1 -->
<g id="node1" class="node">
<title>Node1</title>
<g id="a_node1"><a xlink:title=" ">
<polygon fill="#bfbfbf" stroke="black" points="547.5,-1120.5 547.5,-1139.5 648.5,-1139.5 648.5,-1120.5 547.5,-1120.5"/>
<text text-anchor="middle" x="598" y="-1127.5" font-family="Helvetica,sans-Serif" font-size="10.00">schedule_types.h</text>
</a>
</g>
</g>
<!-- Node2 -->
<g id="node2" class="node">
<title>Node2</title>
<g id="a_node2"><a xlink:href="api_2spec_2queue__types_8h.html" target="_top" xlink:title=" ">
<polygon fill="white" stroke="black" points="518,-1064.5 518,-1083.5 606,-1083.5 606,-1064.5 518,-1064.5"/>
<text text-anchor="middle" x="562" y="-1071.5" font-family="Helvetica,sans-Serif" font-size="10.00">queue_types.h</text>
</a>
</g>
</g>
<!-- Node1&#45;&gt;Node2 -->
<g id="edge1" class="edge">
<title>Node1&#45;&gt;Node2</title>
<path fill="none" stroke="midnightblue" d="M586.38,-1111.57C580.18,-1102.27 572.83,-1091.25 567.83,-1083.75"/>
<polygon fill="midnightblue" stroke="midnightblue" points="583.6,-1113.7 592.06,-1120.08 589.42,-1109.82 583.6,-1113.7"/>
</g>
<!-- Node28 -->
<g id="node28" class="node">
<title>Node28</title>
<g id="a_node28"><a xlink:href="api_2spec_2schedule_8h.html" target="_top" xlink:title=" ">
<polygon fill="white" stroke="black" points="588.5,-616.5 588.5,-635.5 657.5,-635.5 657.5,-616.5 588.5,-616.5"/>
<text text-anchor="middle" x="623" y="-623.5" font-family="Helvetica,sans-Serif" font-size="10.00">schedule.h</text>
</a>
</g>
</g>
<!-- Node1&#45;&gt;Node28 -->
<g id="edge48" class="edge">
<title>Node1&#45;&gt;Node28</title>
<path fill="none" stroke="midnightblue" d="M608.14,-1111.43C619.4,-1090.24 636,-1053.19 636,-1019 636,-1019 636,-1019 636,-737 636,-698.92 628.22,-653.94 624.7,-635.52"/>
<polygon fill="midnightblue" stroke="midnightblue" points="605.05,-1109.78 603.28,-1120.23 611.18,-1113.17 605.05,-1109.78"/>
</g>
<!-- Node3 -->
<g id="node3" class="node">
<title>Node3</title>
<g id="a_node3"><a xlink:href="api_2queue__types_8h.html" target="_top" xlink:title=" ">
<polygon fill="white" stroke="black" points="516,-1008.5 516,-1027.5 604,-1027.5 604,-1008.5 516,-1008.5"/>
<text text-anchor="middle" x="560" y="-1015.5" font-family="Helvetica,sans-Serif" font-size="10.00">queue_types.h</text>
</a>
</g>
</g>
<!-- Node2&#45;&gt;Node3 -->
<g id="edge2" class="edge">
<title>Node2&#45;&gt;Node3</title>
<path fill="none" stroke="midnightblue" d="M561.29,-1053.8C560.96,-1044.91 560.58,-1034.78 560.32,-1027.75"/>
<polygon fill="midnightblue" stroke="midnightblue" points="557.8,-1054.22 561.67,-1064.08 564.8,-1053.96 557.8,-1054.22"/>
</g>
<!-- Node4 -->
<g id="node4" class="node">
<title>Node4</title>
<g id="a_node4"><a xlink:href="api_2spec_2packet__io_8h.html" target="_top" xlink:title=" ">
<polygon fill="white" stroke="black" points="298,-392.5 298,-411.5 370,-411.5 370,-392.5 298,-392.5"/>
<text text-anchor="middle" x="334" y="-399.5" font-family="Helvetica,sans-Serif" font-size="10.00">packet_io.h</text>
</a>
</g>
</g>
<!-- Node3&#45;&gt;Node4 -->
<g id="edge3" class="edge">
<title>Node3&#45;&gt;Node4</title>
<path fill="none" stroke="midnightblue" d="M560,-998.25C560,-976.36 560,-939.05 560,-907 560,-907 560,-907 560,-625 560,-510.88 411.52,-435.91 355.26,-411.6"/>
<polygon fill="midnightblue" stroke="midnightblue" points="556.5,-998.44 560,-1008.44 563.5,-998.44 556.5,-998.44"/>
</g>
<!-- Node14 -->
<g id="node14" class="node">
<title>Node14</title>
<g id="a_node14"><a xlink:href="api_2spec_2packet__types_8h.html" target="_top" xlink:title=" ">
<polygon fill="white" stroke="black" points="313,-952.5 313,-971.5 403,-971.5 403,-952.5 313,-952.5"/>
<text text-anchor="middle" x="358" y="-959.5" font-family="Helvetica,sans-Serif" font-size="10.00">packet_types.h</text>
</a>
</g>
</g>
<!-- Node3&#45;&gt;Node14 -->
<g id="edge18" class="edge">
<title>Node3&#45;&gt;Node14</title>
<path fill="none" stroke="midnightblue" d="M518.21,-1005.83C480.07,-995.63 424.52,-980.78 389.86,-971.52"/>
<polygon fill="midnightblue" stroke="midnightblue" points="517.43,-1009.24 527.99,-1008.44 519.24,-1002.48 517.43,-1009.24"/>
</g>
<!-- Node24 -->
<g id="node24" class="node">
<title>Node24</title>
<g id="a_node24"><a xlink:href="api_2spec_2queue_8h.html" target="_top" xlink:title=" ">
<polygon fill="white" stroke="black" points="438,-616.5 438,-635.5 494,-635.5 494,-616.5 438,-616.5"/>
<text text-anchor="middle" x="466" y="-623.5" font-family="Helvetica,sans-Serif" font-size="10.00">queue.h</text>
</a>
</g>
</g>
<!-- Node3&#45;&gt;Node24 -->
<g id="edge46" class="edge">
<title>Node3&#45;&gt;Node24</title>
<path fill="none" stroke="midnightblue" d="M531.47,-1003.84C498.88,-986.61 450,-953.09 450,-907 450,-907 450,-907 450,-737 450,-698.98 459.47,-654.34 463.84,-635.78"/>
<polygon fill="midnightblue" stroke="midnightblue" points="530.09,-1007.06 540.59,-1008.46 533.25,-1000.82 530.09,-1007.06"/>
</g>
<!-- Node3&#45;&gt;Node28 -->
<g id="edge47" class="edge">
<title>Node3&#45;&gt;Node28</title>
<path fill="none" stroke="midnightblue" d="M570.14,-999.43C581.4,-978.24 598,-941.19 598,-907 598,-907 598,-907 598,-737 598,-698.42 612.8,-654.08 619.63,-635.69"/>
<polygon fill="midnightblue" stroke="midnightblue" points="567.05,-997.78 565.28,-1008.23 573.18,-1001.17 567.05,-997.78"/>
</g>
<!-- Node5 -->
<g id="node5" class="node">
<title>Node5</title>
<g id="a_node5"><a xlink:href="api_2packet__io_8h.html" target="_top" xlink:title=" ">
<polygon fill="white" stroke="black" points="293,-336.5 293,-355.5 365,-355.5 365,-336.5 293,-336.5"/>
<text text-anchor="middle" x="329" y="-343.5" font-family="Helvetica,sans-Serif" font-size="10.00">packet_io.h</text>
</a>
</g>
</g>
<!-- Node4&#45;&gt;Node5 -->
<g id="edge4" class="edge">
<title>Node4&#45;&gt;Node5</title>
<path fill="none" stroke="midnightblue" d="M332.25,-382.1C331.42,-373.14 330.47,-362.86 329.81,-355.75"/>
<polygon fill="midnightblue" stroke="midnightblue" points="328.77,-382.45 333.17,-392.08 335.74,-381.8 328.77,-382.45"/>
</g>
<!-- Node6 -->
<g id="node6" class="node">
<title>Node6</title>
<g id="a_node6"><a xlink:href="api_2spec_2classification_8h.html" target="_top" xlink:title=" ">
<polygon fill="white" stroke="black" points="211.5,-280.5 211.5,-299.5 300.5,-299.5 300.5,-280.5 211.5,-280.5"/>
<text text-anchor="middle" x="256" y="-287.5" font-family="Helvetica,sans-Serif" font-size="10.00">classification.h</text>
</a>
</g>
</g>
<!-- Node5&#45;&gt;Node6 -->
<g id="edge5" class="edge">
<title>Node5&#45;&gt;Node6</title>
<path fill="none" stroke="midnightblue" d="M308.86,-330.1C295.72,-320.38 279.02,-308.03 267.94,-299.83"/>
<polygon fill="midnightblue" stroke="midnightblue" points="307.15,-333.19 317.27,-336.32 311.31,-327.56 307.15,-333.19"/>
</g>
<!-- Node8 -->
<g id="node8" class="node">
<title>Node8</title>
<g id="a_node8"><a xlink:href="api_2spec_2ipsec_8h.html" target="_top" xlink:title=" ">
<polygon fill="white" stroke="black" points="303.5,-168.5 303.5,-187.5 354.5,-187.5 354.5,-168.5 303.5,-168.5"/>
<text text-anchor="middle" x="329" y="-175.5" font-family="Helvetica,sans-Serif" font-size="10.00">ipsec.h</text>
</a>
</g>
</g>
<!-- Node5&#45;&gt;Node8 -->
<g id="edge12" class="edge">
<title>Node5&#45;&gt;Node8</title>
<path fill="none" stroke="midnightblue" d="M329,-325.93C329,-289.92 329,-213.23 329,-187.57"/>
<polygon fill="midnightblue" stroke="midnightblue" points="325.5,-326.08 329,-336.08 332.5,-326.08 325.5,-326.08"/>
</g>
<!-- Node10 -->
<g id="node10" class="node">
<title>Node10</title>
<g id="a_node10"><a xlink:href="odp__api_8h.html" target="_top" xlink:title=" ">
<polygon fill="white" stroke="black" points="224,-56.5 224,-75.5 288,-75.5 288,-56.5 224,-56.5"/>
<text text-anchor="middle" x="256" y="-63.5" font-family="Helvetica,sans-Serif" font-size="10.00">odp_api.h</text>
</a>
</g>
</g>
<!-- Node5&#45;&gt;Node10 -->
<g id="edge17" class="edge">
<title>Node5&#45;&gt;Node10</title>
<path fill="none" stroke="midnightblue" d="M282.93,-339.25C255.93,-333.57 223.09,-322.31 202,-300 181.32,-278.13 183,-265.1 183,-235 183,-235 183,-235 183,-177 183,-132.76 224.49,-92.71 244.91,-75.67"/>
<polygon fill="midnightblue" stroke="midnightblue" points="282.48,-342.73 292.96,-341.16 283.79,-335.85 282.48,-342.73"/>
</g>
<!-- Node12 -->
<g id="node12" class="node">
<title>Node12</title>
<g id="a_node12"><a xlink:href="api_2spec_2traffic__mngr_8h.html" target="_top" xlink:title=" ">
<polygon fill="white" stroke="black" points="357,-280.5 357,-299.5 441,-299.5 441,-280.5 357,-280.5"/>
<text text-anchor="middle" x="399" y="-287.5" font-family="Helvetica,sans-Serif" font-size="10.00">traffic_mngr.h</text>
</a>
</g>
</g>
<!-- Node5&#45;&gt;Node12 -->
<g id="edge13" class="edge">
<title>Node5&#45;&gt;Node12</title>
<path fill="none" stroke="midnightblue" d="M348.31,-330.1C360.91,-320.38 376.93,-308.03 387.55,-299.83"/>
<polygon fill="midnightblue" stroke="midnightblue" points="346.03,-327.44 340.25,-336.32 350.3,-332.99 346.03,-327.44"/>
</g>
<!-- Node7 -->
<g id="node7" class="node">
<title>Node7</title>
<g id="a_node7"><a xlink:href="api_2classification_8h.html" target="_top" xlink:title=" ">
<polygon fill="white" stroke="black" points="211.5,-224.5 211.5,-243.5 300.5,-243.5 300.5,-224.5 211.5,-224.5"/>
<text text-anchor="middle" x="256" y="-231.5" font-family="Helvetica,sans-Serif" font-size="10.00">classification.h</text>
</a>
</g>
</g>
<!-- Node6&#45;&gt;Node7 -->
<g id="edge6" class="edge">
<title>Node6&#45;&gt;Node7</title>
<path fill="none" stroke="midnightblue" d="M256,-269.8C256,-260.91 256,-250.78 256,-243.75"/>
<polygon fill="midnightblue" stroke="midnightblue" points="252.5,-270.08 256,-280.08 259.5,-270.08 252.5,-270.08"/>
</g>
<!-- Node7&#45;&gt;Node8 -->
<g id="edge7" class="edge">
<title>Node7&#45;&gt;Node8</title>
<path fill="none" stroke="midnightblue" d="M276.14,-218.1C289.28,-208.38 305.98,-196.03 317.06,-187.83"/>
<polygon fill="midnightblue" stroke="midnightblue" points="273.69,-215.56 267.73,-224.32 277.85,-221.19 273.69,-215.56"/>
</g>
<!-- Node7&#45;&gt;Node10 -->
<g id="edge11" class="edge">
<title>Node7&#45;&gt;Node10</title>
<path fill="none" stroke="midnightblue" d="M256,-213.93C256,-177.92 256,-101.23 256,-75.57"/>
<polygon fill="midnightblue" stroke="midnightblue" points="252.5,-214.08 256,-224.08 259.5,-214.08 252.5,-214.08"/>
</g>
<!-- Node9 -->
<g id="node9" class="node">
<title>Node9</title>
<g id="a_node9"><a xlink:href="api_2ipsec_8h.html" target="_top" xlink:title=" ">
<polygon fill="white" stroke="black" points="293.5,-112.5 293.5,-131.5 344.5,-131.5 344.5,-112.5 293.5,-112.5"/>
<text text-anchor="middle" x="319" y="-119.5" font-family="Helvetica,sans-Serif" font-size="10.00">ipsec.h</text>
</a>
</g>
</g>
<!-- Node8&#45;&gt;Node9 -->
<g id="edge8" class="edge">
<title>Node8&#45;&gt;Node9</title>
<path fill="none" stroke="midnightblue" d="M325.5,-158.1C323.84,-149.14 321.94,-138.86 320.62,-131.75"/>
<polygon fill="midnightblue" stroke="midnightblue" points="322.09,-158.89 327.35,-168.08 328.97,-157.61 322.09,-158.89"/>
</g>
<!-- Node9&#45;&gt;Node10 -->
<g id="edge9" class="edge">
<title>Node9&#45;&gt;Node10</title>
<path fill="none" stroke="midnightblue" d="M300.96,-105.54C289.73,-95.91 275.68,-83.87 266.31,-75.83"/>
<polygon fill="midnightblue" stroke="midnightblue" points="299.01,-108.47 308.88,-112.32 303.56,-103.16 299.01,-108.47"/>
</g>
<!-- Node11 -->
<g id="node11" class="node">
<title>Node11</title>
<g id="a_node11"><a xlink:href="odp_8h.html" target="_top" xlink:title=" ">
<polygon fill="white" stroke="black" points="234,-0.5 234,-19.5 278,-19.5 278,-0.5 234,-0.5"/>
<text text-anchor="middle" x="256" y="-7.5" font-family="Helvetica,sans-Serif" font-size="10.00">odp.h</text>
</a>
</g>
</g>
<!-- Node10&#45;&gt;Node11 -->
<g id="edge10" class="edge">
<title>Node10&#45;&gt;Node11</title>
<path fill="none" stroke="midnightblue" d="M256,-45.8C256,-36.91 256,-26.78 256,-19.75"/>
<polygon fill="midnightblue" stroke="midnightblue" points="252.5,-46.08 256,-56.08 259.5,-46.08 252.5,-46.08"/>
</g>
<!-- Node13 -->
<g id="node13" class="node">
<title>Node13</title>
<g id="a_node13"><a xlink:href="api_2traffic__mngr_8h.html" target="_top" xlink:title=" ">
<polygon fill="white" stroke="black" points="357,-224.5 357,-243.5 441,-243.5 441,-224.5 357,-224.5"/>
<text text-anchor="middle" x="399" y="-231.5" font-family="Helvetica,sans-Serif" font-size="10.00">traffic_mngr.h</text>
</a>
</g>
</g>
<!-- Node12&#45;&gt;Node13 -->
<g id="edge14" class="edge">
<title>Node12&#45;&gt;Node13</title>
<path fill="none" stroke="midnightblue" d="M399,-269.8C399,-260.91 399,-250.78 399,-243.75"/>
<polygon fill="midnightblue" stroke="midnightblue" points="395.5,-270.08 399,-280.08 402.5,-270.08 395.5,-270.08"/>
</g>
<!-- Node13&#45;&gt;Node8 -->
<g id="edge15" class="edge">
<title>Node13&#45;&gt;Node8</title>
<path fill="none" stroke="midnightblue" d="M379.69,-218.1C367.09,-208.38 351.07,-196.03 340.45,-187.83"/>
<polygon fill="midnightblue" stroke="midnightblue" points="377.7,-220.99 387.75,-224.32 381.97,-215.44 377.7,-220.99"/>
</g>
<!-- Node13&#45;&gt;Node10 -->
<g id="edge16" class="edge">
<title>Node13&#45;&gt;Node10</title>
<path fill="none" stroke="midnightblue" d="M396.55,-214.16C392.26,-188.16 381.1,-141.19 354,-112 336.42,-93.06 309.32,-81.47 288.07,-74.8"/>
<polygon fill="midnightblue" stroke="midnightblue" points="393.11,-214.82 398.03,-224.2 400.03,-213.79 393.11,-214.82"/>
</g>
<!-- Node15 -->
<g id="node15" class="node">
<title>Node15</title>
<g id="a_node15"><a xlink:href="api_2packet__types_8h.html" target="_top" xlink:title=" ">
<polygon fill="white" stroke="black" points="303,-896.5 303,-915.5 393,-915.5 393,-896.5 303,-896.5"/>
<text text-anchor="middle" x="348" y="-903.5" font-family="Helvetica,sans-Serif" font-size="10.00">packet_types.h</text>
</a>
</g>
</g>
<!-- Node14&#45;&gt;Node15 -->
<g id="edge19" class="edge">
<title>Node14&#45;&gt;Node15</title>
<path fill="none" stroke="midnightblue" d="M354.5,-942.1C352.84,-933.14 350.94,-922.86 349.62,-915.75"/>
<polygon fill="midnightblue" stroke="midnightblue" points="351.09,-942.89 356.35,-952.08 357.97,-941.61 351.09,-942.89"/>
</g>
<!-- Node16 -->
<g id="node16" class="node">
<title>Node16</title>
<g id="a_node16"><a xlink:href="api_2spec_2packet_8h.html" target="_top" xlink:title=" ">
<polygon fill="white" stroke="black" points="314,-840.5 314,-859.5 372,-859.5 372,-840.5 314,-840.5"/>
<text text-anchor="middle" x="343" y="-847.5" font-family="Helvetica,sans-Serif" font-size="10.00">packet.h</text>
</a>
</g>
</g>
<!-- Node15&#45;&gt;Node16 -->
<g id="edge20" class="edge">
<title>Node15&#45;&gt;Node16</title>
<path fill="none" stroke="midnightblue" d="M346.25,-886.1C345.42,-877.14 344.47,-866.86 343.81,-859.75"/>
<polygon fill="midnightblue" stroke="midnightblue" points="342.77,-886.45 347.17,-896.08 349.74,-885.8 342.77,-886.45"/>
</g>
<!-- Node17 -->
<g id="node17" class="node">
<title>Node17</title>
<g id="a_node17"><a xlink:href="api_2packet_8h.html" target="_top" xlink:title=" ">
<polygon fill="white" stroke="black" points="309,-784.5 309,-803.5 367,-803.5 367,-784.5 309,-784.5"/>
<text text-anchor="middle" x="338" y="-791.5" font-family="Helvetica,sans-Serif" font-size="10.00">packet.h</text>
</a>
</g>
</g>
<!-- Node16&#45;&gt;Node17 -->
<g id="edge21" class="edge">
<title>Node16&#45;&gt;Node17</title>
<path fill="none" stroke="midnightblue" d="M341.25,-830.1C340.42,-821.14 339.47,-810.86 338.81,-803.75"/>
<polygon fill="midnightblue" stroke="midnightblue" points="337.77,-830.45 342.17,-840.08 344.74,-829.8 337.77,-830.45"/>
</g>
<!-- Node17&#45;&gt;Node4 -->
<g id="edge44" class="edge">
<title>Node17&#45;&gt;Node4</title>
<path fill="none" stroke="midnightblue" d="M338,-774.25C338,-752.36 338,-715.05 338,-683 338,-683 338,-683 338,-513 338,-475.16 335.61,-430.05 334.52,-411.55"/>
<polygon fill="midnightblue" stroke="midnightblue" points="334.5,-774.44 338,-784.44 341.5,-774.44 334.5,-774.44"/>
</g>
<!-- Node17&#45;&gt;Node10 -->
<g id="edge45" class="edge">
<title>Node17&#45;&gt;Node10</title>
<path fill="none" stroke="midnightblue" d="M298.58,-793.44C244.14,-792.52 144.15,-785.3 69,-748 31.26,-729.27 0,-725.13 0,-683 0,-683 0,-683 0,-177 0,-80.62 155.08,-67.63 223.84,-66.61"/>
<polygon fill="midnightblue" stroke="midnightblue" points="298.81,-796.94 308.84,-793.54 298.88,-789.94 298.81,-796.94"/>
</g>
<!-- Node18 -->
<g id="node18" class="node">
<title>Node18</title>
<g id="a_node18"><a xlink:href="api_2spec_2comp_8h.html" target="_top" xlink:title=" ">
<polygon fill="white" stroke="black" points="78.5,-728.5 78.5,-747.5 131.5,-747.5 131.5,-728.5 78.5,-728.5"/>
<text text-anchor="middle" x="105" y="-735.5" font-family="Helvetica,sans-Serif" font-size="10.00">comp.h</text>
</a>
</g>
</g>
<!-- Node17&#45;&gt;Node18 -->
<g id="edge22" class="edge">
<title>Node17&#45;&gt;Node18</title>
<path fill="none" stroke="midnightblue" d="M299.04,-783.97C251.54,-772.96 172.53,-754.65 131.52,-745.15"/>
<polygon fill="midnightblue" stroke="midnightblue" points="298.43,-787.42 308.96,-786.27 300.01,-780.6 298.43,-787.42"/>
</g>
<!-- Node20 -->
<g id="node20" class="node">
<title>Node20</title>
<g id="a_node20"><a xlink:href="api_2spec_2crypto_8h.html" target="_top" xlink:title=" ">
<polygon fill="white" stroke="black" points="366,-672.5 366,-691.5 422,-691.5 422,-672.5 366,-672.5"/>
<text text-anchor="middle" x="394" y="-679.5" font-family="Helvetica,sans-Serif" font-size="10.00">crypto.h</text>
</a>
</g>
</g>
<!-- Node17&#45;&gt;Node20 -->
<g id="edge25" class="edge">
<title>Node17&#45;&gt;Node20</title>
<path fill="none" stroke="midnightblue" d="M347,-775.32C359.19,-751.37 380.48,-709.55 389.63,-691.59"/>
<polygon fill="midnightblue" stroke="midnightblue" points="343.81,-773.87 342.39,-784.37 350.05,-777.04 343.81,-773.87"/>
</g>
<!-- Node22 -->
<g id="node22" class="node">
<title>Node22</title>
<g id="a_node22"><a xlink:href="api_2spec_2event_8h.html" target="_top" xlink:title=" ">
<polygon fill="white" stroke="black" points="478.5,-728.5 478.5,-747.5 531.5,-747.5 531.5,-728.5 478.5,-728.5"/>
<text text-anchor="middle" x="505" y="-735.5" font-family="Helvetica,sans-Serif" font-size="10.00">event.h</text>
</a>
</g>
</g>
<!-- Node17&#45;&gt;Node22 -->
<g id="edge29" class="edge">
<title>Node17&#45;&gt;Node22</title>
<path fill="none" stroke="midnightblue" d="M374.17,-781.3C405.64,-771.13 450.49,-756.62 478.66,-747.52"/>
<polygon fill="midnightblue" stroke="midnightblue" points="372.9,-778.04 364.46,-784.44 375.05,-784.7 372.9,-778.04"/>
</g>
<!-- Node30 -->
<g id="node30" class="node">
<title>Node30</title>
<g id="a_node30"><a xlink:href="api_2spec_2packet__flags_8h.html" target="_top" xlink:title=" ">
<polygon fill="white" stroke="black" points="175,-728.5 175,-747.5 261,-747.5 261,-728.5 175,-728.5"/>
<text text-anchor="middle" x="218" y="-735.5" font-family="Helvetica,sans-Serif" font-size="10.00">packet_flags.h</text>
</a>
</g>
</g>
<!-- Node17&#45;&gt;Node30 -->
<g id="edge41" class="edge">
<title>Node17&#45;&gt;Node30</title>
<path fill="none" stroke="midnightblue" d="M309.63,-780.23C287.18,-770.13 256.46,-756.31 236.93,-747.52"/>
<polygon fill="midnightblue" stroke="midnightblue" points="308.43,-783.53 318.99,-784.44 311.3,-777.15 308.43,-783.53"/>
</g>
<!-- Node19 -->
<g id="node19" class="node">
<title>Node19</title>
<g id="a_node19"><a xlink:href="api_2comp_8h.html" target="_top" xlink:title=" ">
<polygon fill="white" stroke="black" points="36.5,-504.5 36.5,-523.5 89.5,-523.5 89.5,-504.5 36.5,-504.5"/>
<text text-anchor="middle" x="63" y="-511.5" font-family="Helvetica,sans-Serif" font-size="10.00">comp.h</text>
</a>
</g>
</g>
<!-- Node18&#45;&gt;Node19 -->
<g id="edge23" class="edge">
<title>Node18&#45;&gt;Node19</title>
<path fill="none" stroke="midnightblue" d="M101.46,-718.3C92.82,-672.64 70.92,-556.85 64.68,-523.88"/>
<polygon fill="midnightblue" stroke="midnightblue" points="98.06,-719.12 103.35,-728.3 104.93,-717.82 98.06,-719.12"/>
</g>
<!-- Node19&#45;&gt;Node10 -->
<g id="edge24" class="edge">
<title>Node19&#45;&gt;Node10</title>
<path fill="none" stroke="midnightblue" d="M56.24,-494.81C48.83,-473.23 38,-436 38,-403 38,-403 38,-403 38,-177 38,-94.76 163.19,-73.99 223.83,-68.76"/>
<polygon fill="midnightblue" stroke="midnightblue" points="52.97,-496.07 59.63,-504.31 59.57,-493.72 52.97,-496.07"/>
</g>
<!-- Node21 -->
<g id="node21" class="node">
<title>Node21</title>
<g id="a_node21"><a xlink:href="api_2crypto_8h.html" target="_top" xlink:title=" ">
<polygon fill="white" stroke="black" points="459,-224.5 459,-243.5 515,-243.5 515,-224.5 459,-224.5"/>
<text text-anchor="middle" x="487" y="-231.5" font-family="Helvetica,sans-Serif" font-size="10.00">crypto.h</text>
</a>
</g>
</g>
<!-- Node20&#45;&gt;Node21 -->
<g id="edge26" class="edge">
<title>Node20&#45;&gt;Node21</title>
<path fill="none" stroke="midnightblue" d="M403.39,-663.19C425.31,-619.9 478,-505.22 478,-403 478,-403 478,-403 478,-345 478,-307.06 483.38,-262.01 485.82,-243.54"/>
<polygon fill="midnightblue" stroke="midnightblue" points="400.23,-661.68 398.76,-672.18 406.45,-664.89 400.23,-661.68"/>
</g>
<!-- Node21&#45;&gt;Node8 -->
<g id="edge27" class="edge">
<title>Node21&#45;&gt;Node8</title>
<path fill="none" stroke="midnightblue" d="M452.39,-221.17C422.64,-211 380.45,-196.59 353.92,-187.52"/>
<polygon fill="midnightblue" stroke="midnightblue" points="451.37,-224.52 461.96,-224.44 453.63,-217.9 451.37,-224.52"/>
</g>
<!-- Node21&#45;&gt;Node10 -->
<g id="edge28" class="edge">
<title>Node21&#45;&gt;Node10</title>
<path fill="none" stroke="midnightblue" d="M475.34,-216.05C456.83,-190.29 418.35,-141.2 375,-112 348.25,-93.98 313.31,-81.88 288.22,-74.81"/>
<polygon fill="midnightblue" stroke="midnightblue" points="472.61,-218.25 481.23,-224.41 478.33,-214.22 472.61,-218.25"/>
</g>
<!-- Node23 -->
<g id="node23" class="node">
<title>Node23</title>
<g id="a_node23"><a xlink:href="api_2event_8h.html" target="_top" xlink:title=" ">
<polygon fill="white" stroke="black" points="478.5,-672.5 478.5,-691.5 531.5,-691.5 531.5,-672.5 478.5,-672.5"/>
<text text-anchor="middle" x="505" y="-679.5" font-family="Helvetica,sans-Serif" font-size="10.00">event.h</text>
</a>
</g>
</g>
<!-- Node22&#45;&gt;Node23 -->
<g id="edge30" class="edge">
<title>Node22&#45;&gt;Node23</title>
<path fill="none" stroke="midnightblue" d="M505,-717.8C505,-708.91 505,-698.78 505,-691.75"/>
<polygon fill="midnightblue" stroke="midnightblue" points="501.5,-718.08 505,-728.08 508.5,-718.08 501.5,-718.08"/>
</g>
<!-- Node23&#45;&gt;Node10 -->
<g id="edge40" class="edge">
<title>Node23&#45;&gt;Node10</title>
<path fill="none" stroke="midnightblue" d="M507.93,-662.36C519.48,-586.9 559.49,-304.31 524,-224 481.72,-128.31 349.61,-87.49 288.1,-73.33"/>
<polygon fill="midnightblue" stroke="midnightblue" points="504.47,-661.87 506.39,-672.29 511.39,-662.94 504.47,-661.87"/>
</g>
<!-- Node23&#45;&gt;Node24 -->
<g id="edge31" class="edge">
<title>Node23&#45;&gt;Node24</title>
<path fill="none" stroke="midnightblue" d="M492.62,-663.86C485.86,-654.5 477.79,-643.33 472.32,-635.75"/>
<polygon fill="midnightblue" stroke="midnightblue" points="489.87,-666.03 498.56,-672.08 495.54,-661.93 489.87,-666.03"/>
</g>
<!-- Node23&#45;&gt;Node28 -->
<g id="edge37" class="edge">
<title>Node23&#45;&gt;Node28</title>
<path fill="none" stroke="midnightblue" d="M532.9,-668.23C554.97,-658.13 585.18,-644.31 604.39,-635.52"/>
<polygon fill="midnightblue" stroke="midnightblue" points="531.33,-665.1 523.7,-672.44 534.25,-671.46 531.33,-665.1"/>
</g>
<!-- Node25 -->
<g id="node25" class="node">
<title>Node25</title>
<g id="a_node25"><a xlink:href="api_2queue_8h.html" target="_top" xlink:title=" ">
<polygon fill="white" stroke="black" points="231,-560.5 231,-579.5 287,-579.5 287,-560.5 231,-560.5"/>
<text text-anchor="middle" x="259" y="-567.5" font-family="Helvetica,sans-Serif" font-size="10.00">queue.h</text>
</a>
</g>
</g>
<!-- Node24&#45;&gt;Node25 -->
<g id="edge32" class="edge">
<title>Node24&#45;&gt;Node25</title>
<path fill="none" stroke="midnightblue" d="M427.81,-615.04C387.03,-604.4 323.38,-587.79 287.01,-578.31"/>
<polygon fill="midnightblue" stroke="midnightblue" points="427.09,-618.47 437.65,-617.6 428.86,-611.69 427.09,-618.47"/>
</g>
<!-- Node25&#45;&gt;Node10 -->
<g id="edge36" class="edge">
<title>Node25&#45;&gt;Node10</title>
<path fill="none" stroke="midnightblue" d="M232.54,-555.23C220.48,-547.62 207.11,-537.04 199,-524 164.52,-468.51 145,-300.33 145,-235 145,-235 145,-235 145,-177 145,-126.27 204.23,-90.96 236.16,-75.61"/>
<polygon fill="midnightblue" stroke="midnightblue" points="231.01,-558.4 241.4,-560.47 234.58,-552.37 231.01,-558.4"/>
</g>
<!-- Node26 -->
<g id="node26" class="node">
<title>Node26</title>
<g id="a_node26"><a xlink:href="spec_2packet__io__stats_8h.html" target="_top" xlink:title=" ">
<polygon fill="white" stroke="black" points="208.5,-504.5 208.5,-523.5 309.5,-523.5 309.5,-504.5 208.5,-504.5"/>
<text text-anchor="middle" x="259" y="-511.5" font-family="Helvetica,sans-Serif" font-size="10.00">packet_io_stats.h</text>
</a>
</g>
</g>
<!-- Node25&#45;&gt;Node26 -->
<g id="edge33" class="edge">
<title>Node25&#45;&gt;Node26</title>
<path fill="none" stroke="midnightblue" d="M259,-549.8C259,-540.91 259,-530.78 259,-523.75"/>
<polygon fill="midnightblue" stroke="midnightblue" points="255.5,-550.08 259,-560.08 262.5,-550.08 255.5,-550.08"/>
</g>
<!-- Node27 -->
<g id="node27" class="node">
<title>Node27</title>
<g id="a_node27"><a xlink:href="packet__io__stats_8h.html" target="_top" xlink:title=" ">
<polygon fill="white" stroke="black" points="208.5,-448.5 208.5,-467.5 309.5,-467.5 309.5,-448.5 208.5,-448.5"/>
<text text-anchor="middle" x="259" y="-455.5" font-family="Helvetica,sans-Serif" font-size="10.00">packet_io_stats.h</text>
</a>
</g>
</g>
<!-- Node26&#45;&gt;Node27 -->
<g id="edge34" class="edge">
<title>Node26&#45;&gt;Node27</title>
<path fill="none" stroke="midnightblue" d="M259,-493.8C259,-484.91 259,-474.78 259,-467.75"/>
<polygon fill="midnightblue" stroke="midnightblue" points="255.5,-494.08 259,-504.08 262.5,-494.08 255.5,-494.08"/>
</g>
<!-- Node27&#45;&gt;Node4 -->
<g id="edge35" class="edge">
<title>Node27&#45;&gt;Node4</title>
<path fill="none" stroke="midnightblue" d="M279.31,-442.38C292.86,-432.62 310.24,-420.11 321.73,-411.83"/>
<polygon fill="midnightblue" stroke="midnightblue" points="277.12,-439.64 271.05,-448.32 281.21,-445.32 277.12,-439.64"/>
</g>
<!-- Node29 -->
<g id="node29" class="node">
<title>Node29</title>
<g id="a_node29"><a xlink:href="api_2schedule_8h.html" target="_top" xlink:title=" ">
<polygon fill="white" stroke="black" points="563.5,-392.5 563.5,-411.5 632.5,-411.5 632.5,-392.5 563.5,-392.5"/>
<text text-anchor="middle" x="598" y="-399.5" font-family="Helvetica,sans-Serif" font-size="10.00">schedule.h</text>
</a>
</g>
</g>
<!-- Node28&#45;&gt;Node29 -->
<g id="edge38" class="edge">
<title>Node28&#45;&gt;Node29</title>
<path fill="none" stroke="midnightblue" d="M620.89,-606.3C615.75,-560.64 602.71,-444.85 599,-411.88"/>
<polygon fill="midnightblue" stroke="midnightblue" points="617.42,-606.75 622.02,-616.3 624.38,-605.97 617.42,-606.75"/>
</g>
<!-- Node29&#45;&gt;Node10 -->
<g id="edge39" class="edge">
<title>Node29&#45;&gt;Node10</title>
<path fill="none" stroke="midnightblue" d="M593.33,-382.36C588.3,-360.58 581,-323.42 581,-291 581,-291 581,-291 581,-177 581,-146.2 580.89,-131.43 557,-112 516.21,-78.83 356.95,-70.04 288.06,-67.77"/>
<polygon fill="midnightblue" stroke="midnightblue" points="589.97,-383.33 595.71,-392.23 596.77,-381.69 589.97,-383.33"/>
</g>
<!-- Node31 -->
<g id="node31" class="node">
<title>Node31</title>
<g id="a_node31"><a xlink:href="api_2packet__flags_8h.html" target="_top" xlink:title=" ">
<polygon fill="white" stroke="black" points="66,-448.5 66,-467.5 152,-467.5 152,-448.5 66,-448.5"/>
<text text-anchor="middle" x="109" y="-455.5" font-family="Helvetica,sans-Serif" font-size="10.00">packet_flags.h</text>
</a>
</g>
</g>
<!-- Node30&#45;&gt;Node31 -->
<g id="edge42" class="edge">
<title>Node30&#45;&gt;Node31</title>
<path fill="none" stroke="midnightblue" d="M196.69,-722.51C171.81,-703.68 134,-668.27 134,-627 134,-627 134,-627 134,-569 134,-530.42 119.2,-486.08 112.37,-467.69"/>
<polygon fill="midnightblue" stroke="midnightblue" points="194.73,-725.41 204.88,-728.46 198.85,-719.75 194.73,-725.41"/>
</g>
<!-- Node31&#45;&gt;Node10 -->
<g id="edge43" class="edge">
<title>Node31&#45;&gt;Node10</title>
<path fill="none" stroke="midnightblue" d="M108.45,-438.25C107.86,-416.36 107,-379.06 107,-347 107,-347 107,-347 107,-177 107,-146.2 109.14,-133.69 131,-112 156.05,-87.15 195.81,-75.93 223.75,-70.92"/>
<polygon fill="midnightblue" stroke="midnightblue" points="104.96,-438.55 108.74,-448.44 111.96,-438.35 104.96,-438.55"/>
</g>
</g>
</svg>
