<?xml version="1.0" encoding="UTF-8" standalone="no"?>
<!DOCTYPE svg PUBLIC "-//W3C//DTD SVG 1.1//EN"
 "http://www.w3.org/Graphics/SVG/1.1/DTD/svg11.dtd">
<!-- Generated by graphviz version 2.43.0 (0)
 -->
<!-- Title: spinlock.h Pages: 1 -->
<svg width="947pt" height="364pt"
 viewBox="0.00 0.00 946.66 364.00" xmlns="http://www.w3.org/2000/svg" xmlns:xlink="http://www.w3.org/1999/xlink">
<g id="graph0" class="graph" transform="scale(1 1) rotate(0) translate(4 360)">
<title>spinlock.h</title>
<polygon fill="white" stroke="transparent" points="-4,4 -4,-360 942.66,-360 942.66,4 -4,4"/>
<!-- Node1 -->
<g id="node1" class="node">
<title>Node1</title>
<g id="a_node1"><a xlink:title=" ">
<polygon fill="#bfbfbf" stroke="black" points="738,-336.5 738,-355.5 804,-355.5 804,-336.5 738,-336.5"/>
<text text-anchor="middle" x="771" y="-343.5" font-family="Helvetica,sans-Serif" font-size="10.00">spinlock.h</text>
</a>
</g>
</g>
<!-- Node2 -->
<g id="node2" class="node">
<title>Node2</title>
<g id="a_node2"><a xlink:href="api_2spinlock_8h.html" target="_top" xlink:title=" ">
<polygon fill="white" stroke="black" points="738,-280.5 738,-299.5 804,-299.5 804,-280.5 738,-280.5"/>
<text text-anchor="middle" x="771" y="-287.5" font-family="Helvetica,sans-Serif" font-size="10.00">spinlock.h</text>
</a>
</g>
</g>
<!-- Node1&#45;&gt;Node2 -->
<g id="edge1" class="edge">
<title>Node1&#45;&gt;Node2</title>
<path fill="none" stroke="midnightblue" d="M771,-325.8C771,-316.91 771,-306.78 771,-299.75"/>
<polygon fill="midnightblue" stroke="midnightblue" points="767.5,-326.08 771,-336.08 774.5,-326.08 767.5,-326.08"/>
</g>
<!-- Node3 -->
<g id="node3" class="node">
<title>Node3</title>
<g id="a_node3"><a xlink:href="api_2abi-default_2spinlock__recursive_8h.html" target="_top" xlink:title=" ">
<polygon fill="white" stroke="black" points="469,-224.5 469,-243.5 585,-243.5 585,-224.5 469,-224.5"/>
<text text-anchor="middle" x="527" y="-231.5" font-family="Helvetica,sans-Serif" font-size="10.00">spinlock_recursive.h</text>
</a>
</g>
</g>
<!-- Node2&#45;&gt;Node3 -->
<g id="edge2" class="edge">
<title>Node2&#45;&gt;Node3</title>
<path fill="none" stroke="midnightblue" d="M727.89,-279.46C681.96,-269.29 609.91,-253.35 565.73,-243.57"/>
<polygon fill="midnightblue" stroke="midnightblue" points="727.32,-282.92 737.84,-281.66 728.83,-276.08 727.32,-282.92"/>
</g>
<!-- Node12 -->
<g id="node12" class="node">
<title>Node12</title>
<g id="a_node12"><a xlink:href="odp__api_8h.html" target="_top" xlink:title=" ">
<polygon fill="white" stroke="black" points="873,-56.5 873,-75.5 937,-75.5 937,-56.5 873,-56.5"/>
<text text-anchor="middle" x="905" y="-63.5" font-family="Helvetica,sans-Serif" font-size="10.00">odp_api.h</text>
</a>
</g>
</g>
<!-- Node2&#45;&gt;Node12 -->
<g id="edge13" class="edge">
<title>Node2&#45;&gt;Node12</title>
<path fill="none" stroke="midnightblue" d="M809,-276.86C847.11,-262.42 903.66,-234.27 929,-188 945.22,-158.37 937.19,-144.77 929,-112 925.61,-98.43 917.26,-84.47 911.37,-75.77"/>
<polygon fill="midnightblue" stroke="midnightblue" points="807.46,-273.7 799.26,-280.41 809.86,-280.28 807.46,-273.7"/>
</g>
<!-- Node4 -->
<g id="node4" class="node">
<title>Node4</title>
<g id="a_node4"><a xlink:href="arch_2arm32-linux_2odp_2api_2abi_2spinlock__recursive_8h_source.html" target="_top" xlink:title=" ">
<polygon fill="white" stroke="black" points="0,-168.5 0,-187.5 116,-187.5 116,-168.5 0,-168.5"/>
<text text-anchor="middle" x="58" y="-175.5" font-family="Helvetica,sans-Serif" font-size="10.00">spinlock_recursive.h</text>
</a>
</g>
</g>
<!-- Node3&#45;&gt;Node4 -->
<g id="edge3" class="edge">
<title>Node3&#45;&gt;Node4</title>
<path fill="none" stroke="midnightblue" d="M458.75,-225.82C378.73,-217.3 242.14,-202.42 125,-188 122.09,-187.64 119.11,-187.27 116.09,-186.88"/>
<polygon fill="midnightblue" stroke="midnightblue" points="458.39,-229.3 468.7,-226.88 459.13,-222.34 458.39,-229.3"/>
</g>
<!-- Node5 -->
<g id="node5" class="node">
<title>Node5</title>
<g id="a_node5"><a xlink:href="arch_2arm64-linux_2odp_2api_2abi_2spinlock__recursive_8h_source.html" target="_top" xlink:title=" ">
<polygon fill="white" stroke="black" points="134,-168.5 134,-187.5 250,-187.5 250,-168.5 134,-168.5"/>
<text text-anchor="middle" x="192" y="-175.5" font-family="Helvetica,sans-Serif" font-size="10.00">spinlock_recursive.h</text>
</a>
</g>
</g>
<!-- Node3&#45;&gt;Node5 -->
<g id="edge4" class="edge">
<title>Node3&#45;&gt;Node5</title>
<path fill="none" stroke="midnightblue" d="M463.66,-222.79C400.36,-212.59 304.15,-197.08 244.83,-187.52"/>
<polygon fill="midnightblue" stroke="midnightblue" points="463.49,-226.31 473.92,-224.44 464.6,-219.4 463.49,-226.31"/>
</g>
<!-- Node6 -->
<g id="node6" class="node">
<title>Node6</title>
<g id="a_node6"><a xlink:href="arch_2default-linux_2odp_2api_2abi_2spinlock__recursive_8h_source.html" target="_top" xlink:title=" ">
<polygon fill="white" stroke="black" points="268,-168.5 268,-187.5 384,-187.5 384,-168.5 268,-168.5"/>
<text text-anchor="middle" x="326" y="-175.5" font-family="Helvetica,sans-Serif" font-size="10.00">spinlock_recursive.h</text>
</a>
</g>
</g>
<!-- Node3&#45;&gt;Node6 -->
<g id="edge5" class="edge">
<title>Node3&#45;&gt;Node6</title>
<path fill="none" stroke="midnightblue" d="M485.42,-221.83C447.47,-211.63 392.19,-196.78 357.7,-187.52"/>
<polygon fill="midnightblue" stroke="midnightblue" points="484.59,-225.23 495.15,-224.44 486.4,-218.47 484.59,-225.23"/>
</g>
<!-- Node7 -->
<g id="node7" class="node">
<title>Node7</title>
<g id="a_node7"><a xlink:href="arch_2mips64-linux_2odp_2api_2abi_2spinlock__recursive_8h_source.html" target="_top" xlink:title=" ">
<polygon fill="white" stroke="black" points="402,-168.5 402,-187.5 518,-187.5 518,-168.5 402,-168.5"/>
<text text-anchor="middle" x="460" y="-175.5" font-family="Helvetica,sans-Serif" font-size="10.00">spinlock_recursive.h</text>
</a>
</g>
</g>
<!-- Node3&#45;&gt;Node7 -->
<g id="edge6" class="edge">
<title>Node3&#45;&gt;Node7</title>
<path fill="none" stroke="midnightblue" d="M508.17,-217.82C496.16,-208.15 481.03,-195.95 470.96,-187.83"/>
<polygon fill="midnightblue" stroke="midnightblue" points="506.25,-220.77 516.24,-224.32 510.65,-215.32 506.25,-220.77"/>
</g>
<!-- Node8 -->
<g id="node8" class="node">
<title>Node8</title>
<g id="a_node8"><a xlink:href="arch_2power64-linux_2odp_2api_2abi_2spinlock__recursive_8h_source.html" target="_top" xlink:title=" ">
<polygon fill="white" stroke="black" points="536,-168.5 536,-187.5 652,-187.5 652,-168.5 536,-168.5"/>
<text text-anchor="middle" x="594" y="-175.5" font-family="Helvetica,sans-Serif" font-size="10.00">spinlock_recursive.h</text>
</a>
</g>
</g>
<!-- Node3&#45;&gt;Node8 -->
<g id="edge7" class="edge">
<title>Node3&#45;&gt;Node8</title>
<path fill="none" stroke="midnightblue" d="M545.83,-217.82C557.84,-208.15 572.97,-195.95 583.04,-187.83"/>
<polygon fill="midnightblue" stroke="midnightblue" points="543.35,-215.32 537.76,-224.32 547.75,-220.77 543.35,-215.32"/>
</g>
<!-- Node9 -->
<g id="node9" class="node">
<title>Node9</title>
<g id="a_node9"><a xlink:href="arch_2x86__32-linux_2odp_2api_2abi_2spinlock__recursive_8h_source.html" target="_top" xlink:title=" ">
<polygon fill="white" stroke="black" points="670,-168.5 670,-187.5 786,-187.5 786,-168.5 670,-168.5"/>
<text text-anchor="middle" x="728" y="-175.5" font-family="Helvetica,sans-Serif" font-size="10.00">spinlock_recursive.h</text>
</a>
</g>
</g>
<!-- Node3&#45;&gt;Node9 -->
<g id="edge8" class="edge">
<title>Node3&#45;&gt;Node9</title>
<path fill="none" stroke="midnightblue" d="M568.58,-221.83C606.53,-211.63 661.81,-196.78 696.3,-187.52"/>
<polygon fill="midnightblue" stroke="midnightblue" points="567.6,-218.47 558.85,-224.44 569.41,-225.23 567.6,-218.47"/>
</g>
<!-- Node10 -->
<g id="node10" class="node">
<title>Node10</title>
<g id="a_node10"><a xlink:href="arch_2x86__64-linux_2odp_2api_2abi_2spinlock__recursive_8h_source.html" target="_top" xlink:title=" ">
<polygon fill="white" stroke="black" points="804,-168.5 804,-187.5 920,-187.5 920,-168.5 804,-168.5"/>
<text text-anchor="middle" x="862" y="-175.5" font-family="Helvetica,sans-Serif" font-size="10.00">spinlock_recursive.h</text>
</a>
</g>
</g>
<!-- Node3&#45;&gt;Node10 -->
<g id="edge9" class="edge">
<title>Node3&#45;&gt;Node10</title>
<path fill="none" stroke="midnightblue" d="M590.34,-222.79C653.64,-212.59 749.85,-197.08 809.17,-187.52"/>
<polygon fill="midnightblue" stroke="midnightblue" points="589.4,-219.4 580.08,-224.44 590.51,-226.31 589.4,-219.4"/>
</g>
<!-- Node11 -->
<g id="node11" class="node">
<title>Node11</title>
<g id="a_node11"><a xlink:href="api_2spinlock__recursive_8h.html" target="_top" xlink:title=" ">
<polygon fill="white" stroke="black" points="804,-112.5 804,-131.5 920,-131.5 920,-112.5 804,-112.5"/>
<text text-anchor="middle" x="862" y="-119.5" font-family="Helvetica,sans-Serif" font-size="10.00">spinlock_recursive.h</text>
</a>
</g>
</g>
<!-- Node10&#45;&gt;Node11 -->
<g id="edge10" class="edge">
<title>Node10&#45;&gt;Node11</title>
<path fill="none" stroke="midnightblue" d="M862,-157.8C862,-148.91 862,-138.78 862,-131.75"/>
<polygon fill="midnightblue" stroke="midnightblue" points="858.5,-158.08 862,-168.08 865.5,-158.08 858.5,-158.08"/>
</g>
<!-- Node11&#45;&gt;Node12 -->
<g id="edge11" class="edge">
<title>Node11&#45;&gt;Node12</title>
<path fill="none" stroke="midnightblue" d="M875.42,-104.14C882.91,-94.74 891.94,-83.4 898.03,-75.75"/>
<polygon fill="midnightblue" stroke="midnightblue" points="872.59,-102.08 869.1,-112.08 878.07,-106.44 872.59,-102.08"/>
</g>
<!-- Node13 -->
<g id="node13" class="node">
<title>Node13</title>
<g id="a_node13"><a xlink:href="odp_8h.html" target="_top" xlink:title=" ">
<polygon fill="white" stroke="black" points="883,-0.5 883,-19.5 927,-19.5 927,-0.5 883,-0.5"/>
<text text-anchor="middle" x="905" y="-7.5" font-family="Helvetica,sans-Serif" font-size="10.00">odp.h</text>
</a>
</g>
</g>
<!-- Node12&#45;&gt;Node13 -->
<g id="edge12" class="edge">
<title>Node12&#45;&gt;Node13</title>
<path fill="none" stroke="midnightblue" d="M905,-45.8C905,-36.91 905,-26.78 905,-19.75"/>
<polygon fill="midnightblue" stroke="midnightblue" points="901.5,-46.08 905,-56.08 908.5,-46.08 901.5,-46.08"/>
</g>
</g>
</svg>
