<?xml version="1.0" encoding="UTF-8" standalone="no"?>
<!DOCTYPE svg PUBLIC "-//W3C//DTD SVG 1.1//EN"
 "http://www.w3.org/Graphics/SVG/1.1/DTD/svg11.dtd">
<!-- Generated by graphviz version 2.43.0 (0)
 -->
<!-- Title: sync.h Pages: 1 -->
<svg width="460pt" height="252pt"
 viewBox="0.00 0.00 460.00 252.00" xmlns="http://www.w3.org/2000/svg" xmlns:xlink="http://www.w3.org/1999/xlink">
<g id="graph0" class="graph" transform="scale(1 1) rotate(0) translate(4 248)">
<title>sync.h</title>
<polygon fill="white" stroke="transparent" points="-4,4 -4,-248 456,-248 456,4 -4,4"/>
<!-- Node1 -->
<g id="node1" class="node">
<title>Node1</title>
<g id="a_node1"><a xlink:title=" ">
<polygon fill="#bfbfbf" stroke="black" points="198,-224.5 198,-243.5 246,-243.5 246,-224.5 198,-224.5"/>
<text text-anchor="middle" x="222" y="-231.5" font-family="Helvetica,sans-Serif" font-size="10.00">sync.h</text>
</a>
</g>
</g>
<!-- Node2 -->
<g id="node2" class="node">
<title>Node2</title>
<g id="a_node2"><a xlink:href="arch_2arm32-linux_2odp_2api_2abi_2sync_8h_source.html" target="_top" xlink:title=" ">
<polygon fill="white" stroke="black" points="0,-168.5 0,-187.5 48,-187.5 48,-168.5 0,-168.5"/>
<text text-anchor="middle" x="24" y="-175.5" font-family="Helvetica,sans-Serif" font-size="10.00">sync.h</text>
</a>
</g>
</g>
<!-- Node1&#45;&gt;Node2 -->
<g id="edge1" class="edge">
<title>Node1&#45;&gt;Node2</title>
<path fill="none" stroke="midnightblue" d="M187.92,-223.71C148.09,-212.84 83.16,-195.13 48.17,-185.59"/>
<polygon fill="midnightblue" stroke="midnightblue" points="187.15,-227.12 197.72,-226.38 188.99,-220.37 187.15,-227.12"/>
</g>
<!-- Node3 -->
<g id="node3" class="node">
<title>Node3</title>
<g id="a_node3"><a xlink:href="arch_2arm64-linux_2odp_2api_2abi_2sync_8h_source.html" target="_top" xlink:title=" ">
<polygon fill="white" stroke="black" points="66,-168.5 66,-187.5 114,-187.5 114,-168.5 66,-168.5"/>
<text text-anchor="middle" x="90" y="-175.5" font-family="Helvetica,sans-Serif" font-size="10.00">sync.h</text>
</a>
</g>
</g>
<!-- Node1&#45;&gt;Node3 -->
<g id="edge2" class="edge">
<title>Node1&#45;&gt;Node3</title>
<path fill="none" stroke="midnightblue" d="M191.78,-220.64C167.01,-210.5 132.6,-196.43 110.82,-187.52"/>
<polygon fill="midnightblue" stroke="midnightblue" points="190.5,-223.9 201.08,-224.44 193.15,-217.42 190.5,-223.9"/>
</g>
<!-- Node4 -->
<g id="node4" class="node">
<title>Node4</title>
<g id="a_node4"><a xlink:href="arch_2default-linux_2odp_2api_2abi_2sync_8h_source.html" target="_top" xlink:title=" ">
<polygon fill="white" stroke="black" points="132,-168.5 132,-187.5 180,-187.5 180,-168.5 132,-168.5"/>
<text text-anchor="middle" x="156" y="-175.5" font-family="Helvetica,sans-Serif" font-size="10.00">sync.h</text>
</a>
</g>
</g>
<!-- Node1&#45;&gt;Node4 -->
<g id="edge3" class="edge">
<title>Node1&#45;&gt;Node4</title>
<path fill="none" stroke="midnightblue" d="M203.45,-217.82C191.62,-208.15 176.71,-195.95 166.8,-187.83"/>
<polygon fill="midnightblue" stroke="midnightblue" points="201.44,-220.7 211.4,-224.32 205.87,-215.28 201.44,-220.7"/>
</g>
<!-- Node5 -->
<g id="node5" class="node">
<title>Node5</title>
<g id="a_node5"><a xlink:href="arch_2mips64-linux_2odp_2api_2abi_2sync_8h_source.html" target="_top" xlink:title=" ">
<polygon fill="white" stroke="black" points="198,-168.5 198,-187.5 246,-187.5 246,-168.5 198,-168.5"/>
<text text-anchor="middle" x="222" y="-175.5" font-family="Helvetica,sans-Serif" font-size="10.00">sync.h</text>
</a>
</g>
</g>
<!-- Node1&#45;&gt;Node5 -->
<g id="edge4" class="edge">
<title>Node1&#45;&gt;Node5</title>
<path fill="none" stroke="midnightblue" d="M222,-213.8C222,-204.91 222,-194.78 222,-187.75"/>
<polygon fill="midnightblue" stroke="midnightblue" points="218.5,-214.08 222,-224.08 225.5,-214.08 218.5,-214.08"/>
</g>
<!-- Node6 -->
<g id="node6" class="node">
<title>Node6</title>
<g id="a_node6"><a xlink:href="arch_2power64-linux_2odp_2api_2abi_2sync_8h_source.html" target="_top" xlink:title=" ">
<polygon fill="white" stroke="black" points="264,-168.5 264,-187.5 312,-187.5 312,-168.5 264,-168.5"/>
<text text-anchor="middle" x="288" y="-175.5" font-family="Helvetica,sans-Serif" font-size="10.00">sync.h</text>
</a>
</g>
</g>
<!-- Node1&#45;&gt;Node6 -->
<g id="edge5" class="edge">
<title>Node1&#45;&gt;Node6</title>
<path fill="none" stroke="midnightblue" d="M240.55,-217.82C252.38,-208.15 267.29,-195.95 277.2,-187.83"/>
<polygon fill="midnightblue" stroke="midnightblue" points="238.13,-215.28 232.6,-224.32 242.56,-220.7 238.13,-215.28"/>
</g>
<!-- Node7 -->
<g id="node7" class="node">
<title>Node7</title>
<g id="a_node7"><a xlink:href="arch_2x86__32-linux_2odp_2api_2abi_2sync_8h_source.html" target="_top" xlink:title=" ">
<polygon fill="white" stroke="black" points="330,-168.5 330,-187.5 378,-187.5 378,-168.5 330,-168.5"/>
<text text-anchor="middle" x="354" y="-175.5" font-family="Helvetica,sans-Serif" font-size="10.00">sync.h</text>
</a>
</g>
</g>
<!-- Node1&#45;&gt;Node7 -->
<g id="edge6" class="edge">
<title>Node1&#45;&gt;Node7</title>
<path fill="none" stroke="midnightblue" d="M252.22,-220.64C276.99,-210.5 311.4,-196.43 333.18,-187.52"/>
<polygon fill="midnightblue" stroke="midnightblue" points="250.85,-217.42 242.92,-224.44 253.5,-223.9 250.85,-217.42"/>
</g>
<!-- Node8 -->
<g id="node8" class="node">
<title>Node8</title>
<g id="a_node8"><a xlink:href="arch_2x86__64-linux_2odp_2api_2abi_2sync_8h_source.html" target="_top" xlink:title=" ">
<polygon fill="white" stroke="black" points="396,-168.5 396,-187.5 444,-187.5 444,-168.5 396,-168.5"/>
<text text-anchor="middle" x="420" y="-175.5" font-family="Helvetica,sans-Serif" font-size="10.00">sync.h</text>
</a>
</g>
</g>
<!-- Node1&#45;&gt;Node8 -->
<g id="edge7" class="edge">
<title>Node1&#45;&gt;Node8</title>
<path fill="none" stroke="midnightblue" d="M256.08,-223.71C295.91,-212.84 360.84,-195.13 395.83,-185.59"/>
<polygon fill="midnightblue" stroke="midnightblue" points="255.01,-220.37 246.28,-226.38 256.85,-227.12 255.01,-220.37"/>
</g>
<!-- Node9 -->
<g id="node9" class="node">
<title>Node9</title>
<g id="a_node9"><a xlink:href="api_2sync_8h.html" target="_top" xlink:title=" ">
<polygon fill="white" stroke="black" points="396,-112.5 396,-131.5 444,-131.5 444,-112.5 396,-112.5"/>
<text text-anchor="middle" x="420" y="-119.5" font-family="Helvetica,sans-Serif" font-size="10.00">sync.h</text>
</a>
</g>
</g>
<!-- Node8&#45;&gt;Node9 -->
<g id="edge8" class="edge">
<title>Node8&#45;&gt;Node9</title>
<path fill="none" stroke="midnightblue" d="M420,-157.8C420,-148.91 420,-138.78 420,-131.75"/>
<polygon fill="midnightblue" stroke="midnightblue" points="416.5,-158.08 420,-168.08 423.5,-158.08 416.5,-158.08"/>
</g>
<!-- Node10 -->
<g id="node10" class="node">
<title>Node10</title>
<g id="a_node10"><a xlink:href="odp__api_8h.html" target="_top" xlink:title=" ">
<polygon fill="white" stroke="black" points="388,-56.5 388,-75.5 452,-75.5 452,-56.5 388,-56.5"/>
<text text-anchor="middle" x="420" y="-63.5" font-family="Helvetica,sans-Serif" font-size="10.00">odp_api.h</text>
</a>
</g>
</g>
<!-- Node9&#45;&gt;Node10 -->
<g id="edge9" class="edge">
<title>Node9&#45;&gt;Node10</title>
<path fill="none" stroke="midnightblue" d="M420,-101.8C420,-92.91 420,-82.78 420,-75.75"/>
<polygon fill="midnightblue" stroke="midnightblue" points="416.5,-102.08 420,-112.08 423.5,-102.08 416.5,-102.08"/>
</g>
<!-- Node11 -->
<g id="node11" class="node">
<title>Node11</title>
<g id="a_node11"><a xlink:href="odp_8h.html" target="_top" xlink:title=" ">
<polygon fill="white" stroke="black" points="398,-0.5 398,-19.5 442,-19.5 442,-0.5 398,-0.5"/>
<text text-anchor="middle" x="420" y="-7.5" font-family="Helvetica,sans-Serif" font-size="10.00">odp.h</text>
</a>
</g>
</g>
<!-- Node10&#45;&gt;Node11 -->
<g id="edge10" class="edge">
<title>Node10&#45;&gt;Node11</title>
<path fill="none" stroke="midnightblue" d="M420,-45.8C420,-36.91 420,-26.78 420,-19.75"/>
<polygon fill="midnightblue" stroke="midnightblue" points="416.5,-46.08 420,-56.08 423.5,-46.08 416.5,-46.08"/>
</g>
</g>
</svg>
