<?xml version="1.0" encoding="UTF-8" standalone="no"?>
<!DOCTYPE svg PUBLIC "-//W3C//DTD SVG 1.1//EN"
 "http://www.w3.org/Graphics/SVG/1.1/DTD/svg11.dtd">
<!-- Generated by graphviz version 2.43.0 (0)
 -->
<!-- Title: errno.h Pages: 1 -->
<svg width="480pt" height="252pt"
 viewBox="0.00 0.00 479.50 252.00" xmlns="http://www.w3.org/2000/svg" xmlns:xlink="http://www.w3.org/1999/xlink">
<g id="graph0" class="graph" transform="scale(1 1) rotate(0) translate(4 248)">
<title>errno.h</title>
<polygon fill="white" stroke="transparent" points="-4,4 -4,-248 475.5,-248 475.5,4 -4,4"/>
<!-- Node1 -->
<g id="node1" class="node">
<title>Node1</title>
<g id="a_node1"><a xlink:title=" ">
<polygon fill="#bfbfbf" stroke="black" points="207,-224.5 207,-243.5 258,-243.5 258,-224.5 207,-224.5"/>
<text text-anchor="middle" x="232.5" y="-231.5" font-family="Helvetica,sans-Serif" font-size="10.00">errno.h</text>
</a>
</g>
</g>
<!-- Node2 -->
<g id="node2" class="node">
<title>Node2</title>
<g id="a_node2"><a xlink:href="arch_2arm32-linux_2odp_2api_2abi_2errno_8h_source.html" target="_top" xlink:title=" ">
<polygon fill="white" stroke="black" points="0,-168.5 0,-187.5 51,-187.5 51,-168.5 0,-168.5"/>
<text text-anchor="middle" x="25.5" y="-175.5" font-family="Helvetica,sans-Serif" font-size="10.00">errno.h</text>
</a>
</g>
</g>
<!-- Node1&#45;&gt;Node2 -->
<g id="edge1" class="edge">
<title>Node1&#45;&gt;Node2</title>
<path fill="none" stroke="midnightblue" d="M197.02,-223.74C155.58,-212.93 88.04,-195.32 51.3,-185.73"/>
<polygon fill="midnightblue" stroke="midnightblue" points="196.14,-227.13 206.7,-226.27 197.91,-220.36 196.14,-227.13"/>
</g>
<!-- Node3 -->
<g id="node3" class="node">
<title>Node3</title>
<g id="a_node3"><a xlink:href="arch_2arm64-linux_2odp_2api_2abi_2errno_8h_source.html" target="_top" xlink:title=" ">
<polygon fill="white" stroke="black" points="69,-168.5 69,-187.5 120,-187.5 120,-168.5 69,-168.5"/>
<text text-anchor="middle" x="94.5" y="-175.5" font-family="Helvetica,sans-Serif" font-size="10.00">errno.h</text>
</a>
</g>
</g>
<!-- Node1&#45;&gt;Node3 -->
<g id="edge2" class="edge">
<title>Node1&#45;&gt;Node3</title>
<path fill="none" stroke="midnightblue" d="M201.25,-220.77C175.33,-210.63 139.14,-196.47 116.26,-187.52"/>
<polygon fill="midnightblue" stroke="midnightblue" points="200.05,-224.06 210.63,-224.44 202.6,-217.54 200.05,-224.06"/>
</g>
<!-- Node4 -->
<g id="node4" class="node">
<title>Node4</title>
<g id="a_node4"><a xlink:href="arch_2default-linux_2odp_2api_2abi_2errno_8h_source.html" target="_top" xlink:title=" ">
<polygon fill="white" stroke="black" points="138,-168.5 138,-187.5 189,-187.5 189,-168.5 138,-168.5"/>
<text text-anchor="middle" x="163.5" y="-175.5" font-family="Helvetica,sans-Serif" font-size="10.00">errno.h</text>
</a>
</g>
</g>
<!-- Node1&#45;&gt;Node4 -->
<g id="edge3" class="edge">
<title>Node1&#45;&gt;Node4</title>
<path fill="none" stroke="midnightblue" d="M213.46,-218.1C201.04,-208.38 185.26,-196.03 174.79,-187.83"/>
<polygon fill="midnightblue" stroke="midnightblue" points="211.38,-220.92 221.41,-224.32 215.7,-215.4 211.38,-220.92"/>
</g>
<!-- Node5 -->
<g id="node5" class="node">
<title>Node5</title>
<g id="a_node5"><a xlink:href="arch_2mips64-linux_2odp_2api_2abi_2errno_8h_source.html" target="_top" xlink:title=" ">
<polygon fill="white" stroke="black" points="207,-168.5 207,-187.5 258,-187.5 258,-168.5 207,-168.5"/>
<text text-anchor="middle" x="232.5" y="-175.5" font-family="Helvetica,sans-Serif" font-size="10.00">errno.h</text>
</a>
</g>
</g>
<!-- Node1&#45;&gt;Node5 -->
<g id="edge4" class="edge">
<title>Node1&#45;&gt;Node5</title>
<path fill="none" stroke="midnightblue" d="M232.5,-213.8C232.5,-204.91 232.5,-194.78 232.5,-187.75"/>
<polygon fill="midnightblue" stroke="midnightblue" points="229,-214.08 232.5,-224.08 236,-214.08 229,-214.08"/>
</g>
<!-- Node6 -->
<g id="node6" class="node">
<title>Node6</title>
<g id="a_node6"><a xlink:href="arch_2power64-linux_2odp_2api_2abi_2errno_8h_source.html" target="_top" xlink:title=" ">
<polygon fill="white" stroke="black" points="276,-168.5 276,-187.5 327,-187.5 327,-168.5 276,-168.5"/>
<text text-anchor="middle" x="301.5" y="-175.5" font-family="Helvetica,sans-Serif" font-size="10.00">errno.h</text>
</a>
</g>
</g>
<!-- Node1&#45;&gt;Node6 -->
<g id="edge5" class="edge">
<title>Node1&#45;&gt;Node6</title>
<path fill="none" stroke="midnightblue" d="M251.54,-218.1C263.96,-208.38 279.74,-196.03 290.21,-187.83"/>
<polygon fill="midnightblue" stroke="midnightblue" points="249.3,-215.4 243.59,-224.32 253.62,-220.92 249.3,-215.4"/>
</g>
<!-- Node7 -->
<g id="node7" class="node">
<title>Node7</title>
<g id="a_node7"><a xlink:href="arch_2x86__32-linux_2odp_2api_2abi_2errno_8h_source.html" target="_top" xlink:title=" ">
<polygon fill="white" stroke="black" points="345,-168.5 345,-187.5 396,-187.5 396,-168.5 345,-168.5"/>
<text text-anchor="middle" x="370.5" y="-175.5" font-family="Helvetica,sans-Serif" font-size="10.00">errno.h</text>
</a>
</g>
</g>
<!-- Node1&#45;&gt;Node7 -->
<g id="edge6" class="edge">
<title>Node1&#45;&gt;Node7</title>
<path fill="none" stroke="midnightblue" d="M263.75,-220.77C289.67,-210.63 325.86,-196.47 348.74,-187.52"/>
<polygon fill="midnightblue" stroke="midnightblue" points="262.4,-217.54 254.37,-224.44 264.95,-224.06 262.4,-217.54"/>
</g>
<!-- Node8 -->
<g id="node8" class="node">
<title>Node8</title>
<g id="a_node8"><a xlink:href="arch_2x86__64-linux_2odp_2api_2abi_2errno_8h_source.html" target="_top" xlink:title=" ">
<polygon fill="white" stroke="black" points="414,-168.5 414,-187.5 465,-187.5 465,-168.5 414,-168.5"/>
<text text-anchor="middle" x="439.5" y="-175.5" font-family="Helvetica,sans-Serif" font-size="10.00">errno.h</text>
</a>
</g>
</g>
<!-- Node1&#45;&gt;Node8 -->
<g id="edge7" class="edge">
<title>Node1&#45;&gt;Node8</title>
<path fill="none" stroke="midnightblue" d="M267.75,-223.88C302.72,-214.82 357.82,-200.51 405.5,-188 408.22,-187.29 411.06,-186.54 413.88,-185.79"/>
<polygon fill="midnightblue" stroke="midnightblue" points="266.81,-220.51 258.01,-226.4 268.57,-227.28 266.81,-220.51"/>
</g>
<!-- Node9 -->
<g id="node9" class="node">
<title>Node9</title>
<g id="a_node9"><a xlink:href="api_2errno_8h.html" target="_top" xlink:title=" ">
<polygon fill="white" stroke="black" points="414,-112.5 414,-131.5 465,-131.5 465,-112.5 414,-112.5"/>
<text text-anchor="middle" x="439.5" y="-119.5" font-family="Helvetica,sans-Serif" font-size="10.00">errno.h</text>
</a>
</g>
</g>
<!-- Node8&#45;&gt;Node9 -->
<g id="edge8" class="edge">
<title>Node8&#45;&gt;Node9</title>
<path fill="none" stroke="midnightblue" d="M439.5,-157.8C439.5,-148.91 439.5,-138.78 439.5,-131.75"/>
<polygon fill="midnightblue" stroke="midnightblue" points="436,-158.08 439.5,-168.08 443,-158.08 436,-158.08"/>
</g>
<!-- Node10 -->
<g id="node10" class="node">
<title>Node10</title>
<g id="a_node10"><a xlink:href="odp__api_8h.html" target="_top" xlink:title=" ">
<polygon fill="white" stroke="black" points="407.5,-56.5 407.5,-75.5 471.5,-75.5 471.5,-56.5 407.5,-56.5"/>
<text text-anchor="middle" x="439.5" y="-63.5" font-family="Helvetica,sans-Serif" font-size="10.00">odp_api.h</text>
</a>
</g>
</g>
<!-- Node9&#45;&gt;Node10 -->
<g id="edge9" class="edge">
<title>Node9&#45;&gt;Node10</title>
<path fill="none" stroke="midnightblue" d="M439.5,-101.8C439.5,-92.91 439.5,-82.78 439.5,-75.75"/>
<polygon fill="midnightblue" stroke="midnightblue" points="436,-102.08 439.5,-112.08 443,-102.08 436,-102.08"/>
</g>
<!-- Node11 -->
<g id="node11" class="node">
<title>Node11</title>
<g id="a_node11"><a xlink:href="odp_8h.html" target="_top" xlink:title=" ">
<polygon fill="white" stroke="black" points="417.5,-0.5 417.5,-19.5 461.5,-19.5 461.5,-0.5 417.5,-0.5"/>
<text text-anchor="middle" x="439.5" y="-7.5" font-family="Helvetica,sans-Serif" font-size="10.00">odp.h</text>
</a>
</g>
</g>
<!-- Node10&#45;&gt;Node11 -->
<g id="edge10" class="edge">
<title>Node10&#45;&gt;Node11</title>
<path fill="none" stroke="midnightblue" d="M439.5,-45.8C439.5,-36.91 439.5,-26.78 439.5,-19.75"/>
<polygon fill="midnightblue" stroke="midnightblue" points="436,-46.08 439.5,-56.08 443,-46.08 436,-46.08"/>
</g>
</g>
</svg>
