<?xml version="1.0" encoding="UTF-8" standalone="no"?>
<!DOCTYPE svg PUBLIC "-//W3C//DTD SVG 1.1//EN"
 "http://www.w3.org/Graphics/SVG/1.1/DTD/svg11.dtd">
<!-- Generated by graphviz version 2.43.0 (0)
 -->
<!-- Title: pool.h Pages: 1 -->
<svg width="460pt" height="364pt"
 viewBox="0.00 0.00 459.50 364.00" xmlns="http://www.w3.org/2000/svg" xmlns:xlink="http://www.w3.org/1999/xlink">
<g id="graph0" class="graph" transform="scale(1 1) rotate(0) translate(4 360)">
<title>pool.h</title>
<polygon fill="white" stroke="transparent" points="-4,4 -4,-360 455.5,-360 455.5,4 -4,4"/>
<!-- Node1 -->
<g id="node1" class="node">
<title>Node1</title>
<g id="a_node1"><a xlink:title=" ">
<polygon fill="#bfbfbf" stroke="black" points="162,-336.5 162,-355.5 209,-355.5 209,-336.5 162,-336.5"/>
<text text-anchor="middle" x="185.5" y="-343.5" font-family="Helvetica,sans-Serif" font-size="10.00">pool.h</text>
</a>
</g>
</g>
<!-- Node2 -->
<g id="node2" class="node">
<title>Node2</title>
<g id="a_node2"><a xlink:href="visibility__begin_8h_source.html" target="_top" xlink:title=" ">
<polygon fill="white" stroke="black" points="0,-0.5 0,-19.5 121,-19.5 121,-0.5 0,-0.5"/>
<text text-anchor="middle" x="60.5" y="-7.5" font-family="Helvetica,sans-Serif" font-size="10.00">odp/visibility_begin.h</text>
</a>
</g>
</g>
<!-- Node1&#45;&gt;Node2 -->
<g id="edge1" class="edge">
<title>Node1&#45;&gt;Node2</title>
<path fill="none" stroke="midnightblue" d="M161.71,-341.88C112.37,-333.93 3.5,-308.1 3.5,-235 3.5,-235 3.5,-235 3.5,-121 3.5,-84.3 28.82,-47.66 45.71,-27.3"/>
<polygon fill="midnightblue" stroke="midnightblue" points="48.45,-29.48 52.33,-19.62 43.15,-24.9 48.45,-29.48"/>
</g>
<!-- Node3 -->
<g id="node3" class="node">
<title>Node3</title>
<g id="a_node3"><a xlink:href="api_2std__types_8h.html" target="_top" xlink:title=" ">
<polygon fill="white" stroke="black" points="144.5,-224.5 144.5,-243.5 256.5,-243.5 256.5,-224.5 144.5,-224.5"/>
<text text-anchor="middle" x="200.5" y="-231.5" font-family="Helvetica,sans-Serif" font-size="10.00">odp/api/std_types.h</text>
</a>
</g>
</g>
<!-- Node1&#45;&gt;Node3 -->
<g id="edge2" class="edge">
<title>Node1&#45;&gt;Node3</title>
<path fill="none" stroke="midnightblue" d="M193.98,-336.23C201.55,-327.75 212.1,-314.13 216.5,-300 221.4,-284.24 215.94,-265.96 210.11,-252.81"/>
<polygon fill="midnightblue" stroke="midnightblue" points="213.09,-250.94 205.54,-243.5 206.8,-254.02 213.09,-250.94"/>
</g>
<!-- Node10 -->
<g id="node10" class="node">
<title>Node10</title>
<g id="a_node10"><a xlink:href="visibility__end_8h_source.html" target="_top" xlink:title=" ">
<polygon fill="white" stroke="black" points="338.5,-0.5 338.5,-19.5 450.5,-19.5 450.5,-0.5 338.5,-0.5"/>
<text text-anchor="middle" x="394.5" y="-7.5" font-family="Helvetica,sans-Serif" font-size="10.00">odp/visibility_end.h</text>
</a>
</g>
</g>
<!-- Node1&#45;&gt;Node10 -->
<g id="edge17" class="edge">
<title>Node1&#45;&gt;Node10</title>
<path fill="none" stroke="midnightblue" d="M209.11,-345.8C274.21,-346.67 451.5,-339.44 451.5,-235 451.5,-235 451.5,-235 451.5,-121 451.5,-84.3 426.18,-47.66 409.29,-27.3"/>
<polygon fill="midnightblue" stroke="midnightblue" points="411.85,-24.9 402.67,-19.62 406.55,-29.48 411.85,-24.9"/>
</g>
<!-- Node11 -->
<g id="node11" class="node">
<title>Node11</title>
<g id="a_node11"><a xlink:href="pool__types_8h.html" target="_top" xlink:title=" ">
<polygon fill="white" stroke="black" points="64,-280.5 64,-299.5 207,-299.5 207,-280.5 64,-280.5"/>
<text text-anchor="middle" x="135.5" y="-287.5" font-family="Helvetica,sans-Serif" font-size="10.00">odp/api/spec/pool_types.h</text>
</a>
</g>
</g>
<!-- Node1&#45;&gt;Node11 -->
<g id="edge13" class="edge">
<title>Node1&#45;&gt;Node11</title>
<path fill="none" stroke="midnightblue" d="M177.24,-336.08C170.04,-328.3 159.39,-316.8 150.65,-307.37"/>
<polygon fill="midnightblue" stroke="midnightblue" points="152.97,-304.71 143.6,-299.75 147.83,-309.47 152.97,-304.71"/>
</g>
<!-- Node4 -->
<g id="node4" class="node">
<title>Node4</title>
<g id="a_node4"><a xlink:title=" ">
<polygon fill="white" stroke="#bfbfbf" points="253.5,-168.5 253.5,-187.5 383.5,-187.5 383.5,-168.5 253.5,-168.5"/>
<text text-anchor="middle" x="318.5" y="-175.5" font-family="Helvetica,sans-Serif" font-size="10.00">odp/api/abi/std_types.h</text>
</a>
</g>
</g>
<!-- Node3&#45;&gt;Node4 -->
<g id="edge3" class="edge">
<title>Node3&#45;&gt;Node4</title>
<path fill="none" stroke="midnightblue" d="M219.2,-224.44C238.44,-215.64 268.65,-201.81 290.7,-191.72"/>
<polygon fill="midnightblue" stroke="midnightblue" points="292.25,-194.86 299.89,-187.52 289.34,-188.5 292.25,-194.86"/>
</g>
<!-- Node5 -->
<g id="node5" class="node">
<title>Node5</title>
<g id="a_node5"><a xlink:href="api_2spec_2std__types_8h.html" target="_top" xlink:title=" ">
<polygon fill="white" stroke="black" points="98,-168.5 98,-187.5 235,-187.5 235,-168.5 98,-168.5"/>
<text text-anchor="middle" x="166.5" y="-175.5" font-family="Helvetica,sans-Serif" font-size="10.00">odp/api/spec/std_types.h</text>
</a>
</g>
</g>
<!-- Node3&#45;&gt;Node5 -->
<g id="edge4" class="edge">
<title>Node3&#45;&gt;Node5</title>
<path fill="none" stroke="midnightblue" d="M194.89,-224.08C190.13,-216.53 183.18,-205.49 177.35,-196.23"/>
<polygon fill="midnightblue" stroke="midnightblue" points="180.3,-194.35 172.01,-187.75 174.38,-198.08 180.3,-194.35"/>
</g>
<!-- Node5&#45;&gt;Node2 -->
<g id="edge5" class="edge">
<title>Node5&#45;&gt;Node2</title>
<path fill="none" stroke="midnightblue" d="M152.2,-168.19C140.01,-160.07 122.73,-147.02 111.5,-132 87.47,-99.86 72.37,-54.7 65.29,-29.63"/>
<polygon fill="midnightblue" stroke="midnightblue" points="68.57,-28.39 62.59,-19.65 61.82,-30.21 68.57,-28.39"/>
</g>
<!-- Node6 -->
<g id="node6" class="node">
<title>Node6</title>
<g id="a_node6"><a xlink:title=" ">
<polygon fill="white" stroke="#bfbfbf" points="228,-112.5 228,-131.5 281,-131.5 281,-112.5 228,-112.5"/>
<text text-anchor="middle" x="254.5" y="-119.5" font-family="Helvetica,sans-Serif" font-size="10.00">stdint.h</text>
</a>
</g>
</g>
<!-- Node5&#45;&gt;Node6 -->
<g id="edge6" class="edge">
<title>Node5&#45;&gt;Node6</title>
<path fill="none" stroke="midnightblue" d="M180.64,-168.32C194.37,-159.9 215.44,-146.97 231.56,-137.07"/>
<polygon fill="midnightblue" stroke="midnightblue" points="233.7,-139.87 240.4,-131.65 230.04,-133.9 233.7,-139.87"/>
</g>
<!-- Node7 -->
<g id="node7" class="node">
<title>Node7</title>
<g id="a_node7"><a xlink:href="api_2align_8h.html" target="_top" xlink:title=" ">
<polygon fill="white" stroke="black" points="121,-112.5 121,-131.5 210,-131.5 210,-112.5 121,-112.5"/>
<text text-anchor="middle" x="165.5" y="-119.5" font-family="Helvetica,sans-Serif" font-size="10.00">odp/api/align.h</text>
</a>
</g>
</g>
<!-- Node5&#45;&gt;Node7 -->
<g id="edge7" class="edge">
<title>Node5&#45;&gt;Node7</title>
<path fill="none" stroke="midnightblue" d="M166.33,-168.08C166.2,-161.01 166.02,-150.86 165.85,-141.99"/>
<polygon fill="midnightblue" stroke="midnightblue" points="169.35,-141.68 165.66,-131.75 162.35,-141.81 169.35,-141.68"/>
</g>
<!-- Node5&#45;&gt;Node10 -->
<g id="edge12" class="edge">
<title>Node5&#45;&gt;Node10</title>
<path fill="none" stroke="midnightblue" d="M199.76,-168.43C225.56,-160.98 261.68,-148.73 290.5,-132 323.77,-112.69 331.77,-105.47 356.5,-76 368.69,-61.48 379.26,-42.55 386.14,-28.87"/>
<polygon fill="midnightblue" stroke="midnightblue" points="389.43,-30.11 390.64,-19.59 383.13,-27.05 389.43,-30.11"/>
</g>
<!-- Node8 -->
<g id="node8" class="node">
<title>Node8</title>
<g id="a_node8"><a xlink:title=" ">
<polygon fill="white" stroke="#bfbfbf" points="240,-56.5 240,-75.5 347,-75.5 347,-56.5 240,-56.5"/>
<text text-anchor="middle" x="293.5" y="-63.5" font-family="Helvetica,sans-Serif" font-size="10.00">odp/api/abi/align.h</text>
</a>
</g>
</g>
<!-- Node7&#45;&gt;Node8 -->
<g id="edge8" class="edge">
<title>Node7&#45;&gt;Node8</title>
<path fill="none" stroke="midnightblue" d="M185.78,-112.44C206.85,-103.56 240.02,-89.56 263.99,-79.45"/>
<polygon fill="midnightblue" stroke="midnightblue" points="265.46,-82.63 273.31,-75.52 262.74,-76.18 265.46,-82.63"/>
</g>
<!-- Node9 -->
<g id="node9" class="node">
<title>Node9</title>
<g id="a_node9"><a xlink:href="api_2spec_2align_8h.html" target="_top" xlink:title=" ">
<polygon fill="white" stroke="black" points="107.5,-56.5 107.5,-75.5 221.5,-75.5 221.5,-56.5 107.5,-56.5"/>
<text text-anchor="middle" x="164.5" y="-63.5" font-family="Helvetica,sans-Serif" font-size="10.00">odp/api/spec/align.h</text>
</a>
</g>
</g>
<!-- Node7&#45;&gt;Node9 -->
<g id="edge9" class="edge">
<title>Node7&#45;&gt;Node9</title>
<path fill="none" stroke="midnightblue" d="M165.33,-112.08C165.2,-105.01 165.02,-94.86 164.85,-85.99"/>
<polygon fill="midnightblue" stroke="midnightblue" points="168.35,-85.68 164.66,-75.75 161.35,-85.81 168.35,-85.68"/>
</g>
<!-- Node9&#45;&gt;Node2 -->
<g id="edge10" class="edge">
<title>Node9&#45;&gt;Node2</title>
<path fill="none" stroke="midnightblue" d="M147.79,-56.32C131.19,-47.7 105.5,-34.36 86.28,-24.39"/>
<polygon fill="midnightblue" stroke="midnightblue" points="87.66,-21.16 77.17,-19.65 84.43,-27.37 87.66,-21.16"/>
</g>
<!-- Node9&#45;&gt;Node10 -->
<g id="edge11" class="edge">
<title>Node9&#45;&gt;Node10</title>
<path fill="none" stroke="midnightblue" d="M200.94,-56.44C240.9,-47.06 305.09,-31.99 348.48,-21.8"/>
<polygon fill="midnightblue" stroke="midnightblue" points="349.29,-25.21 358.23,-19.52 347.69,-18.39 349.29,-25.21"/>
</g>
<!-- Node11&#45;&gt;Node2 -->
<g id="edge14" class="edge">
<title>Node11&#45;&gt;Node2</title>
<path fill="none" stroke="midnightblue" d="M119.98,-280.35C93.28,-264.2 41.5,-226.73 41.5,-179 41.5,-179 41.5,-179 41.5,-121 41.5,-88.49 49.66,-51.35 55.28,-29.61"/>
<polygon fill="midnightblue" stroke="midnightblue" points="58.72,-30.32 57.94,-19.75 51.96,-28.5 58.72,-30.32"/>
</g>
<!-- Node11&#45;&gt;Node3 -->
<g id="edge15" class="edge">
<title>Node11&#45;&gt;Node3</title>
<path fill="none" stroke="midnightblue" d="M145.94,-280.32C155.65,-272.26 170.32,-260.08 182,-250.37"/>
<polygon fill="midnightblue" stroke="midnightblue" points="184.41,-252.92 189.87,-243.83 179.94,-247.53 184.41,-252.92"/>
</g>
<!-- Node11&#45;&gt;Node10 -->
<g id="edge16" class="edge">
<title>Node11&#45;&gt;Node10</title>
<path fill="none" stroke="midnightblue" d="M182.34,-280.48C261.57,-264.73 413.5,-228.11 413.5,-179 413.5,-179 413.5,-179 413.5,-121 413.5,-88.49 405.34,-51.35 399.72,-29.61"/>
<polygon fill="midnightblue" stroke="midnightblue" points="403.04,-28.5 397.06,-19.75 396.28,-30.32 403.04,-28.5"/>
</g>
</g>
</svg>
