<?xml version="1.0" encoding="UTF-8" standalone="no"?>
<!DOCTYPE svg PUBLIC "-//W3C//DTD SVG 1.1//EN"
 "http://www.w3.org/Graphics/SVG/1.1/DTD/svg11.dtd">
<!-- Generated by graphviz version 2.43.0 (0)
 -->
<!-- Title: debug.h Pages: 1 -->
<svg width="512pt" height="252pt"
 viewBox="0.00 0.00 512.00 252.00" xmlns="http://www.w3.org/2000/svg" xmlns:xlink="http://www.w3.org/1999/xlink">
<g id="graph0" class="graph" transform="scale(1 1) rotate(0) translate(4 248)">
<title>debug.h</title>
<polygon fill="white" stroke="transparent" points="-4,4 -4,-248 508,-248 508,4 -4,4"/>
<!-- Node1 -->
<g id="node1" class="node">
<title>Node1</title>
<g id="a_node1"><a xlink:title=" ">
<polygon fill="#bfbfbf" stroke="black" points="222,-224.5 222,-243.5 278,-243.5 278,-224.5 222,-224.5"/>
<text text-anchor="middle" x="250" y="-231.5" font-family="Helvetica,sans-Serif" font-size="10.00">debug.h</text>
</a>
</g>
</g>
<!-- Node2 -->
<g id="node2" class="node">
<title>Node2</title>
<g id="a_node2"><a xlink:href="arch_2arm32-linux_2odp_2api_2abi_2debug_8h_source.html" target="_top" xlink:title=" ">
<polygon fill="white" stroke="black" points="0,-168.5 0,-187.5 56,-187.5 56,-168.5 0,-168.5"/>
<text text-anchor="middle" x="28" y="-175.5" font-family="Helvetica,sans-Serif" font-size="10.00">debug.h</text>
</a>
</g>
</g>
<!-- Node1&#45;&gt;Node2 -->
<g id="edge1" class="edge">
<title>Node1&#45;&gt;Node2</title>
<path fill="none" stroke="midnightblue" d="M212.09,-223.78C167.87,-213.02 95.81,-195.5 56.24,-185.87"/>
<polygon fill="midnightblue" stroke="midnightblue" points="211.34,-227.2 221.88,-226.16 212.99,-220.4 211.34,-227.2"/>
</g>
<!-- Node3 -->
<g id="node3" class="node">
<title>Node3</title>
<g id="a_node3"><a xlink:href="arch_2arm64-linux_2odp_2api_2abi_2debug_8h_source.html" target="_top" xlink:title=" ">
<polygon fill="white" stroke="black" points="74,-168.5 74,-187.5 130,-187.5 130,-168.5 74,-168.5"/>
<text text-anchor="middle" x="102" y="-175.5" font-family="Helvetica,sans-Serif" font-size="10.00">debug.h</text>
</a>
</g>
</g>
<!-- Node1&#45;&gt;Node3 -->
<g id="edge2" class="edge">
<title>Node1&#45;&gt;Node3</title>
<path fill="none" stroke="midnightblue" d="M216.85,-220.91C189.03,-210.75 149.98,-196.51 125.34,-187.52"/>
<polygon fill="midnightblue" stroke="midnightblue" points="215.96,-224.3 226.55,-224.44 218.35,-217.73 215.96,-224.3"/>
</g>
<!-- Node4 -->
<g id="node4" class="node">
<title>Node4</title>
<g id="a_node4"><a xlink:href="arch_2default-linux_2odp_2api_2abi_2debug_8h_source.html" target="_top" xlink:title=" ">
<polygon fill="white" stroke="black" points="148,-168.5 148,-187.5 204,-187.5 204,-168.5 148,-168.5"/>
<text text-anchor="middle" x="176" y="-175.5" font-family="Helvetica,sans-Serif" font-size="10.00">debug.h</text>
</a>
</g>
</g>
<!-- Node1&#45;&gt;Node4 -->
<g id="edge3" class="edge">
<title>Node1&#45;&gt;Node4</title>
<path fill="none" stroke="midnightblue" d="M229.97,-218.38C216.59,-208.62 199.44,-196.11 188.11,-187.83"/>
<polygon fill="midnightblue" stroke="midnightblue" points="227.97,-221.26 238.11,-224.32 232.1,-215.6 227.97,-221.26"/>
</g>
<!-- Node5 -->
<g id="node5" class="node">
<title>Node5</title>
<g id="a_node5"><a xlink:href="arch_2mips64-linux_2odp_2api_2abi_2debug_8h_source.html" target="_top" xlink:title=" ">
<polygon fill="white" stroke="black" points="222,-168.5 222,-187.5 278,-187.5 278,-168.5 222,-168.5"/>
<text text-anchor="middle" x="250" y="-175.5" font-family="Helvetica,sans-Serif" font-size="10.00">debug.h</text>
</a>
</g>
</g>
<!-- Node1&#45;&gt;Node5 -->
<g id="edge4" class="edge">
<title>Node1&#45;&gt;Node5</title>
<path fill="none" stroke="midnightblue" d="M250,-213.8C250,-204.91 250,-194.78 250,-187.75"/>
<polygon fill="midnightblue" stroke="midnightblue" points="246.5,-214.08 250,-224.08 253.5,-214.08 246.5,-214.08"/>
</g>
<!-- Node6 -->
<g id="node6" class="node">
<title>Node6</title>
<g id="a_node6"><a xlink:href="arch_2power64-linux_2odp_2api_2abi_2debug_8h_source.html" target="_top" xlink:title=" ">
<polygon fill="white" stroke="black" points="296,-168.5 296,-187.5 352,-187.5 352,-168.5 296,-168.5"/>
<text text-anchor="middle" x="324" y="-175.5" font-family="Helvetica,sans-Serif" font-size="10.00">debug.h</text>
</a>
</g>
</g>
<!-- Node1&#45;&gt;Node6 -->
<g id="edge5" class="edge">
<title>Node1&#45;&gt;Node6</title>
<path fill="none" stroke="midnightblue" d="M270.03,-218.38C283.41,-208.62 300.56,-196.11 311.89,-187.83"/>
<polygon fill="midnightblue" stroke="midnightblue" points="267.9,-215.6 261.89,-224.32 272.03,-221.26 267.9,-215.6"/>
</g>
<!-- Node7 -->
<g id="node7" class="node">
<title>Node7</title>
<g id="a_node7"><a xlink:href="arch_2x86__32-linux_2odp_2api_2abi_2debug_8h_source.html" target="_top" xlink:title=" ">
<polygon fill="white" stroke="black" points="370,-168.5 370,-187.5 426,-187.5 426,-168.5 370,-168.5"/>
<text text-anchor="middle" x="398" y="-175.5" font-family="Helvetica,sans-Serif" font-size="10.00">debug.h</text>
</a>
</g>
</g>
<!-- Node1&#45;&gt;Node7 -->
<g id="edge6" class="edge">
<title>Node1&#45;&gt;Node7</title>
<path fill="none" stroke="midnightblue" d="M283.15,-220.91C310.97,-210.75 350.02,-196.51 374.66,-187.52"/>
<polygon fill="midnightblue" stroke="midnightblue" points="281.65,-217.73 273.45,-224.44 284.04,-224.3 281.65,-217.73"/>
</g>
<!-- Node8 -->
<g id="node8" class="node">
<title>Node8</title>
<g id="a_node8"><a xlink:href="arch_2x86__64-linux_2odp_2api_2abi_2debug_8h_source.html" target="_top" xlink:title=" ">
<polygon fill="white" stroke="black" points="444,-168.5 444,-187.5 500,-187.5 500,-168.5 444,-168.5"/>
<text text-anchor="middle" x="472" y="-175.5" font-family="Helvetica,sans-Serif" font-size="10.00">debug.h</text>
</a>
</g>
</g>
<!-- Node1&#45;&gt;Node8 -->
<g id="edge7" class="edge">
<title>Node1&#45;&gt;Node8</title>
<path fill="none" stroke="midnightblue" d="M287.91,-223.78C332.13,-213.02 404.19,-195.5 443.76,-185.87"/>
<polygon fill="midnightblue" stroke="midnightblue" points="287.01,-220.4 278.12,-226.16 288.66,-227.2 287.01,-220.4"/>
</g>
<!-- Node9 -->
<g id="node9" class="node">
<title>Node9</title>
<g id="a_node9"><a xlink:href="api_2debug_8h.html" target="_top" xlink:title=" ">
<polygon fill="white" stroke="black" points="444,-112.5 444,-131.5 500,-131.5 500,-112.5 444,-112.5"/>
<text text-anchor="middle" x="472" y="-119.5" font-family="Helvetica,sans-Serif" font-size="10.00">debug.h</text>
</a>
</g>
</g>
<!-- Node8&#45;&gt;Node9 -->
<g id="edge8" class="edge">
<title>Node8&#45;&gt;Node9</title>
<path fill="none" stroke="midnightblue" d="M472,-157.8C472,-148.91 472,-138.78 472,-131.75"/>
<polygon fill="midnightblue" stroke="midnightblue" points="468.5,-158.08 472,-168.08 475.5,-158.08 468.5,-158.08"/>
</g>
<!-- Node10 -->
<g id="node10" class="node">
<title>Node10</title>
<g id="a_node10"><a xlink:href="odp__api_8h.html" target="_top" xlink:title=" ">
<polygon fill="white" stroke="black" points="440,-56.5 440,-75.5 504,-75.5 504,-56.5 440,-56.5"/>
<text text-anchor="middle" x="472" y="-63.5" font-family="Helvetica,sans-Serif" font-size="10.00">odp_api.h</text>
</a>
</g>
</g>
<!-- Node9&#45;&gt;Node10 -->
<g id="edge9" class="edge">
<title>Node9&#45;&gt;Node10</title>
<path fill="none" stroke="midnightblue" d="M472,-101.8C472,-92.91 472,-82.78 472,-75.75"/>
<polygon fill="midnightblue" stroke="midnightblue" points="468.5,-102.08 472,-112.08 475.5,-102.08 468.5,-102.08"/>
</g>
<!-- Node11 -->
<g id="node11" class="node">
<title>Node11</title>
<g id="a_node11"><a xlink:href="odp_8h.html" target="_top" xlink:title=" ">
<polygon fill="white" stroke="black" points="450,-0.5 450,-19.5 494,-19.5 494,-0.5 450,-0.5"/>
<text text-anchor="middle" x="472" y="-7.5" font-family="Helvetica,sans-Serif" font-size="10.00">odp.h</text>
</a>
</g>
</g>
<!-- Node10&#45;&gt;Node11 -->
<g id="edge10" class="edge">
<title>Node10&#45;&gt;Node11</title>
<path fill="none" stroke="midnightblue" d="M472,-45.8C472,-36.91 472,-26.78 472,-19.75"/>
<polygon fill="midnightblue" stroke="midnightblue" points="468.5,-46.08 472,-56.08 475.5,-46.08 468.5,-46.08"/>
</g>
</g>
</svg>
