<?xml version="1.0" encoding="UTF-8" standalone="no"?>
<!DOCTYPE svg PUBLIC "-//W3C//DTD SVG 1.1//EN"
 "http://www.w3.org/Graphics/SVG/1.1/DTD/svg11.dtd">
<!-- Generated by graphviz version 2.43.0 (0)
 -->
<!-- Title: queue_types.h Pages: 1 -->
<svg width="631pt" height="1036pt"
 viewBox="0.00 0.00 631.11 1036.00" xmlns="http://www.w3.org/2000/svg" xmlns:xlink="http://www.w3.org/1999/xlink">
<g id="graph0" class="graph" transform="scale(1 1) rotate(0) translate(4 1032)">
<title>queue_types.h</title>
<polygon fill="white" stroke="transparent" points="-4,4 -4,-1032 627.11,-1032 627.11,4 -4,4"/>
<!-- Node1 -->
<g id="node1" class="node">
<title>Node1</title>
<g id="a_node1"><a xlink:title=" ">
<polygon fill="#bfbfbf" stroke="black" points="400.61,-1008.5 400.61,-1027.5 488.61,-1027.5 488.61,-1008.5 400.61,-1008.5"/>
<text text-anchor="middle" x="444.61" y="-1015.5" font-family="Helvetica,sans-Serif" font-size="10.00">queue_types.h</text>
</a>
</g>
</g>
<!-- Node2 -->
<g id="node2" class="node">
<title>Node2</title>
<g id="a_node2"><a xlink:href="api_2spec_2packet__io_8h.html" target="_top" xlink:title=" ">
<polygon fill="white" stroke="black" points="334.61,-392.5 334.61,-411.5 406.61,-411.5 406.61,-392.5 334.61,-392.5"/>
<text text-anchor="middle" x="370.61" y="-399.5" font-family="Helvetica,sans-Serif" font-size="10.00">packet_io.h</text>
</a>
</g>
</g>
<!-- Node1&#45;&gt;Node2 -->
<g id="edge1" class="edge">
<title>Node1&#45;&gt;Node2</title>
<path fill="none" stroke="midnightblue" d="M456.09,-999.6C468.83,-978.58 487.61,-941.69 487.61,-907 487.61,-907 487.61,-907 487.61,-513 487.61,-461.14 425.85,-426.57 392.07,-411.54"/>
<polygon fill="midnightblue" stroke="midnightblue" points="452.96,-998 450.59,-1008.33 458.88,-1001.73 452.96,-998"/>
</g>
<!-- Node12 -->
<g id="node12" class="node">
<title>Node12</title>
<g id="a_node12"><a xlink:href="api_2spec_2packet__types_8h.html" target="_top" xlink:title=" ">
<polygon fill="white" stroke="black" points="307.61,-952.5 307.61,-971.5 397.61,-971.5 397.61,-952.5 307.61,-952.5"/>
<text text-anchor="middle" x="352.61" y="-959.5" font-family="Helvetica,sans-Serif" font-size="10.00">packet_types.h</text>
</a>
</g>
</g>
<!-- Node1&#45;&gt;Node12 -->
<g id="edge16" class="edge">
<title>Node1&#45;&gt;Node12</title>
<path fill="none" stroke="midnightblue" d="M421.06,-1003.18C404.13,-993.24 381.83,-980.15 367.36,-971.65"/>
<polygon fill="midnightblue" stroke="midnightblue" points="419.43,-1006.28 429.83,-1008.32 422.98,-1000.24 419.43,-1006.28"/>
</g>
<!-- Node22 -->
<g id="node22" class="node">
<title>Node22</title>
<g id="a_node22"><a xlink:href="api_2spec_2queue_8h.html" target="_top" xlink:title=" ">
<polygon fill="white" stroke="black" points="357.61,-616.5 357.61,-635.5 413.61,-635.5 413.61,-616.5 357.61,-616.5"/>
<text text-anchor="middle" x="385.61" y="-623.5" font-family="Helvetica,sans-Serif" font-size="10.00">queue.h</text>
</a>
</g>
</g>
<!-- Node1&#45;&gt;Node22 -->
<g id="edge44" class="edge">
<title>Node1&#45;&gt;Node22</title>
<path fill="none" stroke="midnightblue" d="M439.39,-998.39C433.77,-976.65 425.61,-939.51 425.61,-907 425.61,-907 425.61,-907 425.61,-737 425.61,-697.17 402.16,-653.85 391.17,-635.73"/>
<polygon fill="midnightblue" stroke="midnightblue" points="436.07,-999.5 442.05,-1008.25 442.83,-997.68 436.07,-999.5"/>
</g>
<!-- Node26 -->
<g id="node26" class="node">
<title>Node26</title>
<g id="a_node26"><a xlink:href="api_2spec_2schedule_8h.html" target="_top" xlink:title=" ">
<polygon fill="white" stroke="black" points="516.11,-616.5 516.11,-635.5 585.11,-635.5 585.11,-616.5 516.11,-616.5"/>
<text text-anchor="middle" x="550.61" y="-623.5" font-family="Helvetica,sans-Serif" font-size="10.00">schedule.h</text>
</a>
</g>
</g>
<!-- Node1&#45;&gt;Node26 -->
<g id="edge45" class="edge">
<title>Node1&#45;&gt;Node26</title>
<path fill="none" stroke="midnightblue" d="M468.7,-1002.72C496.26,-984.36 537.61,-949.69 537.61,-907 537.61,-907 537.61,-907 537.61,-737 537.61,-698.92 545.39,-653.94 548.91,-635.52"/>
<polygon fill="midnightblue" stroke="midnightblue" points="466.5,-999.97 459.97,-1008.31 470.28,-1005.87 466.5,-999.97"/>
</g>
<!-- Node3 -->
<g id="node3" class="node">
<title>Node3</title>
<g id="a_node3"><a xlink:href="api_2packet__io_8h.html" target="_top" xlink:title=" ">
<polygon fill="white" stroke="black" points="334.61,-336.5 334.61,-355.5 406.61,-355.5 406.61,-336.5 334.61,-336.5"/>
<text text-anchor="middle" x="370.61" y="-343.5" font-family="Helvetica,sans-Serif" font-size="10.00">packet_io.h</text>
</a>
</g>
</g>
<!-- Node2&#45;&gt;Node3 -->
<g id="edge2" class="edge">
<title>Node2&#45;&gt;Node3</title>
<path fill="none" stroke="midnightblue" d="M370.61,-381.8C370.61,-372.91 370.61,-362.78 370.61,-355.75"/>
<polygon fill="midnightblue" stroke="midnightblue" points="367.11,-382.08 370.61,-392.08 374.11,-382.08 367.11,-382.08"/>
</g>
<!-- Node4 -->
<g id="node4" class="node">
<title>Node4</title>
<g id="a_node4"><a xlink:href="api_2spec_2classification_8h.html" target="_top" xlink:title=" ">
<polygon fill="white" stroke="black" points="272.11,-280.5 272.11,-299.5 361.11,-299.5 361.11,-280.5 272.11,-280.5"/>
<text text-anchor="middle" x="316.61" y="-287.5" font-family="Helvetica,sans-Serif" font-size="10.00">classification.h</text>
</a>
</g>
</g>
<!-- Node3&#45;&gt;Node4 -->
<g id="edge3" class="edge">
<title>Node3&#45;&gt;Node4</title>
<path fill="none" stroke="midnightblue" d="M354.61,-329C345.04,-319.43 333.25,-307.64 325.36,-299.75"/>
<polygon fill="midnightblue" stroke="midnightblue" points="352.15,-331.49 361.69,-336.08 357.1,-326.54 352.15,-331.49"/>
</g>
<!-- Node6 -->
<g id="node6" class="node">
<title>Node6</title>
<g id="a_node6"><a xlink:href="api_2spec_2ipsec_8h.html" target="_top" xlink:title=" ">
<polygon fill="white" stroke="black" points="235.11,-168.5 235.11,-187.5 286.11,-187.5 286.11,-168.5 235.11,-168.5"/>
<text text-anchor="middle" x="260.61" y="-175.5" font-family="Helvetica,sans-Serif" font-size="10.00">ipsec.h</text>
</a>
</g>
</g>
<!-- Node3&#45;&gt;Node6 -->
<g id="edge10" class="edge">
<title>Node3&#45;&gt;Node6</title>
<path fill="none" stroke="midnightblue" d="M324.41,-337.52C302.17,-331.37 277.4,-320.21 263.61,-300 239.45,-264.59 251.89,-208.78 257.94,-187.57"/>
<polygon fill="midnightblue" stroke="midnightblue" points="323.86,-340.99 334.41,-340.01 325.55,-334.2 323.86,-340.99"/>
</g>
<!-- Node8 -->
<g id="node8" class="node">
<title>Node8</title>
<g id="a_node8"><a xlink:href="odp__api_8h.html" target="_top" xlink:title=" ">
<polygon fill="white" stroke="black" points="228.61,-56.5 228.61,-75.5 292.61,-75.5 292.61,-56.5 228.61,-56.5"/>
<text text-anchor="middle" x="260.61" y="-63.5" font-family="Helvetica,sans-Serif" font-size="10.00">odp_api.h</text>
</a>
</g>
</g>
<!-- Node3&#45;&gt;Node8 -->
<g id="edge15" class="edge">
<title>Node3&#45;&gt;Node8</title>
<path fill="none" stroke="midnightblue" d="M416.63,-333.84C436.02,-327 457.35,-316.33 471.61,-300 491.41,-277.33 490.61,-265.1 490.61,-235 490.61,-235 490.61,-235 490.61,-177 490.61,-90.47 356.48,-71.95 293.08,-68.03"/>
<polygon fill="midnightblue" stroke="midnightblue" points="415.43,-330.55 407.01,-336.99 417.6,-337.2 415.43,-330.55"/>
</g>
<!-- Node10 -->
<g id="node10" class="node">
<title>Node10</title>
<g id="a_node10"><a xlink:href="api_2spec_2traffic__mngr_8h.html" target="_top" xlink:title=" ">
<polygon fill="white" stroke="black" points="378.61,-280.5 378.61,-299.5 462.61,-299.5 462.61,-280.5 378.61,-280.5"/>
<text text-anchor="middle" x="420.61" y="-287.5" font-family="Helvetica,sans-Serif" font-size="10.00">traffic_mngr.h</text>
</a>
</g>
</g>
<!-- Node3&#45;&gt;Node10 -->
<g id="edge11" class="edge">
<title>Node3&#45;&gt;Node10</title>
<path fill="none" stroke="midnightblue" d="M385.69,-328.72C394.5,-319.2 405.28,-307.56 412.51,-299.75"/>
<polygon fill="midnightblue" stroke="midnightblue" points="383.09,-326.37 378.87,-336.08 388.23,-331.12 383.09,-326.37"/>
</g>
<!-- Node5 -->
<g id="node5" class="node">
<title>Node5</title>
<g id="a_node5"><a xlink:href="api_2classification_8h.html" target="_top" xlink:title=" ">
<polygon fill="white" stroke="black" points="272.11,-224.5 272.11,-243.5 361.11,-243.5 361.11,-224.5 272.11,-224.5"/>
<text text-anchor="middle" x="316.61" y="-231.5" font-family="Helvetica,sans-Serif" font-size="10.00">classification.h</text>
</a>
</g>
</g>
<!-- Node4&#45;&gt;Node5 -->
<g id="edge4" class="edge">
<title>Node4&#45;&gt;Node5</title>
<path fill="none" stroke="midnightblue" d="M316.61,-269.8C316.61,-260.91 316.61,-250.78 316.61,-243.75"/>
<polygon fill="midnightblue" stroke="midnightblue" points="313.11,-270.08 316.61,-280.08 320.11,-270.08 313.11,-270.08"/>
</g>
<!-- Node5&#45;&gt;Node6 -->
<g id="edge5" class="edge">
<title>Node5&#45;&gt;Node6</title>
<path fill="none" stroke="midnightblue" d="M300.28,-217.25C290.35,-207.67 278.02,-195.79 269.77,-187.83"/>
<polygon fill="midnightblue" stroke="midnightblue" points="297.99,-219.9 307.61,-224.32 302.84,-214.86 297.99,-219.9"/>
</g>
<!-- Node5&#45;&gt;Node8 -->
<g id="edge9" class="edge">
<title>Node5&#45;&gt;Node8</title>
<path fill="none" stroke="midnightblue" d="M316.15,-214.31C314.94,-189.83 310.65,-146 295.61,-112 289.36,-97.88 277.73,-84.26 269.6,-75.77"/>
<polygon fill="midnightblue" stroke="midnightblue" points="312.66,-214.51 316.53,-224.38 319.65,-214.25 312.66,-214.51"/>
</g>
<!-- Node7 -->
<g id="node7" class="node">
<title>Node7</title>
<g id="a_node7"><a xlink:href="api_2ipsec_8h.html" target="_top" xlink:title=" ">
<polygon fill="white" stroke="black" points="235.11,-112.5 235.11,-131.5 286.11,-131.5 286.11,-112.5 235.11,-112.5"/>
<text text-anchor="middle" x="260.61" y="-119.5" font-family="Helvetica,sans-Serif" font-size="10.00">ipsec.h</text>
</a>
</g>
</g>
<!-- Node6&#45;&gt;Node7 -->
<g id="edge6" class="edge">
<title>Node6&#45;&gt;Node7</title>
<path fill="none" stroke="midnightblue" d="M260.61,-157.8C260.61,-148.91 260.61,-138.78 260.61,-131.75"/>
<polygon fill="midnightblue" stroke="midnightblue" points="257.11,-158.08 260.61,-168.08 264.11,-158.08 257.11,-158.08"/>
</g>
<!-- Node7&#45;&gt;Node8 -->
<g id="edge7" class="edge">
<title>Node7&#45;&gt;Node8</title>
<path fill="none" stroke="midnightblue" d="M260.61,-101.8C260.61,-92.91 260.61,-82.78 260.61,-75.75"/>
<polygon fill="midnightblue" stroke="midnightblue" points="257.11,-102.08 260.61,-112.08 264.11,-102.08 257.11,-102.08"/>
</g>
<!-- Node9 -->
<g id="node9" class="node">
<title>Node9</title>
<g id="a_node9"><a xlink:href="odp_8h.html" target="_top" xlink:title=" ">
<polygon fill="white" stroke="black" points="238.61,-0.5 238.61,-19.5 282.61,-19.5 282.61,-0.5 238.61,-0.5"/>
<text text-anchor="middle" x="260.61" y="-7.5" font-family="Helvetica,sans-Serif" font-size="10.00">odp.h</text>
</a>
</g>
</g>
<!-- Node8&#45;&gt;Node9 -->
<g id="edge8" class="edge">
<title>Node8&#45;&gt;Node9</title>
<path fill="none" stroke="midnightblue" d="M260.61,-45.8C260.61,-36.91 260.61,-26.78 260.61,-19.75"/>
<polygon fill="midnightblue" stroke="midnightblue" points="257.11,-46.08 260.61,-56.08 264.11,-46.08 257.11,-46.08"/>
</g>
<!-- Node11 -->
<g id="node11" class="node">
<title>Node11</title>
<g id="a_node11"><a xlink:href="api_2traffic__mngr_8h.html" target="_top" xlink:title=" ">
<polygon fill="white" stroke="black" points="378.61,-224.5 378.61,-243.5 462.61,-243.5 462.61,-224.5 378.61,-224.5"/>
<text text-anchor="middle" x="420.61" y="-231.5" font-family="Helvetica,sans-Serif" font-size="10.00">traffic_mngr.h</text>
</a>
</g>
</g>
<!-- Node10&#45;&gt;Node11 -->
<g id="edge12" class="edge">
<title>Node10&#45;&gt;Node11</title>
<path fill="none" stroke="midnightblue" d="M420.61,-269.8C420.61,-260.91 420.61,-250.78 420.61,-243.75"/>
<polygon fill="midnightblue" stroke="midnightblue" points="417.11,-270.08 420.61,-280.08 424.11,-270.08 417.11,-270.08"/>
</g>
<!-- Node11&#45;&gt;Node6 -->
<g id="edge13" class="edge">
<title>Node11&#45;&gt;Node6</title>
<path fill="none" stroke="midnightblue" d="M385.56,-221.17C355.44,-211 312.71,-196.59 285.84,-187.52"/>
<polygon fill="midnightblue" stroke="midnightblue" points="384.66,-224.56 395.26,-224.44 386.9,-217.93 384.66,-224.56"/>
</g>
<!-- Node11&#45;&gt;Node8 -->
<g id="edge14" class="edge">
<title>Node11&#45;&gt;Node8</title>
<path fill="none" stroke="midnightblue" d="M407.22,-216.7C387.41,-192.89 348.7,-147.54 312.61,-112 299,-98.6 282.09,-84.37 271.32,-75.58"/>
<polygon fill="midnightblue" stroke="midnightblue" points="404.56,-218.97 413.63,-224.45 409.95,-214.51 404.56,-218.97"/>
</g>
<!-- Node13 -->
<g id="node13" class="node">
<title>Node13</title>
<g id="a_node13"><a xlink:href="api_2packet__types_8h.html" target="_top" xlink:title=" ">
<polygon fill="white" stroke="black" points="259.61,-896.5 259.61,-915.5 349.61,-915.5 349.61,-896.5 259.61,-896.5"/>
<text text-anchor="middle" x="304.61" y="-903.5" font-family="Helvetica,sans-Serif" font-size="10.00">packet_types.h</text>
</a>
</g>
</g>
<!-- Node12&#45;&gt;Node13 -->
<g id="edge17" class="edge">
<title>Node12&#45;&gt;Node13</title>
<path fill="none" stroke="midnightblue" d="M337.88,-944.43C329.47,-934.97 319.26,-923.48 312.39,-915.75"/>
<polygon fill="midnightblue" stroke="midnightblue" points="335.42,-946.93 344.68,-952.08 340.66,-942.28 335.42,-946.93"/>
</g>
<!-- Node14 -->
<g id="node14" class="node">
<title>Node14</title>
<g id="a_node14"><a xlink:href="api_2spec_2packet_8h.html" target="_top" xlink:title=" ">
<polygon fill="white" stroke="black" points="250.61,-840.5 250.61,-859.5 308.61,-859.5 308.61,-840.5 250.61,-840.5"/>
<text text-anchor="middle" x="279.61" y="-847.5" font-family="Helvetica,sans-Serif" font-size="10.00">packet.h</text>
</a>
</g>
</g>
<!-- Node13&#45;&gt;Node14 -->
<g id="edge18" class="edge">
<title>Node13&#45;&gt;Node14</title>
<path fill="none" stroke="midnightblue" d="M296.27,-886.98C292.03,-877.82 287.06,-867.09 283.66,-859.75"/>
<polygon fill="midnightblue" stroke="midnightblue" points="293.1,-888.48 300.48,-896.08 299.46,-885.54 293.1,-888.48"/>
</g>
<!-- Node15 -->
<g id="node15" class="node">
<title>Node15</title>
<g id="a_node15"><a xlink:href="api_2packet_8h.html" target="_top" xlink:title=" ">
<polygon fill="white" stroke="black" points="153.61,-784.5 153.61,-803.5 211.61,-803.5 211.61,-784.5 153.61,-784.5"/>
<text text-anchor="middle" x="182.61" y="-791.5" font-family="Helvetica,sans-Serif" font-size="10.00">packet.h</text>
</a>
</g>
</g>
<!-- Node14&#45;&gt;Node15 -->
<g id="edge19" class="edge">
<title>Node14&#45;&gt;Node15</title>
<path fill="none" stroke="midnightblue" d="M255.28,-835.45C237.37,-825.48 213.56,-812.23 198.16,-803.65"/>
<polygon fill="midnightblue" stroke="midnightblue" points="253.59,-838.52 264.03,-840.32 256.99,-832.4 253.59,-838.52"/>
</g>
<!-- Node15&#45;&gt;Node2 -->
<g id="edge42" class="edge">
<title>Node15&#45;&gt;Node2</title>
<path fill="none" stroke="midnightblue" d="M204.82,-778.35C215.21,-770.47 226.95,-759.93 234.61,-748 250.88,-722.68 253.61,-713.1 253.61,-683 253.61,-683 253.61,-683 253.61,-569 253.61,-509.36 273.97,-494.26 311.61,-448 324.05,-432.71 342.7,-419.62 355.68,-411.57"/>
<polygon fill="midnightblue" stroke="midnightblue" points="202.6,-775.63 196.53,-784.31 206.69,-781.32 202.6,-775.63"/>
</g>
<!-- Node15&#45;&gt;Node8 -->
<g id="edge43" class="edge">
<title>Node15&#45;&gt;Node8</title>
<path fill="none" stroke="midnightblue" d="M143.07,-792.53C106.31,-789.94 52.45,-780.35 19.61,-748 -1.83,-726.88 0.61,-713.1 0.61,-683 0.61,-683 0.61,-683 0.61,-177 0.61,-79.1 158.91,-67.01 228.47,-66.42"/>
<polygon fill="midnightblue" stroke="midnightblue" points="143.23,-796.04 153.41,-793.1 143.62,-789.05 143.23,-796.04"/>
</g>
<!-- Node16 -->
<g id="node16" class="node">
<title>Node16</title>
<g id="a_node16"><a xlink:href="api_2spec_2comp_8h.html" target="_top" xlink:title=" ">
<polygon fill="white" stroke="black" points="29.11,-728.5 29.11,-747.5 82.11,-747.5 82.11,-728.5 29.11,-728.5"/>
<text text-anchor="middle" x="55.61" y="-735.5" font-family="Helvetica,sans-Serif" font-size="10.00">comp.h</text>
</a>
</g>
</g>
<!-- Node15&#45;&gt;Node16 -->
<g id="edge20" class="edge">
<title>Node15&#45;&gt;Node16</title>
<path fill="none" stroke="midnightblue" d="M153.22,-780.5C129.41,-770.38 96.5,-756.39 75.64,-747.52"/>
<polygon fill="midnightblue" stroke="midnightblue" points="151.91,-783.75 162.49,-784.44 154.65,-777.31 151.91,-783.75"/>
</g>
<!-- Node18 -->
<g id="node18" class="node">
<title>Node18</title>
<g id="a_node18"><a xlink:href="api_2spec_2crypto_8h.html" target="_top" xlink:title=" ">
<polygon fill="white" stroke="black" points="83.61,-672.5 83.61,-691.5 139.61,-691.5 139.61,-672.5 83.61,-672.5"/>
<text text-anchor="middle" x="111.61" y="-679.5" font-family="Helvetica,sans-Serif" font-size="10.00">crypto.h</text>
</a>
</g>
</g>
<!-- Node15&#45;&gt;Node18 -->
<g id="edge23" class="edge">
<title>Node15&#45;&gt;Node18</title>
<path fill="none" stroke="midnightblue" d="M160.4,-778.35C150.01,-770.47 138.27,-759.93 130.61,-748 119.05,-730 114.32,-704.74 112.56,-691.64"/>
<polygon fill="midnightblue" stroke="midnightblue" points="158.53,-781.32 168.69,-784.31 162.62,-775.63 158.53,-781.32"/>
</g>
<!-- Node20 -->
<g id="node20" class="node">
<title>Node20</title>
<g id="a_node20"><a xlink:href="api_2spec_2event_8h.html" target="_top" xlink:title=" ">
<polygon fill="white" stroke="black" points="313.11,-728.5 313.11,-747.5 366.11,-747.5 366.11,-728.5 313.11,-728.5"/>
<text text-anchor="middle" x="339.61" y="-735.5" font-family="Helvetica,sans-Serif" font-size="10.00">event.h</text>
</a>
</g>
</g>
<!-- Node15&#45;&gt;Node20 -->
<g id="edge27" class="edge">
<title>Node15&#45;&gt;Node20</title>
<path fill="none" stroke="midnightblue" d="M217,-781.17C246.56,-771 288.48,-756.59 314.85,-747.52"/>
<polygon fill="midnightblue" stroke="midnightblue" points="215.81,-777.88 207.49,-784.44 218.08,-784.5 215.81,-777.88"/>
</g>
<!-- Node28 -->
<g id="node28" class="node">
<title>Node28</title>
<g id="a_node28"><a xlink:href="api_2spec_2packet__flags_8h.html" target="_top" xlink:title=" ">
<polygon fill="white" stroke="black" points="139.61,-728.5 139.61,-747.5 225.61,-747.5 225.61,-728.5 139.61,-728.5"/>
<text text-anchor="middle" x="182.61" y="-735.5" font-family="Helvetica,sans-Serif" font-size="10.00">packet_flags.h</text>
</a>
</g>
</g>
<!-- Node15&#45;&gt;Node28 -->
<g id="edge39" class="edge">
<title>Node15&#45;&gt;Node28</title>
<path fill="none" stroke="midnightblue" d="M182.61,-773.8C182.61,-764.91 182.61,-754.78 182.61,-747.75"/>
<polygon fill="midnightblue" stroke="midnightblue" points="179.11,-774.08 182.61,-784.08 186.11,-774.08 179.11,-774.08"/>
</g>
<!-- Node17 -->
<g id="node17" class="node">
<title>Node17</title>
<g id="a_node17"><a xlink:href="api_2comp_8h.html" target="_top" xlink:title=" ">
<polygon fill="white" stroke="black" points="29.11,-504.5 29.11,-523.5 82.11,-523.5 82.11,-504.5 29.11,-504.5"/>
<text text-anchor="middle" x="55.61" y="-511.5" font-family="Helvetica,sans-Serif" font-size="10.00">comp.h</text>
</a>
</g>
</g>
<!-- Node16&#45;&gt;Node17 -->
<g id="edge21" class="edge">
<title>Node16&#45;&gt;Node17</title>
<path fill="none" stroke="midnightblue" d="M55.61,-718.3C55.61,-672.64 55.61,-556.85 55.61,-523.88"/>
<polygon fill="midnightblue" stroke="midnightblue" points="52.11,-718.3 55.61,-728.3 59.11,-718.3 52.11,-718.3"/>
</g>
<!-- Node17&#45;&gt;Node8 -->
<g id="edge22" class="edge">
<title>Node17&#45;&gt;Node8</title>
<path fill="none" stroke="midnightblue" d="M55.61,-494.25C55.61,-472.36 55.61,-435.05 55.61,-403 55.61,-403 55.61,-403 55.61,-177 55.61,-99.45 170.92,-76.35 228.58,-69.65"/>
<polygon fill="midnightblue" stroke="midnightblue" points="52.11,-494.44 55.61,-504.44 59.11,-494.44 52.11,-494.44"/>
</g>
<!-- Node19 -->
<g id="node19" class="node">
<title>Node19</title>
<g id="a_node19"><a xlink:href="api_2crypto_8h.html" target="_top" xlink:title=" ">
<polygon fill="white" stroke="black" points="83.61,-224.5 83.61,-243.5 139.61,-243.5 139.61,-224.5 83.61,-224.5"/>
<text text-anchor="middle" x="111.61" y="-231.5" font-family="Helvetica,sans-Serif" font-size="10.00">crypto.h</text>
</a>
</g>
</g>
<!-- Node18&#45;&gt;Node19 -->
<g id="edge24" class="edge">
<title>Node18&#45;&gt;Node19</title>
<path fill="none" stroke="midnightblue" d="M111.34,-662.25C111.04,-640.36 110.61,-603.05 110.61,-571 110.61,-571 110.61,-571 110.61,-345 110.61,-307.19 111.21,-262.06 111.48,-243.56"/>
<polygon fill="midnightblue" stroke="midnightblue" points="107.84,-662.49 111.48,-672.44 114.84,-662.39 107.84,-662.49"/>
</g>
<!-- Node19&#45;&gt;Node6 -->
<g id="edge25" class="edge">
<title>Node19&#45;&gt;Node6</title>
<path fill="none" stroke="midnightblue" d="M144.98,-220.91C172.99,-210.75 212.31,-196.51 237.11,-187.52"/>
<polygon fill="midnightblue" stroke="midnightblue" points="143.43,-217.75 135.22,-224.44 145.81,-224.33 143.43,-217.75"/>
</g>
<!-- Node19&#45;&gt;Node8 -->
<g id="edge26" class="edge">
<title>Node19&#45;&gt;Node8</title>
<path fill="none" stroke="midnightblue" d="M113.36,-214.44C116.74,-188.4 126.45,-140.96 153.61,-112 173.46,-90.83 204.84,-79.24 228.49,-73.15"/>
<polygon fill="midnightblue" stroke="midnightblue" points="109.87,-214.14 112.23,-224.47 116.83,-214.92 109.87,-214.14"/>
</g>
<!-- Node21 -->
<g id="node21" class="node">
<title>Node21</title>
<g id="a_node21"><a xlink:href="api_2event_8h.html" target="_top" xlink:title=" ">
<polygon fill="white" stroke="black" points="328.11,-672.5 328.11,-691.5 381.11,-691.5 381.11,-672.5 328.11,-672.5"/>
<text text-anchor="middle" x="354.61" y="-679.5" font-family="Helvetica,sans-Serif" font-size="10.00">event.h</text>
</a>
</g>
</g>
<!-- Node20&#45;&gt;Node21 -->
<g id="edge28" class="edge">
<title>Node20&#45;&gt;Node21</title>
<path fill="none" stroke="midnightblue" d="M344.78,-718.4C347.29,-709.36 350.18,-698.94 352.18,-691.75"/>
<polygon fill="midnightblue" stroke="midnightblue" points="341.39,-717.51 342.09,-728.08 348.14,-719.38 341.39,-717.51"/>
</g>
<!-- Node21&#45;&gt;Node8 -->
<g id="edge38" class="edge">
<title>Node21&#45;&gt;Node8</title>
<path fill="none" stroke="midnightblue" d="M344.17,-663.51C310.3,-605.05 205.61,-410.18 205.61,-235 205.61,-235 205.61,-235 205.61,-177 205.61,-146.77 211.66,-138.81 225.61,-112 232.83,-98.13 244.47,-84.24 252.32,-75.64"/>
<polygon fill="midnightblue" stroke="midnightblue" points="341.23,-665.41 349.31,-672.26 347.26,-661.86 341.23,-665.41"/>
</g>
<!-- Node21&#45;&gt;Node22 -->
<g id="edge29" class="edge">
<title>Node21&#45;&gt;Node22</title>
<path fill="none" stroke="midnightblue" d="M364.79,-663.27C370.08,-654.05 376.33,-643.17 380.59,-635.75"/>
<polygon fill="midnightblue" stroke="midnightblue" points="361.67,-661.67 359.73,-672.08 367.74,-665.15 361.67,-661.67"/>
</g>
<!-- Node21&#45;&gt;Node26 -->
<g id="edge35" class="edge">
<title>Node21&#45;&gt;Node26</title>
<path fill="none" stroke="midnightblue" d="M391.33,-670.88C428.32,-660.69 484.75,-645.14 519.57,-635.55"/>
<polygon fill="midnightblue" stroke="midnightblue" points="390.16,-667.57 381.45,-673.6 392.02,-674.32 390.16,-667.57"/>
</g>
<!-- Node23 -->
<g id="node23" class="node">
<title>Node23</title>
<g id="a_node23"><a xlink:href="api_2queue_8h.html" target="_top" xlink:title=" ">
<polygon fill="white" stroke="black" points="357.61,-560.5 357.61,-579.5 413.61,-579.5 413.61,-560.5 357.61,-560.5"/>
<text text-anchor="middle" x="385.61" y="-567.5" font-family="Helvetica,sans-Serif" font-size="10.00">queue.h</text>
</a>
</g>
</g>
<!-- Node22&#45;&gt;Node23 -->
<g id="edge30" class="edge">
<title>Node22&#45;&gt;Node23</title>
<path fill="none" stroke="midnightblue" d="M385.61,-605.8C385.61,-596.91 385.61,-586.78 385.61,-579.75"/>
<polygon fill="midnightblue" stroke="midnightblue" points="382.11,-606.08 385.61,-616.08 389.11,-606.08 382.11,-606.08"/>
</g>
<!-- Node23&#45;&gt;Node8 -->
<g id="edge34" class="edge">
<title>Node23&#45;&gt;Node8</title>
<path fill="none" stroke="midnightblue" d="M404.42,-553.81C413.38,-545.75 423.64,-535.21 430.61,-524 502.21,-408.81 528.61,-370.63 528.61,-235 528.61,-235 528.61,-235 528.61,-177 528.61,-76.03 363.81,-65.78 292.67,-66.05"/>
<polygon fill="midnightblue" stroke="midnightblue" points="401.98,-551.29 396.68,-560.47 406.54,-556.6 401.98,-551.29"/>
</g>
<!-- Node24 -->
<g id="node24" class="node">
<title>Node24</title>
<g id="a_node24"><a xlink:href="spec_2packet__io__stats_8h.html" target="_top" xlink:title=" ">
<polygon fill="white" stroke="black" points="320.11,-504.5 320.11,-523.5 421.11,-523.5 421.11,-504.5 320.11,-504.5"/>
<text text-anchor="middle" x="370.61" y="-511.5" font-family="Helvetica,sans-Serif" font-size="10.00">packet_io_stats.h</text>
</a>
</g>
</g>
<!-- Node23&#45;&gt;Node24 -->
<g id="edge31" class="edge">
<title>Node23&#45;&gt;Node24</title>
<path fill="none" stroke="midnightblue" d="M380.44,-550.4C377.93,-541.36 375.04,-530.94 373.04,-523.75"/>
<polygon fill="midnightblue" stroke="midnightblue" points="377.08,-551.38 383.13,-560.08 383.83,-549.51 377.08,-551.38"/>
</g>
<!-- Node25 -->
<g id="node25" class="node">
<title>Node25</title>
<g id="a_node25"><a xlink:href="packet__io__stats_8h.html" target="_top" xlink:title=" ">
<polygon fill="white" stroke="black" points="320.11,-448.5 320.11,-467.5 421.11,-467.5 421.11,-448.5 320.11,-448.5"/>
<text text-anchor="middle" x="370.61" y="-455.5" font-family="Helvetica,sans-Serif" font-size="10.00">packet_io_stats.h</text>
</a>
</g>
</g>
<!-- Node24&#45;&gt;Node25 -->
<g id="edge32" class="edge">
<title>Node24&#45;&gt;Node25</title>
<path fill="none" stroke="midnightblue" d="M370.61,-493.8C370.61,-484.91 370.61,-474.78 370.61,-467.75"/>
<polygon fill="midnightblue" stroke="midnightblue" points="367.11,-494.08 370.61,-504.08 374.11,-494.08 367.11,-494.08"/>
</g>
<!-- Node25&#45;&gt;Node2 -->
<g id="edge33" class="edge">
<title>Node25&#45;&gt;Node2</title>
<path fill="none" stroke="midnightblue" d="M370.61,-437.8C370.61,-428.91 370.61,-418.78 370.61,-411.75"/>
<polygon fill="midnightblue" stroke="midnightblue" points="367.11,-438.08 370.61,-448.08 374.11,-438.08 367.11,-438.08"/>
</g>
<!-- Node27 -->
<g id="node27" class="node">
<title>Node27</title>
<g id="a_node27"><a xlink:href="api_2schedule_8h.html" target="_top" xlink:title=" ">
<polygon fill="white" stroke="black" points="554.11,-392.5 554.11,-411.5 623.11,-411.5 623.11,-392.5 554.11,-392.5"/>
<text text-anchor="middle" x="588.61" y="-399.5" font-family="Helvetica,sans-Serif" font-size="10.00">schedule.h</text>
</a>
</g>
</g>
<!-- Node26&#45;&gt;Node27 -->
<g id="edge36" class="edge">
<title>Node26&#45;&gt;Node27</title>
<path fill="none" stroke="midnightblue" d="M553.81,-606.3C561.63,-560.64 581.45,-444.85 587.09,-411.88"/>
<polygon fill="midnightblue" stroke="midnightblue" points="550.34,-605.85 552.1,-616.3 557.24,-607.03 550.34,-605.85"/>
</g>
<!-- Node27&#45;&gt;Node8 -->
<g id="edge37" class="edge">
<title>Node27&#45;&gt;Node8</title>
<path fill="none" stroke="midnightblue" d="M585.6,-382.31C582.34,-360.47 577.61,-323.21 577.61,-291 577.61,-291 577.61,-291 577.61,-177 577.61,-144.19 569.36,-131 542.61,-112 502.9,-83.8 358,-72.38 292.79,-68.59"/>
<polygon fill="midnightblue" stroke="midnightblue" points="582.18,-383.13 587.17,-392.47 589.1,-382.05 582.18,-383.13"/>
</g>
<!-- Node29 -->
<g id="node29" class="node">
<title>Node29</title>
<g id="a_node29"><a xlink:href="api_2packet__flags_8h.html" target="_top" xlink:title=" ">
<polygon fill="white" stroke="black" points="138.61,-448.5 138.61,-467.5 224.61,-467.5 224.61,-448.5 138.61,-448.5"/>
<text text-anchor="middle" x="181.61" y="-455.5" font-family="Helvetica,sans-Serif" font-size="10.00">packet_flags.h</text>
</a>
</g>
</g>
<!-- Node28&#45;&gt;Node29 -->
<g id="edge40" class="edge">
<title>Node28&#45;&gt;Node29</title>
<path fill="none" stroke="midnightblue" d="M182.61,-718.25C182.61,-696.36 182.61,-659.05 182.61,-627 182.61,-627 182.61,-627 182.61,-569 182.61,-531.19 182.01,-486.06 181.74,-467.56"/>
<polygon fill="midnightblue" stroke="midnightblue" points="179.11,-718.44 182.61,-728.44 186.11,-718.44 179.11,-718.44"/>
</g>
<!-- Node29&#45;&gt;Node8 -->
<g id="edge41" class="edge">
<title>Node29&#45;&gt;Node8</title>
<path fill="none" stroke="midnightblue" d="M177.83,-438.64C173.68,-416.88 167.61,-379.46 167.61,-347 167.61,-347 167.61,-347 167.61,-177 167.61,-146.2 172.41,-136.07 191.61,-112 204.72,-95.56 225.53,-83.17 240.87,-75.59"/>
<polygon fill="midnightblue" stroke="midnightblue" points="174.4,-439.36 179.78,-448.49 181.27,-438 174.4,-439.36"/>
</g>
</g>
</svg>
