<?xml version="1.0" encoding="UTF-8" standalone="no"?>
<!DOCTYPE svg PUBLIC "-//W3C//DTD SVG 1.1//EN"
 "http://www.w3.org/Graphics/SVG/1.1/DTD/svg11.dtd">
<!-- Generated by graphviz version 2.43.0 (0)
 -->
<!-- Title: packet_flags.h Pages: 1 -->
<svg width="718pt" height="252pt"
 viewBox="0.00 0.00 718.00 252.00" xmlns="http://www.w3.org/2000/svg" xmlns:xlink="http://www.w3.org/1999/xlink">
<g id="graph0" class="graph" transform="scale(1 1) rotate(0) translate(4 248)">
<title>packet_flags.h</title>
<polygon fill="white" stroke="transparent" points="-4,4 -4,-248 714,-248 714,4 -4,4"/>
<!-- Node1 -->
<g id="node1" class="node">
<title>Node1</title>
<g id="a_node1"><a xlink:title=" ">
<polygon fill="#bfbfbf" stroke="black" points="312,-224.5 312,-243.5 398,-243.5 398,-224.5 312,-224.5"/>
<text text-anchor="middle" x="355" y="-231.5" font-family="Helvetica,sans-Serif" font-size="10.00">packet_flags.h</text>
</a>
</g>
</g>
<!-- Node2 -->
<g id="node2" class="node">
<title>Node2</title>
<g id="a_node2"><a xlink:href="arch_2arm32-linux_2odp_2api_2abi_2packet__flags_8h_source.html" target="_top" xlink:title=" ">
<polygon fill="white" stroke="black" points="0,-168.5 0,-187.5 86,-187.5 86,-168.5 0,-168.5"/>
<text text-anchor="middle" x="43" y="-175.5" font-family="Helvetica,sans-Serif" font-size="10.00">packet_flags.h</text>
</a>
</g>
</g>
<!-- Node1&#45;&gt;Node2 -->
<g id="edge1" class="edge">
<title>Node1&#45;&gt;Node2</title>
<path fill="none" stroke="midnightblue" d="M301.77,-223.79C240.9,-213.25 142.4,-196.2 86.11,-186.46"/>
<polygon fill="midnightblue" stroke="midnightblue" points="301.49,-227.29 311.95,-225.55 302.69,-220.39 301.49,-227.29"/>
</g>
<!-- Node3 -->
<g id="node3" class="node">
<title>Node3</title>
<g id="a_node3"><a xlink:href="arch_2arm64-linux_2odp_2api_2abi_2packet__flags_8h_source.html" target="_top" xlink:title=" ">
<polygon fill="white" stroke="black" points="104,-168.5 104,-187.5 190,-187.5 190,-168.5 104,-168.5"/>
<text text-anchor="middle" x="147" y="-175.5" font-family="Helvetica,sans-Serif" font-size="10.00">packet_flags.h</text>
</a>
</g>
</g>
<!-- Node1&#45;&gt;Node3 -->
<g id="edge2" class="edge">
<title>Node1&#45;&gt;Node3</title>
<path fill="none" stroke="midnightblue" d="M312.22,-221.89C272.94,-211.7 215.57,-196.8 179.8,-187.52"/>
<polygon fill="midnightblue" stroke="midnightblue" points="311.48,-225.32 322.04,-224.44 313.24,-218.54 311.48,-225.32"/>
</g>
<!-- Node4 -->
<g id="node4" class="node">
<title>Node4</title>
<g id="a_node4"><a xlink:href="arch_2default-linux_2odp_2api_2abi_2packet__flags_8h_source.html" target="_top" xlink:title=" ">
<polygon fill="white" stroke="black" points="208,-168.5 208,-187.5 294,-187.5 294,-168.5 208,-168.5"/>
<text text-anchor="middle" x="251" y="-175.5" font-family="Helvetica,sans-Serif" font-size="10.00">packet_flags.h</text>
</a>
</g>
</g>
<!-- Node1&#45;&gt;Node4 -->
<g id="edge3" class="edge">
<title>Node1&#45;&gt;Node4</title>
<path fill="none" stroke="midnightblue" d="M329.17,-219.59C309.94,-209.61 284.26,-196.27 267.67,-187.65"/>
<polygon fill="midnightblue" stroke="midnightblue" points="327.8,-222.82 338.29,-224.32 331.03,-216.61 327.8,-222.82"/>
</g>
<!-- Node5 -->
<g id="node5" class="node">
<title>Node5</title>
<g id="a_node5"><a xlink:href="arch_2mips64-linux_2odp_2api_2abi_2packet__flags_8h_source.html" target="_top" xlink:title=" ">
<polygon fill="white" stroke="black" points="312,-168.5 312,-187.5 398,-187.5 398,-168.5 312,-168.5"/>
<text text-anchor="middle" x="355" y="-175.5" font-family="Helvetica,sans-Serif" font-size="10.00">packet_flags.h</text>
</a>
</g>
</g>
<!-- Node1&#45;&gt;Node5 -->
<g id="edge4" class="edge">
<title>Node1&#45;&gt;Node5</title>
<path fill="none" stroke="midnightblue" d="M355,-213.8C355,-204.91 355,-194.78 355,-187.75"/>
<polygon fill="midnightblue" stroke="midnightblue" points="351.5,-214.08 355,-224.08 358.5,-214.08 351.5,-214.08"/>
</g>
<!-- Node6 -->
<g id="node6" class="node">
<title>Node6</title>
<g id="a_node6"><a xlink:href="arch_2power64-linux_2odp_2api_2abi_2packet__flags_8h_source.html" target="_top" xlink:title=" ">
<polygon fill="white" stroke="black" points="416,-168.5 416,-187.5 502,-187.5 502,-168.5 416,-168.5"/>
<text text-anchor="middle" x="459" y="-175.5" font-family="Helvetica,sans-Serif" font-size="10.00">packet_flags.h</text>
</a>
</g>
</g>
<!-- Node1&#45;&gt;Node6 -->
<g id="edge5" class="edge">
<title>Node1&#45;&gt;Node6</title>
<path fill="none" stroke="midnightblue" d="M380.83,-219.59C400.06,-209.61 425.74,-196.27 442.33,-187.65"/>
<polygon fill="midnightblue" stroke="midnightblue" points="378.97,-216.61 371.71,-224.32 382.2,-222.82 378.97,-216.61"/>
</g>
<!-- Node7 -->
<g id="node7" class="node">
<title>Node7</title>
<g id="a_node7"><a xlink:href="arch_2x86__32-linux_2odp_2api_2abi_2packet__flags_8h_source.html" target="_top" xlink:title=" ">
<polygon fill="white" stroke="black" points="520,-168.5 520,-187.5 606,-187.5 606,-168.5 520,-168.5"/>
<text text-anchor="middle" x="563" y="-175.5" font-family="Helvetica,sans-Serif" font-size="10.00">packet_flags.h</text>
</a>
</g>
</g>
<!-- Node1&#45;&gt;Node7 -->
<g id="edge6" class="edge">
<title>Node1&#45;&gt;Node7</title>
<path fill="none" stroke="midnightblue" d="M397.78,-221.89C437.06,-211.7 494.43,-196.8 530.2,-187.52"/>
<polygon fill="midnightblue" stroke="midnightblue" points="396.76,-218.54 387.96,-224.44 398.52,-225.32 396.76,-218.54"/>
</g>
<!-- Node8 -->
<g id="node8" class="node">
<title>Node8</title>
<g id="a_node8"><a xlink:href="arch_2x86__64-linux_2odp_2api_2abi_2packet__flags_8h_source.html" target="_top" xlink:title=" ">
<polygon fill="white" stroke="black" points="624,-168.5 624,-187.5 710,-187.5 710,-168.5 624,-168.5"/>
<text text-anchor="middle" x="667" y="-175.5" font-family="Helvetica,sans-Serif" font-size="10.00">packet_flags.h</text>
</a>
</g>
</g>
<!-- Node1&#45;&gt;Node8 -->
<g id="edge7" class="edge">
<title>Node1&#45;&gt;Node8</title>
<path fill="none" stroke="midnightblue" d="M408.23,-223.79C469.1,-213.25 567.6,-196.2 623.89,-186.46"/>
<polygon fill="midnightblue" stroke="midnightblue" points="407.31,-220.39 398.05,-225.55 408.51,-227.29 407.31,-220.39"/>
</g>
<!-- Node9 -->
<g id="node9" class="node">
<title>Node9</title>
<g id="a_node9"><a xlink:href="api_2packet__flags_8h.html" target="_top" xlink:title=" ">
<polygon fill="white" stroke="black" points="624,-112.5 624,-131.5 710,-131.5 710,-112.5 624,-112.5"/>
<text text-anchor="middle" x="667" y="-119.5" font-family="Helvetica,sans-Serif" font-size="10.00">packet_flags.h</text>
</a>
</g>
</g>
<!-- Node8&#45;&gt;Node9 -->
<g id="edge8" class="edge">
<title>Node8&#45;&gt;Node9</title>
<path fill="none" stroke="midnightblue" d="M667,-157.8C667,-148.91 667,-138.78 667,-131.75"/>
<polygon fill="midnightblue" stroke="midnightblue" points="663.5,-158.08 667,-168.08 670.5,-158.08 663.5,-158.08"/>
</g>
<!-- Node10 -->
<g id="node10" class="node">
<title>Node10</title>
<g id="a_node10"><a xlink:href="odp__api_8h.html" target="_top" xlink:title=" ">
<polygon fill="white" stroke="black" points="635,-56.5 635,-75.5 699,-75.5 699,-56.5 635,-56.5"/>
<text text-anchor="middle" x="667" y="-63.5" font-family="Helvetica,sans-Serif" font-size="10.00">odp_api.h</text>
</a>
</g>
</g>
<!-- Node9&#45;&gt;Node10 -->
<g id="edge9" class="edge">
<title>Node9&#45;&gt;Node10</title>
<path fill="none" stroke="midnightblue" d="M667,-101.8C667,-92.91 667,-82.78 667,-75.75"/>
<polygon fill="midnightblue" stroke="midnightblue" points="663.5,-102.08 667,-112.08 670.5,-102.08 663.5,-102.08"/>
</g>
<!-- Node11 -->
<g id="node11" class="node">
<title>Node11</title>
<g id="a_node11"><a xlink:href="odp_8h.html" target="_top" xlink:title=" ">
<polygon fill="white" stroke="black" points="645,-0.5 645,-19.5 689,-19.5 689,-0.5 645,-0.5"/>
<text text-anchor="middle" x="667" y="-7.5" font-family="Helvetica,sans-Serif" font-size="10.00">odp.h</text>
</a>
</g>
</g>
<!-- Node10&#45;&gt;Node11 -->
<g id="edge10" class="edge">
<title>Node10&#45;&gt;Node11</title>
<path fill="none" stroke="midnightblue" d="M667,-45.8C667,-36.91 667,-26.78 667,-19.75"/>
<polygon fill="midnightblue" stroke="midnightblue" points="663.5,-46.08 667,-56.08 670.5,-46.08 663.5,-46.08"/>
</g>
</g>
</svg>
