<?xml version="1.0" encoding="UTF-8" standalone="no"?>
<!DOCTYPE svg PUBLIC "-//W3C//DTD SVG 1.1//EN"
 "http://www.w3.org/Graphics/SVG/1.1/DTD/svg11.dtd">
<!-- Generated by graphviz version 2.43.0 (0)
 -->
<!-- Title: cpumask.h Pages: 1 -->
<svg width="776pt" height="532pt"
 viewBox="0.00 0.00 776.00 532.00" xmlns="http://www.w3.org/2000/svg" xmlns:xlink="http://www.w3.org/1999/xlink">
<g id="graph0" class="graph" transform="scale(1 1) rotate(0) translate(4 528)">
<title>cpumask.h</title>
<polygon fill="white" stroke="transparent" points="-4,4 -4,-528 772,-528 772,4 -4,4"/>
<!-- Node1 -->
<g id="node1" class="node">
<title>Node1</title>
<g id="a_node1"><a xlink:title=" ">
<polygon fill="#bfbfbf" stroke="black" points="299,-504.5 299,-523.5 369,-523.5 369,-504.5 299,-504.5"/>
<text text-anchor="middle" x="334" y="-511.5" font-family="Helvetica,sans-Serif" font-size="10.00">cpumask.h</text>
</a>
</g>
</g>
<!-- Node2 -->
<g id="node2" class="node">
<title>Node2</title>
<g id="a_node2"><a xlink:href="arch_2arm32-linux_2odp_2api_2abi_2cpumask_8h_source.html" target="_top" xlink:title=" ">
<polygon fill="white" stroke="black" points="35,-448.5 35,-467.5 105,-467.5 105,-448.5 35,-448.5"/>
<text text-anchor="middle" x="70" y="-455.5" font-family="Helvetica,sans-Serif" font-size="10.00">cpumask.h</text>
</a>
</g>
</g>
<!-- Node1&#45;&gt;Node2 -->
<g id="edge1" class="edge">
<title>Node1&#45;&gt;Node2</title>
<path fill="none" stroke="midnightblue" d="M289,-503.8C237.03,-493.17 152.62,-475.9 105.2,-466.2"/>
<polygon fill="midnightblue" stroke="midnightblue" points="288.44,-507.25 298.94,-505.83 289.85,-500.4 288.44,-507.25"/>
</g>
<!-- Node3 -->
<g id="node3" class="node">
<title>Node3</title>
<g id="a_node3"><a xlink:href="arch_2arm64-linux_2odp_2api_2abi_2cpumask_8h_source.html" target="_top" xlink:title=" ">
<polygon fill="white" stroke="black" points="123,-448.5 123,-467.5 193,-467.5 193,-448.5 123,-448.5"/>
<text text-anchor="middle" x="158" y="-455.5" font-family="Helvetica,sans-Serif" font-size="10.00">cpumask.h</text>
</a>
</g>
</g>
<!-- Node1&#45;&gt;Node3 -->
<g id="edge2" class="edge">
<title>Node1&#45;&gt;Node3</title>
<path fill="none" stroke="midnightblue" d="M296.31,-501.44C263.13,-491.26 215.57,-476.66 185.76,-467.52"/>
<polygon fill="midnightblue" stroke="midnightblue" points="295.53,-504.86 306.11,-504.44 297.58,-498.16 295.53,-504.86"/>
</g>
<!-- Node4 -->
<g id="node4" class="node">
<title>Node4</title>
<g id="a_node4"><a xlink:href="arch_2default-linux_2odp_2api_2abi_2cpumask_8h_source.html" target="_top" xlink:title=" ">
<polygon fill="white" stroke="black" points="211,-448.5 211,-467.5 281,-467.5 281,-448.5 211,-448.5"/>
<text text-anchor="middle" x="246" y="-455.5" font-family="Helvetica,sans-Serif" font-size="10.00">cpumask.h</text>
</a>
</g>
</g>
<!-- Node1&#45;&gt;Node4 -->
<g id="edge3" class="edge">
<title>Node1&#45;&gt;Node4</title>
<path fill="none" stroke="midnightblue" d="M311.02,-498.9C294.89,-489 273.82,-476.07 260.1,-467.65"/>
<polygon fill="midnightblue" stroke="midnightblue" points="309.51,-502.08 319.86,-504.32 313.17,-496.11 309.51,-502.08"/>
</g>
<!-- Node5 -->
<g id="node5" class="node">
<title>Node5</title>
<g id="a_node5"><a xlink:href="arch_2mips64-linux_2odp_2api_2abi_2cpumask_8h_source.html" target="_top" xlink:title=" ">
<polygon fill="white" stroke="black" points="299,-448.5 299,-467.5 369,-467.5 369,-448.5 299,-448.5"/>
<text text-anchor="middle" x="334" y="-455.5" font-family="Helvetica,sans-Serif" font-size="10.00">cpumask.h</text>
</a>
</g>
</g>
<!-- Node1&#45;&gt;Node5 -->
<g id="edge4" class="edge">
<title>Node1&#45;&gt;Node5</title>
<path fill="none" stroke="midnightblue" d="M334,-493.8C334,-484.91 334,-474.78 334,-467.75"/>
<polygon fill="midnightblue" stroke="midnightblue" points="330.5,-494.08 334,-504.08 337.5,-494.08 330.5,-494.08"/>
</g>
<!-- Node6 -->
<g id="node6" class="node">
<title>Node6</title>
<g id="a_node6"><a xlink:href="arch_2power64-linux_2odp_2api_2abi_2cpumask_8h_source.html" target="_top" xlink:title=" ">
<polygon fill="white" stroke="black" points="387,-448.5 387,-467.5 457,-467.5 457,-448.5 387,-448.5"/>
<text text-anchor="middle" x="422" y="-455.5" font-family="Helvetica,sans-Serif" font-size="10.00">cpumask.h</text>
</a>
</g>
</g>
<!-- Node1&#45;&gt;Node6 -->
<g id="edge5" class="edge">
<title>Node1&#45;&gt;Node6</title>
<path fill="none" stroke="midnightblue" d="M356.98,-498.9C373.11,-489 394.18,-476.07 407.9,-467.65"/>
<polygon fill="midnightblue" stroke="midnightblue" points="354.83,-496.11 348.14,-504.32 358.49,-502.08 354.83,-496.11"/>
</g>
<!-- Node7 -->
<g id="node7" class="node">
<title>Node7</title>
<g id="a_node7"><a xlink:href="arch_2x86__32-linux_2odp_2api_2abi_2cpumask_8h_source.html" target="_top" xlink:title=" ">
<polygon fill="white" stroke="black" points="475,-448.5 475,-467.5 545,-467.5 545,-448.5 475,-448.5"/>
<text text-anchor="middle" x="510" y="-455.5" font-family="Helvetica,sans-Serif" font-size="10.00">cpumask.h</text>
</a>
</g>
</g>
<!-- Node1&#45;&gt;Node7 -->
<g id="edge6" class="edge">
<title>Node1&#45;&gt;Node7</title>
<path fill="none" stroke="midnightblue" d="M371.69,-501.44C404.87,-491.26 452.43,-476.66 482.24,-467.52"/>
<polygon fill="midnightblue" stroke="midnightblue" points="370.42,-498.16 361.89,-504.44 372.47,-504.86 370.42,-498.16"/>
</g>
<!-- Node8 -->
<g id="node8" class="node">
<title>Node8</title>
<g id="a_node8"><a xlink:href="arch_2x86__64-linux_2odp_2api_2abi_2cpumask_8h_source.html" target="_top" xlink:title=" ">
<polygon fill="white" stroke="black" points="563,-448.5 563,-467.5 633,-467.5 633,-448.5 563,-448.5"/>
<text text-anchor="middle" x="598" y="-455.5" font-family="Helvetica,sans-Serif" font-size="10.00">cpumask.h</text>
</a>
</g>
</g>
<!-- Node1&#45;&gt;Node8 -->
<g id="edge7" class="edge">
<title>Node1&#45;&gt;Node8</title>
<path fill="none" stroke="midnightblue" d="M379,-503.8C430.97,-493.17 515.38,-475.9 562.8,-466.2"/>
<polygon fill="midnightblue" stroke="midnightblue" points="378.15,-500.4 369.06,-505.83 379.56,-507.25 378.15,-500.4"/>
</g>
<!-- Node9 -->
<g id="node9" class="node">
<title>Node9</title>
<g id="a_node9"><a xlink:href="api_2cpumask_8h.html" target="_top" xlink:title=" ">
<polygon fill="white" stroke="black" points="563,-392.5 563,-411.5 633,-411.5 633,-392.5 563,-392.5"/>
<text text-anchor="middle" x="598" y="-399.5" font-family="Helvetica,sans-Serif" font-size="10.00">cpumask.h</text>
</a>
</g>
</g>
<!-- Node8&#45;&gt;Node9 -->
<g id="edge8" class="edge">
<title>Node8&#45;&gt;Node9</title>
<path fill="none" stroke="midnightblue" d="M598,-437.8C598,-428.91 598,-418.78 598,-411.75"/>
<polygon fill="midnightblue" stroke="midnightblue" points="594.5,-438.08 598,-448.08 601.5,-438.08 594.5,-438.08"/>
</g>
<!-- Node10 -->
<g id="node10" class="node">
<title>Node10</title>
<g id="a_node10"><a xlink:href="api_2abi-default_2thrmask_8h.html" target="_top" xlink:title=" ">
<polygon fill="white" stroke="black" points="294,-336.5 294,-355.5 360,-355.5 360,-336.5 294,-336.5"/>
<text text-anchor="middle" x="327" y="-343.5" font-family="Helvetica,sans-Serif" font-size="10.00">thrmask.h</text>
</a>
</g>
</g>
<!-- Node9&#45;&gt;Node10 -->
<g id="edge9" class="edge">
<title>Node9&#45;&gt;Node10</title>
<path fill="none" stroke="midnightblue" d="M552.82,-392C498.55,-381.18 408.78,-363.3 360.39,-353.65"/>
<polygon fill="midnightblue" stroke="midnightblue" points="552.36,-395.47 562.85,-394 553.73,-388.61 552.36,-395.47"/>
</g>
<!-- Node21 -->
<g id="node21" class="node">
<title>Node21</title>
<g id="a_node21"><a xlink:href="odp__api_8h.html" target="_top" xlink:title=" ">
<polygon fill="white" stroke="black" points="566,-56.5 566,-75.5 630,-75.5 630,-56.5 566,-56.5"/>
<text text-anchor="middle" x="598" y="-63.5" font-family="Helvetica,sans-Serif" font-size="10.00">odp_api.h</text>
</a>
</g>
</g>
<!-- Node9&#45;&gt;Node21 -->
<g id="edge29" class="edge">
<title>Node9&#45;&gt;Node21</title>
<path fill="none" stroke="midnightblue" d="M598,-382.25C598,-360.36 598,-323.05 598,-291 598,-291 598,-291 598,-177 598,-139.19 598,-94.06 598,-75.56"/>
<polygon fill="midnightblue" stroke="midnightblue" points="594.5,-382.44 598,-392.44 601.5,-382.44 594.5,-382.44"/>
</g>
<!-- Node23 -->
<g id="node23" class="node">
<title>Node23</title>
<g id="a_node23"><a xlink:href="api_2spec_2init_8h.html" target="_top" xlink:title=" ">
<polygon fill="white" stroke="black" points="626.5,-336.5 626.5,-355.5 667.5,-355.5 667.5,-336.5 626.5,-336.5"/>
<text text-anchor="middle" x="647" y="-343.5" font-family="Helvetica,sans-Serif" font-size="10.00">init.h</text>
</a>
</g>
</g>
<!-- Node9&#45;&gt;Node23 -->
<g id="edge23" class="edge">
<title>Node9&#45;&gt;Node23</title>
<path fill="none" stroke="midnightblue" d="M613.03,-384.43C621.62,-374.97 632.04,-363.48 639.06,-355.75"/>
<polygon fill="midnightblue" stroke="midnightblue" points="610.22,-382.33 606.09,-392.08 615.4,-387.03 610.22,-382.33"/>
</g>
<!-- Node11 -->
<g id="node11" class="node">
<title>Node11</title>
<g id="a_node11"><a xlink:href="arch_2arm32-linux_2odp_2api_2abi_2thrmask_8h_source.html" target="_top" xlink:title=" ">
<polygon fill="white" stroke="black" points="0,-280.5 0,-299.5 66,-299.5 66,-280.5 0,-280.5"/>
<text text-anchor="middle" x="33" y="-287.5" font-family="Helvetica,sans-Serif" font-size="10.00">thrmask.h</text>
</a>
</g>
</g>
<!-- Node10&#45;&gt;Node11 -->
<g id="edge10" class="edge">
<title>Node10&#45;&gt;Node11</title>
<path fill="none" stroke="midnightblue" d="M284.05,-337.79C233.83,-329.26 148.23,-314.38 75,-300 72.22,-299.45 69.34,-298.87 66.45,-298.28"/>
<polygon fill="midnightblue" stroke="midnightblue" points="283.47,-341.24 293.91,-339.46 284.64,-334.34 283.47,-341.24"/>
</g>
<!-- Node12 -->
<g id="node12" class="node">
<title>Node12</title>
<g id="a_node12"><a xlink:href="arch_2arm64-linux_2odp_2api_2abi_2thrmask_8h_source.html" target="_top" xlink:title=" ">
<polygon fill="white" stroke="black" points="84,-280.5 84,-299.5 150,-299.5 150,-280.5 84,-280.5"/>
<text text-anchor="middle" x="117" y="-287.5" font-family="Helvetica,sans-Serif" font-size="10.00">thrmask.h</text>
</a>
</g>
</g>
<!-- Node10&#45;&gt;Node12 -->
<g id="edge11" class="edge">
<title>Node10&#45;&gt;Node12</title>
<path fill="none" stroke="midnightblue" d="M283.81,-333.89C244.15,-323.7 186.23,-308.8 150.12,-299.52"/>
<polygon fill="midnightblue" stroke="midnightblue" points="283.17,-337.34 293.72,-336.44 284.91,-330.56 283.17,-337.34"/>
</g>
<!-- Node13 -->
<g id="node13" class="node">
<title>Node13</title>
<g id="a_node13"><a xlink:href="arch_2default-linux_2odp_2api_2abi_2thrmask_8h_source.html" target="_top" xlink:title=" ">
<polygon fill="white" stroke="black" points="168,-280.5 168,-299.5 234,-299.5 234,-280.5 168,-280.5"/>
<text text-anchor="middle" x="201" y="-287.5" font-family="Helvetica,sans-Serif" font-size="10.00">thrmask.h</text>
</a>
</g>
</g>
<!-- Node10&#45;&gt;Node13 -->
<g id="edge12" class="edge">
<title>Node10&#45;&gt;Node13</title>
<path fill="none" stroke="midnightblue" d="M297.84,-332.5C274.22,-322.38 241.57,-308.39 220.87,-299.52"/>
<polygon fill="midnightblue" stroke="midnightblue" points="296.46,-335.72 307.03,-336.44 299.22,-329.29 296.46,-335.72"/>
</g>
<!-- Node14 -->
<g id="node14" class="node">
<title>Node14</title>
<g id="a_node14"><a xlink:href="arch_2mips64-linux_2odp_2api_2abi_2thrmask_8h_source.html" target="_top" xlink:title=" ">
<polygon fill="white" stroke="black" points="252,-280.5 252,-299.5 318,-299.5 318,-280.5 252,-280.5"/>
<text text-anchor="middle" x="285" y="-287.5" font-family="Helvetica,sans-Serif" font-size="10.00">thrmask.h</text>
</a>
</g>
</g>
<!-- Node10&#45;&gt;Node14 -->
<g id="edge13" class="edge">
<title>Node10&#45;&gt;Node14</title>
<path fill="none" stroke="midnightblue" d="M313.89,-328.14C306.57,-318.74 297.76,-307.4 291.81,-299.75"/>
<polygon fill="midnightblue" stroke="midnightblue" points="311.16,-330.34 320.06,-336.08 316.69,-326.04 311.16,-330.34"/>
</g>
<!-- Node15 -->
<g id="node15" class="node">
<title>Node15</title>
<g id="a_node15"><a xlink:href="arch_2power64-linux_2odp_2api_2abi_2thrmask_8h_source.html" target="_top" xlink:title=" ">
<polygon fill="white" stroke="black" points="336,-280.5 336,-299.5 402,-299.5 402,-280.5 336,-280.5"/>
<text text-anchor="middle" x="369" y="-287.5" font-family="Helvetica,sans-Serif" font-size="10.00">thrmask.h</text>
</a>
</g>
</g>
<!-- Node10&#45;&gt;Node15 -->
<g id="edge14" class="edge">
<title>Node10&#45;&gt;Node15</title>
<path fill="none" stroke="midnightblue" d="M340.11,-328.14C347.43,-318.74 356.24,-307.4 362.19,-299.75"/>
<polygon fill="midnightblue" stroke="midnightblue" points="337.31,-326.04 333.94,-336.08 342.84,-330.34 337.31,-326.04"/>
</g>
<!-- Node16 -->
<g id="node16" class="node">
<title>Node16</title>
<g id="a_node16"><a xlink:href="arch_2x86__32-linux_2odp_2api_2abi_2thrmask_8h_source.html" target="_top" xlink:title=" ">
<polygon fill="white" stroke="black" points="420,-280.5 420,-299.5 486,-299.5 486,-280.5 420,-280.5"/>
<text text-anchor="middle" x="453" y="-287.5" font-family="Helvetica,sans-Serif" font-size="10.00">thrmask.h</text>
</a>
</g>
</g>
<!-- Node10&#45;&gt;Node16 -->
<g id="edge15" class="edge">
<title>Node10&#45;&gt;Node16</title>
<path fill="none" stroke="midnightblue" d="M356.16,-332.5C379.78,-322.38 412.43,-308.39 433.13,-299.52"/>
<polygon fill="midnightblue" stroke="midnightblue" points="354.78,-329.29 346.97,-336.44 357.54,-335.72 354.78,-329.29"/>
</g>
<!-- Node17 -->
<g id="node17" class="node">
<title>Node17</title>
<g id="a_node17"><a xlink:href="arch_2x86__64-linux_2odp_2api_2abi_2thrmask_8h_source.html" target="_top" xlink:title=" ">
<polygon fill="white" stroke="black" points="504,-280.5 504,-299.5 570,-299.5 570,-280.5 504,-280.5"/>
<text text-anchor="middle" x="537" y="-287.5" font-family="Helvetica,sans-Serif" font-size="10.00">thrmask.h</text>
</a>
</g>
</g>
<!-- Node10&#45;&gt;Node17 -->
<g id="edge16" class="edge">
<title>Node10&#45;&gt;Node17</title>
<path fill="none" stroke="midnightblue" d="M370.19,-333.89C409.85,-323.7 467.77,-308.8 503.88,-299.52"/>
<polygon fill="midnightblue" stroke="midnightblue" points="369.09,-330.56 360.28,-336.44 370.83,-337.34 369.09,-330.56"/>
</g>
<!-- Node18 -->
<g id="node18" class="node">
<title>Node18</title>
<g id="a_node18"><a xlink:href="api_2thrmask_8h.html" target="_top" xlink:title=" ">
<polygon fill="white" stroke="black" points="504,-224.5 504,-243.5 570,-243.5 570,-224.5 504,-224.5"/>
<text text-anchor="middle" x="537" y="-231.5" font-family="Helvetica,sans-Serif" font-size="10.00">thrmask.h</text>
</a>
</g>
</g>
<!-- Node17&#45;&gt;Node18 -->
<g id="edge17" class="edge">
<title>Node17&#45;&gt;Node18</title>
<path fill="none" stroke="midnightblue" d="M537,-269.8C537,-260.91 537,-250.78 537,-243.75"/>
<polygon fill="midnightblue" stroke="midnightblue" points="533.5,-270.08 537,-280.08 540.5,-270.08 533.5,-270.08"/>
</g>
<!-- Node19 -->
<g id="node19" class="node">
<title>Node19</title>
<g id="a_node19"><a xlink:href="api_2spec_2schedule_8h.html" target="_top" xlink:title=" ">
<polygon fill="white" stroke="black" points="462.5,-168.5 462.5,-187.5 531.5,-187.5 531.5,-168.5 462.5,-168.5"/>
<text text-anchor="middle" x="497" y="-175.5" font-family="Helvetica,sans-Serif" font-size="10.00">schedule.h</text>
</a>
</g>
</g>
<!-- Node18&#45;&gt;Node19 -->
<g id="edge18" class="edge">
<title>Node18&#45;&gt;Node19</title>
<path fill="none" stroke="midnightblue" d="M524.3,-215.86C517.37,-206.5 509.09,-195.33 503.48,-187.75"/>
<polygon fill="midnightblue" stroke="midnightblue" points="521.63,-218.13 530.39,-224.08 527.25,-213.96 521.63,-218.13"/>
</g>
<!-- Node18&#45;&gt;Node21 -->
<g id="edge22" class="edge">
<title>Node18&#45;&gt;Node21</title>
<path fill="none" stroke="midnightblue" d="M543.84,-214.39C557,-178.59 585.38,-101.34 594.85,-75.57"/>
<polygon fill="midnightblue" stroke="midnightblue" points="540.44,-213.48 540.28,-224.08 547.01,-215.9 540.44,-213.48"/>
</g>
<!-- Node20 -->
<g id="node20" class="node">
<title>Node20</title>
<g id="a_node20"><a xlink:href="api_2schedule_8h.html" target="_top" xlink:title=" ">
<polygon fill="white" stroke="black" points="462.5,-112.5 462.5,-131.5 531.5,-131.5 531.5,-112.5 462.5,-112.5"/>
<text text-anchor="middle" x="497" y="-119.5" font-family="Helvetica,sans-Serif" font-size="10.00">schedule.h</text>
</a>
</g>
</g>
<!-- Node19&#45;&gt;Node20 -->
<g id="edge19" class="edge">
<title>Node19&#45;&gt;Node20</title>
<path fill="none" stroke="midnightblue" d="M497,-157.8C497,-148.91 497,-138.78 497,-131.75"/>
<polygon fill="midnightblue" stroke="midnightblue" points="493.5,-158.08 497,-168.08 500.5,-158.08 493.5,-158.08"/>
</g>
<!-- Node20&#45;&gt;Node21 -->
<g id="edge20" class="edge">
<title>Node20&#45;&gt;Node21</title>
<path fill="none" stroke="midnightblue" d="M522.08,-107.59C540.76,-97.61 565.7,-84.27 581.81,-75.65"/>
<polygon fill="midnightblue" stroke="midnightblue" points="520.4,-104.52 513.23,-112.32 523.7,-110.7 520.4,-104.52"/>
</g>
<!-- Node22 -->
<g id="node22" class="node">
<title>Node22</title>
<g id="a_node22"><a xlink:href="odp_8h.html" target="_top" xlink:title=" ">
<polygon fill="white" stroke="black" points="576,-0.5 576,-19.5 620,-19.5 620,-0.5 576,-0.5"/>
<text text-anchor="middle" x="598" y="-7.5" font-family="Helvetica,sans-Serif" font-size="10.00">odp.h</text>
</a>
</g>
</g>
<!-- Node21&#45;&gt;Node22 -->
<g id="edge21" class="edge">
<title>Node21&#45;&gt;Node22</title>
<path fill="none" stroke="midnightblue" d="M598,-45.8C598,-36.91 598,-26.78 598,-19.75"/>
<polygon fill="midnightblue" stroke="midnightblue" points="594.5,-46.08 598,-56.08 601.5,-46.08 594.5,-46.08"/>
</g>
<!-- Node24 -->
<g id="node24" class="node">
<title>Node24</title>
<g id="a_node24"><a xlink:href="api_2init_8h.html" target="_top" xlink:title=" ">
<polygon fill="white" stroke="black" points="626.5,-224.5 626.5,-243.5 667.5,-243.5 667.5,-224.5 626.5,-224.5"/>
<text text-anchor="middle" x="647" y="-231.5" font-family="Helvetica,sans-Serif" font-size="10.00">init.h</text>
</a>
</g>
</g>
<!-- Node23&#45;&gt;Node24 -->
<g id="edge24" class="edge">
<title>Node23&#45;&gt;Node24</title>
<path fill="none" stroke="midnightblue" d="M647,-326.35C647,-302.25 647,-261.31 647,-243.59"/>
<polygon fill="midnightblue" stroke="midnightblue" points="643.5,-326.37 647,-336.37 650.5,-326.37 643.5,-326.37"/>
</g>
<!-- Node24&#45;&gt;Node21 -->
<g id="edge28" class="edge">
<title>Node24&#45;&gt;Node21</title>
<path fill="none" stroke="midnightblue" d="M641.84,-214.73C635.11,-191.01 622.91,-148.34 612,-112 608.19,-99.3 603.6,-84.66 600.74,-75.61"/>
<polygon fill="midnightblue" stroke="midnightblue" points="638.51,-215.81 644.6,-224.47 645.24,-213.9 638.51,-215.81"/>
</g>
<!-- Node25 -->
<g id="node25" class="node">
<title>Node25</title>
<g id="a_node25"><a xlink:href="api_2spec_2shared__memory_8h.html" target="_top" xlink:title=" ">
<polygon fill="white" stroke="black" points="664,-168.5 664,-187.5 768,-187.5 768,-168.5 664,-168.5"/>
<text text-anchor="middle" x="716" y="-175.5" font-family="Helvetica,sans-Serif" font-size="10.00">shared_memory.h</text>
</a>
</g>
</g>
<!-- Node24&#45;&gt;Node25 -->
<g id="edge25" class="edge">
<title>Node24&#45;&gt;Node25</title>
<path fill="none" stroke="midnightblue" d="M666.04,-218.1C678.46,-208.38 694.24,-196.03 704.71,-187.83"/>
<polygon fill="midnightblue" stroke="midnightblue" points="663.8,-215.4 658.09,-224.32 668.12,-220.92 663.8,-215.4"/>
</g>
<!-- Node26 -->
<g id="node26" class="node">
<title>Node26</title>
<g id="a_node26"><a xlink:href="api_2shared__memory_8h.html" target="_top" xlink:title=" ">
<polygon fill="white" stroke="black" points="664,-112.5 664,-131.5 768,-131.5 768,-112.5 664,-112.5"/>
<text text-anchor="middle" x="716" y="-119.5" font-family="Helvetica,sans-Serif" font-size="10.00">shared_memory.h</text>
</a>
</g>
</g>
<!-- Node25&#45;&gt;Node26 -->
<g id="edge26" class="edge">
<title>Node25&#45;&gt;Node26</title>
<path fill="none" stroke="midnightblue" d="M716,-157.8C716,-148.91 716,-138.78 716,-131.75"/>
<polygon fill="midnightblue" stroke="midnightblue" points="712.5,-158.08 716,-168.08 719.5,-158.08 712.5,-158.08"/>
</g>
<!-- Node26&#45;&gt;Node21 -->
<g id="edge27" class="edge">
<title>Node26&#45;&gt;Node21</title>
<path fill="none" stroke="midnightblue" d="M688.1,-108.23C666.03,-98.13 635.82,-84.31 616.61,-75.52"/>
<polygon fill="midnightblue" stroke="midnightblue" points="686.75,-111.46 697.3,-112.44 689.67,-105.1 686.75,-111.46"/>
</g>
</g>
</svg>
