<?xml version="1.0" encoding="UTF-8" standalone="no"?>
<!DOCTYPE svg PUBLIC "-//W3C//DTD SVG 1.1//EN"
 "http://www.w3.org/Graphics/SVG/1.1/DTD/svg11.dtd">
<!-- Generated by graphviz version 2.43.0 (0)
 -->
<!-- Title: packet_types.h Pages: 1 -->
<svg width="806pt" height="565pt"
 viewBox="0.00 0.00 806.00 565.00" xmlns="http://www.w3.org/2000/svg" xmlns:xlink="http://www.w3.org/1999/xlink">
<g id="graph0" class="graph" transform="scale(1 1) rotate(0) translate(4 561)">
<title>packet_types.h</title>
<polygon fill="white" stroke="transparent" points="-4,4 -4,-561 802,-561 802,4 -4,4"/>
<!-- Node1 -->
<g id="node1" class="node">
<title>Node1</title>
<g id="a_node1"><a xlink:title=" ">
<polygon fill="#bfbfbf" stroke="black" points="314,-537.5 314,-556.5 404,-556.5 404,-537.5 314,-537.5"/>
<text text-anchor="middle" x="359" y="-544.5" font-family="Helvetica,sans-Serif" font-size="10.00">packet_types.h</text>
</a>
</g>
</g>
<!-- Node2 -->
<g id="node2" class="node">
<title>Node2</title>
<g id="a_node2"><a xlink:href="visibility__begin_8h_source.html" target="_top" xlink:title=" ">
<polygon fill="white" stroke="black" points="81.5,-0.5 81.5,-19.5 202.5,-19.5 202.5,-0.5 81.5,-0.5"/>
<text text-anchor="middle" x="142" y="-7.5" font-family="Helvetica,sans-Serif" font-size="10.00">odp/visibility_begin.h</text>
</a>
</g>
</g>
<!-- Node1&#45;&gt;Node2 -->
<g id="edge1" class="edge">
<title>Node1&#45;&gt;Node2</title>
<path fill="none" stroke="midnightblue" d="M313.9,-541.1C217.48,-529.39 0,-495.73 0,-430.5 0,-430.5 0,-430.5 0,-121 0,-69.07 60.09,-38.15 102.09,-22.89"/>
<polygon fill="midnightblue" stroke="midnightblue" points="103.24,-26.19 111.54,-19.6 100.94,-19.58 103.24,-26.19"/>
</g>
<!-- Node3 -->
<g id="node3" class="node">
<title>Node3</title>
<g id="a_node3"><a xlink:href="api_2proto__stats__types_8h.html" target="_top" xlink:title=" ">
<polygon fill="white" stroke="black" points="46,-347.5 46,-377.5 156,-377.5 156,-347.5 46,-347.5"/>
<text text-anchor="start" x="54" y="-365.5" font-family="Helvetica,sans-Serif" font-size="10.00">odp/api/proto_stats</text>
<text text-anchor="middle" x="101" y="-354.5" font-family="Helvetica,sans-Serif" font-size="10.00">_types.h</text>
</a>
</g>
</g>
<!-- Node1&#45;&gt;Node3 -->
<g id="edge2" class="edge">
<title>Node1&#45;&gt;Node3</title>
<path fill="none" stroke="midnightblue" d="M346.9,-537.44C308.04,-509.95 185.63,-423.36 129.56,-383.7"/>
<polygon fill="midnightblue" stroke="midnightblue" points="131.34,-380.67 121.15,-377.75 127.29,-386.39 131.34,-380.67"/>
</g>
<!-- Node13 -->
<g id="node13" class="node">
<title>Node13</title>
<g id="a_node13"><a xlink:href="visibility__end_8h_source.html" target="_top" xlink:title=" ">
<polygon fill="white" stroke="black" points="622,-0.5 622,-19.5 734,-19.5 734,-0.5 622,-0.5"/>
<text text-anchor="middle" x="678" y="-7.5" font-family="Helvetica,sans-Serif" font-size="10.00">odp/visibility_end.h</text>
</a>
</g>
</g>
<!-- Node1&#45;&gt;Node13 -->
<g id="edge33" class="edge">
<title>Node1&#45;&gt;Node13</title>
<path fill="none" stroke="midnightblue" d="M404.33,-543.69C516.49,-536.75 798,-511.28 798,-430.5 798,-430.5 798,-430.5 798,-121 798,-73.08 745.36,-40.38 709.81,-23.76"/>
<polygon fill="midnightblue" stroke="midnightblue" points="710.85,-20.4 700.29,-19.5 707.99,-26.78 710.85,-20.4"/>
</g>
<!-- Node14 -->
<g id="node14" class="node">
<title>Node14</title>
<g id="a_node14"><a xlink:href="api_2queue__types_8h.html" target="_top" xlink:title=" ">
<polygon fill="white" stroke="black" points="405.5,-481.5 405.5,-500.5 532.5,-500.5 532.5,-481.5 405.5,-481.5"/>
<text text-anchor="middle" x="469" y="-488.5" font-family="Helvetica,sans-Serif" font-size="10.00">odp/api/queue_types.h</text>
</a>
</g>
</g>
<!-- Node1&#45;&gt;Node14 -->
<g id="edge18" class="edge">
<title>Node1&#45;&gt;Node14</title>
<path fill="none" stroke="midnightblue" d="M376.67,-537.32C394.39,-528.62 421.9,-515.12 442.29,-505.11"/>
<polygon fill="midnightblue" stroke="midnightblue" points="443.94,-508.2 451.37,-500.65 440.85,-501.92 443.94,-508.2"/>
</g>
<!-- Node4 -->
<g id="node4" class="node">
<title>Node4</title>
<g id="a_node4"><a xlink:title=" ">
<polygon fill="white" stroke="#bfbfbf" points="28,-280.5 28,-310.5 156,-310.5 156,-280.5 28,-280.5"/>
<text text-anchor="start" x="36" y="-298.5" font-family="Helvetica,sans-Serif" font-size="10.00">odp/api/abi/proto_stats</text>
<text text-anchor="middle" x="92" y="-287.5" font-family="Helvetica,sans-Serif" font-size="10.00">_types.h</text>
</a>
</g>
</g>
<!-- Node3&#45;&gt;Node4 -->
<g id="edge3" class="edge">
<title>Node3&#45;&gt;Node4</title>
<path fill="none" stroke="midnightblue" d="M99.05,-347.4C97.96,-339.56 96.58,-329.6 95.33,-320.57"/>
<polygon fill="midnightblue" stroke="midnightblue" points="98.79,-320 93.95,-310.58 91.85,-320.96 98.79,-320"/>
</g>
<!-- Node5 -->
<g id="node5" class="node">
<title>Node5</title>
<g id="a_node5"><a xlink:href="api_2spec_2proto__stats__types_8h.html" target="_top" xlink:title=" ">
<polygon fill="white" stroke="black" points="212.5,-280.5 212.5,-310.5 319.5,-310.5 319.5,-280.5 212.5,-280.5"/>
<text text-anchor="start" x="220.5" y="-298.5" font-family="Helvetica,sans-Serif" font-size="10.00">odp/api/spec/proto</text>
<text text-anchor="middle" x="266" y="-287.5" font-family="Helvetica,sans-Serif" font-size="10.00">_stats_types.h</text>
</a>
</g>
</g>
<!-- Node3&#45;&gt;Node5 -->
<g id="edge4" class="edge">
<title>Node3&#45;&gt;Node5</title>
<path fill="none" stroke="midnightblue" d="M136.8,-347.4C161.45,-337.69 194.39,-324.71 220.84,-314.29"/>
<polygon fill="midnightblue" stroke="midnightblue" points="222.25,-317.5 230.27,-310.58 219.68,-310.99 222.25,-317.5"/>
</g>
<!-- Node5&#45;&gt;Node2 -->
<g id="edge5" class="edge">
<title>Node5&#45;&gt;Node2</title>
<path fill="none" stroke="midnightblue" d="M214.1,-280.45C180.45,-270.43 140.6,-256.56 128,-244 106.19,-222.26 104,-209.8 104,-179 104,-179 104,-179 104,-121 104,-86.81 120.6,-49.76 131.86,-28.57"/>
<polygon fill="midnightblue" stroke="midnightblue" points="134.95,-30.22 136.72,-19.77 128.82,-26.83 134.95,-30.22"/>
</g>
<!-- Node6 -->
<g id="node6" class="node">
<title>Node6</title>
<g id="a_node6"><a xlink:href="api_2std__types_8h.html" target="_top" xlink:title=" ">
<polygon fill="white" stroke="black" points="271,-224.5 271,-243.5 383,-243.5 383,-224.5 271,-224.5"/>
<text text-anchor="middle" x="327" y="-231.5" font-family="Helvetica,sans-Serif" font-size="10.00">odp/api/std_types.h</text>
</a>
</g>
</g>
<!-- Node5&#45;&gt;Node6 -->
<g id="edge6" class="edge">
<title>Node5&#45;&gt;Node6</title>
<path fill="none" stroke="midnightblue" d="M280.46,-280.4C289.59,-271.49 301.42,-259.95 310.86,-250.74"/>
<polygon fill="midnightblue" stroke="midnightblue" points="313.41,-253.15 318.12,-243.66 308.52,-248.13 313.41,-253.15"/>
</g>
<!-- Node5&#45;&gt;Node13 -->
<g id="edge17" class="edge">
<title>Node5&#45;&gt;Node13</title>
<path fill="none" stroke="midnightblue" d="M306.26,-280.48C331.4,-271.21 364.18,-258.18 392,-244 516.91,-180.33 574.51,-187.89 659,-76 669.17,-62.53 673.91,-43.71 676.11,-29.79"/>
<polygon fill="midnightblue" stroke="midnightblue" points="679.58,-30.24 677.39,-19.87 672.64,-29.35 679.58,-30.24"/>
</g>
<!-- Node7 -->
<g id="node7" class="node">
<title>Node7</title>
<g id="a_node7"><a xlink:title=" ">
<polygon fill="white" stroke="#bfbfbf" points="171,-168.5 171,-187.5 301,-187.5 301,-168.5 171,-168.5"/>
<text text-anchor="middle" x="236" y="-175.5" font-family="Helvetica,sans-Serif" font-size="10.00">odp/api/abi/std_types.h</text>
</a>
</g>
</g>
<!-- Node6&#45;&gt;Node7 -->
<g id="edge7" class="edge">
<title>Node6&#45;&gt;Node7</title>
<path fill="none" stroke="midnightblue" d="M312.38,-224.32C298.05,-215.82 275.99,-202.73 259.25,-192.8"/>
<polygon fill="midnightblue" stroke="midnightblue" points="260.97,-189.75 250.58,-187.65 257.4,-195.77 260.97,-189.75"/>
</g>
<!-- Node8 -->
<g id="node8" class="node">
<title>Node8</title>
<g id="a_node8"><a xlink:href="api_2spec_2std__types_8h.html" target="_top" xlink:title=" ">
<polygon fill="white" stroke="black" points="319.5,-168.5 319.5,-187.5 456.5,-187.5 456.5,-168.5 319.5,-168.5"/>
<text text-anchor="middle" x="388" y="-175.5" font-family="Helvetica,sans-Serif" font-size="10.00">odp/api/spec/std_types.h</text>
</a>
</g>
</g>
<!-- Node6&#45;&gt;Node8 -->
<g id="edge8" class="edge">
<title>Node6&#45;&gt;Node8</title>
<path fill="none" stroke="midnightblue" d="M336.8,-224.32C345.82,-216.34 359.41,-204.31 370.32,-194.65"/>
<polygon fill="midnightblue" stroke="midnightblue" points="372.85,-197.08 378.02,-187.83 368.21,-191.84 372.85,-197.08"/>
</g>
<!-- Node8&#45;&gt;Node2 -->
<g id="edge9" class="edge">
<title>Node8&#45;&gt;Node2</title>
<path fill="none" stroke="midnightblue" d="M354.98,-168.45C329.36,-161 293.53,-148.75 265,-132 232.12,-112.69 227.2,-102.73 200,-76 184.07,-60.35 167.22,-41.13 155.81,-27.66"/>
<polygon fill="midnightblue" stroke="midnightblue" points="158.28,-25.15 149.17,-19.74 152.91,-29.65 158.28,-25.15"/>
</g>
<!-- Node9 -->
<g id="node9" class="node">
<title>Node9</title>
<g id="a_node9"><a xlink:title=" ">
<polygon fill="white" stroke="#bfbfbf" points="273.5,-112.5 273.5,-131.5 326.5,-131.5 326.5,-112.5 273.5,-112.5"/>
<text text-anchor="middle" x="300" y="-119.5" font-family="Helvetica,sans-Serif" font-size="10.00">stdint.h</text>
</a>
</g>
</g>
<!-- Node8&#45;&gt;Node9 -->
<g id="edge10" class="edge">
<title>Node8&#45;&gt;Node9</title>
<path fill="none" stroke="midnightblue" d="M373.86,-168.32C360.13,-159.9 339.06,-146.97 322.94,-137.07"/>
<polygon fill="midnightblue" stroke="midnightblue" points="324.46,-133.9 314.1,-131.65 320.8,-139.87 324.46,-133.9"/>
</g>
<!-- Node10 -->
<g id="node10" class="node">
<title>Node10</title>
<g id="a_node10"><a xlink:href="api_2align_8h.html" target="_top" xlink:title=" ">
<polygon fill="white" stroke="black" points="344.5,-112.5 344.5,-131.5 433.5,-131.5 433.5,-112.5 344.5,-112.5"/>
<text text-anchor="middle" x="389" y="-119.5" font-family="Helvetica,sans-Serif" font-size="10.00">odp/api/align.h</text>
</a>
</g>
</g>
<!-- Node8&#45;&gt;Node10 -->
<g id="edge11" class="edge">
<title>Node8&#45;&gt;Node10</title>
<path fill="none" stroke="midnightblue" d="M388.17,-168.08C388.3,-161.01 388.48,-150.86 388.65,-141.99"/>
<polygon fill="midnightblue" stroke="midnightblue" points="392.15,-141.81 388.84,-131.75 385.15,-141.68 392.15,-141.81"/>
</g>
<!-- Node8&#45;&gt;Node13 -->
<g id="edge16" class="edge">
<title>Node8&#45;&gt;Node13</title>
<path fill="none" stroke="midnightblue" d="M400.63,-168.23C412.36,-159.74 429.92,-146.12 443,-132 470.98,-101.79 462.06,-79.32 496,-56 529.96,-32.66 574.84,-21.4 611.54,-15.98"/>
<polygon fill="midnightblue" stroke="midnightblue" points="612.22,-19.42 621.65,-14.6 611.27,-12.48 612.22,-19.42"/>
</g>
<!-- Node11 -->
<g id="node11" class="node">
<title>Node11</title>
<g id="a_node11"><a xlink:title=" ">
<polygon fill="white" stroke="#bfbfbf" points="208.5,-56.5 208.5,-75.5 315.5,-75.5 315.5,-56.5 208.5,-56.5"/>
<text text-anchor="middle" x="262" y="-63.5" font-family="Helvetica,sans-Serif" font-size="10.00">odp/api/abi/align.h</text>
</a>
</g>
</g>
<!-- Node10&#45;&gt;Node11 -->
<g id="edge12" class="edge">
<title>Node10&#45;&gt;Node11</title>
<path fill="none" stroke="midnightblue" d="M368.88,-112.44C347.98,-103.56 315.07,-89.56 291.28,-79.45"/>
<polygon fill="midnightblue" stroke="midnightblue" points="292.6,-76.21 282.03,-75.52 289.86,-82.65 292.6,-76.21"/>
</g>
<!-- Node12 -->
<g id="node12" class="node">
<title>Node12</title>
<g id="a_node12"><a xlink:href="api_2spec_2align_8h.html" target="_top" xlink:title=" ">
<polygon fill="white" stroke="black" points="334,-56.5 334,-75.5 448,-75.5 448,-56.5 334,-56.5"/>
<text text-anchor="middle" x="391" y="-63.5" font-family="Helvetica,sans-Serif" font-size="10.00">odp/api/spec/align.h</text>
</a>
</g>
</g>
<!-- Node10&#45;&gt;Node12 -->
<g id="edge13" class="edge">
<title>Node10&#45;&gt;Node12</title>
<path fill="none" stroke="midnightblue" d="M389.33,-112.08C389.59,-105.01 389.97,-94.86 390.3,-85.99"/>
<polygon fill="midnightblue" stroke="midnightblue" points="393.8,-85.87 390.68,-75.75 386.81,-85.61 393.8,-85.87"/>
</g>
<!-- Node12&#45;&gt;Node2 -->
<g id="edge14" class="edge">
<title>Node12&#45;&gt;Node2</title>
<path fill="none" stroke="midnightblue" d="M351.55,-56.44C308.11,-47.02 238.21,-31.87 191.22,-21.68"/>
<polygon fill="midnightblue" stroke="midnightblue" points="191.78,-18.22 181.27,-19.52 190.3,-25.06 191.78,-18.22"/>
</g>
<!-- Node12&#45;&gt;Node13 -->
<g id="edge15" class="edge">
<title>Node12&#45;&gt;Node13</title>
<path fill="none" stroke="midnightblue" d="M436.48,-56.44C486.96,-46.94 568.46,-31.61 622.62,-21.42"/>
<polygon fill="midnightblue" stroke="midnightblue" points="623.56,-24.81 632.74,-19.52 622.26,-17.93 623.56,-24.81"/>
</g>
<!-- Node15 -->
<g id="node15" class="node">
<title>Node15</title>
<g id="a_node15"><a xlink:title=" ">
<polygon fill="white" stroke="#bfbfbf" points="542.5,-420 542.5,-439 687.5,-439 687.5,-420 542.5,-420"/>
<text text-anchor="middle" x="615" y="-427" font-family="Helvetica,sans-Serif" font-size="10.00">odp/api/abi/queue_types.h</text>
</a>
</g>
</g>
<!-- Node14&#45;&gt;Node15 -->
<g id="edge19" class="edge">
<title>Node14&#45;&gt;Node15</title>
<path fill="none" stroke="midnightblue" d="M489.92,-481.48C514.75,-471.36 556.34,-454.4 584.69,-442.85"/>
<polygon fill="midnightblue" stroke="midnightblue" points="586.18,-446.02 594.12,-439.01 583.54,-439.54 586.18,-446.02"/>
</g>
<!-- Node16 -->
<g id="node16" class="node">
<title>Node16</title>
<g id="a_node16"><a xlink:href="api_2spec_2queue__types_8h.html" target="_top" xlink:title=" ">
<polygon fill="white" stroke="black" points="413.5,-414.5 413.5,-444.5 524.5,-444.5 524.5,-414.5 413.5,-414.5"/>
<text text-anchor="start" x="421.5" y="-432.5" font-family="Helvetica,sans-Serif" font-size="10.00">odp/api/spec/queue</text>
<text text-anchor="middle" x="469" y="-421.5" font-family="Helvetica,sans-Serif" font-size="10.00">_types.h</text>
</a>
</g>
</g>
<!-- Node14&#45;&gt;Node16 -->
<g id="edge20" class="edge">
<title>Node14&#45;&gt;Node16</title>
<path fill="none" stroke="midnightblue" d="M469,-481.48C469,-474.47 469,-464.19 469,-454.7"/>
<polygon fill="midnightblue" stroke="midnightblue" points="472.5,-454.52 469,-444.52 465.5,-454.52 472.5,-454.52"/>
</g>
<!-- Node16&#45;&gt;Node2 -->
<g id="edge21" class="edge">
<title>Node16&#45;&gt;Node2</title>
<path fill="none" stroke="midnightblue" d="M428.83,-414.36C375.51,-394.78 279.34,-356.62 204,-311 185.06,-299.53 183,-292.89 165,-280 140.94,-262.77 130.06,-264.78 109,-244 84.35,-219.67 66,-213.64 66,-179 66,-179 66,-179 66,-121 66,-81.28 99.96,-45.5 122.48,-26.15"/>
<polygon fill="midnightblue" stroke="midnightblue" points="124.98,-28.63 130.46,-19.57 120.52,-23.24 124.98,-28.63"/>
</g>
<!-- Node16&#45;&gt;Node13 -->
<g id="edge32" class="edge">
<title>Node16&#45;&gt;Node13</title>
<path fill="none" stroke="midnightblue" d="M524.76,-415.25C609.26,-393.52 760,-347.61 760,-296.5 760,-296.5 760,-296.5 760,-121 760,-80.27 723.41,-44.87 699.12,-25.86"/>
<polygon fill="midnightblue" stroke="midnightblue" points="700.91,-22.82 690.81,-19.61 696.7,-28.42 700.91,-22.82"/>
</g>
<!-- Node17 -->
<g id="node17" class="node">
<title>Node17</title>
<g id="a_node17"><a xlink:href="api_2schedule__types_8h.html" target="_top" xlink:title=" ">
<polygon fill="white" stroke="black" points="399,-353 399,-372 539,-372 539,-353 399,-353"/>
<text text-anchor="middle" x="469" y="-360" font-family="Helvetica,sans-Serif" font-size="10.00">odp/api/schedule_types.h</text>
</a>
</g>
</g>
<!-- Node16&#45;&gt;Node17 -->
<g id="edge22" class="edge">
<title>Node16&#45;&gt;Node17</title>
<path fill="none" stroke="midnightblue" d="M469,-414.4C469,-405.06 469,-392.71 469,-382.52"/>
<polygon fill="midnightblue" stroke="midnightblue" points="472.5,-382.19 469,-372.19 465.5,-382.19 472.5,-382.19"/>
</g>
<!-- Node20 -->
<g id="node20" class="node">
<title>Node20</title>
<g id="a_node20"><a xlink:href="deprecated_8h.html" target="_top" xlink:title=" ">
<polygon fill="white" stroke="black" points="612.5,-224.5 612.5,-243.5 731.5,-243.5 731.5,-224.5 612.5,-224.5"/>
<text text-anchor="middle" x="672" y="-231.5" font-family="Helvetica,sans-Serif" font-size="10.00">odp/api/deprecated.h</text>
</a>
</g>
</g>
<!-- Node16&#45;&gt;Node20 -->
<g id="edge28" class="edge">
<title>Node16&#45;&gt;Node20</title>
<path fill="none" stroke="midnightblue" d="M494.8,-414.49C510.88,-405.17 531.56,-392.09 548,-378 594.62,-338.03 639.25,-280.21 659.96,-251.91"/>
<polygon fill="midnightblue" stroke="midnightblue" points="663.01,-253.66 666.03,-243.5 657.33,-249.56 663.01,-253.66"/>
</g>
<!-- Node18 -->
<g id="node18" class="node">
<title>Node18</title>
<g id="a_node18"><a xlink:title=" ">
<polygon fill="white" stroke="#bfbfbf" points="480.5,-280.5 480.5,-310.5 597.5,-310.5 597.5,-280.5 480.5,-280.5"/>
<text text-anchor="start" x="488.5" y="-298.5" font-family="Helvetica,sans-Serif" font-size="10.00">odp/api/abi/schedule</text>
<text text-anchor="middle" x="539" y="-287.5" font-family="Helvetica,sans-Serif" font-size="10.00">_types.h</text>
</a>
</g>
</g>
<!-- Node17&#45;&gt;Node18 -->
<g id="edge23" class="edge">
<title>Node17&#45;&gt;Node18</title>
<path fill="none" stroke="midnightblue" d="M478.44,-352.73C488.08,-343.78 503.42,-329.54 516.24,-317.63"/>
<polygon fill="midnightblue" stroke="midnightblue" points="518.88,-319.96 523.83,-310.59 514.12,-314.83 518.88,-319.96"/>
</g>
<!-- Node19 -->
<g id="node19" class="node">
<title>Node19</title>
<g id="a_node19"><a xlink:href="api_2spec_2schedule__types_8h.html" target="_top" xlink:title=" ">
<polygon fill="white" stroke="black" points="337.5,-280.5 337.5,-310.5 462.5,-310.5 462.5,-280.5 337.5,-280.5"/>
<text text-anchor="start" x="345.5" y="-298.5" font-family="Helvetica,sans-Serif" font-size="10.00">odp/api/spec/schedule</text>
<text text-anchor="middle" x="400" y="-287.5" font-family="Helvetica,sans-Serif" font-size="10.00">_types.h</text>
</a>
</g>
</g>
<!-- Node17&#45;&gt;Node19 -->
<g id="edge24" class="edge">
<title>Node17&#45;&gt;Node19</title>
<path fill="none" stroke="midnightblue" d="M459.69,-352.73C450.19,-343.78 435.08,-329.54 422.44,-317.63"/>
<polygon fill="midnightblue" stroke="midnightblue" points="424.63,-314.9 414.96,-310.59 419.84,-319.99 424.63,-314.9"/>
</g>
<!-- Node19&#45;&gt;Node2 -->
<g id="edge25" class="edge">
<title>Node19&#45;&gt;Node2</title>
<path fill="none" stroke="midnightblue" d="M340.49,-280.45C264.29,-260.69 142,-222.25 142,-179 142,-179 142,-179 142,-121 142,-88.95 142,-51.64 142,-29.75"/>
<polygon fill="midnightblue" stroke="midnightblue" points="145.5,-29.56 142,-19.56 138.5,-29.56 145.5,-29.56"/>
</g>
<!-- Node19&#45;&gt;Node6 -->
<g id="edge26" class="edge">
<title>Node19&#45;&gt;Node6</title>
<path fill="none" stroke="midnightblue" d="M382.7,-280.4C371.55,-271.31 357.05,-259.49 345.64,-250.19"/>
<polygon fill="midnightblue" stroke="midnightblue" points="347.58,-247.26 337.62,-243.66 343.16,-252.69 347.58,-247.26"/>
</g>
<!-- Node19&#45;&gt;Node13 -->
<g id="edge27" class="edge">
<title>Node19&#45;&gt;Node13</title>
<path fill="none" stroke="midnightblue" d="M456.4,-280.49C495.29,-270.12 542.93,-255.81 560,-244 638.09,-189.97 660.96,-165.74 692,-76 697.36,-60.51 692.46,-42.2 687.04,-28.96"/>
<polygon fill="midnightblue" stroke="midnightblue" points="690.1,-27.24 682.76,-19.59 683.73,-30.14 690.1,-27.24"/>
</g>
<!-- Node21 -->
<g id="node21" class="node">
<title>Node21</title>
<g id="a_node21"><a xlink:href="spec_2deprecated_8h.html" target="_top" xlink:title=" ">
<polygon fill="white" stroke="black" points="504.5,-56.5 504.5,-75.5 649.5,-75.5 649.5,-56.5 504.5,-56.5"/>
<text text-anchor="middle" x="577" y="-63.5" font-family="Helvetica,sans-Serif" font-size="10.00">odp/api/spec/deprecated.h</text>
</a>
</g>
</g>
<!-- Node20&#45;&gt;Node21 -->
<g id="edge29" class="edge">
<title>Node20&#45;&gt;Node21</title>
<path fill="none" stroke="midnightblue" d="M666.89,-224.08C651.81,-197.72 607.26,-119.88 587.11,-84.66"/>
<polygon fill="midnightblue" stroke="midnightblue" points="589.91,-82.51 581.9,-75.57 583.83,-85.99 589.91,-82.51"/>
</g>
<!-- Node21&#45;&gt;Node2 -->
<g id="edge30" class="edge">
<title>Node21&#45;&gt;Node2</title>
<path fill="none" stroke="midnightblue" d="M508.07,-56.44C427.32,-46.42 294.22,-29.9 212.71,-19.78"/>
<polygon fill="midnightblue" stroke="midnightblue" points="212.9,-16.27 202.54,-18.52 212.03,-23.22 212.9,-16.27"/>
</g>
<!-- Node21&#45;&gt;Node13 -->
<g id="edge31" class="edge">
<title>Node21&#45;&gt;Node13</title>
<path fill="none" stroke="midnightblue" d="M593.23,-56.32C609.35,-47.7 634.3,-34.36 652.96,-24.39"/>
<polygon fill="midnightblue" stroke="midnightblue" points="654.64,-27.46 661.81,-19.65 651.34,-21.28 654.64,-27.46"/>
</g>
</g>
</svg>
