<?xml version="1.0" encoding="UTF-8" standalone="no"?>
<!DOCTYPE svg PUBLIC "-//W3C//DTD SVG 1.1//EN"
 "http://www.w3.org/Graphics/SVG/1.1/DTD/svg11.dtd">
<!-- Generated by graphviz version 2.43.0 (0)
 -->
<!-- Title: rwlock.h Pages: 1 -->
<svg width="891pt" height="308pt"
 viewBox="0.00 0.00 891.00 308.00" xmlns="http://www.w3.org/2000/svg" xmlns:xlink="http://www.w3.org/1999/xlink">
<g id="graph0" class="graph" transform="scale(1 1) rotate(0) translate(4 304)">
<title>rwlock.h</title>
<polygon fill="white" stroke="transparent" points="-4,4 -4,-304 887,-304 887,4 -4,4"/>
<!-- Node1 -->
<g id="node1" class="node">
<title>Node1</title>
<g id="a_node1"><a xlink:title=" ">
<polygon fill="#bfbfbf" stroke="black" points="696,-280.5 696,-299.5 754,-299.5 754,-280.5 696,-280.5"/>
<text text-anchor="middle" x="725" y="-287.5" font-family="Helvetica,sans-Serif" font-size="10.00">rwlock.h</text>
</a>
</g>
</g>
<!-- Node2 -->
<g id="node2" class="node">
<title>Node2</title>
<g id="a_node2"><a xlink:href="api_2abi-default_2rwlock__recursive_8h.html" target="_top" xlink:title=" ">
<polygon fill="white" stroke="black" points="441,-224.5 441,-243.5 549,-243.5 549,-224.5 441,-224.5"/>
<text text-anchor="middle" x="495" y="-231.5" font-family="Helvetica,sans-Serif" font-size="10.00">rwlock_recursive.h</text>
</a>
</g>
</g>
<!-- Node1&#45;&gt;Node2 -->
<g id="edge1" class="edge">
<title>Node1&#45;&gt;Node2</title>
<path fill="none" stroke="midnightblue" d="M686,-279.84C642.79,-269.7 573.64,-253.46 531.46,-243.56"/>
<polygon fill="midnightblue" stroke="midnightblue" points="685.34,-283.28 695.87,-282.16 686.94,-276.47 685.34,-283.28"/>
</g>
<!-- Node11 -->
<g id="node11" class="node">
<title>Node11</title>
<g id="a_node11"><a xlink:href="odp__api_8h.html" target="_top" xlink:title=" ">
<polygon fill="white" stroke="black" points="819,-56.5 819,-75.5 883,-75.5 883,-56.5 819,-56.5"/>
<text text-anchor="middle" x="851" y="-63.5" font-family="Helvetica,sans-Serif" font-size="10.00">odp_api.h</text>
</a>
</g>
</g>
<!-- Node1&#45;&gt;Node11 -->
<g id="edge12" class="edge">
<title>Node1&#45;&gt;Node11</title>
<path fill="none" stroke="midnightblue" d="M759.62,-276.62C795.39,-261.74 849.23,-233 873,-188 888.78,-158.13 880.61,-144.91 873,-112 869.86,-98.44 862.05,-84.26 856.64,-75.52"/>
<polygon fill="midnightblue" stroke="midnightblue" points="758.04,-273.48 750.06,-280.45 760.64,-279.98 758.04,-273.48"/>
</g>
<!-- Node3 -->
<g id="node3" class="node">
<title>Node3</title>
<g id="a_node3"><a xlink:href="arch_2arm32-linux_2odp_2api_2abi_2rwlock__recursive_8h_source.html" target="_top" xlink:title=" ">
<polygon fill="white" stroke="black" points="0,-168.5 0,-187.5 108,-187.5 108,-168.5 0,-168.5"/>
<text text-anchor="middle" x="54" y="-175.5" font-family="Helvetica,sans-Serif" font-size="10.00">rwlock_recursive.h</text>
</a>
</g>
</g>
<!-- Node2&#45;&gt;Node3 -->
<g id="edge2" class="edge">
<title>Node2&#45;&gt;Node3</title>
<path fill="none" stroke="midnightblue" d="M430.54,-225.79C355.26,-217.26 226.99,-202.4 117,-188 114.15,-187.63 111.23,-187.24 108.29,-186.84"/>
<polygon fill="midnightblue" stroke="midnightblue" points="430.47,-229.31 440.8,-226.95 431.26,-222.35 430.47,-229.31"/>
</g>
<!-- Node4 -->
<g id="node4" class="node">
<title>Node4</title>
<g id="a_node4"><a xlink:href="arch_2arm64-linux_2odp_2api_2abi_2rwlock__recursive_8h_source.html" target="_top" xlink:title=" ">
<polygon fill="white" stroke="black" points="126,-168.5 126,-187.5 234,-187.5 234,-168.5 126,-168.5"/>
<text text-anchor="middle" x="180" y="-175.5" font-family="Helvetica,sans-Serif" font-size="10.00">rwlock_recursive.h</text>
</a>
</g>
</g>
<!-- Node2&#45;&gt;Node4 -->
<g id="edge3" class="edge">
<title>Node2&#45;&gt;Node4</title>
<path fill="none" stroke="midnightblue" d="M435.08,-222.73C375.55,-212.52 285.34,-197.06 229.68,-187.52"/>
<polygon fill="midnightblue" stroke="midnightblue" points="434.64,-226.2 445.09,-224.44 435.82,-219.3 434.64,-226.2"/>
</g>
<!-- Node5 -->
<g id="node5" class="node">
<title>Node5</title>
<g id="a_node5"><a xlink:href="arch_2default-linux_2odp_2api_2abi_2rwlock__recursive_8h_source.html" target="_top" xlink:title=" ">
<polygon fill="white" stroke="black" points="252,-168.5 252,-187.5 360,-187.5 360,-168.5 252,-168.5"/>
<text text-anchor="middle" x="306" y="-175.5" font-family="Helvetica,sans-Serif" font-size="10.00">rwlock_recursive.h</text>
</a>
</g>
</g>
<!-- Node2&#45;&gt;Node5 -->
<g id="edge4" class="edge">
<title>Node2&#45;&gt;Node5</title>
<path fill="none" stroke="midnightblue" d="M454.99,-221.57C419.33,-211.38 367.96,-196.7 335.81,-187.52"/>
<polygon fill="midnightblue" stroke="midnightblue" points="454.48,-225.06 465.05,-224.44 456.4,-218.33 454.48,-225.06"/>
</g>
<!-- Node6 -->
<g id="node6" class="node">
<title>Node6</title>
<g id="a_node6"><a xlink:href="arch_2mips64-linux_2odp_2api_2abi_2rwlock__recursive_8h_source.html" target="_top" xlink:title=" ">
<polygon fill="white" stroke="black" points="378,-168.5 378,-187.5 486,-187.5 486,-168.5 378,-168.5"/>
<text text-anchor="middle" x="432" y="-175.5" font-family="Helvetica,sans-Serif" font-size="10.00">rwlock_recursive.h</text>
</a>
</g>
</g>
<!-- Node2&#45;&gt;Node6 -->
<g id="edge5" class="edge">
<title>Node2&#45;&gt;Node6</title>
<path fill="none" stroke="midnightblue" d="M476.96,-217.54C465.73,-207.91 451.68,-195.87 442.31,-187.83"/>
<polygon fill="midnightblue" stroke="midnightblue" points="475.01,-220.47 484.88,-224.32 479.56,-215.16 475.01,-220.47"/>
</g>
<!-- Node7 -->
<g id="node7" class="node">
<title>Node7</title>
<g id="a_node7"><a xlink:href="arch_2power64-linux_2odp_2api_2abi_2rwlock__recursive_8h_source.html" target="_top" xlink:title=" ">
<polygon fill="white" stroke="black" points="504,-168.5 504,-187.5 612,-187.5 612,-168.5 504,-168.5"/>
<text text-anchor="middle" x="558" y="-175.5" font-family="Helvetica,sans-Serif" font-size="10.00">rwlock_recursive.h</text>
</a>
</g>
</g>
<!-- Node2&#45;&gt;Node7 -->
<g id="edge6" class="edge">
<title>Node2&#45;&gt;Node7</title>
<path fill="none" stroke="midnightblue" d="M513.04,-217.54C524.27,-207.91 538.32,-195.87 547.69,-187.83"/>
<polygon fill="midnightblue" stroke="midnightblue" points="510.44,-215.16 505.12,-224.32 514.99,-220.47 510.44,-215.16"/>
</g>
<!-- Node8 -->
<g id="node8" class="node">
<title>Node8</title>
<g id="a_node8"><a xlink:href="arch_2x86__32-linux_2odp_2api_2abi_2rwlock__recursive_8h_source.html" target="_top" xlink:title=" ">
<polygon fill="white" stroke="black" points="630,-168.5 630,-187.5 738,-187.5 738,-168.5 630,-168.5"/>
<text text-anchor="middle" x="684" y="-175.5" font-family="Helvetica,sans-Serif" font-size="10.00">rwlock_recursive.h</text>
</a>
</g>
</g>
<!-- Node2&#45;&gt;Node8 -->
<g id="edge7" class="edge">
<title>Node2&#45;&gt;Node8</title>
<path fill="none" stroke="midnightblue" d="M535.01,-221.57C570.67,-211.38 622.04,-196.7 654.19,-187.52"/>
<polygon fill="midnightblue" stroke="midnightblue" points="533.6,-218.33 524.95,-224.44 535.52,-225.06 533.6,-218.33"/>
</g>
<!-- Node9 -->
<g id="node9" class="node">
<title>Node9</title>
<g id="a_node9"><a xlink:href="arch_2x86__64-linux_2odp_2api_2abi_2rwlock__recursive_8h_source.html" target="_top" xlink:title=" ">
<polygon fill="white" stroke="black" points="756,-168.5 756,-187.5 864,-187.5 864,-168.5 756,-168.5"/>
<text text-anchor="middle" x="810" y="-175.5" font-family="Helvetica,sans-Serif" font-size="10.00">rwlock_recursive.h</text>
</a>
</g>
</g>
<!-- Node2&#45;&gt;Node9 -->
<g id="edge8" class="edge">
<title>Node2&#45;&gt;Node9</title>
<path fill="none" stroke="midnightblue" d="M554.92,-222.73C614.45,-212.52 704.66,-197.06 760.32,-187.52"/>
<polygon fill="midnightblue" stroke="midnightblue" points="554.18,-219.3 544.91,-224.44 555.36,-226.2 554.18,-219.3"/>
</g>
<!-- Node10 -->
<g id="node10" class="node">
<title>Node10</title>
<g id="a_node10"><a xlink:href="api_2rwlock__recursive_8h.html" target="_top" xlink:title=" ">
<polygon fill="white" stroke="black" points="756,-112.5 756,-131.5 864,-131.5 864,-112.5 756,-112.5"/>
<text text-anchor="middle" x="810" y="-119.5" font-family="Helvetica,sans-Serif" font-size="10.00">rwlock_recursive.h</text>
</a>
</g>
</g>
<!-- Node9&#45;&gt;Node10 -->
<g id="edge9" class="edge">
<title>Node9&#45;&gt;Node10</title>
<path fill="none" stroke="midnightblue" d="M810,-157.8C810,-148.91 810,-138.78 810,-131.75"/>
<polygon fill="midnightblue" stroke="midnightblue" points="806.5,-158.08 810,-168.08 813.5,-158.08 806.5,-158.08"/>
</g>
<!-- Node10&#45;&gt;Node11 -->
<g id="edge10" class="edge">
<title>Node10&#45;&gt;Node11</title>
<path fill="none" stroke="midnightblue" d="M823.02,-103.86C830.12,-94.5 838.6,-83.33 844.36,-75.75"/>
<polygon fill="midnightblue" stroke="midnightblue" points="820.03,-102 816.77,-112.08 825.61,-106.24 820.03,-102"/>
</g>
<!-- Node12 -->
<g id="node12" class="node">
<title>Node12</title>
<g id="a_node12"><a xlink:href="odp_8h.html" target="_top" xlink:title=" ">
<polygon fill="white" stroke="black" points="829,-0.5 829,-19.5 873,-19.5 873,-0.5 829,-0.5"/>
<text text-anchor="middle" x="851" y="-7.5" font-family="Helvetica,sans-Serif" font-size="10.00">odp.h</text>
</a>
</g>
</g>
<!-- Node11&#45;&gt;Node12 -->
<g id="edge11" class="edge">
<title>Node11&#45;&gt;Node12</title>
<path fill="none" stroke="midnightblue" d="M851,-45.8C851,-36.91 851,-26.78 851,-19.75"/>
<polygon fill="midnightblue" stroke="midnightblue" points="847.5,-46.08 851,-56.08 854.5,-46.08 847.5,-46.08"/>
</g>
</g>
</svg>
