<?xml version="1.0" encoding="UTF-8" standalone="no"?>
<!DOCTYPE svg PUBLIC "-//W3C//DTD SVG 1.1//EN"
 "http://www.w3.org/Graphics/SVG/1.1/DTD/svg11.dtd">
<!-- Generated by graphviz version 2.43.0 (0)
 -->
<!-- Title: init.h Pages: 1 -->
<svg width="415pt" height="364pt"
 viewBox="0.00 0.00 414.50 364.00" xmlns="http://www.w3.org/2000/svg" xmlns:xlink="http://www.w3.org/1999/xlink">
<g id="graph0" class="graph" transform="scale(1 1) rotate(0) translate(4 360)">
<title>init.h</title>
<polygon fill="white" stroke="transparent" points="-4,4 -4,-360 410.5,-360 410.5,4 -4,4"/>
<!-- Node1 -->
<g id="node1" class="node">
<title>Node1</title>
<g id="a_node1"><a xlink:title=" ">
<polygon fill="#bfbfbf" stroke="black" points="177,-336.5 177,-355.5 218,-355.5 218,-336.5 177,-336.5"/>
<text text-anchor="middle" x="197.5" y="-343.5" font-family="Helvetica,sans-Serif" font-size="10.00">init.h</text>
</a>
</g>
</g>
<!-- Node2 -->
<g id="node2" class="node">
<title>Node2</title>
<g id="a_node2"><a xlink:href="arch_2arm32-linux_2odp_2api_2abi_2init_8h_source.html" target="_top" xlink:title=" ">
<polygon fill="white" stroke="black" points="0,-280.5 0,-299.5 41,-299.5 41,-280.5 0,-280.5"/>
<text text-anchor="middle" x="20.5" y="-287.5" font-family="Helvetica,sans-Serif" font-size="10.00">init.h</text>
</a>
</g>
</g>
<!-- Node1&#45;&gt;Node2 -->
<g id="edge1" class="edge">
<title>Node1&#45;&gt;Node2</title>
<path fill="none" stroke="midnightblue" d="M166.89,-335.66C130.85,-324.67 71.98,-306.71 41.02,-297.26"/>
<polygon fill="midnightblue" stroke="midnightblue" points="166.26,-339.13 176.85,-338.7 168.31,-332.43 166.26,-339.13"/>
</g>
<!-- Node3 -->
<g id="node3" class="node">
<title>Node3</title>
<g id="a_node3"><a xlink:href="arch_2arm64-linux_2odp_2api_2abi_2init_8h_source.html" target="_top" xlink:title=" ">
<polygon fill="white" stroke="black" points="59,-280.5 59,-299.5 100,-299.5 100,-280.5 59,-280.5"/>
<text text-anchor="middle" x="79.5" y="-287.5" font-family="Helvetica,sans-Serif" font-size="10.00">init.h</text>
</a>
</g>
</g>
<!-- Node1&#45;&gt;Node3 -->
<g id="edge2" class="edge">
<title>Node1&#45;&gt;Node3</title>
<path fill="none" stroke="midnightblue" d="M169.6,-332.23C147.53,-322.13 117.32,-308.31 98.11,-299.52"/>
<polygon fill="midnightblue" stroke="midnightblue" points="168.25,-335.46 178.8,-336.44 171.17,-329.1 168.25,-335.46"/>
</g>
<!-- Node4 -->
<g id="node4" class="node">
<title>Node4</title>
<g id="a_node4"><a xlink:href="arch_2default-linux_2odp_2api_2abi_2init_8h_source.html" target="_top" xlink:title=" ">
<polygon fill="white" stroke="black" points="118,-280.5 118,-299.5 159,-299.5 159,-280.5 118,-280.5"/>
<text text-anchor="middle" x="138.5" y="-287.5" font-family="Helvetica,sans-Serif" font-size="10.00">init.h</text>
</a>
</g>
</g>
<!-- Node1&#45;&gt;Node4 -->
<g id="edge3" class="edge">
<title>Node1&#45;&gt;Node4</title>
<path fill="none" stroke="midnightblue" d="M180.61,-329.54C170.09,-319.91 156.93,-307.87 148.15,-299.83"/>
<polygon fill="midnightblue" stroke="midnightblue" points="178.28,-332.15 188.02,-336.32 183.01,-326.99 178.28,-332.15"/>
</g>
<!-- Node5 -->
<g id="node5" class="node">
<title>Node5</title>
<g id="a_node5"><a xlink:href="arch_2mips64-linux_2odp_2api_2abi_2init_8h_source.html" target="_top" xlink:title=" ">
<polygon fill="white" stroke="black" points="177,-280.5 177,-299.5 218,-299.5 218,-280.5 177,-280.5"/>
<text text-anchor="middle" x="197.5" y="-287.5" font-family="Helvetica,sans-Serif" font-size="10.00">init.h</text>
</a>
</g>
</g>
<!-- Node1&#45;&gt;Node5 -->
<g id="edge4" class="edge">
<title>Node1&#45;&gt;Node5</title>
<path fill="none" stroke="midnightblue" d="M197.5,-325.8C197.5,-316.91 197.5,-306.78 197.5,-299.75"/>
<polygon fill="midnightblue" stroke="midnightblue" points="194,-326.08 197.5,-336.08 201,-326.08 194,-326.08"/>
</g>
<!-- Node6 -->
<g id="node6" class="node">
<title>Node6</title>
<g id="a_node6"><a xlink:href="arch_2power64-linux_2odp_2api_2abi_2init_8h_source.html" target="_top" xlink:title=" ">
<polygon fill="white" stroke="black" points="236,-280.5 236,-299.5 277,-299.5 277,-280.5 236,-280.5"/>
<text text-anchor="middle" x="256.5" y="-287.5" font-family="Helvetica,sans-Serif" font-size="10.00">init.h</text>
</a>
</g>
</g>
<!-- Node1&#45;&gt;Node6 -->
<g id="edge5" class="edge">
<title>Node1&#45;&gt;Node6</title>
<path fill="none" stroke="midnightblue" d="M214.39,-329.54C224.91,-319.91 238.07,-307.87 246.85,-299.83"/>
<polygon fill="midnightblue" stroke="midnightblue" points="211.99,-326.99 206.98,-336.32 216.72,-332.15 211.99,-326.99"/>
</g>
<!-- Node7 -->
<g id="node7" class="node">
<title>Node7</title>
<g id="a_node7"><a xlink:href="arch_2x86__32-linux_2odp_2api_2abi_2init_8h_source.html" target="_top" xlink:title=" ">
<polygon fill="white" stroke="black" points="295,-280.5 295,-299.5 336,-299.5 336,-280.5 295,-280.5"/>
<text text-anchor="middle" x="315.5" y="-287.5" font-family="Helvetica,sans-Serif" font-size="10.00">init.h</text>
</a>
</g>
</g>
<!-- Node1&#45;&gt;Node7 -->
<g id="edge6" class="edge">
<title>Node1&#45;&gt;Node7</title>
<path fill="none" stroke="midnightblue" d="M225.4,-332.23C247.47,-322.13 277.68,-308.31 296.89,-299.52"/>
<polygon fill="midnightblue" stroke="midnightblue" points="223.83,-329.1 216.2,-336.44 226.75,-335.46 223.83,-329.1"/>
</g>
<!-- Node8 -->
<g id="node8" class="node">
<title>Node8</title>
<g id="a_node8"><a xlink:href="arch_2x86__64-linux_2odp_2api_2abi_2init_8h_source.html" target="_top" xlink:title=" ">
<polygon fill="white" stroke="black" points="354,-280.5 354,-299.5 395,-299.5 395,-280.5 354,-280.5"/>
<text text-anchor="middle" x="374.5" y="-287.5" font-family="Helvetica,sans-Serif" font-size="10.00">init.h</text>
</a>
</g>
</g>
<!-- Node1&#45;&gt;Node8 -->
<g id="edge7" class="edge">
<title>Node1&#45;&gt;Node8</title>
<path fill="none" stroke="midnightblue" d="M227.94,-335.8C257.87,-326.74 304.85,-312.49 345.5,-300 348.22,-299.16 351.08,-298.28 353.91,-297.41"/>
<polygon fill="midnightblue" stroke="midnightblue" points="226.66,-332.53 218.1,-338.78 228.69,-339.23 226.66,-332.53"/>
</g>
<!-- Node9 -->
<g id="node9" class="node">
<title>Node9</title>
<g id="a_node9"><a xlink:href="api_2init_8h.html" target="_top" xlink:title=" ">
<polygon fill="white" stroke="black" points="354,-224.5 354,-243.5 395,-243.5 395,-224.5 354,-224.5"/>
<text text-anchor="middle" x="374.5" y="-231.5" font-family="Helvetica,sans-Serif" font-size="10.00">init.h</text>
</a>
</g>
</g>
<!-- Node8&#45;&gt;Node9 -->
<g id="edge8" class="edge">
<title>Node8&#45;&gt;Node9</title>
<path fill="none" stroke="midnightblue" d="M374.5,-269.8C374.5,-260.91 374.5,-250.78 374.5,-243.75"/>
<polygon fill="midnightblue" stroke="midnightblue" points="371,-270.08 374.5,-280.08 378,-270.08 371,-270.08"/>
</g>
<!-- Node10 -->
<g id="node10" class="node">
<title>Node10</title>
<g id="a_node10"><a xlink:href="api_2spec_2shared__memory_8h.html" target="_top" xlink:title=" ">
<polygon fill="white" stroke="black" points="282.5,-168.5 282.5,-187.5 386.5,-187.5 386.5,-168.5 282.5,-168.5"/>
<text text-anchor="middle" x="334.5" y="-175.5" font-family="Helvetica,sans-Serif" font-size="10.00">shared_memory.h</text>
</a>
</g>
</g>
<!-- Node9&#45;&gt;Node10 -->
<g id="edge9" class="edge">
<title>Node9&#45;&gt;Node10</title>
<path fill="none" stroke="midnightblue" d="M361.8,-215.86C354.87,-206.5 346.59,-195.33 340.98,-187.75"/>
<polygon fill="midnightblue" stroke="midnightblue" points="359.13,-218.13 367.89,-224.08 364.75,-213.96 359.13,-218.13"/>
</g>
<!-- Node12 -->
<g id="node12" class="node">
<title>Node12</title>
<g id="a_node12"><a xlink:href="odp__api_8h.html" target="_top" xlink:title=" ">
<polygon fill="white" stroke="black" points="342.5,-56.5 342.5,-75.5 406.5,-75.5 406.5,-56.5 342.5,-56.5"/>
<text text-anchor="middle" x="374.5" y="-63.5" font-family="Helvetica,sans-Serif" font-size="10.00">odp_api.h</text>
</a>
</g>
</g>
<!-- Node9&#45;&gt;Node12 -->
<g id="edge13" class="edge">
<title>Node9&#45;&gt;Node12</title>
<path fill="none" stroke="midnightblue" d="M384.78,-215.63C388.99,-207.52 393.38,-197.57 395.5,-188 402.82,-155.02 402.82,-144.98 395.5,-112 392.51,-98.53 385.06,-84.32 379.88,-75.56"/>
<polygon fill="midnightblue" stroke="midnightblue" points="381.68,-214 379.88,-224.44 387.8,-217.4 381.68,-214"/>
</g>
<!-- Node11 -->
<g id="node11" class="node">
<title>Node11</title>
<g id="a_node11"><a xlink:href="api_2shared__memory_8h.html" target="_top" xlink:title=" ">
<polygon fill="white" stroke="black" points="282.5,-112.5 282.5,-131.5 386.5,-131.5 386.5,-112.5 282.5,-112.5"/>
<text text-anchor="middle" x="334.5" y="-119.5" font-family="Helvetica,sans-Serif" font-size="10.00">shared_memory.h</text>
</a>
</g>
</g>
<!-- Node10&#45;&gt;Node11 -->
<g id="edge10" class="edge">
<title>Node10&#45;&gt;Node11</title>
<path fill="none" stroke="midnightblue" d="M334.5,-157.8C334.5,-148.91 334.5,-138.78 334.5,-131.75"/>
<polygon fill="midnightblue" stroke="midnightblue" points="331,-158.08 334.5,-168.08 338,-158.08 331,-158.08"/>
</g>
<!-- Node11&#45;&gt;Node12 -->
<g id="edge11" class="edge">
<title>Node11&#45;&gt;Node12</title>
<path fill="none" stroke="midnightblue" d="M347.2,-103.86C354.13,-94.5 362.41,-83.33 368.02,-75.75"/>
<polygon fill="midnightblue" stroke="midnightblue" points="344.25,-101.96 341.11,-112.08 349.87,-106.13 344.25,-101.96"/>
</g>
<!-- Node13 -->
<g id="node13" class="node">
<title>Node13</title>
<g id="a_node13"><a xlink:href="odp_8h.html" target="_top" xlink:title=" ">
<polygon fill="white" stroke="black" points="352.5,-0.5 352.5,-19.5 396.5,-19.5 396.5,-0.5 352.5,-0.5"/>
<text text-anchor="middle" x="374.5" y="-7.5" font-family="Helvetica,sans-Serif" font-size="10.00">odp.h</text>
</a>
</g>
</g>
<!-- Node12&#45;&gt;Node13 -->
<g id="edge12" class="edge">
<title>Node12&#45;&gt;Node13</title>
<path fill="none" stroke="midnightblue" d="M374.5,-45.8C374.5,-36.91 374.5,-26.78 374.5,-19.75"/>
<polygon fill="midnightblue" stroke="midnightblue" points="371,-46.08 374.5,-56.08 378,-46.08 371,-46.08"/>
</g>
</g>
</svg>
