<?xml version="1.0" encoding="UTF-8" standalone="no"?>
<!DOCTYPE svg PUBLIC "-//W3C//DTD SVG 1.1//EN"
 "http://www.w3.org/Graphics/SVG/1.1/DTD/svg11.dtd">
<!-- Generated by graphviz version 2.43.0 (0)
 -->
<!-- Title: thrmask.h Pages: 1 -->
<svg width="578pt" height="364pt"
 viewBox="0.00 0.00 578.00 364.00" xmlns="http://www.w3.org/2000/svg" xmlns:xlink="http://www.w3.org/1999/xlink">
<g id="graph0" class="graph" transform="scale(1 1) rotate(0) translate(4 360)">
<title>thrmask.h</title>
<polygon fill="white" stroke="transparent" points="-4,4 -4,-360 574,-360 574,4 -4,4"/>
<!-- Node1 -->
<g id="node1" class="node">
<title>Node1</title>
<g id="a_node1"><a xlink:title=" ">
<polygon fill="#bfbfbf" stroke="black" points="252,-336.5 252,-355.5 318,-355.5 318,-336.5 252,-336.5"/>
<text text-anchor="middle" x="285" y="-343.5" font-family="Helvetica,sans-Serif" font-size="10.00">thrmask.h</text>
</a>
</g>
</g>
<!-- Node2 -->
<g id="node2" class="node">
<title>Node2</title>
<g id="a_node2"><a xlink:href="arch_2arm32-linux_2odp_2api_2abi_2thrmask_8h_source.html" target="_top" xlink:title=" ">
<polygon fill="white" stroke="black" points="0,-280.5 0,-299.5 66,-299.5 66,-280.5 0,-280.5"/>
<text text-anchor="middle" x="33" y="-287.5" font-family="Helvetica,sans-Serif" font-size="10.00">thrmask.h</text>
</a>
</g>
</g>
<!-- Node1&#45;&gt;Node2 -->
<g id="edge1" class="edge">
<title>Node1&#45;&gt;Node2</title>
<path fill="none" stroke="midnightblue" d="M241.98,-335.78C192.25,-325.12 111.45,-307.81 66.28,-298.13"/>
<polygon fill="midnightblue" stroke="midnightblue" points="241.28,-339.21 251.8,-337.88 242.75,-332.37 241.28,-339.21"/>
</g>
<!-- Node3 -->
<g id="node3" class="node">
<title>Node3</title>
<g id="a_node3"><a xlink:href="arch_2arm64-linux_2odp_2api_2abi_2thrmask_8h_source.html" target="_top" xlink:title=" ">
<polygon fill="white" stroke="black" points="84,-280.5 84,-299.5 150,-299.5 150,-280.5 84,-280.5"/>
<text text-anchor="middle" x="117" y="-287.5" font-family="Helvetica,sans-Serif" font-size="10.00">thrmask.h</text>
</a>
</g>
</g>
<!-- Node1&#45;&gt;Node3 -->
<g id="edge2" class="edge">
<title>Node1&#45;&gt;Node3</title>
<path fill="none" stroke="midnightblue" d="M248.61,-333.3C216.96,-323.13 171.83,-308.62 143.5,-299.52"/>
<polygon fill="midnightblue" stroke="midnightblue" points="247.79,-336.72 258.38,-336.44 249.93,-330.05 247.79,-336.72"/>
</g>
<!-- Node4 -->
<g id="node4" class="node">
<title>Node4</title>
<g id="a_node4"><a xlink:href="arch_2default-linux_2odp_2api_2abi_2thrmask_8h_source.html" target="_top" xlink:title=" ">
<polygon fill="white" stroke="black" points="168,-280.5 168,-299.5 234,-299.5 234,-280.5 168,-280.5"/>
<text text-anchor="middle" x="201" y="-287.5" font-family="Helvetica,sans-Serif" font-size="10.00">thrmask.h</text>
</a>
</g>
</g>
<!-- Node1&#45;&gt;Node4 -->
<g id="edge3" class="edge">
<title>Node1&#45;&gt;Node4</title>
<path fill="none" stroke="midnightblue" d="M263.07,-330.9C247.66,-321 227.55,-308.07 214.46,-299.65"/>
<polygon fill="midnightblue" stroke="midnightblue" points="261.2,-333.86 271.5,-336.32 264.98,-327.97 261.2,-333.86"/>
</g>
<!-- Node5 -->
<g id="node5" class="node">
<title>Node5</title>
<g id="a_node5"><a xlink:href="arch_2mips64-linux_2odp_2api_2abi_2thrmask_8h_source.html" target="_top" xlink:title=" ">
<polygon fill="white" stroke="black" points="252,-280.5 252,-299.5 318,-299.5 318,-280.5 252,-280.5"/>
<text text-anchor="middle" x="285" y="-287.5" font-family="Helvetica,sans-Serif" font-size="10.00">thrmask.h</text>
</a>
</g>
</g>
<!-- Node1&#45;&gt;Node5 -->
<g id="edge4" class="edge">
<title>Node1&#45;&gt;Node5</title>
<path fill="none" stroke="midnightblue" d="M285,-325.8C285,-316.91 285,-306.78 285,-299.75"/>
<polygon fill="midnightblue" stroke="midnightblue" points="281.5,-326.08 285,-336.08 288.5,-326.08 281.5,-326.08"/>
</g>
<!-- Node6 -->
<g id="node6" class="node">
<title>Node6</title>
<g id="a_node6"><a xlink:href="arch_2power64-linux_2odp_2api_2abi_2thrmask_8h_source.html" target="_top" xlink:title=" ">
<polygon fill="white" stroke="black" points="336,-280.5 336,-299.5 402,-299.5 402,-280.5 336,-280.5"/>
<text text-anchor="middle" x="369" y="-287.5" font-family="Helvetica,sans-Serif" font-size="10.00">thrmask.h</text>
</a>
</g>
</g>
<!-- Node1&#45;&gt;Node6 -->
<g id="edge5" class="edge">
<title>Node1&#45;&gt;Node6</title>
<path fill="none" stroke="midnightblue" d="M306.93,-330.9C322.34,-321 342.45,-308.07 355.54,-299.65"/>
<polygon fill="midnightblue" stroke="midnightblue" points="305.02,-327.97 298.5,-336.32 308.8,-333.86 305.02,-327.97"/>
</g>
<!-- Node7 -->
<g id="node7" class="node">
<title>Node7</title>
<g id="a_node7"><a xlink:href="arch_2x86__32-linux_2odp_2api_2abi_2thrmask_8h_source.html" target="_top" xlink:title=" ">
<polygon fill="white" stroke="black" points="420,-280.5 420,-299.5 486,-299.5 486,-280.5 420,-280.5"/>
<text text-anchor="middle" x="453" y="-287.5" font-family="Helvetica,sans-Serif" font-size="10.00">thrmask.h</text>
</a>
</g>
</g>
<!-- Node1&#45;&gt;Node7 -->
<g id="edge6" class="edge">
<title>Node1&#45;&gt;Node7</title>
<path fill="none" stroke="midnightblue" d="M321.39,-333.3C353.04,-323.13 398.17,-308.62 426.5,-299.52"/>
<polygon fill="midnightblue" stroke="midnightblue" points="320.07,-330.05 311.62,-336.44 322.21,-336.72 320.07,-330.05"/>
</g>
<!-- Node8 -->
<g id="node8" class="node">
<title>Node8</title>
<g id="a_node8"><a xlink:href="arch_2x86__64-linux_2odp_2api_2abi_2thrmask_8h_source.html" target="_top" xlink:title=" ">
<polygon fill="white" stroke="black" points="504,-280.5 504,-299.5 570,-299.5 570,-280.5 504,-280.5"/>
<text text-anchor="middle" x="537" y="-287.5" font-family="Helvetica,sans-Serif" font-size="10.00">thrmask.h</text>
</a>
</g>
</g>
<!-- Node1&#45;&gt;Node8 -->
<g id="edge7" class="edge">
<title>Node1&#45;&gt;Node8</title>
<path fill="none" stroke="midnightblue" d="M328.02,-335.78C377.75,-325.12 458.55,-307.81 503.72,-298.13"/>
<polygon fill="midnightblue" stroke="midnightblue" points="327.25,-332.37 318.2,-337.88 328.72,-339.21 327.25,-332.37"/>
</g>
<!-- Node9 -->
<g id="node9" class="node">
<title>Node9</title>
<g id="a_node9"><a xlink:href="api_2thrmask_8h.html" target="_top" xlink:title=" ">
<polygon fill="white" stroke="black" points="504,-224.5 504,-243.5 570,-243.5 570,-224.5 504,-224.5"/>
<text text-anchor="middle" x="537" y="-231.5" font-family="Helvetica,sans-Serif" font-size="10.00">thrmask.h</text>
</a>
</g>
</g>
<!-- Node8&#45;&gt;Node9 -->
<g id="edge8" class="edge">
<title>Node8&#45;&gt;Node9</title>
<path fill="none" stroke="midnightblue" d="M537,-269.8C537,-260.91 537,-250.78 537,-243.75"/>
<polygon fill="midnightblue" stroke="midnightblue" points="533.5,-270.08 537,-280.08 540.5,-270.08 533.5,-270.08"/>
</g>
<!-- Node10 -->
<g id="node10" class="node">
<title>Node10</title>
<g id="a_node10"><a xlink:href="api_2spec_2schedule_8h.html" target="_top" xlink:title=" ">
<polygon fill="white" stroke="black" points="471.5,-168.5 471.5,-187.5 540.5,-187.5 540.5,-168.5 471.5,-168.5"/>
<text text-anchor="middle" x="506" y="-175.5" font-family="Helvetica,sans-Serif" font-size="10.00">schedule.h</text>
</a>
</g>
</g>
<!-- Node9&#45;&gt;Node10 -->
<g id="edge9" class="edge">
<title>Node9&#45;&gt;Node10</title>
<path fill="none" stroke="midnightblue" d="M526.82,-215.27C521.53,-206.05 515.28,-195.17 511.02,-187.75"/>
<polygon fill="midnightblue" stroke="midnightblue" points="523.87,-217.15 531.88,-224.08 529.94,-213.67 523.87,-217.15"/>
</g>
<!-- Node12 -->
<g id="node12" class="node">
<title>Node12</title>
<g id="a_node12"><a xlink:href="odp__api_8h.html" target="_top" xlink:title=" ">
<polygon fill="white" stroke="black" points="505,-56.5 505,-75.5 569,-75.5 569,-56.5 505,-56.5"/>
<text text-anchor="middle" x="537" y="-63.5" font-family="Helvetica,sans-Serif" font-size="10.00">odp_api.h</text>
</a>
</g>
</g>
<!-- Node9&#45;&gt;Node12 -->
<g id="edge13" class="edge">
<title>Node9&#45;&gt;Node12</title>
<path fill="none" stroke="midnightblue" d="M543.55,-214.7C546.11,-206.63 548.73,-196.96 550,-188 554.73,-154.56 554.73,-145.44 550,-112 548.18,-99.12 543.55,-84.76 540.34,-75.8"/>
<polygon fill="midnightblue" stroke="midnightblue" points="540.23,-213.6 540.34,-224.2 546.86,-215.84 540.23,-213.6"/>
</g>
<!-- Node11 -->
<g id="node11" class="node">
<title>Node11</title>
<g id="a_node11"><a xlink:href="api_2schedule_8h.html" target="_top" xlink:title=" ">
<polygon fill="white" stroke="black" points="471.5,-112.5 471.5,-131.5 540.5,-131.5 540.5,-112.5 471.5,-112.5"/>
<text text-anchor="middle" x="506" y="-119.5" font-family="Helvetica,sans-Serif" font-size="10.00">schedule.h</text>
</a>
</g>
</g>
<!-- Node10&#45;&gt;Node11 -->
<g id="edge10" class="edge">
<title>Node10&#45;&gt;Node11</title>
<path fill="none" stroke="midnightblue" d="M506,-157.8C506,-148.91 506,-138.78 506,-131.75"/>
<polygon fill="midnightblue" stroke="midnightblue" points="502.5,-158.08 506,-168.08 509.5,-158.08 502.5,-158.08"/>
</g>
<!-- Node11&#45;&gt;Node12 -->
<g id="edge11" class="edge">
<title>Node11&#45;&gt;Node12</title>
<path fill="none" stroke="midnightblue" d="M516.18,-103.27C521.47,-94.05 527.72,-83.17 531.98,-75.75"/>
<polygon fill="midnightblue" stroke="midnightblue" points="513.06,-101.67 511.12,-112.08 519.13,-105.15 513.06,-101.67"/>
</g>
<!-- Node13 -->
<g id="node13" class="node">
<title>Node13</title>
<g id="a_node13"><a xlink:href="odp_8h.html" target="_top" xlink:title=" ">
<polygon fill="white" stroke="black" points="515,-0.5 515,-19.5 559,-19.5 559,-0.5 515,-0.5"/>
<text text-anchor="middle" x="537" y="-7.5" font-family="Helvetica,sans-Serif" font-size="10.00">odp.h</text>
</a>
</g>
</g>
<!-- Node12&#45;&gt;Node13 -->
<g id="edge12" class="edge">
<title>Node12&#45;&gt;Node13</title>
<path fill="none" stroke="midnightblue" d="M537,-45.8C537,-36.91 537,-26.78 537,-19.75"/>
<polygon fill="midnightblue" stroke="midnightblue" points="533.5,-46.08 537,-56.08 540.5,-46.08 533.5,-46.08"/>
</g>
</g>
</svg>
