<?xml version="1.0" encoding="UTF-8" standalone="no"?>
<!DOCTYPE svg PUBLIC "-//W3C//DTD SVG 1.1//EN"
 "http://www.w3.org/Graphics/SVG/1.1/DTD/svg11.dtd">
<!-- Generated by graphviz version 2.43.0 (0)
 -->
<!-- Title: std_types.h Pages: 1 -->
<svg width="3094pt" height="252pt"
 viewBox="0.00 0.00 3094.00 252.00" xmlns="http://www.w3.org/2000/svg" xmlns:xlink="http://www.w3.org/1999/xlink">
<g id="graph0" class="graph" transform="scale(1 1) rotate(0) translate(4 248)">
<title>std_types.h</title>
<polygon fill="white" stroke="transparent" points="-4,4 -4,-248 3090,-248 3090,4 -4,4"/>
<!-- Node1 -->
<g id="node1" class="node">
<title>Node1</title>
<g id="a_node1"><a xlink:title=" ">
<polygon fill="#bfbfbf" stroke="black" points="1674,-224.5 1674,-243.5 1747,-243.5 1747,-224.5 1674,-224.5"/>
<text text-anchor="middle" x="1710.5" y="-231.5" font-family="Helvetica,sans-Serif" font-size="10.00">std_types.h</text>
</a>
</g>
</g>
<!-- Node2 -->
<g id="node2" class="node">
<title>Node2</title>
<g id="a_node2"><a xlink:href="api_2abi-default_2atomic_8h.html" target="_top" xlink:title=" ">
<polygon fill="white" stroke="black" points="231,-168.5 231,-187.5 290,-187.5 290,-168.5 231,-168.5"/>
<text text-anchor="middle" x="260.5" y="-175.5" font-family="Helvetica,sans-Serif" font-size="10.00">atomic.h</text>
</a>
</g>
</g>
<!-- Node1&#45;&gt;Node2 -->
<g id="edge1" class="edge">
<title>Node1&#45;&gt;Node2</title>
<path fill="none" stroke="midnightblue" d="M1663.56,-232.77C1450.28,-231.53 571.21,-224.27 298.5,-188 295.81,-187.64 293.04,-187.18 290.27,-186.65"/>
<polygon fill="midnightblue" stroke="midnightblue" points="1663.77,-236.27 1673.79,-232.83 1663.81,-229.27 1663.77,-236.27"/>
</g>
<!-- Node11 -->
<g id="node10" class="node">
<title>Node11</title>
<g id="a_node10"><a xlink:href="api_2abi-default_2barrier_8h.html" target="_top" xlink:title=" ">
<polygon fill="white" stroke="red" points="308,-168.5 308,-187.5 365,-187.5 365,-168.5 308,-168.5"/>
<text text-anchor="middle" x="336.5" y="-175.5" font-family="Helvetica,sans-Serif" font-size="10.00">barrier.h</text>
</a>
</g>
</g>
<!-- Node1&#45;&gt;Node11 -->
<g id="edge9" class="edge">
<title>Node1&#45;&gt;Node11</title>
<path fill="none" stroke="midnightblue" d="M1663.77,-232.67C1458,-231.04 631.54,-222.42 374.5,-188 371.41,-187.59 368.2,-187.03 365.02,-186.4"/>
<polygon fill="midnightblue" stroke="midnightblue" points="1663.91,-236.17 1673.93,-232.75 1663.96,-229.17 1663.91,-236.17"/>
</g>
<!-- Node49 -->
<g id="node11" class="node">
<title>Node49</title>
<g id="a_node11"><a xlink:href="api_2abi-default_2byteorder_8h.html" target="_top" xlink:title=" ">
<polygon fill="white" stroke="red" points="383.5,-168.5 383.5,-187.5 455.5,-187.5 455.5,-168.5 383.5,-168.5"/>
<text text-anchor="middle" x="419.5" y="-175.5" font-family="Helvetica,sans-Serif" font-size="10.00">byteorder.h</text>
</a>
</g>
</g>
<!-- Node1&#45;&gt;Node49 -->
<g id="edge10" class="edge">
<title>Node1&#45;&gt;Node49</title>
<path fill="none" stroke="midnightblue" d="M1663.76,-232.32C1466.77,-229.31 703.43,-216.02 464.5,-188 461.65,-187.67 458.71,-187.25 455.77,-186.78"/>
<polygon fill="midnightblue" stroke="midnightblue" points="1663.73,-235.82 1673.78,-232.47 1663.84,-228.82 1663.73,-235.82"/>
</g>
<!-- Node58 -->
<g id="node12" class="node">
<title>Node58</title>
<g id="a_node12"><a xlink:href="api_2abi-default_2cpumask_8h.html" target="_top" xlink:title=" ">
<polygon fill="white" stroke="red" points="473.5,-168.5 473.5,-187.5 543.5,-187.5 543.5,-168.5 473.5,-168.5"/>
<text text-anchor="middle" x="508.5" y="-175.5" font-family="Helvetica,sans-Serif" font-size="10.00">cpumask.h</text>
</a>
</g>
</g>
<!-- Node1&#45;&gt;Node58 -->
<g id="edge11" class="edge">
<title>Node1&#45;&gt;Node58</title>
<path fill="none" stroke="midnightblue" d="M1663.73,-232.2C1475.52,-228.83 773.16,-214.67 552.5,-188 549.71,-187.66 546.84,-187.24 543.96,-186.77"/>
<polygon fill="midnightblue" stroke="midnightblue" points="1663.78,-235.7 1673.84,-232.38 1663.91,-228.7 1663.78,-235.7"/>
</g>
<!-- Node82 -->
<g id="node13" class="node">
<title>Node82</title>
<g id="a_node13"><a xlink:href="api_2abi-default_2init_8h.html" target="_top" xlink:title=" ">
<polygon fill="white" stroke="red" points="562,-168.5 562,-187.5 603,-187.5 603,-168.5 562,-168.5"/>
<text text-anchor="middle" x="582.5" y="-175.5" font-family="Helvetica,sans-Serif" font-size="10.00">init.h</text>
</a>
</g>
</g>
<!-- Node1&#45;&gt;Node82 -->
<g id="edge12" class="edge">
<title>Node1&#45;&gt;Node82</title>
<path fill="none" stroke="midnightblue" d="M1663.95,-232.7C1481.97,-231.29 818.59,-223.74 611.5,-188 608.8,-187.53 606,-186.89 603.25,-186.15"/>
<polygon fill="midnightblue" stroke="midnightblue" points="1663.97,-236.2 1673.99,-232.78 1664.02,-229.2 1663.97,-236.2"/>
</g>
<!-- Node90 -->
<g id="node14" class="node">
<title>Node90</title>
<g id="a_node14"><a xlink:href="api_2abi-default_2ipsec_8h.html" target="_top" xlink:title=" ">
<polygon fill="white" stroke="red" points="621,-168.5 621,-187.5 672,-187.5 672,-168.5 621,-168.5"/>
<text text-anchor="middle" x="646.5" y="-175.5" font-family="Helvetica,sans-Serif" font-size="10.00">ipsec.h</text>
</a>
</g>
</g>
<!-- Node1&#45;&gt;Node90 -->
<g id="edge13" class="edge">
<title>Node1&#45;&gt;Node90</title>
<path fill="none" stroke="midnightblue" d="M1663.84,-232.25C1489.3,-229.24 874.98,-216.79 681.5,-188 678.52,-187.56 675.43,-186.96 672.37,-186.29"/>
<polygon fill="midnightblue" stroke="midnightblue" points="1663.92,-235.75 1673.98,-232.42 1664.04,-228.75 1663.92,-235.75"/>
</g>
<!-- Node99 -->
<g id="node15" class="node">
<title>Node99</title>
<g id="a_node15"><a xlink:href="api_2abi-default_2packet__io_8h.html" target="_top" xlink:title=" ">
<polygon fill="white" stroke="red" points="690.5,-168.5 690.5,-187.5 762.5,-187.5 762.5,-168.5 690.5,-168.5"/>
<text text-anchor="middle" x="726.5" y="-175.5" font-family="Helvetica,sans-Serif" font-size="10.00">packet_io.h</text>
</a>
</g>
</g>
<!-- Node1&#45;&gt;Node99 -->
<g id="edge14" class="edge">
<title>Node1&#45;&gt;Node99</title>
<path fill="none" stroke="midnightblue" d="M1663.45,-233.22C1525.72,-233.35 1111.71,-229.93 771.5,-188 768.65,-187.65 765.72,-187.22 762.77,-186.74"/>
<polygon fill="midnightblue" stroke="midnightblue" points="1663.65,-236.72 1673.64,-233.21 1663.64,-229.72 1663.65,-236.72"/>
</g>
<!-- Node31 -->
<g id="node16" class="node">
<title>Node31</title>
<g id="a_node16"><a xlink:href="api_2abi-default_2rwlock__recursive_8h.html" target="_top" xlink:title=" ">
<polygon fill="white" stroke="red" points="780.5,-168.5 780.5,-187.5 888.5,-187.5 888.5,-168.5 780.5,-168.5"/>
<text text-anchor="middle" x="834.5" y="-175.5" font-family="Helvetica,sans-Serif" font-size="10.00">rwlock_recursive.h</text>
</a>
</g>
</g>
<!-- Node1&#45;&gt;Node31 -->
<g id="edge15" class="edge">
<title>Node1&#45;&gt;Node31</title>
<path fill="none" stroke="midnightblue" d="M1663.62,-231.83C1538.77,-228.39 1187.97,-216.73 897.5,-188 894.64,-187.72 891.71,-187.4 888.76,-187.06"/>
<polygon fill="midnightblue" stroke="midnightblue" points="1663.86,-235.33 1673.95,-232.1 1664.05,-228.34 1663.86,-235.33"/>
</g>
<!-- Node127 -->
<g id="node17" class="node">
<title>Node127</title>
<g id="a_node17"><a xlink:href="api_2abi-default_2schedule_8h.html" target="_top" xlink:title=" ">
<polygon fill="white" stroke="red" points="907,-168.5 907,-187.5 976,-187.5 976,-168.5 907,-168.5"/>
<text text-anchor="middle" x="941.5" y="-175.5" font-family="Helvetica,sans-Serif" font-size="10.00">schedule.h</text>
</a>
</g>
</g>
<!-- Node1&#45;&gt;Node127 -->
<g id="edge16" class="edge">
<title>Node1&#45;&gt;Node127</title>
<path fill="none" stroke="midnightblue" d="M1663.46,-232.35C1547.67,-230.27 1239.78,-221.73 985.5,-188 982.41,-187.59 979.21,-187.09 976.01,-186.53"/>
<polygon fill="midnightblue" stroke="midnightblue" points="1663.68,-235.86 1673.74,-232.53 1663.8,-228.86 1663.68,-235.86"/>
</g>
<!-- Node135 -->
<g id="node18" class="node">
<title>Node135</title>
<g id="a_node18"><a xlink:href="api_2abi-default_2spinlock__recursive_8h.html" target="_top" xlink:title=" ">
<polygon fill="white" stroke="red" points="994.5,-168.5 994.5,-187.5 1110.5,-187.5 1110.5,-168.5 994.5,-168.5"/>
<text text-anchor="middle" x="1052.5" y="-175.5" font-family="Helvetica,sans-Serif" font-size="10.00">spinlock_recursive.h</text>
</a>
</g>
</g>
<!-- Node1&#45;&gt;Node135 -->
<g id="edge17" class="edge">
<title>Node1&#45;&gt;Node135</title>
<path fill="none" stroke="midnightblue" d="M1663.7,-230.35C1563.65,-224.5 1321.63,-209.25 1119.5,-188 1116.58,-187.69 1113.59,-187.36 1110.58,-187.01"/>
<polygon fill="midnightblue" stroke="midnightblue" points="1663.59,-233.85 1673.78,-230.94 1664,-226.87 1663.59,-233.85"/>
</g>
<!-- Node144 -->
<g id="node19" class="node">
<title>Node144</title>
<g id="a_node19"><a xlink:href="api_2abi-default_2traffic__mngr_8h.html" target="_top" xlink:title=" ">
<polygon fill="white" stroke="red" points="1128.5,-168.5 1128.5,-187.5 1212.5,-187.5 1212.5,-168.5 1128.5,-168.5"/>
<text text-anchor="middle" x="1170.5" y="-175.5" font-family="Helvetica,sans-Serif" font-size="10.00">traffic_mngr.h</text>
</a>
</g>
</g>
<!-- Node1&#45;&gt;Node144 -->
<g id="edge18" class="edge">
<title>Node1&#45;&gt;Node144</title>
<path fill="none" stroke="midnightblue" d="M1663.97,-229.71C1577.58,-223.37 1386.6,-208.28 1226.5,-188 1222.01,-187.43 1217.32,-186.78 1212.65,-186.08"/>
<polygon fill="midnightblue" stroke="midnightblue" points="1663.75,-233.2 1673.98,-230.44 1664.26,-226.22 1663.75,-233.2"/>
</g>
<!-- Node19 -->
<g id="node20" class="node">
<title>Node19</title>
<g id="a_node20"><a xlink:href="api_2barrier_8h.html" target="_top" xlink:title=" ">
<polygon fill="white" stroke="black" points="2118,-56.5 2118,-75.5 2175,-75.5 2175,-56.5 2118,-56.5"/>
<text text-anchor="middle" x="2146.5" y="-63.5" font-family="Helvetica,sans-Serif" font-size="10.00">barrier.h</text>
</a>
</g>
</g>
<!-- Node1&#45;&gt;Node19 -->
<g id="edge19" class="edge">
<title>Node1&#45;&gt;Node19</title>
<path fill="none" stroke="midnightblue" d="M1757.54,-231.89C1869.05,-228.78 2142.18,-218.13 2169.5,-188 2198.95,-155.53 2166.48,-97.47 2152.38,-75.63"/>
<polygon fill="midnightblue" stroke="midnightblue" points="1757.17,-228.4 1747.27,-232.17 1757.36,-235.4 1757.17,-228.4"/>
</g>
<!-- Node20 -->
<g id="node21" class="node">
<title>Node20</title>
<g id="a_node21"><a xlink:href="odp__api_8h.html" target="_top" xlink:title=" ">
<polygon fill="white" stroke="red" points="1800.5,-0.5 1800.5,-19.5 1864.5,-19.5 1864.5,-0.5 1800.5,-0.5"/>
<text text-anchor="middle" x="1832.5" y="-7.5" font-family="Helvetica,sans-Serif" font-size="10.00">odp_api.h</text>
</a>
</g>
</g>
<!-- Node1&#45;&gt;Node20 -->
<g id="edge71" class="edge">
<title>Node1&#45;&gt;Node20</title>
<path fill="none" stroke="midnightblue" d="M1757.39,-233.15C1982.36,-233.62 2942.06,-233 2985.5,-188 3148.83,-18.8 2066.82,-10.92 1864.65,-10.92"/>
<polygon fill="midnightblue" stroke="midnightblue" points="1757.25,-229.65 1747.24,-233.12 1757.23,-236.65 1757.25,-229.65"/>
</g>
<!-- Node152 -->
<g id="node22" class="node">
<title>Node152</title>
<g id="a_node22"><a xlink:href="api_2buffer_8h.html" target="_top" xlink:title=" ">
<polygon fill="white" stroke="black" points="3033,-56.5 3033,-75.5 3086,-75.5 3086,-56.5 3033,-56.5"/>
<text text-anchor="middle" x="3059.5" y="-63.5" font-family="Helvetica,sans-Serif" font-size="10.00">buffer.h</text>
</a>
</g>
</g>
<!-- Node1&#45;&gt;Node152 -->
<g id="edge21" class="edge">
<title>Node1&#45;&gt;Node152</title>
<path fill="none" stroke="midnightblue" d="M1757.57,-232.87C1985.64,-232.05 2966.95,-226.32 3018.5,-188 3055.35,-160.61 3059.41,-98.4 3059.62,-75.59"/>
<polygon fill="midnightblue" stroke="midnightblue" points="1757.27,-229.37 1747.29,-232.91 1757.3,-236.37 1757.27,-229.37"/>
</g>
<!-- Node107 -->
<g id="node23" class="node">
<title>Node107</title>
<g id="a_node23"><a xlink:href="api_2classification_8h.html" target="_top" xlink:title=" ">
<polygon fill="white" stroke="black" points="1155,-56.5 1155,-75.5 1244,-75.5 1244,-56.5 1155,-56.5"/>
<text text-anchor="middle" x="1199.5" y="-63.5" font-family="Helvetica,sans-Serif" font-size="10.00">classification.h</text>
</a>
</g>
</g>
<!-- Node1&#45;&gt;Node107 -->
<g id="edge23" class="edge">
<title>Node1&#45;&gt;Node107</title>
<path fill="none" stroke="midnightblue" d="M1663.75,-233.63C1585.26,-233.44 1422.79,-227.71 1292.5,-188 1274.24,-182.44 1272.07,-175.46 1254.5,-168 1207.54,-148.05 1175.39,-173.35 1145.5,-132 1130.2,-110.84 1162.28,-87.68 1183.25,-75.53"/>
<polygon fill="midnightblue" stroke="midnightblue" points="1663.8,-237.13 1673.8,-233.62 1663.8,-230.13 1663.8,-237.13"/>
</g>
<!-- Node108 -->
<g id="node24" class="node">
<title>Node108</title>
<g id="a_node24"><a xlink:href="api_2spec_2ipsec_8h.html" target="_top" xlink:title=" ">
<polygon fill="white" stroke="red" points="1211,-0.5 1211,-19.5 1262,-19.5 1262,-0.5 1211,-0.5"/>
<text text-anchor="middle" x="1236.5" y="-7.5" font-family="Helvetica,sans-Serif" font-size="10.00">ipsec.h</text>
</a>
</g>
</g>
<!-- Node1&#45;&gt;Node108 -->
<g id="edge52" class="edge">
<title>Node1&#45;&gt;Node108</title>
<path fill="none" stroke="midnightblue" d="M1663.49,-231C1562.82,-226.3 1329.49,-212.98 1254.5,-188 1238.23,-182.58 1236.74,-175.87 1221.5,-168 1185.78,-149.54 1160.56,-165.62 1138.5,-132 1129.16,-117.77 1129.59,-78.39 1145.5,-56 1160.92,-34.31 1189.81,-22.55 1210.91,-16.55"/>
<polygon fill="midnightblue" stroke="midnightblue" points="1663.51,-234.51 1673.66,-231.47 1663.83,-227.51 1663.51,-234.51"/>
</g>
<!-- Node113 -->
<g id="node25" class="node">
<title>Node113</title>
<g id="a_node25"><a xlink:href="api_2crypto_8h.html" target="_top" xlink:title=" ">
<polygon fill="white" stroke="black" points="1450.5,-56.5 1450.5,-75.5 1506.5,-75.5 1506.5,-56.5 1450.5,-56.5"/>
<text text-anchor="middle" x="1478.5" y="-63.5" font-family="Helvetica,sans-Serif" font-size="10.00">crypto.h</text>
</a>
</g>
</g>
<!-- Node1&#45;&gt;Node113 -->
<g id="edge26" class="edge">
<title>Node1&#45;&gt;Node113</title>
<path fill="none" stroke="midnightblue" d="M1663.56,-230.04C1604.5,-223.39 1506.37,-201.82 1469.5,-132 1459.82,-113.66 1468.45,-88.55 1474.25,-75.56"/>
<polygon fill="midnightblue" stroke="midnightblue" points="1663.44,-233.55 1673.75,-231.09 1664.16,-226.59 1663.44,-233.55"/>
</g>
<!-- Node109 -->
<g id="node26" class="node">
<title>Node109</title>
<g id="a_node26"><a xlink:href="api_2packet_8h.html" target="_top" xlink:title=" ">
<polygon fill="white" stroke="red" points="1605.5,-168.5 1605.5,-187.5 1663.5,-187.5 1663.5,-168.5 1605.5,-168.5"/>
<text text-anchor="middle" x="1634.5" y="-175.5" font-family="Helvetica,sans-Serif" font-size="10.00">packet.h</text>
</a>
</g>
</g>
<!-- Node1&#45;&gt;Node109 -->
<g id="edge29" class="edge">
<title>Node1&#45;&gt;Node109</title>
<path fill="none" stroke="midnightblue" d="M1689.92,-218.38C1676.19,-208.62 1658.57,-196.11 1646.93,-187.83"/>
<polygon fill="midnightblue" stroke="midnightblue" points="1688.11,-221.38 1698.29,-224.32 1692.16,-215.68 1688.11,-221.38"/>
</g>
<!-- Node110 -->
<g id="node27" class="node">
<title>Node110</title>
<g id="a_node27"><a xlink:href="api_2spec_2comp_8h.html" target="_top" xlink:title=" ">
<polygon fill="white" stroke="red" points="1553,-112.5 1553,-131.5 1606,-131.5 1606,-112.5 1553,-112.5"/>
<text text-anchor="middle" x="1579.5" y="-119.5" font-family="Helvetica,sans-Serif" font-size="10.00">comp.h</text>
</a>
</g>
</g>
<!-- Node1&#45;&gt;Node110 -->
<g id="edge47" class="edge">
<title>Node1&#45;&gt;Node110</title>
<path fill="none" stroke="midnightblue" d="M1664.18,-225.03C1640.83,-218.73 1613.85,-207.57 1596.5,-188 1582.26,-171.94 1579.71,-145.39 1579.4,-131.72"/>
<polygon fill="midnightblue" stroke="midnightblue" points="1663.39,-228.44 1673.93,-227.45 1665.07,-221.64 1663.39,-228.44"/>
</g>
<!-- Node112 -->
<g id="node28" class="node">
<title>Node112</title>
<g id="a_node28"><a xlink:href="api_2spec_2crypto_8h.html" target="_top" xlink:title=" ">
<polygon fill="white" stroke="black" points="1478.5,-112.5 1478.5,-131.5 1534.5,-131.5 1534.5,-112.5 1478.5,-112.5"/>
<text text-anchor="middle" x="1506.5" y="-119.5" font-family="Helvetica,sans-Serif" font-size="10.00">crypto.h</text>
</a>
</g>
</g>
<!-- Node1&#45;&gt;Node112 -->
<g id="edge49" class="edge">
<title>Node1&#45;&gt;Node112</title>
<path fill="none" stroke="midnightblue" d="M1665.83,-221.71C1640.41,-214.23 1608.54,-203 1582.5,-188 1554.82,-172.05 1527.67,-145.45 1514.59,-131.75"/>
<polygon fill="midnightblue" stroke="midnightblue" points="1665.01,-225.12 1675.59,-224.5 1666.93,-218.39 1665.01,-225.12"/>
</g>
<!-- Node125 -->
<g id="node29" class="node">
<title>Node125</title>
<g id="a_node29"><a xlink:href="api_2spec_2packet__flags_8h.html" target="_top" xlink:title=" ">
<polygon fill="white" stroke="red" points="1662.5,-112.5 1662.5,-131.5 1748.5,-131.5 1748.5,-112.5 1662.5,-112.5"/>
<text text-anchor="middle" x="1705.5" y="-119.5" font-family="Helvetica,sans-Serif" font-size="10.00">packet_flags.h</text>
</a>
</g>
</g>
<!-- Node1&#45;&gt;Node125 -->
<g id="edge53" class="edge">
<title>Node1&#45;&gt;Node125</title>
<path fill="none" stroke="midnightblue" d="M1709.65,-214.35C1708.56,-190.25 1706.7,-149.31 1705.89,-131.59"/>
<polygon fill="midnightblue" stroke="midnightblue" points="1706.16,-214.54 1710.11,-224.37 1713.15,-214.22 1706.16,-214.54"/>
</g>
<!-- Node121 -->
<g id="node30" class="node">
<title>Node121</title>
<g id="a_node30"><a xlink:href="api_2packet__io_8h.html" target="_top" xlink:title=" ">
<polygon fill="white" stroke="black" points="1344.5,-168.5 1344.5,-187.5 1416.5,-187.5 1416.5,-168.5 1344.5,-168.5"/>
<text text-anchor="middle" x="1380.5" y="-175.5" font-family="Helvetica,sans-Serif" font-size="10.00">packet_io.h</text>
</a>
</g>
</g>
<!-- Node1&#45;&gt;Node121 -->
<g id="edge35" class="edge">
<title>Node1&#45;&gt;Node121</title>
<path fill="none" stroke="midnightblue" d="M1663.87,-225.78C1608.26,-217.1 1512.52,-201.97 1430.5,-188 1425.98,-187.23 1421.23,-186.4 1416.54,-185.57"/>
<polygon fill="midnightblue" stroke="midnightblue" points="1663.35,-229.24 1673.77,-227.32 1664.43,-222.32 1663.35,-229.24"/>
</g>
<!-- Node122 -->
<g id="node31" class="node">
<title>Node122</title>
<g id="a_node31"><a xlink:href="api_2spec_2classification_8h.html" target="_top" xlink:title=" ">
<polygon fill="white" stroke="black" points="1155,-112.5 1155,-131.5 1244,-131.5 1244,-112.5 1155,-112.5"/>
<text text-anchor="middle" x="1199.5" y="-119.5" font-family="Helvetica,sans-Serif" font-size="10.00">classification.h</text>
</a>
</g>
</g>
<!-- Node1&#45;&gt;Node122 -->
<g id="edge46" class="edge">
<title>Node1&#45;&gt;Node122</title>
<path fill="none" stroke="midnightblue" d="M1663.68,-232.25C1591.74,-230.01 1450.28,-221.33 1335.5,-188 1332.41,-187.1 1253.54,-149.09 1217.35,-131.62"/>
<polygon fill="midnightblue" stroke="midnightblue" points="1663.68,-235.75 1673.78,-232.53 1663.88,-228.75 1663.68,-235.75"/>
</g>
<!-- Node123 -->
<g id="node32" class="node">
<title>Node123</title>
<g id="a_node32"><a xlink:href="api_2spec_2traffic__mngr_8h.html" target="_top" xlink:title=" ">
<polygon fill="white" stroke="red" points="1338.5,-112.5 1338.5,-131.5 1422.5,-131.5 1422.5,-112.5 1338.5,-112.5"/>
<text text-anchor="middle" x="1380.5" y="-119.5" font-family="Helvetica,sans-Serif" font-size="10.00">traffic_mngr.h</text>
</a>
</g>
</g>
<!-- Node1&#45;&gt;Node123 -->
<g id="edge64" class="edge">
<title>Node1&#45;&gt;Node123</title>
<path fill="none" stroke="midnightblue" d="M1663.53,-230.52C1613.4,-226.47 1532.53,-215.83 1468.5,-188 1436.1,-173.92 1404.33,-145.99 1389.37,-131.76"/>
<polygon fill="midnightblue" stroke="midnightblue" points="1663.51,-234.03 1673.75,-231.29 1664.04,-227.05 1663.51,-234.03"/>
</g>
<!-- Node153 -->
<g id="node33" class="node">
<title>Node153</title>
<g id="a_node33"><a xlink:href="api_2proto__stats_8h.html" target="_top" xlink:title=" ">
<polygon fill="white" stroke="black" points="1662.5,-56.5 1662.5,-75.5 1742.5,-75.5 1742.5,-56.5 1662.5,-56.5"/>
<text text-anchor="middle" x="1702.5" y="-63.5" font-family="Helvetica,sans-Serif" font-size="10.00">proto_stats.h</text>
</a>
</g>
</g>
<!-- Node1&#45;&gt;Node153 -->
<g id="edge41" class="edge">
<title>Node1&#45;&gt;Node153</title>
<path fill="none" stroke="midnightblue" d="M1720.88,-215.5C1737.3,-186.8 1766.52,-131.04 1757.5,-112 1749.73,-95.61 1732.75,-83.21 1719.7,-75.61"/>
<polygon fill="midnightblue" stroke="midnightblue" points="1717.7,-214.01 1715.69,-224.41 1723.75,-217.53 1717.7,-214.01"/>
</g>
<!-- Node117 -->
<g id="node34" class="node">
<title>Node117</title>
<g id="a_node34"><a xlink:href="api_2queue_8h.html" target="_top" xlink:title=" ">
<polygon fill="white" stroke="red" points="1760.5,-56.5 1760.5,-75.5 1816.5,-75.5 1816.5,-56.5 1760.5,-56.5"/>
<text text-anchor="middle" x="1788.5" y="-63.5" font-family="Helvetica,sans-Serif" font-size="10.00">queue.h</text>
</a>
</g>
</g>
<!-- Node1&#45;&gt;Node117 -->
<g id="edge43" class="edge">
<title>Node1&#45;&gt;Node117</title>
<path fill="none" stroke="midnightblue" d="M1728.71,-217.42C1737.2,-209.36 1746.88,-198.92 1753.5,-188 1776.51,-150.04 1785.04,-96.2 1787.58,-75.53"/>
<polygon fill="midnightblue" stroke="midnightblue" points="1726.11,-215.05 1721.06,-224.36 1730.81,-220.23 1726.11,-215.05"/>
</g>
<!-- Node154 -->
<g id="node35" class="node">
<title>Node154</title>
<g id="a_node35"><a xlink:href="spec_2chksum_8h.html" target="_top" xlink:title=" ">
<polygon fill="white" stroke="red" points="1909.5,-168.5 1909.5,-187.5 1973.5,-187.5 1973.5,-168.5 1909.5,-168.5"/>
<text text-anchor="middle" x="1941.5" y="-175.5" font-family="Helvetica,sans-Serif" font-size="10.00">chksum.h</text>
</a>
</g>
</g>
<!-- Node1&#45;&gt;Node154 -->
<g id="edge45" class="edge">
<title>Node1&#45;&gt;Node154</title>
<path fill="none" stroke="midnightblue" d="M1756.95,-222.14C1802.11,-211.58 1869.54,-195.82 1909.17,-186.56"/>
<polygon fill="midnightblue" stroke="midnightblue" points="1756.04,-218.76 1747.1,-224.44 1757.64,-225.58 1756.04,-218.76"/>
</g>
<!-- Node156 -->
<g id="node36" class="node">
<title>Node156</title>
<g id="a_node36"><a xlink:href="api_2spec_2cpu_8h.html" target="_top" xlink:title=" ">
<polygon fill="white" stroke="red" points="1992,-168.5 1992,-187.5 2035,-187.5 2035,-168.5 1992,-168.5"/>
<text text-anchor="middle" x="2013.5" y="-175.5" font-family="Helvetica,sans-Serif" font-size="10.00">cpu.h</text>
</a>
</g>
</g>
<!-- Node1&#45;&gt;Node156 -->
<g id="edge48" class="edge">
<title>Node1&#45;&gt;Node156</title>
<path fill="none" stroke="midnightblue" d="M1757.33,-226.97C1811.79,-219.57 1904.23,-205.77 1982.5,-188 1985.56,-187.31 1988.77,-186.48 1991.91,-185.62"/>
<polygon fill="midnightblue" stroke="midnightblue" points="1756.73,-223.52 1747.28,-228.33 1757.66,-230.46 1756.73,-223.52"/>
</g>
<!-- Node158 -->
<g id="node37" class="node">
<title>Node158</title>
<g id="a_node37"><a xlink:href="api_2spec_2hash_8h.html" target="_top" xlink:title=" ">
<polygon fill="white" stroke="red" points="2053,-168.5 2053,-187.5 2102,-187.5 2102,-168.5 2053,-168.5"/>
<text text-anchor="middle" x="2077.5" y="-175.5" font-family="Helvetica,sans-Serif" font-size="10.00">hash.h</text>
</a>
</g>
</g>
<!-- Node1&#45;&gt;Node158 -->
<g id="edge50" class="edge">
<title>Node1&#45;&gt;Node158</title>
<path fill="none" stroke="midnightblue" d="M1757.5,-228.51C1822.26,-221.91 1942.42,-208.13 2043.5,-188 2046.49,-187.4 2049.62,-186.7 2052.7,-185.95"/>
<polygon fill="midnightblue" stroke="midnightblue" points="1756.81,-225.06 1747.21,-229.55 1757.51,-232.03 1756.81,-225.06"/>
</g>
<!-- Node78 -->
<g id="node38" class="node">
<title>Node78</title>
<g id="a_node38"><a xlink:href="api_2spec_2init_8h.html" target="_top" xlink:title=" ">
<polygon fill="white" stroke="red" points="2120,-168.5 2120,-187.5 2161,-187.5 2161,-168.5 2120,-168.5"/>
<text text-anchor="middle" x="2140.5" y="-175.5" font-family="Helvetica,sans-Serif" font-size="10.00">init.h</text>
</a>
</g>
</g>
<!-- Node1&#45;&gt;Node78 -->
<g id="edge51" class="edge">
<title>Node1&#45;&gt;Node78</title>
<path fill="none" stroke="midnightblue" d="M1757.32,-230.46C1832.45,-225.78 1984.3,-213.81 2110.5,-188 2113.59,-187.37 2116.82,-186.56 2119.97,-185.69"/>
<polygon fill="midnightblue" stroke="midnightblue" points="1757.01,-226.98 1747.24,-231.08 1757.44,-233.96 1757.01,-226.98"/>
</g>
<!-- Node160 -->
<g id="node39" class="node">
<title>Node160</title>
<g id="a_node39"><a xlink:href="api_2spec_2pool_8h.html" target="_top" xlink:title=" ">
<polygon fill="white" stroke="red" points="2566,-112.5 2566,-131.5 2613,-131.5 2613,-112.5 2566,-112.5"/>
<text text-anchor="middle" x="2589.5" y="-119.5" font-family="Helvetica,sans-Serif" font-size="10.00">pool.h</text>
</a>
</g>
</g>
<!-- Node1&#45;&gt;Node160 -->
<g id="edge54" class="edge">
<title>Node1&#45;&gt;Node160</title>
<path fill="none" stroke="midnightblue" d="M1757.35,-230.78C1863.6,-225.41 2120.08,-210.48 2203.5,-188 2223.85,-182.52 2226.26,-173.88 2246.5,-168 2363,-134.13 2509.21,-125.7 2565.7,-123.64"/>
<polygon fill="midnightblue" stroke="midnightblue" points="1757.06,-227.29 1747.25,-231.28 1757.41,-234.28 1757.06,-227.29"/>
</g>
<!-- Node162 -->
<g id="node40" class="node">
<title>Node162</title>
<g id="a_node40"><a xlink:href="pool__types_8h.html" target="_top" xlink:title=" ">
<polygon fill="white" stroke="black" points="2897,-168.5 2897,-187.5 2976,-187.5 2976,-168.5 2897,-168.5"/>
<text text-anchor="middle" x="2936.5" y="-175.5" font-family="Helvetica,sans-Serif" font-size="10.00">pool_types.h</text>
</a>
</g>
</g>
<!-- Node1&#45;&gt;Node162 -->
<g id="edge55" class="edge">
<title>Node1&#45;&gt;Node162</title>
<path fill="none" stroke="midnightblue" d="M1757.39,-232.11C1947.67,-228.34 2662.71,-212.81 2887.5,-188 2890.59,-187.66 2893.79,-187.23 2896.99,-186.76"/>
<polygon fill="midnightblue" stroke="midnightblue" points="1757.1,-228.61 1747.17,-232.31 1757.24,-235.61 1757.1,-228.61"/>
</g>
<!-- Node163 -->
<g id="node41" class="node">
<title>Node163</title>
<g id="a_node41"><a xlink:href="api_2spec_2proto__stats__types_8h.html" target="_top" xlink:title=" ">
<polygon fill="white" stroke="red" points="2256,-168.5 2256,-187.5 2369,-187.5 2369,-168.5 2256,-168.5"/>
<text text-anchor="middle" x="2312.5" y="-175.5" font-family="Helvetica,sans-Serif" font-size="10.00">proto_stats_types.h</text>
</a>
</g>
</g>
<!-- Node1&#45;&gt;Node163 -->
<g id="edge57" class="edge">
<title>Node1&#45;&gt;Node163</title>
<path fill="none" stroke="midnightblue" d="M1757.41,-229.68C1850.05,-222.99 2062.99,-206.87 2241.5,-188 2246.2,-187.5 2251.06,-186.96 2255.94,-186.38"/>
<polygon fill="midnightblue" stroke="midnightblue" points="1756.97,-226.21 1747.24,-230.41 1757.47,-233.19 1756.97,-226.21"/>
</g>
<!-- Node76 -->
<g id="node42" class="node">
<title>Node76</title>
<g id="a_node42"><a xlink:href="api_2spec_2schedule_8h.html" target="_top" xlink:title=" ">
<polygon fill="white" stroke="red" points="2387,-168.5 2387,-187.5 2456,-187.5 2456,-168.5 2387,-168.5"/>
<text text-anchor="middle" x="2421.5" y="-175.5" font-family="Helvetica,sans-Serif" font-size="10.00">schedule.h</text>
</a>
</g>
</g>
<!-- Node1&#45;&gt;Node76 -->
<g id="edge58" class="edge">
<title>Node1&#45;&gt;Node76</title>
<path fill="none" stroke="midnightblue" d="M1757.2,-232.01C1866.26,-229.21 2146.03,-219.34 2377.5,-188 2380.59,-187.58 2383.79,-187.07 2386.99,-186.52"/>
<polygon fill="midnightblue" stroke="midnightblue" points="1757.1,-228.51 1747.19,-232.25 1757.27,-235.5 1757.1,-228.51"/>
</g>
<!-- Node169 -->
<g id="node43" class="node">
<title>Node169</title>
<g id="a_node43"><a xlink:href="api_2spec_2schedule__types_8h.html" target="_top" xlink:title=" ">
<polygon fill="white" stroke="red" points="2474,-168.5 2474,-187.5 2575,-187.5 2575,-168.5 2474,-168.5"/>
<text text-anchor="middle" x="2524.5" y="-175.5" font-family="Helvetica,sans-Serif" font-size="10.00">schedule_types.h</text>
</a>
</g>
</g>
<!-- Node1&#45;&gt;Node169 -->
<g id="edge59" class="edge">
<title>Node1&#45;&gt;Node169</title>
<path fill="none" stroke="midnightblue" d="M1757.25,-231.66C1875.8,-227.95 2197.68,-215.92 2464.5,-188 2467.54,-187.68 2470.66,-187.32 2473.8,-186.93"/>
<polygon fill="midnightblue" stroke="midnightblue" points="1756.97,-228.17 1747.08,-231.97 1757.18,-235.17 1756.97,-228.17"/>
</g>
<!-- Node173 -->
<g id="node44" class="node">
<title>Node173</title>
<g id="a_node44"><a xlink:href="api_2spec_2stash_8h.html" target="_top" xlink:title=" ">
<polygon fill="white" stroke="red" points="2593.5,-168.5 2593.5,-187.5 2645.5,-187.5 2645.5,-168.5 2593.5,-168.5"/>
<text text-anchor="middle" x="2619.5" y="-175.5" font-family="Helvetica,sans-Serif" font-size="10.00">stash.h</text>
</a>
</g>
</g>
<!-- Node1&#45;&gt;Node173 -->
<g id="edge60" class="edge">
<title>Node1&#45;&gt;Node173</title>
<path fill="none" stroke="midnightblue" d="M1757.42,-231.78C1914.63,-227.5 2421.92,-212.13 2583.5,-188 2586.69,-187.52 2590,-186.89 2593.27,-186.18"/>
<polygon fill="midnightblue" stroke="midnightblue" points="1757.05,-228.29 1747.15,-232.06 1757.24,-235.29 1757.05,-228.29"/>
</g>
<!-- Node175 -->
<g id="node45" class="node">
<title>Node175</title>
<g id="a_node45"><a xlink:href="api_2spec_2std_8h.html" target="_top" xlink:title=" ">
<polygon fill="white" stroke="red" points="2664,-168.5 2664,-187.5 2705,-187.5 2705,-168.5 2664,-168.5"/>
<text text-anchor="middle" x="2684.5" y="-175.5" font-family="Helvetica,sans-Serif" font-size="10.00">std.h</text>
</a>
</g>
</g>
<!-- Node1&#45;&gt;Node175 -->
<g id="edge61" class="edge">
<title>Node1&#45;&gt;Node175</title>
<path fill="none" stroke="midnightblue" d="M1757.37,-232.28C1922.83,-229.48 2479.04,-218.04 2654.5,-188 2657.5,-187.49 2660.63,-186.77 2663.67,-185.96"/>
<polygon fill="midnightblue" stroke="midnightblue" points="1756.98,-228.78 1747.04,-232.45 1757.1,-235.78 1756.98,-228.78"/>
</g>
<!-- Node177 -->
<g id="node46" class="node">
<title>Node177</title>
<g id="a_node46"><a xlink:href="spec_2threshold_8h.html" target="_top" xlink:title=" ">
<polygon fill="white" stroke="red" points="2723,-168.5 2723,-187.5 2794,-187.5 2794,-168.5 2723,-168.5"/>
<text text-anchor="middle" x="2758.5" y="-175.5" font-family="Helvetica,sans-Serif" font-size="10.00">threshold.h</text>
</a>
</g>
</g>
<!-- Node1&#45;&gt;Node177 -->
<g id="edge62" class="edge">
<title>Node1&#45;&gt;Node177</title>
<path fill="none" stroke="midnightblue" d="M1757.35,-233.5C1901.04,-234.49 2347.92,-233.42 2714.5,-188 2717.13,-187.67 2719.84,-187.28 2722.56,-186.83"/>
<polygon fill="midnightblue" stroke="midnightblue" points="1757.17,-230 1747.14,-233.43 1757.12,-237 1757.17,-230"/>
</g>
<!-- Node179 -->
<g id="node47" class="node">
<title>Node179</title>
<g id="a_node47"><a xlink:href="api_2spec_2thrmask_8h.html" target="_top" xlink:title=" ">
<polygon fill="white" stroke="red" points="2812.5,-168.5 2812.5,-187.5 2878.5,-187.5 2878.5,-168.5 2812.5,-168.5"/>
<text text-anchor="middle" x="2845.5" y="-175.5" font-family="Helvetica,sans-Serif" font-size="10.00">thrmask.h</text>
</a>
</g>
</g>
<!-- Node1&#45;&gt;Node179 -->
<g id="edge63" class="edge">
<title>Node1&#45;&gt;Node179</title>
<path fill="none" stroke="midnightblue" d="M1757.02,-232.14C1938.12,-228.62 2596.27,-214.28 2803.5,-188 2806.31,-187.64 2809.21,-187.19 2812.12,-186.69"/>
<polygon fill="midnightblue" stroke="midnightblue" points="1756.95,-228.64 1747.02,-232.33 1757.08,-235.64 1756.95,-228.64"/>
</g>
<!-- Node180 -->
<g id="node48" class="node">
<title>Node180</title>
<g id="a_node48"><a xlink:href="system__info_8h.html" target="_top" xlink:title=" ">
<polygon fill="white" stroke="black" points="1834.5,-56.5 1834.5,-75.5 1920.5,-75.5 1920.5,-56.5 1834.5,-56.5"/>
<text text-anchor="middle" x="1877.5" y="-63.5" font-family="Helvetica,sans-Serif" font-size="10.00">system_info.h</text>
</a>
</g>
</g>
<!-- Node1&#45;&gt;Node180 -->
<g id="edge65" class="edge">
<title>Node1&#45;&gt;Node180</title>
<path fill="none" stroke="midnightblue" d="M1732.97,-218.88C1745.46,-210.57 1760.97,-199.46 1773.5,-188 1815,-150.06 1856.08,-96.21 1871.31,-75.53"/>
<polygon fill="midnightblue" stroke="midnightblue" points="1730.96,-216.01 1724.49,-224.4 1734.78,-221.88 1730.96,-216.01"/>
</g>
<!-- Node181 -->
<g id="node49" class="node">
<title>Node181</title>
<g id="a_node49"><a xlink:href="api_2time_8h.html" target="_top" xlink:title=" ">
<polygon fill="white" stroke="red" points="1938.5,-56.5 1938.5,-75.5 1986.5,-75.5 1986.5,-56.5 1938.5,-56.5"/>
<text text-anchor="middle" x="1962.5" y="-63.5" font-family="Helvetica,sans-Serif" font-size="10.00">time.h</text>
</a>
</g>
</g>
<!-- Node1&#45;&gt;Node181 -->
<g id="edge67" class="edge">
<title>Node1&#45;&gt;Node181</title>
<path fill="none" stroke="midnightblue" d="M1738.69,-220.03C1756.28,-211.59 1779.17,-199.96 1798.5,-188 1859.58,-150.2 1926.91,-96.26 1952.18,-75.55"/>
<polygon fill="midnightblue" stroke="midnightblue" points="1737.06,-216.93 1729.52,-224.38 1740.06,-223.26 1737.06,-216.93"/>
</g>
<!-- Node182 -->
<g id="node50" class="node">
<title>Node182</title>
<g id="a_node50"><a xlink:href="api_2timer_8h.html" target="_top" xlink:title=" ">
<polygon fill="white" stroke="black" points="2005,-56.5 2005,-75.5 2056,-75.5 2056,-56.5 2005,-56.5"/>
<text text-anchor="middle" x="2030.5" y="-63.5" font-family="Helvetica,sans-Serif" font-size="10.00">timer.h</text>
</a>
</g>
</g>
<!-- Node1&#45;&gt;Node182 -->
<g id="edge69" class="edge">
<title>Node1&#45;&gt;Node182</title>
<path fill="none" stroke="midnightblue" d="M1746.17,-221.07C1769.7,-212.76 1800.95,-200.9 1827.5,-188 1902.41,-151.6 1986.16,-96.84 2017.63,-75.73"/>
<polygon fill="midnightblue" stroke="midnightblue" points="1744.89,-217.8 1736.6,-224.4 1747.19,-224.42 1744.89,-217.8"/>
</g>
<!-- Node3 -->
<g id="node3" class="node">
<title>Node3</title>
<g id="a_node3"><a xlink:href="arch_2arm32-linux_2odp_2api_2abi_2atomic_8h_source.html" target="_top" xlink:title=" ">
<polygon fill="white" stroke="black" points="77,-112.5 77,-131.5 136,-131.5 136,-112.5 77,-112.5"/>
<text text-anchor="middle" x="106.5" y="-119.5" font-family="Helvetica,sans-Serif" font-size="10.00">atomic.h</text>
</a>
</g>
</g>
<!-- Node2&#45;&gt;Node3 -->
<g id="edge2" class="edge">
<title>Node2&#45;&gt;Node3</title>
<path fill="none" stroke="midnightblue" d="M226.39,-165.04C197.41,-154.88 156.54,-140.55 130.79,-131.52"/>
<polygon fill="midnightblue" stroke="midnightblue" points="225.5,-168.44 236.1,-168.44 227.82,-161.83 225.5,-168.44"/>
</g>
<!-- Node4 -->
<g id="node4" class="node">
<title>Node4</title>
<g id="a_node4"><a xlink:href="arch_2arm64-linux_2odp_2api_2abi_2atomic_8h_source.html" target="_top" xlink:title=" ">
<polygon fill="white" stroke="black" points="154,-112.5 154,-131.5 213,-131.5 213,-112.5 154,-112.5"/>
<text text-anchor="middle" x="183.5" y="-119.5" font-family="Helvetica,sans-Serif" font-size="10.00">atomic.h</text>
</a>
</g>
</g>
<!-- Node2&#45;&gt;Node4 -->
<g id="edge3" class="edge">
<title>Node2&#45;&gt;Node4</title>
<path fill="none" stroke="midnightblue" d="M239.6,-162.34C225.59,-152.52 207.62,-139.91 195.84,-131.65"/>
<polygon fill="midnightblue" stroke="midnightblue" points="237.93,-165.45 248.13,-168.32 241.95,-159.72 237.93,-165.45"/>
</g>
<!-- Node5 -->
<g id="node5" class="node">
<title>Node5</title>
<g id="a_node5"><a xlink:href="arch_2default-linux_2odp_2api_2abi_2atomic_8h_source.html" target="_top" xlink:title=" ">
<polygon fill="white" stroke="black" points="231,-112.5 231,-131.5 290,-131.5 290,-112.5 231,-112.5"/>
<text text-anchor="middle" x="260.5" y="-119.5" font-family="Helvetica,sans-Serif" font-size="10.00">atomic.h</text>
</a>
</g>
</g>
<!-- Node2&#45;&gt;Node5 -->
<g id="edge4" class="edge">
<title>Node2&#45;&gt;Node5</title>
<path fill="none" stroke="midnightblue" d="M260.5,-157.8C260.5,-148.91 260.5,-138.78 260.5,-131.75"/>
<polygon fill="midnightblue" stroke="midnightblue" points="257,-158.08 260.5,-168.08 264,-158.08 257,-158.08"/>
</g>
<!-- Node6 -->
<g id="node6" class="node">
<title>Node6</title>
<g id="a_node6"><a xlink:href="arch_2mips64-linux_2odp_2api_2abi_2atomic_8h_source.html" target="_top" xlink:title=" ">
<polygon fill="white" stroke="black" points="308,-112.5 308,-131.5 367,-131.5 367,-112.5 308,-112.5"/>
<text text-anchor="middle" x="337.5" y="-119.5" font-family="Helvetica,sans-Serif" font-size="10.00">atomic.h</text>
</a>
</g>
</g>
<!-- Node2&#45;&gt;Node6 -->
<g id="edge5" class="edge">
<title>Node2&#45;&gt;Node6</title>
<path fill="none" stroke="midnightblue" d="M281.4,-162.34C295.41,-152.52 313.38,-139.91 325.16,-131.65"/>
<polygon fill="midnightblue" stroke="midnightblue" points="279.05,-159.72 272.87,-168.32 283.07,-165.45 279.05,-159.72"/>
</g>
<!-- Node7 -->
<g id="node7" class="node">
<title>Node7</title>
<g id="a_node7"><a xlink:href="arch_2power64-linux_2odp_2api_2abi_2atomic_8h_source.html" target="_top" xlink:title=" ">
<polygon fill="white" stroke="black" points="385,-112.5 385,-131.5 444,-131.5 444,-112.5 385,-112.5"/>
<text text-anchor="middle" x="414.5" y="-119.5" font-family="Helvetica,sans-Serif" font-size="10.00">atomic.h</text>
</a>
</g>
</g>
<!-- Node2&#45;&gt;Node7 -->
<g id="edge6" class="edge">
<title>Node2&#45;&gt;Node7</title>
<path fill="none" stroke="midnightblue" d="M294.61,-165.04C323.59,-154.88 364.46,-140.55 390.21,-131.52"/>
<polygon fill="midnightblue" stroke="midnightblue" points="293.18,-161.83 284.9,-168.44 295.5,-168.44 293.18,-161.83"/>
</g>
<!-- Node8 -->
<g id="node8" class="node">
<title>Node8</title>
<g id="a_node8"><a xlink:href="arch_2x86__32-linux_2odp_2api_2abi_2atomic_8h_source.html" target="_top" xlink:title=" ">
<polygon fill="white" stroke="black" points="462,-112.5 462,-131.5 521,-131.5 521,-112.5 462,-112.5"/>
<text text-anchor="middle" x="491.5" y="-119.5" font-family="Helvetica,sans-Serif" font-size="10.00">atomic.h</text>
</a>
</g>
</g>
<!-- Node2&#45;&gt;Node8 -->
<g id="edge7" class="edge">
<title>Node2&#45;&gt;Node8</title>
<path fill="none" stroke="midnightblue" d="M300.42,-167.55C363.06,-152.84 425.75,-138.26 461.74,-129.91"/>
<polygon fill="midnightblue" stroke="midnightblue" points="299.3,-164.22 290.37,-169.92 300.9,-171.04 299.3,-164.22"/>
</g>
<!-- Node9 -->
<g id="node9" class="node">
<title>Node9</title>
<g id="a_node9"><a xlink:href="arch_2x86__64-linux_2odp_2api_2abi_2atomic_8h_source.html" target="_top" xlink:title=" ">
<polygon fill="white" stroke="red" points="0,-112.5 0,-131.5 59,-131.5 59,-112.5 0,-112.5"/>
<text text-anchor="middle" x="29.5" y="-119.5" font-family="Helvetica,sans-Serif" font-size="10.00">atomic.h</text>
</a>
</g>
</g>
<!-- Node2&#45;&gt;Node9 -->
<g id="edge8" class="edge">
<title>Node2&#45;&gt;Node9</title>
<path fill="none" stroke="midnightblue" d="M220.83,-167.79C181.8,-158.73 120.54,-144.46 67.5,-132 64.86,-131.38 62.12,-130.73 59.37,-130.08"/>
<polygon fill="midnightblue" stroke="midnightblue" points="220.2,-171.24 230.74,-170.09 221.79,-164.42 220.2,-171.24"/>
</g>
<!-- Node19&#45;&gt;Node20 -->
<g id="edge20" class="edge">
<title>Node19&#45;&gt;Node20</title>
<path fill="none" stroke="midnightblue" d="M2107.93,-58.37C2045.38,-47.61 1922.95,-26.56 1864.74,-16.54"/>
<polygon fill="midnightblue" stroke="midnightblue" points="2107.35,-61.82 2117.8,-60.06 2108.54,-54.92 2107.35,-61.82"/>
</g>
<!-- Node152&#45;&gt;Node20 -->
<g id="edge22" class="edge">
<title>Node152&#45;&gt;Node20</title>
<path fill="none" stroke="midnightblue" d="M3022.45,-56.56C3021.12,-56.35 3019.8,-56.17 3018.5,-56 2786,-26.31 2030.1,-13.85 1864.68,-11.45"/>
<polygon fill="midnightblue" stroke="midnightblue" points="3022.25,-60.08 3032.71,-58.4 3023.49,-53.19 3022.25,-60.08"/>
</g>
<!-- Node107&#45;&gt;Node20 -->
<g id="edge25" class="edge">
<title>Node107&#45;&gt;Node20</title>
<path fill="none" stroke="midnightblue" d="M1254.64,-59.8C1268.32,-58.53 1282.94,-57.2 1296.5,-56 1487.66,-39.11 1717.31,-20.34 1800.47,-13.59"/>
<polygon fill="midnightblue" stroke="midnightblue" points="1254.04,-56.34 1244.4,-60.75 1254.69,-63.31 1254.04,-56.34"/>
</g>
<!-- Node107&#45;&gt;Node108 -->
<g id="edge24" class="edge">
<title>Node107&#45;&gt;Node108</title>
<path fill="none" stroke="midnightblue" d="M1211.45,-47.57C1217.81,-38.27 1225.37,-27.25 1230.5,-19.75"/>
<polygon fill="midnightblue" stroke="midnightblue" points="1208.37,-45.86 1205.61,-56.08 1214.15,-49.81 1208.37,-45.86"/>
</g>
<!-- Node113&#45;&gt;Node20 -->
<g id="edge28" class="edge">
<title>Node113&#45;&gt;Node20</title>
<path fill="none" stroke="midnightblue" d="M1516.74,-59.17C1586.92,-48.46 1735.05,-25.87 1800.38,-15.9"/>
<polygon fill="midnightblue" stroke="midnightblue" points="1515.93,-55.75 1506.57,-60.72 1516.99,-62.67 1515.93,-55.75"/>
</g>
<!-- Node113&#45;&gt;Node108 -->
<g id="edge27" class="edge">
<title>Node113&#45;&gt;Node108</title>
<path fill="none" stroke="midnightblue" d="M1440.23,-56.46C1390.51,-45.37 1305.05,-26.3 1262.35,-16.77"/>
<polygon fill="midnightblue" stroke="midnightblue" points="1439.74,-59.94 1450.27,-58.7 1441.27,-53.11 1439.74,-59.94"/>
</g>
<!-- Node109&#45;&gt;Node20 -->
<g id="edge34" class="edge">
<title>Node109&#45;&gt;Node20</title>
<path fill="none" stroke="midnightblue" d="M1631.64,-158.18C1628.76,-131.84 1627.89,-84.04 1653.5,-56 1673.06,-34.59 1754.44,-20.96 1800.45,-14.81"/>
<polygon fill="midnightblue" stroke="midnightblue" points="1628.2,-158.88 1632.96,-168.34 1635.14,-157.97 1628.2,-158.88"/>
</g>
<!-- Node109&#45;&gt;Node110 -->
<g id="edge30" class="edge">
<title>Node109&#45;&gt;Node110</title>
<path fill="none" stroke="midnightblue" d="M1618.21,-161C1608.46,-151.43 1596.45,-139.64 1588.41,-131.75"/>
<polygon fill="midnightblue" stroke="midnightblue" points="1615.83,-163.57 1625.42,-168.08 1620.73,-158.58 1615.83,-163.57"/>
</g>
<!-- Node109&#45;&gt;Node112 -->
<g id="edge31" class="edge">
<title>Node109&#45;&gt;Node112</title>
<path fill="none" stroke="midnightblue" d="M1604.88,-164.5C1580.88,-154.38 1547.72,-140.39 1526.69,-131.52"/>
<polygon fill="midnightblue" stroke="midnightblue" points="1603.64,-167.78 1614.22,-168.44 1606.36,-161.33 1603.64,-167.78"/>
</g>
<!-- Node109&#45;&gt;Node125 -->
<g id="edge33" class="edge">
<title>Node109&#45;&gt;Node125</title>
<path fill="none" stroke="midnightblue" d="M1654.09,-162.1C1666.87,-152.38 1683.11,-140.03 1693.89,-131.83"/>
<polygon fill="midnightblue" stroke="midnightblue" points="1651.75,-159.48 1645.91,-168.32 1655.99,-165.06 1651.75,-159.48"/>
</g>
<!-- Node112&#45;&gt;Node113 -->
<g id="edge32" class="edge">
<title>Node112&#45;&gt;Node113</title>
<path fill="none" stroke="midnightblue" d="M1497.16,-102.98C1492.41,-93.82 1486.84,-83.09 1483.04,-75.75"/>
<polygon fill="midnightblue" stroke="midnightblue" points="1494.17,-104.82 1501.88,-112.08 1500.38,-101.59 1494.17,-104.82"/>
</g>
<!-- Node121&#45;&gt;Node20 -->
<g id="edge40" class="edge">
<title>Node121&#45;&gt;Node20</title>
<path fill="none" stroke="midnightblue" d="M1356.45,-162.74C1338.2,-150.01 1318.03,-130.56 1329.5,-112 1358.76,-64.66 1388.16,-71.87 1441.5,-56 1570.52,-17.62 1732.51,-11.66 1800.33,-10.95"/>
<polygon fill="midnightblue" stroke="midnightblue" points="1354.83,-165.87 1365.11,-168.42 1358.67,-160.01 1354.83,-165.87"/>
</g>
<!-- Node121&#45;&gt;Node108 -->
<g id="edge38" class="edge">
<title>Node121&#45;&gt;Node108</title>
<path fill="none" stroke="midnightblue" d="M1346.07,-164.38C1329.49,-156.95 1310.26,-146.2 1296.5,-132 1279.37,-114.32 1249.97,-44.22 1239.96,-19.6"/>
<polygon fill="midnightblue" stroke="midnightblue" points="1344.9,-167.68 1355.47,-168.37 1347.63,-161.24 1344.9,-167.68"/>
</g>
<!-- Node121&#45;&gt;Node122 -->
<g id="edge36" class="edge">
<title>Node121&#45;&gt;Node122</title>
<path fill="none" stroke="midnightblue" d="M1342.18,-165.57C1308.04,-155.38 1258.84,-140.7 1228.05,-131.52"/>
<polygon fill="midnightblue" stroke="midnightblue" points="1341.24,-168.94 1351.82,-168.44 1343.24,-162.23 1341.24,-168.94"/>
</g>
<!-- Node121&#45;&gt;Node123 -->
<g id="edge39" class="edge">
<title>Node121&#45;&gt;Node123</title>
<path fill="none" stroke="midnightblue" d="M1380.5,-157.8C1380.5,-148.91 1380.5,-138.78 1380.5,-131.75"/>
<polygon fill="midnightblue" stroke="midnightblue" points="1377,-158.08 1380.5,-168.08 1384,-158.08 1377,-158.08"/>
</g>
<!-- Node122&#45;&gt;Node107 -->
<g id="edge37" class="edge">
<title>Node122&#45;&gt;Node107</title>
<path fill="none" stroke="midnightblue" d="M1199.5,-101.8C1199.5,-92.91 1199.5,-82.78 1199.5,-75.75"/>
<polygon fill="midnightblue" stroke="midnightblue" points="1196,-102.08 1199.5,-112.08 1203,-102.08 1196,-102.08"/>
</g>
<!-- Node153&#45;&gt;Node20 -->
<g id="edge42" class="edge">
<title>Node153&#45;&gt;Node20</title>
<path fill="none" stroke="midnightblue" d="M1732.59,-52.5C1756.96,-42.38 1790.64,-28.39 1812,-19.52"/>
<polygon fill="midnightblue" stroke="midnightblue" points="1730.99,-49.38 1723.1,-56.44 1733.68,-55.84 1730.99,-49.38"/>
</g>
<!-- Node117&#45;&gt;Node20 -->
<g id="edge44" class="edge">
<title>Node117&#45;&gt;Node20</title>
<path fill="none" stroke="midnightblue" d="M1802.23,-48.14C1809.9,-38.74 1819.13,-27.4 1825.37,-19.75"/>
<polygon fill="midnightblue" stroke="midnightblue" points="1799.37,-46.12 1795.77,-56.08 1804.8,-50.54 1799.37,-46.12"/>
</g>
<!-- Node162&#45;&gt;Node160 -->
<g id="edge56" class="edge">
<title>Node162&#45;&gt;Node160</title>
<path fill="none" stroke="midnightblue" d="M2886.8,-167.93C2778.26,-149.9 2662.03,-133.21 2613.11,-126.3"/>
<polygon fill="midnightblue" stroke="midnightblue" points="2886.5,-171.43 2896.94,-169.62 2887.65,-164.52 2886.5,-171.43"/>
</g>
<!-- Node180&#45;&gt;Node20 -->
<g id="edge66" class="edge">
<title>Node180&#45;&gt;Node20</title>
<path fill="none" stroke="midnightblue" d="M1863.45,-48.14C1855.61,-38.74 1846.17,-27.4 1839.79,-19.75"/>
<polygon fill="midnightblue" stroke="midnightblue" points="1860.98,-50.64 1870.07,-56.08 1866.36,-46.16 1860.98,-50.64"/>
</g>
<!-- Node181&#45;&gt;Node20 -->
<g id="edge68" class="edge">
<title>Node181&#45;&gt;Node20</title>
<path fill="none" stroke="midnightblue" d="M1932.41,-52.5C1908.04,-42.38 1874.36,-28.39 1853,-19.52"/>
<polygon fill="midnightblue" stroke="midnightblue" points="1931.32,-55.84 1941.9,-56.44 1934.01,-49.38 1931.32,-55.84"/>
</g>
<!-- Node182&#45;&gt;Node20 -->
<g id="edge70" class="edge">
<title>Node182&#45;&gt;Node20</title>
<path fill="none" stroke="midnightblue" d="M1994.68,-55.23C1957.38,-45.06 1899.53,-29.28 1863.95,-19.58"/>
<polygon fill="midnightblue" stroke="midnightblue" points="1994.05,-58.69 2004.61,-57.94 1995.89,-51.93 1994.05,-58.69"/>
</g>
</g>
</svg>
