<?xml version="1.0" encoding="UTF-8" standalone="no"?>
<!DOCTYPE svg PUBLIC "-//W3C//DTD SVG 1.1//EN"
 "http://www.w3.org/Graphics/SVG/1.1/DTD/svg11.dtd">
<!-- Generated by graphviz version 2.43.0 (0)
 -->
<!-- Title: packet.h Pages: 1 -->
<svg width="979pt" height="688pt"
 viewBox="0.00 0.00 979.00 688.00" xmlns="http://www.w3.org/2000/svg" xmlns:xlink="http://www.w3.org/1999/xlink">
<g id="graph0" class="graph" transform="scale(1 1) rotate(0) translate(4 684)">
<title>packet.h</title>
<polygon fill="white" stroke="transparent" points="-4,4 -4,-684 975,-684 975,4 -4,4"/>
<!-- Node1 -->
<g id="node1" class="node">
<title>Node1</title>
<g id="a_node1"><a xlink:title=" ">
<polygon fill="#bfbfbf" stroke="black" points="202,-660.5 202,-679.5 260,-679.5 260,-660.5 202,-660.5"/>
<text text-anchor="middle" x="231" y="-667.5" font-family="Helvetica,sans-Serif" font-size="10.00">packet.h</text>
</a>
</g>
</g>
<!-- Node2 -->
<g id="node2" class="node">
<title>Node2</title>
<g id="a_node2"><a xlink:href="visibility__begin_8h_source.html" target="_top" xlink:title=" ">
<polygon fill="white" stroke="black" points="758.5,-0.5 758.5,-19.5 879.5,-19.5 879.5,-0.5 758.5,-0.5"/>
<text text-anchor="middle" x="819" y="-7.5" font-family="Helvetica,sans-Serif" font-size="10.00">odp/visibility_begin.h</text>
</a>
</g>
</g>
<!-- Node1&#45;&gt;Node2 -->
<g id="edge1" class="edge">
<title>Node1&#45;&gt;Node2</title>
<path fill="none" stroke="midnightblue" d="M260.01,-667.59C396.82,-660.58 971,-626.8 971,-553.5 971,-553.5 971,-553.5 971,-121 971,-67.44 908.29,-37.3 863.43,-22.59"/>
<polygon fill="midnightblue" stroke="midnightblue" points="864.46,-19.25 853.87,-19.6 862.37,-25.93 864.46,-19.25"/>
</g>
<!-- Node3 -->
<g id="node3" class="node">
<title>Node3</title>
<g id="a_node3"><a xlink:href="api_2proto__stats__types_8h.html" target="_top" xlink:title=" ">
<polygon fill="white" stroke="black" points="221,-470.5 221,-500.5 331,-500.5 331,-470.5 221,-470.5"/>
<text text-anchor="start" x="229" y="-488.5" font-family="Helvetica,sans-Serif" font-size="10.00">odp/api/proto_stats</text>
<text text-anchor="middle" x="276" y="-477.5" font-family="Helvetica,sans-Serif" font-size="10.00">_types.h</text>
</a>
</g>
</g>
<!-- Node1&#45;&gt;Node3 -->
<g id="edge2" class="edge">
<title>Node1&#45;&gt;Node3</title>
<path fill="none" stroke="midnightblue" d="M231.77,-660.5C233.85,-639.29 240.35,-582.45 254,-537 256.73,-527.92 260.64,-518.29 264.42,-509.91"/>
<polygon fill="midnightblue" stroke="midnightblue" points="267.64,-511.28 268.71,-500.74 261.3,-508.32 267.64,-511.28"/>
</g>
<!-- Node13 -->
<g id="node13" class="node">
<title>Node13</title>
<g id="a_node13"><a xlink:href="visibility__end_8h_source.html" target="_top" xlink:title=" ">
<polygon fill="white" stroke="black" points="222,-0.5 222,-19.5 334,-19.5 334,-0.5 222,-0.5"/>
<text text-anchor="middle" x="278" y="-7.5" font-family="Helvetica,sans-Serif" font-size="10.00">odp/visibility_end.h</text>
</a>
</g>
</g>
<!-- Node1&#45;&gt;Node13 -->
<g id="edge45" class="edge">
<title>Node1&#45;&gt;Node13</title>
<path fill="none" stroke="midnightblue" d="M201.74,-667.64C139.58,-663.03 0,-642.73 0,-553.5 0,-553.5 0,-553.5 0,-121 0,-84.28 19.71,-75.21 51,-56 99.49,-26.23 163.79,-15.63 211.58,-12.09"/>
<polygon fill="midnightblue" stroke="midnightblue" points="212.06,-15.57 221.82,-11.43 211.61,-8.59 212.06,-15.57"/>
</g>
<!-- Node14 -->
<g id="node14" class="node">
<title>Node14</title>
<g id="a_node14"><a xlink:href="api_2time_8h.html" target="_top" xlink:title=" ">
<polygon fill="white" stroke="black" points="115.5,-286 115.5,-305 202.5,-305 202.5,-286 115.5,-286"/>
<text text-anchor="middle" x="159" y="-293" font-family="Helvetica,sans-Serif" font-size="10.00">odp/api/time.h</text>
</a>
</g>
</g>
<!-- Node1&#45;&gt;Node14 -->
<g id="edge18" class="edge">
<title>Node1&#45;&gt;Node14</title>
<path fill="none" stroke="midnightblue" d="M201.85,-661.6C156.95,-648.26 76,-615.58 76,-553.5 76,-553.5 76,-553.5 76,-417.5 76,-372.84 114.93,-332.6 139.47,-311.67"/>
<polygon fill="midnightblue" stroke="midnightblue" points="141.96,-314.15 147.46,-305.1 137.51,-308.75 141.96,-314.15"/>
</g>
<!-- Node17 -->
<g id="node17" class="node">
<title>Node17</title>
<g id="a_node17"><a xlink:href="api_2packet__types_8h.html" target="_top" xlink:title=" ">
<polygon fill="white" stroke="black" points="259.5,-604.5 259.5,-623.5 388.5,-623.5 388.5,-604.5 259.5,-604.5"/>
<text text-anchor="middle" x="324" y="-611.5" font-family="Helvetica,sans-Serif" font-size="10.00">odp/api/packet_types.h</text>
</a>
</g>
</g>
<!-- Node1&#45;&gt;Node17 -->
<g id="edge24" class="edge">
<title>Node1&#45;&gt;Node17</title>
<path fill="none" stroke="midnightblue" d="M245.94,-660.32C260.59,-651.82 283.13,-638.73 300.24,-628.8"/>
<polygon fill="midnightblue" stroke="midnightblue" points="302.2,-631.7 309.1,-623.65 298.69,-625.65 302.2,-631.7"/>
</g>
<!-- Node4 -->
<g id="node4" class="node">
<title>Node4</title>
<g id="a_node4"><a xlink:title=" ">
<polygon fill="white" stroke="#bfbfbf" points="166,-403.5 166,-433.5 294,-433.5 294,-403.5 166,-403.5"/>
<text text-anchor="start" x="174" y="-421.5" font-family="Helvetica,sans-Serif" font-size="10.00">odp/api/abi/proto_stats</text>
<text text-anchor="middle" x="230" y="-410.5" font-family="Helvetica,sans-Serif" font-size="10.00">_types.h</text>
</a>
</g>
</g>
<!-- Node3&#45;&gt;Node4 -->
<g id="edge3" class="edge">
<title>Node3&#45;&gt;Node4</title>
<path fill="none" stroke="midnightblue" d="M266.02,-470.4C260.11,-462.05 252.5,-451.29 245.79,-441.81"/>
<polygon fill="midnightblue" stroke="midnightblue" points="248.6,-439.72 239.96,-433.58 242.88,-443.76 248.6,-439.72"/>
</g>
<!-- Node5 -->
<g id="node5" class="node">
<title>Node5</title>
<g id="a_node5"><a xlink:href="api_2spec_2proto__stats__types_8h.html" target="_top" xlink:title=" ">
<polygon fill="white" stroke="black" points="268.5,-280.5 268.5,-310.5 375.5,-310.5 375.5,-280.5 268.5,-280.5"/>
<text text-anchor="start" x="276.5" y="-298.5" font-family="Helvetica,sans-Serif" font-size="10.00">odp/api/spec/proto</text>
<text text-anchor="middle" x="322" y="-287.5" font-family="Helvetica,sans-Serif" font-size="10.00">_stats_types.h</text>
</a>
</g>
</g>
<!-- Node3&#45;&gt;Node5 -->
<g id="edge4" class="edge">
<title>Node3&#45;&gt;Node5</title>
<path fill="none" stroke="midnightblue" d="M285.48,-470.09C291.46,-460.31 298.82,-446.86 303,-434 315.49,-395.56 319.77,-348.46 321.24,-320.56"/>
<polygon fill="midnightblue" stroke="midnightblue" points="324.73,-320.67 321.68,-310.52 317.74,-320.36 324.73,-320.67"/>
</g>
<!-- Node5&#45;&gt;Node2 -->
<g id="edge5" class="edge">
<title>Node5&#45;&gt;Node2</title>
<path fill="none" stroke="midnightblue" d="M375.58,-285.12C474.36,-265 685.53,-208.32 800,-76 811.17,-63.09 815.78,-43.92 817.68,-29.74"/>
<polygon fill="midnightblue" stroke="midnightblue" points="821.18,-29.95 818.7,-19.65 814.21,-29.25 821.18,-29.95"/>
</g>
<!-- Node6 -->
<g id="node6" class="node">
<title>Node6</title>
<g id="a_node6"><a xlink:href="api_2std__types_8h.html" target="_top" xlink:title=" ">
<polygon fill="white" stroke="black" points="266,-224.5 266,-243.5 378,-243.5 378,-224.5 266,-224.5"/>
<text text-anchor="middle" x="322" y="-231.5" font-family="Helvetica,sans-Serif" font-size="10.00">odp/api/std_types.h</text>
</a>
</g>
</g>
<!-- Node5&#45;&gt;Node6 -->
<g id="edge6" class="edge">
<title>Node5&#45;&gt;Node6</title>
<path fill="none" stroke="midnightblue" d="M322,-280.4C322,-272.47 322,-262.46 322,-253.86"/>
<polygon fill="midnightblue" stroke="midnightblue" points="325.5,-253.66 322,-243.66 318.5,-253.66 325.5,-253.66"/>
</g>
<!-- Node5&#45;&gt;Node13 -->
<g id="edge17" class="edge">
<title>Node5&#45;&gt;Node13</title>
<path fill="none" stroke="midnightblue" d="M295.01,-280.49C266.62,-265.9 220.52,-242.62 180,-224 142.72,-206.87 117.66,-222.2 95,-188 71.74,-152.88 34.53,-149.11 126,-56 148.44,-33.16 181.88,-21.78 211.68,-16.17"/>
<polygon fill="midnightblue" stroke="midnightblue" points="212.36,-19.61 221.63,-14.48 211.19,-12.71 212.36,-19.61"/>
</g>
<!-- Node7 -->
<g id="node7" class="node">
<title>Node7</title>
<g id="a_node7"><a xlink:title=" ">
<polygon fill="white" stroke="#bfbfbf" points="104,-168.5 104,-187.5 234,-187.5 234,-168.5 104,-168.5"/>
<text text-anchor="middle" x="169" y="-175.5" font-family="Helvetica,sans-Serif" font-size="10.00">odp/api/abi/std_types.h</text>
</a>
</g>
</g>
<!-- Node6&#45;&gt;Node7 -->
<g id="edge7" class="edge">
<title>Node6&#45;&gt;Node7</title>
<path fill="none" stroke="midnightblue" d="M297.76,-224.44C272.13,-215.4 231.51,-201.06 202.76,-190.92"/>
<polygon fill="midnightblue" stroke="midnightblue" points="203.72,-187.54 193.13,-187.52 201.39,-194.15 203.72,-187.54"/>
</g>
<!-- Node8 -->
<g id="node8" class="node">
<title>Node8</title>
<g id="a_node8"><a xlink:href="api_2spec_2std__types_8h.html" target="_top" xlink:title=" ">
<polygon fill="white" stroke="black" points="252.5,-168.5 252.5,-187.5 389.5,-187.5 389.5,-168.5 252.5,-168.5"/>
<text text-anchor="middle" x="321" y="-175.5" font-family="Helvetica,sans-Serif" font-size="10.00">odp/api/spec/std_types.h</text>
</a>
</g>
</g>
<!-- Node6&#45;&gt;Node8 -->
<g id="edge8" class="edge">
<title>Node6&#45;&gt;Node8</title>
<path fill="none" stroke="midnightblue" d="M321.83,-224.08C321.7,-217.01 321.52,-206.86 321.35,-197.99"/>
<polygon fill="midnightblue" stroke="midnightblue" points="324.85,-197.68 321.16,-187.75 317.85,-197.81 324.85,-197.68"/>
</g>
<!-- Node8&#45;&gt;Node2 -->
<g id="edge9" class="edge">
<title>Node8&#45;&gt;Node2</title>
<path fill="none" stroke="midnightblue" d="M332.63,-168.42C367.01,-143.23 468.12,-70.3 506,-56 585.47,-26 683.21,-15.82 748.11,-12.47"/>
<polygon fill="midnightblue" stroke="midnightblue" points="748.41,-15.96 758.24,-11.99 748.08,-8.97 748.41,-15.96"/>
</g>
<!-- Node9 -->
<g id="node9" class="node">
<title>Node9</title>
<g id="a_node9"><a xlink:title=" ">
<polygon fill="white" stroke="#bfbfbf" points="208.5,-112.5 208.5,-131.5 261.5,-131.5 261.5,-112.5 208.5,-112.5"/>
<text text-anchor="middle" x="235" y="-119.5" font-family="Helvetica,sans-Serif" font-size="10.00">stdint.h</text>
</a>
</g>
</g>
<!-- Node8&#45;&gt;Node9 -->
<g id="edge10" class="edge">
<title>Node8&#45;&gt;Node9</title>
<path fill="none" stroke="midnightblue" d="M307.18,-168.32C293.77,-159.9 273.18,-146.97 257.41,-137.07"/>
<polygon fill="midnightblue" stroke="midnightblue" points="259.11,-134.01 248.78,-131.65 255.39,-139.94 259.11,-134.01"/>
</g>
<!-- Node10 -->
<g id="node10" class="node">
<title>Node10</title>
<g id="a_node10"><a xlink:href="api_2align_8h.html" target="_top" xlink:title=" ">
<polygon fill="white" stroke="black" points="279.5,-112.5 279.5,-131.5 368.5,-131.5 368.5,-112.5 279.5,-112.5"/>
<text text-anchor="middle" x="324" y="-119.5" font-family="Helvetica,sans-Serif" font-size="10.00">odp/api/align.h</text>
</a>
</g>
</g>
<!-- Node8&#45;&gt;Node10 -->
<g id="edge11" class="edge">
<title>Node8&#45;&gt;Node10</title>
<path fill="none" stroke="midnightblue" d="M321.5,-168.08C321.89,-161.01 322.45,-150.86 322.95,-141.99"/>
<polygon fill="midnightblue" stroke="midnightblue" points="326.45,-141.93 323.51,-131.75 319.46,-141.54 326.45,-141.93"/>
</g>
<!-- Node8&#45;&gt;Node13 -->
<g id="edge16" class="edge">
<title>Node8&#45;&gt;Node13</title>
<path fill="none" stroke="midnightblue" d="M274.64,-168.39C227.65,-156.77 158.37,-130.8 133,-76 116.05,-39.38 165.8,-23.39 211.57,-16.41"/>
<polygon fill="midnightblue" stroke="midnightblue" points="212.13,-19.86 221.55,-15.01 211.16,-12.93 212.13,-19.86"/>
</g>
<!-- Node11 -->
<g id="node11" class="node">
<title>Node11</title>
<g id="a_node11"><a xlink:title=" ">
<polygon fill="white" stroke="#bfbfbf" points="142.5,-56.5 142.5,-75.5 249.5,-75.5 249.5,-56.5 142.5,-56.5"/>
<text text-anchor="middle" x="196" y="-63.5" font-family="Helvetica,sans-Serif" font-size="10.00">odp/api/abi/align.h</text>
</a>
</g>
</g>
<!-- Node10&#45;&gt;Node11 -->
<g id="edge12" class="edge">
<title>Node10&#45;&gt;Node11</title>
<path fill="none" stroke="midnightblue" d="M303.72,-112.44C282.65,-103.56 249.48,-89.56 225.51,-79.45"/>
<polygon fill="midnightblue" stroke="midnightblue" points="226.76,-76.18 216.19,-75.52 224.04,-82.63 226.76,-76.18"/>
</g>
<!-- Node12 -->
<g id="node12" class="node">
<title>Node12</title>
<g id="a_node12"><a xlink:href="api_2spec_2align_8h.html" target="_top" xlink:title=" ">
<polygon fill="white" stroke="black" points="306,-56.5 306,-75.5 420,-75.5 420,-56.5 306,-56.5"/>
<text text-anchor="middle" x="363" y="-63.5" font-family="Helvetica,sans-Serif" font-size="10.00">odp/api/spec/align.h</text>
</a>
</g>
</g>
<!-- Node10&#45;&gt;Node12 -->
<g id="edge13" class="edge">
<title>Node10&#45;&gt;Node12</title>
<path fill="none" stroke="midnightblue" d="M330.44,-112.08C335.95,-104.46 344.03,-93.26 350.76,-83.94"/>
<polygon fill="midnightblue" stroke="midnightblue" points="353.66,-85.91 356.68,-75.75 347.99,-81.81 353.66,-85.91"/>
</g>
<!-- Node12&#45;&gt;Node2 -->
<g id="edge14" class="edge">
<title>Node12&#45;&gt;Node2</title>
<path fill="none" stroke="midnightblue" d="M420.35,-57.68C424.96,-57.11 429.56,-56.54 434,-56 543.64,-42.64 670.95,-27.92 748.2,-19.07"/>
<polygon fill="midnightblue" stroke="midnightblue" points="748.76,-22.52 758.3,-17.91 747.96,-15.57 748.76,-22.52"/>
</g>
<!-- Node12&#45;&gt;Node13 -->
<g id="edge15" class="edge">
<title>Node12&#45;&gt;Node13</title>
<path fill="none" stroke="midnightblue" d="M349.34,-56.32C336.08,-47.9 315.73,-34.97 300.15,-25.07"/>
<polygon fill="midnightblue" stroke="midnightblue" points="301.94,-22.06 291.62,-19.65 298.19,-27.97 301.94,-22.06"/>
</g>
<!-- Node14&#45;&gt;Node6 -->
<g id="edge19" class="edge">
<title>Node14&#45;&gt;Node6</title>
<path fill="none" stroke="midnightblue" d="M182.35,-285.98C210.31,-275.77 257.33,-258.61 288.99,-247.05"/>
<polygon fill="midnightblue" stroke="midnightblue" points="290.5,-250.23 298.69,-243.51 288.1,-243.65 290.5,-250.23"/>
</g>
<!-- Node15 -->
<g id="node15" class="node">
<title>Node15</title>
<g id="a_node15"><a xlink:title=" ">
<polygon fill="white" stroke="#bfbfbf" points="66.5,-224.5 66.5,-243.5 171.5,-243.5 171.5,-224.5 66.5,-224.5"/>
<text text-anchor="middle" x="119" y="-231.5" font-family="Helvetica,sans-Serif" font-size="10.00">odp/api/abi/time.h</text>
</a>
</g>
</g>
<!-- Node14&#45;&gt;Node15 -->
<g id="edge20" class="edge">
<title>Node14&#45;&gt;Node15</title>
<path fill="none" stroke="midnightblue" d="M153.27,-285.98C147.33,-277.14 137.88,-263.09 130.41,-251.98"/>
<polygon fill="midnightblue" stroke="midnightblue" points="133.2,-249.86 124.72,-243.51 127.39,-253.76 133.2,-249.86"/>
</g>
<!-- Node16 -->
<g id="node16" class="node">
<title>Node16</title>
<g id="a_node16"><a xlink:href="api_2spec_2time_8h.html" target="_top" xlink:title=" ">
<polygon fill="white" stroke="black" points="514.5,-56.5 514.5,-75.5 627.5,-75.5 627.5,-56.5 514.5,-56.5"/>
<text text-anchor="middle" x="571" y="-63.5" font-family="Helvetica,sans-Serif" font-size="10.00">odp/api/spec/time.h</text>
</a>
</g>
</g>
<!-- Node14&#45;&gt;Node16 -->
<g id="edge21" class="edge">
<title>Node14&#45;&gt;Node16</title>
<path fill="none" stroke="midnightblue" d="M168.25,-285.98C184.79,-271.18 221.09,-240.73 257,-224 316.02,-196.51 339.84,-215.18 399,-188 460.9,-159.56 523.94,-108.3 553.57,-82.59"/>
<polygon fill="midnightblue" stroke="midnightblue" points="556.13,-85 561.34,-75.77 551.51,-79.74 556.13,-85"/>
</g>
<!-- Node16&#45;&gt;Node2 -->
<g id="edge22" class="edge">
<title>Node16&#45;&gt;Node2</title>
<path fill="none" stroke="midnightblue" d="M610.3,-56.44C653.56,-47.02 723.17,-31.87 769.97,-21.68"/>
<polygon fill="midnightblue" stroke="midnightblue" points="770.86,-25.06 779.89,-19.52 769.37,-18.22 770.86,-25.06"/>
</g>
<!-- Node16&#45;&gt;Node13 -->
<g id="edge23" class="edge">
<title>Node16&#45;&gt;Node13</title>
<path fill="none" stroke="midnightblue" d="M524.57,-56.44C472.92,-46.92 389.49,-31.55 334.19,-21.36"/>
<polygon fill="midnightblue" stroke="midnightblue" points="334.68,-17.89 324.21,-19.52 333.41,-24.77 334.68,-17.89"/>
</g>
<!-- Node18 -->
<g id="node18" class="node">
<title>Node18</title>
<g id="a_node18"><a xlink:title=" ">
<polygon fill="white" stroke="#bfbfbf" points="395,-537.5 395,-567.5 501,-567.5 501,-537.5 395,-537.5"/>
<text text-anchor="start" x="403" y="-555.5" font-family="Helvetica,sans-Serif" font-size="10.00">odp/api/abi/packet</text>
<text text-anchor="middle" x="448" y="-544.5" font-family="Helvetica,sans-Serif" font-size="10.00">_types.h</text>
</a>
</g>
</g>
<!-- Node17&#45;&gt;Node18 -->
<g id="edge25" class="edge">
<title>Node17&#45;&gt;Node18</title>
<path fill="none" stroke="midnightblue" d="M341.77,-604.48C359.42,-596 387.07,-582.74 409.73,-571.86"/>
<polygon fill="midnightblue" stroke="midnightblue" points="411.27,-575 418.78,-567.52 408.25,-568.69 411.27,-575"/>
</g>
<!-- Node19 -->
<g id="node19" class="node">
<title>Node19</title>
<g id="a_node19"><a xlink:href="api_2spec_2packet__types_8h.html" target="_top" xlink:title=" ">
<polygon fill="white" stroke="black" points="263.5,-537.5 263.5,-567.5 376.5,-567.5 376.5,-537.5 263.5,-537.5"/>
<text text-anchor="start" x="271.5" y="-555.5" font-family="Helvetica,sans-Serif" font-size="10.00">odp/api/spec/packet</text>
<text text-anchor="middle" x="320" y="-544.5" font-family="Helvetica,sans-Serif" font-size="10.00">_types.h</text>
</a>
</g>
</g>
<!-- Node17&#45;&gt;Node19 -->
<g id="edge26" class="edge">
<title>Node17&#45;&gt;Node19</title>
<path fill="none" stroke="midnightblue" d="M323.43,-604.48C322.96,-597.47 322.27,-587.19 321.63,-577.7"/>
<polygon fill="midnightblue" stroke="midnightblue" points="325.11,-577.27 320.94,-567.52 318.12,-577.74 325.11,-577.27"/>
</g>
<!-- Node19&#45;&gt;Node2 -->
<g id="edge27" class="edge">
<title>Node19&#45;&gt;Node2</title>
<path fill="none" stroke="midnightblue" d="M376.81,-538.66C379.92,-538.07 382.99,-537.51 386,-537 508.56,-516.13 933,-543.83 933,-419.5 933,-419.5 933,-419.5 933,-121 933,-74.11 882.45,-40.89 848.67,-23.93"/>
<polygon fill="midnightblue" stroke="midnightblue" points="850.17,-20.77 839.64,-19.58 847.13,-27.07 850.17,-20.77"/>
</g>
<!-- Node19&#45;&gt;Node3 -->
<g id="edge28" class="edge">
<title>Node19&#45;&gt;Node3</title>
<path fill="none" stroke="midnightblue" d="M310.45,-537.4C304.86,-529.13 297.67,-518.51 291.3,-509.1"/>
<polygon fill="midnightblue" stroke="midnightblue" points="294.03,-506.9 285.53,-500.58 288.24,-510.82 294.03,-506.9"/>
</g>
<!-- Node19&#45;&gt;Node13 -->
<g id="edge44" class="edge">
<title>Node19&#45;&gt;Node13</title>
<path fill="none" stroke="midnightblue" d="M263.27,-539.52C180.92,-518.42 38,-466.21 38,-358 38,-358 38,-358 38,-121 38,-44.33 140.47,-20.89 211.5,-13.85"/>
<polygon fill="midnightblue" stroke="midnightblue" points="212.09,-17.31 221.73,-12.93 211.46,-10.34 212.09,-17.31"/>
</g>
<!-- Node20 -->
<g id="node20" class="node">
<title>Node20</title>
<g id="a_node20"><a xlink:href="api_2queue__types_8h.html" target="_top" xlink:title=" ">
<polygon fill="white" stroke="black" points="545.5,-476 545.5,-495 672.5,-495 672.5,-476 545.5,-476"/>
<text text-anchor="middle" x="609" y="-483" font-family="Helvetica,sans-Serif" font-size="10.00">odp/api/queue_types.h</text>
</a>
</g>
</g>
<!-- Node19&#45;&gt;Node20 -->
<g id="edge29" class="edge">
<title>Node19&#45;&gt;Node20</title>
<path fill="none" stroke="midnightblue" d="M376.75,-538.74C430.42,-526.66 510.09,-508.75 560.77,-497.35"/>
<polygon fill="midnightblue" stroke="midnightblue" points="561.83,-500.7 570.81,-495.09 560.29,-493.87 561.83,-500.7"/>
</g>
<!-- Node21 -->
<g id="node21" class="node">
<title>Node21</title>
<g id="a_node21"><a xlink:title=" ">
<polygon fill="white" stroke="#bfbfbf" points="682.5,-409 682.5,-428 827.5,-428 827.5,-409 682.5,-409"/>
<text text-anchor="middle" x="755" y="-416" font-family="Helvetica,sans-Serif" font-size="10.00">odp/api/abi/queue_types.h</text>
</a>
</g>
</g>
<!-- Node20&#45;&gt;Node21 -->
<g id="edge30" class="edge">
<title>Node20&#45;&gt;Node21</title>
<path fill="none" stroke="midnightblue" d="M628.39,-475.87C653.48,-464.7 697.39,-445.15 726.34,-432.26"/>
<polygon fill="midnightblue" stroke="midnightblue" points="727.82,-435.43 735.53,-428.17 724.97,-429.04 727.82,-435.43"/>
</g>
<!-- Node22 -->
<g id="node22" class="node">
<title>Node22</title>
<g id="a_node22"><a xlink:href="api_2spec_2queue__types_8h.html" target="_top" xlink:title=" ">
<polygon fill="white" stroke="black" points="553.5,-403.5 553.5,-433.5 664.5,-433.5 664.5,-403.5 553.5,-403.5"/>
<text text-anchor="start" x="561.5" y="-421.5" font-family="Helvetica,sans-Serif" font-size="10.00">odp/api/spec/queue</text>
<text text-anchor="middle" x="609" y="-410.5" font-family="Helvetica,sans-Serif" font-size="10.00">_types.h</text>
</a>
</g>
</g>
<!-- Node20&#45;&gt;Node22 -->
<g id="edge31" class="edge">
<title>Node20&#45;&gt;Node22</title>
<path fill="none" stroke="midnightblue" d="M609,-475.73C609,-467.54 609,-454.92 609,-443.71"/>
<polygon fill="midnightblue" stroke="midnightblue" points="612.5,-443.59 609,-433.59 605.5,-443.59 612.5,-443.59"/>
</g>
<!-- Node22&#45;&gt;Node2 -->
<g id="edge32" class="edge">
<title>Node22&#45;&gt;Node2</title>
<path fill="none" stroke="midnightblue" d="M664.65,-404.98C667.81,-404.3 670.94,-403.64 674,-403 756,-385.88 792.09,-417.39 859,-367 887.1,-345.84 895,-331.68 895,-296.5 895,-296.5 895,-296.5 895,-121 895,-81.28 861.04,-45.5 838.52,-26.15"/>
<polygon fill="midnightblue" stroke="midnightblue" points="840.48,-23.24 830.54,-19.57 836.02,-28.63 840.48,-23.24"/>
</g>
<!-- Node22&#45;&gt;Node13 -->
<g id="edge43" class="edge">
<title>Node22&#45;&gt;Node13</title>
<path fill="none" stroke="midnightblue" d="M580.57,-403.4C546.52,-384.27 494,-346.64 494,-296.5 494,-296.5 494,-296.5 494,-233 494,-158.19 438.21,-155.01 377,-112 345.1,-89.58 322.6,-105.41 297,-76 285.79,-63.12 281.19,-43.95 279.3,-29.76"/>
<polygon fill="midnightblue" stroke="midnightblue" points="282.77,-29.26 278.29,-19.66 275.8,-29.96 282.77,-29.26"/>
</g>
<!-- Node23 -->
<g id="node23" class="node">
<title>Node23</title>
<g id="a_node23"><a xlink:href="api_2schedule__types_8h.html" target="_top" xlink:title=" ">
<polygon fill="white" stroke="black" points="539,-347.5 539,-366.5 679,-366.5 679,-347.5 539,-347.5"/>
<text text-anchor="middle" x="609" y="-354.5" font-family="Helvetica,sans-Serif" font-size="10.00">odp/api/schedule_types.h</text>
</a>
</g>
</g>
<!-- Node22&#45;&gt;Node23 -->
<g id="edge33" class="edge">
<title>Node22&#45;&gt;Node23</title>
<path fill="none" stroke="midnightblue" d="M609,-403.4C609,-395.47 609,-385.46 609,-376.86"/>
<polygon fill="midnightblue" stroke="midnightblue" points="612.5,-376.66 609,-366.66 605.5,-376.66 612.5,-376.66"/>
</g>
<!-- Node26 -->
<g id="node26" class="node">
<title>Node26</title>
<g id="a_node26"><a xlink:href="deprecated_8h.html" target="_top" xlink:title=" ">
<polygon fill="white" stroke="black" points="730.5,-347.5 730.5,-366.5 849.5,-366.5 849.5,-347.5 730.5,-347.5"/>
<text text-anchor="middle" x="790" y="-354.5" font-family="Helvetica,sans-Serif" font-size="10.00">odp/api/deprecated.h</text>
</a>
</g>
</g>
<!-- Node22&#45;&gt;Node26 -->
<g id="edge39" class="edge">
<title>Node22&#45;&gt;Node26</title>
<path fill="none" stroke="midnightblue" d="M651.89,-403.4C683.03,-393.16 724.69,-379.47 754.08,-369.81"/>
<polygon fill="midnightblue" stroke="midnightblue" points="755.52,-373.02 763.93,-366.57 753.33,-366.37 755.52,-373.02"/>
</g>
<!-- Node24 -->
<g id="node24" class="node">
<title>Node24</title>
<g id="a_node24"><a xlink:title=" ">
<polygon fill="white" stroke="#bfbfbf" points="665.5,-280.5 665.5,-310.5 782.5,-310.5 782.5,-280.5 665.5,-280.5"/>
<text text-anchor="start" x="673.5" y="-298.5" font-family="Helvetica,sans-Serif" font-size="10.00">odp/api/abi/schedule</text>
<text text-anchor="middle" x="724" y="-287.5" font-family="Helvetica,sans-Serif" font-size="10.00">_types.h</text>
</a>
</g>
</g>
<!-- Node23&#45;&gt;Node24 -->
<g id="edge34" class="edge">
<title>Node23&#45;&gt;Node24</title>
<path fill="none" stroke="midnightblue" d="M625.48,-347.48C641.71,-339.08 667.04,-325.97 687.95,-315.15"/>
<polygon fill="midnightblue" stroke="midnightblue" points="689.62,-318.23 696.9,-310.52 686.41,-312.01 689.62,-318.23"/>
</g>
<!-- Node25 -->
<g id="node25" class="node">
<title>Node25</title>
<g id="a_node25"><a xlink:href="api_2spec_2schedule__types_8h.html" target="_top" xlink:title=" ">
<polygon fill="white" stroke="black" points="522.5,-280.5 522.5,-310.5 647.5,-310.5 647.5,-280.5 522.5,-280.5"/>
<text text-anchor="start" x="530.5" y="-298.5" font-family="Helvetica,sans-Serif" font-size="10.00">odp/api/spec/schedule</text>
<text text-anchor="middle" x="585" y="-287.5" font-family="Helvetica,sans-Serif" font-size="10.00">_types.h</text>
</a>
</g>
</g>
<!-- Node23&#45;&gt;Node25 -->
<g id="edge35" class="edge">
<title>Node23&#45;&gt;Node25</title>
<path fill="none" stroke="midnightblue" d="M605.56,-347.48C602.68,-340.32 598.41,-329.75 594.51,-320.08"/>
<polygon fill="midnightblue" stroke="midnightblue" points="597.64,-318.49 590.66,-310.52 591.15,-321.11 597.64,-318.49"/>
</g>
<!-- Node25&#45;&gt;Node2 -->
<g id="edge36" class="edge">
<title>Node25&#45;&gt;Node2</title>
<path fill="none" stroke="midnightblue" d="M629.4,-280.35C688.29,-258.89 789.81,-211.93 833,-132 850.86,-98.95 837.19,-53.51 827.15,-28.79"/>
<polygon fill="midnightblue" stroke="midnightblue" points="830.35,-27.35 823.18,-19.55 823.92,-30.12 830.35,-27.35"/>
</g>
<!-- Node25&#45;&gt;Node6 -->
<g id="edge37" class="edge">
<title>Node25&#45;&gt;Node6</title>
<path fill="none" stroke="midnightblue" d="M523.01,-280.47C476.05,-269.85 412.5,-255.47 369.52,-245.75"/>
<polygon fill="midnightblue" stroke="midnightblue" points="370.13,-242.3 359.6,-243.51 368.58,-249.13 370.13,-242.3"/>
</g>
<!-- Node25&#45;&gt;Node13 -->
<g id="edge38" class="edge">
<title>Node25&#45;&gt;Node13</title>
<path fill="none" stroke="midnightblue" d="M580.33,-280.09C569.33,-247.68 539.46,-167.52 496,-112 472.08,-81.44 463.19,-74.36 429,-56 399.36,-40.08 363.34,-29.07 333.92,-21.93"/>
<polygon fill="midnightblue" stroke="midnightblue" points="334.35,-18.43 323.81,-19.56 332.75,-25.25 334.35,-18.43"/>
</g>
<!-- Node27 -->
<g id="node27" class="node">
<title>Node27</title>
<g id="a_node27"><a xlink:href="spec_2deprecated_8h.html" target="_top" xlink:title=" ">
<polygon fill="white" stroke="black" points="645.5,-56.5 645.5,-75.5 790.5,-75.5 790.5,-56.5 645.5,-56.5"/>
<text text-anchor="middle" x="718" y="-63.5" font-family="Helvetica,sans-Serif" font-size="10.00">odp/api/spec/deprecated.h</text>
</a>
</g>
</g>
<!-- Node26&#45;&gt;Node27 -->
<g id="edge40" class="edge">
<title>Node26&#45;&gt;Node27</title>
<path fill="none" stroke="midnightblue" d="M791.28,-347.49C793.18,-333.36 796.09,-304.21 792,-280 779.31,-204.81 743.09,-120.74 726.5,-84.82"/>
<polygon fill="midnightblue" stroke="midnightblue" points="729.61,-83.22 722.2,-75.65 723.27,-86.19 729.61,-83.22"/>
</g>
<!-- Node27&#45;&gt;Node2 -->
<g id="edge41" class="edge">
<title>Node27&#45;&gt;Node2</title>
<path fill="none" stroke="midnightblue" d="M734.23,-56.32C750.35,-47.7 775.3,-34.36 793.96,-24.39"/>
<polygon fill="midnightblue" stroke="midnightblue" points="795.64,-27.46 802.81,-19.65 792.34,-21.28 795.64,-27.46"/>
</g>
<!-- Node27&#45;&gt;Node13 -->
<g id="edge42" class="edge">
<title>Node27&#45;&gt;Node13</title>
<path fill="none" stroke="midnightblue" d="M648.28,-56.44C564.77,-46.19 425.92,-29.15 344.07,-19.11"/>
<polygon fill="midnightblue" stroke="midnightblue" points="344.48,-15.63 334.13,-17.89 343.63,-22.58 344.48,-15.63"/>
</g>
</g>
</svg>
