<?xml version="1.0" encoding="UTF-8" standalone="no"?>
<!DOCTYPE svg PUBLIC "-//W3C//DTD SVG 1.1//EN"
 "http://www.w3.org/Graphics/SVG/1.1/DTD/svg11.dtd">
<!-- Generated by graphviz version 2.43.0 (0)
 -->
<!-- Title: comp.h Pages: 1 -->
<svg width="1318pt" height="856pt"
 viewBox="0.00 0.00 1318.00 856.00" xmlns="http://www.w3.org/2000/svg" xmlns:xlink="http://www.w3.org/1999/xlink">
<g id="graph0" class="graph" transform="scale(1 1) rotate(0) translate(4 852)">
<title>comp.h</title>
<polygon fill="white" stroke="transparent" points="-4,4 -4,-852 1314,-852 1314,4 -4,4"/>
<!-- Node1 -->
<g id="node1" class="node">
<title>Node1</title>
<g id="a_node1"><a xlink:title=" ">
<polygon fill="#bfbfbf" stroke="black" points="374.5,-828.5 374.5,-847.5 427.5,-847.5 427.5,-828.5 374.5,-828.5"/>
<text text-anchor="middle" x="401" y="-835.5" font-family="Helvetica,sans-Serif" font-size="10.00">comp.h</text>
</a>
</g>
</g>
<!-- Node2 -->
<g id="node2" class="node">
<title>Node2</title>
<g id="a_node2"><a xlink:title=" ">
<polygon fill="white" stroke="#bfbfbf" points="0,-772.5 0,-791.5 110,-791.5 110,-772.5 0,-772.5"/>
<text text-anchor="middle" x="55" y="-779.5" font-family="Helvetica,sans-Serif" font-size="10.00">odp/api/abi/comp.h</text>
</a>
</g>
</g>
<!-- Node1&#45;&gt;Node2 -->
<g id="edge1" class="edge">
<title>Node1&#45;&gt;Node2</title>
<path fill="none" stroke="midnightblue" d="M374.42,-832.85C320.36,-824.41 196.21,-805.04 119.59,-793.08"/>
<polygon fill="midnightblue" stroke="midnightblue" points="119.99,-789.6 109.57,-791.52 118.91,-796.52 119.99,-789.6"/>
</g>
<!-- Node3 -->
<g id="node3" class="node">
<title>Node3</title>
<g id="a_node3"><a xlink:title=" ">
<polygon fill="white" stroke="#bfbfbf" points="143,-660.5 143,-679.5 253,-679.5 253,-660.5 143,-660.5"/>
<text text-anchor="middle" x="198" y="-667.5" font-family="Helvetica,sans-Serif" font-size="10.00">odp/api/abi/event.h</text>
</a>
</g>
</g>
<!-- Node1&#45;&gt;Node3 -->
<g id="edge2" class="edge">
<title>Node1&#45;&gt;Node3</title>
<path fill="none" stroke="midnightblue" d="M390.37,-828.31C357.62,-801.53 257.96,-720.03 216.45,-686.09"/>
<polygon fill="midnightblue" stroke="midnightblue" points="218.48,-683.23 208.52,-679.61 214.05,-688.64 218.48,-683.23"/>
</g>
<!-- Node4 -->
<g id="node4" class="node">
<title>Node4</title>
<g id="a_node4"><a xlink:title=" ">
<polygon fill="white" stroke="#bfbfbf" points="1098.5,-409 1098.5,-428 1243.5,-428 1243.5,-409 1098.5,-409"/>
<text text-anchor="middle" x="1171" y="-416" font-family="Helvetica,sans-Serif" font-size="10.00">odp/api/abi/queue_types.h</text>
</a>
</g>
</g>
<!-- Node1&#45;&gt;Node4 -->
<g id="edge3" class="edge">
<title>Node1&#45;&gt;Node4</title>
<path fill="none" stroke="midnightblue" d="M427.77,-836.35C570.35,-832.54 1234,-810.33 1234,-727 1234,-727 1234,-727 1234,-551.5 1234,-506.24 1203.46,-460.02 1184.91,-436.11"/>
<polygon fill="midnightblue" stroke="midnightblue" points="1187.46,-433.7 1178.47,-428.09 1182,-438.08 1187.46,-433.7"/>
</g>
<!-- Node5 -->
<g id="node5" class="node">
<title>Node5</title>
<g id="a_node5"><a xlink:href="api_2spec_2comp_8h.html" target="_top" xlink:title=" ">
<polygon fill="white" stroke="black" points="604.5,-772.5 604.5,-791.5 721.5,-791.5 721.5,-772.5 604.5,-772.5"/>
<text text-anchor="middle" x="663" y="-779.5" font-family="Helvetica,sans-Serif" font-size="10.00">odp/api/spec/comp.h</text>
</a>
</g>
</g>
<!-- Node1&#45;&gt;Node5 -->
<g id="edge4" class="edge">
<title>Node1&#45;&gt;Node5</title>
<path fill="none" stroke="midnightblue" d="M427.56,-831.53C470.55,-822.67 556.11,-805.03 611.39,-793.64"/>
<polygon fill="midnightblue" stroke="midnightblue" points="612.26,-797.03 621.35,-791.59 610.85,-790.18 612.26,-797.03"/>
</g>
<!-- Node6 -->
<g id="node6" class="node">
<title>Node6</title>
<g id="a_node6"><a xlink:href="visibility__begin_8h_source.html" target="_top" xlink:title=" ">
<polygon fill="white" stroke="black" points="960.5,-0.5 960.5,-19.5 1081.5,-19.5 1081.5,-0.5 960.5,-0.5"/>
<text text-anchor="middle" x="1021" y="-7.5" font-family="Helvetica,sans-Serif" font-size="10.00">odp/visibility_begin.h</text>
</a>
</g>
</g>
<!-- Node5&#45;&gt;Node6 -->
<g id="edge5" class="edge">
<title>Node5&#45;&gt;Node6</title>
<path fill="none" stroke="midnightblue" d="M721.73,-781.63C786.55,-780.3 892.75,-772.04 976,-736 1163.67,-654.75 1310,-624.01 1310,-419.5 1310,-419.5 1310,-419.5 1310,-121 1310,-84.82 1291.75,-75.07 1261,-56 1233.29,-38.81 1152.2,-26.03 1091.91,-18.57"/>
<polygon fill="midnightblue" stroke="midnightblue" points="1092.01,-15.05 1081.66,-17.33 1091.17,-22 1092.01,-15.05"/>
</g>
<!-- Node7 -->
<g id="node7" class="node">
<title>Node7</title>
<g id="a_node7"><a xlink:href="api_2std__types_8h.html" target="_top" xlink:title=" ">
<polygon fill="white" stroke="black" points="809,-224.5 809,-243.5 921,-243.5 921,-224.5 809,-224.5"/>
<text text-anchor="middle" x="865" y="-231.5" font-family="Helvetica,sans-Serif" font-size="10.00">odp/api/std_types.h</text>
</a>
</g>
</g>
<!-- Node5&#45;&gt;Node7 -->
<g id="edge6" class="edge">
<title>Node5&#45;&gt;Node7</title>
<path fill="none" stroke="midnightblue" d="M721.8,-775.58C825.26,-764.41 1029,-734.36 1029,-671 1029,-671 1029,-671 1029,-551.5 1029,-480.87 956.51,-495.63 922,-434 913,-417.92 881.84,-299.88 869.8,-253.57"/>
<polygon fill="midnightblue" stroke="midnightblue" points="873.13,-252.48 867.23,-243.68 866.35,-254.24 873.13,-252.48"/>
</g>
<!-- Node14 -->
<g id="node14" class="node">
<title>Node14</title>
<g id="a_node14"><a xlink:href="visibility__end_8h_source.html" target="_top" xlink:title=" ">
<polygon fill="white" stroke="black" points="260,-0.5 260,-19.5 372,-19.5 372,-0.5 260,-0.5"/>
<text text-anchor="middle" x="316" y="-7.5" font-family="Helvetica,sans-Serif" font-size="10.00">odp/visibility_end.h</text>
</a>
</g>
</g>
<!-- Node5&#45;&gt;Node14 -->
<g id="edge61" class="edge">
<title>Node5&#45;&gt;Node14</title>
<path fill="none" stroke="midnightblue" d="M604.39,-777.38C481.49,-768.62 202.51,-742.25 134,-680 111.72,-659.76 115,-645.1 115,-615 115,-615 115,-615 115,-121 115,-58.29 191.21,-31.1 249.77,-19.47"/>
<polygon fill="midnightblue" stroke="midnightblue" points="250.56,-22.88 259.74,-17.6 249.27,-16 250.56,-22.88"/>
</g>
<!-- Node15 -->
<g id="node15" class="node">
<title>Node15</title>
<g id="a_node15"><a xlink:href="api_2packet_8h.html" target="_top" xlink:title=" ">
<polygon fill="white" stroke="black" points="614.5,-716.5 614.5,-735.5 711.5,-735.5 711.5,-716.5 614.5,-716.5"/>
<text text-anchor="middle" x="663" y="-723.5" font-family="Helvetica,sans-Serif" font-size="10.00">odp/api/packet.h</text>
</a>
</g>
</g>
<!-- Node5&#45;&gt;Node15 -->
<g id="edge17" class="edge">
<title>Node5&#45;&gt;Node15</title>
<path fill="none" stroke="midnightblue" d="M663,-772.08C663,-765.01 663,-754.86 663,-745.99"/>
<polygon fill="midnightblue" stroke="midnightblue" points="666.5,-745.75 663,-735.75 659.5,-745.75 666.5,-745.75"/>
</g>
<!-- Node8 -->
<g id="node8" class="node">
<title>Node8</title>
<g id="a_node8"><a xlink:title=" ">
<polygon fill="white" stroke="#bfbfbf" points="815,-168.5 815,-187.5 945,-187.5 945,-168.5 815,-168.5"/>
<text text-anchor="middle" x="880" y="-175.5" font-family="Helvetica,sans-Serif" font-size="10.00">odp/api/abi/std_types.h</text>
</a>
</g>
</g>
<!-- Node7&#45;&gt;Node8 -->
<g id="edge7" class="edge">
<title>Node7&#45;&gt;Node8</title>
<path fill="none" stroke="midnightblue" d="M867.48,-224.08C869.49,-216.85 872.39,-206.41 874.89,-197.4"/>
<polygon fill="midnightblue" stroke="midnightblue" points="878.26,-198.32 877.57,-187.75 871.52,-196.45 878.26,-198.32"/>
</g>
<!-- Node9 -->
<g id="node9" class="node">
<title>Node9</title>
<g id="a_node9"><a xlink:href="api_2spec_2std__types_8h.html" target="_top" xlink:title=" ">
<polygon fill="white" stroke="black" points="621.5,-168.5 621.5,-187.5 758.5,-187.5 758.5,-168.5 621.5,-168.5"/>
<text text-anchor="middle" x="690" y="-175.5" font-family="Helvetica,sans-Serif" font-size="10.00">odp/api/spec/std_types.h</text>
</a>
</g>
</g>
<!-- Node7&#45;&gt;Node9 -->
<g id="edge8" class="edge">
<title>Node7&#45;&gt;Node9</title>
<path fill="none" stroke="midnightblue" d="M837.27,-224.44C807.57,-215.28 760.28,-200.69 727.33,-190.52"/>
<polygon fill="midnightblue" stroke="midnightblue" points="728.19,-187.12 717.6,-187.52 726.12,-193.81 728.19,-187.12"/>
</g>
<!-- Node9&#45;&gt;Node6 -->
<g id="edge9" class="edge">
<title>Node9&#45;&gt;Node6</title>
<path fill="none" stroke="midnightblue" d="M720.55,-168.49C769.98,-153.97 869.55,-121.47 945,-76 968.09,-62.09 991.12,-41.14 1005.68,-26.81"/>
<polygon fill="midnightblue" stroke="midnightblue" points="1008.27,-29.18 1012.84,-19.62 1003.3,-24.24 1008.27,-29.18"/>
</g>
<!-- Node10 -->
<g id="node10" class="node">
<title>Node10</title>
<g id="a_node10"><a xlink:title=" ">
<polygon fill="white" stroke="#bfbfbf" points="708.5,-112.5 708.5,-131.5 761.5,-131.5 761.5,-112.5 708.5,-112.5"/>
<text text-anchor="middle" x="735" y="-119.5" font-family="Helvetica,sans-Serif" font-size="10.00">stdint.h</text>
</a>
</g>
</g>
<!-- Node9&#45;&gt;Node10 -->
<g id="edge10" class="edge">
<title>Node9&#45;&gt;Node10</title>
<path fill="none" stroke="midnightblue" d="M697.43,-168.08C703.85,-160.38 713.31,-149.03 721.12,-139.65"/>
<polygon fill="midnightblue" stroke="midnightblue" points="723.99,-141.67 727.71,-131.75 718.62,-137.19 723.99,-141.67"/>
</g>
<!-- Node11 -->
<g id="node11" class="node">
<title>Node11</title>
<g id="a_node11"><a xlink:href="api_2align_8h.html" target="_top" xlink:title=" ">
<polygon fill="white" stroke="black" points="601.5,-112.5 601.5,-131.5 690.5,-131.5 690.5,-112.5 601.5,-112.5"/>
<text text-anchor="middle" x="646" y="-119.5" font-family="Helvetica,sans-Serif" font-size="10.00">odp/api/align.h</text>
</a>
</g>
</g>
<!-- Node9&#45;&gt;Node11 -->
<g id="edge11" class="edge">
<title>Node9&#45;&gt;Node11</title>
<path fill="none" stroke="midnightblue" d="M682.73,-168.08C676.46,-160.38 667.21,-149.03 659.57,-139.65"/>
<polygon fill="midnightblue" stroke="midnightblue" points="662.16,-137.29 653.13,-131.75 656.73,-141.71 662.16,-137.29"/>
</g>
<!-- Node9&#45;&gt;Node14 -->
<g id="edge16" class="edge">
<title>Node9&#45;&gt;Node14</title>
<path fill="none" stroke="midnightblue" d="M649.4,-168.43C590.07,-154.8 477.47,-124.61 392,-76 368.57,-62.67 345.61,-41.61 331.16,-27.09"/>
<polygon fill="midnightblue" stroke="midnightblue" points="333.54,-24.52 324.06,-19.78 328.52,-29.39 333.54,-24.52"/>
</g>
<!-- Node12 -->
<g id="node12" class="node">
<title>Node12</title>
<g id="a_node12"><a xlink:title=" ">
<polygon fill="white" stroke="#bfbfbf" points="665.5,-56.5 665.5,-75.5 772.5,-75.5 772.5,-56.5 665.5,-56.5"/>
<text text-anchor="middle" x="719" y="-63.5" font-family="Helvetica,sans-Serif" font-size="10.00">odp/api/abi/align.h</text>
</a>
</g>
</g>
<!-- Node11&#45;&gt;Node12 -->
<g id="edge12" class="edge">
<title>Node11&#45;&gt;Node12</title>
<path fill="none" stroke="midnightblue" d="M657.73,-112.32C668.84,-104.11 685.74,-91.6 698.98,-81.81"/>
<polygon fill="midnightblue" stroke="midnightblue" points="701.1,-84.59 707.06,-75.83 696.94,-78.97 701.1,-84.59"/>
</g>
<!-- Node13 -->
<g id="node13" class="node">
<title>Node13</title>
<g id="a_node13"><a xlink:href="api_2spec_2align_8h.html" target="_top" xlink:title=" ">
<polygon fill="white" stroke="black" points="533,-56.5 533,-75.5 647,-75.5 647,-56.5 533,-56.5"/>
<text text-anchor="middle" x="590" y="-63.5" font-family="Helvetica,sans-Serif" font-size="10.00">odp/api/spec/align.h</text>
</a>
</g>
</g>
<!-- Node11&#45;&gt;Node13 -->
<g id="edge13" class="edge">
<title>Node11&#45;&gt;Node13</title>
<path fill="none" stroke="midnightblue" d="M637,-112.32C628.81,-104.42 616.49,-92.55 606.53,-82.94"/>
<polygon fill="midnightblue" stroke="midnightblue" points="608.79,-80.26 599.16,-75.83 603.93,-85.29 608.79,-80.26"/>
</g>
<!-- Node13&#45;&gt;Node6 -->
<g id="edge14" class="edge">
<title>Node13&#45;&gt;Node6</title>
<path fill="none" stroke="midnightblue" d="M647.02,-57.3C650.39,-56.86 653.74,-56.42 657,-56 758.93,-42.85 877.03,-28.4 950.39,-19.51"/>
<polygon fill="midnightblue" stroke="midnightblue" points="950.93,-22.97 960.43,-18.29 950.09,-16.02 950.93,-22.97"/>
</g>
<!-- Node13&#45;&gt;Node14 -->
<g id="edge15" class="edge">
<title>Node13&#45;&gt;Node14</title>
<path fill="none" stroke="midnightblue" d="M546.58,-56.44C498.48,-46.96 420.91,-31.67 369.19,-21.48"/>
<polygon fill="midnightblue" stroke="midnightblue" points="369.7,-18.02 359.21,-19.52 368.35,-24.88 369.7,-18.02"/>
</g>
<!-- Node15&#45;&gt;Node3 -->
<g id="edge19" class="edge">
<title>Node15&#45;&gt;Node3</title>
<path fill="none" stroke="midnightblue" d="M614.49,-720C540.88,-712.31 396.3,-696.83 263.12,-680.11"/>
<polygon fill="midnightblue" stroke="midnightblue" points="263.5,-676.63 253.14,-678.85 262.63,-683.58 263.5,-676.63"/>
</g>
<!-- Node15&#45;&gt;Node7 -->
<g id="edge18" class="edge">
<title>Node15&#45;&gt;Node7</title>
<path fill="none" stroke="midnightblue" d="M711.76,-724.15C788.85,-721.8 934.05,-712.98 972,-680 994.72,-660.26 991,-645.1 991,-615 991,-615 991,-615 991,-551.5 991,-482.05 916.15,-497.48 888,-434 860.78,-372.61 861.54,-290.61 863.55,-254.02"/>
<polygon fill="midnightblue" stroke="midnightblue" points="867.06,-254.02 864.22,-243.82 860.07,-253.57 867.06,-254.02"/>
</g>
<!-- Node16 -->
<g id="node16" class="node">
<title>Node16</title>
<g id="a_node16"><a xlink:title=" ">
<polygon fill="white" stroke="#bfbfbf" points="833.5,-660.5 833.5,-679.5 962.5,-679.5 962.5,-660.5 833.5,-660.5"/>
<text text-anchor="middle" x="898" y="-667.5" font-family="Helvetica,sans-Serif" font-size="10.00">odp/api/abi/packet_io.h</text>
</a>
</g>
</g>
<!-- Node15&#45;&gt;Node16 -->
<g id="edge20" class="edge">
<title>Node15&#45;&gt;Node16</title>
<path fill="none" stroke="midnightblue" d="M700.24,-716.44C741.06,-707.06 806.64,-691.99 850.98,-681.8"/>
<polygon fill="midnightblue" stroke="midnightblue" points="851.98,-685.17 860.94,-679.52 850.41,-678.34 851.98,-685.17"/>
</g>
<!-- Node17 -->
<g id="node17" class="node">
<title>Node17</title>
<g id="a_node17"><a xlink:title=" ">
<polygon fill="white" stroke="#bfbfbf" points="795,-537.5 795,-567.5 901,-567.5 901,-537.5 795,-537.5"/>
<text text-anchor="start" x="803" y="-555.5" font-family="Helvetica,sans-Serif" font-size="10.00">odp/api/abi/packet</text>
<text text-anchor="middle" x="848" y="-544.5" font-family="Helvetica,sans-Serif" font-size="10.00">_types.h</text>
</a>
</g>
</g>
<!-- Node15&#45;&gt;Node17 -->
<g id="edge21" class="edge">
<title>Node15&#45;&gt;Node17</title>
<path fill="none" stroke="midnightblue" d="M710.67,-716.49C735.53,-710.01 765.04,-698.86 786,-680 816.79,-652.29 833.97,-605.88 842.08,-577.64"/>
<polygon fill="midnightblue" stroke="midnightblue" points="845.52,-578.35 844.75,-567.78 838.76,-576.52 845.52,-578.35"/>
</g>
<!-- Node18 -->
<g id="node18" class="node">
<title>Node18</title>
<g id="a_node18"><a xlink:title=" ">
<polygon fill="white" stroke="#bfbfbf" points="411.5,-660.5 411.5,-679.5 526.5,-679.5 526.5,-660.5 411.5,-660.5"/>
<text text-anchor="middle" x="469" y="-667.5" font-family="Helvetica,sans-Serif" font-size="10.00">odp/api/abi/packet.h</text>
</a>
</g>
</g>
<!-- Node15&#45;&gt;Node18 -->
<g id="edge22" class="edge">
<title>Node15&#45;&gt;Node18</title>
<path fill="none" stroke="midnightblue" d="M632.26,-716.44C599.06,-707.2 546.01,-692.44 509.44,-682.26"/>
<polygon fill="midnightblue" stroke="midnightblue" points="510.17,-678.83 499.6,-679.52 508.29,-685.57 510.17,-678.83"/>
</g>
<!-- Node19 -->
<g id="node19" class="node">
<title>Node19</title>
<g id="a_node19"><a xlink:title=" ">
<polygon fill="white" stroke="#bfbfbf" points="545,-660.5 545,-679.5 655,-679.5 655,-660.5 545,-660.5"/>
<text text-anchor="middle" x="600" y="-667.5" font-family="Helvetica,sans-Serif" font-size="10.00">odp/api/abi/buffer.h</text>
</a>
</g>
</g>
<!-- Node15&#45;&gt;Node19 -->
<g id="edge23" class="edge">
<title>Node15&#45;&gt;Node19</title>
<path fill="none" stroke="midnightblue" d="M652.88,-716.32C643.47,-708.26 629.26,-696.08 617.93,-686.37"/>
<polygon fill="midnightblue" stroke="midnightblue" points="620.18,-683.68 610.31,-679.83 615.62,-689 620.18,-683.68"/>
</g>
<!-- Node20 -->
<g id="node20" class="node">
<title>Node20</title>
<g id="a_node20"><a xlink:title=" ">
<polygon fill="white" stroke="#bfbfbf" points="673,-660.5 673,-679.5 777,-679.5 777,-660.5 673,-660.5"/>
<text text-anchor="middle" x="725" y="-667.5" font-family="Helvetica,sans-Serif" font-size="10.00">odp/api/abi/pool.h</text>
</a>
</g>
</g>
<!-- Node15&#45;&gt;Node20 -->
<g id="edge24" class="edge">
<title>Node15&#45;&gt;Node20</title>
<path fill="none" stroke="midnightblue" d="M672.96,-716.32C682.13,-708.34 695.94,-696.31 707.03,-686.65"/>
<polygon fill="midnightblue" stroke="midnightblue" points="709.62,-689.04 714.86,-679.83 705.02,-683.76 709.62,-689.04"/>
</g>
<!-- Node21 -->
<g id="node21" class="node">
<title>Node21</title>
<g id="a_node21"><a xlink:href="api_2spec_2packet_8h.html" target="_top" xlink:title=" ">
<polygon fill="white" stroke="black" points="271,-660.5 271,-679.5 393,-679.5 393,-660.5 271,-660.5"/>
<text text-anchor="middle" x="332" y="-667.5" font-family="Helvetica,sans-Serif" font-size="10.00">odp/api/spec/packet.h</text>
</a>
</g>
</g>
<!-- Node15&#45;&gt;Node21 -->
<g id="edge25" class="edge">
<title>Node15&#45;&gt;Node21</title>
<path fill="none" stroke="midnightblue" d="M614.16,-717.03C555.78,-707.51 458,-691.56 394.25,-681.16"/>
<polygon fill="midnightblue" stroke="midnightblue" points="394.76,-677.69 384.32,-679.54 393.63,-684.6 394.76,-677.69"/>
</g>
<!-- Node21&#45;&gt;Node6 -->
<g id="edge26" class="edge">
<title>Node21&#45;&gt;Node6</title>
<path fill="none" stroke="midnightblue" d="M393.19,-661.21C396.51,-660.8 399.79,-660.39 403,-660 537.6,-643.47 585.26,-685.75 706,-624 752.77,-600.08 738.88,-560.21 786,-537 985.36,-438.81 1272,-641.72 1272,-419.5 1272,-419.5 1272,-419.5 1272,-121 1272,-41.93 1166.23,-19.17 1092.01,-12.92"/>
<polygon fill="midnightblue" stroke="midnightblue" points="1092,-9.41 1081.76,-12.15 1091.47,-16.39 1092,-9.41"/>
</g>
<!-- Node21&#45;&gt;Node14 -->
<g id="edge60" class="edge">
<title>Node21&#45;&gt;Node14</title>
<path fill="none" stroke="midnightblue" d="M300.92,-660.39C256.98,-646.09 182,-612.99 182,-553.5 182,-553.5 182,-553.5 182,-121 182,-70.39 239.8,-38.81 279.48,-23.09"/>
<polygon fill="midnightblue" stroke="midnightblue" points="280.77,-26.35 288.88,-19.53 278.29,-19.8 280.77,-26.35"/>
</g>
<!-- Node22 -->
<g id="node22" class="node">
<title>Node22</title>
<g id="a_node22"><a xlink:href="api_2proto__stats__types_8h.html" target="_top" xlink:title=" ">
<polygon fill="white" stroke="black" points="417,-470.5 417,-500.5 527,-500.5 527,-470.5 417,-470.5"/>
<text text-anchor="start" x="425" y="-488.5" font-family="Helvetica,sans-Serif" font-size="10.00">odp/api/proto_stats</text>
<text text-anchor="middle" x="472" y="-477.5" font-family="Helvetica,sans-Serif" font-size="10.00">_types.h</text>
</a>
</g>
</g>
<!-- Node21&#45;&gt;Node22 -->
<g id="edge27" class="edge">
<title>Node21&#45;&gt;Node22</title>
<path fill="none" stroke="midnightblue" d="M338.75,-660.2C359.67,-632.93 423.82,-549.3 454.85,-508.86"/>
<polygon fill="midnightblue" stroke="midnightblue" points="457.8,-510.76 461.11,-500.69 452.25,-506.5 457.8,-510.76"/>
</g>
<!-- Node25 -->
<g id="node25" class="node">
<title>Node25</title>
<g id="a_node25"><a xlink:href="api_2time_8h.html" target="_top" xlink:title=" ">
<polygon fill="white" stroke="black" points="320.5,-286 320.5,-305 407.5,-305 407.5,-286 320.5,-286"/>
<text text-anchor="middle" x="364" y="-293" font-family="Helvetica,sans-Serif" font-size="10.00">odp/api/time.h</text>
</a>
</g>
</g>
<!-- Node21&#45;&gt;Node25 -->
<g id="edge33" class="edge">
<title>Node21&#45;&gt;Node25</title>
<path fill="none" stroke="midnightblue" d="M327.29,-660.3C317.54,-641.44 296,-595.09 296,-553.5 296,-553.5 296,-553.5 296,-417.5 296,-375.41 327.66,-334.42 347.78,-312.63"/>
<polygon fill="midnightblue" stroke="midnightblue" points="350.45,-314.9 354.83,-305.25 345.39,-310.06 350.45,-314.9"/>
</g>
<!-- Node28 -->
<g id="node28" class="node">
<title>Node28</title>
<g id="a_node28"><a xlink:href="api_2packet__types_8h.html" target="_top" xlink:title=" ">
<polygon fill="white" stroke="black" points="567.5,-604.5 567.5,-623.5 696.5,-623.5 696.5,-604.5 567.5,-604.5"/>
<text text-anchor="middle" x="632" y="-611.5" font-family="Helvetica,sans-Serif" font-size="10.00">odp/api/packet_types.h</text>
</a>
</g>
</g>
<!-- Node21&#45;&gt;Node28 -->
<g id="edge39" class="edge">
<title>Node21&#45;&gt;Node28</title>
<path fill="none" stroke="midnightblue" d="M379.54,-660.44C432.53,-650.9 518.2,-635.48 574.82,-625.29"/>
<polygon fill="midnightblue" stroke="midnightblue" points="575.46,-628.73 584.69,-623.52 574.22,-621.84 575.46,-628.73"/>
</g>
<!-- Node23 -->
<g id="node23" class="node">
<title>Node23</title>
<g id="a_node23"><a xlink:title=" ">
<polygon fill="white" stroke="#bfbfbf" points="362,-403.5 362,-433.5 490,-433.5 490,-403.5 362,-403.5"/>
<text text-anchor="start" x="370" y="-421.5" font-family="Helvetica,sans-Serif" font-size="10.00">odp/api/abi/proto_stats</text>
<text text-anchor="middle" x="426" y="-410.5" font-family="Helvetica,sans-Serif" font-size="10.00">_types.h</text>
</a>
</g>
</g>
<!-- Node22&#45;&gt;Node23 -->
<g id="edge28" class="edge">
<title>Node22&#45;&gt;Node23</title>
<path fill="none" stroke="midnightblue" d="M462.02,-470.4C456.11,-462.05 448.5,-451.29 441.79,-441.81"/>
<polygon fill="midnightblue" stroke="midnightblue" points="444.6,-439.72 435.96,-433.58 438.88,-443.76 444.6,-439.72"/>
</g>
<!-- Node24 -->
<g id="node24" class="node">
<title>Node24</title>
<g id="a_node24"><a xlink:href="api_2spec_2proto__stats__types_8h.html" target="_top" xlink:title=" ">
<polygon fill="white" stroke="black" points="450.5,-280.5 450.5,-310.5 557.5,-310.5 557.5,-280.5 450.5,-280.5"/>
<text text-anchor="start" x="458.5" y="-298.5" font-family="Helvetica,sans-Serif" font-size="10.00">odp/api/spec/proto</text>
<text text-anchor="middle" x="504" y="-287.5" font-family="Helvetica,sans-Serif" font-size="10.00">_stats_types.h</text>
</a>
</g>
</g>
<!-- Node22&#45;&gt;Node24 -->
<g id="edge29" class="edge">
<title>Node22&#45;&gt;Node24</title>
<path fill="none" stroke="midnightblue" d="M481.91,-470.22C488.08,-460.49 495.48,-447.05 499,-434 509.39,-395.52 508.36,-348.79 506.38,-320.91"/>
<polygon fill="midnightblue" stroke="midnightblue" points="509.86,-320.55 505.57,-310.87 502.89,-321.12 509.86,-320.55"/>
</g>
<!-- Node24&#45;&gt;Node6 -->
<g id="edge30" class="edge">
<title>Node24&#45;&gt;Node6</title>
<path fill="none" stroke="midnightblue" d="M543.09,-280.39C595.18,-261.22 689.85,-225.06 768,-188 779.68,-182.46 962.22,-84.46 972,-76 987.8,-62.32 1001.7,-42.76 1010.62,-28.67"/>
<polygon fill="midnightblue" stroke="midnightblue" points="1013.73,-30.29 1015.96,-19.93 1007.76,-26.64 1013.73,-30.29"/>
</g>
<!-- Node24&#45;&gt;Node7 -->
<g id="edge31" class="edge">
<title>Node24&#45;&gt;Node7</title>
<path fill="none" stroke="midnightblue" d="M557.56,-281.88C560.75,-281.22 563.91,-280.59 567,-280 646.2,-264.93 738.02,-251.7 798.57,-243.55"/>
<polygon fill="midnightblue" stroke="midnightblue" points="799.31,-246.98 808.76,-242.19 798.39,-240.05 799.31,-246.98"/>
</g>
<!-- Node24&#45;&gt;Node14 -->
<g id="edge32" class="edge">
<title>Node24&#45;&gt;Node14</title>
<path fill="none" stroke="midnightblue" d="M484.5,-280.32C441.17,-248.36 339.26,-170.48 321,-132 305.21,-98.73 308.69,-54.33 312.46,-29.62"/>
<polygon fill="midnightblue" stroke="midnightblue" points="315.91,-30.2 314.14,-19.76 309.01,-29.03 315.91,-30.2"/>
</g>
<!-- Node25&#45;&gt;Node7 -->
<g id="edge34" class="edge">
<title>Node25&#45;&gt;Node7</title>
<path fill="none" stroke="midnightblue" d="M406.41,-286C417.92,-283.86 430.42,-281.69 442,-280 567.57,-261.68 715.15,-247.68 798.62,-240.45"/>
<polygon fill="midnightblue" stroke="midnightblue" points="799.05,-243.93 808.72,-239.58 798.46,-236.95 799.05,-243.93"/>
</g>
<!-- Node26 -->
<g id="node26" class="node">
<title>Node26</title>
<g id="a_node26"><a xlink:title=" ">
<polygon fill="white" stroke="#bfbfbf" points="286.5,-224.5 286.5,-243.5 391.5,-243.5 391.5,-224.5 286.5,-224.5"/>
<text text-anchor="middle" x="339" y="-231.5" font-family="Helvetica,sans-Serif" font-size="10.00">odp/api/abi/time.h</text>
</a>
</g>
</g>
<!-- Node25&#45;&gt;Node26 -->
<g id="edge35" class="edge">
<title>Node25&#45;&gt;Node26</title>
<path fill="none" stroke="midnightblue" d="M360.42,-285.98C356.82,-277.4 351.15,-263.93 346.56,-252.98"/>
<polygon fill="midnightblue" stroke="midnightblue" points="349.68,-251.37 342.58,-243.51 343.22,-254.08 349.68,-251.37"/>
</g>
<!-- Node27 -->
<g id="node27" class="node">
<title>Node27</title>
<g id="a_node27"><a xlink:href="api_2spec_2time_8h.html" target="_top" xlink:title=" ">
<polygon fill="white" stroke="black" points="401.5,-56.5 401.5,-75.5 514.5,-75.5 514.5,-56.5 401.5,-56.5"/>
<text text-anchor="middle" x="458" y="-63.5" font-family="Helvetica,sans-Serif" font-size="10.00">odp/api/spec/time.h</text>
</a>
</g>
</g>
<!-- Node25&#45;&gt;Node27 -->
<g id="edge36" class="edge">
<title>Node25&#45;&gt;Node27</title>
<path fill="none" stroke="midnightblue" d="M371.52,-285.73C379.5,-276.05 392.03,-259.76 400,-244 427.53,-189.53 445.99,-119.16 453.79,-85.95"/>
<polygon fill="midnightblue" stroke="midnightblue" points="457.29,-86.37 456.11,-75.84 450.47,-84.81 457.29,-86.37"/>
</g>
<!-- Node27&#45;&gt;Node6 -->
<g id="edge37" class="edge">
<title>Node27&#45;&gt;Node6</title>
<path fill="none" stroke="midnightblue" d="M514.5,-57.12C517.72,-56.73 520.9,-56.35 524,-56 675.58,-38.81 853.77,-23.98 950.26,-16.39"/>
<polygon fill="midnightblue" stroke="midnightblue" points="950.77,-19.86 960.47,-15.59 950.23,-12.88 950.77,-19.86"/>
</g>
<!-- Node27&#45;&gt;Node14 -->
<g id="edge38" class="edge">
<title>Node27&#45;&gt;Node14</title>
<path fill="none" stroke="midnightblue" d="M435.5,-56.44C411.92,-47.48 374.68,-33.31 348.04,-23.18"/>
<polygon fill="midnightblue" stroke="midnightblue" points="348.99,-19.8 338.4,-19.52 346.5,-26.34 348.99,-19.8"/>
</g>
<!-- Node28&#45;&gt;Node17 -->
<g id="edge40" class="edge">
<title>Node28&#45;&gt;Node17</title>
<path fill="none" stroke="midnightblue" d="M662.95,-604.48C695.28,-595.57 746.83,-581.37 787.32,-570.22"/>
<polygon fill="midnightblue" stroke="midnightblue" points="788.38,-573.55 797.09,-567.52 786.52,-566.8 788.38,-573.55"/>
</g>
<!-- Node29 -->
<g id="node29" class="node">
<title>Node29</title>
<g id="a_node29"><a xlink:href="api_2spec_2packet__types_8h.html" target="_top" xlink:title=" ">
<polygon fill="white" stroke="black" points="575.5,-537.5 575.5,-567.5 688.5,-567.5 688.5,-537.5 575.5,-537.5"/>
<text text-anchor="start" x="583.5" y="-555.5" font-family="Helvetica,sans-Serif" font-size="10.00">odp/api/spec/packet</text>
<text text-anchor="middle" x="632" y="-544.5" font-family="Helvetica,sans-Serif" font-size="10.00">_types.h</text>
</a>
</g>
</g>
<!-- Node28&#45;&gt;Node29 -->
<g id="edge41" class="edge">
<title>Node28&#45;&gt;Node29</title>
<path fill="none" stroke="midnightblue" d="M632,-604.48C632,-597.47 632,-587.19 632,-577.7"/>
<polygon fill="midnightblue" stroke="midnightblue" points="635.5,-577.52 632,-567.52 628.5,-577.52 635.5,-577.52"/>
</g>
<!-- Node29&#45;&gt;Node6 -->
<g id="edge42" class="edge">
<title>Node29&#45;&gt;Node6</title>
<path fill="none" stroke="midnightblue" d="M688.66,-541.62C789.77,-523.05 995.88,-480.55 1051,-434 1102.64,-390.39 1116,-364.1 1116,-296.5 1116,-296.5 1116,-296.5 1116,-121 1116,-77.74 1073.39,-43.09 1045.25,-24.91"/>
<polygon fill="midnightblue" stroke="midnightblue" points="1047.03,-21.9 1036.69,-19.6 1043.34,-27.85 1047.03,-21.9"/>
</g>
<!-- Node29&#45;&gt;Node14 -->
<g id="edge59" class="edge">
<title>Node29&#45;&gt;Node14</title>
<path fill="none" stroke="midnightblue" d="M575.21,-548.1C527.77,-543.14 459.76,-530.95 408,-501 301.14,-439.17 220,-419.96 220,-296.5 220,-296.5 220,-296.5 220,-121 220,-77.54 263.06,-42.96 291.5,-24.85"/>
<polygon fill="midnightblue" stroke="midnightblue" points="293.44,-27.77 300.15,-19.56 289.79,-21.79 293.44,-27.77"/>
</g>
<!-- Node29&#45;&gt;Node22 -->
<g id="edge43" class="edge">
<title>Node29&#45;&gt;Node22</title>
<path fill="none" stroke="midnightblue" d="M597.28,-537.4C573.49,-527.73 541.72,-514.82 516.13,-504.43"/>
<polygon fill="midnightblue" stroke="midnightblue" points="517.23,-501.1 506.65,-500.58 514.6,-507.58 517.23,-501.1"/>
</g>
<!-- Node30 -->
<g id="node30" class="node">
<title>Node30</title>
<g id="a_node30"><a xlink:href="api_2queue__types_8h.html" target="_top" xlink:title=" ">
<polygon fill="white" stroke="black" points="1057.5,-476 1057.5,-495 1184.5,-495 1184.5,-476 1057.5,-476"/>
<text text-anchor="middle" x="1121" y="-483" font-family="Helvetica,sans-Serif" font-size="10.00">odp/api/queue_types.h</text>
</a>
</g>
</g>
<!-- Node29&#45;&gt;Node30 -->
<g id="edge44" class="edge">
<title>Node29&#45;&gt;Node30</title>
<path fill="none" stroke="midnightblue" d="M688.57,-543.98C777.2,-532.2 948.78,-509.39 1047.07,-496.33"/>
<polygon fill="midnightblue" stroke="midnightblue" points="1047.77,-499.76 1057.22,-494.98 1046.85,-492.83 1047.77,-499.76"/>
</g>
<!-- Node30&#45;&gt;Node4 -->
<g id="edge45" class="edge">
<title>Node30&#45;&gt;Node4</title>
<path fill="none" stroke="midnightblue" d="M1127.74,-475.73C1135.54,-465.6 1148.55,-448.69 1158.26,-436.06"/>
<polygon fill="midnightblue" stroke="midnightblue" points="1161.04,-438.19 1164.36,-428.13 1155.49,-433.92 1161.04,-438.19"/>
</g>
<!-- Node31 -->
<g id="node31" class="node">
<title>Node31</title>
<g id="a_node31"><a xlink:href="api_2spec_2queue__types_8h.html" target="_top" xlink:title=" ">
<polygon fill="white" stroke="black" points="930.5,-403.5 930.5,-433.5 1041.5,-433.5 1041.5,-403.5 930.5,-403.5"/>
<text text-anchor="start" x="938.5" y="-421.5" font-family="Helvetica,sans-Serif" font-size="10.00">odp/api/spec/queue</text>
<text text-anchor="middle" x="986" y="-410.5" font-family="Helvetica,sans-Serif" font-size="10.00">_types.h</text>
</a>
</g>
</g>
<!-- Node30&#45;&gt;Node31 -->
<g id="edge46" class="edge">
<title>Node30&#45;&gt;Node31</title>
<path fill="none" stroke="midnightblue" d="M1103.07,-475.87C1083.08,-466.24 1050.15,-450.39 1024.3,-437.94"/>
<polygon fill="midnightblue" stroke="midnightblue" points="1025.66,-434.71 1015.14,-433.53 1022.63,-441.02 1025.66,-434.71"/>
</g>
<!-- Node31&#45;&gt;Node6 -->
<g id="edge47" class="edge">
<title>Node31&#45;&gt;Node6</title>
<path fill="none" stroke="midnightblue" d="M1015.79,-403.31C1030.79,-394.75 1048.07,-382.49 1059,-367 1077.71,-340.48 1078,-328.95 1078,-296.5 1078,-296.5 1078,-296.5 1078,-121 1078,-84.3 1052.68,-47.66 1035.79,-27.3"/>
<polygon fill="midnightblue" stroke="midnightblue" points="1038.35,-24.9 1029.17,-19.62 1033.05,-29.48 1038.35,-24.9"/>
</g>
<!-- Node31&#45;&gt;Node14 -->
<g id="edge58" class="edge">
<title>Node31&#45;&gt;Node14</title>
<path fill="none" stroke="midnightblue" d="M930.38,-414.12C760.2,-403.05 258,-364.61 258,-296.5 258,-296.5 258,-296.5 258,-121 258,-84.16 283.77,-47.57 300.95,-27.25"/>
<polygon fill="midnightblue" stroke="midnightblue" points="303.71,-29.41 307.69,-19.59 298.46,-24.79 303.71,-29.41"/>
</g>
<!-- Node32 -->
<g id="node32" class="node">
<title>Node32</title>
<g id="a_node32"><a xlink:href="api_2schedule__types_8h.html" target="_top" xlink:title=" ">
<polygon fill="white" stroke="black" points="696,-347.5 696,-366.5 836,-366.5 836,-347.5 696,-347.5"/>
<text text-anchor="middle" x="766" y="-354.5" font-family="Helvetica,sans-Serif" font-size="10.00">odp/api/schedule_types.h</text>
</a>
</g>
</g>
<!-- Node31&#45;&gt;Node32 -->
<g id="edge48" class="edge">
<title>Node31&#45;&gt;Node32</title>
<path fill="none" stroke="midnightblue" d="M934.14,-403.47C895.36,-392.99 843.04,-378.84 807.12,-369.12"/>
<polygon fill="midnightblue" stroke="midnightblue" points="808.02,-365.74 797.45,-366.51 806.19,-372.5 808.02,-365.74"/>
</g>
<!-- Node35 -->
<g id="node35" class="node">
<title>Node35</title>
<g id="a_node35"><a xlink:href="deprecated_8h.html" target="_top" xlink:title=" ">
<polygon fill="white" stroke="black" points="930.5,-347.5 930.5,-366.5 1049.5,-366.5 1049.5,-347.5 930.5,-347.5"/>
<text text-anchor="middle" x="990" y="-354.5" font-family="Helvetica,sans-Serif" font-size="10.00">odp/api/deprecated.h</text>
</a>
</g>
</g>
<!-- Node31&#45;&gt;Node35 -->
<g id="edge54" class="edge">
<title>Node31&#45;&gt;Node35</title>
<path fill="none" stroke="midnightblue" d="M986.95,-403.4C987.48,-395.47 988.15,-385.46 988.73,-376.86"/>
<polygon fill="midnightblue" stroke="midnightblue" points="992.24,-376.87 989.42,-366.66 985.26,-376.4 992.24,-376.87"/>
</g>
<!-- Node33 -->
<g id="node33" class="node">
<title>Node33</title>
<g id="a_node33"><a xlink:title=" ">
<polygon fill="white" stroke="#bfbfbf" points="718.5,-280.5 718.5,-310.5 835.5,-310.5 835.5,-280.5 718.5,-280.5"/>
<text text-anchor="start" x="726.5" y="-298.5" font-family="Helvetica,sans-Serif" font-size="10.00">odp/api/abi/schedule</text>
<text text-anchor="middle" x="777" y="-287.5" font-family="Helvetica,sans-Serif" font-size="10.00">_types.h</text>
</a>
</g>
</g>
<!-- Node32&#45;&gt;Node33 -->
<g id="edge49" class="edge">
<title>Node32&#45;&gt;Node33</title>
<path fill="none" stroke="midnightblue" d="M767.58,-347.48C768.88,-340.4 770.81,-329.97 772.58,-320.39"/>
<polygon fill="midnightblue" stroke="midnightblue" points="776.03,-320.99 774.41,-310.52 769.15,-319.72 776.03,-320.99"/>
</g>
<!-- Node34 -->
<g id="node34" class="node">
<title>Node34</title>
<g id="a_node34"><a xlink:href="api_2spec_2schedule__types_8h.html" target="_top" xlink:title=" ">
<polygon fill="white" stroke="black" points="575.5,-280.5 575.5,-310.5 700.5,-310.5 700.5,-280.5 575.5,-280.5"/>
<text text-anchor="start" x="583.5" y="-298.5" font-family="Helvetica,sans-Serif" font-size="10.00">odp/api/spec/schedule</text>
<text text-anchor="middle" x="638" y="-287.5" font-family="Helvetica,sans-Serif" font-size="10.00">_types.h</text>
</a>
</g>
</g>
<!-- Node32&#45;&gt;Node34 -->
<g id="edge50" class="edge">
<title>Node32&#45;&gt;Node34</title>
<path fill="none" stroke="midnightblue" d="M747.66,-347.48C729.43,-339 700.9,-325.74 677.5,-314.86"/>
<polygon fill="midnightblue" stroke="midnightblue" points="678.71,-311.56 668.17,-310.52 675.76,-317.91 678.71,-311.56"/>
</g>
<!-- Node34&#45;&gt;Node6 -->
<g id="edge51" class="edge">
<title>Node34&#45;&gt;Node6</title>
<path fill="none" stroke="midnightblue" d="M700.8,-281.71C703.91,-281.12 706.99,-280.55 710,-280 807.47,-262.22 844.97,-294.86 930,-244 983.86,-211.78 994.59,-191 1016,-132 1028.51,-97.53 1026.29,-53.88 1023.61,-29.55"/>
<polygon fill="midnightblue" stroke="midnightblue" points="1027.08,-29.04 1022.36,-19.55 1020.13,-29.91 1027.08,-29.04"/>
</g>
<!-- Node34&#45;&gt;Node7 -->
<g id="edge52" class="edge">
<title>Node34&#45;&gt;Node7</title>
<path fill="none" stroke="midnightblue" d="M691.51,-280.47C731.53,-269.99 785.51,-255.84 822.57,-246.12"/>
<polygon fill="midnightblue" stroke="midnightblue" points="823.76,-249.43 832.55,-243.51 821.99,-242.66 823.76,-249.43"/>
</g>
<!-- Node34&#45;&gt;Node14 -->
<g id="edge53" class="edge">
<title>Node34&#45;&gt;Node14</title>
<path fill="none" stroke="midnightblue" d="M615.7,-280.28C566.16,-248.01 444.67,-165.06 361,-76 347.24,-61.35 334.49,-42.19 326.11,-28.47"/>
<polygon fill="midnightblue" stroke="midnightblue" points="328.94,-26.39 320.82,-19.59 322.93,-29.97 328.94,-26.39"/>
</g>
<!-- Node36 -->
<g id="node36" class="node">
<title>Node36</title>
<g id="a_node36"><a xlink:href="spec_2deprecated_8h.html" target="_top" xlink:title=" ">
<polygon fill="white" stroke="black" points="790.5,-56.5 790.5,-75.5 935.5,-75.5 935.5,-56.5 790.5,-56.5"/>
<text text-anchor="middle" x="863" y="-63.5" font-family="Helvetica,sans-Serif" font-size="10.00">odp/api/spec/deprecated.h</text>
</a>
</g>
</g>
<!-- Node35&#45;&gt;Node36 -->
<g id="edge55" class="edge">
<title>Node35&#45;&gt;Node36</title>
<path fill="none" stroke="midnightblue" d="M989.96,-347.23C989.51,-319.44 985.51,-231.39 954,-168 936.38,-132.55 902.78,-100.19 881.71,-82.1"/>
<polygon fill="midnightblue" stroke="midnightblue" points="883.96,-79.41 874.05,-75.67 879.46,-84.78 883.96,-79.41"/>
</g>
<!-- Node36&#45;&gt;Node6 -->
<g id="edge56" class="edge">
<title>Node36&#45;&gt;Node6</title>
<path fill="none" stroke="midnightblue" d="M888.04,-56.44C914.62,-47.36 956.81,-32.94 986.52,-22.78"/>
<polygon fill="midnightblue" stroke="midnightblue" points="987.75,-26.06 996.08,-19.52 985.49,-19.44 987.75,-26.06"/>
</g>
<!-- Node36&#45;&gt;Node14 -->
<g id="edge57" class="edge">
<title>Node36&#45;&gt;Node14</title>
<path fill="none" stroke="midnightblue" d="M790.15,-56.86C787.4,-56.56 784.67,-56.28 782,-56 639.74,-41.23 472.87,-25.5 382.44,-17.11"/>
<polygon fill="midnightblue" stroke="midnightblue" points="382.62,-13.61 372.34,-16.18 381.97,-20.58 382.62,-13.61"/>
</g>
</g>
</svg>
