<?xml version="1.0" encoding="UTF-8" standalone="no"?>
<!DOCTYPE svg PUBLIC "-//W3C//DTD SVG 1.1//EN"
 "http://www.w3.org/Graphics/SVG/1.1/DTD/svg11.dtd">
<!-- Generated by graphviz version 2.43.0 (0)
 -->
<!-- Title: time.h Pages: 1 -->
<svg width="694pt" height="924pt"
 viewBox="0.00 0.00 693.50 924.00" xmlns="http://www.w3.org/2000/svg" xmlns:xlink="http://www.w3.org/1999/xlink">
<g id="graph0" class="graph" transform="scale(1 1) rotate(0) translate(4 920)">
<title>time.h</title>
<polygon fill="white" stroke="transparent" points="-4,4 -4,-920 689.5,-920 689.5,4 -4,4"/>
<!-- Node1 -->
<g id="node1" class="node">
<title>Node1</title>
<g id="a_node1"><a xlink:title=" ">
<polygon fill="#bfbfbf" stroke="black" points="623.5,-896.5 623.5,-915.5 671.5,-915.5 671.5,-896.5 623.5,-896.5"/>
<text text-anchor="middle" x="647.5" y="-903.5" font-family="Helvetica,sans-Serif" font-size="10.00">time.h</text>
</a>
</g>
</g>
<!-- Node2 -->
<g id="node2" class="node">
<title>Node2</title>
<g id="a_node2"><a xlink:href="api_2spec_2packet_8h.html" target="_top" xlink:title=" ">
<polygon fill="white" stroke="black" points="499.5,-840.5 499.5,-859.5 557.5,-859.5 557.5,-840.5 499.5,-840.5"/>
<text text-anchor="middle" x="528.5" y="-847.5" font-family="Helvetica,sans-Serif" font-size="10.00">packet.h</text>
</a>
</g>
</g>
<!-- Node1&#45;&gt;Node2 -->
<g id="edge1" class="edge">
<title>Node1&#45;&gt;Node2</title>
<path fill="none" stroke="midnightblue" d="M619.36,-892.23C597.1,-882.13 566.64,-868.31 547.27,-859.52"/>
<polygon fill="midnightblue" stroke="midnightblue" points="618.09,-895.5 628.64,-896.44 620.98,-889.12 618.09,-895.5"/>
</g>
<!-- Node6 -->
<g id="node6" class="node">
<title>Node6</title>
<g id="a_node6"><a xlink:href="odp__api_8h.html" target="_top" xlink:title=" ">
<polygon fill="white" stroke="black" points="354.5,-56.5 354.5,-75.5 418.5,-75.5 418.5,-56.5 354.5,-56.5"/>
<text text-anchor="middle" x="386.5" y="-63.5" font-family="Helvetica,sans-Serif" font-size="10.00">odp_api.h</text>
</a>
</g>
</g>
<!-- Node1&#45;&gt;Node6 -->
<g id="edge42" class="edge">
<title>Node1&#45;&gt;Node6</title>
<path fill="none" stroke="midnightblue" d="M657.64,-887.43C668.9,-866.24 685.5,-829.19 685.5,-795 685.5,-795 685.5,-795 685.5,-177 685.5,-128.38 641.83,-131.97 597.5,-112 537.73,-85.08 461.08,-73.94 418.55,-69.58"/>
<polygon fill="midnightblue" stroke="midnightblue" points="654.55,-885.78 652.78,-896.23 660.68,-889.17 654.55,-885.78"/>
</g>
<!-- Node18 -->
<g id="node18" class="node">
<title>Node18</title>
<g id="a_node18"><a xlink:href="api_2spec_2packet__io_8h.html" target="_top" xlink:title=" ">
<polygon fill="white" stroke="black" points="359.5,-392.5 359.5,-411.5 431.5,-411.5 431.5,-392.5 359.5,-392.5"/>
<text text-anchor="middle" x="395.5" y="-399.5" font-family="Helvetica,sans-Serif" font-size="10.00">packet_io.h</text>
</a>
</g>
</g>
<!-- Node1&#45;&gt;Node18 -->
<g id="edge41" class="edge">
<title>Node1&#45;&gt;Node18</title>
<path fill="none" stroke="midnightblue" d="M647.5,-886.25C647.5,-864.36 647.5,-827.05 647.5,-795 647.5,-795 647.5,-795 647.5,-513 647.5,-419.91 501.29,-404.81 431.61,-402.9"/>
<polygon fill="midnightblue" stroke="midnightblue" points="644,-886.44 647.5,-896.44 651,-886.44 644,-886.44"/>
</g>
<!-- Node3 -->
<g id="node3" class="node">
<title>Node3</title>
<g id="a_node3"><a xlink:href="api_2packet_8h.html" target="_top" xlink:title=" ">
<polygon fill="white" stroke="black" points="437.5,-784.5 437.5,-803.5 495.5,-803.5 495.5,-784.5 437.5,-784.5"/>
<text text-anchor="middle" x="466.5" y="-791.5" font-family="Helvetica,sans-Serif" font-size="10.00">packet.h</text>
</a>
</g>
</g>
<!-- Node2&#45;&gt;Node3 -->
<g id="edge2" class="edge">
<title>Node2&#45;&gt;Node3</title>
<path fill="none" stroke="midnightblue" d="M510.75,-833.54C499.69,-823.91 485.87,-811.87 476.64,-803.83"/>
<polygon fill="midnightblue" stroke="midnightblue" points="508.7,-836.4 518.54,-840.32 513.3,-831.12 508.7,-836.4"/>
</g>
<!-- Node4 -->
<g id="node4" class="node">
<title>Node4</title>
<g id="a_node4"><a xlink:href="api_2spec_2comp_8h.html" target="_top" xlink:title=" ">
<polygon fill="white" stroke="black" points="528,-728.5 528,-747.5 581,-747.5 581,-728.5 528,-728.5"/>
<text text-anchor="middle" x="554.5" y="-735.5" font-family="Helvetica,sans-Serif" font-size="10.00">comp.h</text>
</a>
</g>
</g>
<!-- Node3&#45;&gt;Node4 -->
<g id="edge3" class="edge">
<title>Node3&#45;&gt;Node4</title>
<path fill="none" stroke="midnightblue" d="M489.48,-778.9C505.61,-769 526.68,-756.07 540.4,-747.65"/>
<polygon fill="midnightblue" stroke="midnightblue" points="487.33,-776.11 480.64,-784.32 490.99,-782.08 487.33,-776.11"/>
</g>
<!-- Node3&#45;&gt;Node6 -->
<g id="edge40" class="edge">
<title>Node3&#45;&gt;Node6</title>
<path fill="none" stroke="midnightblue" d="M505.72,-788.17C533.04,-782.81 568.41,-771.55 590.5,-748 611.09,-726.05 609.5,-713.1 609.5,-683 609.5,-683 609.5,-683 609.5,-177 609.5,-93.04 480.77,-73.16 418.93,-68.46"/>
<polygon fill="midnightblue" stroke="midnightblue" points="504.92,-784.76 495.69,-789.95 506.14,-791.65 504.92,-784.76"/>
</g>
<!-- Node8 -->
<g id="node8" class="node">
<title>Node8</title>
<g id="a_node8"><a xlink:href="api_2spec_2crypto_8h.html" target="_top" xlink:title=" ">
<polygon fill="white" stroke="black" points="288.5,-672.5 288.5,-691.5 344.5,-691.5 344.5,-672.5 288.5,-672.5"/>
<text text-anchor="middle" x="316.5" y="-679.5" font-family="Helvetica,sans-Serif" font-size="10.00">crypto.h</text>
</a>
</g>
</g>
<!-- Node3&#45;&gt;Node8 -->
<g id="edge7" class="edge">
<title>Node3&#45;&gt;Node8</title>
<path fill="none" stroke="midnightblue" d="M436.85,-780C419.91,-771.93 398.68,-760.69 381.5,-748 358.14,-730.74 335.14,-705.17 323.8,-691.83"/>
<polygon fill="midnightblue" stroke="midnightblue" points="435.73,-783.34 446.27,-784.38 438.68,-776.99 435.73,-783.34"/>
</g>
<!-- Node12 -->
<g id="node12" class="node">
<title>Node12</title>
<g id="a_node12"><a xlink:href="api_2spec_2event_8h.html" target="_top" xlink:title=" ">
<polygon fill="white" stroke="black" points="193,-728.5 193,-747.5 246,-747.5 246,-728.5 193,-728.5"/>
<text text-anchor="middle" x="219.5" y="-735.5" font-family="Helvetica,sans-Serif" font-size="10.00">event.h</text>
</a>
</g>
</g>
<!-- Node3&#45;&gt;Node12 -->
<g id="edge13" class="edge">
<title>Node3&#45;&gt;Node12</title>
<path fill="none" stroke="midnightblue" d="M427.26,-784.42C376.59,-773.34 289.74,-754.36 246.13,-744.82"/>
<polygon fill="midnightblue" stroke="midnightblue" points="426.68,-787.88 437.2,-786.59 428.17,-781.04 426.68,-787.88"/>
</g>
<!-- Node3&#45;&gt;Node18 -->
<g id="edge39" class="edge">
<title>Node3&#45;&gt;Node18</title>
<path fill="none" stroke="midnightblue" d="M444.29,-778.35C433.9,-770.47 422.16,-759.93 414.5,-748 398.24,-722.68 395.5,-713.1 395.5,-683 395.5,-683 395.5,-683 395.5,-513 395.5,-475.19 395.5,-430.06 395.5,-411.56"/>
<polygon fill="midnightblue" stroke="midnightblue" points="442.42,-781.32 452.58,-784.31 446.51,-775.63 442.42,-781.32"/>
</g>
<!-- Node26 -->
<g id="node26" class="node">
<title>Node26</title>
<g id="a_node26"><a xlink:href="api_2spec_2packet__flags_8h.html" target="_top" xlink:title=" ">
<polygon fill="white" stroke="black" points="423.5,-728.5 423.5,-747.5 509.5,-747.5 509.5,-728.5 423.5,-728.5"/>
<text text-anchor="middle" x="466.5" y="-735.5" font-family="Helvetica,sans-Serif" font-size="10.00">packet_flags.h</text>
</a>
</g>
</g>
<!-- Node3&#45;&gt;Node26 -->
<g id="edge36" class="edge">
<title>Node3&#45;&gt;Node26</title>
<path fill="none" stroke="midnightblue" d="M466.5,-773.8C466.5,-764.91 466.5,-754.78 466.5,-747.75"/>
<polygon fill="midnightblue" stroke="midnightblue" points="463,-774.08 466.5,-784.08 470,-774.08 463,-774.08"/>
</g>
<!-- Node5 -->
<g id="node5" class="node">
<title>Node5</title>
<g id="a_node5"><a xlink:href="api_2comp_8h.html" target="_top" xlink:title=" ">
<polygon fill="white" stroke="black" points="528,-504.5 528,-523.5 581,-523.5 581,-504.5 528,-504.5"/>
<text text-anchor="middle" x="554.5" y="-511.5" font-family="Helvetica,sans-Serif" font-size="10.00">comp.h</text>
</a>
</g>
</g>
<!-- Node4&#45;&gt;Node5 -->
<g id="edge4" class="edge">
<title>Node4&#45;&gt;Node5</title>
<path fill="none" stroke="midnightblue" d="M554.5,-718.3C554.5,-672.64 554.5,-556.85 554.5,-523.88"/>
<polygon fill="midnightblue" stroke="midnightblue" points="551,-718.3 554.5,-728.3 558,-718.3 551,-718.3"/>
</g>
<!-- Node5&#45;&gt;Node6 -->
<g id="edge5" class="edge">
<title>Node5&#45;&gt;Node6</title>
<path fill="none" stroke="midnightblue" d="M559.17,-494.36C564.2,-472.58 571.5,-435.42 571.5,-403 571.5,-403 571.5,-403 571.5,-177 571.5,-106.75 471.73,-80.36 418.72,-71.29"/>
<polygon fill="midnightblue" stroke="midnightblue" points="555.73,-493.69 556.79,-504.23 562.53,-495.33 555.73,-493.69"/>
</g>
<!-- Node7 -->
<g id="node7" class="node">
<title>Node7</title>
<g id="a_node7"><a xlink:href="odp_8h.html" target="_top" xlink:title=" ">
<polygon fill="white" stroke="black" points="364.5,-0.5 364.5,-19.5 408.5,-19.5 408.5,-0.5 364.5,-0.5"/>
<text text-anchor="middle" x="386.5" y="-7.5" font-family="Helvetica,sans-Serif" font-size="10.00">odp.h</text>
</a>
</g>
</g>
<!-- Node6&#45;&gt;Node7 -->
<g id="edge6" class="edge">
<title>Node6&#45;&gt;Node7</title>
<path fill="none" stroke="midnightblue" d="M386.5,-45.8C386.5,-36.91 386.5,-26.78 386.5,-19.75"/>
<polygon fill="midnightblue" stroke="midnightblue" points="383,-46.08 386.5,-56.08 390,-46.08 383,-46.08"/>
</g>
<!-- Node9 -->
<g id="node9" class="node">
<title>Node9</title>
<g id="a_node9"><a xlink:href="api_2crypto_8h.html" target="_top" xlink:title=" ">
<polygon fill="white" stroke="black" points="163.5,-224.5 163.5,-243.5 219.5,-243.5 219.5,-224.5 163.5,-224.5"/>
<text text-anchor="middle" x="191.5" y="-231.5" font-family="Helvetica,sans-Serif" font-size="10.00">crypto.h</text>
</a>
</g>
</g>
<!-- Node8&#45;&gt;Node9 -->
<g id="edge8" class="edge">
<title>Node8&#45;&gt;Node9</title>
<path fill="none" stroke="midnightblue" d="M310.28,-662.76C303.47,-641.14 293.5,-603.88 293.5,-571 293.5,-571 293.5,-571 293.5,-513 293.5,-455.16 214.71,-284.24 195.62,-243.7"/>
<polygon fill="midnightblue" stroke="midnightblue" points="306.96,-663.88 313.4,-672.29 313.61,-661.7 306.96,-663.88"/>
</g>
<!-- Node9&#45;&gt;Node6 -->
<g id="edge12" class="edge">
<title>Node9&#45;&gt;Node6</title>
<path fill="none" stroke="midnightblue" d="M204.97,-216.59C225.72,-191.96 267.52,-144.81 309.5,-112 328.41,-97.22 352.65,-83.84 368.83,-75.59"/>
<polygon fill="midnightblue" stroke="midnightblue" points="202.26,-214.38 198.54,-224.31 207.63,-218.86 202.26,-214.38"/>
</g>
<!-- Node10 -->
<g id="node10" class="node">
<title>Node10</title>
<g id="a_node10"><a xlink:href="api_2spec_2ipsec_8h.html" target="_top" xlink:title=" ">
<polygon fill="white" stroke="black" points="330,-168.5 330,-187.5 381,-187.5 381,-168.5 330,-168.5"/>
<text text-anchor="middle" x="355.5" y="-175.5" font-family="Helvetica,sans-Serif" font-size="10.00">ipsec.h</text>
</a>
</g>
</g>
<!-- Node9&#45;&gt;Node10 -->
<g id="edge9" class="edge">
<title>Node9&#45;&gt;Node10</title>
<path fill="none" stroke="midnightblue" d="M227.05,-221.29C258.05,-211.09 302.27,-196.53 329.91,-187.43"/>
<polygon fill="midnightblue" stroke="midnightblue" points="225.89,-217.99 217.49,-224.44 228.08,-224.64 225.89,-217.99"/>
</g>
<!-- Node11 -->
<g id="node11" class="node">
<title>Node11</title>
<g id="a_node11"><a xlink:href="api_2ipsec_8h.html" target="_top" xlink:title=" ">
<polygon fill="white" stroke="black" points="334,-112.5 334,-131.5 385,-131.5 385,-112.5 334,-112.5"/>
<text text-anchor="middle" x="359.5" y="-119.5" font-family="Helvetica,sans-Serif" font-size="10.00">ipsec.h</text>
</a>
</g>
</g>
<!-- Node10&#45;&gt;Node11 -->
<g id="edge10" class="edge">
<title>Node10&#45;&gt;Node11</title>
<path fill="none" stroke="midnightblue" d="M356.9,-158.1C357.56,-149.14 358.33,-138.86 358.85,-131.75"/>
<polygon fill="midnightblue" stroke="midnightblue" points="353.41,-157.85 356.16,-168.08 360.39,-158.37 353.41,-157.85"/>
</g>
<!-- Node11&#45;&gt;Node6 -->
<g id="edge11" class="edge">
<title>Node11&#45;&gt;Node6</title>
<path fill="none" stroke="midnightblue" d="M368.51,-102.98C373.09,-93.82 378.45,-83.09 382.12,-75.75"/>
<polygon fill="midnightblue" stroke="midnightblue" points="365.3,-101.57 363.96,-112.08 371.56,-104.7 365.3,-101.57"/>
</g>
<!-- Node13 -->
<g id="node13" class="node">
<title>Node13</title>
<g id="a_node13"><a xlink:href="api_2event_8h.html" target="_top" xlink:title=" ">
<polygon fill="white" stroke="black" points="99,-672.5 99,-691.5 152,-691.5 152,-672.5 99,-672.5"/>
<text text-anchor="middle" x="125.5" y="-679.5" font-family="Helvetica,sans-Serif" font-size="10.00">event.h</text>
</a>
</g>
</g>
<!-- Node12&#45;&gt;Node13 -->
<g id="edge14" class="edge">
<title>Node12&#45;&gt;Node13</title>
<path fill="none" stroke="midnightblue" d="M195.44,-723.18C178.14,-713.24 155.35,-700.15 140.57,-691.65"/>
<polygon fill="midnightblue" stroke="midnightblue" points="193.98,-726.38 204.4,-728.32 197.47,-720.31 193.98,-726.38"/>
</g>
<!-- Node13&#45;&gt;Node6 -->
<g id="edge35" class="edge">
<title>Node13&#45;&gt;Node6</title>
<path fill="none" stroke="midnightblue" d="M117.93,-662.88C109.63,-641.37 97.5,-604.21 97.5,-571 97.5,-571 97.5,-571 97.5,-177 97.5,-140 117.8,-131.08 149.5,-112 214.45,-72.91 306.03,-66.6 354.12,-66.26"/>
<polygon fill="midnightblue" stroke="midnightblue" points="114.75,-664.37 121.72,-672.35 121.25,-661.77 114.75,-664.37"/>
</g>
<!-- Node14 -->
<g id="node14" class="node">
<title>Node14</title>
<g id="a_node14"><a xlink:href="api_2spec_2queue_8h.html" target="_top" xlink:title=" ">
<polygon fill="white" stroke="black" points="125.5,-616.5 125.5,-635.5 181.5,-635.5 181.5,-616.5 125.5,-616.5"/>
<text text-anchor="middle" x="153.5" y="-623.5" font-family="Helvetica,sans-Serif" font-size="10.00">queue.h</text>
</a>
</g>
</g>
<!-- Node13&#45;&gt;Node14 -->
<g id="edge15" class="edge">
<title>Node13&#45;&gt;Node14</title>
<path fill="none" stroke="midnightblue" d="M134.84,-662.98C139.59,-653.82 145.16,-643.09 148.96,-635.75"/>
<polygon fill="midnightblue" stroke="midnightblue" points="131.62,-661.59 130.12,-672.08 137.83,-664.82 131.62,-661.59"/>
</g>
<!-- Node24 -->
<g id="node24" class="node">
<title>Node24</title>
<g id="a_node24"><a xlink:href="api_2spec_2schedule_8h.html" target="_top" xlink:title=" ">
<polygon fill="white" stroke="black" points="0,-616.5 0,-635.5 69,-635.5 69,-616.5 0,-616.5"/>
<text text-anchor="middle" x="34.5" y="-623.5" font-family="Helvetica,sans-Serif" font-size="10.00">schedule.h</text>
</a>
</g>
</g>
<!-- Node13&#45;&gt;Node24 -->
<g id="edge32" class="edge">
<title>Node13&#45;&gt;Node24</title>
<path fill="none" stroke="midnightblue" d="M102.21,-667.18C85.46,-657.24 63.4,-644.15 49.08,-635.65"/>
<polygon fill="midnightblue" stroke="midnightblue" points="100.49,-670.23 110.88,-672.32 104.07,-664.21 100.49,-670.23"/>
</g>
<!-- Node15 -->
<g id="node15" class="node">
<title>Node15</title>
<g id="a_node15"><a xlink:href="api_2queue_8h.html" target="_top" xlink:title=" ">
<polygon fill="white" stroke="black" points="125.5,-560.5 125.5,-579.5 181.5,-579.5 181.5,-560.5 125.5,-560.5"/>
<text text-anchor="middle" x="153.5" y="-567.5" font-family="Helvetica,sans-Serif" font-size="10.00">queue.h</text>
</a>
</g>
</g>
<!-- Node14&#45;&gt;Node15 -->
<g id="edge16" class="edge">
<title>Node14&#45;&gt;Node15</title>
<path fill="none" stroke="midnightblue" d="M153.5,-605.8C153.5,-596.91 153.5,-586.78 153.5,-579.75"/>
<polygon fill="midnightblue" stroke="midnightblue" points="150,-606.08 153.5,-616.08 157,-606.08 150,-606.08"/>
</g>
<!-- Node15&#45;&gt;Node6 -->
<g id="edge31" class="edge">
<title>Node15&#45;&gt;Node6</title>
<path fill="none" stroke="midnightblue" d="M148.56,-550.37C143.23,-528.62 135.5,-491.46 135.5,-459 135.5,-459 135.5,-459 135.5,-177 135.5,-82.44 286.79,-68.4 354.46,-66.86"/>
<polygon fill="midnightblue" stroke="midnightblue" points="145.21,-551.41 151.07,-560.24 151.99,-549.68 145.21,-551.41"/>
</g>
<!-- Node16 -->
<g id="node16" class="node">
<title>Node16</title>
<g id="a_node16"><a xlink:href="spec_2packet__io__stats_8h.html" target="_top" xlink:title=" ">
<polygon fill="white" stroke="black" points="164,-504.5 164,-523.5 265,-523.5 265,-504.5 164,-504.5"/>
<text text-anchor="middle" x="214.5" y="-511.5" font-family="Helvetica,sans-Serif" font-size="10.00">packet_io_stats.h</text>
</a>
</g>
</g>
<!-- Node15&#45;&gt;Node16 -->
<g id="edge17" class="edge">
<title>Node15&#45;&gt;Node16</title>
<path fill="none" stroke="midnightblue" d="M170.97,-553.54C181.84,-543.91 195.44,-531.87 204.52,-523.83"/>
<polygon fill="midnightblue" stroke="midnightblue" points="168.47,-551.07 163.3,-560.32 173.11,-556.32 168.47,-551.07"/>
</g>
<!-- Node17 -->
<g id="node17" class="node">
<title>Node17</title>
<g id="a_node17"><a xlink:href="packet__io__stats_8h.html" target="_top" xlink:title=" ">
<polygon fill="white" stroke="black" points="164,-448.5 164,-467.5 265,-467.5 265,-448.5 164,-448.5"/>
<text text-anchor="middle" x="214.5" y="-455.5" font-family="Helvetica,sans-Serif" font-size="10.00">packet_io_stats.h</text>
</a>
</g>
</g>
<!-- Node16&#45;&gt;Node17 -->
<g id="edge18" class="edge">
<title>Node16&#45;&gt;Node17</title>
<path fill="none" stroke="midnightblue" d="M214.5,-493.8C214.5,-484.91 214.5,-474.78 214.5,-467.75"/>
<polygon fill="midnightblue" stroke="midnightblue" points="211,-494.08 214.5,-504.08 218,-494.08 211,-494.08"/>
</g>
<!-- Node17&#45;&gt;Node18 -->
<g id="edge19" class="edge">
<title>Node17&#45;&gt;Node18</title>
<path fill="none" stroke="midnightblue" d="M252.82,-445.57C286.96,-435.38 336.16,-420.7 366.95,-411.52"/>
<polygon fill="midnightblue" stroke="midnightblue" points="251.76,-442.23 243.18,-448.44 253.76,-448.94 251.76,-442.23"/>
</g>
<!-- Node19 -->
<g id="node19" class="node">
<title>Node19</title>
<g id="a_node19"><a xlink:href="api_2packet__io_8h.html" target="_top" xlink:title=" ">
<polygon fill="white" stroke="black" points="359.5,-336.5 359.5,-355.5 431.5,-355.5 431.5,-336.5 359.5,-336.5"/>
<text text-anchor="middle" x="395.5" y="-343.5" font-family="Helvetica,sans-Serif" font-size="10.00">packet_io.h</text>
</a>
</g>
</g>
<!-- Node18&#45;&gt;Node19 -->
<g id="edge20" class="edge">
<title>Node18&#45;&gt;Node19</title>
<path fill="none" stroke="midnightblue" d="M395.5,-381.8C395.5,-372.91 395.5,-362.78 395.5,-355.75"/>
<polygon fill="midnightblue" stroke="midnightblue" points="392,-382.08 395.5,-392.08 399,-382.08 392,-382.08"/>
</g>
<!-- Node19&#45;&gt;Node6 -->
<g id="edge30" class="edge">
<title>Node19&#45;&gt;Node6</title>
<path fill="none" stroke="midnightblue" d="M431.25,-332.41C447.15,-325.17 464.86,-314.57 476.5,-300 495.29,-276.48 495.5,-265.1 495.5,-235 495.5,-235 495.5,-235 495.5,-177 495.5,-126.59 437.03,-91.01 405.74,-75.58"/>
<polygon fill="midnightblue" stroke="midnightblue" points="429.5,-329.36 421.66,-336.49 432.23,-335.8 429.5,-329.36"/>
</g>
<!-- Node19&#45;&gt;Node10 -->
<g id="edge25" class="edge">
<title>Node19&#45;&gt;Node10</title>
<path fill="none" stroke="midnightblue" d="M385.91,-327.45C381.83,-319.31 377.36,-309.38 374.5,-300 362.02,-259.12 357.43,-207.84 356.03,-187.69"/>
<polygon fill="midnightblue" stroke="midnightblue" points="382.82,-329.09 390.55,-336.33 389.02,-325.84 382.82,-329.09"/>
</g>
<!-- Node20 -->
<g id="node20" class="node">
<title>Node20</title>
<g id="a_node20"><a xlink:href="api_2spec_2classification_8h.html" target="_top" xlink:title=" ">
<polygon fill="white" stroke="black" points="238,-280.5 238,-299.5 327,-299.5 327,-280.5 238,-280.5"/>
<text text-anchor="middle" x="282.5" y="-287.5" font-family="Helvetica,sans-Serif" font-size="10.00">classification.h</text>
</a>
</g>
</g>
<!-- Node19&#45;&gt;Node20 -->
<g id="edge21" class="edge">
<title>Node19&#45;&gt;Node20</title>
<path fill="none" stroke="midnightblue" d="M368.5,-332.1C347.39,-322.01 318.64,-308.27 300.32,-299.52"/>
<polygon fill="midnightblue" stroke="midnightblue" points="367.06,-335.29 377.59,-336.44 370.08,-328.97 367.06,-335.29"/>
</g>
<!-- Node22 -->
<g id="node22" class="node">
<title>Node22</title>
<g id="a_node22"><a xlink:href="api_2spec_2traffic__mngr_8h.html" target="_top" xlink:title=" ">
<polygon fill="white" stroke="black" points="383.5,-280.5 383.5,-299.5 467.5,-299.5 467.5,-280.5 383.5,-280.5"/>
<text text-anchor="middle" x="425.5" y="-287.5" font-family="Helvetica,sans-Serif" font-size="10.00">traffic_mngr.h</text>
</a>
</g>
</g>
<!-- Node19&#45;&gt;Node22 -->
<g id="edge26" class="edge">
<title>Node19&#45;&gt;Node22</title>
<path fill="none" stroke="midnightblue" d="M405.35,-327.27C410.47,-318.05 416.52,-307.17 420.64,-299.75"/>
<polygon fill="midnightblue" stroke="midnightblue" points="402.25,-325.64 400.45,-336.08 408.37,-329.04 402.25,-325.64"/>
</g>
<!-- Node21 -->
<g id="node21" class="node">
<title>Node21</title>
<g id="a_node21"><a xlink:href="api_2classification_8h.html" target="_top" xlink:title=" ">
<polygon fill="white" stroke="black" points="238,-224.5 238,-243.5 327,-243.5 327,-224.5 238,-224.5"/>
<text text-anchor="middle" x="282.5" y="-231.5" font-family="Helvetica,sans-Serif" font-size="10.00">classification.h</text>
</a>
</g>
</g>
<!-- Node20&#45;&gt;Node21 -->
<g id="edge22" class="edge">
<title>Node20&#45;&gt;Node21</title>
<path fill="none" stroke="midnightblue" d="M282.5,-269.8C282.5,-260.91 282.5,-250.78 282.5,-243.75"/>
<polygon fill="midnightblue" stroke="midnightblue" points="279,-270.08 282.5,-280.08 286,-270.08 279,-270.08"/>
</g>
<!-- Node21&#45;&gt;Node6 -->
<g id="edge24" class="edge">
<title>Node21&#45;&gt;Node6</title>
<path fill="none" stroke="midnightblue" d="M285.4,-214.16C290.06,-188.85 301.17,-143.43 324.5,-112 336.39,-95.98 355.63,-83.28 369.53,-75.52"/>
<polygon fill="midnightblue" stroke="midnightblue" points="281.91,-213.81 283.7,-224.25 288.82,-214.97 281.91,-213.81"/>
</g>
<!-- Node21&#45;&gt;Node10 -->
<g id="edge23" class="edge">
<title>Node21&#45;&gt;Node10</title>
<path fill="none" stroke="midnightblue" d="M302.64,-218.1C315.78,-208.38 332.48,-196.03 343.56,-187.83"/>
<polygon fill="midnightblue" stroke="midnightblue" points="300.19,-215.56 294.23,-224.32 304.35,-221.19 300.19,-215.56"/>
</g>
<!-- Node23 -->
<g id="node23" class="node">
<title>Node23</title>
<g id="a_node23"><a xlink:href="api_2traffic__mngr_8h.html" target="_top" xlink:title=" ">
<polygon fill="white" stroke="black" points="383.5,-224.5 383.5,-243.5 467.5,-243.5 467.5,-224.5 383.5,-224.5"/>
<text text-anchor="middle" x="425.5" y="-231.5" font-family="Helvetica,sans-Serif" font-size="10.00">traffic_mngr.h</text>
</a>
</g>
</g>
<!-- Node22&#45;&gt;Node23 -->
<g id="edge27" class="edge">
<title>Node22&#45;&gt;Node23</title>
<path fill="none" stroke="midnightblue" d="M425.5,-269.8C425.5,-260.91 425.5,-250.78 425.5,-243.75"/>
<polygon fill="midnightblue" stroke="midnightblue" points="422,-270.08 425.5,-280.08 429,-270.08 422,-270.08"/>
</g>
<!-- Node23&#45;&gt;Node6 -->
<g id="edge29" class="edge">
<title>Node23&#45;&gt;Node6</title>
<path fill="none" stroke="midnightblue" d="M421.02,-213.93C412.56,-177.92 394.54,-101.23 388.51,-75.57"/>
<polygon fill="midnightblue" stroke="midnightblue" points="417.71,-215.14 423.4,-224.08 424.52,-213.54 417.71,-215.14"/>
</g>
<!-- Node23&#45;&gt;Node10 -->
<g id="edge28" class="edge">
<title>Node23&#45;&gt;Node10</title>
<path fill="none" stroke="midnightblue" d="M406.19,-218.1C393.59,-208.38 377.57,-196.03 366.95,-187.83"/>
<polygon fill="midnightblue" stroke="midnightblue" points="404.2,-220.99 414.25,-224.32 408.47,-215.44 404.2,-220.99"/>
</g>
<!-- Node25 -->
<g id="node25" class="node">
<title>Node25</title>
<g id="a_node25"><a xlink:href="api_2schedule_8h.html" target="_top" xlink:title=" ">
<polygon fill="white" stroke="black" points="0,-392.5 0,-411.5 69,-411.5 69,-392.5 0,-392.5"/>
<text text-anchor="middle" x="34.5" y="-399.5" font-family="Helvetica,sans-Serif" font-size="10.00">schedule.h</text>
</a>
</g>
</g>
<!-- Node24&#45;&gt;Node25 -->
<g id="edge33" class="edge">
<title>Node24&#45;&gt;Node25</title>
<path fill="none" stroke="midnightblue" d="M34.5,-606.3C34.5,-560.64 34.5,-444.85 34.5,-411.88"/>
<polygon fill="midnightblue" stroke="midnightblue" points="31,-606.3 34.5,-616.3 38,-606.3 31,-606.3"/>
</g>
<!-- Node25&#45;&gt;Node6 -->
<g id="edge34" class="edge">
<title>Node25&#45;&gt;Node6</title>
<path fill="none" stroke="midnightblue" d="M37.79,-382.32C41.34,-360.49 46.5,-323.24 46.5,-291 46.5,-291 46.5,-291 46.5,-177 46.5,-143.76 56.07,-130.78 83.5,-112 127.11,-82.14 285.64,-71.52 354.36,-68.27"/>
<polygon fill="midnightblue" stroke="midnightblue" points="34.29,-382.03 36.07,-392.48 41.19,-383.2 34.29,-382.03"/>
</g>
<!-- Node27 -->
<g id="node27" class="node">
<title>Node27</title>
<g id="a_node27"><a xlink:href="api_2packet__flags_8h.html" target="_top" xlink:title=" ">
<polygon fill="white" stroke="black" points="448.5,-448.5 448.5,-467.5 534.5,-467.5 534.5,-448.5 448.5,-448.5"/>
<text text-anchor="middle" x="491.5" y="-455.5" font-family="Helvetica,sans-Serif" font-size="10.00">packet_flags.h</text>
</a>
</g>
</g>
<!-- Node26&#45;&gt;Node27 -->
<g id="edge37" class="edge">
<title>Node26&#45;&gt;Node27</title>
<path fill="none" stroke="midnightblue" d="M468.69,-718.28C471.06,-696.42 474.5,-659.14 474.5,-627 474.5,-627 474.5,-627 474.5,-569 474.5,-530.93 484.57,-486.31 489.21,-467.77"/>
<polygon fill="midnightblue" stroke="midnightblue" points="465.19,-718.13 467.55,-728.46 472.14,-718.91 465.19,-718.13"/>
</g>
<!-- Node27&#45;&gt;Node6 -->
<g id="edge38" class="edge">
<title>Node27&#45;&gt;Node6</title>
<path fill="none" stroke="midnightblue" d="M502.71,-439.57C515.15,-418.51 533.5,-381.59 533.5,-347 533.5,-347 533.5,-347 533.5,-177 533.5,-120.1 462.03,-89.07 418.76,-75.5"/>
<polygon fill="midnightblue" stroke="midnightblue" points="499.59,-437.96 497.34,-448.31 505.56,-441.62 499.59,-437.96"/>
</g>
</g>
</svg>
