<?xml version="1.0" encoding="UTF-8" standalone="no"?>
<!DOCTYPE svg PUBLIC "-//W3C//DTD SVG 1.1//EN"
 "http://www.w3.org/Graphics/SVG/1.1/DTD/svg11.dtd">
<!-- Generated by graphviz version 2.43.0 (0)
 -->
<!-- Title: schedule_types.h Pages: 1 -->
<svg width="857pt" height="1260pt"
 viewBox="0.00 0.00 856.50 1260.00" xmlns="http://www.w3.org/2000/svg" xmlns:xlink="http://www.w3.org/1999/xlink">
<g id="graph0" class="graph" transform="scale(1 1) rotate(0) translate(4 1256)">
<title>schedule_types.h</title>
<polygon fill="white" stroke="transparent" points="-4,4 -4,-1256 852.5,-1256 852.5,4 -4,4"/>
<!-- Node1 -->
<g id="node1" class="node">
<title>Node1</title>
<g id="a_node1"><a xlink:title=" ">
<polygon fill="#bfbfbf" stroke="black" points="357,-1232.5 357,-1251.5 458,-1251.5 458,-1232.5 357,-1232.5"/>
<text text-anchor="middle" x="407.5" y="-1239.5" font-family="Helvetica,sans-Serif" font-size="10.00">schedule_types.h</text>
</a>
</g>
</g>
<!-- Node2 -->
<g id="node2" class="node">
<title>Node2</title>
<g id="a_node2"><a xlink:href="arch_2arm32-linux_2odp_2api_2abi_2schedule__types_8h_source.html" target="_top" xlink:title=" ">
<polygon fill="white" stroke="black" points="0,-1176.5 0,-1195.5 101,-1195.5 101,-1176.5 0,-1176.5"/>
<text text-anchor="middle" x="50.5" y="-1183.5" font-family="Helvetica,sans-Serif" font-size="10.00">schedule_types.h</text>
</a>
</g>
</g>
<!-- Node1&#45;&gt;Node2 -->
<g id="edge1" class="edge">
<title>Node1&#45;&gt;Node2</title>
<path fill="none" stroke="midnightblue" d="M346.78,-1231.86C286.56,-1222.79 191.65,-1208.47 109.5,-1196 106.73,-1195.58 103.9,-1195.15 101.03,-1194.71"/>
<polygon fill="midnightblue" stroke="midnightblue" points="346.47,-1235.35 356.88,-1233.38 347.51,-1228.43 346.47,-1235.35"/>
</g>
<!-- Node3 -->
<g id="node3" class="node">
<title>Node3</title>
<g id="a_node3"><a xlink:href="arch_2arm64-linux_2odp_2api_2abi_2schedule__types_8h_source.html" target="_top" xlink:title=" ">
<polygon fill="white" stroke="black" points="119,-1176.5 119,-1195.5 220,-1195.5 220,-1176.5 119,-1176.5"/>
<text text-anchor="middle" x="169.5" y="-1183.5" font-family="Helvetica,sans-Serif" font-size="10.00">schedule_types.h</text>
</a>
</g>
</g>
<!-- Node1&#45;&gt;Node3 -->
<g id="edge2" class="edge">
<title>Node1&#45;&gt;Node3</title>
<path fill="none" stroke="midnightblue" d="M359.98,-1230.22C315,-1220.01 248.4,-1204.9 207.04,-1195.52"/>
<polygon fill="midnightblue" stroke="midnightblue" points="359.26,-1233.64 369.79,-1232.44 360.81,-1226.82 359.26,-1233.64"/>
</g>
<!-- Node4 -->
<g id="node4" class="node">
<title>Node4</title>
<g id="a_node4"><a xlink:href="arch_2default-linux_2odp_2api_2abi_2schedule__types_8h_source.html" target="_top" xlink:title=" ">
<polygon fill="white" stroke="black" points="238,-1176.5 238,-1195.5 339,-1195.5 339,-1176.5 238,-1176.5"/>
<text text-anchor="middle" x="288.5" y="-1183.5" font-family="Helvetica,sans-Serif" font-size="10.00">schedule_types.h</text>
</a>
</g>
</g>
<!-- Node1&#45;&gt;Node4 -->
<g id="edge3" class="edge">
<title>Node1&#45;&gt;Node4</title>
<path fill="none" stroke="midnightblue" d="M379.36,-1228.23C357.1,-1218.13 326.64,-1204.31 307.27,-1195.52"/>
<polygon fill="midnightblue" stroke="midnightblue" points="378.09,-1231.5 388.64,-1232.44 380.98,-1225.12 378.09,-1231.5"/>
</g>
<!-- Node5 -->
<g id="node5" class="node">
<title>Node5</title>
<g id="a_node5"><a xlink:href="arch_2mips64-linux_2odp_2api_2abi_2schedule__types_8h_source.html" target="_top" xlink:title=" ">
<polygon fill="white" stroke="black" points="357,-1176.5 357,-1195.5 458,-1195.5 458,-1176.5 357,-1176.5"/>
<text text-anchor="middle" x="407.5" y="-1183.5" font-family="Helvetica,sans-Serif" font-size="10.00">schedule_types.h</text>
</a>
</g>
</g>
<!-- Node1&#45;&gt;Node5 -->
<g id="edge4" class="edge">
<title>Node1&#45;&gt;Node5</title>
<path fill="none" stroke="midnightblue" d="M407.5,-1221.8C407.5,-1212.91 407.5,-1202.78 407.5,-1195.75"/>
<polygon fill="midnightblue" stroke="midnightblue" points="404,-1222.08 407.5,-1232.08 411,-1222.08 404,-1222.08"/>
</g>
<!-- Node6 -->
<g id="node6" class="node">
<title>Node6</title>
<g id="a_node6"><a xlink:href="arch_2power64-linux_2odp_2api_2abi_2schedule__types_8h_source.html" target="_top" xlink:title=" ">
<polygon fill="white" stroke="black" points="476,-1176.5 476,-1195.5 577,-1195.5 577,-1176.5 476,-1176.5"/>
<text text-anchor="middle" x="526.5" y="-1183.5" font-family="Helvetica,sans-Serif" font-size="10.00">schedule_types.h</text>
</a>
</g>
</g>
<!-- Node1&#45;&gt;Node6 -->
<g id="edge5" class="edge">
<title>Node1&#45;&gt;Node6</title>
<path fill="none" stroke="midnightblue" d="M435.64,-1228.23C457.9,-1218.13 488.36,-1204.31 507.73,-1195.52"/>
<polygon fill="midnightblue" stroke="midnightblue" points="434.02,-1225.12 426.36,-1232.44 436.91,-1231.5 434.02,-1225.12"/>
</g>
<!-- Node7 -->
<g id="node7" class="node">
<title>Node7</title>
<g id="a_node7"><a xlink:href="arch_2x86__32-linux_2odp_2api_2abi_2schedule__types_8h_source.html" target="_top" xlink:title=" ">
<polygon fill="white" stroke="black" points="595,-1176.5 595,-1195.5 696,-1195.5 696,-1176.5 595,-1176.5"/>
<text text-anchor="middle" x="645.5" y="-1183.5" font-family="Helvetica,sans-Serif" font-size="10.00">schedule_types.h</text>
</a>
</g>
</g>
<!-- Node1&#45;&gt;Node7 -->
<g id="edge6" class="edge">
<title>Node1&#45;&gt;Node7</title>
<path fill="none" stroke="midnightblue" d="M455.02,-1230.22C500,-1220.01 566.6,-1204.9 607.96,-1195.52"/>
<polygon fill="midnightblue" stroke="midnightblue" points="454.19,-1226.82 445.21,-1232.44 455.74,-1233.64 454.19,-1226.82"/>
</g>
<!-- Node8 -->
<g id="node8" class="node">
<title>Node8</title>
<g id="a_node8"><a xlink:href="arch_2x86__64-linux_2odp_2api_2abi_2schedule__types_8h_source.html" target="_top" xlink:title=" ">
<polygon fill="white" stroke="black" points="714,-1176.5 714,-1195.5 815,-1195.5 815,-1176.5 714,-1176.5"/>
<text text-anchor="middle" x="764.5" y="-1183.5" font-family="Helvetica,sans-Serif" font-size="10.00">schedule_types.h</text>
</a>
</g>
</g>
<!-- Node1&#45;&gt;Node8 -->
<g id="edge7" class="edge">
<title>Node1&#45;&gt;Node8</title>
<path fill="none" stroke="midnightblue" d="M468.22,-1231.86C528.44,-1222.79 623.35,-1208.47 705.5,-1196 708.27,-1195.58 711.1,-1195.15 713.97,-1194.71"/>
<polygon fill="midnightblue" stroke="midnightblue" points="467.49,-1228.43 458.12,-1233.38 468.53,-1235.35 467.49,-1228.43"/>
</g>
<!-- Node9 -->
<g id="node9" class="node">
<title>Node9</title>
<g id="a_node9"><a xlink:href="api_2schedule_8h.html" target="_top" xlink:title=" ">
<polygon fill="white" stroke="black" points="770,-560.5 770,-579.5 839,-579.5 839,-560.5 770,-560.5"/>
<text text-anchor="middle" x="804.5" y="-567.5" font-family="Helvetica,sans-Serif" font-size="10.00">schedule.h</text>
</a>
</g>
</g>
<!-- Node8&#45;&gt;Node9 -->
<g id="edge8" class="edge">
<title>Node8&#45;&gt;Node9</title>
<path fill="none" stroke="midnightblue" d="M775.18,-1167.5C787.03,-1146.37 804.5,-1109.38 804.5,-1075 804.5,-1075 804.5,-1075 804.5,-681 804.5,-643.19 804.5,-598.06 804.5,-579.56"/>
<polygon fill="midnightblue" stroke="midnightblue" points="772.08,-1165.87 770.06,-1176.27 778.12,-1169.39 772.08,-1165.87"/>
</g>
<!-- Node12 -->
<g id="node12" class="node">
<title>Node12</title>
<g id="a_node12"><a xlink:href="api_2schedule__types_8h.html" target="_top" xlink:title=" ">
<polygon fill="white" stroke="black" points="675,-1120.5 675,-1139.5 776,-1139.5 776,-1120.5 675,-1120.5"/>
<text text-anchor="middle" x="725.5" y="-1127.5" font-family="Helvetica,sans-Serif" font-size="10.00">schedule_types.h</text>
</a>
</g>
</g>
<!-- Node8&#45;&gt;Node12 -->
<g id="edge11" class="edge">
<title>Node8&#45;&gt;Node12</title>
<path fill="none" stroke="midnightblue" d="M752.12,-1167.86C745.36,-1158.5 737.29,-1147.33 731.82,-1139.75"/>
<polygon fill="midnightblue" stroke="midnightblue" points="749.37,-1170.03 758.06,-1176.08 755.04,-1165.93 749.37,-1170.03"/>
</g>
<!-- Node10 -->
<g id="node10" class="node">
<title>Node10</title>
<g id="a_node10"><a xlink:href="odp__api_8h.html" target="_top" xlink:title=" ">
<polygon fill="white" stroke="black" points="509.5,-56.5 509.5,-75.5 573.5,-75.5 573.5,-56.5 509.5,-56.5"/>
<text text-anchor="middle" x="541.5" y="-63.5" font-family="Helvetica,sans-Serif" font-size="10.00">odp_api.h</text>
</a>
</g>
</g>
<!-- Node9&#45;&gt;Node10 -->
<g id="edge9" class="edge">
<title>Node9&#45;&gt;Node10</title>
<path fill="none" stroke="midnightblue" d="M816.07,-551.93C829.1,-530.99 848.5,-493.96 848.5,-459 848.5,-459 848.5,-459 848.5,-177 848.5,-137.98 823.61,-130.93 789.5,-112 719.67,-73.25 623.37,-66.88 573.82,-66.42"/>
<polygon fill="midnightblue" stroke="midnightblue" points="813.11,-550.05 810.62,-560.35 818.99,-553.85 813.11,-550.05"/>
</g>
<!-- Node11 -->
<g id="node11" class="node">
<title>Node11</title>
<g id="a_node11"><a xlink:href="odp_8h.html" target="_top" xlink:title=" ">
<polygon fill="white" stroke="black" points="519.5,-0.5 519.5,-19.5 563.5,-19.5 563.5,-0.5 519.5,-0.5"/>
<text text-anchor="middle" x="541.5" y="-7.5" font-family="Helvetica,sans-Serif" font-size="10.00">odp.h</text>
</a>
</g>
</g>
<!-- Node10&#45;&gt;Node11 -->
<g id="edge10" class="edge">
<title>Node10&#45;&gt;Node11</title>
<path fill="none" stroke="midnightblue" d="M541.5,-45.8C541.5,-36.91 541.5,-26.78 541.5,-19.75"/>
<polygon fill="midnightblue" stroke="midnightblue" points="538,-46.08 541.5,-56.08 545,-46.08 538,-46.08"/>
</g>
<!-- Node13 -->
<g id="node13" class="node">
<title>Node13</title>
<g id="a_node13"><a xlink:href="api_2spec_2queue__types_8h.html" target="_top" xlink:title=" ">
<polygon fill="white" stroke="black" points="614.5,-1064.5 614.5,-1083.5 702.5,-1083.5 702.5,-1064.5 614.5,-1064.5"/>
<text text-anchor="middle" x="658.5" y="-1071.5" font-family="Helvetica,sans-Serif" font-size="10.00">queue_types.h</text>
</a>
</g>
</g>
<!-- Node12&#45;&gt;Node13 -->
<g id="edge12" class="edge">
<title>Node12&#45;&gt;Node13</title>
<path fill="none" stroke="midnightblue" d="M706.67,-1113.82C694.66,-1104.15 679.53,-1091.95 669.46,-1083.83"/>
<polygon fill="midnightblue" stroke="midnightblue" points="704.75,-1116.77 714.74,-1120.32 709.15,-1111.32 704.75,-1116.77"/>
</g>
<!-- Node37 -->
<g id="node37" class="node">
<title>Node37</title>
<g id="a_node37"><a xlink:href="api_2spec_2schedule_8h.html" target="_top" xlink:title=" ">
<polygon fill="white" stroke="black" points="700,-616.5 700,-635.5 769,-635.5 769,-616.5 700,-616.5"/>
<text text-anchor="middle" x="734.5" y="-623.5" font-family="Helvetica,sans-Serif" font-size="10.00">schedule.h</text>
</a>
</g>
</g>
<!-- Node12&#45;&gt;Node37 -->
<g id="edge57" class="edge">
<title>Node12&#45;&gt;Node37</title>
<path fill="none" stroke="midnightblue" d="M727.42,-1110.27C729.49,-1088.4 732.5,-1051.12 732.5,-1019 732.5,-1019 732.5,-1019 732.5,-737 732.5,-699.18 733.7,-654.06 734.24,-635.56"/>
<polygon fill="midnightblue" stroke="midnightblue" points="723.91,-1110.16 726.42,-1120.45 730.88,-1110.85 723.91,-1110.16"/>
</g>
<!-- Node14 -->
<g id="node14" class="node">
<title>Node14</title>
<g id="a_node14"><a xlink:href="api_2queue__types_8h.html" target="_top" xlink:title=" ">
<polygon fill="white" stroke="black" points="609.5,-1008.5 609.5,-1027.5 697.5,-1027.5 697.5,-1008.5 609.5,-1008.5"/>
<text text-anchor="middle" x="653.5" y="-1015.5" font-family="Helvetica,sans-Serif" font-size="10.00">queue_types.h</text>
</a>
</g>
</g>
<!-- Node13&#45;&gt;Node14 -->
<g id="edge13" class="edge">
<title>Node13&#45;&gt;Node14</title>
<path fill="none" stroke="midnightblue" d="M656.75,-1054.1C655.92,-1045.14 654.97,-1034.86 654.31,-1027.75"/>
<polygon fill="midnightblue" stroke="midnightblue" points="653.27,-1054.45 657.67,-1064.08 660.24,-1053.8 653.27,-1054.45"/>
</g>
<!-- Node15 -->
<g id="node15" class="node">
<title>Node15</title>
<g id="a_node15"><a xlink:href="api_2spec_2packet__io_8h.html" target="_top" xlink:title=" ">
<polygon fill="white" stroke="black" points="561.5,-392.5 561.5,-411.5 633.5,-411.5 633.5,-392.5 561.5,-392.5"/>
<text text-anchor="middle" x="597.5" y="-399.5" font-family="Helvetica,sans-Serif" font-size="10.00">packet_io.h</text>
</a>
</g>
</g>
<!-- Node14&#45;&gt;Node15 -->
<g id="edge14" class="edge">
<title>Node14&#45;&gt;Node15</title>
<path fill="none" stroke="midnightblue" d="M638.97,-1000.66C622.38,-980.25 597.5,-943.56 597.5,-907 597.5,-907 597.5,-907 597.5,-513 597.5,-475.19 597.5,-430.06 597.5,-411.56"/>
<polygon fill="midnightblue" stroke="midnightblue" points="636.35,-1002.98 645.48,-1008.36 641.7,-998.46 636.35,-1002.98"/>
</g>
<!-- Node23 -->
<g id="node23" class="node">
<title>Node23</title>
<g id="a_node23"><a xlink:href="api_2spec_2packet__types_8h.html" target="_top" xlink:title=" ">
<polygon fill="white" stroke="black" points="456.5,-952.5 456.5,-971.5 546.5,-971.5 546.5,-952.5 456.5,-952.5"/>
<text text-anchor="middle" x="501.5" y="-959.5" font-family="Helvetica,sans-Serif" font-size="10.00">packet_types.h</text>
</a>
</g>
</g>
<!-- Node14&#45;&gt;Node23 -->
<g id="edge28" class="edge">
<title>Node14&#45;&gt;Node23</title>
<path fill="none" stroke="midnightblue" d="M619.83,-1005.04C591.23,-994.88 550.89,-980.55 525.47,-971.52"/>
<polygon fill="midnightblue" stroke="midnightblue" points="618.82,-1008.39 629.42,-1008.44 621.16,-1001.8 618.82,-1008.39"/>
</g>
<!-- Node33 -->
<g id="node33" class="node">
<title>Node33</title>
<g id="a_node33"><a xlink:href="api_2spec_2queue_8h.html" target="_top" xlink:title=" ">
<polygon fill="white" stroke="black" points="625.5,-616.5 625.5,-635.5 681.5,-635.5 681.5,-616.5 625.5,-616.5"/>
<text text-anchor="middle" x="653.5" y="-623.5" font-family="Helvetica,sans-Serif" font-size="10.00">queue.h</text>
</a>
</g>
</g>
<!-- Node14&#45;&gt;Node33 -->
<g id="edge55" class="edge">
<title>Node14&#45;&gt;Node33</title>
<path fill="none" stroke="midnightblue" d="M653.5,-998.25C653.5,-976.36 653.5,-939.05 653.5,-907 653.5,-907 653.5,-907 653.5,-737 653.5,-699.19 653.5,-654.06 653.5,-635.56"/>
<polygon fill="midnightblue" stroke="midnightblue" points="650,-998.44 653.5,-1008.44 657,-998.44 650,-998.44"/>
</g>
<!-- Node14&#45;&gt;Node37 -->
<g id="edge56" class="edge">
<title>Node14&#45;&gt;Node37</title>
<path fill="none" stroke="midnightblue" d="M663.91,-999.46C675.46,-978.3 692.5,-941.28 692.5,-907 692.5,-907 692.5,-907 692.5,-737 692.5,-696.93 717.12,-653.74 728.66,-635.69"/>
<polygon fill="midnightblue" stroke="midnightblue" points="660.81,-997.83 658.92,-1008.25 666.9,-1001.28 660.81,-997.83"/>
</g>
<!-- Node16 -->
<g id="node16" class="node">
<title>Node16</title>
<g id="a_node16"><a xlink:href="api_2packet__io_8h.html" target="_top" xlink:title=" ">
<polygon fill="white" stroke="black" points="561.5,-336.5 561.5,-355.5 633.5,-355.5 633.5,-336.5 561.5,-336.5"/>
<text text-anchor="middle" x="597.5" y="-343.5" font-family="Helvetica,sans-Serif" font-size="10.00">packet_io.h</text>
</a>
</g>
</g>
<!-- Node15&#45;&gt;Node16 -->
<g id="edge15" class="edge">
<title>Node15&#45;&gt;Node16</title>
<path fill="none" stroke="midnightblue" d="M597.5,-381.8C597.5,-372.91 597.5,-362.78 597.5,-355.75"/>
<polygon fill="midnightblue" stroke="midnightblue" points="594,-382.08 597.5,-392.08 601,-382.08 594,-382.08"/>
</g>
<!-- Node16&#45;&gt;Node10 -->
<g id="edge27" class="edge">
<title>Node16&#45;&gt;Node10</title>
<path fill="none" stroke="midnightblue" d="M644.05,-343.19C678.63,-339.39 724.64,-328.76 753.5,-300 774.82,-278.76 772.5,-265.1 772.5,-235 772.5,-235 772.5,-235 772.5,-177 772.5,-89.94 637.09,-71.71 573.62,-67.95"/>
<polygon fill="midnightblue" stroke="midnightblue" points="643.34,-339.74 633.71,-344.17 644,-346.71 643.34,-339.74"/>
</g>
<!-- Node17 -->
<g id="node17" class="node">
<title>Node17</title>
<g id="a_node17"><a xlink:href="api_2spec_2classification_8h.html" target="_top" xlink:title=" ">
<polygon fill="white" stroke="black" points="655,-280.5 655,-299.5 744,-299.5 744,-280.5 655,-280.5"/>
<text text-anchor="middle" x="699.5" y="-287.5" font-family="Helvetica,sans-Serif" font-size="10.00">classification.h</text>
</a>
</g>
</g>
<!-- Node16&#45;&gt;Node17 -->
<g id="edge16" class="edge">
<title>Node16&#45;&gt;Node17</title>
<path fill="none" stroke="midnightblue" d="M622.83,-331.59C641.69,-321.61 666.88,-308.27 683.15,-299.65"/>
<polygon fill="midnightblue" stroke="midnightblue" points="621.09,-328.55 613.89,-336.32 624.36,-334.74 621.09,-328.55"/>
</g>
<!-- Node19 -->
<g id="node19" class="node">
<title>Node19</title>
<g id="a_node19"><a xlink:href="api_2spec_2ipsec_8h.html" target="_top" xlink:title=" ">
<polygon fill="white" stroke="black" points="516,-168.5 516,-187.5 567,-187.5 567,-168.5 516,-168.5"/>
<text text-anchor="middle" x="541.5" y="-175.5" font-family="Helvetica,sans-Serif" font-size="10.00">ipsec.h</text>
</a>
</g>
</g>
<!-- Node16&#45;&gt;Node19 -->
<g id="edge22" class="edge">
<title>Node16&#45;&gt;Node19</title>
<path fill="none" stroke="midnightblue" d="M573.14,-330.99C562.3,-323.34 550.62,-312.8 544.5,-300 526.2,-261.7 534.91,-208.51 539.4,-187.77"/>
<polygon fill="midnightblue" stroke="midnightblue" points="571.25,-333.93 581.53,-336.49 575.09,-328.08 571.25,-333.93"/>
</g>
<!-- Node21 -->
<g id="node21" class="node">
<title>Node21</title>
<g id="a_node21"><a xlink:href="api_2spec_2traffic__mngr_8h.html" target="_top" xlink:title=" ">
<polygon fill="white" stroke="black" points="553.5,-280.5 553.5,-299.5 637.5,-299.5 637.5,-280.5 553.5,-280.5"/>
<text text-anchor="middle" x="595.5" y="-287.5" font-family="Helvetica,sans-Serif" font-size="10.00">traffic_mngr.h</text>
</a>
</g>
</g>
<!-- Node16&#45;&gt;Node21 -->
<g id="edge23" class="edge">
<title>Node16&#45;&gt;Node21</title>
<path fill="none" stroke="midnightblue" d="M596.79,-325.8C596.46,-316.91 596.08,-306.78 595.82,-299.75"/>
<polygon fill="midnightblue" stroke="midnightblue" points="593.3,-326.22 597.17,-336.08 600.3,-325.96 593.3,-326.22"/>
</g>
<!-- Node18 -->
<g id="node18" class="node">
<title>Node18</title>
<g id="a_node18"><a xlink:href="api_2classification_8h.html" target="_top" xlink:title=" ">
<polygon fill="white" stroke="black" points="655,-224.5 655,-243.5 744,-243.5 744,-224.5 655,-224.5"/>
<text text-anchor="middle" x="699.5" y="-231.5" font-family="Helvetica,sans-Serif" font-size="10.00">classification.h</text>
</a>
</g>
</g>
<!-- Node17&#45;&gt;Node18 -->
<g id="edge17" class="edge">
<title>Node17&#45;&gt;Node18</title>
<path fill="none" stroke="midnightblue" d="M699.5,-269.8C699.5,-260.91 699.5,-250.78 699.5,-243.75"/>
<polygon fill="midnightblue" stroke="midnightblue" points="696,-270.08 699.5,-280.08 703,-270.08 696,-270.08"/>
</g>
<!-- Node18&#45;&gt;Node10 -->
<g id="edge21" class="edge">
<title>Node18&#45;&gt;Node10</title>
<path fill="none" stroke="midnightblue" d="M686.16,-216.36C666.7,-192.42 628.98,-147.26 593.5,-112 579.95,-98.53 563.03,-84.32 552.24,-75.56"/>
<polygon fill="midnightblue" stroke="midnightblue" points="683.67,-218.85 692.68,-224.43 689.12,-214.45 683.67,-218.85"/>
</g>
<!-- Node18&#45;&gt;Node19 -->
<g id="edge18" class="edge">
<title>Node18&#45;&gt;Node19</title>
<path fill="none" stroke="midnightblue" d="M664.89,-221.17C635.14,-211 592.95,-196.59 566.42,-187.52"/>
<polygon fill="midnightblue" stroke="midnightblue" points="663.87,-224.52 674.46,-224.44 666.13,-217.9 663.87,-224.52"/>
</g>
<!-- Node20 -->
<g id="node20" class="node">
<title>Node20</title>
<g id="a_node20"><a xlink:href="api_2ipsec_8h.html" target="_top" xlink:title=" ">
<polygon fill="white" stroke="black" points="516,-112.5 516,-131.5 567,-131.5 567,-112.5 516,-112.5"/>
<text text-anchor="middle" x="541.5" y="-119.5" font-family="Helvetica,sans-Serif" font-size="10.00">ipsec.h</text>
</a>
</g>
</g>
<!-- Node19&#45;&gt;Node20 -->
<g id="edge19" class="edge">
<title>Node19&#45;&gt;Node20</title>
<path fill="none" stroke="midnightblue" d="M541.5,-157.8C541.5,-148.91 541.5,-138.78 541.5,-131.75"/>
<polygon fill="midnightblue" stroke="midnightblue" points="538,-158.08 541.5,-168.08 545,-158.08 538,-158.08"/>
</g>
<!-- Node20&#45;&gt;Node10 -->
<g id="edge20" class="edge">
<title>Node20&#45;&gt;Node10</title>
<path fill="none" stroke="midnightblue" d="M541.5,-101.8C541.5,-92.91 541.5,-82.78 541.5,-75.75"/>
<polygon fill="midnightblue" stroke="midnightblue" points="538,-102.08 541.5,-112.08 545,-102.08 538,-102.08"/>
</g>
<!-- Node22 -->
<g id="node22" class="node">
<title>Node22</title>
<g id="a_node22"><a xlink:href="api_2traffic__mngr_8h.html" target="_top" xlink:title=" ">
<polygon fill="white" stroke="black" points="553.5,-224.5 553.5,-243.5 637.5,-243.5 637.5,-224.5 553.5,-224.5"/>
<text text-anchor="middle" x="595.5" y="-231.5" font-family="Helvetica,sans-Serif" font-size="10.00">traffic_mngr.h</text>
</a>
</g>
</g>
<!-- Node21&#45;&gt;Node22 -->
<g id="edge24" class="edge">
<title>Node21&#45;&gt;Node22</title>
<path fill="none" stroke="midnightblue" d="M595.5,-269.8C595.5,-260.91 595.5,-250.78 595.5,-243.75"/>
<polygon fill="midnightblue" stroke="midnightblue" points="592,-270.08 595.5,-280.08 599,-270.08 592,-270.08"/>
</g>
<!-- Node22&#45;&gt;Node10 -->
<g id="edge26" class="edge">
<title>Node22&#45;&gt;Node10</title>
<path fill="none" stroke="midnightblue" d="M595.43,-214.32C594.71,-189.85 591.23,-146.03 576.5,-112 570.37,-97.83 558.71,-84.22 550.54,-75.75"/>
<polygon fill="midnightblue" stroke="midnightblue" points="591.93,-214.44 595.6,-224.38 598.93,-214.32 591.93,-214.44"/>
</g>
<!-- Node22&#45;&gt;Node19 -->
<g id="edge25" class="edge">
<title>Node22&#45;&gt;Node19</title>
<path fill="none" stroke="midnightblue" d="M579.5,-217C569.93,-207.43 558.14,-195.64 550.25,-187.75"/>
<polygon fill="midnightblue" stroke="midnightblue" points="577.04,-219.49 586.58,-224.08 581.99,-214.54 577.04,-219.49"/>
</g>
<!-- Node24 -->
<g id="node24" class="node">
<title>Node24</title>
<g id="a_node24"><a xlink:href="api_2packet__types_8h.html" target="_top" xlink:title=" ">
<polygon fill="white" stroke="black" points="444.5,-896.5 444.5,-915.5 534.5,-915.5 534.5,-896.5 444.5,-896.5"/>
<text text-anchor="middle" x="489.5" y="-903.5" font-family="Helvetica,sans-Serif" font-size="10.00">packet_types.h</text>
</a>
</g>
</g>
<!-- Node23&#45;&gt;Node24 -->
<g id="edge29" class="edge">
<title>Node23&#45;&gt;Node24</title>
<path fill="none" stroke="midnightblue" d="M497.3,-942.1C495.31,-933.14 493.02,-922.86 491.44,-915.75"/>
<polygon fill="midnightblue" stroke="midnightblue" points="493.93,-943.08 499.52,-952.08 500.77,-941.56 493.93,-943.08"/>
</g>
<!-- Node25 -->
<g id="node25" class="node">
<title>Node25</title>
<g id="a_node25"><a xlink:href="api_2spec_2packet_8h.html" target="_top" xlink:title=" ">
<polygon fill="white" stroke="black" points="414.5,-840.5 414.5,-859.5 472.5,-859.5 472.5,-840.5 414.5,-840.5"/>
<text text-anchor="middle" x="443.5" y="-847.5" font-family="Helvetica,sans-Serif" font-size="10.00">packet.h</text>
</a>
</g>
</g>
<!-- Node24&#45;&gt;Node25 -->
<g id="edge30" class="edge">
<title>Node24&#45;&gt;Node25</title>
<path fill="none" stroke="midnightblue" d="M475.39,-888.43C467.32,-878.97 457.54,-867.48 450.95,-859.75"/>
<polygon fill="midnightblue" stroke="midnightblue" points="472.75,-890.74 481.9,-896.08 478.08,-886.2 472.75,-890.74"/>
</g>
<!-- Node26 -->
<g id="node26" class="node">
<title>Node26</title>
<g id="a_node26"><a xlink:href="api_2packet_8h.html" target="_top" xlink:title=" ">
<polygon fill="white" stroke="black" points="402.5,-784.5 402.5,-803.5 460.5,-803.5 460.5,-784.5 402.5,-784.5"/>
<text text-anchor="middle" x="431.5" y="-791.5" font-family="Helvetica,sans-Serif" font-size="10.00">packet.h</text>
</a>
</g>
</g>
<!-- Node25&#45;&gt;Node26 -->
<g id="edge31" class="edge">
<title>Node25&#45;&gt;Node26</title>
<path fill="none" stroke="midnightblue" d="M439.3,-830.1C437.31,-821.14 435.02,-810.86 433.44,-803.75"/>
<polygon fill="midnightblue" stroke="midnightblue" points="435.93,-831.08 441.52,-840.08 442.77,-829.56 435.93,-831.08"/>
</g>
<!-- Node26&#45;&gt;Node10 -->
<g id="edge54" class="edge">
<title>Node26&#45;&gt;Node10</title>
<path fill="none" stroke="midnightblue" d="M416.97,-776.66C400.38,-756.25 375.5,-719.56 375.5,-683 375.5,-683 375.5,-683 375.5,-177 375.5,-113.39 461.26,-84.39 509.49,-73.11"/>
<polygon fill="midnightblue" stroke="midnightblue" points="414.35,-778.98 423.48,-784.36 419.7,-774.46 414.35,-778.98"/>
</g>
<!-- Node26&#45;&gt;Node15 -->
<g id="edge53" class="edge">
<title>Node26&#45;&gt;Node15</title>
<path fill="none" stroke="midnightblue" d="M446.03,-776.66C462.62,-756.25 487.5,-719.56 487.5,-683 487.5,-683 487.5,-683 487.5,-513 487.5,-462.36 546.51,-426.89 578.09,-411.54"/>
<polygon fill="midnightblue" stroke="midnightblue" points="443.3,-774.46 439.52,-784.36 448.65,-778.98 443.3,-774.46"/>
</g>
<!-- Node27 -->
<g id="node27" class="node">
<title>Node27</title>
<g id="a_node27"><a xlink:href="api_2spec_2comp_8h.html" target="_top" xlink:title=" ">
<polygon fill="white" stroke="black" points="294,-728.5 294,-747.5 347,-747.5 347,-728.5 294,-728.5"/>
<text text-anchor="middle" x="320.5" y="-735.5" font-family="Helvetica,sans-Serif" font-size="10.00">comp.h</text>
</a>
</g>
</g>
<!-- Node26&#45;&gt;Node27 -->
<g id="edge32" class="edge">
<title>Node26&#45;&gt;Node27</title>
<path fill="none" stroke="midnightblue" d="M404.49,-779.86C383.91,-769.85 356.16,-756.35 338.29,-747.65"/>
<polygon fill="midnightblue" stroke="midnightblue" points="403.14,-783.1 413.67,-784.32 406.2,-776.8 403.14,-783.1"/>
</g>
<!-- Node29 -->
<g id="node29" class="node">
<title>Node29</title>
<g id="a_node29"><a xlink:href="api_2spec_2crypto_8h.html" target="_top" xlink:title=" ">
<polygon fill="white" stroke="black" points="403.5,-672.5 403.5,-691.5 459.5,-691.5 459.5,-672.5 403.5,-672.5"/>
<text text-anchor="middle" x="431.5" y="-679.5" font-family="Helvetica,sans-Serif" font-size="10.00">crypto.h</text>
</a>
</g>
</g>
<!-- Node26&#45;&gt;Node29 -->
<g id="edge35" class="edge">
<title>Node26&#45;&gt;Node29</title>
<path fill="none" stroke="midnightblue" d="M431.5,-774.35C431.5,-750.25 431.5,-709.31 431.5,-691.59"/>
<polygon fill="midnightblue" stroke="midnightblue" points="428,-774.37 431.5,-784.37 435,-774.37 428,-774.37"/>
</g>
<!-- Node31 -->
<g id="node31" class="node">
<title>Node31</title>
<g id="a_node31"><a xlink:href="api_2spec_2event_8h.html" target="_top" xlink:title=" ">
<polygon fill="white" stroke="black" points="516,-728.5 516,-747.5 569,-747.5 569,-728.5 516,-728.5"/>
<text text-anchor="middle" x="542.5" y="-735.5" font-family="Helvetica,sans-Serif" font-size="10.00">event.h</text>
</a>
</g>
</g>
<!-- Node26&#45;&gt;Node31 -->
<g id="edge39" class="edge">
<title>Node26&#45;&gt;Node31</title>
<path fill="none" stroke="midnightblue" d="M458.51,-779.86C479.09,-769.85 506.84,-756.35 524.71,-747.65"/>
<polygon fill="midnightblue" stroke="midnightblue" points="456.8,-776.8 449.33,-784.32 459.86,-783.1 456.8,-776.8"/>
</g>
<!-- Node38 -->
<g id="node38" class="node">
<title>Node38</title>
<g id="a_node38"><a xlink:href="api_2spec_2packet__flags_8h.html" target="_top" xlink:title=" ">
<polygon fill="white" stroke="black" points="189.5,-728.5 189.5,-747.5 275.5,-747.5 275.5,-728.5 189.5,-728.5"/>
<text text-anchor="middle" x="232.5" y="-735.5" font-family="Helvetica,sans-Serif" font-size="10.00">packet_flags.h</text>
</a>
</g>
</g>
<!-- Node26&#45;&gt;Node38 -->
<g id="edge50" class="edge">
<title>Node26&#45;&gt;Node38</title>
<path fill="none" stroke="midnightblue" d="M392.05,-782.3C354.47,-772.1 298.63,-756.95 263.96,-747.54"/>
<polygon fill="midnightblue" stroke="midnightblue" points="391.57,-785.79 402.14,-785.03 393.4,-779.04 391.57,-785.79"/>
</g>
<!-- Node28 -->
<g id="node28" class="node">
<title>Node28</title>
<g id="a_node28"><a xlink:href="api_2comp_8h.html" target="_top" xlink:title=" ">
<polygon fill="white" stroke="black" points="294,-504.5 294,-523.5 347,-523.5 347,-504.5 294,-504.5"/>
<text text-anchor="middle" x="320.5" y="-511.5" font-family="Helvetica,sans-Serif" font-size="10.00">comp.h</text>
</a>
</g>
</g>
<!-- Node27&#45;&gt;Node28 -->
<g id="edge33" class="edge">
<title>Node27&#45;&gt;Node28</title>
<path fill="none" stroke="midnightblue" d="M320.5,-718.3C320.5,-672.64 320.5,-556.85 320.5,-523.88"/>
<polygon fill="midnightblue" stroke="midnightblue" points="317,-718.3 320.5,-728.3 324,-718.3 317,-718.3"/>
</g>
<!-- Node28&#45;&gt;Node10 -->
<g id="edge34" class="edge">
<title>Node28&#45;&gt;Node10</title>
<path fill="none" stroke="midnightblue" d="M325.17,-494.36C330.2,-472.58 337.5,-435.42 337.5,-403 337.5,-403 337.5,-403 337.5,-177 337.5,-146.2 338.57,-132.56 361.5,-112 402.75,-75.01 469.82,-67.41 509.4,-66.41"/>
<polygon fill="midnightblue" stroke="midnightblue" points="321.73,-493.69 322.79,-504.23 328.53,-495.33 321.73,-493.69"/>
</g>
<!-- Node30 -->
<g id="node30" class="node">
<title>Node30</title>
<g id="a_node30"><a xlink:href="api_2crypto_8h.html" target="_top" xlink:title=" ">
<polygon fill="white" stroke="black" points="403.5,-224.5 403.5,-243.5 459.5,-243.5 459.5,-224.5 403.5,-224.5"/>
<text text-anchor="middle" x="431.5" y="-231.5" font-family="Helvetica,sans-Serif" font-size="10.00">crypto.h</text>
</a>
</g>
</g>
<!-- Node29&#45;&gt;Node30 -->
<g id="edge36" class="edge">
<title>Node29&#45;&gt;Node30</title>
<path fill="none" stroke="midnightblue" d="M431.5,-662.25C431.5,-640.36 431.5,-603.05 431.5,-571 431.5,-571 431.5,-571 431.5,-345 431.5,-307.19 431.5,-262.06 431.5,-243.56"/>
<polygon fill="midnightblue" stroke="midnightblue" points="428,-662.44 431.5,-672.44 435,-662.44 428,-662.44"/>
</g>
<!-- Node30&#45;&gt;Node10 -->
<g id="edge38" class="edge">
<title>Node30&#45;&gt;Node10</title>
<path fill="none" stroke="midnightblue" d="M434.14,-214.38C438.54,-188.98 449.38,-143.07 473.5,-112 486.26,-95.56 506.79,-83.16 521.96,-75.59"/>
<polygon fill="midnightblue" stroke="midnightblue" points="430.65,-214.06 432.55,-224.49 437.56,-215.15 430.65,-214.06"/>
</g>
<!-- Node30&#45;&gt;Node19 -->
<g id="edge37" class="edge">
<title>Node30&#45;&gt;Node19</title>
<path fill="none" stroke="midnightblue" d="M458.26,-219.86C478.66,-209.85 506.17,-196.35 523.87,-187.65"/>
<polygon fill="midnightblue" stroke="midnightblue" points="456.61,-216.78 449.17,-224.32 459.69,-223.06 456.61,-216.78"/>
</g>
<!-- Node32 -->
<g id="node32" class="node">
<title>Node32</title>
<g id="a_node32"><a xlink:href="api_2event_8h.html" target="_top" xlink:title=" ">
<polygon fill="white" stroke="black" points="516,-672.5 516,-691.5 569,-691.5 569,-672.5 516,-672.5"/>
<text text-anchor="middle" x="542.5" y="-679.5" font-family="Helvetica,sans-Serif" font-size="10.00">event.h</text>
</a>
</g>
</g>
<!-- Node31&#45;&gt;Node32 -->
<g id="edge40" class="edge">
<title>Node31&#45;&gt;Node32</title>
<path fill="none" stroke="midnightblue" d="M542.5,-717.8C542.5,-708.91 542.5,-698.78 542.5,-691.75"/>
<polygon fill="midnightblue" stroke="midnightblue" points="539,-718.08 542.5,-728.08 546,-718.08 539,-718.08"/>
</g>
<!-- Node32&#45;&gt;Node10 -->
<g id="edge49" class="edge">
<title>Node32&#45;&gt;Node10</title>
<path fill="none" stroke="midnightblue" d="M537.83,-662.36C532.8,-640.58 525.5,-603.42 525.5,-571 525.5,-571 525.5,-571 525.5,-513 525.5,-388.3 487.5,-359.7 487.5,-235 487.5,-235 487.5,-235 487.5,-177 487.5,-146.77 493.74,-138.91 507.5,-112 514.54,-98.23 525.84,-84.31 533.46,-75.68"/>
<polygon fill="midnightblue" stroke="midnightblue" points="534.47,-663.33 540.21,-672.23 541.27,-661.69 534.47,-663.33"/>
</g>
<!-- Node32&#45;&gt;Node33 -->
<g id="edge41" class="edge">
<title>Node32&#45;&gt;Node33</title>
<path fill="none" stroke="midnightblue" d="M569.51,-667.86C590.09,-657.85 617.84,-644.35 635.71,-635.65"/>
<polygon fill="midnightblue" stroke="midnightblue" points="567.8,-664.8 560.33,-672.32 570.86,-671.1 567.8,-664.8"/>
</g>
<!-- Node32&#45;&gt;Node37 -->
<g id="edge47" class="edge">
<title>Node32&#45;&gt;Node37</title>
<path fill="none" stroke="midnightblue" d="M578.9,-670.76C615.19,-660.56 670.27,-645.06 704.24,-635.51"/>
<polygon fill="midnightblue" stroke="midnightblue" points="577.88,-667.41 569.2,-673.49 579.77,-674.15 577.88,-667.41"/>
</g>
<!-- Node34 -->
<g id="node34" class="node">
<title>Node34</title>
<g id="a_node34"><a xlink:href="api_2queue_8h.html" target="_top" xlink:title=" ">
<polygon fill="white" stroke="black" points="648.5,-560.5 648.5,-579.5 704.5,-579.5 704.5,-560.5 648.5,-560.5"/>
<text text-anchor="middle" x="676.5" y="-567.5" font-family="Helvetica,sans-Serif" font-size="10.00">queue.h</text>
</a>
</g>
</g>
<!-- Node33&#45;&gt;Node34 -->
<g id="edge42" class="edge">
<title>Node33&#45;&gt;Node34</title>
<path fill="none" stroke="midnightblue" d="M661.3,-606.69C665.18,-597.59 669.68,-587.01 672.77,-579.75"/>
<polygon fill="midnightblue" stroke="midnightblue" points="658,-605.51 657.3,-616.08 664.44,-608.25 658,-605.51"/>
</g>
<!-- Node34&#45;&gt;Node10 -->
<g id="edge46" class="edge">
<title>Node34&#45;&gt;Node10</title>
<path fill="none" stroke="midnightblue" d="M713.02,-556.91C752.7,-541.19 810.5,-509.61 810.5,-459 810.5,-459 810.5,-459 810.5,-177 810.5,-140.82 792.09,-131.32 761.5,-112 702.66,-74.84 618.92,-67.62 573.6,-66.66"/>
<polygon fill="midnightblue" stroke="midnightblue" points="711.73,-553.65 703.62,-560.47 714.21,-560.2 711.73,-553.65"/>
</g>
<!-- Node35 -->
<g id="node35" class="node">
<title>Node35</title>
<g id="a_node35"><a xlink:href="spec_2packet__io__stats_8h.html" target="_top" xlink:title=" ">
<polygon fill="white" stroke="black" points="626,-504.5 626,-523.5 727,-523.5 727,-504.5 626,-504.5"/>
<text text-anchor="middle" x="676.5" y="-511.5" font-family="Helvetica,sans-Serif" font-size="10.00">packet_io_stats.h</text>
</a>
</g>
</g>
<!-- Node34&#45;&gt;Node35 -->
<g id="edge43" class="edge">
<title>Node34&#45;&gt;Node35</title>
<path fill="none" stroke="midnightblue" d="M676.5,-549.8C676.5,-540.91 676.5,-530.78 676.5,-523.75"/>
<polygon fill="midnightblue" stroke="midnightblue" points="673,-550.08 676.5,-560.08 680,-550.08 673,-550.08"/>
</g>
<!-- Node36 -->
<g id="node36" class="node">
<title>Node36</title>
<g id="a_node36"><a xlink:href="packet__io__stats_8h.html" target="_top" xlink:title=" ">
<polygon fill="white" stroke="black" points="626,-448.5 626,-467.5 727,-467.5 727,-448.5 626,-448.5"/>
<text text-anchor="middle" x="676.5" y="-455.5" font-family="Helvetica,sans-Serif" font-size="10.00">packet_io_stats.h</text>
</a>
</g>
</g>
<!-- Node35&#45;&gt;Node36 -->
<g id="edge44" class="edge">
<title>Node35&#45;&gt;Node36</title>
<path fill="none" stroke="midnightblue" d="M676.5,-493.8C676.5,-484.91 676.5,-474.78 676.5,-467.75"/>
<polygon fill="midnightblue" stroke="midnightblue" points="673,-494.08 676.5,-504.08 680,-494.08 673,-494.08"/>
</g>
<!-- Node36&#45;&gt;Node15 -->
<g id="edge45" class="edge">
<title>Node36&#45;&gt;Node15</title>
<path fill="none" stroke="midnightblue" d="M655.47,-442.62C641.03,-432.76 622.36,-419.99 610.16,-411.65"/>
<polygon fill="midnightblue" stroke="midnightblue" points="653.58,-445.57 663.81,-448.32 657.53,-439.79 653.58,-445.57"/>
</g>
<!-- Node37&#45;&gt;Node9 -->
<g id="edge48" class="edge">
<title>Node37&#45;&gt;Node9</title>
<path fill="none" stroke="midnightblue" d="M753.81,-610.1C766.41,-600.38 782.43,-588.03 793.05,-579.83"/>
<polygon fill="midnightblue" stroke="midnightblue" points="751.53,-607.44 745.75,-616.32 755.8,-612.99 751.53,-607.44"/>
</g>
<!-- Node39 -->
<g id="node39" class="node">
<title>Node39</title>
<g id="a_node39"><a xlink:href="api_2packet__flags_8h.html" target="_top" xlink:title=" ">
<polygon fill="white" stroke="black" points="223.5,-448.5 223.5,-467.5 309.5,-467.5 309.5,-448.5 223.5,-448.5"/>
<text text-anchor="middle" x="266.5" y="-455.5" font-family="Helvetica,sans-Serif" font-size="10.00">packet_flags.h</text>
</a>
</g>
</g>
<!-- Node38&#45;&gt;Node39 -->
<g id="edge51" class="edge">
<title>Node38&#45;&gt;Node39</title>
<path fill="none" stroke="midnightblue" d="M237.17,-718.36C242.2,-696.58 249.5,-659.42 249.5,-627 249.5,-627 249.5,-627 249.5,-569 249.5,-530.93 259.57,-486.31 264.21,-467.77"/>
<polygon fill="midnightblue" stroke="midnightblue" points="233.73,-717.69 234.79,-728.23 240.53,-719.33 233.73,-717.69"/>
</g>
<!-- Node39&#45;&gt;Node10 -->
<g id="edge52" class="edge">
<title>Node39&#45;&gt;Node10</title>
<path fill="none" stroke="midnightblue" d="M271.17,-438.36C276.2,-416.58 283.5,-379.42 283.5,-347 283.5,-347 283.5,-347 283.5,-177 283.5,-79.86 440.18,-67.32 509.35,-66.51"/>
<polygon fill="midnightblue" stroke="midnightblue" points="267.73,-437.69 268.79,-448.23 274.53,-439.33 267.73,-437.69"/>
</g>
</g>
</svg>
