<?xml version="1.0" encoding="UTF-8" standalone="no"?>
<!DOCTYPE svg PUBLIC "-//W3C//DTD SVG 1.1//EN"
 "http://www.w3.org/Graphics/SVG/1.1/DTD/svg11.dtd">
<!-- Generated by graphviz version 2.43.0 (0)
 -->
<!-- Title: schedule.h Pages: 1 -->
<svg width="599pt" height="252pt"
 viewBox="0.00 0.00 599.00 252.00" xmlns="http://www.w3.org/2000/svg" xmlns:xlink="http://www.w3.org/1999/xlink">
<g id="graph0" class="graph" transform="scale(1 1) rotate(0) translate(4 248)">
<title>schedule.h</title>
<polygon fill="white" stroke="transparent" points="-4,4 -4,-248 595,-248 595,4 -4,4"/>
<!-- Node1 -->
<g id="node1" class="node">
<title>Node1</title>
<g id="a_node1"><a xlink:title=" ">
<polygon fill="#bfbfbf" stroke="black" points="261,-224.5 261,-243.5 330,-243.5 330,-224.5 261,-224.5"/>
<text text-anchor="middle" x="295.5" y="-231.5" font-family="Helvetica,sans-Serif" font-size="10.00">schedule.h</text>
</a>
</g>
</g>
<!-- Node2 -->
<g id="node2" class="node">
<title>Node2</title>
<g id="a_node2"><a xlink:href="arch_2arm32-linux_2odp_2api_2abi_2schedule_8h_source.html" target="_top" xlink:title=" ">
<polygon fill="white" stroke="black" points="0,-168.5 0,-187.5 69,-187.5 69,-168.5 0,-168.5"/>
<text text-anchor="middle" x="34.5" y="-175.5" font-family="Helvetica,sans-Serif" font-size="10.00">schedule.h</text>
</a>
</g>
</g>
<!-- Node1&#45;&gt;Node2 -->
<g id="edge1" class="edge">
<title>Node1&#45;&gt;Node2</title>
<path fill="none" stroke="midnightblue" d="M251.01,-223.8C199.63,-213.17 116.18,-195.9 69.3,-186.2"/>
<polygon fill="midnightblue" stroke="midnightblue" points="250.34,-227.23 260.84,-225.83 251.76,-220.38 250.34,-227.23"/>
</g>
<!-- Node3 -->
<g id="node3" class="node">
<title>Node3</title>
<g id="a_node3"><a xlink:href="arch_2arm64-linux_2odp_2api_2abi_2schedule_8h_source.html" target="_top" xlink:title=" ">
<polygon fill="white" stroke="black" points="87,-168.5 87,-187.5 156,-187.5 156,-168.5 87,-168.5"/>
<text text-anchor="middle" x="121.5" y="-175.5" font-family="Helvetica,sans-Serif" font-size="10.00">schedule.h</text>
</a>
</g>
</g>
<!-- Node1&#45;&gt;Node3 -->
<g id="edge2" class="edge">
<title>Node1&#45;&gt;Node3</title>
<path fill="none" stroke="midnightblue" d="M258.24,-221.44C225.43,-211.26 178.42,-196.66 148.94,-187.52"/>
<polygon fill="midnightblue" stroke="midnightblue" points="257.34,-224.82 267.93,-224.44 259.42,-218.14 257.34,-224.82"/>
</g>
<!-- Node4 -->
<g id="node4" class="node">
<title>Node4</title>
<g id="a_node4"><a xlink:href="arch_2default-linux_2odp_2api_2abi_2schedule_8h_source.html" target="_top" xlink:title=" ">
<polygon fill="white" stroke="black" points="174,-168.5 174,-187.5 243,-187.5 243,-168.5 174,-168.5"/>
<text text-anchor="middle" x="208.5" y="-175.5" font-family="Helvetica,sans-Serif" font-size="10.00">schedule.h</text>
</a>
</g>
</g>
<!-- Node1&#45;&gt;Node4 -->
<g id="edge3" class="edge">
<title>Node1&#45;&gt;Node4</title>
<path fill="none" stroke="midnightblue" d="M272.78,-218.9C256.83,-209 236,-196.07 222.44,-187.65"/>
<polygon fill="midnightblue" stroke="midnightblue" points="271.18,-222.02 281.52,-224.32 274.87,-216.08 271.18,-222.02"/>
</g>
<!-- Node5 -->
<g id="node5" class="node">
<title>Node5</title>
<g id="a_node5"><a xlink:href="arch_2mips64-linux_2odp_2api_2abi_2schedule_8h_source.html" target="_top" xlink:title=" ">
<polygon fill="white" stroke="black" points="261,-168.5 261,-187.5 330,-187.5 330,-168.5 261,-168.5"/>
<text text-anchor="middle" x="295.5" y="-175.5" font-family="Helvetica,sans-Serif" font-size="10.00">schedule.h</text>
</a>
</g>
</g>
<!-- Node1&#45;&gt;Node5 -->
<g id="edge4" class="edge">
<title>Node1&#45;&gt;Node5</title>
<path fill="none" stroke="midnightblue" d="M295.5,-213.8C295.5,-204.91 295.5,-194.78 295.5,-187.75"/>
<polygon fill="midnightblue" stroke="midnightblue" points="292,-214.08 295.5,-224.08 299,-214.08 292,-214.08"/>
</g>
<!-- Node6 -->
<g id="node6" class="node">
<title>Node6</title>
<g id="a_node6"><a xlink:href="arch_2power64-linux_2odp_2api_2abi_2schedule_8h_source.html" target="_top" xlink:title=" ">
<polygon fill="white" stroke="black" points="348,-168.5 348,-187.5 417,-187.5 417,-168.5 348,-168.5"/>
<text text-anchor="middle" x="382.5" y="-175.5" font-family="Helvetica,sans-Serif" font-size="10.00">schedule.h</text>
</a>
</g>
</g>
<!-- Node1&#45;&gt;Node6 -->
<g id="edge5" class="edge">
<title>Node1&#45;&gt;Node6</title>
<path fill="none" stroke="midnightblue" d="M318.22,-218.9C334.17,-209 355,-196.07 368.56,-187.65"/>
<polygon fill="midnightblue" stroke="midnightblue" points="316.13,-216.08 309.48,-224.32 319.82,-222.02 316.13,-216.08"/>
</g>
<!-- Node7 -->
<g id="node7" class="node">
<title>Node7</title>
<g id="a_node7"><a xlink:href="arch_2x86__32-linux_2odp_2api_2abi_2schedule_8h_source.html" target="_top" xlink:title=" ">
<polygon fill="white" stroke="black" points="435,-168.5 435,-187.5 504,-187.5 504,-168.5 435,-168.5"/>
<text text-anchor="middle" x="469.5" y="-175.5" font-family="Helvetica,sans-Serif" font-size="10.00">schedule.h</text>
</a>
</g>
</g>
<!-- Node1&#45;&gt;Node7 -->
<g id="edge6" class="edge">
<title>Node1&#45;&gt;Node7</title>
<path fill="none" stroke="midnightblue" d="M332.76,-221.44C365.57,-211.26 412.58,-196.66 442.06,-187.52"/>
<polygon fill="midnightblue" stroke="midnightblue" points="331.58,-218.14 323.07,-224.44 333.66,-224.82 331.58,-218.14"/>
</g>
<!-- Node8 -->
<g id="node8" class="node">
<title>Node8</title>
<g id="a_node8"><a xlink:href="arch_2x86__64-linux_2odp_2api_2abi_2schedule_8h_source.html" target="_top" xlink:title=" ">
<polygon fill="white" stroke="black" points="522,-168.5 522,-187.5 591,-187.5 591,-168.5 522,-168.5"/>
<text text-anchor="middle" x="556.5" y="-175.5" font-family="Helvetica,sans-Serif" font-size="10.00">schedule.h</text>
</a>
</g>
</g>
<!-- Node1&#45;&gt;Node8 -->
<g id="edge7" class="edge">
<title>Node1&#45;&gt;Node8</title>
<path fill="none" stroke="midnightblue" d="M340.06,-223.84C384.13,-214.77 453.48,-200.48 513.5,-188 516.19,-187.44 518.97,-186.86 521.77,-186.28"/>
<polygon fill="midnightblue" stroke="midnightblue" points="339.33,-220.42 330.24,-225.86 340.74,-227.27 339.33,-220.42"/>
</g>
<!-- Node9 -->
<g id="node9" class="node">
<title>Node9</title>
<g id="a_node9"><a xlink:href="api_2schedule_8h.html" target="_top" xlink:title=" ">
<polygon fill="white" stroke="black" points="522,-112.5 522,-131.5 591,-131.5 591,-112.5 522,-112.5"/>
<text text-anchor="middle" x="556.5" y="-119.5" font-family="Helvetica,sans-Serif" font-size="10.00">schedule.h</text>
</a>
</g>
</g>
<!-- Node8&#45;&gt;Node9 -->
<g id="edge8" class="edge">
<title>Node8&#45;&gt;Node9</title>
<path fill="none" stroke="midnightblue" d="M556.5,-157.8C556.5,-148.91 556.5,-138.78 556.5,-131.75"/>
<polygon fill="midnightblue" stroke="midnightblue" points="553,-158.08 556.5,-168.08 560,-158.08 553,-158.08"/>
</g>
<!-- Node10 -->
<g id="node10" class="node">
<title>Node10</title>
<g id="a_node10"><a xlink:href="odp__api_8h.html" target="_top" xlink:title=" ">
<polygon fill="white" stroke="black" points="524.5,-56.5 524.5,-75.5 588.5,-75.5 588.5,-56.5 524.5,-56.5"/>
<text text-anchor="middle" x="556.5" y="-63.5" font-family="Helvetica,sans-Serif" font-size="10.00">odp_api.h</text>
</a>
</g>
</g>
<!-- Node9&#45;&gt;Node10 -->
<g id="edge9" class="edge">
<title>Node9&#45;&gt;Node10</title>
<path fill="none" stroke="midnightblue" d="M556.5,-101.8C556.5,-92.91 556.5,-82.78 556.5,-75.75"/>
<polygon fill="midnightblue" stroke="midnightblue" points="553,-102.08 556.5,-112.08 560,-102.08 553,-102.08"/>
</g>
<!-- Node11 -->
<g id="node11" class="node">
<title>Node11</title>
<g id="a_node11"><a xlink:href="odp_8h.html" target="_top" xlink:title=" ">
<polygon fill="white" stroke="black" points="534.5,-0.5 534.5,-19.5 578.5,-19.5 578.5,-0.5 534.5,-0.5"/>
<text text-anchor="middle" x="556.5" y="-7.5" font-family="Helvetica,sans-Serif" font-size="10.00">odp.h</text>
</a>
</g>
</g>
<!-- Node10&#45;&gt;Node11 -->
<g id="edge10" class="edge">
<title>Node10&#45;&gt;Node11</title>
<path fill="none" stroke="midnightblue" d="M556.5,-45.8C556.5,-36.91 556.5,-26.78 556.5,-19.75"/>
<polygon fill="midnightblue" stroke="midnightblue" points="553,-46.08 556.5,-56.08 560,-46.08 553,-46.08"/>
</g>
</g>
</svg>
