<?xml version="1.0" encoding="UTF-8" standalone="no"?>
<!DOCTYPE svg PUBLIC "-//W3C//DTD SVG 1.1//EN"
 "http://www.w3.org/Graphics/SVG/1.1/DTD/svg11.dtd">
<!-- Generated by graphviz version 2.43.0 (0)
 -->
<!-- Title: atomic.h Pages: 1 -->
<svg width="1761pt" height="476pt"
 viewBox="0.00 0.00 1761.00 476.00" xmlns="http://www.w3.org/2000/svg" xmlns:xlink="http://www.w3.org/1999/xlink">
<g id="graph0" class="graph" transform="scale(1 1) rotate(0) translate(4 472)">
<title>atomic.h</title>
<polygon fill="white" stroke="transparent" points="-4,4 -4,-472 1757,-472 1757,4 -4,4"/>
<!-- Node1 -->
<g id="node1" class="node">
<title>Node1</title>
<g id="a_node1"><a xlink:title=" ">
<polygon fill="#bfbfbf" stroke="black" points="544,-448.5 544,-467.5 603,-467.5 603,-448.5 544,-448.5"/>
<text text-anchor="middle" x="573.5" y="-455.5" font-family="Helvetica,sans-Serif" font-size="10.00">atomic.h</text>
</a>
</g>
</g>
<!-- Node2 -->
<g id="node2" class="node">
<title>Node2</title>
<g id="a_node2"><a xlink:href="api_2abi-default_2barrier_8h.html" target="_top" xlink:title=" ">
<polygon fill="white" stroke="black" points="263,-392.5 263,-411.5 320,-411.5 320,-392.5 263,-392.5"/>
<text text-anchor="middle" x="291.5" y="-399.5" font-family="Helvetica,sans-Serif" font-size="10.00">barrier.h</text>
</a>
</g>
</g>
<!-- Node1&#45;&gt;Node2 -->
<g id="edge1" class="edge">
<title>Node1&#45;&gt;Node2</title>
<path fill="none" stroke="midnightblue" d="M533.68,-449.38C476.12,-438.35 371,-418.22 320.33,-408.52"/>
<polygon fill="midnightblue" stroke="midnightblue" points="533.37,-452.88 543.85,-451.32 534.69,-446 533.37,-452.88"/>
</g>
<!-- Node10 -->
<g id="node10" class="node">
<title>Node10</title>
<g id="a_node10"><a xlink:href="api_2barrier_8h.html" target="_top" xlink:title=" ">
<polygon fill="white" stroke="black" points="488,-280.5 488,-299.5 545,-299.5 545,-280.5 488,-280.5"/>
<text text-anchor="middle" x="516.5" y="-287.5" font-family="Helvetica,sans-Serif" font-size="10.00">barrier.h</text>
</a>
</g>
</g>
<!-- Node1&#45;&gt;Node10 -->
<g id="edge42" class="edge">
<title>Node1&#45;&gt;Node10</title>
<path fill="none" stroke="midnightblue" d="M567.11,-438.39C554.82,-402.59 528.29,-325.34 519.44,-299.57"/>
<polygon fill="midnightblue" stroke="midnightblue" points="563.88,-439.75 570.44,-448.08 570.5,-437.48 563.88,-439.75"/>
</g>
<!-- Node11 -->
<g id="node11" class="node">
<title>Node11</title>
<g id="a_node11"><a xlink:href="odp__api_8h.html" target="_top" xlink:title=" ">
<polygon fill="white" stroke="black" points="586.5,-56.5 586.5,-75.5 650.5,-75.5 650.5,-56.5 586.5,-56.5"/>
<text text-anchor="middle" x="618.5" y="-63.5" font-family="Helvetica,sans-Serif" font-size="10.00">odp_api.h</text>
</a>
</g>
</g>
<!-- Node1&#45;&gt;Node11 -->
<g id="edge43" class="edge">
<title>Node1&#45;&gt;Node11</title>
<path fill="none" stroke="midnightblue" d="M573.5,-438.25C573.5,-416.36 573.5,-379.05 573.5,-347 573.5,-347 573.5,-347 573.5,-177 573.5,-136.56 599.88,-93.56 612.24,-75.63"/>
<polygon fill="midnightblue" stroke="midnightblue" points="570,-438.44 573.5,-448.44 577,-438.44 570,-438.44"/>
</g>
<!-- Node13 -->
<g id="node13" class="node">
<title>Node13</title>
<g id="a_node13"><a xlink:href="api_2abi-default_2rwlock_8h.html" target="_top" xlink:title=" ">
<polygon fill="white" stroke="black" points="791.5,-392.5 791.5,-411.5 849.5,-411.5 849.5,-392.5 791.5,-392.5"/>
<text text-anchor="middle" x="820.5" y="-399.5" font-family="Helvetica,sans-Serif" font-size="10.00">rwlock.h</text>
</a>
</g>
</g>
<!-- Node1&#45;&gt;Node13 -->
<g id="edge12" class="edge">
<title>Node1&#45;&gt;Node13</title>
<path fill="none" stroke="midnightblue" d="M613.06,-448.35C662.83,-437.47 747.11,-419.05 791.37,-409.37"/>
<polygon fill="midnightblue" stroke="midnightblue" points="612.32,-444.93 603.29,-450.49 613.81,-451.77 612.32,-444.93"/>
</g>
<!-- Node31 -->
<g id="node31" class="node">
<title>Node31</title>
<g id="a_node31"><a xlink:href="api_2abi-default_2ticketlock_8h.html" target="_top" xlink:title=" ">
<polygon fill="white" stroke="black" points="1361,-392.5 1361,-411.5 1434,-411.5 1434,-392.5 1361,-392.5"/>
<text text-anchor="middle" x="1397.5" y="-399.5" font-family="Helvetica,sans-Serif" font-size="10.00">ticketlock.h</text>
</a>
</g>
</g>
<!-- Node1&#45;&gt;Node31 -->
<g id="edge32" class="edge">
<title>Node1&#45;&gt;Node31</title>
<path fill="none" stroke="midnightblue" d="M613.65,-454.37C754.61,-445.13 1225.7,-414.26 1360.92,-405.4"/>
<polygon fill="midnightblue" stroke="midnightblue" points="613.06,-450.9 603.31,-455.05 613.52,-457.88 613.06,-450.9"/>
</g>
<!-- Node3 -->
<g id="node3" class="node">
<title>Node3</title>
<g id="a_node3"><a xlink:href="arch_2arm32-linux_2odp_2api_2abi_2barrier_8h_source.html" target="_top" xlink:title=" ">
<polygon fill="white" stroke="black" points="0,-336.5 0,-355.5 57,-355.5 57,-336.5 0,-336.5"/>
<text text-anchor="middle" x="28.5" y="-343.5" font-family="Helvetica,sans-Serif" font-size="10.00">barrier.h</text>
</a>
</g>
</g>
<!-- Node2&#45;&gt;Node3 -->
<g id="edge2" class="edge">
<title>Node2&#45;&gt;Node3</title>
<path fill="none" stroke="midnightblue" d="M252.94,-393.83C207.87,-385.34 131.09,-370.5 65.5,-356 62.79,-355.4 59.97,-354.76 57.16,-354.1"/>
<polygon fill="midnightblue" stroke="midnightblue" points="252.4,-397.29 262.88,-395.7 253.7,-390.41 252.4,-397.29"/>
</g>
<!-- Node4 -->
<g id="node4" class="node">
<title>Node4</title>
<g id="a_node4"><a xlink:href="arch_2arm64-linux_2odp_2api_2abi_2barrier_8h_source.html" target="_top" xlink:title=" ">
<polygon fill="white" stroke="black" points="75,-336.5 75,-355.5 132,-355.5 132,-336.5 75,-336.5"/>
<text text-anchor="middle" x="103.5" y="-343.5" font-family="Helvetica,sans-Serif" font-size="10.00">barrier.h</text>
</a>
</g>
</g>
<!-- Node2&#45;&gt;Node4 -->
<g id="edge3" class="edge">
<title>Node2&#45;&gt;Node4</title>
<path fill="none" stroke="midnightblue" d="M253.3,-390.03C217.37,-379.71 164.39,-364.49 132.01,-355.19"/>
<polygon fill="midnightblue" stroke="midnightblue" points="252.37,-393.4 262.95,-392.8 254.3,-386.67 252.37,-393.4"/>
</g>
<!-- Node5 -->
<g id="node5" class="node">
<title>Node5</title>
<g id="a_node5"><a xlink:href="arch_2default-linux_2odp_2api_2abi_2barrier_8h_source.html" target="_top" xlink:title=" ">
<polygon fill="white" stroke="black" points="150,-336.5 150,-355.5 207,-355.5 207,-336.5 150,-336.5"/>
<text text-anchor="middle" x="178.5" y="-343.5" font-family="Helvetica,sans-Serif" font-size="10.00">barrier.h</text>
</a>
</g>
</g>
<!-- Node2&#45;&gt;Node5 -->
<g id="edge4" class="edge">
<title>Node2&#45;&gt;Node5</title>
<path fill="none" stroke="midnightblue" d="M264.5,-388.1C243.39,-378.01 214.64,-364.27 196.32,-355.52"/>
<polygon fill="midnightblue" stroke="midnightblue" points="263.06,-391.29 273.59,-392.44 266.08,-384.97 263.06,-391.29"/>
</g>
<!-- Node6 -->
<g id="node6" class="node">
<title>Node6</title>
<g id="a_node6"><a xlink:href="arch_2mips64-linux_2odp_2api_2abi_2barrier_8h_source.html" target="_top" xlink:title=" ">
<polygon fill="white" stroke="black" points="225,-336.5 225,-355.5 282,-355.5 282,-336.5 225,-336.5"/>
<text text-anchor="middle" x="253.5" y="-343.5" font-family="Helvetica,sans-Serif" font-size="10.00">barrier.h</text>
</a>
</g>
</g>
<!-- Node2&#45;&gt;Node6 -->
<g id="edge5" class="edge">
<title>Node2&#45;&gt;Node6</title>
<path fill="none" stroke="midnightblue" d="M279.44,-383.86C272.86,-374.5 264.99,-363.33 259.66,-355.75"/>
<polygon fill="midnightblue" stroke="midnightblue" points="276.61,-385.92 285.23,-392.08 282.33,-381.89 276.61,-385.92"/>
</g>
<!-- Node7 -->
<g id="node7" class="node">
<title>Node7</title>
<g id="a_node7"><a xlink:href="arch_2power64-linux_2odp_2api_2abi_2barrier_8h_source.html" target="_top" xlink:title=" ">
<polygon fill="white" stroke="black" points="300,-336.5 300,-355.5 357,-355.5 357,-336.5 300,-336.5"/>
<text text-anchor="middle" x="328.5" y="-343.5" font-family="Helvetica,sans-Serif" font-size="10.00">barrier.h</text>
</a>
</g>
</g>
<!-- Node2&#45;&gt;Node7 -->
<g id="edge6" class="edge">
<title>Node2&#45;&gt;Node7</title>
<path fill="none" stroke="midnightblue" d="M303.45,-383.57C309.81,-374.27 317.37,-363.25 322.5,-355.75"/>
<polygon fill="midnightblue" stroke="midnightblue" points="300.37,-381.86 297.61,-392.08 306.15,-385.81 300.37,-381.86"/>
</g>
<!-- Node8 -->
<g id="node8" class="node">
<title>Node8</title>
<g id="a_node8"><a xlink:href="arch_2x86__32-linux_2odp_2api_2abi_2barrier_8h_source.html" target="_top" xlink:title=" ">
<polygon fill="white" stroke="black" points="375,-336.5 375,-355.5 432,-355.5 432,-336.5 375,-336.5"/>
<text text-anchor="middle" x="403.5" y="-343.5" font-family="Helvetica,sans-Serif" font-size="10.00">barrier.h</text>
</a>
</g>
</g>
<!-- Node2&#45;&gt;Node8 -->
<g id="edge7" class="edge">
<title>Node2&#45;&gt;Node8</title>
<path fill="none" stroke="midnightblue" d="M318.75,-387.86C339.52,-377.85 367.52,-364.35 385.55,-355.65"/>
<polygon fill="midnightblue" stroke="midnightblue" points="316.98,-384.83 309.49,-392.32 320.02,-391.13 316.98,-384.83"/>
</g>
<!-- Node9 -->
<g id="node9" class="node">
<title>Node9</title>
<g id="a_node9"><a xlink:href="arch_2x86__64-linux_2odp_2api_2abi_2barrier_8h_source.html" target="_top" xlink:title=" ">
<polygon fill="white" stroke="black" points="450,-336.5 450,-355.5 507,-355.5 507,-336.5 450,-336.5"/>
<text text-anchor="middle" x="478.5" y="-343.5" font-family="Helvetica,sans-Serif" font-size="10.00">barrier.h</text>
</a>
</g>
</g>
<!-- Node2&#45;&gt;Node9 -->
<g id="edge8" class="edge">
<title>Node2&#45;&gt;Node9</title>
<path fill="none" stroke="midnightblue" d="M330.36,-389.78C366.01,-379.48 418,-364.47 449.97,-355.24"/>
<polygon fill="midnightblue" stroke="midnightblue" points="328.95,-386.54 320.31,-392.68 330.89,-393.27 328.95,-386.54"/>
</g>
<!-- Node9&#45;&gt;Node10 -->
<g id="edge9" class="edge">
<title>Node9&#45;&gt;Node10</title>
<path fill="none" stroke="midnightblue" d="M490.56,-327.86C497.14,-318.5 505.01,-307.33 510.34,-299.75"/>
<polygon fill="midnightblue" stroke="midnightblue" points="487.67,-325.89 484.77,-336.08 493.39,-329.92 487.67,-325.89"/>
</g>
<!-- Node10&#45;&gt;Node11 -->
<g id="edge10" class="edge">
<title>Node10&#45;&gt;Node11</title>
<path fill="none" stroke="midnightblue" d="M517.03,-270.09C518.82,-235.85 526.54,-162.44 559.5,-112 570,-95.93 588.26,-83.32 601.7,-75.59"/>
<polygon fill="midnightblue" stroke="midnightblue" points="513.52,-270.34 516.61,-280.47 520.51,-270.62 513.52,-270.34"/>
</g>
<!-- Node12 -->
<g id="node12" class="node">
<title>Node12</title>
<g id="a_node12"><a xlink:href="odp_8h.html" target="_top" xlink:title=" ">
<polygon fill="white" stroke="black" points="596.5,-0.5 596.5,-19.5 640.5,-19.5 640.5,-0.5 596.5,-0.5"/>
<text text-anchor="middle" x="618.5" y="-7.5" font-family="Helvetica,sans-Serif" font-size="10.00">odp.h</text>
</a>
</g>
</g>
<!-- Node11&#45;&gt;Node12 -->
<g id="edge11" class="edge">
<title>Node11&#45;&gt;Node12</title>
<path fill="none" stroke="midnightblue" d="M618.5,-45.8C618.5,-36.91 618.5,-26.78 618.5,-19.75"/>
<polygon fill="midnightblue" stroke="midnightblue" points="615,-46.08 618.5,-56.08 622,-46.08 615,-46.08"/>
</g>
<!-- Node14 -->
<g id="node14" class="node">
<title>Node14</title>
<g id="a_node14"><a xlink:href="arch_2arm32-linux_2odp_2api_2abi_2rwlock_8h_source.html" target="_top" xlink:title=" ">
<polygon fill="white" stroke="black" points="601.5,-336.5 601.5,-355.5 659.5,-355.5 659.5,-336.5 601.5,-336.5"/>
<text text-anchor="middle" x="630.5" y="-343.5" font-family="Helvetica,sans-Serif" font-size="10.00">rwlock.h</text>
</a>
</g>
</g>
<!-- Node13&#45;&gt;Node14 -->
<g id="edge13" class="edge">
<title>Node13&#45;&gt;Node14</title>
<path fill="none" stroke="midnightblue" d="M781.52,-389.92C745.39,-379.65 692.45,-364.61 659.8,-355.33"/>
<polygon fill="midnightblue" stroke="midnightblue" points="780.65,-393.31 791.23,-392.68 782.57,-386.58 780.65,-393.31"/>
</g>
<!-- Node15 -->
<g id="node15" class="node">
<title>Node15</title>
<g id="a_node15"><a xlink:href="arch_2arm64-linux_2odp_2api_2abi_2rwlock_8h_source.html" target="_top" xlink:title=" ">
<polygon fill="white" stroke="black" points="677.5,-336.5 677.5,-355.5 735.5,-355.5 735.5,-336.5 677.5,-336.5"/>
<text text-anchor="middle" x="706.5" y="-343.5" font-family="Helvetica,sans-Serif" font-size="10.00">rwlock.h</text>
</a>
</g>
</g>
<!-- Node13&#45;&gt;Node15 -->
<g id="edge14" class="edge">
<title>Node13&#45;&gt;Node15</title>
<path fill="none" stroke="midnightblue" d="M793.26,-388.1C771.96,-378.01 742.96,-364.27 724.48,-355.52"/>
<polygon fill="midnightblue" stroke="midnightblue" points="791.9,-391.33 802.44,-392.44 794.9,-385 791.9,-391.33"/>
</g>
<!-- Node16 -->
<g id="node16" class="node">
<title>Node16</title>
<g id="a_node16"><a xlink:href="arch_2default-linux_2odp_2api_2abi_2rwlock_8h_source.html" target="_top" xlink:title=" ">
<polygon fill="white" stroke="black" points="753.5,-336.5 753.5,-355.5 811.5,-355.5 811.5,-336.5 753.5,-336.5"/>
<text text-anchor="middle" x="782.5" y="-343.5" font-family="Helvetica,sans-Serif" font-size="10.00">rwlock.h</text>
</a>
</g>
</g>
<!-- Node13&#45;&gt;Node16 -->
<g id="edge15" class="edge">
<title>Node13&#45;&gt;Node16</title>
<path fill="none" stroke="midnightblue" d="M808.44,-383.86C801.86,-374.5 793.99,-363.33 788.66,-355.75"/>
<polygon fill="midnightblue" stroke="midnightblue" points="805.61,-385.92 814.23,-392.08 811.33,-381.89 805.61,-385.92"/>
</g>
<!-- Node17 -->
<g id="node17" class="node">
<title>Node17</title>
<g id="a_node17"><a xlink:href="arch_2mips64-linux_2odp_2api_2abi_2rwlock_8h_source.html" target="_top" xlink:title=" ">
<polygon fill="white" stroke="black" points="829.5,-336.5 829.5,-355.5 887.5,-355.5 887.5,-336.5 829.5,-336.5"/>
<text text-anchor="middle" x="858.5" y="-343.5" font-family="Helvetica,sans-Serif" font-size="10.00">rwlock.h</text>
</a>
</g>
</g>
<!-- Node13&#45;&gt;Node17 -->
<g id="edge16" class="edge">
<title>Node13&#45;&gt;Node17</title>
<path fill="none" stroke="midnightblue" d="M832.56,-383.86C839.14,-374.5 847.01,-363.33 852.34,-355.75"/>
<polygon fill="midnightblue" stroke="midnightblue" points="829.67,-381.89 826.77,-392.08 835.39,-385.92 829.67,-381.89"/>
</g>
<!-- Node18 -->
<g id="node18" class="node">
<title>Node18</title>
<g id="a_node18"><a xlink:href="arch_2power64-linux_2odp_2api_2abi_2rwlock_8h_source.html" target="_top" xlink:title=" ">
<polygon fill="white" stroke="black" points="905.5,-336.5 905.5,-355.5 963.5,-355.5 963.5,-336.5 905.5,-336.5"/>
<text text-anchor="middle" x="934.5" y="-343.5" font-family="Helvetica,sans-Serif" font-size="10.00">rwlock.h</text>
</a>
</g>
</g>
<!-- Node13&#45;&gt;Node18 -->
<g id="edge17" class="edge">
<title>Node13&#45;&gt;Node18</title>
<path fill="none" stroke="midnightblue" d="M847.74,-388.1C869.04,-378.01 898.04,-364.27 916.52,-355.52"/>
<polygon fill="midnightblue" stroke="midnightblue" points="846.1,-385 838.56,-392.44 849.1,-391.33 846.1,-385"/>
</g>
<!-- Node19 -->
<g id="node19" class="node">
<title>Node19</title>
<g id="a_node19"><a xlink:href="arch_2x86__32-linux_2odp_2api_2abi_2rwlock_8h_source.html" target="_top" xlink:title=" ">
<polygon fill="white" stroke="black" points="981.5,-336.5 981.5,-355.5 1039.5,-355.5 1039.5,-336.5 981.5,-336.5"/>
<text text-anchor="middle" x="1010.5" y="-343.5" font-family="Helvetica,sans-Serif" font-size="10.00">rwlock.h</text>
</a>
</g>
</g>
<!-- Node13&#45;&gt;Node19 -->
<g id="edge18" class="edge">
<title>Node13&#45;&gt;Node19</title>
<path fill="none" stroke="midnightblue" d="M859.48,-389.92C895.61,-379.65 948.55,-364.61 981.2,-355.33"/>
<polygon fill="midnightblue" stroke="midnightblue" points="858.43,-386.58 849.77,-392.68 860.35,-393.31 858.43,-386.58"/>
</g>
<!-- Node20 -->
<g id="node20" class="node">
<title>Node20</title>
<g id="a_node20"><a xlink:href="arch_2x86__64-linux_2odp_2api_2abi_2rwlock_8h_source.html" target="_top" xlink:title=" ">
<polygon fill="white" stroke="black" points="1057.5,-336.5 1057.5,-355.5 1115.5,-355.5 1115.5,-336.5 1057.5,-336.5"/>
<text text-anchor="middle" x="1086.5" y="-343.5" font-family="Helvetica,sans-Serif" font-size="10.00">rwlock.h</text>
</a>
</g>
</g>
<!-- Node13&#45;&gt;Node20 -->
<g id="edge19" class="edge">
<title>Node13&#45;&gt;Node20</title>
<path fill="none" stroke="midnightblue" d="M859.76,-393.72C905.27,-385.17 982.47,-370.33 1048.5,-356 1051.42,-355.37 1054.45,-354.69 1057.48,-353.99"/>
<polygon fill="midnightblue" stroke="midnightblue" points="858.91,-390.32 849.73,-395.6 860.2,-397.2 858.91,-390.32"/>
</g>
<!-- Node21 -->
<g id="node21" class="node">
<title>Node21</title>
<g id="a_node21"><a xlink:href="api_2rwlock_8h.html" target="_top" xlink:title=" ">
<polygon fill="white" stroke="black" points="1049.5,-280.5 1049.5,-299.5 1107.5,-299.5 1107.5,-280.5 1049.5,-280.5"/>
<text text-anchor="middle" x="1078.5" y="-287.5" font-family="Helvetica,sans-Serif" font-size="10.00">rwlock.h</text>
</a>
</g>
</g>
<!-- Node20&#45;&gt;Node21 -->
<g id="edge20" class="edge">
<title>Node20&#45;&gt;Node21</title>
<path fill="none" stroke="midnightblue" d="M1083.7,-326.1C1082.37,-317.14 1080.85,-306.86 1079.8,-299.75"/>
<polygon fill="midnightblue" stroke="midnightblue" points="1080.25,-326.7 1085.18,-336.08 1087.18,-325.68 1080.25,-326.7"/>
</g>
<!-- Node21&#45;&gt;Node11 -->
<g id="edge31" class="edge">
<title>Node21&#45;&gt;Node11</title>
<path fill="none" stroke="midnightblue" d="M1039.2,-285.55C941.66,-276.16 692.36,-246.81 637.5,-188 607.76,-156.13 613.47,-97.71 616.92,-75.7"/>
<polygon fill="midnightblue" stroke="midnightblue" points="1038.96,-289.04 1049.24,-286.5 1039.62,-282.08 1038.96,-289.04"/>
</g>
<!-- Node22 -->
<g id="node22" class="node">
<title>Node22</title>
<g id="a_node22"><a xlink:href="api_2abi-default_2rwlock__recursive_8h.html" target="_top" xlink:title=" ">
<polygon fill="white" stroke="black" points="1024.5,-224.5 1024.5,-243.5 1132.5,-243.5 1132.5,-224.5 1024.5,-224.5"/>
<text text-anchor="middle" x="1078.5" y="-231.5" font-family="Helvetica,sans-Serif" font-size="10.00">rwlock_recursive.h</text>
</a>
</g>
</g>
<!-- Node21&#45;&gt;Node22 -->
<g id="edge21" class="edge">
<title>Node21&#45;&gt;Node22</title>
<path fill="none" stroke="midnightblue" d="M1078.5,-269.8C1078.5,-260.91 1078.5,-250.78 1078.5,-243.75"/>
<polygon fill="midnightblue" stroke="midnightblue" points="1075,-270.08 1078.5,-280.08 1082,-270.08 1075,-270.08"/>
</g>
<!-- Node23 -->
<g id="node23" class="node">
<title>Node23</title>
<g id="a_node23"><a xlink:href="arch_2arm32-linux_2odp_2api_2abi_2rwlock__recursive_8h_source.html" target="_top" xlink:title=" ">
<polygon fill="white" stroke="black" points="646.5,-168.5 646.5,-187.5 754.5,-187.5 754.5,-168.5 646.5,-168.5"/>
<text text-anchor="middle" x="700.5" y="-175.5" font-family="Helvetica,sans-Serif" font-size="10.00">rwlock_recursive.h</text>
</a>
</g>
</g>
<!-- Node22&#45;&gt;Node23 -->
<g id="edge22" class="edge">
<title>Node22&#45;&gt;Node23</title>
<path fill="none" stroke="midnightblue" d="M1014.34,-223.83C941.26,-213.39 823.14,-196.52 754.56,-186.72"/>
<polygon fill="midnightblue" stroke="midnightblue" points="1013.95,-227.31 1024.34,-225.26 1014.94,-220.38 1013.95,-227.31"/>
</g>
<!-- Node24 -->
<g id="node24" class="node">
<title>Node24</title>
<g id="a_node24"><a xlink:href="arch_2arm64-linux_2odp_2api_2abi_2rwlock__recursive_8h_source.html" target="_top" xlink:title=" ">
<polygon fill="white" stroke="black" points="772.5,-168.5 772.5,-187.5 880.5,-187.5 880.5,-168.5 772.5,-168.5"/>
<text text-anchor="middle" x="826.5" y="-175.5" font-family="Helvetica,sans-Serif" font-size="10.00">rwlock_recursive.h</text>
</a>
</g>
</g>
<!-- Node22&#45;&gt;Node24 -->
<g id="edge23" class="edge">
<title>Node22&#45;&gt;Node24</title>
<path fill="none" stroke="midnightblue" d="M1028.78,-222.35C981.16,-212.14 910.22,-196.94 866.24,-187.52"/>
<polygon fill="midnightblue" stroke="midnightblue" points="1028.06,-225.77 1038.57,-224.44 1029.53,-218.93 1028.06,-225.77"/>
</g>
<!-- Node25 -->
<g id="node25" class="node">
<title>Node25</title>
<g id="a_node25"><a xlink:href="arch_2default-linux_2odp_2api_2abi_2rwlock__recursive_8h_source.html" target="_top" xlink:title=" ">
<polygon fill="white" stroke="black" points="898.5,-168.5 898.5,-187.5 1006.5,-187.5 1006.5,-168.5 898.5,-168.5"/>
<text text-anchor="middle" x="952.5" y="-175.5" font-family="Helvetica,sans-Serif" font-size="10.00">rwlock_recursive.h</text>
</a>
</g>
</g>
<!-- Node22&#45;&gt;Node25 -->
<g id="edge24" class="edge">
<title>Node22&#45;&gt;Node25</title>
<path fill="none" stroke="midnightblue" d="M1049.34,-220.5C1025.72,-210.38 993.07,-196.39 972.37,-187.52"/>
<polygon fill="midnightblue" stroke="midnightblue" points="1047.96,-223.72 1058.53,-224.44 1050.72,-217.29 1047.96,-223.72"/>
</g>
<!-- Node26 -->
<g id="node26" class="node">
<title>Node26</title>
<g id="a_node26"><a xlink:href="arch_2mips64-linux_2odp_2api_2abi_2rwlock__recursive_8h_source.html" target="_top" xlink:title=" ">
<polygon fill="white" stroke="black" points="1024.5,-168.5 1024.5,-187.5 1132.5,-187.5 1132.5,-168.5 1024.5,-168.5"/>
<text text-anchor="middle" x="1078.5" y="-175.5" font-family="Helvetica,sans-Serif" font-size="10.00">rwlock_recursive.h</text>
</a>
</g>
</g>
<!-- Node22&#45;&gt;Node26 -->
<g id="edge25" class="edge">
<title>Node22&#45;&gt;Node26</title>
<path fill="none" stroke="midnightblue" d="M1078.5,-213.8C1078.5,-204.91 1078.5,-194.78 1078.5,-187.75"/>
<polygon fill="midnightblue" stroke="midnightblue" points="1075,-214.08 1078.5,-224.08 1082,-214.08 1075,-214.08"/>
</g>
<!-- Node27 -->
<g id="node27" class="node">
<title>Node27</title>
<g id="a_node27"><a xlink:href="arch_2power64-linux_2odp_2api_2abi_2rwlock__recursive_8h_source.html" target="_top" xlink:title=" ">
<polygon fill="white" stroke="black" points="1150.5,-168.5 1150.5,-187.5 1258.5,-187.5 1258.5,-168.5 1150.5,-168.5"/>
<text text-anchor="middle" x="1204.5" y="-175.5" font-family="Helvetica,sans-Serif" font-size="10.00">rwlock_recursive.h</text>
</a>
</g>
</g>
<!-- Node22&#45;&gt;Node27 -->
<g id="edge26" class="edge">
<title>Node22&#45;&gt;Node27</title>
<path fill="none" stroke="midnightblue" d="M1107.66,-220.5C1131.28,-210.38 1163.93,-196.39 1184.63,-187.52"/>
<polygon fill="midnightblue" stroke="midnightblue" points="1106.28,-217.29 1098.47,-224.44 1109.04,-223.72 1106.28,-217.29"/>
</g>
<!-- Node28 -->
<g id="node28" class="node">
<title>Node28</title>
<g id="a_node28"><a xlink:href="arch_2x86__32-linux_2odp_2api_2abi_2rwlock__recursive_8h_source.html" target="_top" xlink:title=" ">
<polygon fill="white" stroke="black" points="1276.5,-168.5 1276.5,-187.5 1384.5,-187.5 1384.5,-168.5 1276.5,-168.5"/>
<text text-anchor="middle" x="1330.5" y="-175.5" font-family="Helvetica,sans-Serif" font-size="10.00">rwlock_recursive.h</text>
</a>
</g>
</g>
<!-- Node22&#45;&gt;Node28 -->
<g id="edge27" class="edge">
<title>Node22&#45;&gt;Node28</title>
<path fill="none" stroke="midnightblue" d="M1128.22,-222.35C1175.84,-212.14 1246.78,-196.94 1290.76,-187.52"/>
<polygon fill="midnightblue" stroke="midnightblue" points="1127.47,-218.93 1118.43,-224.44 1128.94,-225.77 1127.47,-218.93"/>
</g>
<!-- Node29 -->
<g id="node29" class="node">
<title>Node29</title>
<g id="a_node29"><a xlink:href="arch_2x86__64-linux_2odp_2api_2abi_2rwlock__recursive_8h_source.html" target="_top" xlink:title=" ">
<polygon fill="white" stroke="black" points="1402.5,-168.5 1402.5,-187.5 1510.5,-187.5 1510.5,-168.5 1402.5,-168.5"/>
<text text-anchor="middle" x="1456.5" y="-175.5" font-family="Helvetica,sans-Serif" font-size="10.00">rwlock_recursive.h</text>
</a>
</g>
</g>
<!-- Node22&#45;&gt;Node29 -->
<g id="edge28" class="edge">
<title>Node22&#45;&gt;Node29</title>
<path fill="none" stroke="midnightblue" d="M1142.66,-223.83C1215.74,-213.39 1333.86,-196.52 1402.44,-186.72"/>
<polygon fill="midnightblue" stroke="midnightblue" points="1142.06,-220.38 1132.66,-225.26 1143.05,-227.31 1142.06,-220.38"/>
</g>
<!-- Node30 -->
<g id="node30" class="node">
<title>Node30</title>
<g id="a_node30"><a xlink:href="api_2rwlock__recursive_8h.html" target="_top" xlink:title=" ">
<polygon fill="white" stroke="black" points="1113.5,-112.5 1113.5,-131.5 1221.5,-131.5 1221.5,-112.5 1113.5,-112.5"/>
<text text-anchor="middle" x="1167.5" y="-119.5" font-family="Helvetica,sans-Serif" font-size="10.00">rwlock_recursive.h</text>
</a>
</g>
</g>
<!-- Node29&#45;&gt;Node30 -->
<g id="edge29" class="edge">
<title>Node29&#45;&gt;Node30</title>
<path fill="none" stroke="midnightblue" d="M1400.84,-166.6C1346.23,-156.4 1263.93,-141.02 1213.08,-131.52"/>
<polygon fill="midnightblue" stroke="midnightblue" points="1400.23,-170.05 1410.71,-168.44 1401.52,-163.17 1400.23,-170.05"/>
</g>
<!-- Node30&#45;&gt;Node11 -->
<g id="edge30" class="edge">
<title>Node30&#45;&gt;Node11</title>
<path fill="none" stroke="midnightblue" d="M1103.4,-114.69C985.62,-103.11 738.82,-78.83 650.66,-70.16"/>
<polygon fill="midnightblue" stroke="midnightblue" points="1103.06,-118.18 1113.36,-115.67 1103.75,-111.21 1103.06,-118.18"/>
</g>
<!-- Node32 -->
<g id="node32" class="node">
<title>Node32</title>
<g id="a_node32"><a xlink:href="arch_2arm32-linux_2odp_2api_2abi_2ticketlock_8h_source.html" target="_top" xlink:title=" ">
<polygon fill="white" stroke="black" points="1134,-336.5 1134,-355.5 1207,-355.5 1207,-336.5 1134,-336.5"/>
<text text-anchor="middle" x="1170.5" y="-343.5" font-family="Helvetica,sans-Serif" font-size="10.00">ticketlock.h</text>
</a>
</g>
</g>
<!-- Node31&#45;&gt;Node32 -->
<g id="edge33" class="edge">
<title>Node31&#45;&gt;Node32</title>
<path fill="none" stroke="midnightblue" d="M1351.63,-390.09C1308.75,-379.89 1245.58,-364.86 1206.3,-355.52"/>
<polygon fill="midnightblue" stroke="midnightblue" points="1350.99,-393.53 1361.53,-392.44 1352.61,-386.72 1350.99,-393.53"/>
</g>
<!-- Node33 -->
<g id="node33" class="node">
<title>Node33</title>
<g id="a_node33"><a xlink:href="arch_2arm64-linux_2odp_2api_2abi_2ticketlock_8h_source.html" target="_top" xlink:title=" ">
<polygon fill="white" stroke="black" points="1225,-336.5 1225,-355.5 1298,-355.5 1298,-336.5 1225,-336.5"/>
<text text-anchor="middle" x="1261.5" y="-343.5" font-family="Helvetica,sans-Serif" font-size="10.00">ticketlock.h</text>
</a>
</g>
</g>
<!-- Node31&#45;&gt;Node33 -->
<g id="edge34" class="edge">
<title>Node31&#45;&gt;Node33</title>
<path fill="none" stroke="midnightblue" d="M1366.37,-388.64C1340.84,-378.5 1305.39,-364.43 1282.95,-355.52"/>
<polygon fill="midnightblue" stroke="midnightblue" points="1365.36,-392.01 1375.95,-392.44 1367.95,-385.5 1365.36,-392.01"/>
</g>
<!-- Node34 -->
<g id="node34" class="node">
<title>Node34</title>
<g id="a_node34"><a xlink:href="arch_2default-linux_2odp_2api_2abi_2ticketlock_8h_source.html" target="_top" xlink:title=" ">
<polygon fill="white" stroke="black" points="1316,-336.5 1316,-355.5 1389,-355.5 1389,-336.5 1316,-336.5"/>
<text text-anchor="middle" x="1352.5" y="-343.5" font-family="Helvetica,sans-Serif" font-size="10.00">ticketlock.h</text>
</a>
</g>
</g>
<!-- Node31&#45;&gt;Node34 -->
<g id="edge35" class="edge">
<title>Node31&#45;&gt;Node34</title>
<path fill="none" stroke="midnightblue" d="M1383.45,-384.14C1375.61,-374.74 1366.17,-363.4 1359.79,-355.75"/>
<polygon fill="midnightblue" stroke="midnightblue" points="1380.98,-386.64 1390.07,-392.08 1386.36,-382.16 1380.98,-386.64"/>
</g>
<!-- Node35 -->
<g id="node35" class="node">
<title>Node35</title>
<g id="a_node35"><a xlink:href="arch_2mips64-linux_2odp_2api_2abi_2ticketlock_8h_source.html" target="_top" xlink:title=" ">
<polygon fill="white" stroke="black" points="1407,-336.5 1407,-355.5 1480,-355.5 1480,-336.5 1407,-336.5"/>
<text text-anchor="middle" x="1443.5" y="-343.5" font-family="Helvetica,sans-Serif" font-size="10.00">ticketlock.h</text>
</a>
</g>
</g>
<!-- Node31&#45;&gt;Node35 -->
<g id="edge36" class="edge">
<title>Node31&#45;&gt;Node35</title>
<path fill="none" stroke="midnightblue" d="M1411.61,-384.43C1419.68,-374.97 1429.46,-363.48 1436.05,-355.75"/>
<polygon fill="midnightblue" stroke="midnightblue" points="1408.92,-382.2 1405.1,-392.08 1414.25,-386.74 1408.92,-382.2"/>
</g>
<!-- Node36 -->
<g id="node36" class="node">
<title>Node36</title>
<g id="a_node36"><a xlink:href="arch_2power64-linux_2odp_2api_2abi_2ticketlock_8h_source.html" target="_top" xlink:title=" ">
<polygon fill="white" stroke="black" points="1498,-336.5 1498,-355.5 1571,-355.5 1571,-336.5 1498,-336.5"/>
<text text-anchor="middle" x="1534.5" y="-343.5" font-family="Helvetica,sans-Serif" font-size="10.00">ticketlock.h</text>
</a>
</g>
</g>
<!-- Node31&#45;&gt;Node36 -->
<g id="edge37" class="edge">
<title>Node31&#45;&gt;Node36</title>
<path fill="none" stroke="midnightblue" d="M1428.52,-388.77C1454.26,-378.63 1490.19,-364.47 1512.89,-355.52"/>
<polygon fill="midnightblue" stroke="midnightblue" points="1427.23,-385.52 1419.21,-392.44 1429.79,-392.03 1427.23,-385.52"/>
</g>
<!-- Node37 -->
<g id="node37" class="node">
<title>Node37</title>
<g id="a_node37"><a xlink:href="arch_2x86__32-linux_2odp_2api_2abi_2ticketlock_8h_source.html" target="_top" xlink:title=" ">
<polygon fill="white" stroke="black" points="1589,-336.5 1589,-355.5 1662,-355.5 1662,-336.5 1589,-336.5"/>
<text text-anchor="middle" x="1625.5" y="-343.5" font-family="Helvetica,sans-Serif" font-size="10.00">ticketlock.h</text>
</a>
</g>
</g>
<!-- Node31&#45;&gt;Node37 -->
<g id="edge38" class="edge">
<title>Node31&#45;&gt;Node37</title>
<path fill="none" stroke="midnightblue" d="M1443.57,-390.09C1486.65,-379.89 1550.09,-364.86 1589.54,-355.52"/>
<polygon fill="midnightblue" stroke="midnightblue" points="1442.55,-386.73 1433.63,-392.44 1444.16,-393.54 1442.55,-386.73"/>
</g>
<!-- Node38 -->
<g id="node38" class="node">
<title>Node38</title>
<g id="a_node38"><a xlink:href="arch_2x86__64-linux_2odp_2api_2abi_2ticketlock_8h_source.html" target="_top" xlink:title=" ">
<polygon fill="white" stroke="black" points="1680,-336.5 1680,-355.5 1753,-355.5 1753,-336.5 1680,-336.5"/>
<text text-anchor="middle" x="1716.5" y="-343.5" font-family="Helvetica,sans-Serif" font-size="10.00">ticketlock.h</text>
</a>
</g>
</g>
<!-- Node31&#45;&gt;Node38 -->
<g id="edge39" class="edge">
<title>Node31&#45;&gt;Node38</title>
<path fill="none" stroke="midnightblue" d="M1444.43,-393.8C1499.06,-385.3 1591.97,-370.48 1671.5,-356 1674.17,-355.51 1676.92,-355 1679.68,-354.47"/>
<polygon fill="midnightblue" stroke="midnightblue" points="1443.7,-390.37 1434.35,-395.36 1444.77,-397.29 1443.7,-390.37"/>
</g>
<!-- Node39 -->
<g id="node39" class="node">
<title>Node39</title>
<g id="a_node39"><a xlink:href="api_2ticketlock_8h.html" target="_top" xlink:title=" ">
<polygon fill="white" stroke="black" points="1635,-224.5 1635,-243.5 1708,-243.5 1708,-224.5 1635,-224.5"/>
<text text-anchor="middle" x="1671.5" y="-231.5" font-family="Helvetica,sans-Serif" font-size="10.00">ticketlock.h</text>
</a>
</g>
</g>
<!-- Node38&#45;&gt;Node39 -->
<g id="edge40" class="edge">
<title>Node38&#45;&gt;Node39</title>
<path fill="none" stroke="midnightblue" d="M1709.14,-327C1699.32,-303 1682.33,-261.47 1675.01,-243.59"/>
<polygon fill="midnightblue" stroke="midnightblue" points="1705.94,-328.44 1712.97,-336.37 1712.42,-325.79 1705.94,-328.44"/>
</g>
<!-- Node39&#45;&gt;Node11 -->
<g id="edge41" class="edge">
<title>Node39&#45;&gt;Node11</title>
<path fill="none" stroke="midnightblue" d="M1645.35,-219.79C1615.56,-205.22 1565.1,-181.99 1519.5,-168 1191.84,-67.45 769.71,-64.88 650.89,-66.36"/>
<polygon fill="midnightblue" stroke="midnightblue" points="1644.11,-223.07 1654.62,-224.37 1647.21,-216.8 1644.11,-223.07"/>
</g>
</g>
</svg>
