<?xml version="1.0" encoding="UTF-8" standalone="no"?>
<!DOCTYPE svg PUBLIC "-//W3C//DTD SVG 1.1//EN"
 "http://www.w3.org/Graphics/SVG/1.1/DTD/svg11.dtd">
<!-- Generated by graphviz version 2.43.0 (0)
 -->
<!-- Title: queue.h Pages: 1 -->
<svg width="304pt" height="588pt"
 viewBox="0.00 0.00 304.00 588.00" xmlns="http://www.w3.org/2000/svg" xmlns:xlink="http://www.w3.org/1999/xlink">
<g id="graph0" class="graph" transform="scale(1 1) rotate(0) translate(4 584)">
<title>queue.h</title>
<polygon fill="white" stroke="transparent" points="-4,4 -4,-584 300,-584 300,4 -4,4"/>
<!-- Node1 -->
<g id="node1" class="node">
<title>Node1</title>
<g id="a_node1"><a xlink:title=" ">
<polygon fill="#bfbfbf" stroke="black" points="11,-560.5 11,-579.5 67,-579.5 67,-560.5 11,-560.5"/>
<text text-anchor="middle" x="39" y="-567.5" font-family="Helvetica,sans-Serif" font-size="10.00">queue.h</text>
</a>
</g>
</g>
<!-- Node2 -->
<g id="node2" class="node">
<title>Node2</title>
<g id="a_node2"><a xlink:href="spec_2packet__io__stats_8h.html" target="_top" xlink:title=" ">
<polygon fill="white" stroke="black" points="44.5,-504.5 44.5,-523.5 145.5,-523.5 145.5,-504.5 44.5,-504.5"/>
<text text-anchor="middle" x="95" y="-511.5" font-family="Helvetica,sans-Serif" font-size="10.00">packet_io_stats.h</text>
</a>
</g>
</g>
<!-- Node1&#45;&gt;Node2 -->
<g id="edge1" class="edge">
<title>Node1&#45;&gt;Node2</title>
<path fill="none" stroke="midnightblue" d="M55.33,-553.25C65.26,-543.67 77.59,-531.79 85.84,-523.83"/>
<polygon fill="midnightblue" stroke="midnightblue" points="52.77,-550.86 48,-560.32 57.63,-555.9 52.77,-550.86"/>
</g>
<!-- Node10 -->
<g id="node10" class="node">
<title>Node10</title>
<g id="a_node10"><a xlink:href="odp__api_8h.html" target="_top" xlink:title=" ">
<polygon fill="white" stroke="black" points="79,-56.5 79,-75.5 143,-75.5 143,-56.5 79,-56.5"/>
<text text-anchor="middle" x="111" y="-63.5" font-family="Helvetica,sans-Serif" font-size="10.00">odp_api.h</text>
</a>
</g>
</g>
<!-- Node1&#45;&gt;Node10 -->
<g id="edge18" class="edge">
<title>Node1&#45;&gt;Node10</title>
<path fill="none" stroke="midnightblue" d="M28.59,-551.46C17.04,-530.3 0,-493.28 0,-459 0,-459 0,-459 0,-177 0,-126.27 59.23,-90.96 91.16,-75.61"/>
<polygon fill="midnightblue" stroke="midnightblue" points="25.6,-553.28 33.58,-560.25 31.69,-549.83 25.6,-553.28"/>
</g>
<!-- Node3 -->
<g id="node3" class="node">
<title>Node3</title>
<g id="a_node3"><a xlink:href="packet__io__stats_8h.html" target="_top" xlink:title=" ">
<polygon fill="white" stroke="black" points="48.5,-448.5 48.5,-467.5 149.5,-467.5 149.5,-448.5 48.5,-448.5"/>
<text text-anchor="middle" x="99" y="-455.5" font-family="Helvetica,sans-Serif" font-size="10.00">packet_io_stats.h</text>
</a>
</g>
</g>
<!-- Node2&#45;&gt;Node3 -->
<g id="edge2" class="edge">
<title>Node2&#45;&gt;Node3</title>
<path fill="none" stroke="midnightblue" d="M96.4,-494.1C97.06,-485.14 97.83,-474.86 98.35,-467.75"/>
<polygon fill="midnightblue" stroke="midnightblue" points="92.91,-493.85 95.66,-504.08 99.89,-494.37 92.91,-493.85"/>
</g>
<!-- Node4 -->
<g id="node4" class="node">
<title>Node4</title>
<g id="a_node4"><a xlink:href="api_2spec_2packet__io_8h.html" target="_top" xlink:title=" ">
<polygon fill="white" stroke="black" points="67,-392.5 67,-411.5 139,-411.5 139,-392.5 67,-392.5"/>
<text text-anchor="middle" x="103" y="-399.5" font-family="Helvetica,sans-Serif" font-size="10.00">packet_io.h</text>
</a>
</g>
</g>
<!-- Node3&#45;&gt;Node4 -->
<g id="edge3" class="edge">
<title>Node3&#45;&gt;Node4</title>
<path fill="none" stroke="midnightblue" d="M100.4,-438.1C101.06,-429.14 101.83,-418.86 102.35,-411.75"/>
<polygon fill="midnightblue" stroke="midnightblue" points="96.91,-437.85 99.66,-448.08 103.89,-438.37 96.91,-437.85"/>
</g>
<!-- Node5 -->
<g id="node5" class="node">
<title>Node5</title>
<g id="a_node5"><a xlink:href="api_2packet__io_8h.html" target="_top" xlink:title=" ">
<polygon fill="white" stroke="black" points="75,-336.5 75,-355.5 147,-355.5 147,-336.5 75,-336.5"/>
<text text-anchor="middle" x="111" y="-343.5" font-family="Helvetica,sans-Serif" font-size="10.00">packet_io.h</text>
</a>
</g>
</g>
<!-- Node4&#45;&gt;Node5 -->
<g id="edge4" class="edge">
<title>Node4&#45;&gt;Node5</title>
<path fill="none" stroke="midnightblue" d="M105.8,-382.1C107.13,-373.14 108.65,-362.86 109.7,-355.75"/>
<polygon fill="midnightblue" stroke="midnightblue" points="102.32,-381.68 104.32,-392.08 109.25,-382.7 102.32,-381.68"/>
</g>
<!-- Node6 -->
<g id="node6" class="node">
<title>Node6</title>
<g id="a_node6"><a xlink:href="api_2spec_2classification_8h.html" target="_top" xlink:title=" ">
<polygon fill="white" stroke="black" points="66.5,-280.5 66.5,-299.5 155.5,-299.5 155.5,-280.5 66.5,-280.5"/>
<text text-anchor="middle" x="111" y="-287.5" font-family="Helvetica,sans-Serif" font-size="10.00">classification.h</text>
</a>
</g>
</g>
<!-- Node5&#45;&gt;Node6 -->
<g id="edge5" class="edge">
<title>Node5&#45;&gt;Node6</title>
<path fill="none" stroke="midnightblue" d="M111,-325.8C111,-316.91 111,-306.78 111,-299.75"/>
<polygon fill="midnightblue" stroke="midnightblue" points="107.5,-326.08 111,-336.08 114.5,-326.08 107.5,-326.08"/>
</g>
<!-- Node8 -->
<g id="node8" class="node">
<title>Node8</title>
<g id="a_node8"><a xlink:href="api_2spec_2ipsec_8h.html" target="_top" xlink:title=" ">
<polygon fill="white" stroke="black" points="148.5,-168.5 148.5,-187.5 199.5,-187.5 199.5,-168.5 148.5,-168.5"/>
<text text-anchor="middle" x="174" y="-175.5" font-family="Helvetica,sans-Serif" font-size="10.00">ipsec.h</text>
</a>
</g>
</g>
<!-- Node5&#45;&gt;Node8 -->
<g id="edge12" class="edge">
<title>Node5&#45;&gt;Node8</title>
<path fill="none" stroke="midnightblue" d="M135.36,-330.6C146.04,-322.93 157.58,-312.5 164,-300 183.56,-261.94 178.39,-208.16 175.41,-187.52"/>
<polygon fill="midnightblue" stroke="midnightblue" points="133.1,-327.9 126.73,-336.37 136.99,-333.72 133.1,-327.9"/>
</g>
<!-- Node5&#45;&gt;Node10 -->
<g id="edge17" class="edge">
<title>Node5&#45;&gt;Node10</title>
<path fill="none" stroke="midnightblue" d="M88.25,-330.75C77.38,-322.89 65.02,-312.24 57,-300 40.5,-274.83 38,-265.1 38,-235 38,-235 38,-235 38,-177 38,-132.76 79.49,-92.71 99.91,-75.67"/>
<polygon fill="midnightblue" stroke="midnightblue" points="86.31,-333.67 96.54,-336.44 90.27,-327.89 86.31,-333.67"/>
</g>
<!-- Node12 -->
<g id="node12" class="node">
<title>Node12</title>
<g id="a_node12"><a xlink:href="api_2spec_2traffic__mngr_8h.html" target="_top" xlink:title=" ">
<polygon fill="white" stroke="black" points="212,-280.5 212,-299.5 296,-299.5 296,-280.5 212,-280.5"/>
<text text-anchor="middle" x="254" y="-287.5" font-family="Helvetica,sans-Serif" font-size="10.00">traffic_mngr.h</text>
</a>
</g>
</g>
<!-- Node5&#45;&gt;Node12 -->
<g id="edge13" class="edge">
<title>Node5&#45;&gt;Node12</title>
<path fill="none" stroke="midnightblue" d="M143.03,-332.91C169.91,-322.75 207.64,-308.51 231.45,-299.52"/>
<polygon fill="midnightblue" stroke="midnightblue" points="141.78,-329.64 133.66,-336.44 144.25,-336.19 141.78,-329.64"/>
</g>
<!-- Node7 -->
<g id="node7" class="node">
<title>Node7</title>
<g id="a_node7"><a xlink:href="api_2classification_8h.html" target="_top" xlink:title=" ">
<polygon fill="white" stroke="black" points="66.5,-224.5 66.5,-243.5 155.5,-243.5 155.5,-224.5 66.5,-224.5"/>
<text text-anchor="middle" x="111" y="-231.5" font-family="Helvetica,sans-Serif" font-size="10.00">classification.h</text>
</a>
</g>
</g>
<!-- Node6&#45;&gt;Node7 -->
<g id="edge6" class="edge">
<title>Node6&#45;&gt;Node7</title>
<path fill="none" stroke="midnightblue" d="M111,-269.8C111,-260.91 111,-250.78 111,-243.75"/>
<polygon fill="midnightblue" stroke="midnightblue" points="107.5,-270.08 111,-280.08 114.5,-270.08 107.5,-270.08"/>
</g>
<!-- Node7&#45;&gt;Node8 -->
<g id="edge7" class="edge">
<title>Node7&#45;&gt;Node8</title>
<path fill="none" stroke="midnightblue" d="M129.04,-217.54C140.27,-207.91 154.32,-195.87 163.69,-187.83"/>
<polygon fill="midnightblue" stroke="midnightblue" points="126.44,-215.16 121.12,-224.32 130.99,-220.47 126.44,-215.16"/>
</g>
<!-- Node7&#45;&gt;Node10 -->
<g id="edge11" class="edge">
<title>Node7&#45;&gt;Node10</title>
<path fill="none" stroke="midnightblue" d="M111,-213.93C111,-177.92 111,-101.23 111,-75.57"/>
<polygon fill="midnightblue" stroke="midnightblue" points="107.5,-214.08 111,-224.08 114.5,-214.08 107.5,-214.08"/>
</g>
<!-- Node9 -->
<g id="node9" class="node">
<title>Node9</title>
<g id="a_node9"><a xlink:href="api_2ipsec_8h.html" target="_top" xlink:title=" ">
<polygon fill="white" stroke="black" points="144.5,-112.5 144.5,-131.5 195.5,-131.5 195.5,-112.5 144.5,-112.5"/>
<text text-anchor="middle" x="170" y="-119.5" font-family="Helvetica,sans-Serif" font-size="10.00">ipsec.h</text>
</a>
</g>
</g>
<!-- Node8&#45;&gt;Node9 -->
<g id="edge8" class="edge">
<title>Node8&#45;&gt;Node9</title>
<path fill="none" stroke="midnightblue" d="M172.6,-158.1C171.94,-149.14 171.17,-138.86 170.65,-131.75"/>
<polygon fill="midnightblue" stroke="midnightblue" points="169.11,-158.37 173.34,-168.08 176.09,-157.85 169.11,-158.37"/>
</g>
<!-- Node9&#45;&gt;Node10 -->
<g id="edge9" class="edge">
<title>Node9&#45;&gt;Node10</title>
<path fill="none" stroke="midnightblue" d="M153.11,-105.54C142.59,-95.91 129.43,-83.87 120.65,-75.83"/>
<polygon fill="midnightblue" stroke="midnightblue" points="150.78,-108.15 160.52,-112.32 155.51,-102.99 150.78,-108.15"/>
</g>
<!-- Node11 -->
<g id="node11" class="node">
<title>Node11</title>
<g id="a_node11"><a xlink:href="odp_8h.html" target="_top" xlink:title=" ">
<polygon fill="white" stroke="black" points="89,-0.5 89,-19.5 133,-19.5 133,-0.5 89,-0.5"/>
<text text-anchor="middle" x="111" y="-7.5" font-family="Helvetica,sans-Serif" font-size="10.00">odp.h</text>
</a>
</g>
</g>
<!-- Node10&#45;&gt;Node11 -->
<g id="edge10" class="edge">
<title>Node10&#45;&gt;Node11</title>
<path fill="none" stroke="midnightblue" d="M111,-45.8C111,-36.91 111,-26.78 111,-19.75"/>
<polygon fill="midnightblue" stroke="midnightblue" points="107.5,-46.08 111,-56.08 114.5,-46.08 107.5,-46.08"/>
</g>
<!-- Node13 -->
<g id="node13" class="node">
<title>Node13</title>
<g id="a_node13"><a xlink:href="api_2traffic__mngr_8h.html" target="_top" xlink:title=" ">
<polygon fill="white" stroke="black" points="212,-224.5 212,-243.5 296,-243.5 296,-224.5 212,-224.5"/>
<text text-anchor="middle" x="254" y="-231.5" font-family="Helvetica,sans-Serif" font-size="10.00">traffic_mngr.h</text>
</a>
</g>
</g>
<!-- Node12&#45;&gt;Node13 -->
<g id="edge14" class="edge">
<title>Node12&#45;&gt;Node13</title>
<path fill="none" stroke="midnightblue" d="M254,-269.8C254,-260.91 254,-250.78 254,-243.75"/>
<polygon fill="midnightblue" stroke="midnightblue" points="250.5,-270.08 254,-280.08 257.5,-270.08 250.5,-270.08"/>
</g>
<!-- Node13&#45;&gt;Node8 -->
<g id="edge15" class="edge">
<title>Node13&#45;&gt;Node8</title>
<path fill="none" stroke="midnightblue" d="M232.7,-218.62C218.08,-208.76 199.17,-195.99 186.82,-187.65"/>
<polygon fill="midnightblue" stroke="midnightblue" points="230.9,-221.63 241.15,-224.32 234.82,-215.83 230.9,-221.63"/>
</g>
<!-- Node13&#45;&gt;Node10 -->
<g id="edge16" class="edge">
<title>Node13&#45;&gt;Node10</title>
<path fill="none" stroke="midnightblue" d="M250.79,-214.2C245.49,-188.25 232.59,-141.34 205,-112 188.15,-94.07 162.67,-82.49 142.49,-75.58"/>
<polygon fill="midnightblue" stroke="midnightblue" points="247.39,-215.04 252.68,-224.22 254.27,-213.75 247.39,-215.04"/>
</g>
</g>
</svg>
