<?xml version="1.0" encoding="UTF-8" standalone="no"?>
<!DOCTYPE svg PUBLIC "-//W3C//DTD SVG 1.1//EN"
 "http://www.w3.org/Graphics/SVG/1.1/DTD/svg11.dtd">
<!-- Generated by graphviz version 2.43.0 (0)
 -->
<!-- Title: byteorder.h Pages: 1 -->
<svg width="620pt" height="252pt"
 viewBox="0.00 0.00 620.00 252.00" xmlns="http://www.w3.org/2000/svg" xmlns:xlink="http://www.w3.org/1999/xlink">
<g id="graph0" class="graph" transform="scale(1 1) rotate(0) translate(4 248)">
<title>byteorder.h</title>
<polygon fill="white" stroke="transparent" points="-4,4 -4,-248 616,-248 616,4 -4,4"/>
<!-- Node1 -->
<g id="node1" class="node">
<title>Node1</title>
<g id="a_node1"><a xlink:title=" ">
<polygon fill="#bfbfbf" stroke="black" points="270,-224.5 270,-243.5 342,-243.5 342,-224.5 270,-224.5"/>
<text text-anchor="middle" x="306" y="-231.5" font-family="Helvetica,sans-Serif" font-size="10.00">byteorder.h</text>
</a>
</g>
</g>
<!-- Node2 -->
<g id="node2" class="node">
<title>Node2</title>
<g id="a_node2"><a xlink:href="arch_2arm32-linux_2odp_2api_2abi_2byteorder_8h_source.html" target="_top" xlink:title=" ">
<polygon fill="white" stroke="black" points="0,-168.5 0,-187.5 72,-187.5 72,-168.5 0,-168.5"/>
<text text-anchor="middle" x="36" y="-175.5" font-family="Helvetica,sans-Serif" font-size="10.00">byteorder.h</text>
</a>
</g>
</g>
<!-- Node1&#45;&gt;Node2 -->
<g id="edge1" class="edge">
<title>Node1&#45;&gt;Node2</title>
<path fill="none" stroke="midnightblue" d="M260.05,-223.81C207.03,-213.21 120.93,-195.99 72.35,-186.27"/>
<polygon fill="midnightblue" stroke="midnightblue" points="259.37,-227.24 269.87,-225.77 260.75,-220.38 259.37,-227.24"/>
</g>
<!-- Node3 -->
<g id="node3" class="node">
<title>Node3</title>
<g id="a_node3"><a xlink:href="arch_2arm64-linux_2odp_2api_2abi_2byteorder_8h_source.html" target="_top" xlink:title=" ">
<polygon fill="white" stroke="black" points="90,-168.5 90,-187.5 162,-187.5 162,-168.5 90,-168.5"/>
<text text-anchor="middle" x="126" y="-175.5" font-family="Helvetica,sans-Serif" font-size="10.00">byteorder.h</text>
</a>
</g>
</g>
<!-- Node1&#45;&gt;Node3 -->
<g id="edge2" class="edge">
<title>Node1&#45;&gt;Node3</title>
<path fill="none" stroke="midnightblue" d="M267.89,-221.57C233.94,-211.38 185.01,-196.7 154.39,-187.52"/>
<polygon fill="midnightblue" stroke="midnightblue" points="266.89,-224.92 277.48,-224.44 268.91,-218.22 266.89,-224.92"/>
</g>
<!-- Node4 -->
<g id="node4" class="node">
<title>Node4</title>
<g id="a_node4"><a xlink:href="arch_2default-linux_2odp_2api_2abi_2byteorder_8h_source.html" target="_top" xlink:title=" ">
<polygon fill="white" stroke="black" points="180,-168.5 180,-187.5 252,-187.5 252,-168.5 180,-168.5"/>
<text text-anchor="middle" x="216" y="-175.5" font-family="Helvetica,sans-Serif" font-size="10.00">byteorder.h</text>
</a>
</g>
</g>
<!-- Node1&#45;&gt;Node4 -->
<g id="edge3" class="edge">
<title>Node1&#45;&gt;Node4</title>
<path fill="none" stroke="midnightblue" d="M282.96,-219.18C266.4,-209.24 244.58,-196.15 230.42,-187.65"/>
<polygon fill="midnightblue" stroke="midnightblue" points="281.16,-222.18 291.54,-224.32 284.77,-216.18 281.16,-222.18"/>
</g>
<!-- Node5 -->
<g id="node5" class="node">
<title>Node5</title>
<g id="a_node5"><a xlink:href="arch_2mips64-linux_2odp_2api_2abi_2byteorder_8h_source.html" target="_top" xlink:title=" ">
<polygon fill="white" stroke="black" points="270,-168.5 270,-187.5 342,-187.5 342,-168.5 270,-168.5"/>
<text text-anchor="middle" x="306" y="-175.5" font-family="Helvetica,sans-Serif" font-size="10.00">byteorder.h</text>
</a>
</g>
</g>
<!-- Node1&#45;&gt;Node5 -->
<g id="edge4" class="edge">
<title>Node1&#45;&gt;Node5</title>
<path fill="none" stroke="midnightblue" d="M306,-213.8C306,-204.91 306,-194.78 306,-187.75"/>
<polygon fill="midnightblue" stroke="midnightblue" points="302.5,-214.08 306,-224.08 309.5,-214.08 302.5,-214.08"/>
</g>
<!-- Node6 -->
<g id="node6" class="node">
<title>Node6</title>
<g id="a_node6"><a xlink:href="arch_2power64-linux_2odp_2api_2abi_2byteorder_8h_source.html" target="_top" xlink:title=" ">
<polygon fill="white" stroke="black" points="360,-168.5 360,-187.5 432,-187.5 432,-168.5 360,-168.5"/>
<text text-anchor="middle" x="396" y="-175.5" font-family="Helvetica,sans-Serif" font-size="10.00">byteorder.h</text>
</a>
</g>
</g>
<!-- Node1&#45;&gt;Node6 -->
<g id="edge5" class="edge">
<title>Node1&#45;&gt;Node6</title>
<path fill="none" stroke="midnightblue" d="M329.04,-219.18C345.6,-209.24 367.42,-196.15 381.58,-187.65"/>
<polygon fill="midnightblue" stroke="midnightblue" points="327.23,-216.18 320.46,-224.32 330.84,-222.18 327.23,-216.18"/>
</g>
<!-- Node7 -->
<g id="node7" class="node">
<title>Node7</title>
<g id="a_node7"><a xlink:href="arch_2x86__32-linux_2odp_2api_2abi_2byteorder_8h_source.html" target="_top" xlink:title=" ">
<polygon fill="white" stroke="black" points="450,-168.5 450,-187.5 522,-187.5 522,-168.5 450,-168.5"/>
<text text-anchor="middle" x="486" y="-175.5" font-family="Helvetica,sans-Serif" font-size="10.00">byteorder.h</text>
</a>
</g>
</g>
<!-- Node1&#45;&gt;Node7 -->
<g id="edge6" class="edge">
<title>Node1&#45;&gt;Node7</title>
<path fill="none" stroke="midnightblue" d="M344.11,-221.57C378.06,-211.38 426.99,-196.7 457.61,-187.52"/>
<polygon fill="midnightblue" stroke="midnightblue" points="343.09,-218.22 334.52,-224.44 345.11,-224.92 343.09,-218.22"/>
</g>
<!-- Node8 -->
<g id="node8" class="node">
<title>Node8</title>
<g id="a_node8"><a xlink:href="arch_2x86__64-linux_2odp_2api_2abi_2byteorder_8h_source.html" target="_top" xlink:title=" ">
<polygon fill="white" stroke="black" points="540,-168.5 540,-187.5 612,-187.5 612,-168.5 540,-168.5"/>
<text text-anchor="middle" x="576" y="-175.5" font-family="Helvetica,sans-Serif" font-size="10.00">byteorder.h</text>
</a>
</g>
</g>
<!-- Node1&#45;&gt;Node8 -->
<g id="edge7" class="edge">
<title>Node1&#45;&gt;Node8</title>
<path fill="none" stroke="midnightblue" d="M351.95,-223.81C404.97,-213.21 491.07,-195.99 539.65,-186.27"/>
<polygon fill="midnightblue" stroke="midnightblue" points="351.25,-220.38 342.13,-225.77 352.63,-227.24 351.25,-220.38"/>
</g>
<!-- Node9 -->
<g id="node9" class="node">
<title>Node9</title>
<g id="a_node9"><a xlink:href="api_2byteorder_8h.html" target="_top" xlink:title=" ">
<polygon fill="white" stroke="black" points="540,-112.5 540,-131.5 612,-131.5 612,-112.5 540,-112.5"/>
<text text-anchor="middle" x="576" y="-119.5" font-family="Helvetica,sans-Serif" font-size="10.00">byteorder.h</text>
</a>
</g>
</g>
<!-- Node8&#45;&gt;Node9 -->
<g id="edge8" class="edge">
<title>Node8&#45;&gt;Node9</title>
<path fill="none" stroke="midnightblue" d="M576,-157.8C576,-148.91 576,-138.78 576,-131.75"/>
<polygon fill="midnightblue" stroke="midnightblue" points="572.5,-158.08 576,-168.08 579.5,-158.08 572.5,-158.08"/>
</g>
<!-- Node10 -->
<g id="node10" class="node">
<title>Node10</title>
<g id="a_node10"><a xlink:href="odp__api_8h.html" target="_top" xlink:title=" ">
<polygon fill="white" stroke="black" points="544,-56.5 544,-75.5 608,-75.5 608,-56.5 544,-56.5"/>
<text text-anchor="middle" x="576" y="-63.5" font-family="Helvetica,sans-Serif" font-size="10.00">odp_api.h</text>
</a>
</g>
</g>
<!-- Node9&#45;&gt;Node10 -->
<g id="edge9" class="edge">
<title>Node9&#45;&gt;Node10</title>
<path fill="none" stroke="midnightblue" d="M576,-101.8C576,-92.91 576,-82.78 576,-75.75"/>
<polygon fill="midnightblue" stroke="midnightblue" points="572.5,-102.08 576,-112.08 579.5,-102.08 572.5,-102.08"/>
</g>
<!-- Node11 -->
<g id="node11" class="node">
<title>Node11</title>
<g id="a_node11"><a xlink:href="odp_8h.html" target="_top" xlink:title=" ">
<polygon fill="white" stroke="black" points="554,-0.5 554,-19.5 598,-19.5 598,-0.5 554,-0.5"/>
<text text-anchor="middle" x="576" y="-7.5" font-family="Helvetica,sans-Serif" font-size="10.00">odp.h</text>
</a>
</g>
</g>
<!-- Node10&#45;&gt;Node11 -->
<g id="edge10" class="edge">
<title>Node10&#45;&gt;Node11</title>
<path fill="none" stroke="midnightblue" d="M576,-45.8C576,-36.91 576,-26.78 576,-19.75"/>
<polygon fill="midnightblue" stroke="midnightblue" points="572.5,-46.08 576,-56.08 579.5,-46.08 572.5,-46.08"/>
</g>
</g>
</svg>
