<?xml version="1.0" encoding="UTF-8" standalone="no"?>
<!DOCTYPE svg PUBLIC "-//W3C//DTD SVG 1.1//EN"
 "http://www.w3.org/Graphics/SVG/1.1/DTD/svg11.dtd">
<!-- Generated by graphviz version 2.43.0 (0)
 -->
<!-- Title: schedule.h Pages: 1 -->
<svg width="1349pt" height="912pt"
 viewBox="0.00 0.00 1349.00 912.00" xmlns="http://www.w3.org/2000/svg" xmlns:xlink="http://www.w3.org/1999/xlink">
<g id="graph0" class="graph" transform="scale(1 1) rotate(0) translate(4 908)">
<title>schedule.h</title>
<polygon fill="white" stroke="transparent" points="-4,4 -4,-908 1345,-908 1345,4 -4,4"/>
<!-- Node1 -->
<g id="node1" class="node">
<title>Node1</title>
<g id="a_node1"><a xlink:title=" ">
<polygon fill="#bfbfbf" stroke="black" points="317.5,-884.5 317.5,-903.5 386.5,-903.5 386.5,-884.5 317.5,-884.5"/>
<text text-anchor="middle" x="352" y="-891.5" font-family="Helvetica,sans-Serif" font-size="10.00">schedule.h</text>
</a>
</g>
</g>
<!-- Node2 -->
<g id="node2" class="node">
<title>Node2</title>
<g id="a_node2"><a xlink:href="visibility__begin_8h_source.html" target="_top" xlink:title=" ">
<polygon fill="white" stroke="black" points="290.5,-0.5 290.5,-19.5 411.5,-19.5 411.5,-0.5 290.5,-0.5"/>
<text text-anchor="middle" x="351" y="-7.5" font-family="Helvetica,sans-Serif" font-size="10.00">odp/visibility_begin.h</text>
</a>
</g>
</g>
<!-- Node1&#45;&gt;Node2 -->
<g id="edge1" class="edge">
<title>Node1&#45;&gt;Node2</title>
<path fill="none" stroke="midnightblue" d="M317.29,-889.63C228.48,-880.06 0,-849.03 0,-783 0,-783 0,-783 0,-121 0,-75.19 38.23,-74.82 80,-56 143.86,-27.22 223.63,-16.65 280.05,-12.87"/>
<polygon fill="midnightblue" stroke="midnightblue" points="280.54,-16.35 290.3,-12.24 280.11,-9.36 280.54,-16.35"/>
</g>
<!-- Node3 -->
<g id="node3" class="node">
<title>Node3</title>
<g id="a_node3"><a xlink:href="api_2std__types_8h.html" target="_top" xlink:title=" ">
<polygon fill="white" stroke="black" points="829,-224.5 829,-243.5 941,-243.5 941,-224.5 829,-224.5"/>
<text text-anchor="middle" x="885" y="-231.5" font-family="Helvetica,sans-Serif" font-size="10.00">odp/api/std_types.h</text>
</a>
</g>
</g>
<!-- Node1&#45;&gt;Node3 -->
<g id="edge2" class="edge">
<title>Node1&#45;&gt;Node3</title>
<path fill="none" stroke="midnightblue" d="M386.68,-892.54C553.45,-889.87 1265,-873.2 1265,-783 1265,-783 1265,-783 1265,-725 1265,-490.73 990.42,-300.68 908.07,-248.95"/>
<polygon fill="midnightblue" stroke="midnightblue" points="909.78,-245.88 899.43,-243.59 906.08,-251.83 909.78,-245.88"/>
</g>
<!-- Node10 -->
<g id="node10" class="node">
<title>Node10</title>
<g id="a_node10"><a xlink:href="visibility__end_8h_source.html" target="_top" xlink:title=" ">
<polygon fill="white" stroke="black" points="1076,-0.5 1076,-19.5 1188,-19.5 1188,-0.5 1076,-0.5"/>
<text text-anchor="middle" x="1132" y="-7.5" font-family="Helvetica,sans-Serif" font-size="10.00">odp/visibility_end.h</text>
</a>
</g>
</g>
<!-- Node1&#45;&gt;Node10 -->
<g id="edge70" class="edge">
<title>Node1&#45;&gt;Node10</title>
<path fill="none" stroke="midnightblue" d="M386.62,-892.86C561.67,-891.73 1341,-881.15 1341,-783 1341,-783 1341,-783 1341,-121 1341,-55.36 1259.27,-28.8 1198.03,-18.11"/>
<polygon fill="midnightblue" stroke="midnightblue" points="1198.44,-14.63 1188.01,-16.47 1197.31,-21.54 1198.44,-14.63"/>
</g>
<!-- Node11 -->
<g id="node11" class="node">
<title>Node11</title>
<g id="a_node11"><a xlink:href="api_2event_8h.html" target="_top" xlink:title=" ">
<polygon fill="white" stroke="black" points="389,-828.5 389,-847.5 481,-847.5 481,-828.5 389,-828.5"/>
<text text-anchor="middle" x="435" y="-835.5" font-family="Helvetica,sans-Serif" font-size="10.00">odp/api/event.h</text>
</a>
</g>
</g>
<!-- Node1&#45;&gt;Node11 -->
<g id="edge13" class="edge">
<title>Node1&#45;&gt;Node11</title>
<path fill="none" stroke="midnightblue" d="M365.34,-884.32C378.16,-875.98 397.78,-863.21 412.94,-853.35"/>
<polygon fill="midnightblue" stroke="midnightblue" points="415.22,-856.04 421.7,-847.65 411.41,-850.17 415.22,-856.04"/>
</g>
<!-- Node29 -->
<g id="node29" class="node">
<title>Node29</title>
<g id="a_node29"><a xlink:href="api_2queue__types_8h.html" target="_top" xlink:title=" ">
<polygon fill="white" stroke="black" points="515.5,-476 515.5,-495 642.5,-495 642.5,-476 515.5,-476"/>
<text text-anchor="middle" x="579" y="-483" font-family="Helvetica,sans-Serif" font-size="10.00">odp/api/queue_types.h</text>
</a>
</g>
</g>
<!-- Node1&#45;&gt;Node29 -->
<g id="edge62" class="edge">
<title>Node1&#45;&gt;Node29</title>
<path fill="none" stroke="midnightblue" d="M352,-884.44C352,-865.94 352,-820.81 352,-783 352,-783 352,-783 352,-613 352,-541.44 439.14,-510 505.43,-496.43"/>
<polygon fill="midnightblue" stroke="midnightblue" points="506.32,-499.82 515.47,-494.47 504.98,-492.95 506.32,-499.82"/>
</g>
<!-- Node32 -->
<g id="node32" class="node">
<title>Node32</title>
<g id="a_node32"><a xlink:href="api_2schedule__types_8h.html" target="_top" xlink:title=" ">
<polygon fill="white" stroke="black" points="459,-347.5 459,-366.5 599,-366.5 599,-347.5 459,-347.5"/>
<text text-anchor="middle" x="529" y="-354.5" font-family="Helvetica,sans-Serif" font-size="10.00">odp/api/schedule_types.h</text>
</a>
</g>
</g>
<!-- Node1&#45;&gt;Node32 -->
<g id="edge63" class="edge">
<title>Node1&#45;&gt;Node32</title>
<path fill="none" stroke="midnightblue" d="M317.1,-887.85C264.5,-877.88 171,-850.66 171,-783 171,-783 171,-783 171,-669 171,-499.97 401.25,-402.03 492.44,-369.87"/>
<polygon fill="midnightblue" stroke="midnightblue" points="493.79,-373.11 502.09,-366.53 491.5,-366.5 493.79,-373.11"/>
</g>
<!-- Node37 -->
<g id="node37" class="node">
<title>Node37</title>
<g id="a_node37"><a xlink:href="api_2thrmask_8h.html" target="_top" xlink:title=" ">
<polygon fill="white" stroke="black" points="80.5,-347.5 80.5,-366.5 185.5,-366.5 185.5,-347.5 80.5,-347.5"/>
<text text-anchor="middle" x="133" y="-354.5" font-family="Helvetica,sans-Serif" font-size="10.00">odp/api/thrmask.h</text>
</a>
</g>
</g>
<!-- Node1&#45;&gt;Node37 -->
<g id="edge64" class="edge">
<title>Node1&#45;&gt;Node37</title>
<path fill="none" stroke="midnightblue" d="M317.3,-891.09C255.55,-885.61 133,-864.48 133,-783 133,-783 133,-783 133,-484.5 133,-446.2 133,-401.38 133,-376.7"/>
<polygon fill="midnightblue" stroke="midnightblue" points="136.5,-376.59 133,-366.59 129.5,-376.59 136.5,-376.59"/>
</g>
<!-- Node4 -->
<g id="node4" class="node">
<title>Node4</title>
<g id="a_node4"><a xlink:title=" ">
<polygon fill="white" stroke="#bfbfbf" points="661,-168.5 661,-187.5 791,-187.5 791,-168.5 661,-168.5"/>
<text text-anchor="middle" x="726" y="-175.5" font-family="Helvetica,sans-Serif" font-size="10.00">odp/api/abi/std_types.h</text>
</a>
</g>
</g>
<!-- Node3&#45;&gt;Node4 -->
<g id="edge3" class="edge">
<title>Node3&#45;&gt;Node4</title>
<path fill="none" stroke="midnightblue" d="M859.81,-224.44C833.06,-215.36 790.6,-200.94 760.69,-190.78"/>
<polygon fill="midnightblue" stroke="midnightblue" points="761.67,-187.42 751.08,-187.52 759.42,-194.05 761.67,-187.42"/>
</g>
<!-- Node5 -->
<g id="node5" class="node">
<title>Node5</title>
<g id="a_node5"><a xlink:href="api_2spec_2std__types_8h.html" target="_top" xlink:title=" ">
<polygon fill="white" stroke="black" points="809.5,-168.5 809.5,-187.5 946.5,-187.5 946.5,-168.5 809.5,-168.5"/>
<text text-anchor="middle" x="878" y="-175.5" font-family="Helvetica,sans-Serif" font-size="10.00">odp/api/spec/std_types.h</text>
</a>
</g>
</g>
<!-- Node3&#45;&gt;Node5 -->
<g id="edge4" class="edge">
<title>Node3&#45;&gt;Node5</title>
<path fill="none" stroke="midnightblue" d="M883.84,-224.08C882.92,-216.93 881.58,-206.64 880.42,-197.69"/>
<polygon fill="midnightblue" stroke="midnightblue" points="883.89,-197.22 879.13,-187.75 876.95,-198.12 883.89,-197.22"/>
</g>
<!-- Node5&#45;&gt;Node2 -->
<g id="edge5" class="edge">
<title>Node5&#45;&gt;Node2</title>
<path fill="none" stroke="midnightblue" d="M841.86,-168.42C744.66,-145.32 483.8,-83.06 466,-76 431.33,-62.26 394.31,-39.75 371.91,-25.16"/>
<polygon fill="midnightblue" stroke="midnightblue" points="373.8,-22.21 363.53,-19.62 369.94,-28.05 373.8,-22.21"/>
</g>
<!-- Node6 -->
<g id="node6" class="node">
<title>Node6</title>
<g id="a_node6"><a xlink:title=" ">
<polygon fill="white" stroke="#bfbfbf" points="736.5,-112.5 736.5,-131.5 789.5,-131.5 789.5,-112.5 736.5,-112.5"/>
<text text-anchor="middle" x="763" y="-119.5" font-family="Helvetica,sans-Serif" font-size="10.00">stdint.h</text>
</a>
</g>
</g>
<!-- Node5&#45;&gt;Node6 -->
<g id="edge6" class="edge">
<title>Node5&#45;&gt;Node6</title>
<path fill="none" stroke="midnightblue" d="M859.78,-168.44C841.1,-159.68 811.84,-145.94 790.38,-135.86"/>
<polygon fill="midnightblue" stroke="midnightblue" points="791.68,-132.6 781.14,-131.52 788.7,-138.93 791.68,-132.6"/>
</g>
<!-- Node7 -->
<g id="node7" class="node">
<title>Node7</title>
<g id="a_node7"><a xlink:href="api_2align_8h.html" target="_top" xlink:title=" ">
<polygon fill="white" stroke="black" points="807.5,-112.5 807.5,-131.5 896.5,-131.5 896.5,-112.5 807.5,-112.5"/>
<text text-anchor="middle" x="852" y="-119.5" font-family="Helvetica,sans-Serif" font-size="10.00">odp/api/align.h</text>
</a>
</g>
</g>
<!-- Node5&#45;&gt;Node7 -->
<g id="edge7" class="edge">
<title>Node5&#45;&gt;Node7</title>
<path fill="none" stroke="midnightblue" d="M873.71,-168.08C870.15,-160.69 864.98,-149.95 860.58,-140.81"/>
<polygon fill="midnightblue" stroke="midnightblue" points="863.71,-139.24 856.21,-131.75 857.4,-142.28 863.71,-139.24"/>
</g>
<!-- Node5&#45;&gt;Node10 -->
<g id="edge12" class="edge">
<title>Node5&#45;&gt;Node10</title>
<path fill="none" stroke="midnightblue" d="M890.81,-168.41C920.57,-148.47 996.74,-97.61 1061,-56 1077.28,-45.46 1095.79,-33.74 1109.83,-24.9"/>
<polygon fill="midnightblue" stroke="midnightblue" points="1111.74,-27.83 1118.34,-19.55 1108.01,-21.91 1111.74,-27.83"/>
</g>
<!-- Node8 -->
<g id="node8" class="node">
<title>Node8</title>
<g id="a_node8"><a xlink:title=" ">
<polygon fill="white" stroke="#bfbfbf" points="637.5,-56.5 637.5,-75.5 744.5,-75.5 744.5,-56.5 637.5,-56.5"/>
<text text-anchor="middle" x="691" y="-63.5" font-family="Helvetica,sans-Serif" font-size="10.00">odp/api/abi/align.h</text>
</a>
</g>
</g>
<!-- Node7&#45;&gt;Node8 -->
<g id="edge8" class="edge">
<title>Node7&#45;&gt;Node8</title>
<path fill="none" stroke="midnightblue" d="M826.49,-112.44C799.4,-103.36 756.41,-88.94 726.13,-78.78"/>
<polygon fill="midnightblue" stroke="midnightblue" points="726.99,-75.38 716.39,-75.52 724.76,-82.01 726.99,-75.38"/>
</g>
<!-- Node9 -->
<g id="node9" class="node">
<title>Node9</title>
<g id="a_node9"><a xlink:href="api_2spec_2align_8h.html" target="_top" xlink:title=" ">
<polygon fill="white" stroke="black" points="763,-56.5 763,-75.5 877,-75.5 877,-56.5 763,-56.5"/>
<text text-anchor="middle" x="820" y="-63.5" font-family="Helvetica,sans-Serif" font-size="10.00">odp/api/spec/align.h</text>
</a>
</g>
</g>
<!-- Node7&#45;&gt;Node9 -->
<g id="edge9" class="edge">
<title>Node7&#45;&gt;Node9</title>
<path fill="none" stroke="midnightblue" d="M846.72,-112.08C842.29,-104.61 835.84,-93.72 830.38,-84.52"/>
<polygon fill="midnightblue" stroke="midnightblue" points="833.29,-82.57 825.19,-75.75 827.27,-86.14 833.29,-82.57"/>
</g>
<!-- Node9&#45;&gt;Node2 -->
<g id="edge10" class="edge">
<title>Node9&#45;&gt;Node2</title>
<path fill="none" stroke="midnightblue" d="M762.77,-57.11C759.81,-56.73 756.87,-56.36 754,-56 637.76,-41.59 502.38,-26.9 421.84,-18.38"/>
<polygon fill="midnightblue" stroke="midnightblue" points="422.13,-14.89 411.82,-17.33 421.4,-21.86 422.13,-14.89"/>
</g>
<!-- Node9&#45;&gt;Node10 -->
<g id="edge11" class="edge">
<title>Node9&#45;&gt;Node10</title>
<path fill="none" stroke="midnightblue" d="M869.44,-56.44C924.66,-46.89 1014.02,-31.42 1072.89,-21.23"/>
<polygon fill="midnightblue" stroke="midnightblue" points="1073.54,-24.67 1082.79,-19.52 1072.34,-17.77 1073.54,-24.67"/>
</g>
<!-- Node12 -->
<g id="node12" class="node">
<title>Node12</title>
<g id="a_node12"><a xlink:title=" ">
<polygon fill="white" stroke="#bfbfbf" points="380,-660.5 380,-679.5 490,-679.5 490,-660.5 380,-660.5"/>
<text text-anchor="middle" x="435" y="-667.5" font-family="Helvetica,sans-Serif" font-size="10.00">odp/api/abi/event.h</text>
</a>
</g>
</g>
<!-- Node11&#45;&gt;Node12 -->
<g id="edge14" class="edge">
<title>Node11&#45;&gt;Node12</title>
<path fill="none" stroke="midnightblue" d="M435,-828.08C435,-801.95 435,-725.21 435,-689.58"/>
<polygon fill="midnightblue" stroke="midnightblue" points="438.5,-689.57 435,-679.57 431.5,-689.57 438.5,-689.57"/>
</g>
<!-- Node13 -->
<g id="node13" class="node">
<title>Node13</title>
<g id="a_node13"><a xlink:href="api_2spec_2event_8h.html" target="_top" xlink:title=" ">
<polygon fill="white" stroke="black" points="525,-772.5 525,-791.5 643,-791.5 643,-772.5 525,-772.5"/>
<text text-anchor="middle" x="584" y="-779.5" font-family="Helvetica,sans-Serif" font-size="10.00">odp/api/spec/event.h</text>
</a>
</g>
</g>
<!-- Node11&#45;&gt;Node13 -->
<g id="edge15" class="edge">
<title>Node11&#45;&gt;Node13</title>
<path fill="none" stroke="midnightblue" d="M458.61,-828.44C483.46,-819.44 522.77,-805.19 550.75,-795.05"/>
<polygon fill="midnightblue" stroke="midnightblue" points="552.29,-798.21 560.5,-791.52 549.91,-791.63 552.29,-798.21"/>
</g>
<!-- Node13&#45;&gt;Node2 -->
<g id="edge16" class="edge">
<title>Node13&#45;&gt;Node2</title>
<path fill="none" stroke="midnightblue" d="M558.78,-772.46C517.21,-757.66 432.75,-724.52 371,-680 170.63,-535.53 38,-482.02 38,-235 38,-235 38,-235 38,-121 38,-69.79 189.04,-36.64 281.28,-21.18"/>
<polygon fill="midnightblue" stroke="midnightblue" points="282.09,-24.59 291.39,-19.51 280.95,-17.69 282.09,-24.59"/>
</g>
<!-- Node13&#45;&gt;Node10 -->
<g id="edge61" class="edge">
<title>Node13&#45;&gt;Node10</title>
<path fill="none" stroke="midnightblue" d="M643.14,-779.94C815.14,-775.26 1303,-750.08 1303,-615 1303,-615 1303,-615 1303,-121 1303,-64.74 1236.72,-35.9 1186.69,-22.14"/>
<polygon fill="midnightblue" stroke="midnightblue" points="1187.49,-18.73 1176.93,-19.58 1185.72,-25.5 1187.49,-18.73"/>
</g>
<!-- Node14 -->
<g id="node14" class="node">
<title>Node14</title>
<g id="a_node14"><a xlink:href="api_2packet_8h.html" target="_top" xlink:title=" ">
<polygon fill="white" stroke="black" points="596.5,-716.5 596.5,-735.5 693.5,-735.5 693.5,-716.5 596.5,-716.5"/>
<text text-anchor="middle" x="645" y="-723.5" font-family="Helvetica,sans-Serif" font-size="10.00">odp/api/packet.h</text>
</a>
</g>
</g>
<!-- Node13&#45;&gt;Node14 -->
<g id="edge17" class="edge">
<title>Node13&#45;&gt;Node14</title>
<path fill="none" stroke="midnightblue" d="M593.8,-772.32C602.82,-764.34 616.41,-752.31 627.32,-742.65"/>
<polygon fill="midnightblue" stroke="midnightblue" points="629.85,-745.08 635.02,-735.83 625.21,-739.84 629.85,-745.08"/>
</g>
<!-- Node14&#45;&gt;Node3 -->
<g id="edge18" class="edge">
<title>Node14&#45;&gt;Node3</title>
<path fill="none" stroke="midnightblue" d="M623.05,-716.47C596.41,-704.85 557.14,-682.88 575,-660 615.6,-608 671.23,-669.5 719,-624 726.23,-617.11 817.21,-288.13 823,-280 832.24,-267.01 846.43,-256.31 858.9,-248.61"/>
<polygon fill="midnightblue" stroke="midnightblue" points="860.71,-251.61 867.58,-243.55 857.18,-245.57 860.71,-251.61"/>
</g>
<!-- Node14&#45;&gt;Node12 -->
<g id="edge19" class="edge">
<title>Node14&#45;&gt;Node12</title>
<path fill="none" stroke="midnightblue" d="M611.72,-716.44C575.55,-707.14 517.62,-692.25 478.02,-682.06"/>
<polygon fill="midnightblue" stroke="midnightblue" points="478.68,-678.62 468.12,-679.52 476.93,-685.4 478.68,-678.62"/>
</g>
<!-- Node15 -->
<g id="node15" class="node">
<title>Node15</title>
<g id="a_node15"><a xlink:title=" ">
<polygon fill="white" stroke="#bfbfbf" points="724.5,-660.5 724.5,-679.5 853.5,-679.5 853.5,-660.5 724.5,-660.5"/>
<text text-anchor="middle" x="789" y="-667.5" font-family="Helvetica,sans-Serif" font-size="10.00">odp/api/abi/packet_io.h</text>
</a>
</g>
</g>
<!-- Node14&#45;&gt;Node15 -->
<g id="edge20" class="edge">
<title>Node14&#45;&gt;Node15</title>
<path fill="none" stroke="midnightblue" d="M667.82,-716.44C691.83,-707.44 729.83,-693.19 756.87,-683.05"/>
<polygon fill="midnightblue" stroke="midnightblue" points="758.16,-686.3 766.29,-679.52 755.7,-679.75 758.16,-686.3"/>
</g>
<!-- Node16 -->
<g id="node16" class="node">
<title>Node16</title>
<g id="a_node16"><a xlink:title=" ">
<polygon fill="white" stroke="#bfbfbf" points="465,-537.5 465,-567.5 571,-567.5 571,-537.5 465,-537.5"/>
<text text-anchor="start" x="473" y="-555.5" font-family="Helvetica,sans-Serif" font-size="10.00">odp/api/abi/packet</text>
<text text-anchor="middle" x="518" y="-544.5" font-family="Helvetica,sans-Serif" font-size="10.00">_types.h</text>
</a>
</g>
</g>
<!-- Node14&#45;&gt;Node16 -->
<g id="edge21" class="edge">
<title>Node14&#45;&gt;Node16</title>
<path fill="none" stroke="midnightblue" d="M602.86,-716.46C581.53,-709.98 557.03,-698.84 542,-680 518.62,-650.69 515.58,-605.48 516.25,-577.79"/>
<polygon fill="midnightblue" stroke="midnightblue" points="519.75,-577.91 516.68,-567.77 512.76,-577.61 519.75,-577.91"/>
</g>
<!-- Node17 -->
<g id="node17" class="node">
<title>Node17</title>
<g id="a_node17"><a xlink:title=" ">
<polygon fill="white" stroke="#bfbfbf" points="871.5,-660.5 871.5,-679.5 986.5,-679.5 986.5,-660.5 871.5,-660.5"/>
<text text-anchor="middle" x="929" y="-667.5" font-family="Helvetica,sans-Serif" font-size="10.00">odp/api/abi/packet.h</text>
</a>
</g>
</g>
<!-- Node14&#45;&gt;Node17 -->
<g id="edge22" class="edge">
<title>Node14&#45;&gt;Node17</title>
<path fill="none" stroke="midnightblue" d="M690,-716.44C739.96,-706.94 820.6,-691.61 874.2,-681.42"/>
<polygon fill="midnightblue" stroke="midnightblue" points="875.04,-684.82 884.21,-679.52 873.73,-677.95 875.04,-684.82"/>
</g>
<!-- Node18 -->
<g id="node18" class="node">
<title>Node18</title>
<g id="a_node18"><a xlink:title=" ">
<polygon fill="white" stroke="#bfbfbf" points="1005,-660.5 1005,-679.5 1115,-679.5 1115,-660.5 1005,-660.5"/>
<text text-anchor="middle" x="1060" y="-667.5" font-family="Helvetica,sans-Serif" font-size="10.00">odp/api/abi/buffer.h</text>
</a>
</g>
</g>
<!-- Node14&#45;&gt;Node18 -->
<g id="edge23" class="edge">
<title>Node14&#45;&gt;Node18</title>
<path fill="none" stroke="midnightblue" d="M693.57,-718.96C759.41,-710.74 880.94,-695.41 994.9,-680.13"/>
<polygon fill="midnightblue" stroke="midnightblue" points="995.4,-683.6 1004.85,-678.8 994.47,-676.66 995.4,-683.6"/>
</g>
<!-- Node19 -->
<g id="node19" class="node">
<title>Node19</title>
<g id="a_node19"><a xlink:title=" ">
<polygon fill="white" stroke="#bfbfbf" points="1133,-660.5 1133,-679.5 1237,-679.5 1237,-660.5 1133,-660.5"/>
<text text-anchor="middle" x="1185" y="-667.5" font-family="Helvetica,sans-Serif" font-size="10.00">odp/api/abi/pool.h</text>
</a>
</g>
</g>
<!-- Node14&#45;&gt;Node19 -->
<g id="edge24" class="edge">
<title>Node14&#45;&gt;Node19</title>
<path fill="none" stroke="midnightblue" d="M693.71,-721.28C778.61,-714.61 959.45,-699.57 1122.56,-680.12"/>
<polygon fill="midnightblue" stroke="midnightblue" points="1123.27,-683.56 1132.78,-678.89 1122.43,-676.61 1123.27,-683.56"/>
</g>
<!-- Node20 -->
<g id="node20" class="node">
<title>Node20</title>
<g id="a_node20"><a xlink:href="api_2spec_2packet_8h.html" target="_top" xlink:title=" ">
<polygon fill="white" stroke="black" points="584,-660.5 584,-679.5 706,-679.5 706,-660.5 584,-660.5"/>
<text text-anchor="middle" x="645" y="-667.5" font-family="Helvetica,sans-Serif" font-size="10.00">odp/api/spec/packet.h</text>
</a>
</g>
</g>
<!-- Node14&#45;&gt;Node20 -->
<g id="edge25" class="edge">
<title>Node14&#45;&gt;Node20</title>
<path fill="none" stroke="midnightblue" d="M645,-716.08C645,-709.01 645,-698.86 645,-689.99"/>
<polygon fill="midnightblue" stroke="midnightblue" points="648.5,-689.75 645,-679.75 641.5,-689.75 648.5,-689.75"/>
</g>
<!-- Node20&#45;&gt;Node2 -->
<g id="edge26" class="edge">
<title>Node20&#45;&gt;Node2</title>
<path fill="none" stroke="midnightblue" d="M583.82,-661.77C465.75,-644.05 218,-586.93 218,-419.5 218,-419.5 218,-419.5 218,-121 218,-70.73 275.13,-39.1 314.5,-23.27"/>
<polygon fill="midnightblue" stroke="midnightblue" points="316.01,-26.45 324.09,-19.59 313.5,-19.91 316.01,-26.45"/>
</g>
<!-- Node20&#45;&gt;Node10 -->
<g id="edge60" class="edge">
<title>Node20&#45;&gt;Node10</title>
<path fill="none" stroke="midnightblue" d="M706.03,-661.14C795.07,-649.62 952.85,-628.97 979,-624 1107.61,-599.56 1265,-684.42 1265,-553.5 1265,-553.5 1265,-553.5 1265,-121 1265,-70.73 1207.87,-39.1 1168.5,-23.27"/>
<polygon fill="midnightblue" stroke="midnightblue" points="1169.5,-19.91 1158.91,-19.59 1166.99,-26.45 1169.5,-19.91"/>
</g>
<!-- Node21 -->
<g id="node21" class="node">
<title>Node21</title>
<g id="a_node21"><a xlink:href="api_2proto__stats__types_8h.html" target="_top" xlink:title=" ">
<polygon fill="white" stroke="black" points="776,-470.5 776,-500.5 886,-500.5 886,-470.5 776,-470.5"/>
<text text-anchor="start" x="784" y="-488.5" font-family="Helvetica,sans-Serif" font-size="10.00">odp/api/proto_stats</text>
<text text-anchor="middle" x="831" y="-477.5" font-family="Helvetica,sans-Serif" font-size="10.00">_types.h</text>
</a>
</g>
</g>
<!-- Node20&#45;&gt;Node21 -->
<g id="edge27" class="edge">
<title>Node20&#45;&gt;Node21</title>
<path fill="none" stroke="midnightblue" d="M681.07,-660.45C703.77,-653.61 732.55,-642.11 753,-624 788.66,-592.42 811.81,-540.47 823.03,-510.28"/>
<polygon fill="midnightblue" stroke="midnightblue" points="826.43,-511.17 826.5,-500.58 819.84,-508.81 826.43,-511.17"/>
</g>
<!-- Node24 -->
<g id="node24" class="node">
<title>Node24</title>
<g id="a_node24"><a xlink:href="api_2time_8h.html" target="_top" xlink:title=" ">
<polygon fill="white" stroke="black" points="1073.5,-286 1073.5,-305 1160.5,-305 1160.5,-286 1073.5,-286"/>
<text text-anchor="middle" x="1117" y="-293" font-family="Helvetica,sans-Serif" font-size="10.00">odp/api/time.h</text>
</a>
</g>
</g>
<!-- Node20&#45;&gt;Node24 -->
<g id="edge33" class="edge">
<title>Node20&#45;&gt;Node24</title>
<path fill="none" stroke="midnightblue" d="M698.65,-660.43C835.89,-638.15 1189,-578.39 1189,-553.5 1189,-553.5 1189,-553.5 1189,-417.5 1189,-384.4 1182.13,-375.32 1165,-347 1157,-333.77 1145.02,-321.16 1135.03,-311.85"/>
<polygon fill="midnightblue" stroke="midnightblue" points="1137.34,-309.22 1127.56,-305.14 1132.66,-314.43 1137.34,-309.22"/>
</g>
<!-- Node27 -->
<g id="node27" class="node">
<title>Node27</title>
<g id="a_node27"><a xlink:href="api_2packet__types_8h.html" target="_top" xlink:title=" ">
<polygon fill="white" stroke="black" points="580.5,-604.5 580.5,-623.5 709.5,-623.5 709.5,-604.5 580.5,-604.5"/>
<text text-anchor="middle" x="645" y="-611.5" font-family="Helvetica,sans-Serif" font-size="10.00">odp/api/packet_types.h</text>
</a>
</g>
</g>
<!-- Node20&#45;&gt;Node27 -->
<g id="edge39" class="edge">
<title>Node20&#45;&gt;Node27</title>
<path fill="none" stroke="midnightblue" d="M645,-660.08C645,-653.01 645,-642.86 645,-633.99"/>
<polygon fill="midnightblue" stroke="midnightblue" points="648.5,-633.75 645,-623.75 641.5,-633.75 648.5,-633.75"/>
</g>
<!-- Node22 -->
<g id="node22" class="node">
<title>Node22</title>
<g id="a_node22"><a xlink:title=" ">
<polygon fill="white" stroke="#bfbfbf" points="869,-403.5 869,-433.5 997,-433.5 997,-403.5 869,-403.5"/>
<text text-anchor="start" x="877" y="-421.5" font-family="Helvetica,sans-Serif" font-size="10.00">odp/api/abi/proto_stats</text>
<text text-anchor="middle" x="933" y="-410.5" font-family="Helvetica,sans-Serif" font-size="10.00">_types.h</text>
</a>
</g>
</g>
<!-- Node21&#45;&gt;Node22 -->
<g id="edge28" class="edge">
<title>Node21&#45;&gt;Node22</title>
<path fill="none" stroke="midnightblue" d="M853.13,-470.4C867.57,-461.2 886.6,-449.07 902.47,-438.95"/>
<polygon fill="midnightblue" stroke="midnightblue" points="904.36,-441.9 910.91,-433.58 900.6,-436 904.36,-441.9"/>
</g>
<!-- Node23 -->
<g id="node23" class="node">
<title>Node23</title>
<g id="a_node23"><a xlink:href="api_2spec_2proto__stats__types_8h.html" target="_top" xlink:title=" ">
<polygon fill="white" stroke="black" points="831.5,-280.5 831.5,-310.5 938.5,-310.5 938.5,-280.5 831.5,-280.5"/>
<text text-anchor="start" x="839.5" y="-298.5" font-family="Helvetica,sans-Serif" font-size="10.00">odp/api/spec/proto</text>
<text text-anchor="middle" x="885" y="-287.5" font-family="Helvetica,sans-Serif" font-size="10.00">_stats_types.h</text>
</a>
</g>
</g>
<!-- Node21&#45;&gt;Node23 -->
<g id="edge29" class="edge">
<title>Node21&#45;&gt;Node23</title>
<path fill="none" stroke="midnightblue" d="M835.06,-470.37C844.27,-438.31 866.83,-359.77 878.2,-320.16"/>
<polygon fill="midnightblue" stroke="midnightblue" points="881.57,-321.12 880.97,-310.54 874.84,-319.18 881.57,-321.12"/>
</g>
<!-- Node23&#45;&gt;Node2 -->
<g id="edge30" class="edge">
<title>Node23&#45;&gt;Node2</title>
<path fill="none" stroke="midnightblue" d="M851.68,-280.39C758.8,-240.81 498.8,-128.23 422,-76 400.98,-61.7 379.86,-41.44 366.19,-27.35"/>
<polygon fill="midnightblue" stroke="midnightblue" points="368.49,-24.69 359.06,-19.87 363.43,-29.52 368.49,-24.69"/>
</g>
<!-- Node23&#45;&gt;Node3 -->
<g id="edge31" class="edge">
<title>Node23&#45;&gt;Node3</title>
<path fill="none" stroke="midnightblue" d="M885,-280.4C885,-272.47 885,-262.46 885,-253.86"/>
<polygon fill="midnightblue" stroke="midnightblue" points="888.5,-253.66 885,-243.66 881.5,-253.66 888.5,-253.66"/>
</g>
<!-- Node23&#45;&gt;Node10 -->
<g id="edge32" class="edge">
<title>Node23&#45;&gt;Node10</title>
<path fill="none" stroke="midnightblue" d="M927.93,-280.4C972.85,-263.95 1043.33,-233.1 1091,-188 1111.99,-168.15 1115.48,-159.6 1124,-132 1134.72,-97.25 1134.62,-54.31 1133.41,-30.05"/>
<polygon fill="midnightblue" stroke="midnightblue" points="1136.89,-29.52 1132.78,-19.76 1129.9,-29.95 1136.89,-29.52"/>
</g>
<!-- Node24&#45;&gt;Node3 -->
<g id="edge34" class="edge">
<title>Node24&#45;&gt;Node3</title>
<path fill="none" stroke="midnightblue" d="M1083.76,-285.98C1042.76,-275.46 972.97,-257.56 927.95,-246.01"/>
<polygon fill="midnightblue" stroke="midnightblue" points="928.73,-242.6 918.18,-243.51 927,-249.38 928.73,-242.6"/>
</g>
<!-- Node25 -->
<g id="node25" class="node">
<title>Node25</title>
<g id="a_node25"><a xlink:title=" ">
<polygon fill="white" stroke="#bfbfbf" points="1055.5,-224.5 1055.5,-243.5 1160.5,-243.5 1160.5,-224.5 1055.5,-224.5"/>
<text text-anchor="middle" x="1108" y="-231.5" font-family="Helvetica,sans-Serif" font-size="10.00">odp/api/abi/time.h</text>
</a>
</g>
</g>
<!-- Node24&#45;&gt;Node25 -->
<g id="edge35" class="edge">
<title>Node24&#45;&gt;Node25</title>
<path fill="none" stroke="midnightblue" d="M1115.71,-285.98C1114.44,-277.58 1112.46,-264.48 1110.82,-253.66"/>
<polygon fill="midnightblue" stroke="midnightblue" points="1114.24,-252.87 1109.29,-243.51 1107.32,-253.92 1114.24,-252.87"/>
</g>
<!-- Node26 -->
<g id="node26" class="node">
<title>Node26</title>
<g id="a_node26"><a xlink:href="api_2spec_2time_8h.html" target="_top" xlink:title=" ">
<polygon fill="white" stroke="black" points="895.5,-56.5 895.5,-75.5 1008.5,-75.5 1008.5,-56.5 895.5,-56.5"/>
<text text-anchor="middle" x="952" y="-63.5" font-family="Helvetica,sans-Serif" font-size="10.00">odp/api/spec/time.h</text>
</a>
</g>
</g>
<!-- Node24&#45;&gt;Node26 -->
<g id="edge36" class="edge">
<title>Node24&#45;&gt;Node26</title>
<path fill="none" stroke="midnightblue" d="M1101.23,-285.96C1085.9,-277.06 1062.7,-261.93 1047,-244 1002.84,-193.57 971.44,-119.09 958.53,-85.1"/>
<polygon fill="midnightblue" stroke="midnightblue" points="961.76,-83.73 955,-75.57 955.19,-86.17 961.76,-83.73"/>
</g>
<!-- Node26&#45;&gt;Node2 -->
<g id="edge37" class="edge">
<title>Node26&#45;&gt;Node2</title>
<path fill="none" stroke="midnightblue" d="M895.5,-57.1C892.29,-56.71 889.1,-56.34 886,-56 720.07,-37.72 524.45,-22.99 421.91,-15.79"/>
<polygon fill="midnightblue" stroke="midnightblue" points="421.89,-12.28 411.67,-15.08 421.41,-19.27 421.89,-12.28"/>
</g>
<!-- Node26&#45;&gt;Node10 -->
<g id="edge38" class="edge">
<title>Node26&#45;&gt;Node10</title>
<path fill="none" stroke="midnightblue" d="M980.52,-56.44C1011.07,-47.28 1059.71,-32.69 1093.6,-22.52"/>
<polygon fill="midnightblue" stroke="midnightblue" points="1095.04,-25.74 1103.61,-19.52 1093.03,-19.04 1095.04,-25.74"/>
</g>
<!-- Node27&#45;&gt;Node16 -->
<g id="edge40" class="edge">
<title>Node27&#45;&gt;Node16</title>
<path fill="none" stroke="midnightblue" d="M626.8,-604.48C608.72,-596 580.41,-582.74 557.19,-571.86"/>
<polygon fill="midnightblue" stroke="midnightblue" points="558.47,-568.6 547.93,-567.52 555.5,-574.93 558.47,-568.6"/>
</g>
<!-- Node28 -->
<g id="node28" class="node">
<title>Node28</title>
<g id="a_node28"><a xlink:href="api_2spec_2packet__types_8h.html" target="_top" xlink:title=" ">
<polygon fill="white" stroke="black" points="589.5,-537.5 589.5,-567.5 702.5,-567.5 702.5,-537.5 589.5,-537.5"/>
<text text-anchor="start" x="597.5" y="-555.5" font-family="Helvetica,sans-Serif" font-size="10.00">odp/api/spec/packet</text>
<text text-anchor="middle" x="646" y="-544.5" font-family="Helvetica,sans-Serif" font-size="10.00">_types.h</text>
</a>
</g>
</g>
<!-- Node27&#45;&gt;Node28 -->
<g id="edge41" class="edge">
<title>Node27&#45;&gt;Node28</title>
<path fill="none" stroke="midnightblue" d="M645.14,-604.48C645.26,-597.47 645.43,-587.19 645.59,-577.7"/>
<polygon fill="midnightblue" stroke="midnightblue" points="649.1,-577.58 645.76,-567.52 642.1,-577.46 649.1,-577.58"/>
</g>
<!-- Node28&#45;&gt;Node2 -->
<g id="edge42" class="edge">
<title>Node28&#45;&gt;Node2</title>
<path fill="none" stroke="midnightblue" d="M593.68,-537.49C495.63,-510.48 294,-451.11 294,-419.5 294,-419.5 294,-419.5 294,-121 294,-84.3 319.32,-47.66 336.21,-27.3"/>
<polygon fill="midnightblue" stroke="midnightblue" points="338.95,-29.48 342.83,-19.62 333.65,-24.9 338.95,-29.48"/>
</g>
<!-- Node28&#45;&gt;Node10 -->
<g id="edge59" class="edge">
<title>Node28&#45;&gt;Node10</title>
<path fill="none" stroke="midnightblue" d="M702.5,-547.21C848.5,-532.74 1227,-472.34 1227,-235 1227,-235 1227,-235 1227,-121 1227,-77.74 1184.39,-43.09 1156.25,-24.91"/>
<polygon fill="midnightblue" stroke="midnightblue" points="1158.03,-21.9 1147.69,-19.6 1154.34,-27.85 1158.03,-21.9"/>
</g>
<!-- Node28&#45;&gt;Node21 -->
<g id="edge43" class="edge">
<title>Node28&#45;&gt;Node21</title>
<path fill="none" stroke="midnightblue" d="M686.14,-537.4C714.02,-527.6 751.36,-514.48 781.15,-504.02"/>
<polygon fill="midnightblue" stroke="midnightblue" points="782.66,-507.19 790.94,-500.58 780.34,-500.59 782.66,-507.19"/>
</g>
<!-- Node28&#45;&gt;Node29 -->
<g id="edge44" class="edge">
<title>Node28&#45;&gt;Node29</title>
<path fill="none" stroke="midnightblue" d="M631.46,-537.4C620.81,-527.06 606.34,-513.02 595.3,-502.31"/>
<polygon fill="midnightblue" stroke="midnightblue" points="597.58,-499.65 587.96,-495.19 592.7,-504.67 597.58,-499.65"/>
</g>
<!-- Node30 -->
<g id="node30" class="node">
<title>Node30</title>
<g id="a_node30"><a xlink:title=" ">
<polygon fill="white" stroke="#bfbfbf" points="440.5,-409 440.5,-428 585.5,-428 585.5,-409 440.5,-409"/>
<text text-anchor="middle" x="513" y="-416" font-family="Helvetica,sans-Serif" font-size="10.00">odp/api/abi/queue_types.h</text>
</a>
</g>
</g>
<!-- Node29&#45;&gt;Node30 -->
<g id="edge45" class="edge">
<title>Node29&#45;&gt;Node30</title>
<path fill="none" stroke="midnightblue" d="M570.1,-475.73C559.61,-465.4 541.98,-448.04 529.08,-435.33"/>
<polygon fill="midnightblue" stroke="midnightblue" points="531.34,-432.65 521.76,-428.13 526.43,-437.64 531.34,-432.65"/>
</g>
<!-- Node31 -->
<g id="node31" class="node">
<title>Node31</title>
<g id="a_node31"><a xlink:href="api_2spec_2queue__types_8h.html" target="_top" xlink:title=" ">
<polygon fill="white" stroke="black" points="603.5,-403.5 603.5,-433.5 714.5,-433.5 714.5,-403.5 603.5,-403.5"/>
<text text-anchor="start" x="611.5" y="-421.5" font-family="Helvetica,sans-Serif" font-size="10.00">odp/api/spec/queue</text>
<text text-anchor="middle" x="659" y="-410.5" font-family="Helvetica,sans-Serif" font-size="10.00">_types.h</text>
</a>
</g>
</g>
<!-- Node29&#45;&gt;Node31 -->
<g id="edge46" class="edge">
<title>Node29&#45;&gt;Node31</title>
<path fill="none" stroke="midnightblue" d="M589.79,-475.73C601.02,-466.61 619,-452 633.81,-439.96"/>
<polygon fill="midnightblue" stroke="midnightblue" points="636.11,-442.61 641.66,-433.59 631.69,-437.18 636.11,-442.61"/>
</g>
<!-- Node31&#45;&gt;Node2 -->
<g id="edge47" class="edge">
<title>Node31&#45;&gt;Node2</title>
<path fill="none" stroke="midnightblue" d="M603.47,-404.82C551.69,-392.86 478.32,-375.54 450,-367 362.17,-340.52 256,-388.24 256,-296.5 256,-296.5 256,-296.5 256,-121 256,-90.2 260.64,-79.95 280,-56 290.99,-42.41 307.23,-31.68 321.41,-24.12"/>
<polygon fill="midnightblue" stroke="midnightblue" points="323.01,-27.24 330.36,-19.61 319.85,-20.99 323.01,-27.24"/>
</g>
<!-- Node31&#45;&gt;Node10 -->
<g id="edge58" class="edge">
<title>Node31&#45;&gt;Node10</title>
<path fill="none" stroke="midnightblue" d="M714.61,-409.31C840.14,-390.33 1137.13,-342.6 1170,-311 1195.1,-286.87 1189,-269.82 1189,-235 1189,-235 1189,-235 1189,-121 1189,-84.3 1163.68,-47.66 1146.79,-27.3"/>
<polygon fill="midnightblue" stroke="midnightblue" points="1149.35,-24.9 1140.17,-19.62 1144.05,-29.48 1149.35,-24.9"/>
</g>
<!-- Node31&#45;&gt;Node32 -->
<g id="edge48" class="edge">
<title>Node31&#45;&gt;Node32</title>
<path fill="none" stroke="midnightblue" d="M628.19,-403.4C606.67,-393.55 578.16,-380.5 557.23,-370.92"/>
<polygon fill="midnightblue" stroke="midnightblue" points="558.47,-367.64 547.92,-366.66 555.55,-374 558.47,-367.64"/>
</g>
<!-- Node35 -->
<g id="node35" class="node">
<title>Node35</title>
<g id="a_node35"><a xlink:href="deprecated_8h.html" target="_top" xlink:title=" ">
<polygon fill="white" stroke="black" points="617.5,-347.5 617.5,-366.5 736.5,-366.5 736.5,-347.5 617.5,-347.5"/>
<text text-anchor="middle" x="677" y="-354.5" font-family="Helvetica,sans-Serif" font-size="10.00">odp/api/deprecated.h</text>
</a>
</g>
</g>
<!-- Node31&#45;&gt;Node35 -->
<g id="edge54" class="edge">
<title>Node31&#45;&gt;Node35</title>
<path fill="none" stroke="midnightblue" d="M663.27,-403.4C665.72,-395.29 668.83,-385.01 671.47,-376.28"/>
<polygon fill="midnightblue" stroke="midnightblue" points="674.84,-377.24 674.38,-366.66 668.14,-375.22 674.84,-377.24"/>
</g>
<!-- Node33 -->
<g id="node33" class="node">
<title>Node33</title>
<g id="a_node33"><a xlink:title=" ">
<polygon fill="white" stroke="#bfbfbf" points="471.5,-280.5 471.5,-310.5 588.5,-310.5 588.5,-280.5 471.5,-280.5"/>
<text text-anchor="start" x="479.5" y="-298.5" font-family="Helvetica,sans-Serif" font-size="10.00">odp/api/abi/schedule</text>
<text text-anchor="middle" x="530" y="-287.5" font-family="Helvetica,sans-Serif" font-size="10.00">_types.h</text>
</a>
</g>
</g>
<!-- Node32&#45;&gt;Node33 -->
<g id="edge49" class="edge">
<title>Node32&#45;&gt;Node33</title>
<path fill="none" stroke="midnightblue" d="M529.14,-347.48C529.26,-340.47 529.43,-330.19 529.59,-320.7"/>
<polygon fill="midnightblue" stroke="midnightblue" points="533.1,-320.58 529.76,-310.52 526.1,-320.46 533.1,-320.58"/>
</g>
<!-- Node34 -->
<g id="node34" class="node">
<title>Node34</title>
<g id="a_node34"><a xlink:href="api_2spec_2schedule__types_8h.html" target="_top" xlink:title=" ">
<polygon fill="white" stroke="black" points="606.5,-280.5 606.5,-310.5 731.5,-310.5 731.5,-280.5 606.5,-280.5"/>
<text text-anchor="start" x="614.5" y="-298.5" font-family="Helvetica,sans-Serif" font-size="10.00">odp/api/spec/schedule</text>
<text text-anchor="middle" x="669" y="-287.5" font-family="Helvetica,sans-Serif" font-size="10.00">_types.h</text>
</a>
</g>
</g>
<!-- Node32&#45;&gt;Node34 -->
<g id="edge50" class="edge">
<title>Node32&#45;&gt;Node34</title>
<path fill="none" stroke="midnightblue" d="M549.06,-347.48C569.17,-338.93 600.76,-325.5 626.47,-314.57"/>
<polygon fill="midnightblue" stroke="midnightblue" points="628.17,-317.66 636,-310.52 625.43,-311.21 628.17,-317.66"/>
</g>
<!-- Node34&#45;&gt;Node2 -->
<g id="edge51" class="edge">
<title>Node34&#45;&gt;Node2</title>
<path fill="none" stroke="midnightblue" d="M618.62,-280.41C533.4,-255.85 370,-205.33 370,-179 370,-179 370,-179 370,-121 370,-88.49 361.84,-51.35 356.22,-29.61"/>
<polygon fill="midnightblue" stroke="midnightblue" points="359.54,-28.5 353.56,-19.75 352.78,-30.32 359.54,-28.5"/>
</g>
<!-- Node34&#45;&gt;Node3 -->
<g id="edge52" class="edge">
<title>Node34&#45;&gt;Node3</title>
<path fill="none" stroke="midnightblue" d="M719.92,-280.47C757.83,-270.03 808.92,-255.96 844.17,-246.25"/>
<polygon fill="midnightblue" stroke="midnightblue" points="845.41,-249.54 854.12,-243.51 843.55,-242.79 845.41,-249.54"/>
</g>
<!-- Node34&#45;&gt;Node10 -->
<g id="edge53" class="edge">
<title>Node34&#45;&gt;Node10</title>
<path fill="none" stroke="midnightblue" d="M694.15,-280.47C723.52,-264.63 773.96,-239.11 820,-224 938.06,-185.26 1005.85,-228.6 1084,-132 1109.15,-100.92 1122.46,-55.01 1128.29,-29.61"/>
<polygon fill="midnightblue" stroke="midnightblue" points="1131.78,-30.02 1130.45,-19.51 1124.93,-28.56 1131.78,-30.02"/>
</g>
<!-- Node36 -->
<g id="node36" class="node">
<title>Node36</title>
<g id="a_node36"><a xlink:href="spec_2deprecated_8h.html" target="_top" xlink:title=" ">
<polygon fill="white" stroke="black" points="474.5,-56.5 474.5,-75.5 619.5,-75.5 619.5,-56.5 474.5,-56.5"/>
<text text-anchor="middle" x="547" y="-63.5" font-family="Helvetica,sans-Serif" font-size="10.00">odp/api/spec/deprecated.h</text>
</a>
</g>
</g>
<!-- Node35&#45;&gt;Node36 -->
<g id="edge55" class="edge">
<title>Node35&#45;&gt;Node36</title>
<path fill="none" stroke="midnightblue" d="M698.48,-347.36C713.39,-340.09 732.11,-328.12 741,-311 747.35,-298.77 746.17,-292.77 741,-280 719.67,-227.26 690.44,-229.94 652,-188 618.51,-151.45 580.76,-107.14 560.91,-83.6"/>
<polygon fill="midnightblue" stroke="midnightblue" points="563.34,-81.05 554.23,-75.65 557.98,-85.55 563.34,-81.05"/>
</g>
<!-- Node36&#45;&gt;Node2 -->
<g id="edge56" class="edge">
<title>Node36&#45;&gt;Node2</title>
<path fill="none" stroke="midnightblue" d="M515.94,-56.44C482.4,-47.2 428.8,-32.44 391.86,-22.26"/>
<polygon fill="midnightblue" stroke="midnightblue" points="392.48,-18.8 381.91,-19.52 390.62,-25.55 392.48,-18.8"/>
</g>
<!-- Node36&#45;&gt;Node10 -->
<g id="edge57" class="edge">
<title>Node36&#45;&gt;Node10</title>
<path fill="none" stroke="midnightblue" d="M619.87,-56.93C622.95,-56.61 626.01,-56.3 629,-56 785.36,-40.43 969.31,-24.6 1065.6,-16.51"/>
<polygon fill="midnightblue" stroke="midnightblue" points="1066.09,-19.98 1075.77,-15.66 1065.51,-13.01 1066.09,-19.98"/>
</g>
<!-- Node38 -->
<g id="node38" class="node">
<title>Node38</title>
<g id="a_node38"><a xlink:title=" ">
<polygon fill="white" stroke="#bfbfbf" points="66.5,-286 66.5,-305 189.5,-305 189.5,-286 66.5,-286"/>
<text text-anchor="middle" x="128" y="-293" font-family="Helvetica,sans-Serif" font-size="10.00">odp/api/abi/thrmask.h</text>
</a>
</g>
</g>
<!-- Node37&#45;&gt;Node38 -->
<g id="edge65" class="edge">
<title>Node37&#45;&gt;Node38</title>
<path fill="none" stroke="midnightblue" d="M132.28,-347.48C131.58,-339.08 130.48,-325.98 129.57,-315.16"/>
<polygon fill="midnightblue" stroke="midnightblue" points="133.04,-314.68 128.72,-305.01 126.06,-315.27 133.04,-314.68"/>
</g>
<!-- Node39 -->
<g id="node39" class="node">
<title>Node39</title>
<g id="a_node39"><a xlink:href="api_2spec_2thrmask_8h.html" target="_top" xlink:title=" ">
<polygon fill="white" stroke="black" points="322.5,-286 322.5,-305 453.5,-305 453.5,-286 322.5,-286"/>
<text text-anchor="middle" x="388" y="-293" font-family="Helvetica,sans-Serif" font-size="10.00">odp/api/spec/thrmask.h</text>
</a>
</g>
</g>
<!-- Node37&#45;&gt;Node39 -->
<g id="edge66" class="edge">
<title>Node37&#45;&gt;Node39</title>
<path fill="none" stroke="midnightblue" d="M169.54,-347.48C214.89,-336.89 292.28,-318.84 341.73,-307.3"/>
<polygon fill="midnightblue" stroke="midnightblue" points="342.59,-310.69 351.53,-305.01 341,-303.87 342.59,-310.69"/>
</g>
<!-- Node39&#45;&gt;Node2 -->
<g id="edge67" class="edge">
<title>Node39&#45;&gt;Node2</title>
<path fill="none" stroke="midnightblue" d="M380.45,-285.92C365.16,-267.63 332,-222.9 332,-179 332,-179 332,-179 332,-121 332,-88.49 340.16,-51.35 345.78,-29.61"/>
<polygon fill="midnightblue" stroke="midnightblue" points="349.22,-30.32 348.44,-19.75 342.46,-28.5 349.22,-30.32"/>
</g>
<!-- Node39&#45;&gt;Node3 -->
<g id="edge68" class="edge">
<title>Node39&#45;&gt;Node3</title>
<path fill="none" stroke="midnightblue" d="M428.76,-285.97C439.84,-283.83 451.85,-281.67 463,-280 588.21,-261.25 735.46,-247.4 818.75,-240.32"/>
<polygon fill="midnightblue" stroke="midnightblue" points="819.16,-243.79 828.83,-239.46 818.57,-236.82 819.16,-243.79"/>
</g>
<!-- Node39&#45;&gt;Node10 -->
<g id="edge69" class="edge">
<title>Node39&#45;&gt;Node10</title>
<path fill="none" stroke="midnightblue" d="M432.01,-285.94C442.19,-283.98 452.97,-281.91 463,-280 464.71,-279.68 954.46,-188.81 956,-188 1031.61,-148.02 1095.24,-64.48 1120.43,-28.31"/>
<polygon fill="midnightblue" stroke="midnightblue" points="1123.48,-30.04 1126.24,-19.81 1117.71,-26.09 1123.48,-30.04"/>
</g>
</g>
</svg>
