<?xml version="1.0" encoding="UTF-8" standalone="no"?>
<!DOCTYPE svg PUBLIC "-//W3C//DTD SVG 1.1//EN"
 "http://www.w3.org/Graphics/SVG/1.1/DTD/svg11.dtd">
<!-- Generated by graphviz version 2.43.0 (0)
 -->
<!-- Title: ticketlock.h Pages: 1 -->
<svg width="627pt" height="252pt"
 viewBox="0.00 0.00 627.00 252.00" xmlns="http://www.w3.org/2000/svg" xmlns:xlink="http://www.w3.org/1999/xlink">
<g id="graph0" class="graph" transform="scale(1 1) rotate(0) translate(4 248)">
<title>ticketlock.h</title>
<polygon fill="white" stroke="transparent" points="-4,4 -4,-248 623,-248 623,4 -4,4"/>
<!-- Node1 -->
<g id="node1" class="node">
<title>Node1</title>
<g id="a_node1"><a xlink:title=" ">
<polygon fill="#bfbfbf" stroke="black" points="273,-224.5 273,-243.5 346,-243.5 346,-224.5 273,-224.5"/>
<text text-anchor="middle" x="309.5" y="-231.5" font-family="Helvetica,sans-Serif" font-size="10.00">ticketlock.h</text>
</a>
</g>
</g>
<!-- Node2 -->
<g id="node2" class="node">
<title>Node2</title>
<g id="a_node2"><a xlink:href="arch_2arm32-linux_2odp_2api_2abi_2ticketlock_8h_source.html" target="_top" xlink:title=" ">
<polygon fill="white" stroke="black" points="0,-168.5 0,-187.5 73,-187.5 73,-168.5 0,-168.5"/>
<text text-anchor="middle" x="36.5" y="-175.5" font-family="Helvetica,sans-Serif" font-size="10.00">ticketlock.h</text>
</a>
</g>
</g>
<!-- Node1&#45;&gt;Node2 -->
<g id="edge1" class="edge">
<title>Node1&#45;&gt;Node2</title>
<path fill="none" stroke="midnightblue" d="M263.04,-223.81C209.43,-213.21 122.37,-195.99 73.25,-186.27"/>
<polygon fill="midnightblue" stroke="midnightblue" points="262.48,-227.27 272.97,-225.77 263.83,-220.4 262.48,-227.27"/>
</g>
<!-- Node3 -->
<g id="node3" class="node">
<title>Node3</title>
<g id="a_node3"><a xlink:href="arch_2arm64-linux_2odp_2api_2abi_2ticketlock_8h_source.html" target="_top" xlink:title=" ">
<polygon fill="white" stroke="black" points="91,-168.5 91,-187.5 164,-187.5 164,-168.5 91,-168.5"/>
<text text-anchor="middle" x="127.5" y="-175.5" font-family="Helvetica,sans-Serif" font-size="10.00">ticketlock.h</text>
</a>
</g>
</g>
<!-- Node1&#45;&gt;Node3 -->
<g id="edge2" class="edge">
<title>Node1&#45;&gt;Node3</title>
<path fill="none" stroke="midnightblue" d="M270.97,-221.57C236.64,-211.38 187.17,-196.7 156.2,-187.52"/>
<polygon fill="midnightblue" stroke="midnightblue" points="270.08,-224.95 280.66,-224.44 272.07,-218.24 270.08,-224.95"/>
</g>
<!-- Node4 -->
<g id="node4" class="node">
<title>Node4</title>
<g id="a_node4"><a xlink:href="arch_2default-linux_2odp_2api_2abi_2ticketlock_8h_source.html" target="_top" xlink:title=" ">
<polygon fill="white" stroke="black" points="182,-168.5 182,-187.5 255,-187.5 255,-168.5 182,-168.5"/>
<text text-anchor="middle" x="218.5" y="-175.5" font-family="Helvetica,sans-Serif" font-size="10.00">ticketlock.h</text>
</a>
</g>
</g>
<!-- Node1&#45;&gt;Node4 -->
<g id="edge3" class="edge">
<title>Node1&#45;&gt;Node4</title>
<path fill="none" stroke="midnightblue" d="M286.21,-219.18C269.46,-209.24 247.4,-196.15 233.08,-187.65"/>
<polygon fill="midnightblue" stroke="midnightblue" points="284.49,-222.23 294.88,-224.32 288.07,-216.21 284.49,-222.23"/>
</g>
<!-- Node5 -->
<g id="node5" class="node">
<title>Node5</title>
<g id="a_node5"><a xlink:href="arch_2mips64-linux_2odp_2api_2abi_2ticketlock_8h_source.html" target="_top" xlink:title=" ">
<polygon fill="white" stroke="black" points="273,-168.5 273,-187.5 346,-187.5 346,-168.5 273,-168.5"/>
<text text-anchor="middle" x="309.5" y="-175.5" font-family="Helvetica,sans-Serif" font-size="10.00">ticketlock.h</text>
</a>
</g>
</g>
<!-- Node1&#45;&gt;Node5 -->
<g id="edge4" class="edge">
<title>Node1&#45;&gt;Node5</title>
<path fill="none" stroke="midnightblue" d="M309.5,-213.8C309.5,-204.91 309.5,-194.78 309.5,-187.75"/>
<polygon fill="midnightblue" stroke="midnightblue" points="306,-214.08 309.5,-224.08 313,-214.08 306,-214.08"/>
</g>
<!-- Node6 -->
<g id="node6" class="node">
<title>Node6</title>
<g id="a_node6"><a xlink:href="arch_2power64-linux_2odp_2api_2abi_2ticketlock_8h_source.html" target="_top" xlink:title=" ">
<polygon fill="white" stroke="black" points="364,-168.5 364,-187.5 437,-187.5 437,-168.5 364,-168.5"/>
<text text-anchor="middle" x="400.5" y="-175.5" font-family="Helvetica,sans-Serif" font-size="10.00">ticketlock.h</text>
</a>
</g>
</g>
<!-- Node1&#45;&gt;Node6 -->
<g id="edge5" class="edge">
<title>Node1&#45;&gt;Node6</title>
<path fill="none" stroke="midnightblue" d="M332.79,-219.18C349.54,-209.24 371.6,-196.15 385.92,-187.65"/>
<polygon fill="midnightblue" stroke="midnightblue" points="330.93,-216.21 324.12,-224.32 334.51,-222.23 330.93,-216.21"/>
</g>
<!-- Node7 -->
<g id="node7" class="node">
<title>Node7</title>
<g id="a_node7"><a xlink:href="arch_2x86__32-linux_2odp_2api_2abi_2ticketlock_8h_source.html" target="_top" xlink:title=" ">
<polygon fill="white" stroke="black" points="455,-168.5 455,-187.5 528,-187.5 528,-168.5 455,-168.5"/>
<text text-anchor="middle" x="491.5" y="-175.5" font-family="Helvetica,sans-Serif" font-size="10.00">ticketlock.h</text>
</a>
</g>
</g>
<!-- Node1&#45;&gt;Node7 -->
<g id="edge6" class="edge">
<title>Node1&#45;&gt;Node7</title>
<path fill="none" stroke="midnightblue" d="M348.03,-221.57C382.36,-211.38 431.83,-196.7 462.8,-187.52"/>
<polygon fill="midnightblue" stroke="midnightblue" points="346.93,-218.24 338.34,-224.44 348.92,-224.95 346.93,-218.24"/>
</g>
<!-- Node8 -->
<g id="node8" class="node">
<title>Node8</title>
<g id="a_node8"><a xlink:href="arch_2x86__64-linux_2odp_2api_2abi_2ticketlock_8h_source.html" target="_top" xlink:title=" ">
<polygon fill="white" stroke="black" points="546,-168.5 546,-187.5 619,-187.5 619,-168.5 546,-168.5"/>
<text text-anchor="middle" x="582.5" y="-175.5" font-family="Helvetica,sans-Serif" font-size="10.00">ticketlock.h</text>
</a>
</g>
</g>
<!-- Node1&#45;&gt;Node8 -->
<g id="edge7" class="edge">
<title>Node1&#45;&gt;Node8</title>
<path fill="none" stroke="midnightblue" d="M356.22,-223.81C402.31,-214.74 474.77,-200.46 537.5,-188 540.16,-187.47 542.9,-186.93 545.66,-186.37"/>
<polygon fill="midnightblue" stroke="midnightblue" points="355.37,-220.42 346.23,-225.78 356.72,-227.28 355.37,-220.42"/>
</g>
<!-- Node9 -->
<g id="node9" class="node">
<title>Node9</title>
<g id="a_node9"><a xlink:href="api_2ticketlock_8h.html" target="_top" xlink:title=" ">
<polygon fill="white" stroke="black" points="546,-112.5 546,-131.5 619,-131.5 619,-112.5 546,-112.5"/>
<text text-anchor="middle" x="582.5" y="-119.5" font-family="Helvetica,sans-Serif" font-size="10.00">ticketlock.h</text>
</a>
</g>
</g>
<!-- Node8&#45;&gt;Node9 -->
<g id="edge8" class="edge">
<title>Node8&#45;&gt;Node9</title>
<path fill="none" stroke="midnightblue" d="M582.5,-157.8C582.5,-148.91 582.5,-138.78 582.5,-131.75"/>
<polygon fill="midnightblue" stroke="midnightblue" points="579,-158.08 582.5,-168.08 586,-158.08 579,-158.08"/>
</g>
<!-- Node10 -->
<g id="node10" class="node">
<title>Node10</title>
<g id="a_node10"><a xlink:href="odp__api_8h.html" target="_top" xlink:title=" ">
<polygon fill="white" stroke="black" points="550.5,-56.5 550.5,-75.5 614.5,-75.5 614.5,-56.5 550.5,-56.5"/>
<text text-anchor="middle" x="582.5" y="-63.5" font-family="Helvetica,sans-Serif" font-size="10.00">odp_api.h</text>
</a>
</g>
</g>
<!-- Node9&#45;&gt;Node10 -->
<g id="edge9" class="edge">
<title>Node9&#45;&gt;Node10</title>
<path fill="none" stroke="midnightblue" d="M582.5,-101.8C582.5,-92.91 582.5,-82.78 582.5,-75.75"/>
<polygon fill="midnightblue" stroke="midnightblue" points="579,-102.08 582.5,-112.08 586,-102.08 579,-102.08"/>
</g>
<!-- Node11 -->
<g id="node11" class="node">
<title>Node11</title>
<g id="a_node11"><a xlink:href="odp_8h.html" target="_top" xlink:title=" ">
<polygon fill="white" stroke="black" points="560.5,-0.5 560.5,-19.5 604.5,-19.5 604.5,-0.5 560.5,-0.5"/>
<text text-anchor="middle" x="582.5" y="-7.5" font-family="Helvetica,sans-Serif" font-size="10.00">odp.h</text>
</a>
</g>
</g>
<!-- Node10&#45;&gt;Node11 -->
<g id="edge10" class="edge">
<title>Node10&#45;&gt;Node11</title>
<path fill="none" stroke="midnightblue" d="M582.5,-45.8C582.5,-36.91 582.5,-26.78 582.5,-19.75"/>
<polygon fill="midnightblue" stroke="midnightblue" points="579,-46.08 582.5,-56.08 586,-46.08 579,-46.08"/>
</g>
</g>
</svg>
