<?xml version="1.0" encoding="UTF-8" standalone="no"?>
<!DOCTYPE svg PUBLIC "-//W3C//DTD SVG 1.1//EN"
 "http://www.w3.org/Graphics/SVG/1.1/DTD/svg11.dtd">
<!-- Generated by graphviz version 2.43.0 (0)
 -->
<!-- Title: spinlock_recursive.h Pages: 1 -->
<svg width="928pt" height="252pt"
 viewBox="0.00 0.00 928.00 252.00" xmlns="http://www.w3.org/2000/svg" xmlns:xlink="http://www.w3.org/1999/xlink">
<g id="graph0" class="graph" transform="scale(1 1) rotate(0) translate(4 248)">
<title>spinlock_recursive.h</title>
<polygon fill="white" stroke="transparent" points="-4,4 -4,-248 924,-248 924,4 -4,4"/>
<!-- Node1 -->
<g id="node1" class="node">
<title>Node1</title>
<g id="a_node1"><a xlink:title=" ">
<polygon fill="#bfbfbf" stroke="black" points="402,-224.5 402,-243.5 518,-243.5 518,-224.5 402,-224.5"/>
<text text-anchor="middle" x="460" y="-231.5" font-family="Helvetica,sans-Serif" font-size="10.00">spinlock_recursive.h</text>
</a>
</g>
</g>
<!-- Node2 -->
<g id="node2" class="node">
<title>Node2</title>
<g id="a_node2"><a xlink:href="arch_2arm32-linux_2odp_2api_2abi_2spinlock__recursive_8h_source.html" target="_top" xlink:title=" ">
<polygon fill="white" stroke="black" points="0,-168.5 0,-187.5 116,-187.5 116,-168.5 0,-168.5"/>
<text text-anchor="middle" x="58" y="-175.5" font-family="Helvetica,sans-Serif" font-size="10.00">spinlock_recursive.h</text>
</a>
</g>
</g>
<!-- Node1&#45;&gt;Node2 -->
<g id="edge1" class="edge">
<title>Node1&#45;&gt;Node2</title>
<path fill="none" stroke="midnightblue" d="M391.83,-223.84C314.3,-213.43 189.04,-196.6 116.01,-186.79"/>
<polygon fill="midnightblue" stroke="midnightblue" points="391.6,-227.34 401.98,-225.21 392.53,-220.41 391.6,-227.34"/>
</g>
<!-- Node3 -->
<g id="node3" class="node">
<title>Node3</title>
<g id="a_node3"><a xlink:href="arch_2arm64-linux_2odp_2api_2abi_2spinlock__recursive_8h_source.html" target="_top" xlink:title=" ">
<polygon fill="white" stroke="black" points="134,-168.5 134,-187.5 250,-187.5 250,-168.5 134,-168.5"/>
<text text-anchor="middle" x="192" y="-175.5" font-family="Helvetica,sans-Serif" font-size="10.00">spinlock_recursive.h</text>
</a>
</g>
</g>
<!-- Node1&#45;&gt;Node3 -->
<g id="edge2" class="edge">
<title>Node1&#45;&gt;Node3</title>
<path fill="none" stroke="midnightblue" d="M407.44,-222.41C356.79,-212.2 281.13,-196.96 234.27,-187.52"/>
<polygon fill="midnightblue" stroke="midnightblue" points="407.04,-225.9 417.53,-224.44 408.42,-219.04 407.04,-225.9"/>
</g>
<!-- Node4 -->
<g id="node4" class="node">
<title>Node4</title>
<g id="a_node4"><a xlink:href="arch_2default-linux_2odp_2api_2abi_2spinlock__recursive_8h_source.html" target="_top" xlink:title=" ">
<polygon fill="white" stroke="black" points="268,-168.5 268,-187.5 384,-187.5 384,-168.5 268,-168.5"/>
<text text-anchor="middle" x="326" y="-175.5" font-family="Helvetica,sans-Serif" font-size="10.00">spinlock_recursive.h</text>
</a>
</g>
</g>
<!-- Node1&#45;&gt;Node4 -->
<g id="edge3" class="edge">
<title>Node1&#45;&gt;Node4</title>
<path fill="none" stroke="midnightblue" d="M429.32,-220.64C404.18,-210.5 369.25,-196.43 347.13,-187.52"/>
<polygon fill="midnightblue" stroke="midnightblue" points="428.18,-223.95 438.77,-224.44 430.8,-217.46 428.18,-223.95"/>
</g>
<!-- Node5 -->
<g id="node5" class="node">
<title>Node5</title>
<g id="a_node5"><a xlink:href="arch_2mips64-linux_2odp_2api_2abi_2spinlock__recursive_8h_source.html" target="_top" xlink:title=" ">
<polygon fill="white" stroke="black" points="402,-168.5 402,-187.5 518,-187.5 518,-168.5 402,-168.5"/>
<text text-anchor="middle" x="460" y="-175.5" font-family="Helvetica,sans-Serif" font-size="10.00">spinlock_recursive.h</text>
</a>
</g>
</g>
<!-- Node1&#45;&gt;Node5 -->
<g id="edge4" class="edge">
<title>Node1&#45;&gt;Node5</title>
<path fill="none" stroke="midnightblue" d="M460,-213.8C460,-204.91 460,-194.78 460,-187.75"/>
<polygon fill="midnightblue" stroke="midnightblue" points="456.5,-214.08 460,-224.08 463.5,-214.08 456.5,-214.08"/>
</g>
<!-- Node6 -->
<g id="node6" class="node">
<title>Node6</title>
<g id="a_node6"><a xlink:href="arch_2power64-linux_2odp_2api_2abi_2spinlock__recursive_8h_source.html" target="_top" xlink:title=" ">
<polygon fill="white" stroke="black" points="536,-168.5 536,-187.5 652,-187.5 652,-168.5 536,-168.5"/>
<text text-anchor="middle" x="594" y="-175.5" font-family="Helvetica,sans-Serif" font-size="10.00">spinlock_recursive.h</text>
</a>
</g>
</g>
<!-- Node1&#45;&gt;Node6 -->
<g id="edge5" class="edge">
<title>Node1&#45;&gt;Node6</title>
<path fill="none" stroke="midnightblue" d="M490.68,-220.64C515.82,-210.5 550.75,-196.43 572.87,-187.52"/>
<polygon fill="midnightblue" stroke="midnightblue" points="489.2,-217.46 481.23,-224.44 491.82,-223.95 489.2,-217.46"/>
</g>
<!-- Node7 -->
<g id="node7" class="node">
<title>Node7</title>
<g id="a_node7"><a xlink:href="arch_2x86__32-linux_2odp_2api_2abi_2spinlock__recursive_8h_source.html" target="_top" xlink:title=" ">
<polygon fill="white" stroke="black" points="670,-168.5 670,-187.5 786,-187.5 786,-168.5 670,-168.5"/>
<text text-anchor="middle" x="728" y="-175.5" font-family="Helvetica,sans-Serif" font-size="10.00">spinlock_recursive.h</text>
</a>
</g>
</g>
<!-- Node1&#45;&gt;Node7 -->
<g id="edge6" class="edge">
<title>Node1&#45;&gt;Node7</title>
<path fill="none" stroke="midnightblue" d="M512.56,-222.41C563.21,-212.2 638.87,-196.96 685.73,-187.52"/>
<polygon fill="midnightblue" stroke="midnightblue" points="511.58,-219.04 502.47,-224.44 512.96,-225.9 511.58,-219.04"/>
</g>
<!-- Node8 -->
<g id="node8" class="node">
<title>Node8</title>
<g id="a_node8"><a xlink:href="arch_2x86__64-linux_2odp_2api_2abi_2spinlock__recursive_8h_source.html" target="_top" xlink:title=" ">
<polygon fill="white" stroke="black" points="804,-168.5 804,-187.5 920,-187.5 920,-168.5 804,-168.5"/>
<text text-anchor="middle" x="862" y="-175.5" font-family="Helvetica,sans-Serif" font-size="10.00">spinlock_recursive.h</text>
</a>
</g>
</g>
<!-- Node1&#45;&gt;Node8 -->
<g id="edge7" class="edge">
<title>Node1&#45;&gt;Node8</title>
<path fill="none" stroke="midnightblue" d="M528.17,-223.84C605.7,-213.43 730.96,-196.6 803.99,-186.79"/>
<polygon fill="midnightblue" stroke="midnightblue" points="527.47,-220.41 518.02,-225.21 528.4,-227.34 527.47,-220.41"/>
</g>
<!-- Node9 -->
<g id="node9" class="node">
<title>Node9</title>
<g id="a_node9"><a xlink:href="api_2spinlock__recursive_8h.html" target="_top" xlink:title=" ">
<polygon fill="white" stroke="black" points="804,-112.5 804,-131.5 920,-131.5 920,-112.5 804,-112.5"/>
<text text-anchor="middle" x="862" y="-119.5" font-family="Helvetica,sans-Serif" font-size="10.00">spinlock_recursive.h</text>
</a>
</g>
</g>
<!-- Node8&#45;&gt;Node9 -->
<g id="edge8" class="edge">
<title>Node8&#45;&gt;Node9</title>
<path fill="none" stroke="midnightblue" d="M862,-157.8C862,-148.91 862,-138.78 862,-131.75"/>
<polygon fill="midnightblue" stroke="midnightblue" points="858.5,-158.08 862,-168.08 865.5,-158.08 858.5,-158.08"/>
</g>
<!-- Node10 -->
<g id="node10" class="node">
<title>Node10</title>
<g id="a_node10"><a xlink:href="odp__api_8h.html" target="_top" xlink:title=" ">
<polygon fill="white" stroke="black" points="830,-56.5 830,-75.5 894,-75.5 894,-56.5 830,-56.5"/>
<text text-anchor="middle" x="862" y="-63.5" font-family="Helvetica,sans-Serif" font-size="10.00">odp_api.h</text>
</a>
</g>
</g>
<!-- Node9&#45;&gt;Node10 -->
<g id="edge9" class="edge">
<title>Node9&#45;&gt;Node10</title>
<path fill="none" stroke="midnightblue" d="M862,-101.8C862,-92.91 862,-82.78 862,-75.75"/>
<polygon fill="midnightblue" stroke="midnightblue" points="858.5,-102.08 862,-112.08 865.5,-102.08 858.5,-102.08"/>
</g>
<!-- Node11 -->
<g id="node11" class="node">
<title>Node11</title>
<g id="a_node11"><a xlink:href="odp_8h.html" target="_top" xlink:title=" ">
<polygon fill="white" stroke="black" points="840,-0.5 840,-19.5 884,-19.5 884,-0.5 840,-0.5"/>
<text text-anchor="middle" x="862" y="-7.5" font-family="Helvetica,sans-Serif" font-size="10.00">odp.h</text>
</a>
</g>
</g>
<!-- Node10&#45;&gt;Node11 -->
<g id="edge10" class="edge">
<title>Node10&#45;&gt;Node11</title>
<path fill="none" stroke="midnightblue" d="M862,-45.8C862,-36.91 862,-26.78 862,-19.75"/>
<polygon fill="midnightblue" stroke="midnightblue" points="858.5,-46.08 862,-56.08 865.5,-46.08 858.5,-46.08"/>
</g>
</g>
</svg>
