<?xml version="1.0" encoding="UTF-8" standalone="no"?>
<!DOCTYPE svg PUBLIC "-//W3C//DTD SVG 1.1//EN"
 "http://www.w3.org/Graphics/SVG/1.1/DTD/svg11.dtd">
<!-- Generated by graphviz version 2.43.0 (0)
 -->
<!-- Title: packet_types.h Pages: 1 -->
<svg width="646pt" height="924pt"
 viewBox="0.00 0.00 646.00 924.00" xmlns="http://www.w3.org/2000/svg" xmlns:xlink="http://www.w3.org/1999/xlink">
<g id="graph0" class="graph" transform="scale(1 1) rotate(0) translate(4 920)">
<title>packet_types.h</title>
<polygon fill="white" stroke="transparent" points="-4,4 -4,-920 642,-920 642,4 -4,4"/>
<!-- Node1 -->
<g id="node1" class="node">
<title>Node1</title>
<g id="a_node1"><a xlink:title=" ">
<polygon fill="#bfbfbf" stroke="black" points="177,-896.5 177,-915.5 267,-915.5 267,-896.5 177,-896.5"/>
<text text-anchor="middle" x="222" y="-903.5" font-family="Helvetica,sans-Serif" font-size="10.00">packet_types.h</text>
</a>
</g>
</g>
<!-- Node2 -->
<g id="node2" class="node">
<title>Node2</title>
<g id="a_node2"><a xlink:href="api_2spec_2packet_8h.html" target="_top" xlink:title=" ">
<polygon fill="white" stroke="black" points="193,-840.5 193,-859.5 251,-859.5 251,-840.5 193,-840.5"/>
<text text-anchor="middle" x="222" y="-847.5" font-family="Helvetica,sans-Serif" font-size="10.00">packet.h</text>
</a>
</g>
</g>
<!-- Node1&#45;&gt;Node2 -->
<g id="edge1" class="edge">
<title>Node1&#45;&gt;Node2</title>
<path fill="none" stroke="midnightblue" d="M222,-885.8C222,-876.91 222,-866.78 222,-859.75"/>
<polygon fill="midnightblue" stroke="midnightblue" points="218.5,-886.08 222,-896.08 225.5,-886.08 218.5,-886.08"/>
</g>
<!-- Node3 -->
<g id="node3" class="node">
<title>Node3</title>
<g id="a_node3"><a xlink:href="api_2packet_8h.html" target="_top" xlink:title=" ">
<polygon fill="white" stroke="black" points="193,-784.5 193,-803.5 251,-803.5 251,-784.5 193,-784.5"/>
<text text-anchor="middle" x="222" y="-791.5" font-family="Helvetica,sans-Serif" font-size="10.00">packet.h</text>
</a>
</g>
</g>
<!-- Node2&#45;&gt;Node3 -->
<g id="edge2" class="edge">
<title>Node2&#45;&gt;Node3</title>
<path fill="none" stroke="midnightblue" d="M222,-829.8C222,-820.91 222,-810.78 222,-803.75"/>
<polygon fill="midnightblue" stroke="midnightblue" points="218.5,-830.08 222,-840.08 225.5,-830.08 218.5,-830.08"/>
</g>
<!-- Node4 -->
<g id="node4" class="node">
<title>Node4</title>
<g id="a_node4"><a xlink:href="api_2spec_2comp_8h.html" target="_top" xlink:title=" ">
<polygon fill="white" stroke="black" points="82.5,-728.5 82.5,-747.5 135.5,-747.5 135.5,-728.5 82.5,-728.5"/>
<text text-anchor="middle" x="109" y="-735.5" font-family="Helvetica,sans-Serif" font-size="10.00">comp.h</text>
</a>
</g>
</g>
<!-- Node3&#45;&gt;Node4 -->
<g id="edge3" class="edge">
<title>Node3&#45;&gt;Node4</title>
<path fill="none" stroke="midnightblue" d="M195,-780.1C173.89,-770.01 145.14,-756.27 126.82,-747.52"/>
<polygon fill="midnightblue" stroke="midnightblue" points="193.56,-783.29 204.09,-784.44 196.58,-776.97 193.56,-783.29"/>
</g>
<!-- Node6 -->
<g id="node6" class="node">
<title>Node6</title>
<g id="a_node6"><a xlink:href="odp__api_8h.html" target="_top" xlink:title=" ">
<polygon fill="white" stroke="black" points="293,-56.5 293,-75.5 357,-75.5 357,-56.5 293,-56.5"/>
<text text-anchor="middle" x="325" y="-63.5" font-family="Helvetica,sans-Serif" font-size="10.00">odp_api.h</text>
</a>
</g>
</g>
<!-- Node3&#45;&gt;Node6 -->
<g id="edge40" class="edge">
<title>Node3&#45;&gt;Node6</title>
<path fill="none" stroke="midnightblue" d="M182.88,-790.92C119.16,-785.18 0,-763.68 0,-683 0,-683 0,-683 0,-177 0,-130.15 40.3,-131.28 83,-112 153.3,-80.26 244.77,-70.91 292.61,-68.15"/>
<polygon fill="midnightblue" stroke="midnightblue" points="182.73,-794.41 192.98,-791.73 183.29,-787.44 182.73,-794.41"/>
</g>
<!-- Node8 -->
<g id="node8" class="node">
<title>Node8</title>
<g id="a_node8"><a xlink:href="api_2spec_2crypto_8h.html" target="_top" xlink:title=" ">
<polygon fill="white" stroke="black" points="121,-672.5 121,-691.5 177,-691.5 177,-672.5 121,-672.5"/>
<text text-anchor="middle" x="149" y="-679.5" font-family="Helvetica,sans-Serif" font-size="10.00">crypto.h</text>
</a>
</g>
</g>
<!-- Node3&#45;&gt;Node8 -->
<g id="edge7" class="edge">
<title>Node3&#45;&gt;Node8</title>
<path fill="none" stroke="midnightblue" d="M210.69,-775.96C194.87,-752.12 166.72,-709.71 154.7,-691.59"/>
<polygon fill="midnightblue" stroke="midnightblue" points="207.83,-777.97 216.27,-784.37 213.66,-774.1 207.83,-777.97"/>
</g>
<!-- Node12 -->
<g id="node12" class="node">
<title>Node12</title>
<g id="a_node12"><a xlink:href="api_2spec_2event_8h.html" target="_top" xlink:title=" ">
<polygon fill="white" stroke="black" points="351.5,-728.5 351.5,-747.5 404.5,-747.5 404.5,-728.5 351.5,-728.5"/>
<text text-anchor="middle" x="378" y="-735.5" font-family="Helvetica,sans-Serif" font-size="10.00">event.h</text>
</a>
</g>
</g>
<!-- Node3&#45;&gt;Node12 -->
<g id="edge13" class="edge">
<title>Node3&#45;&gt;Node12</title>
<path fill="none" stroke="midnightblue" d="M256.17,-781.17C285.54,-771 327.2,-756.59 353.4,-747.52"/>
<polygon fill="midnightblue" stroke="midnightblue" points="255.02,-777.86 246.72,-784.44 257.31,-784.48 255.02,-777.86"/>
</g>
<!-- Node18 -->
<g id="node18" class="node">
<title>Node18</title>
<g id="a_node18"><a xlink:href="api_2spec_2packet__io_8h.html" target="_top" xlink:title=" ">
<polygon fill="white" stroke="black" points="246,-392.5 246,-411.5 318,-411.5 318,-392.5 246,-392.5"/>
<text text-anchor="middle" x="282" y="-399.5" font-family="Helvetica,sans-Serif" font-size="10.00">packet_io.h</text>
</a>
</g>
</g>
<!-- Node3&#45;&gt;Node18 -->
<g id="edge39" class="edge">
<title>Node3&#45;&gt;Node18</title>
<path fill="none" stroke="midnightblue" d="M224.19,-774.28C226.56,-752.42 230,-715.14 230,-683 230,-683 230,-683 230,-513 230,-471.81 260.17,-429.55 274.55,-411.74"/>
<polygon fill="midnightblue" stroke="midnightblue" points="220.69,-774.13 223.05,-784.46 227.64,-774.91 220.69,-774.13"/>
</g>
<!-- Node26 -->
<g id="node26" class="node">
<title>Node26</title>
<g id="a_node26"><a xlink:href="api_2spec_2packet__flags_8h.html" target="_top" xlink:title=" ">
<polygon fill="white" stroke="black" points="487,-728.5 487,-747.5 573,-747.5 573,-728.5 487,-728.5"/>
<text text-anchor="middle" x="530" y="-735.5" font-family="Helvetica,sans-Serif" font-size="10.00">packet_flags.h</text>
</a>
</g>
</g>
<!-- Node3&#45;&gt;Node26 -->
<g id="edge36" class="edge">
<title>Node3&#45;&gt;Node26</title>
<path fill="none" stroke="midnightblue" d="M261.46,-786.08C319.33,-775.94 426.82,-757.09 486.77,-746.58"/>
<polygon fill="midnightblue" stroke="midnightblue" points="260.5,-782.7 251.25,-787.87 261.71,-789.59 260.5,-782.7"/>
</g>
<!-- Node5 -->
<g id="node5" class="node">
<title>Node5</title>
<g id="a_node5"><a xlink:href="api_2comp_8h.html" target="_top" xlink:title=" ">
<polygon fill="white" stroke="black" points="29.5,-504.5 29.5,-523.5 82.5,-523.5 82.5,-504.5 29.5,-504.5"/>
<text text-anchor="middle" x="56" y="-511.5" font-family="Helvetica,sans-Serif" font-size="10.00">comp.h</text>
</a>
</g>
</g>
<!-- Node4&#45;&gt;Node5 -->
<g id="edge4" class="edge">
<title>Node4&#45;&gt;Node5</title>
<path fill="none" stroke="midnightblue" d="M104.53,-718.3C93.64,-672.64 65.99,-556.85 58.12,-523.88"/>
<polygon fill="midnightblue" stroke="midnightblue" points="101.2,-719.38 106.92,-728.3 108,-717.76 101.2,-719.38"/>
</g>
<!-- Node5&#45;&gt;Node6 -->
<g id="edge5" class="edge">
<title>Node5&#45;&gt;Node6</title>
<path fill="none" stroke="midnightblue" d="M51.06,-494.37C45.73,-472.62 38,-435.46 38,-403 38,-403 38,-403 38,-177 38,-122.91 218.02,-85.5 292.91,-72.28"/>
<polygon fill="midnightblue" stroke="midnightblue" points="47.71,-495.41 53.57,-504.24 54.49,-493.68 47.71,-495.41"/>
</g>
<!-- Node7 -->
<g id="node7" class="node">
<title>Node7</title>
<g id="a_node7"><a xlink:href="odp_8h.html" target="_top" xlink:title=" ">
<polygon fill="white" stroke="black" points="303,-0.5 303,-19.5 347,-19.5 347,-0.5 303,-0.5"/>
<text text-anchor="middle" x="325" y="-7.5" font-family="Helvetica,sans-Serif" font-size="10.00">odp.h</text>
</a>
</g>
</g>
<!-- Node6&#45;&gt;Node7 -->
<g id="edge6" class="edge">
<title>Node6&#45;&gt;Node7</title>
<path fill="none" stroke="midnightblue" d="M325,-45.8C325,-36.91 325,-26.78 325,-19.75"/>
<polygon fill="midnightblue" stroke="midnightblue" points="321.5,-46.08 325,-56.08 328.5,-46.08 321.5,-46.08"/>
</g>
<!-- Node9 -->
<g id="node9" class="node">
<title>Node9</title>
<g id="a_node9"><a xlink:href="api_2crypto_8h.html" target="_top" xlink:title=" ">
<polygon fill="white" stroke="black" points="66,-224.5 66,-243.5 122,-243.5 122,-224.5 66,-224.5"/>
<text text-anchor="middle" x="94" y="-231.5" font-family="Helvetica,sans-Serif" font-size="10.00">crypto.h</text>
</a>
</g>
</g>
<!-- Node8&#45;&gt;Node9 -->
<g id="edge8" class="edge">
<title>Node8&#45;&gt;Node9</title>
<path fill="none" stroke="midnightblue" d="M138.86,-663.43C127.6,-642.24 111,-605.19 111,-571 111,-571 111,-571 111,-345 111,-306.93 100.93,-262.31 96.29,-243.77"/>
<polygon fill="midnightblue" stroke="midnightblue" points="135.82,-665.17 143.72,-672.23 141.95,-661.78 135.82,-665.17"/>
</g>
<!-- Node9&#45;&gt;Node6 -->
<g id="edge12" class="edge">
<title>Node9&#45;&gt;Node6</title>
<path fill="none" stroke="midnightblue" d="M106.11,-216.12C125.29,-190.44 165.05,-141.46 209,-112 234.93,-94.62 268.55,-82.53 292.91,-75.28"/>
<polygon fill="midnightblue" stroke="midnightblue" points="103.09,-214.31 100,-224.44 108.74,-218.45 103.09,-214.31"/>
</g>
<!-- Node10 -->
<g id="node10" class="node">
<title>Node10</title>
<g id="a_node10"><a xlink:href="api_2spec_2ipsec_8h.html" target="_top" xlink:title=" ">
<polygon fill="white" stroke="black" points="226.5,-168.5 226.5,-187.5 277.5,-187.5 277.5,-168.5 226.5,-168.5"/>
<text text-anchor="middle" x="252" y="-175.5" font-family="Helvetica,sans-Serif" font-size="10.00">ipsec.h</text>
</a>
</g>
</g>
<!-- Node9&#45;&gt;Node10 -->
<g id="edge9" class="edge">
<title>Node9&#45;&gt;Node10</title>
<path fill="none" stroke="midnightblue" d="M128.61,-221.17C158.36,-211 200.55,-196.59 227.08,-187.52"/>
<polygon fill="midnightblue" stroke="midnightblue" points="127.37,-217.9 119.04,-224.44 129.63,-224.52 127.37,-217.9"/>
</g>
<!-- Node11 -->
<g id="node11" class="node">
<title>Node11</title>
<g id="a_node11"><a xlink:href="api_2ipsec_8h.html" target="_top" xlink:title=" ">
<polygon fill="white" stroke="black" points="236.5,-112.5 236.5,-131.5 287.5,-131.5 287.5,-112.5 236.5,-112.5"/>
<text text-anchor="middle" x="262" y="-119.5" font-family="Helvetica,sans-Serif" font-size="10.00">ipsec.h</text>
</a>
</g>
</g>
<!-- Node10&#45;&gt;Node11 -->
<g id="edge10" class="edge">
<title>Node10&#45;&gt;Node11</title>
<path fill="none" stroke="midnightblue" d="M255.5,-158.1C257.16,-149.14 259.06,-138.86 260.38,-131.75"/>
<polygon fill="midnightblue" stroke="midnightblue" points="252.03,-157.61 253.65,-168.08 258.91,-158.89 252.03,-157.61"/>
</g>
<!-- Node11&#45;&gt;Node6 -->
<g id="edge11" class="edge">
<title>Node11&#45;&gt;Node6</title>
<path fill="none" stroke="midnightblue" d="M280.04,-105.54C291.27,-95.91 305.32,-83.87 314.69,-75.83"/>
<polygon fill="midnightblue" stroke="midnightblue" points="277.44,-103.16 272.12,-112.32 281.99,-108.47 277.44,-103.16"/>
</g>
<!-- Node13 -->
<g id="node13" class="node">
<title>Node13</title>
<g id="a_node13"><a xlink:href="api_2event_8h.html" target="_top" xlink:title=" ">
<polygon fill="white" stroke="black" points="393.5,-672.5 393.5,-691.5 446.5,-691.5 446.5,-672.5 393.5,-672.5"/>
<text text-anchor="middle" x="420" y="-679.5" font-family="Helvetica,sans-Serif" font-size="10.00">event.h</text>
</a>
</g>
</g>
<!-- Node12&#45;&gt;Node13 -->
<g id="edge14" class="edge">
<title>Node12&#45;&gt;Node13</title>
<path fill="none" stroke="midnightblue" d="M391.11,-720.14C398.43,-710.74 407.24,-699.4 413.19,-691.75"/>
<polygon fill="midnightblue" stroke="midnightblue" points="388.31,-718.04 384.94,-728.08 393.84,-722.34 388.31,-718.04"/>
</g>
<!-- Node13&#45;&gt;Node6 -->
<g id="edge35" class="edge">
<title>Node13&#45;&gt;Node6</title>
<path fill="none" stroke="midnightblue" d="M456.15,-668.98C472.82,-661.79 491.61,-651.05 504,-636 523.21,-612.66 524,-601.23 524,-571 524,-571 524,-571 524,-177 524,-101.8 413.8,-77.61 357.42,-70.15"/>
<polygon fill="midnightblue" stroke="midnightblue" points="454.61,-665.83 446.65,-672.82 457.23,-672.32 454.61,-665.83"/>
</g>
<!-- Node14 -->
<g id="node14" class="node">
<title>Node14</title>
<g id="a_node14"><a xlink:href="api_2spec_2queue_8h.html" target="_top" xlink:title=" ">
<polygon fill="white" stroke="black" points="352,-616.5 352,-635.5 408,-635.5 408,-616.5 352,-616.5"/>
<text text-anchor="middle" x="380" y="-623.5" font-family="Helvetica,sans-Serif" font-size="10.00">queue.h</text>
</a>
</g>
</g>
<!-- Node13&#45;&gt;Node14 -->
<g id="edge15" class="edge">
<title>Node13&#45;&gt;Node14</title>
<path fill="none" stroke="midnightblue" d="M407.3,-663.86C400.37,-654.5 392.09,-643.33 386.48,-635.75"/>
<polygon fill="midnightblue" stroke="midnightblue" points="404.63,-666.13 413.39,-672.08 410.25,-661.96 404.63,-666.13"/>
</g>
<!-- Node24 -->
<g id="node24" class="node">
<title>Node24</title>
<g id="a_node24"><a xlink:href="api_2spec_2schedule_8h.html" target="_top" xlink:title=" ">
<polygon fill="white" stroke="black" points="426.5,-616.5 426.5,-635.5 495.5,-635.5 495.5,-616.5 426.5,-616.5"/>
<text text-anchor="middle" x="461" y="-623.5" font-family="Helvetica,sans-Serif" font-size="10.00">schedule.h</text>
</a>
</g>
</g>
<!-- Node13&#45;&gt;Node24 -->
<g id="edge32" class="edge">
<title>Node13&#45;&gt;Node24</title>
<path fill="none" stroke="midnightblue" d="M433.02,-663.86C440.12,-654.5 448.6,-643.33 454.36,-635.75"/>
<polygon fill="midnightblue" stroke="midnightblue" points="430.03,-662 426.77,-672.08 435.61,-666.24 430.03,-662"/>
</g>
<!-- Node15 -->
<g id="node15" class="node">
<title>Node15</title>
<g id="a_node15"><a xlink:href="api_2queue_8h.html" target="_top" xlink:title=" ">
<polygon fill="white" stroke="black" points="352,-560.5 352,-579.5 408,-579.5 408,-560.5 352,-560.5"/>
<text text-anchor="middle" x="380" y="-567.5" font-family="Helvetica,sans-Serif" font-size="10.00">queue.h</text>
</a>
</g>
</g>
<!-- Node14&#45;&gt;Node15 -->
<g id="edge16" class="edge">
<title>Node14&#45;&gt;Node15</title>
<path fill="none" stroke="midnightblue" d="M380,-605.8C380,-596.91 380,-586.78 380,-579.75"/>
<polygon fill="midnightblue" stroke="midnightblue" points="376.5,-606.08 380,-616.08 383.5,-606.08 376.5,-606.08"/>
</g>
<!-- Node15&#45;&gt;Node6 -->
<g id="edge31" class="edge">
<title>Node15&#45;&gt;Node6</title>
<path fill="none" stroke="midnightblue" d="M383.99,-550.23C396.8,-489.39 436,-297.97 436,-235 436,-235 436,-235 436,-177 436,-126.27 376.77,-90.96 344.84,-75.61"/>
<polygon fill="midnightblue" stroke="midnightblue" points="380.51,-549.78 381.86,-560.29 387.36,-551.23 380.51,-549.78"/>
</g>
<!-- Node16 -->
<g id="node16" class="node">
<title>Node16</title>
<g id="a_node16"><a xlink:href="spec_2packet__io__stats_8h.html" target="_top" xlink:title=" ">
<polygon fill="white" stroke="black" points="265.5,-504.5 265.5,-523.5 366.5,-523.5 366.5,-504.5 265.5,-504.5"/>
<text text-anchor="middle" x="316" y="-511.5" font-family="Helvetica,sans-Serif" font-size="10.00">packet_io_stats.h</text>
</a>
</g>
</g>
<!-- Node15&#45;&gt;Node16 -->
<g id="edge17" class="edge">
<title>Node15&#45;&gt;Node16</title>
<path fill="none" stroke="midnightblue" d="M362.01,-553.82C350.54,-544.15 336.09,-531.95 326.47,-523.83"/>
<polygon fill="midnightblue" stroke="midnightblue" points="359.82,-556.55 369.72,-560.32 364.33,-551.2 359.82,-556.55"/>
</g>
<!-- Node17 -->
<g id="node17" class="node">
<title>Node17</title>
<g id="a_node17"><a xlink:href="packet__io__stats_8h.html" target="_top" xlink:title=" ">
<polygon fill="white" stroke="black" points="262.5,-448.5 262.5,-467.5 363.5,-467.5 363.5,-448.5 262.5,-448.5"/>
<text text-anchor="middle" x="313" y="-455.5" font-family="Helvetica,sans-Serif" font-size="10.00">packet_io_stats.h</text>
</a>
</g>
</g>
<!-- Node16&#45;&gt;Node17 -->
<g id="edge18" class="edge">
<title>Node16&#45;&gt;Node17</title>
<path fill="none" stroke="midnightblue" d="M314.93,-493.8C314.44,-484.91 313.88,-474.78 313.49,-467.75"/>
<polygon fill="midnightblue" stroke="midnightblue" points="311.46,-494.29 315.5,-504.08 318.44,-493.9 311.46,-494.29"/>
</g>
<!-- Node17&#45;&gt;Node18 -->
<g id="edge19" class="edge">
<title>Node17&#45;&gt;Node18</title>
<path fill="none" stroke="midnightblue" d="M302.82,-439.27C297.53,-430.05 291.28,-419.17 287.02,-411.75"/>
<polygon fill="midnightblue" stroke="midnightblue" points="299.87,-441.15 307.88,-448.08 305.94,-437.67 299.87,-441.15"/>
</g>
<!-- Node19 -->
<g id="node19" class="node">
<title>Node19</title>
<g id="a_node19"><a xlink:href="api_2packet__io_8h.html" target="_top" xlink:title=" ">
<polygon fill="white" stroke="black" points="246,-336.5 246,-355.5 318,-355.5 318,-336.5 246,-336.5"/>
<text text-anchor="middle" x="282" y="-343.5" font-family="Helvetica,sans-Serif" font-size="10.00">packet_io.h</text>
</a>
</g>
</g>
<!-- Node18&#45;&gt;Node19 -->
<g id="edge20" class="edge">
<title>Node18&#45;&gt;Node19</title>
<path fill="none" stroke="midnightblue" d="M282,-381.8C282,-372.91 282,-362.78 282,-355.75"/>
<polygon fill="midnightblue" stroke="midnightblue" points="278.5,-382.08 282,-392.08 285.5,-382.08 278.5,-382.08"/>
</g>
<!-- Node19&#45;&gt;Node6 -->
<g id="edge30" class="edge">
<title>Node19&#45;&gt;Node6</title>
<path fill="none" stroke="midnightblue" d="M326.17,-333.05C344.45,-326.1 364.49,-315.55 378,-300 397.83,-277.19 398,-265.23 398,-235 398,-235 398,-235 398,-177 398,-132.76 356.51,-92.71 336.09,-75.67"/>
<polygon fill="midnightblue" stroke="midnightblue" points="324.79,-329.83 316.53,-336.46 327.13,-336.43 324.79,-329.83"/>
</g>
<!-- Node19&#45;&gt;Node10 -->
<g id="edge25" class="edge">
<title>Node19&#45;&gt;Node10</title>
<path fill="none" stroke="midnightblue" d="M277.12,-326.55C275.07,-318.44 272.76,-308.78 271,-300 262.6,-258.09 255.68,-207.4 253.09,-187.55"/>
<polygon fill="midnightblue" stroke="midnightblue" points="273.78,-327.62 279.68,-336.42 280.56,-325.86 273.78,-327.62"/>
</g>
<!-- Node20 -->
<g id="node20" class="node">
<title>Node20</title>
<g id="a_node20"><a xlink:href="api_2spec_2classification_8h.html" target="_top" xlink:title=" ">
<polygon fill="white" stroke="black" points="280.5,-280.5 280.5,-299.5 369.5,-299.5 369.5,-280.5 280.5,-280.5"/>
<text text-anchor="middle" x="325" y="-287.5" font-family="Helvetica,sans-Serif" font-size="10.00">classification.h</text>
</a>
</g>
</g>
<!-- Node19&#45;&gt;Node20 -->
<g id="edge21" class="edge">
<title>Node19&#45;&gt;Node20</title>
<path fill="none" stroke="midnightblue" d="M295.42,-328.14C302.91,-318.74 311.94,-307.4 318.03,-299.75"/>
<polygon fill="midnightblue" stroke="midnightblue" points="292.59,-326.08 289.1,-336.08 298.07,-330.44 292.59,-326.08"/>
</g>
<!-- Node22 -->
<g id="node22" class="node">
<title>Node22</title>
<g id="a_node22"><a xlink:href="api_2spec_2traffic__mngr_8h.html" target="_top" xlink:title=" ">
<polygon fill="white" stroke="black" points="140,-280.5 140,-299.5 224,-299.5 224,-280.5 140,-280.5"/>
<text text-anchor="middle" x="182" y="-287.5" font-family="Helvetica,sans-Serif" font-size="10.00">traffic_mngr.h</text>
</a>
</g>
</g>
<!-- Node19&#45;&gt;Node22 -->
<g id="edge26" class="edge">
<title>Node19&#45;&gt;Node22</title>
<path fill="none" stroke="midnightblue" d="M256.91,-331.45C238.45,-321.48 213.9,-308.23 198.03,-299.65"/>
<polygon fill="midnightblue" stroke="midnightblue" points="255.47,-334.65 265.93,-336.32 258.8,-328.49 255.47,-334.65"/>
</g>
<!-- Node21 -->
<g id="node21" class="node">
<title>Node21</title>
<g id="a_node21"><a xlink:href="api_2classification_8h.html" target="_top" xlink:title=" ">
<polygon fill="white" stroke="black" points="280.5,-224.5 280.5,-243.5 369.5,-243.5 369.5,-224.5 280.5,-224.5"/>
<text text-anchor="middle" x="325" y="-231.5" font-family="Helvetica,sans-Serif" font-size="10.00">classification.h</text>
</a>
</g>
</g>
<!-- Node20&#45;&gt;Node21 -->
<g id="edge22" class="edge">
<title>Node20&#45;&gt;Node21</title>
<path fill="none" stroke="midnightblue" d="M325,-269.8C325,-260.91 325,-250.78 325,-243.75"/>
<polygon fill="midnightblue" stroke="midnightblue" points="321.5,-270.08 325,-280.08 328.5,-270.08 321.5,-270.08"/>
</g>
<!-- Node21&#45;&gt;Node6 -->
<g id="edge24" class="edge">
<title>Node21&#45;&gt;Node6</title>
<path fill="none" stroke="midnightblue" d="M325,-213.93C325,-177.92 325,-101.23 325,-75.57"/>
<polygon fill="midnightblue" stroke="midnightblue" points="321.5,-214.08 325,-224.08 328.5,-214.08 321.5,-214.08"/>
</g>
<!-- Node21&#45;&gt;Node10 -->
<g id="edge23" class="edge">
<title>Node21&#45;&gt;Node10</title>
<path fill="none" stroke="midnightblue" d="M304.86,-218.1C291.72,-208.38 275.02,-196.03 263.94,-187.83"/>
<polygon fill="midnightblue" stroke="midnightblue" points="303.15,-221.19 313.27,-224.32 307.31,-215.56 303.15,-221.19"/>
</g>
<!-- Node23 -->
<g id="node23" class="node">
<title>Node23</title>
<g id="a_node23"><a xlink:href="api_2traffic__mngr_8h.html" target="_top" xlink:title=" ">
<polygon fill="white" stroke="black" points="140,-224.5 140,-243.5 224,-243.5 224,-224.5 140,-224.5"/>
<text text-anchor="middle" x="182" y="-231.5" font-family="Helvetica,sans-Serif" font-size="10.00">traffic_mngr.h</text>
</a>
</g>
</g>
<!-- Node22&#45;&gt;Node23 -->
<g id="edge27" class="edge">
<title>Node22&#45;&gt;Node23</title>
<path fill="none" stroke="midnightblue" d="M182,-269.8C182,-260.91 182,-250.78 182,-243.75"/>
<polygon fill="midnightblue" stroke="midnightblue" points="178.5,-270.08 182,-280.08 185.5,-270.08 178.5,-270.08"/>
</g>
<!-- Node23&#45;&gt;Node6 -->
<g id="edge29" class="edge">
<title>Node23&#45;&gt;Node6</title>
<path fill="none" stroke="midnightblue" d="M184.45,-214.16C188.74,-188.16 199.9,-141.19 227,-112 244.58,-93.06 271.68,-81.47 292.93,-74.8"/>
<polygon fill="midnightblue" stroke="midnightblue" points="180.97,-213.79 182.97,-224.2 187.89,-214.82 180.97,-213.79"/>
</g>
<!-- Node23&#45;&gt;Node10 -->
<g id="edge28" class="edge">
<title>Node23&#45;&gt;Node10</title>
<path fill="none" stroke="midnightblue" d="M201.31,-218.1C213.91,-208.38 229.93,-196.03 240.55,-187.83"/>
<polygon fill="midnightblue" stroke="midnightblue" points="199.03,-215.44 193.25,-224.32 203.3,-220.99 199.03,-215.44"/>
</g>
<!-- Node25 -->
<g id="node25" class="node">
<title>Node25</title>
<g id="a_node25"><a xlink:href="api_2schedule_8h.html" target="_top" xlink:title=" ">
<polygon fill="white" stroke="black" points="426.5,-392.5 426.5,-411.5 495.5,-411.5 495.5,-392.5 426.5,-392.5"/>
<text text-anchor="middle" x="461" y="-399.5" font-family="Helvetica,sans-Serif" font-size="10.00">schedule.h</text>
</a>
</g>
</g>
<!-- Node24&#45;&gt;Node25 -->
<g id="edge33" class="edge">
<title>Node24&#45;&gt;Node25</title>
<path fill="none" stroke="midnightblue" d="M461,-606.3C461,-560.64 461,-444.85 461,-411.88"/>
<polygon fill="midnightblue" stroke="midnightblue" points="457.5,-606.3 461,-616.3 464.5,-606.3 457.5,-606.3"/>
</g>
<!-- Node25&#45;&gt;Node6 -->
<g id="edge34" class="edge">
<title>Node25&#45;&gt;Node6</title>
<path fill="none" stroke="midnightblue" d="M464.51,-382.63C468.36,-360.85 474,-323.42 474,-291 474,-291 474,-291 474,-177 474,-146.2 471.86,-133.69 450,-112 424.95,-87.15 385.19,-75.93 357.25,-70.92"/>
<polygon fill="midnightblue" stroke="midnightblue" points="461.07,-382.01 462.7,-392.48 467.95,-383.28 461.07,-382.01"/>
</g>
<!-- Node27 -->
<g id="node27" class="node">
<title>Node27</title>
<g id="a_node27"><a xlink:href="api_2packet__flags_8h.html" target="_top" xlink:title=" ">
<polygon fill="white" stroke="black" points="552,-448.5 552,-467.5 638,-467.5 638,-448.5 552,-448.5"/>
<text text-anchor="middle" x="595" y="-455.5" font-family="Helvetica,sans-Serif" font-size="10.00">packet_flags.h</text>
</a>
</g>
</g>
<!-- Node26&#45;&gt;Node27 -->
<g id="edge37" class="edge">
<title>Node26&#45;&gt;Node27</title>
<path fill="none" stroke="midnightblue" d="M542.62,-720.08C556.84,-699.29 578,-662.42 578,-627 578,-627 578,-627 578,-569 578,-530.93 588.07,-486.31 592.71,-467.77"/>
<polygon fill="midnightblue" stroke="midnightblue" points="539.62,-718.26 536.67,-728.44 545.32,-722.32 539.62,-718.26"/>
</g>
<!-- Node27&#45;&gt;Node6 -->
<g id="edge38" class="edge">
<title>Node27&#45;&gt;Node6</title>
<path fill="none" stroke="midnightblue" d="M590.33,-438.36C585.3,-416.58 578,-379.42 578,-347 578,-347 578,-347 578,-177 578,-81.69 425.12,-68.09 357.04,-66.76"/>
<polygon fill="midnightblue" stroke="midnightblue" points="586.97,-439.33 592.71,-448.23 593.77,-437.69 586.97,-439.33"/>
</g>
</g>
</svg>
