<?xml version="1.0" encoding="UTF-8" standalone="no"?>
<!DOCTYPE svg PUBLIC "-//W3C//DTD SVG 1.1//EN"
 "http://www.w3.org/Graphics/SVG/1.1/DTD/svg11.dtd">
<!-- Generated by graphviz version 2.43.0 (0)
 -->
<!-- Title: queue_types.h Pages: 1 -->
<svg width="621pt" height="431pt"
 viewBox="0.00 0.00 620.68 431.00" xmlns="http://www.w3.org/2000/svg" xmlns:xlink="http://www.w3.org/1999/xlink">
<g id="graph0" class="graph" transform="scale(1 1) rotate(0) translate(4 427)">
<title>queue_types.h</title>
<polygon fill="white" stroke="transparent" points="-4,4 -4,-427 616.68,-427 616.68,4 -4,4"/>
<!-- Node1 -->
<g id="node1" class="node">
<title>Node1</title>
<g id="a_node1"><a xlink:title=" ">
<polygon fill="#bfbfbf" stroke="black" points="393,-403.5 393,-422.5 481,-422.5 481,-403.5 393,-403.5"/>
<text text-anchor="middle" x="437" y="-410.5" font-family="Helvetica,sans-Serif" font-size="10.00">queue_types.h</text>
</a>
</g>
</g>
<!-- Node2 -->
<g id="node2" class="node">
<title>Node2</title>
<g id="a_node2"><a xlink:href="visibility__begin_8h_source.html" target="_top" xlink:title=" ">
<polygon fill="white" stroke="black" points="15.5,-0.5 15.5,-19.5 136.5,-19.5 136.5,-0.5 15.5,-0.5"/>
<text text-anchor="middle" x="76" y="-7.5" font-family="Helvetica,sans-Serif" font-size="10.00">odp/visibility_begin.h</text>
</a>
</g>
</g>
<!-- Node1&#45;&gt;Node2 -->
<g id="edge1" class="edge">
<title>Node1&#45;&gt;Node2</title>
<path fill="none" stroke="midnightblue" d="M392.69,-409.7C281.6,-402.74 0,-377.13 0,-296.5 0,-296.5 0,-296.5 0,-121 0,-81.28 33.96,-45.5 56.48,-26.15"/>
<polygon fill="midnightblue" stroke="midnightblue" points="58.98,-28.63 64.46,-19.57 54.52,-23.24 58.98,-28.63"/>
</g>
<!-- Node3 -->
<g id="node3" class="node">
<title>Node3</title>
<g id="a_node3"><a xlink:href="api_2schedule__types_8h.html" target="_top" xlink:title=" ">
<polygon fill="white" stroke="black" points="293,-347.5 293,-366.5 433,-366.5 433,-347.5 293,-347.5"/>
<text text-anchor="middle" x="363" y="-354.5" font-family="Helvetica,sans-Serif" font-size="10.00">odp/api/schedule_types.h</text>
</a>
</g>
</g>
<!-- Node1&#45;&gt;Node3 -->
<g id="edge2" class="edge">
<title>Node1&#45;&gt;Node3</title>
<path fill="none" stroke="midnightblue" d="M425.11,-403.32C413.85,-395.11 396.71,-382.6 383.29,-372.81"/>
<polygon fill="midnightblue" stroke="midnightblue" points="385.25,-369.9 375.11,-366.83 381.12,-375.56 385.25,-369.9"/>
</g>
<!-- Node13 -->
<g id="node13" class="node">
<title>Node13</title>
<g id="a_node13"><a xlink:href="visibility__end_8h_source.html" target="_top" xlink:title=" ">
<polygon fill="white" stroke="black" points="354,-0.5 354,-19.5 466,-19.5 466,-0.5 354,-0.5"/>
<text text-anchor="middle" x="410" y="-7.5" font-family="Helvetica,sans-Serif" font-size="10.00">odp/visibility_end.h</text>
</a>
</g>
</g>
<!-- Node1&#45;&gt;Node13 -->
<g id="edge22" class="edge">
<title>Node1&#45;&gt;Node13</title>
<path fill="none" stroke="midnightblue" d="M481.01,-407.64C511.94,-402.51 552.53,-391.33 580,-367 605.76,-344.19 612,-330.91 612,-296.5 612,-296.5 612,-296.5 612,-121 612,-90.9 614.74,-76.82 593,-56 576.19,-39.91 521.57,-27.8 476.34,-20.23"/>
<polygon fill="midnightblue" stroke="midnightblue" points="476.69,-16.74 466.26,-18.59 475.56,-23.65 476.69,-16.74"/>
</g>
<!-- Node14 -->
<g id="node14" class="node">
<title>Node14</title>
<g id="a_node14"><a xlink:href="deprecated_8h.html" target="_top" xlink:title=" ">
<polygon fill="white" stroke="black" points="451.5,-347.5 451.5,-366.5 570.5,-366.5 570.5,-347.5 451.5,-347.5"/>
<text text-anchor="middle" x="511" y="-354.5" font-family="Helvetica,sans-Serif" font-size="10.00">odp/api/deprecated.h</text>
</a>
</g>
</g>
<!-- Node1&#45;&gt;Node14 -->
<g id="edge18" class="edge">
<title>Node1&#45;&gt;Node14</title>
<path fill="none" stroke="midnightblue" d="M448.89,-403.32C460.15,-395.11 477.29,-382.6 490.71,-372.81"/>
<polygon fill="midnightblue" stroke="midnightblue" points="492.88,-375.56 498.89,-366.83 488.75,-369.9 492.88,-375.56"/>
</g>
<!-- Node4 -->
<g id="node4" class="node">
<title>Node4</title>
<g id="a_node4"><a xlink:title=" ">
<polygon fill="white" stroke="#bfbfbf" points="335.5,-280.5 335.5,-310.5 452.5,-310.5 452.5,-280.5 335.5,-280.5"/>
<text text-anchor="start" x="343.5" y="-298.5" font-family="Helvetica,sans-Serif" font-size="10.00">odp/api/abi/schedule</text>
<text text-anchor="middle" x="394" y="-287.5" font-family="Helvetica,sans-Serif" font-size="10.00">_types.h</text>
</a>
</g>
</g>
<!-- Node3&#45;&gt;Node4 -->
<g id="edge3" class="edge">
<title>Node3&#45;&gt;Node4</title>
<path fill="none" stroke="midnightblue" d="M367.44,-347.48C371.25,-340.17 376.91,-329.3 382.03,-319.47"/>
<polygon fill="midnightblue" stroke="midnightblue" points="385.18,-321.01 386.69,-310.52 378.97,-317.77 385.18,-321.01"/>
</g>
<!-- Node5 -->
<g id="node5" class="node">
<title>Node5</title>
<g id="a_node5"><a xlink:href="api_2spec_2schedule__types_8h.html" target="_top" xlink:title=" ">
<polygon fill="white" stroke="black" points="192.5,-280.5 192.5,-310.5 317.5,-310.5 317.5,-280.5 192.5,-280.5"/>
<text text-anchor="start" x="200.5" y="-298.5" font-family="Helvetica,sans-Serif" font-size="10.00">odp/api/spec/schedule</text>
<text text-anchor="middle" x="255" y="-287.5" font-family="Helvetica,sans-Serif" font-size="10.00">_types.h</text>
</a>
</g>
</g>
<!-- Node3&#45;&gt;Node5 -->
<g id="edge4" class="edge">
<title>Node3&#45;&gt;Node5</title>
<path fill="none" stroke="midnightblue" d="M347.53,-347.48C332.42,-339.15 308.92,-326.21 289.39,-315.45"/>
<polygon fill="midnightblue" stroke="midnightblue" points="290.9,-312.28 280.45,-310.52 287.52,-318.41 290.9,-312.28"/>
</g>
<!-- Node5&#45;&gt;Node2 -->
<g id="edge5" class="edge">
<title>Node5&#45;&gt;Node2</title>
<path fill="none" stroke="midnightblue" d="M192.23,-287.79C128.15,-277.04 38,-249.42 38,-179 38,-179 38,-179 38,-121 38,-86.81 54.6,-49.76 65.86,-28.57"/>
<polygon fill="midnightblue" stroke="midnightblue" points="68.95,-30.22 70.72,-19.77 62.82,-26.83 68.95,-30.22"/>
</g>
<!-- Node6 -->
<g id="node6" class="node">
<title>Node6</title>
<g id="a_node6"><a xlink:href="api_2std__types_8h.html" target="_top" xlink:title=" ">
<polygon fill="white" stroke="black" points="199,-224.5 199,-243.5 311,-243.5 311,-224.5 199,-224.5"/>
<text text-anchor="middle" x="255" y="-231.5" font-family="Helvetica,sans-Serif" font-size="10.00">odp/api/std_types.h</text>
</a>
</g>
</g>
<!-- Node5&#45;&gt;Node6 -->
<g id="edge6" class="edge">
<title>Node5&#45;&gt;Node6</title>
<path fill="none" stroke="midnightblue" d="M255,-280.4C255,-272.47 255,-262.46 255,-253.86"/>
<polygon fill="midnightblue" stroke="midnightblue" points="258.5,-253.66 255,-243.66 251.5,-253.66 258.5,-253.66"/>
</g>
<!-- Node5&#45;&gt;Node13 -->
<g id="edge17" class="edge">
<title>Node5&#45;&gt;Node13</title>
<path fill="none" stroke="midnightblue" d="M304.47,-280.46C349.83,-264.19 410,-232.53 410,-179 410,-179 410,-179 410,-121 410,-88.95 410,-51.64 410,-29.75"/>
<polygon fill="midnightblue" stroke="midnightblue" points="413.5,-29.56 410,-19.56 406.5,-29.56 413.5,-29.56"/>
</g>
<!-- Node7 -->
<g id="node7" class="node">
<title>Node7</title>
<g id="a_node7"><a xlink:title=" ">
<polygon fill="white" stroke="#bfbfbf" points="237,-168.5 237,-187.5 367,-187.5 367,-168.5 237,-168.5"/>
<text text-anchor="middle" x="302" y="-175.5" font-family="Helvetica,sans-Serif" font-size="10.00">odp/api/abi/std_types.h</text>
</a>
</g>
</g>
<!-- Node6&#45;&gt;Node7 -->
<g id="edge7" class="edge">
<title>Node6&#45;&gt;Node7</title>
<path fill="none" stroke="midnightblue" d="M262.76,-224.08C269.54,-216.3 279.54,-204.8 287.76,-195.37"/>
<polygon fill="midnightblue" stroke="midnightblue" points="290.46,-197.59 294.38,-187.75 285.18,-193 290.46,-197.59"/>
</g>
<!-- Node8 -->
<g id="node8" class="node">
<title>Node8</title>
<g id="a_node8"><a xlink:href="api_2spec_2std__types_8h.html" target="_top" xlink:title=" ">
<polygon fill="white" stroke="black" points="81.5,-168.5 81.5,-187.5 218.5,-187.5 218.5,-168.5 81.5,-168.5"/>
<text text-anchor="middle" x="150" y="-175.5" font-family="Helvetica,sans-Serif" font-size="10.00">odp/api/spec/std_types.h</text>
</a>
</g>
</g>
<!-- Node6&#45;&gt;Node8 -->
<g id="edge8" class="edge">
<title>Node6&#45;&gt;Node8</title>
<path fill="none" stroke="midnightblue" d="M238.13,-224.32C221.29,-215.66 195.19,-202.24 175.76,-192.25"/>
<polygon fill="midnightblue" stroke="midnightblue" points="177.32,-189.12 166.83,-187.65 174.12,-195.34 177.32,-189.12"/>
</g>
<!-- Node8&#45;&gt;Node2 -->
<g id="edge9" class="edge">
<title>Node8&#45;&gt;Node2</title>
<path fill="none" stroke="midnightblue" d="M138.22,-168.33C127.91,-160.12 113.31,-146.85 105,-132 86.6,-99.13 79.81,-54.9 77.35,-30.03"/>
<polygon fill="midnightblue" stroke="midnightblue" points="80.82,-29.46 76.48,-19.8 73.84,-30.06 80.82,-29.46"/>
</g>
<!-- Node9 -->
<g id="node9" class="node">
<title>Node9</title>
<g id="a_node9"><a xlink:title=" ">
<polygon fill="white" stroke="#bfbfbf" points="114.5,-112.5 114.5,-131.5 167.5,-131.5 167.5,-112.5 114.5,-112.5"/>
<text text-anchor="middle" x="141" y="-119.5" font-family="Helvetica,sans-Serif" font-size="10.00">stdint.h</text>
</a>
</g>
</g>
<!-- Node8&#45;&gt;Node9 -->
<g id="edge10" class="edge">
<title>Node8&#45;&gt;Node9</title>
<path fill="none" stroke="midnightblue" d="M148.51,-168.08C147.32,-160.93 145.61,-150.64 144.12,-141.69"/>
<polygon fill="midnightblue" stroke="midnightblue" points="147.55,-141.04 142.46,-131.75 140.65,-142.19 147.55,-141.04"/>
</g>
<!-- Node10 -->
<g id="node10" class="node">
<title>Node10</title>
<g id="a_node10"><a xlink:href="api_2align_8h.html" target="_top" xlink:title=" ">
<polygon fill="white" stroke="black" points="185.5,-112.5 185.5,-131.5 274.5,-131.5 274.5,-112.5 185.5,-112.5"/>
<text text-anchor="middle" x="230" y="-119.5" font-family="Helvetica,sans-Serif" font-size="10.00">odp/api/align.h</text>
</a>
</g>
</g>
<!-- Node8&#45;&gt;Node10 -->
<g id="edge11" class="edge">
<title>Node8&#45;&gt;Node10</title>
<path fill="none" stroke="midnightblue" d="M162.85,-168.32C175.22,-159.98 194.13,-147.21 208.74,-137.35"/>
<polygon fill="midnightblue" stroke="midnightblue" points="210.85,-140.15 217.18,-131.65 206.93,-134.35 210.85,-140.15"/>
</g>
<!-- Node8&#45;&gt;Node13 -->
<g id="edge16" class="edge">
<title>Node8&#45;&gt;Node13</title>
<path fill="none" stroke="midnightblue" d="M186.13,-168.45C213.71,-161.06 252.1,-148.9 283,-132 317.95,-112.88 324.2,-103.53 353,-76 369.02,-60.69 385.52,-41.41 396.62,-27.84"/>
<polygon fill="midnightblue" stroke="midnightblue" points="399.52,-29.83 403.08,-19.85 394.07,-25.43 399.52,-29.83"/>
</g>
<!-- Node11 -->
<g id="node11" class="node">
<title>Node11</title>
<g id="a_node11"><a xlink:title=" ">
<polygon fill="white" stroke="#bfbfbf" points="104.5,-56.5 104.5,-75.5 211.5,-75.5 211.5,-56.5 104.5,-56.5"/>
<text text-anchor="middle" x="158" y="-63.5" font-family="Helvetica,sans-Serif" font-size="10.00">odp/api/abi/align.h</text>
</a>
</g>
</g>
<!-- Node10&#45;&gt;Node11 -->
<g id="edge12" class="edge">
<title>Node10&#45;&gt;Node11</title>
<path fill="none" stroke="midnightblue" d="M218.43,-112.32C207.58,-104.18 191.12,-91.84 178.12,-82.09"/>
<polygon fill="midnightblue" stroke="midnightblue" points="179.88,-79.03 169.78,-75.83 175.68,-84.63 179.88,-79.03"/>
</g>
<!-- Node12 -->
<g id="node12" class="node">
<title>Node12</title>
<g id="a_node12"><a xlink:href="api_2spec_2align_8h.html" target="_top" xlink:title=" ">
<polygon fill="white" stroke="black" points="230,-56.5 230,-75.5 344,-75.5 344,-56.5 230,-56.5"/>
<text text-anchor="middle" x="287" y="-63.5" font-family="Helvetica,sans-Serif" font-size="10.00">odp/api/spec/align.h</text>
</a>
</g>
</g>
<!-- Node10&#45;&gt;Node12 -->
<g id="edge13" class="edge">
<title>Node10&#45;&gt;Node12</title>
<path fill="none" stroke="midnightblue" d="M239.16,-112.32C247.5,-104.42 260.03,-92.55 270.18,-82.94"/>
<polygon fill="midnightblue" stroke="midnightblue" points="272.82,-85.25 277.68,-75.83 268.01,-80.17 272.82,-85.25"/>
</g>
<!-- Node12&#45;&gt;Node2 -->
<g id="edge14" class="edge">
<title>Node12&#45;&gt;Node2</title>
<path fill="none" stroke="midnightblue" d="M253.57,-56.44C217.14,-47.12 158.77,-32.18 118.97,-22"/>
<polygon fill="midnightblue" stroke="midnightblue" points="119.83,-18.61 109.28,-19.52 118.1,-25.39 119.83,-18.61"/>
</g>
<!-- Node12&#45;&gt;Node13 -->
<g id="edge15" class="edge">
<title>Node12&#45;&gt;Node13</title>
<path fill="none" stroke="midnightblue" d="M306.49,-56.44C326.64,-47.6 358.32,-33.69 381.33,-23.59"/>
<polygon fill="midnightblue" stroke="midnightblue" points="382.85,-26.74 390.6,-19.52 380.04,-20.33 382.85,-26.74"/>
</g>
<!-- Node15 -->
<g id="node15" class="node">
<title>Node15</title>
<g id="a_node15"><a xlink:href="spec_2deprecated_8h.html" target="_top" xlink:title=" ">
<polygon fill="white" stroke="black" points="438.5,-56.5 438.5,-75.5 583.5,-75.5 583.5,-56.5 438.5,-56.5"/>
<text text-anchor="middle" x="511" y="-63.5" font-family="Helvetica,sans-Serif" font-size="10.00">odp/api/spec/deprecated.h</text>
</a>
</g>
</g>
<!-- Node14&#45;&gt;Node15 -->
<g id="edge19" class="edge">
<title>Node14&#45;&gt;Node15</title>
<path fill="none" stroke="midnightblue" d="M511,-347.49C511,-327.74 511,-277.22 511,-235 511,-235 511,-235 511,-177 511,-144.95 511,-107.64 511,-85.75"/>
<polygon fill="midnightblue" stroke="midnightblue" points="514.5,-85.56 511,-75.56 507.5,-85.56 514.5,-85.56"/>
</g>
<!-- Node15&#45;&gt;Node2 -->
<g id="edge20" class="edge">
<title>Node15&#45;&gt;Node2</title>
<path fill="none" stroke="midnightblue" d="M442.07,-56.44C361.32,-46.42 228.22,-29.9 146.71,-19.78"/>
<polygon fill="midnightblue" stroke="midnightblue" points="146.9,-16.27 136.54,-18.52 146.03,-23.22 146.9,-16.27"/>
</g>
<!-- Node15&#45;&gt;Node13 -->
<g id="edge21" class="edge">
<title>Node15&#45;&gt;Node13</title>
<path fill="none" stroke="midnightblue" d="M494.77,-56.32C478.65,-47.7 453.7,-34.36 435.04,-24.39"/>
<polygon fill="midnightblue" stroke="midnightblue" points="436.66,-21.28 426.19,-19.65 433.36,-27.46 436.66,-21.28"/>
</g>
</g>
</svg>
