<?xml version="1.0" encoding="UTF-8" standalone="no"?>
<!DOCTYPE svg PUBLIC "-//W3C//DTD SVG 1.1//EN"
 "http://www.w3.org/Graphics/SVG/1.1/DTD/svg11.dtd">
<!-- Generated by graphviz version 2.43.0 (0)
 -->
<!-- Title: packet_io.h Pages: 1 -->
<svg width="778pt" height="924pt"
 viewBox="0.00 0.00 778.00 924.00" xmlns="http://www.w3.org/2000/svg" xmlns:xlink="http://www.w3.org/1999/xlink">
<g id="graph0" class="graph" transform="scale(1 1) rotate(0) translate(4 920)">
<title>packet_io.h</title>
<polygon fill="white" stroke="transparent" points="-4,4 -4,-920 774,-920 774,4 -4,4"/>
<!-- Node1 -->
<g id="node1" class="node">
<title>Node1</title>
<g id="a_node1"><a xlink:title=" ">
<polygon fill="#bfbfbf" stroke="black" points="388,-896.5 388,-915.5 460,-915.5 460,-896.5 388,-896.5"/>
<text text-anchor="middle" x="424" y="-903.5" font-family="Helvetica,sans-Serif" font-size="10.00">packet_io.h</text>
</a>
</g>
</g>
<!-- Node2 -->
<g id="node2" class="node">
<title>Node2</title>
<g id="a_node2"><a xlink:href="arch_2arm32-linux_2odp_2api_2abi_2packet__io_8h_source.html" target="_top" xlink:title=" ">
<polygon fill="white" stroke="black" points="118,-840.5 118,-859.5 190,-859.5 190,-840.5 118,-840.5"/>
<text text-anchor="middle" x="154" y="-847.5" font-family="Helvetica,sans-Serif" font-size="10.00">packet_io.h</text>
</a>
</g>
</g>
<!-- Node1&#45;&gt;Node2 -->
<g id="edge1" class="edge">
<title>Node1&#45;&gt;Node2</title>
<path fill="none" stroke="midnightblue" d="M378.05,-895.81C325.03,-885.21 238.93,-867.99 190.35,-858.27"/>
<polygon fill="midnightblue" stroke="midnightblue" points="377.37,-899.24 387.87,-897.77 378.75,-892.38 377.37,-899.24"/>
</g>
<!-- Node3 -->
<g id="node3" class="node">
<title>Node3</title>
<g id="a_node3"><a xlink:href="arch_2arm64-linux_2odp_2api_2abi_2packet__io_8h_source.html" target="_top" xlink:title=" ">
<polygon fill="white" stroke="black" points="208,-840.5 208,-859.5 280,-859.5 280,-840.5 208,-840.5"/>
<text text-anchor="middle" x="244" y="-847.5" font-family="Helvetica,sans-Serif" font-size="10.00">packet_io.h</text>
</a>
</g>
</g>
<!-- Node1&#45;&gt;Node3 -->
<g id="edge2" class="edge">
<title>Node1&#45;&gt;Node3</title>
<path fill="none" stroke="midnightblue" d="M385.89,-893.57C351.94,-883.38 303.01,-868.7 272.39,-859.52"/>
<polygon fill="midnightblue" stroke="midnightblue" points="384.89,-896.92 395.48,-896.44 386.91,-890.22 384.89,-896.92"/>
</g>
<!-- Node4 -->
<g id="node4" class="node">
<title>Node4</title>
<g id="a_node4"><a xlink:href="arch_2default-linux_2odp_2api_2abi_2packet__io_8h_source.html" target="_top" xlink:title=" ">
<polygon fill="white" stroke="black" points="298,-840.5 298,-859.5 370,-859.5 370,-840.5 298,-840.5"/>
<text text-anchor="middle" x="334" y="-847.5" font-family="Helvetica,sans-Serif" font-size="10.00">packet_io.h</text>
</a>
</g>
</g>
<!-- Node1&#45;&gt;Node4 -->
<g id="edge3" class="edge">
<title>Node1&#45;&gt;Node4</title>
<path fill="none" stroke="midnightblue" d="M400.96,-891.18C384.4,-881.24 362.58,-868.15 348.42,-859.65"/>
<polygon fill="midnightblue" stroke="midnightblue" points="399.16,-894.18 409.54,-896.32 402.77,-888.18 399.16,-894.18"/>
</g>
<!-- Node5 -->
<g id="node5" class="node">
<title>Node5</title>
<g id="a_node5"><a xlink:href="arch_2mips64-linux_2odp_2api_2abi_2packet__io_8h_source.html" target="_top" xlink:title=" ">
<polygon fill="white" stroke="black" points="388,-840.5 388,-859.5 460,-859.5 460,-840.5 388,-840.5"/>
<text text-anchor="middle" x="424" y="-847.5" font-family="Helvetica,sans-Serif" font-size="10.00">packet_io.h</text>
</a>
</g>
</g>
<!-- Node1&#45;&gt;Node5 -->
<g id="edge4" class="edge">
<title>Node1&#45;&gt;Node5</title>
<path fill="none" stroke="midnightblue" d="M424,-885.8C424,-876.91 424,-866.78 424,-859.75"/>
<polygon fill="midnightblue" stroke="midnightblue" points="420.5,-886.08 424,-896.08 427.5,-886.08 420.5,-886.08"/>
</g>
<!-- Node6 -->
<g id="node6" class="node">
<title>Node6</title>
<g id="a_node6"><a xlink:href="arch_2power64-linux_2odp_2api_2abi_2packet__io_8h_source.html" target="_top" xlink:title=" ">
<polygon fill="white" stroke="black" points="478,-840.5 478,-859.5 550,-859.5 550,-840.5 478,-840.5"/>
<text text-anchor="middle" x="514" y="-847.5" font-family="Helvetica,sans-Serif" font-size="10.00">packet_io.h</text>
</a>
</g>
</g>
<!-- Node1&#45;&gt;Node6 -->
<g id="edge5" class="edge">
<title>Node1&#45;&gt;Node6</title>
<path fill="none" stroke="midnightblue" d="M447.04,-891.18C463.6,-881.24 485.42,-868.15 499.58,-859.65"/>
<polygon fill="midnightblue" stroke="midnightblue" points="445.23,-888.18 438.46,-896.32 448.84,-894.18 445.23,-888.18"/>
</g>
<!-- Node7 -->
<g id="node7" class="node">
<title>Node7</title>
<g id="a_node7"><a xlink:href="arch_2x86__32-linux_2odp_2api_2abi_2packet__io_8h_source.html" target="_top" xlink:title=" ">
<polygon fill="white" stroke="black" points="568,-840.5 568,-859.5 640,-859.5 640,-840.5 568,-840.5"/>
<text text-anchor="middle" x="604" y="-847.5" font-family="Helvetica,sans-Serif" font-size="10.00">packet_io.h</text>
</a>
</g>
</g>
<!-- Node1&#45;&gt;Node7 -->
<g id="edge6" class="edge">
<title>Node1&#45;&gt;Node7</title>
<path fill="none" stroke="midnightblue" d="M462.11,-893.57C496.06,-883.38 544.99,-868.7 575.61,-859.52"/>
<polygon fill="midnightblue" stroke="midnightblue" points="461.09,-890.22 452.52,-896.44 463.11,-896.92 461.09,-890.22"/>
</g>
<!-- Node8 -->
<g id="node8" class="node">
<title>Node8</title>
<g id="a_node8"><a xlink:href="arch_2x86__64-linux_2odp_2api_2abi_2packet__io_8h_source.html" target="_top" xlink:title=" ">
<polygon fill="white" stroke="black" points="658,-840.5 658,-859.5 730,-859.5 730,-840.5 658,-840.5"/>
<text text-anchor="middle" x="694" y="-847.5" font-family="Helvetica,sans-Serif" font-size="10.00">packet_io.h</text>
</a>
</g>
</g>
<!-- Node1&#45;&gt;Node8 -->
<g id="edge7" class="edge">
<title>Node1&#45;&gt;Node8</title>
<path fill="none" stroke="midnightblue" d="M469.95,-895.81C522.97,-885.21 609.07,-867.99 657.65,-858.27"/>
<polygon fill="midnightblue" stroke="midnightblue" points="469.25,-892.38 460.13,-897.77 470.63,-899.24 469.25,-892.38"/>
</g>
<!-- Node9 -->
<g id="node9" class="node">
<title>Node9</title>
<g id="a_node9"><a xlink:href="api_2classification_8h.html" target="_top" xlink:title=" ">
<polygon fill="white" stroke="black" points="614.5,-224.5 614.5,-243.5 703.5,-243.5 703.5,-224.5 614.5,-224.5"/>
<text text-anchor="middle" x="659" y="-231.5" font-family="Helvetica,sans-Serif" font-size="10.00">classification.h</text>
</a>
</g>
</g>
<!-- Node8&#45;&gt;Node9 -->
<g id="edge8" class="edge">
<title>Node8&#45;&gt;Node9</title>
<path fill="none" stroke="midnightblue" d="M704.14,-831.43C715.4,-810.24 732,-773.19 732,-739 732,-739 732,-739 732,-345 732,-314.9 729.5,-305.17 713,-280 702.83,-264.49 685.7,-251.53 673.46,-243.56"/>
<polygon fill="midnightblue" stroke="midnightblue" points="701.05,-829.78 699.28,-840.23 707.18,-833.17 701.05,-829.78"/>
</g>
<!-- Node14 -->
<g id="node14" class="node">
<title>Node14</title>
<g id="a_node14"><a xlink:href="api_2packet_8h.html" target="_top" xlink:title=" ">
<polygon fill="white" stroke="black" points="398,-784.5 398,-803.5 456,-803.5 456,-784.5 398,-784.5"/>
<text text-anchor="middle" x="427" y="-791.5" font-family="Helvetica,sans-Serif" font-size="10.00">packet.h</text>
</a>
</g>
</g>
<!-- Node8&#45;&gt;Node14 -->
<g id="edge14" class="edge">
<title>Node8&#45;&gt;Node14</title>
<path fill="none" stroke="midnightblue" d="M648.16,-839.73C593.17,-828.61 502.63,-810.3 456.3,-800.93"/>
<polygon fill="midnightblue" stroke="midnightblue" points="647.5,-843.17 657.99,-841.72 648.88,-836.3 647.5,-843.17"/>
</g>
<!-- Node26 -->
<g id="node26" class="node">
<title>Node26</title>
<g id="a_node26"><a xlink:href="api_2packet__io_8h.html" target="_top" xlink:title=" ">
<polygon fill="white" stroke="black" points="484,-336.5 484,-355.5 556,-355.5 556,-336.5 484,-336.5"/>
<text text-anchor="middle" x="520" y="-343.5" font-family="Helvetica,sans-Serif" font-size="10.00">packet_io.h</text>
</a>
</g>
</g>
<!-- Node8&#45;&gt;Node26 -->
<g id="edge48" class="edge">
<title>Node8&#45;&gt;Node26</title>
<path fill="none" stroke="midnightblue" d="M694,-830.25C694,-808.36 694,-771.05 694,-739 694,-739 694,-739 694,-457 694,-392.31 607.02,-364.11 556.05,-353.14"/>
<polygon fill="midnightblue" stroke="midnightblue" points="690.5,-830.44 694,-840.44 697.5,-830.44 690.5,-830.44"/>
</g>
<!-- Node10 -->
<g id="node10" class="node">
<title>Node10</title>
<g id="a_node10"><a xlink:href="api_2spec_2ipsec_8h.html" target="_top" xlink:title=" ">
<polygon fill="white" stroke="black" points="475.5,-168.5 475.5,-187.5 526.5,-187.5 526.5,-168.5 475.5,-168.5"/>
<text text-anchor="middle" x="501" y="-175.5" font-family="Helvetica,sans-Serif" font-size="10.00">ipsec.h</text>
</a>
</g>
</g>
<!-- Node9&#45;&gt;Node10 -->
<g id="edge9" class="edge">
<title>Node9&#45;&gt;Node10</title>
<path fill="none" stroke="midnightblue" d="M624.39,-221.17C594.64,-211 552.45,-196.59 525.92,-187.52"/>
<polygon fill="midnightblue" stroke="midnightblue" points="623.37,-224.52 633.96,-224.44 625.63,-217.9 623.37,-224.52"/>
</g>
<!-- Node12 -->
<g id="node12" class="node">
<title>Node12</title>
<g id="a_node12"><a xlink:href="odp__api_8h.html" target="_top" xlink:title=" ">
<polygon fill="white" stroke="black" points="359,-56.5 359,-75.5 423,-75.5 423,-56.5 359,-56.5"/>
<text text-anchor="middle" x="391" y="-63.5" font-family="Helvetica,sans-Serif" font-size="10.00">odp_api.h</text>
</a>
</g>
</g>
<!-- Node9&#45;&gt;Node12 -->
<g id="edge13" class="edge">
<title>Node9&#45;&gt;Node12</title>
<path fill="none" stroke="midnightblue" d="M648.96,-215.55C632.81,-189.08 598.54,-139.02 556,-112 514.65,-85.73 458.06,-74.63 423.05,-70.06"/>
<polygon fill="midnightblue" stroke="midnightblue" points="646.12,-217.63 654.24,-224.44 652.14,-214.06 646.12,-217.63"/>
</g>
<!-- Node11 -->
<g id="node11" class="node">
<title>Node11</title>
<g id="a_node11"><a xlink:href="api_2ipsec_8h.html" target="_top" xlink:title=" ">
<polygon fill="white" stroke="black" points="475.5,-112.5 475.5,-131.5 526.5,-131.5 526.5,-112.5 475.5,-112.5"/>
<text text-anchor="middle" x="501" y="-119.5" font-family="Helvetica,sans-Serif" font-size="10.00">ipsec.h</text>
</a>
</g>
</g>
<!-- Node10&#45;&gt;Node11 -->
<g id="edge10" class="edge">
<title>Node10&#45;&gt;Node11</title>
<path fill="none" stroke="midnightblue" d="M501,-157.8C501,-148.91 501,-138.78 501,-131.75"/>
<polygon fill="midnightblue" stroke="midnightblue" points="497.5,-158.08 501,-168.08 504.5,-158.08 497.5,-158.08"/>
</g>
<!-- Node11&#45;&gt;Node12 -->
<g id="edge11" class="edge">
<title>Node11&#45;&gt;Node12</title>
<path fill="none" stroke="midnightblue" d="M474.24,-107.86C453.84,-97.85 426.33,-84.35 408.63,-75.65"/>
<polygon fill="midnightblue" stroke="midnightblue" points="472.81,-111.06 483.33,-112.32 475.89,-104.78 472.81,-111.06"/>
</g>
<!-- Node13 -->
<g id="node13" class="node">
<title>Node13</title>
<g id="a_node13"><a xlink:href="odp_8h.html" target="_top" xlink:title=" ">
<polygon fill="white" stroke="black" points="369,-0.5 369,-19.5 413,-19.5 413,-0.5 369,-0.5"/>
<text text-anchor="middle" x="391" y="-7.5" font-family="Helvetica,sans-Serif" font-size="10.00">odp.h</text>
</a>
</g>
</g>
<!-- Node12&#45;&gt;Node13 -->
<g id="edge12" class="edge">
<title>Node12&#45;&gt;Node13</title>
<path fill="none" stroke="midnightblue" d="M391,-45.8C391,-36.91 391,-26.78 391,-19.75"/>
<polygon fill="midnightblue" stroke="midnightblue" points="387.5,-46.08 391,-56.08 394.5,-46.08 387.5,-46.08"/>
</g>
<!-- Node14&#45;&gt;Node12 -->
<g id="edge47" class="edge">
<title>Node14&#45;&gt;Node12</title>
<path fill="none" stroke="midnightblue" d="M412.47,-776.66C395.88,-756.25 371,-719.56 371,-683 371,-683 371,-683 371,-513 371,-384.33 339.14,-351.81 354,-224 360.69,-166.42 380.75,-99.31 388.19,-75.73"/>
<polygon fill="midnightblue" stroke="midnightblue" points="409.85,-778.98 418.98,-784.36 415.2,-774.46 409.85,-778.98"/>
</g>
<!-- Node15 -->
<g id="node15" class="node">
<title>Node15</title>
<g id="a_node15"><a xlink:href="api_2spec_2comp_8h.html" target="_top" xlink:title=" ">
<polygon fill="white" stroke="black" points="524.5,-728.5 524.5,-747.5 577.5,-747.5 577.5,-728.5 524.5,-728.5"/>
<text text-anchor="middle" x="551" y="-735.5" font-family="Helvetica,sans-Serif" font-size="10.00">comp.h</text>
</a>
</g>
</g>
<!-- Node14&#45;&gt;Node15 -->
<g id="edge15" class="edge">
<title>Node14&#45;&gt;Node15</title>
<path fill="none" stroke="midnightblue" d="M456.01,-780.37C479.23,-770.26 511.16,-756.35 531.44,-747.52"/>
<polygon fill="midnightblue" stroke="midnightblue" points="454.42,-777.24 446.65,-784.44 457.21,-783.66 454.42,-777.24"/>
</g>
<!-- Node17 -->
<g id="node17" class="node">
<title>Node17</title>
<g id="a_node17"><a xlink:href="api_2spec_2crypto_8h.html" target="_top" xlink:title=" ">
<polygon fill="white" stroke="black" points="399,-672.5 399,-691.5 455,-691.5 455,-672.5 399,-672.5"/>
<text text-anchor="middle" x="427" y="-679.5" font-family="Helvetica,sans-Serif" font-size="10.00">crypto.h</text>
</a>
</g>
</g>
<!-- Node14&#45;&gt;Node17 -->
<g id="edge18" class="edge">
<title>Node14&#45;&gt;Node17</title>
<path fill="none" stroke="midnightblue" d="M427,-774.35C427,-750.25 427,-709.31 427,-691.59"/>
<polygon fill="midnightblue" stroke="midnightblue" points="423.5,-774.37 427,-784.37 430.5,-774.37 423.5,-774.37"/>
</g>
<!-- Node19 -->
<g id="node19" class="node">
<title>Node19</title>
<g id="a_node19"><a xlink:href="api_2spec_2event_8h.html" target="_top" xlink:title=" ">
<polygon fill="white" stroke="black" points="247.5,-728.5 247.5,-747.5 300.5,-747.5 300.5,-728.5 247.5,-728.5"/>
<text text-anchor="middle" x="274" y="-735.5" font-family="Helvetica,sans-Serif" font-size="10.00">event.h</text>
</a>
</g>
</g>
<!-- Node14&#45;&gt;Node19 -->
<g id="edge22" class="edge">
<title>Node14&#45;&gt;Node19</title>
<path fill="none" stroke="midnightblue" d="M393.11,-781.04C364.32,-770.88 323.71,-756.55 298.13,-747.52"/>
<polygon fill="midnightblue" stroke="midnightblue" points="392.16,-784.42 402.76,-784.44 394.49,-777.81 392.16,-784.42"/>
</g>
<!-- Node25 -->
<g id="node25" class="node">
<title>Node25</title>
<g id="a_node25"><a xlink:href="api_2spec_2packet__io_8h.html" target="_top" xlink:title=" ">
<polygon fill="white" stroke="black" points="447,-392.5 447,-411.5 519,-411.5 519,-392.5 447,-392.5"/>
<text text-anchor="middle" x="483" y="-399.5" font-family="Helvetica,sans-Serif" font-size="10.00">packet_io.h</text>
</a>
</g>
</g>
<!-- Node14&#45;&gt;Node25 -->
<g id="edge46" class="edge">
<title>Node14&#45;&gt;Node25</title>
<path fill="none" stroke="midnightblue" d="M441.53,-776.66C458.12,-756.25 483,-719.56 483,-683 483,-683 483,-683 483,-513 483,-475.19 483,-430.06 483,-411.56"/>
<polygon fill="midnightblue" stroke="midnightblue" points="438.8,-774.46 435.02,-784.36 444.15,-778.98 438.8,-774.46"/>
</g>
<!-- Node32 -->
<g id="node32" class="node">
<title>Node32</title>
<g id="a_node32"><a xlink:href="api_2spec_2packet__flags_8h.html" target="_top" xlink:title=" ">
<polygon fill="white" stroke="black" points="54,-728.5 54,-747.5 140,-747.5 140,-728.5 54,-728.5"/>
<text text-anchor="middle" x="97" y="-735.5" font-family="Helvetica,sans-Serif" font-size="10.00">packet_flags.h</text>
</a>
</g>
</g>
<!-- Node14&#45;&gt;Node32 -->
<g id="edge43" class="edge">
<title>Node14&#45;&gt;Node32</title>
<path fill="none" stroke="midnightblue" d="M387.51,-786.54C325.2,-776.34 204.57,-756.6 140.09,-746.05"/>
<polygon fill="midnightblue" stroke="midnightblue" points="387.28,-790.05 397.71,-788.21 388.41,-783.14 387.28,-790.05"/>
</g>
<!-- Node16 -->
<g id="node16" class="node">
<title>Node16</title>
<g id="a_node16"><a xlink:href="api_2comp_8h.html" target="_top" xlink:title=" ">
<polygon fill="white" stroke="black" points="587.5,-504.5 587.5,-523.5 640.5,-523.5 640.5,-504.5 587.5,-504.5"/>
<text text-anchor="middle" x="614" y="-511.5" font-family="Helvetica,sans-Serif" font-size="10.00">comp.h</text>
</a>
</g>
</g>
<!-- Node15&#45;&gt;Node16 -->
<g id="edge16" class="edge">
<title>Node15&#45;&gt;Node16</title>
<path fill="none" stroke="midnightblue" d="M556.23,-718.58C569.12,-673.14 602.1,-556.92 611.48,-523.88"/>
<polygon fill="midnightblue" stroke="midnightblue" points="552.83,-717.72 553.47,-728.3 559.57,-719.63 552.83,-717.72"/>
</g>
<!-- Node16&#45;&gt;Node12 -->
<g id="edge17" class="edge">
<title>Node16&#45;&gt;Node12</title>
<path fill="none" stroke="midnightblue" d="M630.47,-497.44C670.57,-457.8 770,-348.11 770,-235 770,-235 770,-235 770,-177 770,-105.06 514.97,-77.13 423.31,-69.41"/>
<polygon fill="midnightblue" stroke="midnightblue" points="628.03,-494.94 623.29,-504.42 632.9,-499.96 628.03,-494.94"/>
</g>
<!-- Node18 -->
<g id="node18" class="node">
<title>Node18</title>
<g id="a_node18"><a xlink:href="api_2crypto_8h.html" target="_top" xlink:title=" ">
<polygon fill="white" stroke="black" points="363,-224.5 363,-243.5 419,-243.5 419,-224.5 363,-224.5"/>
<text text-anchor="middle" x="391" y="-231.5" font-family="Helvetica,sans-Serif" font-size="10.00">crypto.h</text>
</a>
</g>
</g>
<!-- Node17&#45;&gt;Node18 -->
<g id="edge19" class="edge">
<title>Node17&#45;&gt;Node18</title>
<path fill="none" stroke="midnightblue" d="M422.06,-662.37C416.73,-640.62 409,-603.46 409,-571 409,-571 409,-571 409,-345 409,-306.88 398.34,-262.29 393.43,-243.76"/>
<polygon fill="midnightblue" stroke="midnightblue" points="418.71,-663.41 424.57,-672.24 425.49,-661.68 418.71,-663.41"/>
</g>
<!-- Node18&#45;&gt;Node10 -->
<g id="edge20" class="edge">
<title>Node18&#45;&gt;Node10</title>
<path fill="none" stroke="midnightblue" d="M417.76,-219.86C438.16,-209.85 465.67,-196.35 483.37,-187.65"/>
<polygon fill="midnightblue" stroke="midnightblue" points="416.11,-216.78 408.67,-224.32 419.19,-223.06 416.11,-216.78"/>
</g>
<!-- Node18&#45;&gt;Node12 -->
<g id="edge21" class="edge">
<title>Node18&#45;&gt;Node12</title>
<path fill="none" stroke="midnightblue" d="M391,-213.93C391,-177.92 391,-101.23 391,-75.57"/>
<polygon fill="midnightblue" stroke="midnightblue" points="387.5,-214.08 391,-224.08 394.5,-214.08 387.5,-214.08"/>
</g>
<!-- Node20 -->
<g id="node20" class="node">
<title>Node20</title>
<g id="a_node20"><a xlink:href="api_2event_8h.html" target="_top" xlink:title=" ">
<polygon fill="white" stroke="black" points="176.5,-672.5 176.5,-691.5 229.5,-691.5 229.5,-672.5 176.5,-672.5"/>
<text text-anchor="middle" x="203" y="-679.5" font-family="Helvetica,sans-Serif" font-size="10.00">event.h</text>
</a>
</g>
</g>
<!-- Node19&#45;&gt;Node20 -->
<g id="edge23" class="edge">
<title>Node19&#45;&gt;Node20</title>
<path fill="none" stroke="midnightblue" d="M254.41,-722.1C241.63,-712.38 225.39,-700.03 214.61,-691.83"/>
<polygon fill="midnightblue" stroke="midnightblue" points="252.51,-725.06 262.59,-728.32 256.75,-719.48 252.51,-725.06"/>
</g>
<!-- Node20&#45;&gt;Node12 -->
<g id="edge42" class="edge">
<title>Node20&#45;&gt;Node12</title>
<path fill="none" stroke="midnightblue" d="M195.43,-662.88C187.13,-641.37 175,-604.21 175,-571 175,-571 175,-571 175,-177 175,-95.57 298.41,-74.39 358.66,-68.91"/>
<polygon fill="midnightblue" stroke="midnightblue" points="192.25,-664.37 199.22,-672.35 198.75,-661.77 192.25,-664.37"/>
</g>
<!-- Node21 -->
<g id="node21" class="node">
<title>Node21</title>
<g id="a_node21"><a xlink:href="api_2spec_2queue_8h.html" target="_top" xlink:title=" ">
<polygon fill="white" stroke="black" points="203,-616.5 203,-635.5 259,-635.5 259,-616.5 203,-616.5"/>
<text text-anchor="middle" x="231" y="-623.5" font-family="Helvetica,sans-Serif" font-size="10.00">queue.h</text>
</a>
</g>
</g>
<!-- Node20&#45;&gt;Node21 -->
<g id="edge24" class="edge">
<title>Node20&#45;&gt;Node21</title>
<path fill="none" stroke="midnightblue" d="M212.34,-662.98C217.09,-653.82 222.66,-643.09 226.46,-635.75"/>
<polygon fill="midnightblue" stroke="midnightblue" points="209.12,-661.59 207.62,-672.08 215.33,-664.82 209.12,-661.59"/>
</g>
<!-- Node30 -->
<g id="node30" class="node">
<title>Node30</title>
<g id="a_node30"><a xlink:href="api_2spec_2schedule_8h.html" target="_top" xlink:title=" ">
<polygon fill="white" stroke="black" points="77.5,-616.5 77.5,-635.5 146.5,-635.5 146.5,-616.5 77.5,-616.5"/>
<text text-anchor="middle" x="112" y="-623.5" font-family="Helvetica,sans-Serif" font-size="10.00">schedule.h</text>
</a>
</g>
</g>
<!-- Node20&#45;&gt;Node30 -->
<g id="edge39" class="edge">
<title>Node20&#45;&gt;Node30</title>
<path fill="none" stroke="midnightblue" d="M179.71,-667.18C162.96,-657.24 140.9,-644.15 126.58,-635.65"/>
<polygon fill="midnightblue" stroke="midnightblue" points="177.99,-670.23 188.38,-672.32 181.57,-664.21 177.99,-670.23"/>
</g>
<!-- Node22 -->
<g id="node22" class="node">
<title>Node22</title>
<g id="a_node22"><a xlink:href="api_2queue_8h.html" target="_top" xlink:title=" ">
<polygon fill="white" stroke="black" points="203,-560.5 203,-579.5 259,-579.5 259,-560.5 203,-560.5"/>
<text text-anchor="middle" x="231" y="-567.5" font-family="Helvetica,sans-Serif" font-size="10.00">queue.h</text>
</a>
</g>
</g>
<!-- Node21&#45;&gt;Node22 -->
<g id="edge25" class="edge">
<title>Node21&#45;&gt;Node22</title>
<path fill="none" stroke="midnightblue" d="M231,-605.8C231,-596.91 231,-586.78 231,-579.75"/>
<polygon fill="midnightblue" stroke="midnightblue" points="227.5,-606.08 231,-616.08 234.5,-606.08 227.5,-606.08"/>
</g>
<!-- Node22&#45;&gt;Node12 -->
<g id="edge38" class="edge">
<title>Node22&#45;&gt;Node12</title>
<path fill="none" stroke="midnightblue" d="M226.06,-550.37C220.73,-528.62 213,-491.46 213,-459 213,-459 213,-459 213,-177 213,-109.25 307.47,-81.83 358.77,-71.94"/>
<polygon fill="midnightblue" stroke="midnightblue" points="222.71,-551.41 228.57,-560.24 229.49,-549.68 222.71,-551.41"/>
</g>
<!-- Node23 -->
<g id="node23" class="node">
<title>Node23</title>
<g id="a_node23"><a xlink:href="spec_2packet__io__stats_8h.html" target="_top" xlink:title=" ">
<polygon fill="white" stroke="black" points="241.5,-504.5 241.5,-523.5 342.5,-523.5 342.5,-504.5 241.5,-504.5"/>
<text text-anchor="middle" x="292" y="-511.5" font-family="Helvetica,sans-Serif" font-size="10.00">packet_io_stats.h</text>
</a>
</g>
</g>
<!-- Node22&#45;&gt;Node23 -->
<g id="edge26" class="edge">
<title>Node22&#45;&gt;Node23</title>
<path fill="none" stroke="midnightblue" d="M248.47,-553.54C259.34,-543.91 272.94,-531.87 282.02,-523.83"/>
<polygon fill="midnightblue" stroke="midnightblue" points="245.97,-551.07 240.8,-560.32 250.61,-556.32 245.97,-551.07"/>
</g>
<!-- Node24 -->
<g id="node24" class="node">
<title>Node24</title>
<g id="a_node24"><a xlink:href="packet__io__stats_8h.html" target="_top" xlink:title=" ">
<polygon fill="white" stroke="black" points="241.5,-448.5 241.5,-467.5 342.5,-467.5 342.5,-448.5 241.5,-448.5"/>
<text text-anchor="middle" x="292" y="-455.5" font-family="Helvetica,sans-Serif" font-size="10.00">packet_io_stats.h</text>
</a>
</g>
</g>
<!-- Node23&#45;&gt;Node24 -->
<g id="edge27" class="edge">
<title>Node23&#45;&gt;Node24</title>
<path fill="none" stroke="midnightblue" d="M292,-493.8C292,-484.91 292,-474.78 292,-467.75"/>
<polygon fill="midnightblue" stroke="midnightblue" points="288.5,-494.08 292,-504.08 295.5,-494.08 288.5,-494.08"/>
</g>
<!-- Node24&#45;&gt;Node25 -->
<g id="edge28" class="edge">
<title>Node24&#45;&gt;Node25</title>
<path fill="none" stroke="midnightblue" d="M331.97,-445.7C368.02,-435.51 420.24,-420.74 452.88,-411.52"/>
<polygon fill="midnightblue" stroke="midnightblue" points="330.94,-442.35 322.26,-448.44 332.84,-449.09 330.94,-442.35"/>
</g>
<!-- Node25&#45;&gt;Node26 -->
<g id="edge29" class="edge">
<title>Node25&#45;&gt;Node26</title>
<path fill="none" stroke="midnightblue" d="M494.95,-383.57C501.31,-374.27 508.87,-363.25 514,-355.75"/>
<polygon fill="midnightblue" stroke="midnightblue" points="491.87,-381.86 489.11,-392.08 497.65,-385.81 491.87,-381.86"/>
</g>
<!-- Node26&#45;&gt;Node10 -->
<g id="edge32" class="edge">
<title>Node26&#45;&gt;Node10</title>
<path fill="none" stroke="midnightblue" d="M512.05,-326.81C508.92,-318.76 505.68,-309.07 504,-300 496.31,-258.47 498.84,-207.56 500.29,-187.6"/>
<polygon fill="midnightblue" stroke="midnightblue" points="508.9,-328.36 515.96,-336.26 515.37,-325.69 508.9,-328.36"/>
</g>
<!-- Node26&#45;&gt;Node12 -->
<g id="edge37" class="edge">
<title>Node26&#45;&gt;Node12</title>
<path fill="none" stroke="midnightblue" d="M501.25,-329.68C479.62,-310.16 447,-274.22 447,-235 447,-235 447,-235 447,-177 447,-135.21 414.51,-93.26 399.02,-75.64"/>
<polygon fill="midnightblue" stroke="midnightblue" points="499.07,-332.42 508.91,-336.33 503.65,-327.13 499.07,-332.42"/>
</g>
<!-- Node27 -->
<g id="node27" class="node">
<title>Node27</title>
<g id="a_node27"><a xlink:href="api_2spec_2classification_8h.html" target="_top" xlink:title=" ">
<polygon fill="white" stroke="black" points="614.5,-280.5 614.5,-299.5 703.5,-299.5 703.5,-280.5 614.5,-280.5"/>
<text text-anchor="middle" x="659" y="-287.5" font-family="Helvetica,sans-Serif" font-size="10.00">classification.h</text>
</a>
</g>
</g>
<!-- Node26&#45;&gt;Node27 -->
<g id="edge30" class="edge">
<title>Node26&#45;&gt;Node27</title>
<path fill="none" stroke="midnightblue" d="M551.48,-332.77C577.59,-322.63 614.04,-308.47 637.08,-299.52"/>
<polygon fill="midnightblue" stroke="midnightblue" points="550.08,-329.56 542.02,-336.44 552.61,-336.08 550.08,-329.56"/>
</g>
<!-- Node28 -->
<g id="node28" class="node">
<title>Node28</title>
<g id="a_node28"><a xlink:href="api_2spec_2traffic__mngr_8h.html" target="_top" xlink:title=" ">
<polygon fill="white" stroke="black" points="513,-280.5 513,-299.5 597,-299.5 597,-280.5 513,-280.5"/>
<text text-anchor="middle" x="555" y="-287.5" font-family="Helvetica,sans-Serif" font-size="10.00">traffic_mngr.h</text>
</a>
</g>
</g>
<!-- Node26&#45;&gt;Node28 -->
<g id="edge33" class="edge">
<title>Node26&#45;&gt;Node28</title>
<path fill="none" stroke="midnightblue" d="M531.3,-327.57C537.32,-318.27 544.47,-307.25 549.33,-299.75"/>
<polygon fill="midnightblue" stroke="midnightblue" points="528.28,-325.79 525.78,-336.08 534.16,-329.6 528.28,-325.79"/>
</g>
<!-- Node27&#45;&gt;Node9 -->
<g id="edge31" class="edge">
<title>Node27&#45;&gt;Node9</title>
<path fill="none" stroke="midnightblue" d="M659,-269.8C659,-260.91 659,-250.78 659,-243.75"/>
<polygon fill="midnightblue" stroke="midnightblue" points="655.5,-270.08 659,-280.08 662.5,-270.08 655.5,-270.08"/>
</g>
<!-- Node29 -->
<g id="node29" class="node">
<title>Node29</title>
<g id="a_node29"><a xlink:href="api_2traffic__mngr_8h.html" target="_top" xlink:title=" ">
<polygon fill="white" stroke="black" points="513,-224.5 513,-243.5 597,-243.5 597,-224.5 513,-224.5"/>
<text text-anchor="middle" x="555" y="-231.5" font-family="Helvetica,sans-Serif" font-size="10.00">traffic_mngr.h</text>
</a>
</g>
</g>
<!-- Node28&#45;&gt;Node29 -->
<g id="edge34" class="edge">
<title>Node28&#45;&gt;Node29</title>
<path fill="none" stroke="midnightblue" d="M555,-269.8C555,-260.91 555,-250.78 555,-243.75"/>
<polygon fill="midnightblue" stroke="midnightblue" points="551.5,-270.08 555,-280.08 558.5,-270.08 551.5,-270.08"/>
</g>
<!-- Node29&#45;&gt;Node10 -->
<g id="edge35" class="edge">
<title>Node29&#45;&gt;Node10</title>
<path fill="none" stroke="midnightblue" d="M539,-217C529.43,-207.43 517.64,-195.64 509.75,-187.75"/>
<polygon fill="midnightblue" stroke="midnightblue" points="536.54,-219.49 546.08,-224.08 541.49,-214.54 536.54,-219.49"/>
</g>
<!-- Node29&#45;&gt;Node12 -->
<g id="edge36" class="edge">
<title>Node29&#45;&gt;Node12</title>
<path fill="none" stroke="midnightblue" d="M557.65,-214.37C560.27,-188.25 560.83,-140.73 536,-112 507.82,-79.4 456.49,-70.08 423.07,-67.61"/>
<polygon fill="midnightblue" stroke="midnightblue" points="554.16,-214.08 556.43,-224.43 561.11,-214.93 554.16,-214.08"/>
</g>
<!-- Node31 -->
<g id="node31" class="node">
<title>Node31</title>
<g id="a_node31"><a xlink:href="api_2schedule_8h.html" target="_top" xlink:title=" ">
<polygon fill="white" stroke="black" points="77.5,-392.5 77.5,-411.5 146.5,-411.5 146.5,-392.5 77.5,-392.5"/>
<text text-anchor="middle" x="112" y="-399.5" font-family="Helvetica,sans-Serif" font-size="10.00">schedule.h</text>
</a>
</g>
</g>
<!-- Node30&#45;&gt;Node31 -->
<g id="edge40" class="edge">
<title>Node30&#45;&gt;Node31</title>
<path fill="none" stroke="midnightblue" d="M112,-606.3C112,-560.64 112,-444.85 112,-411.88"/>
<polygon fill="midnightblue" stroke="midnightblue" points="108.5,-606.3 112,-616.3 115.5,-606.3 108.5,-606.3"/>
</g>
<!-- Node31&#45;&gt;Node12 -->
<g id="edge41" class="edge">
<title>Node31&#45;&gt;Node12</title>
<path fill="none" stroke="midnightblue" d="M115.51,-382.63C119.36,-360.85 125,-323.42 125,-291 125,-291 125,-291 125,-177 125,-76.8 288.17,-66.08 358.91,-66.14"/>
<polygon fill="midnightblue" stroke="midnightblue" points="112.07,-382.01 113.7,-392.48 118.95,-383.28 112.07,-382.01"/>
</g>
<!-- Node33 -->
<g id="node33" class="node">
<title>Node33</title>
<g id="a_node33"><a xlink:href="api_2packet__flags_8h.html" target="_top" xlink:title=" ">
<polygon fill="white" stroke="black" points="0,-448.5 0,-467.5 86,-467.5 86,-448.5 0,-448.5"/>
<text text-anchor="middle" x="43" y="-455.5" font-family="Helvetica,sans-Serif" font-size="10.00">packet_flags.h</text>
</a>
</g>
</g>
<!-- Node32&#45;&gt;Node33 -->
<g id="edge44" class="edge">
<title>Node32&#45;&gt;Node33</title>
<path fill="none" stroke="midnightblue" d="M84.05,-720.44C69.24,-699.79 47,-662.82 47,-627 47,-627 47,-627 47,-569 47,-531.16 44.61,-486.05 43.52,-467.55"/>
<polygon fill="midnightblue" stroke="midnightblue" points="81.27,-722.55 90.05,-728.48 86.88,-718.37 81.27,-722.55"/>
</g>
<!-- Node33&#45;&gt;Node12 -->
<g id="edge45" class="edge">
<title>Node33&#45;&gt;Node12</title>
<path fill="none" stroke="midnightblue" d="M44.1,-438.26C45.28,-416.37 47,-379.07 47,-347 47,-347 47,-347 47,-177 47,-128.38 90.31,-131.16 135,-112 210.9,-79.45 309.1,-70.44 358.94,-67.95"/>
<polygon fill="midnightblue" stroke="midnightblue" points="40.59,-438.27 43.52,-448.45 47.58,-438.66 40.59,-438.27"/>
</g>
</g>
</svg>
