<?xml version="1.0" encoding="UTF-8" standalone="no"?>
<!DOCTYPE svg PUBLIC "-//W3C//DTD SVG 1.1//EN"
 "http://www.w3.org/Graphics/SVG/1.1/DTD/svg11.dtd">
<!-- Generated by graphviz version 2.43.0 (0)
 -->
<!-- Title: thread.h Pages: 1 -->
<svg width="972pt" height="420pt"
 viewBox="0.00 0.00 971.50 420.00" xmlns="http://www.w3.org/2000/svg" xmlns:xlink="http://www.w3.org/1999/xlink">
<g id="graph0" class="graph" transform="scale(1 1) rotate(0) translate(4 416)">
<title>thread.h</title>
<polygon fill="white" stroke="transparent" points="-4,4 -4,-416 967.5,-416 967.5,4 -4,4"/>
<!-- Node1 -->
<g id="node1" class="node">
<title>Node1</title>
<g id="a_node1"><a xlink:title=" ">
<polygon fill="#bfbfbf" stroke="black" points="638.5,-392.5 638.5,-411.5 695.5,-411.5 695.5,-392.5 638.5,-392.5"/>
<text text-anchor="middle" x="667" y="-399.5" font-family="Helvetica,sans-Serif" font-size="10.00">thread.h</text>
</a>
</g>
</g>
<!-- Node2 -->
<g id="node2" class="node">
<title>Node2</title>
<g id="a_node2"><a xlink:href="arch_2arm32-linux_2odp_2api_2abi_2thread_8h_source.html" target="_top" xlink:title=" ">
<polygon fill="white" stroke="black" points="413.5,-336.5 413.5,-355.5 470.5,-355.5 470.5,-336.5 413.5,-336.5"/>
<text text-anchor="middle" x="442" y="-343.5" font-family="Helvetica,sans-Serif" font-size="10.00">thread.h</text>
</a>
</g>
</g>
<!-- Node1&#45;&gt;Node2 -->
<g id="edge1" class="edge">
<title>Node1&#45;&gt;Node2</title>
<path fill="none" stroke="midnightblue" d="M628.2,-391.76C590.18,-382.69 530.59,-368.45 479,-356 476.3,-355.35 473.49,-354.67 470.68,-353.99"/>
<polygon fill="midnightblue" stroke="midnightblue" points="627.79,-395.26 638.33,-394.17 629.41,-388.45 627.79,-395.26"/>
</g>
<!-- Node3 -->
<g id="node3" class="node">
<title>Node3</title>
<g id="a_node3"><a xlink:href="arch_2arm64-linux_2odp_2api_2abi_2thread_8h_source.html" target="_top" xlink:title=" ">
<polygon fill="white" stroke="black" points="488.5,-336.5 488.5,-355.5 545.5,-355.5 545.5,-336.5 488.5,-336.5"/>
<text text-anchor="middle" x="517" y="-343.5" font-family="Helvetica,sans-Serif" font-size="10.00">thread.h</text>
</a>
</g>
</g>
<!-- Node1&#45;&gt;Node3 -->
<g id="edge2" class="edge">
<title>Node1&#45;&gt;Node3</title>
<path fill="none" stroke="midnightblue" d="M633.78,-389.04C605.55,-378.88 565.74,-364.55 540.66,-355.52"/>
<polygon fill="midnightblue" stroke="midnightblue" points="632.64,-392.35 643.23,-392.44 635.01,-385.76 632.64,-392.35"/>
</g>
<!-- Node4 -->
<g id="node4" class="node">
<title>Node4</title>
<g id="a_node4"><a xlink:href="arch_2default-linux_2odp_2api_2abi_2thread_8h_source.html" target="_top" xlink:title=" ">
<polygon fill="white" stroke="black" points="563.5,-336.5 563.5,-355.5 620.5,-355.5 620.5,-336.5 563.5,-336.5"/>
<text text-anchor="middle" x="592" y="-343.5" font-family="Helvetica,sans-Serif" font-size="10.00">thread.h</text>
</a>
</g>
</g>
<!-- Node1&#45;&gt;Node4 -->
<g id="edge3" class="edge">
<title>Node1&#45;&gt;Node4</title>
<path fill="none" stroke="midnightblue" d="M646.69,-386.38C633.14,-376.62 615.76,-364.11 604.27,-355.83"/>
<polygon fill="midnightblue" stroke="midnightblue" points="644.79,-389.32 654.95,-392.32 648.88,-383.64 644.79,-389.32"/>
</g>
<!-- Node5 -->
<g id="node5" class="node">
<title>Node5</title>
<g id="a_node5"><a xlink:href="arch_2mips64-linux_2odp_2api_2abi_2thread_8h_source.html" target="_top" xlink:title=" ">
<polygon fill="white" stroke="black" points="638.5,-336.5 638.5,-355.5 695.5,-355.5 695.5,-336.5 638.5,-336.5"/>
<text text-anchor="middle" x="667" y="-343.5" font-family="Helvetica,sans-Serif" font-size="10.00">thread.h</text>
</a>
</g>
</g>
<!-- Node1&#45;&gt;Node5 -->
<g id="edge4" class="edge">
<title>Node1&#45;&gt;Node5</title>
<path fill="none" stroke="midnightblue" d="M667,-381.8C667,-372.91 667,-362.78 667,-355.75"/>
<polygon fill="midnightblue" stroke="midnightblue" points="663.5,-382.08 667,-392.08 670.5,-382.08 663.5,-382.08"/>
</g>
<!-- Node6 -->
<g id="node6" class="node">
<title>Node6</title>
<g id="a_node6"><a xlink:href="arch_2power64-linux_2odp_2api_2abi_2thread_8h_source.html" target="_top" xlink:title=" ">
<polygon fill="white" stroke="black" points="713.5,-336.5 713.5,-355.5 770.5,-355.5 770.5,-336.5 713.5,-336.5"/>
<text text-anchor="middle" x="742" y="-343.5" font-family="Helvetica,sans-Serif" font-size="10.00">thread.h</text>
</a>
</g>
</g>
<!-- Node1&#45;&gt;Node6 -->
<g id="edge5" class="edge">
<title>Node1&#45;&gt;Node6</title>
<path fill="none" stroke="midnightblue" d="M687.31,-386.38C700.86,-376.62 718.24,-364.11 729.73,-355.83"/>
<polygon fill="midnightblue" stroke="midnightblue" points="685.12,-383.64 679.05,-392.32 689.21,-389.32 685.12,-383.64"/>
</g>
<!-- Node7 -->
<g id="node7" class="node">
<title>Node7</title>
<g id="a_node7"><a xlink:href="arch_2x86__32-linux_2odp_2api_2abi_2thread_8h_source.html" target="_top" xlink:title=" ">
<polygon fill="white" stroke="black" points="788.5,-336.5 788.5,-355.5 845.5,-355.5 845.5,-336.5 788.5,-336.5"/>
<text text-anchor="middle" x="817" y="-343.5" font-family="Helvetica,sans-Serif" font-size="10.00">thread.h</text>
</a>
</g>
</g>
<!-- Node1&#45;&gt;Node7 -->
<g id="edge6" class="edge">
<title>Node1&#45;&gt;Node7</title>
<path fill="none" stroke="midnightblue" d="M700.22,-389.04C728.45,-378.88 768.26,-364.55 793.34,-355.52"/>
<polygon fill="midnightblue" stroke="midnightblue" points="698.99,-385.76 690.77,-392.44 701.36,-392.35 698.99,-385.76"/>
</g>
<!-- Node8 -->
<g id="node8" class="node">
<title>Node8</title>
<g id="a_node8"><a xlink:href="arch_2x86__64-linux_2odp_2api_2abi_2thread_8h_source.html" target="_top" xlink:title=" ">
<polygon fill="white" stroke="black" points="863.5,-336.5 863.5,-355.5 920.5,-355.5 920.5,-336.5 863.5,-336.5"/>
<text text-anchor="middle" x="892" y="-343.5" font-family="Helvetica,sans-Serif" font-size="10.00">thread.h</text>
</a>
</g>
</g>
<!-- Node1&#45;&gt;Node8 -->
<g id="edge7" class="edge">
<title>Node1&#45;&gt;Node8</title>
<path fill="none" stroke="midnightblue" d="M705.88,-391.67C750.65,-380.92 823.14,-363.53 863.16,-353.92"/>
<polygon fill="midnightblue" stroke="midnightblue" points="704.86,-388.31 695.95,-394.05 706.49,-395.12 704.86,-388.31"/>
</g>
<!-- Node9 -->
<g id="node9" class="node">
<title>Node9</title>
<g id="a_node9"><a xlink:href="api_2thread_8h.html" target="_top" xlink:title=" ">
<polygon fill="white" stroke="black" points="863.5,-280.5 863.5,-299.5 920.5,-299.5 920.5,-280.5 863.5,-280.5"/>
<text text-anchor="middle" x="892" y="-287.5" font-family="Helvetica,sans-Serif" font-size="10.00">thread.h</text>
</a>
</g>
</g>
<!-- Node8&#45;&gt;Node9 -->
<g id="edge8" class="edge">
<title>Node8&#45;&gt;Node9</title>
<path fill="none" stroke="midnightblue" d="M892,-325.8C892,-316.91 892,-306.78 892,-299.75"/>
<polygon fill="midnightblue" stroke="midnightblue" points="888.5,-326.08 892,-336.08 895.5,-326.08 888.5,-326.08"/>
</g>
<!-- Node10 -->
<g id="node10" class="node">
<title>Node10</title>
<g id="a_node10"><a xlink:href="api_2abi-default_2rwlock__recursive_8h.html" target="_top" xlink:title=" ">
<polygon fill="white" stroke="black" points="441,-224.5 441,-243.5 549,-243.5 549,-224.5 441,-224.5"/>
<text text-anchor="middle" x="495" y="-231.5" font-family="Helvetica,sans-Serif" font-size="10.00">rwlock_recursive.h</text>
</a>
</g>
</g>
<!-- Node9&#45;&gt;Node10 -->
<g id="edge9" class="edge">
<title>Node9&#45;&gt;Node10</title>
<path fill="none" stroke="midnightblue" d="M853.14,-283.71C781.92,-274.03 630.37,-253.41 549.12,-242.36"/>
<polygon fill="midnightblue" stroke="midnightblue" points="853.07,-287.24 863.45,-285.12 854.01,-280.3 853.07,-287.24"/>
</g>
<!-- Node19 -->
<g id="node19" class="node">
<title>Node19</title>
<g id="a_node19"><a xlink:href="odp__api_8h.html" target="_top" xlink:title=" ">
<polygon fill="white" stroke="black" points="860,-56.5 860,-75.5 924,-75.5 924,-56.5 860,-56.5"/>
<text text-anchor="middle" x="892" y="-63.5" font-family="Helvetica,sans-Serif" font-size="10.00">odp_api.h</text>
</a>
</g>
</g>
<!-- Node9&#45;&gt;Node19 -->
<g id="edge22" class="edge">
<title>Node9&#45;&gt;Node19</title>
<path fill="none" stroke="midnightblue" d="M892,-270.3C892,-224.64 892,-108.85 892,-75.88"/>
<polygon fill="midnightblue" stroke="midnightblue" points="888.5,-270.3 892,-280.3 895.5,-270.3 888.5,-270.3"/>
</g>
<!-- Node21 -->
<g id="node21" class="node">
<title>Node21</title>
<g id="a_node21"><a xlink:href="api_2cpu_8h.html" target="_top" xlink:title=" ">
<polygon fill="white" stroke="black" points="920.5,-112.5 920.5,-131.5 963.5,-131.5 963.5,-112.5 920.5,-112.5"/>
<text text-anchor="middle" x="942" y="-119.5" font-family="Helvetica,sans-Serif" font-size="10.00">cpu.h</text>
</a>
</g>
</g>
<!-- Node9&#45;&gt;Node21 -->
<g id="edge20" class="edge">
<title>Node9&#45;&gt;Node21</title>
<path fill="none" stroke="midnightblue" d="M897.73,-270.76C900.28,-262.59 903.32,-252.82 906,-244 918.82,-201.85 933.7,-151.3 939.5,-131.52"/>
<polygon fill="midnightblue" stroke="midnightblue" points="894.37,-269.79 894.72,-280.38 901.05,-271.89 894.37,-269.79"/>
</g>
<!-- Node11 -->
<g id="node11" class="node">
<title>Node11</title>
<g id="a_node11"><a xlink:href="arch_2arm32-linux_2odp_2api_2abi_2rwlock__recursive_8h_source.html" target="_top" xlink:title=" ">
<polygon fill="white" stroke="black" points="0,-168.5 0,-187.5 108,-187.5 108,-168.5 0,-168.5"/>
<text text-anchor="middle" x="54" y="-175.5" font-family="Helvetica,sans-Serif" font-size="10.00">rwlock_recursive.h</text>
</a>
</g>
</g>
<!-- Node10&#45;&gt;Node11 -->
<g id="edge10" class="edge">
<title>Node10&#45;&gt;Node11</title>
<path fill="none" stroke="midnightblue" d="M430.54,-225.79C355.26,-217.26 226.99,-202.4 117,-188 114.15,-187.63 111.23,-187.24 108.29,-186.84"/>
<polygon fill="midnightblue" stroke="midnightblue" points="430.47,-229.31 440.8,-226.95 431.26,-222.35 430.47,-229.31"/>
</g>
<!-- Node12 -->
<g id="node12" class="node">
<title>Node12</title>
<g id="a_node12"><a xlink:href="arch_2arm64-linux_2odp_2api_2abi_2rwlock__recursive_8h_source.html" target="_top" xlink:title=" ">
<polygon fill="white" stroke="black" points="126,-168.5 126,-187.5 234,-187.5 234,-168.5 126,-168.5"/>
<text text-anchor="middle" x="180" y="-175.5" font-family="Helvetica,sans-Serif" font-size="10.00">rwlock_recursive.h</text>
</a>
</g>
</g>
<!-- Node10&#45;&gt;Node12 -->
<g id="edge11" class="edge">
<title>Node10&#45;&gt;Node12</title>
<path fill="none" stroke="midnightblue" d="M435.08,-222.73C375.55,-212.52 285.34,-197.06 229.68,-187.52"/>
<polygon fill="midnightblue" stroke="midnightblue" points="434.64,-226.2 445.09,-224.44 435.82,-219.3 434.64,-226.2"/>
</g>
<!-- Node13 -->
<g id="node13" class="node">
<title>Node13</title>
<g id="a_node13"><a xlink:href="arch_2default-linux_2odp_2api_2abi_2rwlock__recursive_8h_source.html" target="_top" xlink:title=" ">
<polygon fill="white" stroke="black" points="252,-168.5 252,-187.5 360,-187.5 360,-168.5 252,-168.5"/>
<text text-anchor="middle" x="306" y="-175.5" font-family="Helvetica,sans-Serif" font-size="10.00">rwlock_recursive.h</text>
</a>
</g>
</g>
<!-- Node10&#45;&gt;Node13 -->
<g id="edge12" class="edge">
<title>Node10&#45;&gt;Node13</title>
<path fill="none" stroke="midnightblue" d="M454.99,-221.57C419.33,-211.38 367.96,-196.7 335.81,-187.52"/>
<polygon fill="midnightblue" stroke="midnightblue" points="454.48,-225.06 465.05,-224.44 456.4,-218.33 454.48,-225.06"/>
</g>
<!-- Node14 -->
<g id="node14" class="node">
<title>Node14</title>
<g id="a_node14"><a xlink:href="arch_2mips64-linux_2odp_2api_2abi_2rwlock__recursive_8h_source.html" target="_top" xlink:title=" ">
<polygon fill="white" stroke="black" points="378,-168.5 378,-187.5 486,-187.5 486,-168.5 378,-168.5"/>
<text text-anchor="middle" x="432" y="-175.5" font-family="Helvetica,sans-Serif" font-size="10.00">rwlock_recursive.h</text>
</a>
</g>
</g>
<!-- Node10&#45;&gt;Node14 -->
<g id="edge13" class="edge">
<title>Node10&#45;&gt;Node14</title>
<path fill="none" stroke="midnightblue" d="M476.96,-217.54C465.73,-207.91 451.68,-195.87 442.31,-187.83"/>
<polygon fill="midnightblue" stroke="midnightblue" points="475.01,-220.47 484.88,-224.32 479.56,-215.16 475.01,-220.47"/>
</g>
<!-- Node15 -->
<g id="node15" class="node">
<title>Node15</title>
<g id="a_node15"><a xlink:href="arch_2power64-linux_2odp_2api_2abi_2rwlock__recursive_8h_source.html" target="_top" xlink:title=" ">
<polygon fill="white" stroke="black" points="504,-168.5 504,-187.5 612,-187.5 612,-168.5 504,-168.5"/>
<text text-anchor="middle" x="558" y="-175.5" font-family="Helvetica,sans-Serif" font-size="10.00">rwlock_recursive.h</text>
</a>
</g>
</g>
<!-- Node10&#45;&gt;Node15 -->
<g id="edge14" class="edge">
<title>Node10&#45;&gt;Node15</title>
<path fill="none" stroke="midnightblue" d="M513.04,-217.54C524.27,-207.91 538.32,-195.87 547.69,-187.83"/>
<polygon fill="midnightblue" stroke="midnightblue" points="510.44,-215.16 505.12,-224.32 514.99,-220.47 510.44,-215.16"/>
</g>
<!-- Node16 -->
<g id="node16" class="node">
<title>Node16</title>
<g id="a_node16"><a xlink:href="arch_2x86__32-linux_2odp_2api_2abi_2rwlock__recursive_8h_source.html" target="_top" xlink:title=" ">
<polygon fill="white" stroke="black" points="630,-168.5 630,-187.5 738,-187.5 738,-168.5 630,-168.5"/>
<text text-anchor="middle" x="684" y="-175.5" font-family="Helvetica,sans-Serif" font-size="10.00">rwlock_recursive.h</text>
</a>
</g>
</g>
<!-- Node10&#45;&gt;Node16 -->
<g id="edge15" class="edge">
<title>Node10&#45;&gt;Node16</title>
<path fill="none" stroke="midnightblue" d="M535.01,-221.57C570.67,-211.38 622.04,-196.7 654.19,-187.52"/>
<polygon fill="midnightblue" stroke="midnightblue" points="533.6,-218.33 524.95,-224.44 535.52,-225.06 533.6,-218.33"/>
</g>
<!-- Node17 -->
<g id="node17" class="node">
<title>Node17</title>
<g id="a_node17"><a xlink:href="arch_2x86__64-linux_2odp_2api_2abi_2rwlock__recursive_8h_source.html" target="_top" xlink:title=" ">
<polygon fill="white" stroke="black" points="756,-168.5 756,-187.5 864,-187.5 864,-168.5 756,-168.5"/>
<text text-anchor="middle" x="810" y="-175.5" font-family="Helvetica,sans-Serif" font-size="10.00">rwlock_recursive.h</text>
</a>
</g>
</g>
<!-- Node10&#45;&gt;Node17 -->
<g id="edge16" class="edge">
<title>Node10&#45;&gt;Node17</title>
<path fill="none" stroke="midnightblue" d="M554.92,-222.73C614.45,-212.52 704.66,-197.06 760.32,-187.52"/>
<polygon fill="midnightblue" stroke="midnightblue" points="554.18,-219.3 544.91,-224.44 555.36,-226.2 554.18,-219.3"/>
</g>
<!-- Node18 -->
<g id="node18" class="node">
<title>Node18</title>
<g id="a_node18"><a xlink:href="api_2rwlock__recursive_8h.html" target="_top" xlink:title=" ">
<polygon fill="white" stroke="black" points="756,-112.5 756,-131.5 864,-131.5 864,-112.5 756,-112.5"/>
<text text-anchor="middle" x="810" y="-119.5" font-family="Helvetica,sans-Serif" font-size="10.00">rwlock_recursive.h</text>
</a>
</g>
</g>
<!-- Node17&#45;&gt;Node18 -->
<g id="edge17" class="edge">
<title>Node17&#45;&gt;Node18</title>
<path fill="none" stroke="midnightblue" d="M810,-157.8C810,-148.91 810,-138.78 810,-131.75"/>
<polygon fill="midnightblue" stroke="midnightblue" points="806.5,-158.08 810,-168.08 813.5,-158.08 806.5,-158.08"/>
</g>
<!-- Node18&#45;&gt;Node19 -->
<g id="edge18" class="edge">
<title>Node18&#45;&gt;Node19</title>
<path fill="none" stroke="midnightblue" d="M831.83,-106.62C846.81,-96.76 866.2,-83.99 878.86,-75.65"/>
<polygon fill="midnightblue" stroke="midnightblue" points="829.6,-103.9 823.17,-112.32 833.45,-109.75 829.6,-103.9"/>
</g>
<!-- Node20 -->
<g id="node20" class="node">
<title>Node20</title>
<g id="a_node20"><a xlink:href="odp_8h.html" target="_top" xlink:title=" ">
<polygon fill="white" stroke="black" points="870,-0.5 870,-19.5 914,-19.5 914,-0.5 870,-0.5"/>
<text text-anchor="middle" x="892" y="-7.5" font-family="Helvetica,sans-Serif" font-size="10.00">odp.h</text>
</a>
</g>
</g>
<!-- Node19&#45;&gt;Node20 -->
<g id="edge19" class="edge">
<title>Node19&#45;&gt;Node20</title>
<path fill="none" stroke="midnightblue" d="M892,-45.8C892,-36.91 892,-26.78 892,-19.75"/>
<polygon fill="midnightblue" stroke="midnightblue" points="888.5,-46.08 892,-56.08 895.5,-46.08 888.5,-46.08"/>
</g>
<!-- Node21&#45;&gt;Node19 -->
<g id="edge21" class="edge">
<title>Node21&#45;&gt;Node19</title>
<path fill="none" stroke="midnightblue" d="M926.92,-104.72C918.11,-95.2 907.33,-83.56 900.1,-75.75"/>
<polygon fill="midnightblue" stroke="midnightblue" points="924.38,-107.12 933.74,-112.08 929.52,-102.37 924.38,-107.12"/>
</g>
</g>
</svg>
