<?xml version="1.0" encoding="UTF-8" standalone="no"?>
<!DOCTYPE svg PUBLIC "-//W3C//DTD SVG 1.1//EN"
 "http://www.w3.org/Graphics/SVG/1.1/DTD/svg11.dtd">
<!-- Generated by graphviz version 2.43.0 (0)
 -->
<!-- Title: queue.h Pages: 1 -->
<svg width="1293pt" height="968pt"
 viewBox="0.00 0.00 1292.50 968.00" xmlns="http://www.w3.org/2000/svg" xmlns:xlink="http://www.w3.org/1999/xlink">
<g id="graph0" class="graph" transform="scale(1 1) rotate(0) translate(4 964)">
<title>queue.h</title>
<polygon fill="white" stroke="transparent" points="-4,4 -4,-964 1288.5,-964 1288.5,4 -4,4"/>
<!-- Node1 -->
<g id="node1" class="node">
<title>Node1</title>
<g id="a_node1"><a xlink:title=" ">
<polygon fill="#bfbfbf" stroke="black" points="961,-940.5 961,-959.5 1017,-959.5 1017,-940.5 961,-940.5"/>
<text text-anchor="middle" x="989" y="-947.5" font-family="Helvetica,sans-Serif" font-size="10.00">queue.h</text>
</a>
</g>
</g>
<!-- Node2 -->
<g id="node2" class="node">
<title>Node2</title>
<g id="a_node2"><a xlink:href="api_2std__types_8h.html" target="_top" xlink:title=" ">
<polygon fill="white" stroke="black" points="418,-224.5 418,-243.5 530,-243.5 530,-224.5 418,-224.5"/>
<text text-anchor="middle" x="474" y="-231.5" font-family="Helvetica,sans-Serif" font-size="10.00">odp/api/std_types.h</text>
</a>
</g>
</g>
<!-- Node1&#45;&gt;Node2 -->
<g id="edge1" class="edge">
<title>Node1&#45;&gt;Node2</title>
<path fill="none" stroke="midnightblue" d="M960.67,-948.64C806.57,-946.3 76,-930.4 76,-839 76,-839 76,-839 76,-484.5 76,-398.25 347.7,-284.2 442.12,-247.17"/>
<polygon fill="midnightblue" stroke="midnightblue" points="443.41,-250.42 451.46,-243.53 440.87,-243.9 443.41,-250.42"/>
</g>
<!-- Node11 -->
<g id="node11" class="node">
<title>Node11</title>
<g id="a_node11"><a xlink:title=" ">
<polygon fill="white" stroke="#bfbfbf" points="104,-660.5 104,-679.5 214,-679.5 214,-660.5 104,-660.5"/>
<text text-anchor="middle" x="159" y="-667.5" font-family="Helvetica,sans-Serif" font-size="10.00">odp/api/abi/event.h</text>
</a>
</g>
</g>
<!-- Node1&#45;&gt;Node11 -->
<g id="edge12" class="edge">
<title>Node1&#45;&gt;Node11</title>
<path fill="none" stroke="midnightblue" d="M960.67,-948.87C814.11,-948.03 145.44,-942.14 62,-904 25.69,-887.4 0,-878.92 0,-839 0,-839 0,-839 0,-781 0,-726.32 64.39,-696.68 111.22,-682.36"/>
<polygon fill="midnightblue" stroke="midnightblue" points="112.29,-685.7 120.92,-679.54 110.34,-678.98 112.29,-685.7"/>
</g>
<!-- Node12 -->
<g id="node12" class="node">
<title>Node12</title>
<g id="a_node12"><a xlink:title=" ">
<polygon fill="white" stroke="#bfbfbf" points="904.5,-409 904.5,-428 1049.5,-428 1049.5,-409 904.5,-409"/>
<text text-anchor="middle" x="977" y="-416" font-family="Helvetica,sans-Serif" font-size="10.00">odp/api/abi/queue_types.h</text>
</a>
</g>
</g>
<!-- Node1&#45;&gt;Node12 -->
<g id="edge13" class="edge">
<title>Node1&#45;&gt;Node12</title>
<path fill="none" stroke="midnightblue" d="M1017.25,-942.53C1061.7,-930.49 1143,-900.11 1143,-839 1143,-839 1143,-839 1143,-669 1143,-564.13 1040.09,-469.73 996.33,-434.32"/>
<polygon fill="midnightblue" stroke="midnightblue" points="998.42,-431.51 988.41,-428.04 994.07,-437 998.42,-431.51"/>
</g>
<!-- Node13 -->
<g id="node13" class="node">
<title>Node13</title>
<g id="a_node13"><a xlink:title=" ">
<polygon fill="white" stroke="#bfbfbf" points="1171.5,-884.5 1171.5,-903.5 1284.5,-903.5 1284.5,-884.5 1171.5,-884.5"/>
<text text-anchor="middle" x="1228" y="-891.5" font-family="Helvetica,sans-Serif" font-size="10.00">odp/api/abi/queue.h</text>
</a>
</g>
</g>
<!-- Node1&#45;&gt;Node13 -->
<g id="edge14" class="edge">
<title>Node1&#45;&gt;Node13</title>
<path fill="none" stroke="midnightblue" d="M1017.35,-942.59C1057.53,-933.52 1131.53,-916.8 1180.26,-905.79"/>
<polygon fill="midnightblue" stroke="midnightblue" points="1181.27,-909.15 1190.25,-903.53 1179.73,-902.32 1181.27,-909.15"/>
</g>
<!-- Node14 -->
<g id="node14" class="node">
<title>Node14</title>
<g id="a_node14"><a xlink:title=" ">
<polygon fill="white" stroke="#bfbfbf" points="845,-660.5 845,-679.5 955,-679.5 955,-660.5 845,-660.5"/>
<text text-anchor="middle" x="900" y="-667.5" font-family="Helvetica,sans-Serif" font-size="10.00">odp/api/abi/buffer.h</text>
</a>
</g>
</g>
<!-- Node1&#45;&gt;Node14 -->
<g id="edge15" class="edge">
<title>Node1&#45;&gt;Node14</title>
<path fill="none" stroke="midnightblue" d="M989,-940.44C989,-921.94 989,-876.81 989,-839 989,-839 989,-839 989,-781 989,-738.85 949.01,-703.78 922.64,-685.24"/>
<polygon fill="midnightblue" stroke="midnightblue" points="924.54,-682.3 914.3,-679.6 920.62,-688.1 924.54,-682.3"/>
</g>
<!-- Node15 -->
<g id="node15" class="node">
<title>Node15</title>
<g id="a_node15"><a xlink:title=" ">
<polygon fill="white" stroke="#bfbfbf" points="973,-660.5 973,-679.5 1077,-679.5 1077,-660.5 973,-660.5"/>
<text text-anchor="middle" x="1025" y="-667.5" font-family="Helvetica,sans-Serif" font-size="10.00">odp/api/abi/pool.h</text>
</a>
</g>
</g>
<!-- Node1&#45;&gt;Node15 -->
<g id="edge16" class="edge">
<title>Node1&#45;&gt;Node15</title>
<path fill="none" stroke="midnightblue" d="M1000.54,-940.43C1021.8,-923.57 1065,-883.8 1065,-839 1065,-839 1065,-839 1065,-781 1065,-746.62 1047.53,-709.63 1035.68,-688.5"/>
<polygon fill="midnightblue" stroke="midnightblue" points="1038.62,-686.61 1030.56,-679.73 1032.58,-690.13 1038.62,-686.61"/>
</g>
<!-- Node16 -->
<g id="node16" class="node">
<title>Node16</title>
<g id="a_node16"><a xlink:href="api_2spec_2queue_8h.html" target="_top" xlink:title=" ">
<polygon fill="white" stroke="black" points="719,-884.5 719,-903.5 839,-903.5 839,-884.5 719,-884.5"/>
<text text-anchor="middle" x="779" y="-891.5" font-family="Helvetica,sans-Serif" font-size="10.00">odp/api/spec/queue.h</text>
</a>
</g>
</g>
<!-- Node1&#45;&gt;Node16 -->
<g id="edge17" class="edge">
<title>Node1&#45;&gt;Node16</title>
<path fill="none" stroke="midnightblue" d="M960.68,-941.72C925.1,-932.57 863.69,-916.78 822.23,-906.12"/>
<polygon fill="midnightblue" stroke="midnightblue" points="822.96,-902.69 812.41,-903.59 821.22,-909.47 822.96,-902.69"/>
</g>
<!-- Node3 -->
<g id="node3" class="node">
<title>Node3</title>
<g id="a_node3"><a xlink:title=" ">
<polygon fill="white" stroke="#bfbfbf" points="385,-168.5 385,-187.5 515,-187.5 515,-168.5 385,-168.5"/>
<text text-anchor="middle" x="450" y="-175.5" font-family="Helvetica,sans-Serif" font-size="10.00">odp/api/abi/std_types.h</text>
</a>
</g>
</g>
<!-- Node2&#45;&gt;Node3 -->
<g id="edge2" class="edge">
<title>Node2&#45;&gt;Node3</title>
<path fill="none" stroke="midnightblue" d="M470.04,-224.08C466.79,-216.77 462.08,-206.18 458.05,-197.1"/>
<polygon fill="midnightblue" stroke="midnightblue" points="461.15,-195.47 453.89,-187.75 454.75,-198.31 461.15,-195.47"/>
</g>
<!-- Node4 -->
<g id="node4" class="node">
<title>Node4</title>
<g id="a_node4"><a xlink:href="api_2spec_2std__types_8h.html" target="_top" xlink:title=" ">
<polygon fill="white" stroke="black" points="571.5,-168.5 571.5,-187.5 708.5,-187.5 708.5,-168.5 571.5,-168.5"/>
<text text-anchor="middle" x="640" y="-175.5" font-family="Helvetica,sans-Serif" font-size="10.00">odp/api/spec/std_types.h</text>
</a>
</g>
</g>
<!-- Node2&#45;&gt;Node4 -->
<g id="edge3" class="edge">
<title>Node2&#45;&gt;Node4</title>
<path fill="none" stroke="midnightblue" d="M500.3,-224.44C528.35,-215.32 572.94,-200.81 604.18,-190.65"/>
<polygon fill="midnightblue" stroke="midnightblue" points="605.39,-193.94 613.82,-187.52 603.23,-187.28 605.39,-193.94"/>
</g>
<!-- Node5 -->
<g id="node5" class="node">
<title>Node5</title>
<g id="a_node5"><a xlink:href="visibility__begin_8h_source.html" target="_top" xlink:title=" ">
<polygon fill="white" stroke="black" points="910.5,-0.5 910.5,-19.5 1031.5,-19.5 1031.5,-0.5 910.5,-0.5"/>
<text text-anchor="middle" x="971" y="-7.5" font-family="Helvetica,sans-Serif" font-size="10.00">odp/visibility_begin.h</text>
</a>
</g>
</g>
<!-- Node4&#45;&gt;Node5 -->
<g id="edge4" class="edge">
<title>Node4&#45;&gt;Node5</title>
<path fill="none" stroke="midnightblue" d="M664.17,-168.45C707.73,-152.65 801.78,-116.76 876,-76 903.67,-60.8 933.37,-39.61 952.05,-25.61"/>
<polygon fill="midnightblue" stroke="midnightblue" points="954.19,-28.38 960.05,-19.55 949.97,-22.8 954.19,-28.38"/>
</g>
<!-- Node6 -->
<g id="node6" class="node">
<title>Node6</title>
<g id="a_node6"><a xlink:title=" ">
<polygon fill="white" stroke="#bfbfbf" points="527.5,-112.5 527.5,-131.5 580.5,-131.5 580.5,-112.5 527.5,-112.5"/>
<text text-anchor="middle" x="554" y="-119.5" font-family="Helvetica,sans-Serif" font-size="10.00">stdint.h</text>
</a>
</g>
</g>
<!-- Node4&#45;&gt;Node6 -->
<g id="edge5" class="edge">
<title>Node4&#45;&gt;Node6</title>
<path fill="none" stroke="midnightblue" d="M626.18,-168.32C612.77,-159.9 592.18,-146.97 576.41,-137.07"/>
<polygon fill="midnightblue" stroke="midnightblue" points="578.11,-134.01 567.78,-131.65 574.39,-139.94 578.11,-134.01"/>
</g>
<!-- Node7 -->
<g id="node7" class="node">
<title>Node7</title>
<g id="a_node7"><a xlink:href="api_2align_8h.html" target="_top" xlink:title=" ">
<polygon fill="white" stroke="black" points="598.5,-112.5 598.5,-131.5 687.5,-131.5 687.5,-112.5 598.5,-112.5"/>
<text text-anchor="middle" x="643" y="-119.5" font-family="Helvetica,sans-Serif" font-size="10.00">odp/api/align.h</text>
</a>
</g>
</g>
<!-- Node4&#45;&gt;Node7 -->
<g id="edge6" class="edge">
<title>Node4&#45;&gt;Node7</title>
<path fill="none" stroke="midnightblue" d="M640.5,-168.08C640.89,-161.01 641.45,-150.86 641.95,-141.99"/>
<polygon fill="midnightblue" stroke="midnightblue" points="645.45,-141.93 642.51,-131.75 638.46,-141.54 645.45,-141.93"/>
</g>
<!-- Node10 -->
<g id="node10" class="node">
<title>Node10</title>
<g id="a_node10"><a xlink:href="visibility__end_8h_source.html" target="_top" xlink:title=" ">
<polygon fill="white" stroke="black" points="172,-0.5 172,-19.5 284,-19.5 284,-0.5 172,-0.5"/>
<text text-anchor="middle" x="228" y="-7.5" font-family="Helvetica,sans-Serif" font-size="10.00">odp/visibility_end.h</text>
</a>
</g>
</g>
<!-- Node4&#45;&gt;Node10 -->
<g id="edge11" class="edge">
<title>Node4&#45;&gt;Node10</title>
<path fill="none" stroke="midnightblue" d="M601.04,-168.48C539.82,-154.24 418.24,-122.51 323,-76 294.48,-62.07 264.77,-40.4 246.34,-25.96"/>
<polygon fill="midnightblue" stroke="midnightblue" points="248.48,-23.19 238.48,-19.7 244.12,-28.67 248.48,-23.19"/>
</g>
<!-- Node8 -->
<g id="node8" class="node">
<title>Node8</title>
<g id="a_node8"><a xlink:title=" ">
<polygon fill="white" stroke="#bfbfbf" points="463.5,-56.5 463.5,-75.5 570.5,-75.5 570.5,-56.5 463.5,-56.5"/>
<text text-anchor="middle" x="517" y="-63.5" font-family="Helvetica,sans-Serif" font-size="10.00">odp/api/abi/align.h</text>
</a>
</g>
</g>
<!-- Node7&#45;&gt;Node8 -->
<g id="edge7" class="edge">
<title>Node7&#45;&gt;Node8</title>
<path fill="none" stroke="midnightblue" d="M623.03,-112.44C602.39,-103.6 569.94,-89.69 546.37,-79.59"/>
<polygon fill="midnightblue" stroke="midnightblue" points="547.44,-76.24 536.87,-75.52 544.68,-82.67 547.44,-76.24"/>
</g>
<!-- Node9 -->
<g id="node9" class="node">
<title>Node9</title>
<g id="a_node9"><a xlink:href="api_2spec_2align_8h.html" target="_top" xlink:title=" ">
<polygon fill="white" stroke="black" points="589,-56.5 589,-75.5 703,-75.5 703,-56.5 589,-56.5"/>
<text text-anchor="middle" x="646" y="-63.5" font-family="Helvetica,sans-Serif" font-size="10.00">odp/api/spec/align.h</text>
</a>
</g>
</g>
<!-- Node7&#45;&gt;Node9 -->
<g id="edge8" class="edge">
<title>Node7&#45;&gt;Node9</title>
<path fill="none" stroke="midnightblue" d="M643.5,-112.08C643.89,-105.01 644.45,-94.86 644.95,-85.99"/>
<polygon fill="midnightblue" stroke="midnightblue" points="648.45,-85.93 645.51,-75.75 641.46,-85.54 648.45,-85.93"/>
</g>
<!-- Node9&#45;&gt;Node5 -->
<g id="edge9" class="edge">
<title>Node9&#45;&gt;Node5</title>
<path fill="none" stroke="midnightblue" d="M697.5,-56.44C755.14,-46.87 848.49,-31.36 909.81,-21.17"/>
<polygon fill="midnightblue" stroke="midnightblue" points="910.45,-24.61 919.74,-19.52 909.31,-17.7 910.45,-24.61"/>
</g>
<!-- Node9&#45;&gt;Node10 -->
<g id="edge10" class="edge">
<title>Node9&#45;&gt;Node10</title>
<path fill="none" stroke="midnightblue" d="M588.98,-57.32C585.61,-56.87 582.26,-56.43 579,-56 479.87,-42.99 364.92,-28.33 294.33,-19.38"/>
<polygon fill="midnightblue" stroke="midnightblue" points="294.61,-15.89 284.25,-18.11 293.73,-22.83 294.61,-15.89"/>
</g>
<!-- Node16&#45;&gt;Node5 -->
<g id="edge18" class="edge">
<title>Node16&#45;&gt;Node5</title>
<path fill="none" stroke="midnightblue" d="M800.24,-884.4C856.05,-860.69 1007.92,-788.85 1086,-680 1156.23,-582.1 1161,-539.98 1161,-419.5 1161,-419.5 1161,-419.5 1161,-121 1161,-62.69 1093.15,-34.79 1038.54,-21.78"/>
<polygon fill="midnightblue" stroke="midnightblue" points="1039.05,-18.3 1028.52,-19.52 1037.51,-25.13 1039.05,-18.3"/>
</g>
<!-- Node16&#45;&gt;Node10 -->
<g id="edge69" class="edge">
<title>Node16&#45;&gt;Node10</title>
<path fill="none" stroke="midnightblue" d="M718.99,-888.02C542.58,-871.76 38,-812.85 38,-671 38,-671 38,-671 38,-121 38,-62.24 106.9,-34.36 161.71,-21.48"/>
<polygon fill="midnightblue" stroke="midnightblue" points="162.76,-24.83 171.76,-19.24 161.24,-18 162.76,-24.83"/>
</g>
<!-- Node17 -->
<g id="node17" class="node">
<title>Node17</title>
<g id="a_node17"><a xlink:href="api_2event_8h.html" target="_top" xlink:title=" ">
<polygon fill="white" stroke="black" points="502,-828.5 502,-847.5 594,-847.5 594,-828.5 502,-828.5"/>
<text text-anchor="middle" x="548" y="-835.5" font-family="Helvetica,sans-Serif" font-size="10.00">odp/api/event.h</text>
</a>
</g>
</g>
<!-- Node16&#45;&gt;Node17 -->
<g id="edge19" class="edge">
<title>Node16&#45;&gt;Node17</title>
<path fill="none" stroke="midnightblue" d="M742.4,-884.44C702.27,-875.06 637.8,-859.99 594.22,-849.8"/>
<polygon fill="midnightblue" stroke="midnightblue" points="594.97,-846.38 584.43,-847.52 593.37,-853.2 594.97,-846.38"/>
</g>
<!-- Node32 -->
<g id="node32" class="node">
<title>Node32</title>
<g id="a_node32"><a xlink:href="api_2queue__types_8h.html" target="_top" xlink:title=" ">
<polygon fill="white" stroke="black" points="715.5,-476 715.5,-495 842.5,-495 842.5,-476 715.5,-476"/>
<text text-anchor="middle" x="779" y="-483" font-family="Helvetica,sans-Serif" font-size="10.00">odp/api/queue_types.h</text>
</a>
</g>
</g>
<!-- Node16&#45;&gt;Node32 -->
<g id="edge68" class="edge">
<title>Node16&#45;&gt;Node32</title>
<path fill="none" stroke="midnightblue" d="M779,-884.44C779,-865.94 779,-820.81 779,-783 779,-783 779,-783 779,-613 779,-574.7 779,-529.88 779,-505.2"/>
<polygon fill="midnightblue" stroke="midnightblue" points="782.5,-505.09 779,-495.09 775.5,-505.09 782.5,-505.09"/>
</g>
<!-- Node17&#45;&gt;Node11 -->
<g id="edge20" class="edge">
<title>Node17&#45;&gt;Node11</title>
<path fill="none" stroke="midnightblue" d="M501.89,-829.2C437.21,-816.81 317.44,-788.48 228,-736 206.17,-723.19 185.66,-702.31 172.77,-687.68"/>
<polygon fill="midnightblue" stroke="midnightblue" points="175.27,-685.22 166.11,-679.9 169.95,-689.77 175.27,-685.22"/>
</g>
<!-- Node18 -->
<g id="node18" class="node">
<title>Node18</title>
<g id="a_node18"><a xlink:href="api_2spec_2event_8h.html" target="_top" xlink:title=" ">
<polygon fill="white" stroke="black" points="489,-772.5 489,-791.5 607,-791.5 607,-772.5 489,-772.5"/>
<text text-anchor="middle" x="548" y="-779.5" font-family="Helvetica,sans-Serif" font-size="10.00">odp/api/spec/event.h</text>
</a>
</g>
</g>
<!-- Node17&#45;&gt;Node18 -->
<g id="edge21" class="edge">
<title>Node17&#45;&gt;Node18</title>
<path fill="none" stroke="midnightblue" d="M548,-828.08C548,-821.01 548,-810.86 548,-801.99"/>
<polygon fill="midnightblue" stroke="midnightblue" points="551.5,-801.75 548,-791.75 544.5,-801.75 551.5,-801.75"/>
</g>
<!-- Node18&#45;&gt;Node5 -->
<g id="edge22" class="edge">
<title>Node18&#45;&gt;Node5</title>
<path fill="none" stroke="midnightblue" d="M570.54,-772.49C676.85,-731.67 1123,-552.45 1123,-419.5 1123,-419.5 1123,-419.5 1123,-121 1123,-67.44 1060.29,-37.3 1015.43,-22.59"/>
<polygon fill="midnightblue" stroke="midnightblue" points="1016.46,-19.25 1005.87,-19.6 1014.37,-25.93 1016.46,-19.25"/>
</g>
<!-- Node18&#45;&gt;Node10 -->
<g id="edge67" class="edge">
<title>Node18&#45;&gt;Node10</title>
<path fill="none" stroke="midnightblue" d="M518.17,-772.4C420.12,-743.26 114,-644.95 114,-553.5 114,-553.5 114,-553.5 114,-484.5 114,-399.25 76,-381.75 76,-296.5 76,-296.5 76,-296.5 76,-121 76,-67.44 138.71,-37.3 183.57,-22.59"/>
<polygon fill="midnightblue" stroke="midnightblue" points="184.63,-25.93 193.13,-19.6 182.54,-19.25 184.63,-25.93"/>
</g>
<!-- Node19 -->
<g id="node19" class="node">
<title>Node19</title>
<g id="a_node19"><a xlink:href="api_2packet_8h.html" target="_top" xlink:title=" ">
<polygon fill="white" stroke="black" points="499.5,-716.5 499.5,-735.5 596.5,-735.5 596.5,-716.5 499.5,-716.5"/>
<text text-anchor="middle" x="548" y="-723.5" font-family="Helvetica,sans-Serif" font-size="10.00">odp/api/packet.h</text>
</a>
</g>
</g>
<!-- Node18&#45;&gt;Node19 -->
<g id="edge23" class="edge">
<title>Node18&#45;&gt;Node19</title>
<path fill="none" stroke="midnightblue" d="M548,-772.08C548,-765.01 548,-754.86 548,-745.99"/>
<polygon fill="midnightblue" stroke="midnightblue" points="551.5,-745.75 548,-735.75 544.5,-745.75 551.5,-745.75"/>
</g>
<!-- Node19&#45;&gt;Node2 -->
<g id="edge24" class="edge">
<title>Node19&#45;&gt;Node2</title>
<path fill="none" stroke="midnightblue" d="M554.35,-716.4C581.36,-678.73 683.25,-524.76 639,-403 612.76,-330.79 536.12,-274.06 497.23,-249"/>
<polygon fill="midnightblue" stroke="midnightblue" points="498.97,-245.96 488.64,-243.59 495.24,-251.88 498.97,-245.96"/>
</g>
<!-- Node19&#45;&gt;Node11 -->
<g id="edge25" class="edge">
<title>Node19&#45;&gt;Node11</title>
<path fill="none" stroke="midnightblue" d="M499.13,-718.22C429.6,-708.56 302,-690.85 224.39,-680.08"/>
<polygon fill="midnightblue" stroke="midnightblue" points="224.64,-676.58 214.25,-678.67 223.68,-683.51 224.64,-676.58"/>
</g>
<!-- Node19&#45;&gt;Node14 -->
<g id="edge29" class="edge">
<title>Node19&#45;&gt;Node14</title>
<path fill="none" stroke="midnightblue" d="M596.57,-717.55C658.59,-708.03 766.1,-691.54 835.09,-680.96"/>
<polygon fill="midnightblue" stroke="midnightblue" points="835.63,-684.42 844.98,-679.44 834.57,-677.5 835.63,-684.42"/>
</g>
<!-- Node19&#45;&gt;Node15 -->
<g id="edge30" class="edge">
<title>Node19&#45;&gt;Node15</title>
<path fill="none" stroke="midnightblue" d="M596.75,-720.34C672.69,-712.96 824.1,-697.68 962.81,-680.11"/>
<polygon fill="midnightblue" stroke="midnightblue" points="963.3,-683.58 972.77,-678.84 962.41,-676.63 963.3,-683.58"/>
</g>
<!-- Node20 -->
<g id="node20" class="node">
<title>Node20</title>
<g id="a_node20"><a xlink:title=" ">
<polygon fill="white" stroke="#bfbfbf" points="621.5,-660.5 621.5,-679.5 750.5,-679.5 750.5,-660.5 621.5,-660.5"/>
<text text-anchor="middle" x="686" y="-667.5" font-family="Helvetica,sans-Serif" font-size="10.00">odp/api/abi/packet_io.h</text>
</a>
</g>
</g>
<!-- Node19&#45;&gt;Node20 -->
<g id="edge26" class="edge">
<title>Node19&#45;&gt;Node20</title>
<path fill="none" stroke="midnightblue" d="M569.87,-716.44C592.78,-707.48 628.98,-693.31 654.87,-683.18"/>
<polygon fill="midnightblue" stroke="midnightblue" points="656.2,-686.42 664.24,-679.52 653.65,-679.9 656.2,-686.42"/>
</g>
<!-- Node21 -->
<g id="node21" class="node">
<title>Node21</title>
<g id="a_node21"><a xlink:title=" ">
<polygon fill="white" stroke="#bfbfbf" points="383,-537.5 383,-567.5 489,-567.5 489,-537.5 383,-537.5"/>
<text text-anchor="start" x="391" y="-555.5" font-family="Helvetica,sans-Serif" font-size="10.00">odp/api/abi/packet</text>
<text text-anchor="middle" x="436" y="-544.5" font-family="Helvetica,sans-Serif" font-size="10.00">_types.h</text>
</a>
</g>
</g>
<!-- Node19&#45;&gt;Node21 -->
<g id="edge27" class="edge">
<title>Node19&#45;&gt;Node21</title>
<path fill="none" stroke="midnightblue" d="M499.36,-723.31C434.49,-719.92 324.89,-709.81 300,-680 264.49,-637.47 337.9,-595.05 390.02,-571.75"/>
<polygon fill="midnightblue" stroke="midnightblue" points="391.71,-574.83 399.48,-567.62 388.91,-568.41 391.71,-574.83"/>
</g>
<!-- Node22 -->
<g id="node22" class="node">
<title>Node22</title>
<g id="a_node22"><a xlink:title=" ">
<polygon fill="white" stroke="#bfbfbf" points="309.5,-660.5 309.5,-679.5 424.5,-679.5 424.5,-660.5 309.5,-660.5"/>
<text text-anchor="middle" x="367" y="-667.5" font-family="Helvetica,sans-Serif" font-size="10.00">odp/api/abi/packet.h</text>
</a>
</g>
</g>
<!-- Node19&#45;&gt;Node22 -->
<g id="edge28" class="edge">
<title>Node19&#45;&gt;Node22</title>
<path fill="none" stroke="midnightblue" d="M519.32,-716.44C488.47,-707.24 439.27,-692.56 405.17,-682.39"/>
<polygon fill="midnightblue" stroke="midnightblue" points="406.13,-679.02 395.55,-679.52 404.13,-685.73 406.13,-679.02"/>
</g>
<!-- Node23 -->
<g id="node23" class="node">
<title>Node23</title>
<g id="a_node23"><a xlink:href="api_2spec_2packet_8h.html" target="_top" xlink:title=" ">
<polygon fill="white" stroke="black" points="443,-660.5 443,-679.5 565,-679.5 565,-660.5 443,-660.5"/>
<text text-anchor="middle" x="504" y="-667.5" font-family="Helvetica,sans-Serif" font-size="10.00">odp/api/spec/packet.h</text>
</a>
</g>
</g>
<!-- Node19&#45;&gt;Node23 -->
<g id="edge31" class="edge">
<title>Node19&#45;&gt;Node23</title>
<path fill="none" stroke="midnightblue" d="M540.73,-716.08C534.46,-708.38 525.21,-697.03 517.57,-687.65"/>
<polygon fill="midnightblue" stroke="midnightblue" points="520.16,-685.29 511.13,-679.75 514.73,-689.71 520.16,-685.29"/>
</g>
<!-- Node23&#45;&gt;Node5 -->
<g id="edge32" class="edge">
<title>Node23&#45;&gt;Node5</title>
<path fill="none" stroke="midnightblue" d="M533.76,-660.45C638.51,-629.78 987.74,-522.38 1059,-434 1098.04,-385.58 1085,-358.69 1085,-296.5 1085,-296.5 1085,-296.5 1085,-121 1085,-74.11 1034.45,-40.89 1000.67,-23.93"/>
<polygon fill="midnightblue" stroke="midnightblue" points="1002.17,-20.77 991.64,-19.58 999.13,-27.07 1002.17,-20.77"/>
</g>
<!-- Node23&#45;&gt;Node10 -->
<g id="edge66" class="edge">
<title>Node23&#45;&gt;Node10</title>
<path fill="none" stroke="midnightblue" d="M465.32,-660.47C373.88,-639.77 152,-586.18 152,-553.5 152,-553.5 152,-553.5 152,-417.5 152,-310.16 114,-286.34 114,-179 114,-179 114,-179 114,-121 114,-74.11 164.55,-40.89 198.33,-23.93"/>
<polygon fill="midnightblue" stroke="midnightblue" points="199.87,-27.07 207.36,-19.58 196.83,-20.77 199.87,-27.07"/>
</g>
<!-- Node24 -->
<g id="node24" class="node">
<title>Node24</title>
<g id="a_node24"><a xlink:href="api_2proto__stats__types_8h.html" target="_top" xlink:title=" ">
<polygon fill="white" stroke="black" points="464,-470.5 464,-500.5 574,-500.5 574,-470.5 464,-470.5"/>
<text text-anchor="start" x="472" y="-488.5" font-family="Helvetica,sans-Serif" font-size="10.00">odp/api/proto_stats</text>
<text text-anchor="middle" x="519" y="-477.5" font-family="Helvetica,sans-Serif" font-size="10.00">_types.h</text>
</a>
</g>
</g>
<!-- Node23&#45;&gt;Node24 -->
<g id="edge33" class="edge">
<title>Node23&#45;&gt;Node24</title>
<path fill="none" stroke="midnightblue" d="M483.05,-660.49C437.55,-640.76 336.64,-589.57 374,-537 392.24,-511.33 424.53,-498.6 454.01,-492.33"/>
<polygon fill="midnightblue" stroke="midnightblue" points="454.72,-495.76 463.88,-490.44 453.4,-488.88 454.72,-495.76"/>
</g>
<!-- Node27 -->
<g id="node27" class="node">
<title>Node27</title>
<g id="a_node27"><a xlink:href="api_2time_8h.html" target="_top" xlink:title=" ">
<polygon fill="white" stroke="black" points="196.5,-286 196.5,-305 283.5,-305 283.5,-286 196.5,-286"/>
<text text-anchor="middle" x="240" y="-293" font-family="Helvetica,sans-Serif" font-size="10.00">odp/api/time.h</text>
</a>
</g>
</g>
<!-- Node23&#45;&gt;Node27 -->
<g id="edge39" class="edge">
<title>Node23&#45;&gt;Node27</title>
<path fill="none" stroke="midnightblue" d="M471.54,-660.44C447.07,-653.09 413.35,-640.97 387,-624 321.48,-581.79 295.92,-571.17 262,-501 231.72,-438.36 234.79,-352.61 237.98,-315.21"/>
<polygon fill="midnightblue" stroke="midnightblue" points="241.47,-315.53 238.94,-305.24 234.5,-314.86 241.47,-315.53"/>
</g>
<!-- Node30 -->
<g id="node30" class="node">
<title>Node30</title>
<g id="a_node30"><a xlink:href="api_2packet__types_8h.html" target="_top" xlink:title=" ">
<polygon fill="white" stroke="black" points="439.5,-604.5 439.5,-623.5 568.5,-623.5 568.5,-604.5 439.5,-604.5"/>
<text text-anchor="middle" x="504" y="-611.5" font-family="Helvetica,sans-Serif" font-size="10.00">odp/api/packet_types.h</text>
</a>
</g>
</g>
<!-- Node23&#45;&gt;Node30 -->
<g id="edge45" class="edge">
<title>Node23&#45;&gt;Node30</title>
<path fill="none" stroke="midnightblue" d="M504,-660.08C504,-653.01 504,-642.86 504,-633.99"/>
<polygon fill="midnightblue" stroke="midnightblue" points="507.5,-633.75 504,-623.75 500.5,-633.75 507.5,-633.75"/>
</g>
<!-- Node25 -->
<g id="node25" class="node">
<title>Node25</title>
<g id="a_node25"><a xlink:title=" ">
<polygon fill="white" stroke="#bfbfbf" points="502,-403.5 502,-433.5 630,-433.5 630,-403.5 502,-403.5"/>
<text text-anchor="start" x="510" y="-421.5" font-family="Helvetica,sans-Serif" font-size="10.00">odp/api/abi/proto_stats</text>
<text text-anchor="middle" x="566" y="-410.5" font-family="Helvetica,sans-Serif" font-size="10.00">_types.h</text>
</a>
</g>
</g>
<!-- Node24&#45;&gt;Node25 -->
<g id="edge34" class="edge">
<title>Node24&#45;&gt;Node25</title>
<path fill="none" stroke="midnightblue" d="M529.2,-470.4C535.23,-462.05 543.02,-451.29 549.87,-441.81"/>
<polygon fill="midnightblue" stroke="midnightblue" points="552.8,-443.73 555.82,-433.58 547.13,-439.63 552.8,-443.73"/>
</g>
<!-- Node26 -->
<g id="node26" class="node">
<title>Node26</title>
<g id="a_node26"><a xlink:href="api_2spec_2proto__stats__types_8h.html" target="_top" xlink:title=" ">
<polygon fill="white" stroke="black" points="420.5,-280.5 420.5,-310.5 527.5,-310.5 527.5,-280.5 420.5,-280.5"/>
<text text-anchor="start" x="428.5" y="-298.5" font-family="Helvetica,sans-Serif" font-size="10.00">odp/api/spec/proto</text>
<text text-anchor="middle" x="474" y="-287.5" font-family="Helvetica,sans-Serif" font-size="10.00">_stats_types.h</text>
</a>
</g>
</g>
<!-- Node24&#45;&gt;Node26 -->
<g id="edge35" class="edge">
<title>Node24&#45;&gt;Node26</title>
<path fill="none" stroke="midnightblue" d="M510.14,-470.47C504.34,-460.64 497.1,-446.97 493,-434 480.81,-395.46 476.44,-348.4 474.87,-320.52"/>
<polygon fill="midnightblue" stroke="midnightblue" points="478.36,-320.32 474.38,-310.5 471.37,-320.66 478.36,-320.32"/>
</g>
<!-- Node26&#45;&gt;Node2 -->
<g id="edge37" class="edge">
<title>Node26&#45;&gt;Node2</title>
<path fill="none" stroke="midnightblue" d="M474,-280.4C474,-272.47 474,-262.46 474,-253.86"/>
<polygon fill="midnightblue" stroke="midnightblue" points="477.5,-253.66 474,-243.66 470.5,-253.66 477.5,-253.66"/>
</g>
<!-- Node26&#45;&gt;Node5 -->
<g id="edge36" class="edge">
<title>Node26&#45;&gt;Node5</title>
<path fill="none" stroke="midnightblue" d="M513.56,-280.45C593.24,-250.94 776.5,-176.79 906,-76 924.98,-61.23 944.14,-41.32 956.69,-27.44"/>
<polygon fill="midnightblue" stroke="midnightblue" points="959.56,-29.48 963.59,-19.68 954.33,-24.83 959.56,-29.48"/>
</g>
<!-- Node26&#45;&gt;Node10 -->
<g id="edge38" class="edge">
<title>Node26&#45;&gt;Node10</title>
<path fill="none" stroke="midnightblue" d="M454.29,-280.45C411.3,-248.82 308.49,-167.6 252,-76 243.12,-61.6 236.75,-43.41 232.82,-29.93"/>
<polygon fill="midnightblue" stroke="midnightblue" points="236.09,-28.64 230.08,-19.91 229.34,-30.48 236.09,-28.64"/>
</g>
<!-- Node27&#45;&gt;Node2 -->
<g id="edge40" class="edge">
<title>Node27&#45;&gt;Node2</title>
<path fill="none" stroke="midnightblue" d="M273.53,-285.98C314.88,-275.46 385.27,-257.56 430.68,-246.01"/>
<polygon fill="midnightblue" stroke="midnightblue" points="431.71,-249.37 440.54,-243.51 429.98,-242.58 431.71,-249.37"/>
</g>
<!-- Node28 -->
<g id="node28" class="node">
<title>Node28</title>
<g id="a_node28"><a xlink:title=" ">
<polygon fill="white" stroke="#bfbfbf" points="180.5,-224.5 180.5,-243.5 285.5,-243.5 285.5,-224.5 180.5,-224.5"/>
<text text-anchor="middle" x="233" y="-231.5" font-family="Helvetica,sans-Serif" font-size="10.00">odp/api/abi/time.h</text>
</a>
</g>
</g>
<!-- Node27&#45;&gt;Node28 -->
<g id="edge41" class="edge">
<title>Node27&#45;&gt;Node28</title>
<path fill="none" stroke="midnightblue" d="M239,-285.98C238.01,-277.58 236.47,-264.48 235.2,-253.66"/>
<polygon fill="midnightblue" stroke="midnightblue" points="238.65,-253.03 234,-243.51 231.69,-253.85 238.65,-253.03"/>
</g>
<!-- Node29 -->
<g id="node29" class="node">
<title>Node29</title>
<g id="a_node29"><a xlink:href="api_2spec_2time_8h.html" target="_top" xlink:title=" ">
<polygon fill="white" stroke="black" points="332.5,-56.5 332.5,-75.5 445.5,-75.5 445.5,-56.5 332.5,-56.5"/>
<text text-anchor="middle" x="389" y="-63.5" font-family="Helvetica,sans-Serif" font-size="10.00">odp/api/spec/time.h</text>
</a>
</g>
</g>
<!-- Node27&#45;&gt;Node29 -->
<g id="edge42" class="edge">
<title>Node27&#45;&gt;Node29</title>
<path fill="none" stroke="midnightblue" d="M251.37,-285.74C263.06,-276.33 281.32,-260.48 294,-244 334.68,-191.12 367.61,-118.44 381.66,-85.07"/>
<polygon fill="midnightblue" stroke="midnightblue" points="384.95,-86.27 385.54,-75.7 378.48,-83.6 384.95,-86.27"/>
</g>
<!-- Node29&#45;&gt;Node5 -->
<g id="edge43" class="edge">
<title>Node29&#45;&gt;Node5</title>
<path fill="none" stroke="midnightblue" d="M445.7,-56.98C448.5,-56.63 451.28,-56.31 454,-56 613.1,-38.07 800.45,-23.35 900.16,-16.02"/>
<polygon fill="midnightblue" stroke="midnightblue" points="900.69,-19.49 910.41,-15.27 900.18,-12.51 900.69,-19.49"/>
</g>
<!-- Node29&#45;&gt;Node10 -->
<g id="edge44" class="edge">
<title>Node29&#45;&gt;Node10</title>
<path fill="none" stroke="midnightblue" d="M363.49,-56.44C336.4,-47.36 293.41,-32.94 263.13,-22.78"/>
<polygon fill="midnightblue" stroke="midnightblue" points="263.99,-19.38 253.39,-19.52 261.76,-26.01 263.99,-19.38"/>
</g>
<!-- Node30&#45;&gt;Node21 -->
<g id="edge46" class="edge">
<title>Node30&#45;&gt;Node21</title>
<path fill="none" stroke="midnightblue" d="M494.26,-604.48C485.31,-596.64 471.67,-584.71 459.85,-574.37"/>
<polygon fill="midnightblue" stroke="midnightblue" points="461.86,-571.47 452.03,-567.52 457.25,-576.74 461.86,-571.47"/>
</g>
<!-- Node31 -->
<g id="node31" class="node">
<title>Node31</title>
<g id="a_node31"><a xlink:href="api_2spec_2packet__types_8h.html" target="_top" xlink:title=" ">
<polygon fill="white" stroke="black" points="507.5,-537.5 507.5,-567.5 620.5,-567.5 620.5,-537.5 507.5,-537.5"/>
<text text-anchor="start" x="515.5" y="-555.5" font-family="Helvetica,sans-Serif" font-size="10.00">odp/api/spec/packet</text>
<text text-anchor="middle" x="564" y="-544.5" font-family="Helvetica,sans-Serif" font-size="10.00">_types.h</text>
</a>
</g>
</g>
<!-- Node30&#45;&gt;Node31 -->
<g id="edge47" class="edge">
<title>Node30&#45;&gt;Node31</title>
<path fill="none" stroke="midnightblue" d="M512.6,-604.48C520.42,-596.72 532.29,-584.94 542.66,-574.66"/>
<polygon fill="midnightblue" stroke="midnightblue" points="545.22,-577.05 549.86,-567.52 540.29,-572.08 545.22,-577.05"/>
</g>
<!-- Node31&#45;&gt;Node5 -->
<g id="edge48" class="edge">
<title>Node31&#45;&gt;Node5</title>
<path fill="none" stroke="midnightblue" d="M584.91,-537.24C612.02,-519.33 661.23,-488.68 707,-470 765.29,-446.21 785.95,-458.36 844,-434 868.81,-423.59 871.44,-413.98 896,-403 944.89,-381.14 970.07,-401.54 1011,-367 1037.89,-344.31 1047,-331.68 1047,-296.5 1047,-296.5 1047,-296.5 1047,-121 1047,-81.28 1013.04,-45.5 990.52,-26.15"/>
<polygon fill="midnightblue" stroke="midnightblue" points="992.48,-23.24 982.54,-19.57 988.02,-28.63 992.48,-23.24"/>
</g>
<!-- Node31&#45;&gt;Node10 -->
<g id="edge65" class="edge">
<title>Node31&#45;&gt;Node10</title>
<path fill="none" stroke="midnightblue" d="M529.31,-537.36C507.48,-528 479,-514.91 455,-501 284.98,-402.46 152,-375.51 152,-179 152,-179 152,-179 152,-121 152,-81.28 185.96,-45.5 208.48,-26.15"/>
<polygon fill="midnightblue" stroke="midnightblue" points="210.98,-28.63 216.46,-19.57 206.52,-23.24 210.98,-28.63"/>
</g>
<!-- Node31&#45;&gt;Node24 -->
<g id="edge49" class="edge">
<title>Node31&#45;&gt;Node24</title>
<path fill="none" stroke="midnightblue" d="M554.24,-537.4C548.46,-529.05 541.01,-518.29 534.45,-508.81"/>
<polygon fill="midnightblue" stroke="midnightblue" points="537.32,-506.81 528.75,-500.58 531.56,-510.79 537.32,-506.81"/>
</g>
<!-- Node31&#45;&gt;Node32 -->
<g id="edge50" class="edge">
<title>Node31&#45;&gt;Node32</title>
<path fill="none" stroke="midnightblue" d="M610.39,-537.48C649.43,-525.67 704.57,-509 741.03,-497.98"/>
<polygon fill="midnightblue" stroke="midnightblue" points="742.23,-501.27 750.79,-495.03 740.2,-494.57 742.23,-501.27"/>
</g>
<!-- Node32&#45;&gt;Node12 -->
<g id="edge51" class="edge">
<title>Node32&#45;&gt;Node12</title>
<path fill="none" stroke="midnightblue" d="M805.29,-475.87C840.23,-464.4 902.08,-444.09 941.24,-431.24"/>
<polygon fill="midnightblue" stroke="midnightblue" points="942.5,-434.51 950.91,-428.06 940.32,-427.86 942.5,-434.51"/>
</g>
<!-- Node33 -->
<g id="node33" class="node">
<title>Node33</title>
<g id="a_node33"><a xlink:href="api_2spec_2queue__types_8h.html" target="_top" xlink:title=" ">
<polygon fill="white" stroke="black" points="723.5,-403.5 723.5,-433.5 834.5,-433.5 834.5,-403.5 723.5,-403.5"/>
<text text-anchor="start" x="731.5" y="-421.5" font-family="Helvetica,sans-Serif" font-size="10.00">odp/api/spec/queue</text>
<text text-anchor="middle" x="779" y="-410.5" font-family="Helvetica,sans-Serif" font-size="10.00">_types.h</text>
</a>
</g>
</g>
<!-- Node32&#45;&gt;Node33 -->
<g id="edge52" class="edge">
<title>Node32&#45;&gt;Node33</title>
<path fill="none" stroke="midnightblue" d="M779,-475.73C779,-467.54 779,-454.92 779,-443.71"/>
<polygon fill="midnightblue" stroke="midnightblue" points="782.5,-443.59 779,-433.59 775.5,-443.59 782.5,-443.59"/>
</g>
<!-- Node33&#45;&gt;Node5 -->
<g id="edge53" class="edge">
<title>Node33&#45;&gt;Node5</title>
<path fill="none" stroke="midnightblue" d="M834.65,-405.66C895.23,-392.54 984.33,-372.51 990,-367 1013.27,-344.38 1009,-328.95 1009,-296.5 1009,-296.5 1009,-296.5 1009,-121 1009,-86.81 992.4,-49.76 981.14,-28.57"/>
<polygon fill="midnightblue" stroke="midnightblue" points="984.18,-26.83 976.28,-19.77 978.05,-30.22 984.18,-26.83"/>
</g>
<!-- Node33&#45;&gt;Node10 -->
<g id="edge64" class="edge">
<title>Node33&#45;&gt;Node10</title>
<path fill="none" stroke="midnightblue" d="M723.23,-412.36C646.83,-403.02 508.07,-377.61 411,-311 304.28,-237.77 285.74,-196.7 239,-76 233.25,-61.14 230.5,-43.22 229.19,-29.96"/>
<polygon fill="midnightblue" stroke="midnightblue" points="232.65,-29.39 228.37,-19.71 225.67,-29.95 232.65,-29.39"/>
</g>
<!-- Node34 -->
<g id="node34" class="node">
<title>Node34</title>
<g id="a_node34"><a xlink:href="api_2schedule__types_8h.html" target="_top" xlink:title=" ">
<polygon fill="white" stroke="black" points="703,-347.5 703,-366.5 843,-366.5 843,-347.5 703,-347.5"/>
<text text-anchor="middle" x="773" y="-354.5" font-family="Helvetica,sans-Serif" font-size="10.00">odp/api/schedule_types.h</text>
</a>
</g>
</g>
<!-- Node33&#45;&gt;Node34 -->
<g id="edge54" class="edge">
<title>Node33&#45;&gt;Node34</title>
<path fill="none" stroke="midnightblue" d="M777.58,-403.4C776.78,-395.47 775.77,-385.46 774.9,-376.86"/>
<polygon fill="midnightblue" stroke="midnightblue" points="778.36,-376.26 773.87,-366.66 771.39,-376.96 778.36,-376.26"/>
</g>
<!-- Node37 -->
<g id="node37" class="node">
<title>Node37</title>
<g id="a_node37"><a xlink:href="deprecated_8h.html" target="_top" xlink:title=" ">
<polygon fill="white" stroke="black" points="861.5,-347.5 861.5,-366.5 980.5,-366.5 980.5,-347.5 861.5,-347.5"/>
<text text-anchor="middle" x="921" y="-354.5" font-family="Helvetica,sans-Serif" font-size="10.00">odp/api/deprecated.h</text>
</a>
</g>
</g>
<!-- Node33&#45;&gt;Node37 -->
<g id="edge60" class="edge">
<title>Node33&#45;&gt;Node37</title>
<path fill="none" stroke="midnightblue" d="M812.65,-403.4C836.48,-393.42 868.15,-380.15 891.09,-370.53"/>
<polygon fill="midnightblue" stroke="midnightblue" points="892.47,-373.75 900.34,-366.66 889.76,-367.29 892.47,-373.75"/>
</g>
<!-- Node35 -->
<g id="node35" class="node">
<title>Node35</title>
<g id="a_node35"><a xlink:title=" ">
<polygon fill="white" stroke="#bfbfbf" points="825.5,-280.5 825.5,-310.5 942.5,-310.5 942.5,-280.5 825.5,-280.5"/>
<text text-anchor="start" x="833.5" y="-298.5" font-family="Helvetica,sans-Serif" font-size="10.00">odp/api/abi/schedule</text>
<text text-anchor="middle" x="884" y="-287.5" font-family="Helvetica,sans-Serif" font-size="10.00">_types.h</text>
</a>
</g>
</g>
<!-- Node34&#45;&gt;Node35 -->
<g id="edge55" class="edge">
<title>Node34&#45;&gt;Node35</title>
<path fill="none" stroke="midnightblue" d="M788.9,-347.48C804.5,-339.12 828.8,-326.09 848.93,-315.3"/>
<polygon fill="midnightblue" stroke="midnightblue" points="850.68,-318.33 857.84,-310.52 847.37,-312.16 850.68,-318.33"/>
</g>
<!-- Node36 -->
<g id="node36" class="node">
<title>Node36</title>
<g id="a_node36"><a xlink:href="api_2spec_2schedule__types_8h.html" target="_top" xlink:title=" ">
<polygon fill="white" stroke="black" points="682.5,-280.5 682.5,-310.5 807.5,-310.5 807.5,-280.5 682.5,-280.5"/>
<text text-anchor="start" x="690.5" y="-298.5" font-family="Helvetica,sans-Serif" font-size="10.00">odp/api/spec/schedule</text>
<text text-anchor="middle" x="745" y="-287.5" font-family="Helvetica,sans-Serif" font-size="10.00">_types.h</text>
</a>
</g>
</g>
<!-- Node34&#45;&gt;Node36 -->
<g id="edge56" class="edge">
<title>Node34&#45;&gt;Node36</title>
<path fill="none" stroke="midnightblue" d="M768.99,-347.48C765.59,-340.25 760.54,-329.53 755.95,-319.78"/>
<polygon fill="midnightblue" stroke="midnightblue" points="759.02,-318.08 751.6,-310.52 752.69,-321.06 759.02,-318.08"/>
</g>
<!-- Node36&#45;&gt;Node2 -->
<g id="edge58" class="edge">
<title>Node36&#45;&gt;Node2</title>
<path fill="none" stroke="midnightblue" d="M682.49,-280.77C633.91,-270.11 567.48,-255.52 522.78,-245.71"/>
<polygon fill="midnightblue" stroke="midnightblue" points="523.27,-242.23 512.75,-243.51 521.76,-249.07 523.27,-242.23"/>
</g>
<!-- Node36&#45;&gt;Node5 -->
<g id="edge57" class="edge">
<title>Node36&#45;&gt;Node5</title>
<path fill="none" stroke="midnightblue" d="M807.89,-281.75C847.87,-272.43 894.7,-258.87 909,-244 967.61,-183.08 972.33,-73.27 971.71,-29.62"/>
<polygon fill="midnightblue" stroke="midnightblue" points="975.21,-29.5 971.45,-19.59 968.21,-29.68 975.21,-29.5"/>
</g>
<!-- Node36&#45;&gt;Node10 -->
<g id="edge59" class="edge">
<title>Node36&#45;&gt;Node10</title>
<path fill="none" stroke="midnightblue" d="M721.2,-280.49C668.36,-249.45 544.3,-176.89 524,-168 420.12,-122.5 377.42,-143.11 286,-76 267.6,-62.49 250.73,-42.32 239.99,-28.03"/>
<polygon fill="midnightblue" stroke="midnightblue" points="242.58,-25.64 233.86,-19.62 236.92,-29.77 242.58,-25.64"/>
</g>
<!-- Node38 -->
<g id="node38" class="node">
<title>Node38</title>
<g id="a_node38"><a xlink:href="spec_2deprecated_8h.html" target="_top" xlink:title=" ">
<polygon fill="white" stroke="black" points="721.5,-56.5 721.5,-75.5 866.5,-75.5 866.5,-56.5 721.5,-56.5"/>
<text text-anchor="middle" x="794" y="-63.5" font-family="Helvetica,sans-Serif" font-size="10.00">odp/api/spec/deprecated.h</text>
</a>
</g>
</g>
<!-- Node37&#45;&gt;Node38 -->
<g id="edge61" class="edge">
<title>Node37&#45;&gt;Node38</title>
<path fill="none" stroke="midnightblue" d="M929.48,-347.23C937.05,-338.75 947.6,-325.13 952,-311 956.09,-297.84 956.32,-293.08 952,-280 923.65,-194.2 845.9,-114.76 811.16,-82.36"/>
<polygon fill="midnightblue" stroke="midnightblue" points="813.42,-79.68 803.68,-75.5 808.68,-84.84 813.42,-79.68"/>
</g>
<!-- Node38&#45;&gt;Node5 -->
<g id="edge62" class="edge">
<title>Node38&#45;&gt;Node5</title>
<path fill="none" stroke="midnightblue" d="M822.05,-56.44C852.08,-47.28 899.91,-32.69 933.24,-22.52"/>
<polygon fill="midnightblue" stroke="midnightblue" points="934.54,-25.78 943.09,-19.52 932.5,-19.09 934.54,-25.78"/>
</g>
<!-- Node38&#45;&gt;Node10 -->
<g id="edge63" class="edge">
<title>Node38&#45;&gt;Node10</title>
<path fill="none" stroke="midnightblue" d="M721.13,-56.94C718.05,-56.62 714.99,-56.3 712,-56 562.89,-40.89 387.74,-25.09 294.43,-16.82"/>
<polygon fill="midnightblue" stroke="midnightblue" points="294.56,-13.32 284.29,-15.93 293.94,-20.3 294.56,-13.32"/>
</g>
</g>
</svg>
