<?xml version="1.0" encoding="UTF-8" standalone="no"?>
<!DOCTYPE svg PUBLIC "-//W3C//DTD SVG 1.1//EN"
 "http://www.w3.org/Graphics/SVG/1.1/DTD/svg11.dtd">
<!-- Generated by graphviz version 2.43.0 (0)
 -->
<!-- Title: align.h Pages: 1 -->
<svg width="2981pt" height="532pt"
 viewBox="0.00 0.00 2981.03 532.00" xmlns="http://www.w3.org/2000/svg" xmlns:xlink="http://www.w3.org/1999/xlink">
<g id="graph0" class="graph" transform="scale(1 1) rotate(0) translate(4 528)">
<title>align.h</title>
<polygon fill="white" stroke="transparent" points="-4,4 -4,-528 2977.03,-528 2977.03,4 -4,4"/>
<!-- Node1 -->
<g id="node1" class="node">
<title>Node1</title>
<g id="a_node1"><a xlink:title=" ">
<polygon fill="#bfbfbf" stroke="black" points="1379.5,-504.5 1379.5,-523.5 1429.5,-523.5 1429.5,-504.5 1379.5,-504.5"/>
<text text-anchor="middle" x="1404.5" y="-511.5" font-family="Helvetica,sans-Serif" font-size="10.00">align.h</text>
</a>
</g>
</g>
<!-- Node2 -->
<g id="node2" class="node">
<title>Node2</title>
<g id="a_node2"><a xlink:href="api_2align_8h.html" target="_top" xlink:title=" ">
<polygon fill="white" stroke="black" points="1379.5,-448.5 1379.5,-467.5 1429.5,-467.5 1429.5,-448.5 1379.5,-448.5"/>
<text text-anchor="middle" x="1404.5" y="-455.5" font-family="Helvetica,sans-Serif" font-size="10.00">align.h</text>
</a>
</g>
</g>
<!-- Node1&#45;&gt;Node2 -->
<g id="edge1" class="edge">
<title>Node1&#45;&gt;Node2</title>
<path fill="none" stroke="midnightblue" d="M1404.5,-493.8C1404.5,-484.91 1404.5,-474.78 1404.5,-467.75"/>
<polygon fill="midnightblue" stroke="midnightblue" points="1401,-494.08 1404.5,-504.08 1408,-494.08 1401,-494.08"/>
</g>
<!-- Node3 -->
<g id="node3" class="node">
<title>Node3</title>
<g id="a_node3"><a xlink:href="api_2abi-default_2atomic_8h.html" target="_top" xlink:title=" ">
<polygon fill="white" stroke="black" points="308,-280.5 308,-299.5 367,-299.5 367,-280.5 308,-280.5"/>
<text text-anchor="middle" x="337.5" y="-287.5" font-family="Helvetica,sans-Serif" font-size="10.00">atomic.h</text>
</a>
</g>
</g>
<!-- Node2&#45;&gt;Node3 -->
<g id="edge2" class="edge">
<title>Node2&#45;&gt;Node3</title>
<path fill="none" stroke="midnightblue" d="M1369.42,-451.54C1205.7,-426.07 518.29,-319.13 367.02,-295.59"/>
<polygon fill="midnightblue" stroke="midnightblue" points="1369.02,-455.02 1379.44,-453.1 1370.09,-448.11 1369.02,-455.02"/>
</g>
<!-- Node21 -->
<g id="node14" class="node">
<title>Node21</title>
<g id="a_node14"><a xlink:href="odp__api_8h.html" target="_top" xlink:title=" ">
<polygon fill="white" stroke="black" points="1494.5,-56.5 1494.5,-75.5 1558.5,-75.5 1558.5,-56.5 1494.5,-56.5"/>
<text text-anchor="middle" x="1526.5" y="-63.5" font-family="Helvetica,sans-Serif" font-size="10.00">odp_api.h</text>
</a>
</g>
</g>
<!-- Node2&#45;&gt;Node21 -->
<g id="edge74" class="edge">
<title>Node2&#45;&gt;Node21</title>
<path fill="none" stroke="midnightblue" d="M1439.91,-456.29C1665.22,-451.51 2889.5,-422.11 2889.5,-347 2889.5,-347 2889.5,-347 2889.5,-177 2889.5,-159.76 3209.34,-187.79 2592.5,-112 2384.86,-86.49 1713.76,-70.96 1558.68,-67.66"/>
<polygon fill="midnightblue" stroke="midnightblue" points="1439.58,-452.79 1429.65,-456.5 1439.72,-459.79 1439.58,-452.79"/>
</g>
<!-- Node50 -->
<g id="node16" class="node">
<title>Node50</title>
<g id="a_node16"><a xlink:href="api_2abi-default_2cpumask_8h.html" target="_top" xlink:title=" ">
<polygon fill="white" stroke="black" points="891.5,-280.5 891.5,-299.5 961.5,-299.5 961.5,-280.5 891.5,-280.5"/>
<text text-anchor="middle" x="926.5" y="-287.5" font-family="Helvetica,sans-Serif" font-size="10.00">cpumask.h</text>
</a>
</g>
</g>
<!-- Node2&#45;&gt;Node50 -->
<g id="edge16" class="edge">
<title>Node2&#45;&gt;Node50</title>
<path fill="none" stroke="midnightblue" d="M1370.19,-445.08C1278.64,-413.29 1030.16,-327 951.05,-299.52"/>
<polygon fill="midnightblue" stroke="midnightblue" points="1369.21,-448.45 1379.81,-448.42 1371.51,-441.84 1369.21,-448.45"/>
</g>
<!-- Node74 -->
<g id="node26" class="node">
<title>Node74</title>
<g id="a_node26"><a xlink:href="api_2spec_2std__types_8h.html" target="_top" xlink:title=" ">
<polygon fill="white" stroke="black" points="1492,-392.5 1492,-411.5 1565,-411.5 1565,-392.5 1492,-392.5"/>
<text text-anchor="middle" x="1528.5" y="-399.5" font-family="Helvetica,sans-Serif" font-size="10.00">std_types.h</text>
</a>
</g>
</g>
<!-- Node2&#45;&gt;Node74 -->
<g id="edge27" class="edge">
<title>Node2&#45;&gt;Node74</title>
<path fill="none" stroke="midnightblue" d="M1433.51,-444.37C1456.73,-434.26 1488.66,-420.35 1508.94,-411.52"/>
<polygon fill="midnightblue" stroke="midnightblue" points="1431.92,-441.24 1424.15,-448.44 1434.71,-447.66 1431.92,-441.24"/>
</g>
<!-- Node4 -->
<g id="node4" class="node">
<title>Node4</title>
<g id="a_node4"><a xlink:href="arch_2arm32-linux_2odp_2api_2abi_2atomic_8h_source.html" target="_top" xlink:title=" ">
<polygon fill="white" stroke="black" points="154,-224.5 154,-243.5 213,-243.5 213,-224.5 154,-224.5"/>
<text text-anchor="middle" x="183.5" y="-231.5" font-family="Helvetica,sans-Serif" font-size="10.00">atomic.h</text>
</a>
</g>
</g>
<!-- Node3&#45;&gt;Node4 -->
<g id="edge3" class="edge">
<title>Node3&#45;&gt;Node4</title>
<path fill="none" stroke="midnightblue" d="M303.39,-277.04C274.41,-266.88 233.54,-252.55 207.79,-243.52"/>
<polygon fill="midnightblue" stroke="midnightblue" points="302.5,-280.44 313.1,-280.44 304.82,-273.83 302.5,-280.44"/>
</g>
<!-- Node5 -->
<g id="node5" class="node">
<title>Node5</title>
<g id="a_node5"><a xlink:href="arch_2arm64-linux_2odp_2api_2abi_2atomic_8h_source.html" target="_top" xlink:title=" ">
<polygon fill="white" stroke="black" points="231,-224.5 231,-243.5 290,-243.5 290,-224.5 231,-224.5"/>
<text text-anchor="middle" x="260.5" y="-231.5" font-family="Helvetica,sans-Serif" font-size="10.00">atomic.h</text>
</a>
</g>
</g>
<!-- Node3&#45;&gt;Node5 -->
<g id="edge4" class="edge">
<title>Node3&#45;&gt;Node5</title>
<path fill="none" stroke="midnightblue" d="M316.6,-274.34C302.59,-264.52 284.62,-251.91 272.84,-243.65"/>
<polygon fill="midnightblue" stroke="midnightblue" points="314.93,-277.45 325.13,-280.32 318.95,-271.72 314.93,-277.45"/>
</g>
<!-- Node6 -->
<g id="node6" class="node">
<title>Node6</title>
<g id="a_node6"><a xlink:href="arch_2default-linux_2odp_2api_2abi_2atomic_8h_source.html" target="_top" xlink:title=" ">
<polygon fill="white" stroke="black" points="308,-224.5 308,-243.5 367,-243.5 367,-224.5 308,-224.5"/>
<text text-anchor="middle" x="337.5" y="-231.5" font-family="Helvetica,sans-Serif" font-size="10.00">atomic.h</text>
</a>
</g>
</g>
<!-- Node3&#45;&gt;Node6 -->
<g id="edge5" class="edge">
<title>Node3&#45;&gt;Node6</title>
<path fill="none" stroke="midnightblue" d="M337.5,-269.8C337.5,-260.91 337.5,-250.78 337.5,-243.75"/>
<polygon fill="midnightblue" stroke="midnightblue" points="334,-270.08 337.5,-280.08 341,-270.08 334,-270.08"/>
</g>
<!-- Node7 -->
<g id="node7" class="node">
<title>Node7</title>
<g id="a_node7"><a xlink:href="arch_2mips64-linux_2odp_2api_2abi_2atomic_8h_source.html" target="_top" xlink:title=" ">
<polygon fill="white" stroke="black" points="385,-224.5 385,-243.5 444,-243.5 444,-224.5 385,-224.5"/>
<text text-anchor="middle" x="414.5" y="-231.5" font-family="Helvetica,sans-Serif" font-size="10.00">atomic.h</text>
</a>
</g>
</g>
<!-- Node3&#45;&gt;Node7 -->
<g id="edge6" class="edge">
<title>Node3&#45;&gt;Node7</title>
<path fill="none" stroke="midnightblue" d="M358.4,-274.34C372.41,-264.52 390.38,-251.91 402.16,-243.65"/>
<polygon fill="midnightblue" stroke="midnightblue" points="356.05,-271.72 349.87,-280.32 360.07,-277.45 356.05,-271.72"/>
</g>
<!-- Node8 -->
<g id="node8" class="node">
<title>Node8</title>
<g id="a_node8"><a xlink:href="arch_2power64-linux_2odp_2api_2abi_2atomic_8h_source.html" target="_top" xlink:title=" ">
<polygon fill="white" stroke="black" points="0,-224.5 0,-243.5 59,-243.5 59,-224.5 0,-224.5"/>
<text text-anchor="middle" x="29.5" y="-231.5" font-family="Helvetica,sans-Serif" font-size="10.00">atomic.h</text>
</a>
</g>
</g>
<!-- Node3&#45;&gt;Node8 -->
<g id="edge7" class="edge">
<title>Node3&#45;&gt;Node8</title>
<path fill="none" stroke="midnightblue" d="M297.86,-283.25C245.09,-275.4 148.95,-260.41 67.5,-244 64.84,-243.46 62.09,-242.88 59.33,-242.27"/>
<polygon fill="midnightblue" stroke="midnightblue" points="297.41,-286.72 307.82,-284.72 298.44,-279.8 297.41,-286.72"/>
</g>
<!-- Node9 -->
<g id="node9" class="node">
<title>Node9</title>
<g id="a_node9"><a xlink:href="arch_2x86__32-linux_2odp_2api_2abi_2atomic_8h_source.html" target="_top" xlink:title=" ">
<polygon fill="white" stroke="black" points="77,-224.5 77,-243.5 136,-243.5 136,-224.5 77,-224.5"/>
<text text-anchor="middle" x="106.5" y="-231.5" font-family="Helvetica,sans-Serif" font-size="10.00">atomic.h</text>
</a>
</g>
</g>
<!-- Node3&#45;&gt;Node9 -->
<g id="edge8" class="edge">
<title>Node3&#45;&gt;Node9</title>
<path fill="none" stroke="midnightblue" d="M297.83,-279.79C258.8,-270.73 197.54,-256.46 144.5,-244 141.86,-243.38 139.12,-242.73 136.37,-242.08"/>
<polygon fill="midnightblue" stroke="midnightblue" points="297.2,-283.24 307.74,-282.09 298.79,-276.42 297.2,-283.24"/>
</g>
<!-- Node10 -->
<g id="node10" class="node">
<title>Node10</title>
<g id="a_node10"><a xlink:href="arch_2x86__64-linux_2odp_2api_2abi_2atomic_8h_source.html" target="_top" xlink:title=" ">
<polygon fill="white" stroke="black" points="462,-224.5 462,-243.5 521,-243.5 521,-224.5 462,-224.5"/>
<text text-anchor="middle" x="491.5" y="-231.5" font-family="Helvetica,sans-Serif" font-size="10.00">atomic.h</text>
</a>
</g>
</g>
<!-- Node3&#45;&gt;Node10 -->
<g id="edge9" class="edge">
<title>Node3&#45;&gt;Node10</title>
<path fill="none" stroke="midnightblue" d="M371.61,-277.04C400.59,-266.88 441.46,-252.55 467.21,-243.52"/>
<polygon fill="midnightblue" stroke="midnightblue" points="370.18,-273.83 361.9,-280.44 372.5,-280.44 370.18,-273.83"/>
</g>
<!-- Node11 -->
<g id="node11" class="node">
<title>Node11</title>
<g id="a_node11"><a xlink:href="api_2atomic_8h.html" target="_top" xlink:title=" ">
<polygon fill="white" stroke="red" points="982,-168.5 982,-187.5 1041,-187.5 1041,-168.5 982,-168.5"/>
<text text-anchor="middle" x="1011.5" y="-175.5" font-family="Helvetica,sans-Serif" font-size="10.00">atomic.h</text>
</a>
</g>
</g>
<!-- Node10&#45;&gt;Node11 -->
<g id="edge10" class="edge">
<title>Node10&#45;&gt;Node11</title>
<path fill="none" stroke="midnightblue" d="M531.21,-224.11C707.63,-196.18 907.47,-184.19 981.77,-180.4"/>
<polygon fill="midnightblue" stroke="midnightblue" points="530.55,-220.67 521.23,-225.71 531.66,-227.58 530.55,-220.67"/>
</g>
<!-- Node12 -->
<g id="node12" class="node">
<title>Node12</title>
<g id="a_node12"><a xlink:href="api_2abi-default_2barrier_8h.html" target="_top" xlink:title=" ">
<polygon fill="white" stroke="red" points="1107,-112.5 1107,-131.5 1164,-131.5 1164,-112.5 1107,-112.5"/>
<text text-anchor="middle" x="1135.5" y="-119.5" font-family="Helvetica,sans-Serif" font-size="10.00">barrier.h</text>
</a>
</g>
</g>
<!-- Node11&#45;&gt;Node12 -->
<g id="edge11" class="edge">
<title>Node11&#45;&gt;Node12</title>
<path fill="none" stroke="midnightblue" d="M1040.51,-164.37C1063.73,-154.26 1095.66,-140.35 1115.94,-131.52"/>
<polygon fill="midnightblue" stroke="midnightblue" points="1038.92,-161.24 1031.15,-168.44 1041.71,-167.66 1038.92,-161.24"/>
</g>
<!-- Node20 -->
<g id="node13" class="node">
<title>Node20</title>
<g id="a_node13"><a xlink:href="api_2barrier_8h.html" target="_top" xlink:title=" ">
<polygon fill="white" stroke="black" points="1032,-112.5 1032,-131.5 1089,-131.5 1089,-112.5 1032,-112.5"/>
<text text-anchor="middle" x="1060.5" y="-119.5" font-family="Helvetica,sans-Serif" font-size="10.00">barrier.h</text>
</a>
</g>
</g>
<!-- Node11&#45;&gt;Node20 -->
<g id="edge12" class="edge">
<title>Node11&#45;&gt;Node20</title>
<path fill="none" stroke="midnightblue" d="M1026.53,-160.43C1035.12,-150.97 1045.54,-139.48 1052.56,-131.75"/>
<polygon fill="midnightblue" stroke="midnightblue" points="1023.72,-158.33 1019.59,-168.08 1028.9,-163.03 1023.72,-158.33"/>
</g>
<!-- Node11&#45;&gt;Node21 -->
<g id="edge15" class="edge">
<title>Node11&#45;&gt;Node21</title>
<path fill="none" stroke="midnightblue" d="M1009.08,-158.26C1008.32,-143.49 1010.04,-123.51 1022.5,-112 1057.13,-79.99 1388.33,-70.02 1494.16,-67.63"/>
<polygon fill="midnightblue" stroke="midnightblue" points="1005.61,-158.68 1010.01,-168.32 1012.58,-158.04 1005.61,-158.68"/>
</g>
<!-- Node20&#45;&gt;Node21 -->
<g id="edge13" class="edge">
<title>Node20&#45;&gt;Node21</title>
<path fill="none" stroke="midnightblue" d="M1099.15,-111.91C1252.12,-85.97 1424.11,-73.35 1494.28,-68.9"/>
<polygon fill="midnightblue" stroke="midnightblue" points="1098.37,-108.5 1089.1,-113.64 1099.55,-115.4 1098.37,-108.5"/>
</g>
<!-- Node22 -->
<g id="node15" class="node">
<title>Node22</title>
<g id="a_node15"><a xlink:href="odp_8h.html" target="_top" xlink:title=" ">
<polygon fill="white" stroke="black" points="1504.5,-0.5 1504.5,-19.5 1548.5,-19.5 1548.5,-0.5 1504.5,-0.5"/>
<text text-anchor="middle" x="1526.5" y="-7.5" font-family="Helvetica,sans-Serif" font-size="10.00">odp.h</text>
</a>
</g>
</g>
<!-- Node21&#45;&gt;Node22 -->
<g id="edge14" class="edge">
<title>Node21&#45;&gt;Node22</title>
<path fill="none" stroke="midnightblue" d="M1526.5,-45.8C1526.5,-36.91 1526.5,-26.78 1526.5,-19.75"/>
<polygon fill="midnightblue" stroke="midnightblue" points="1523,-46.08 1526.5,-56.08 1530,-46.08 1523,-46.08"/>
</g>
<!-- Node51 -->
<g id="node17" class="node">
<title>Node51</title>
<g id="a_node17"><a xlink:href="arch_2arm32-linux_2odp_2api_2abi_2cpumask_8h_source.html" target="_top" xlink:title=" ">
<polygon fill="white" stroke="black" points="539.5,-224.5 539.5,-243.5 609.5,-243.5 609.5,-224.5 539.5,-224.5"/>
<text text-anchor="middle" x="574.5" y="-231.5" font-family="Helvetica,sans-Serif" font-size="10.00">cpumask.h</text>
</a>
</g>
</g>
<!-- Node50&#45;&gt;Node51 -->
<g id="edge17" class="edge">
<title>Node50&#45;&gt;Node51</title>
<path fill="none" stroke="midnightblue" d="M881.36,-283.22C821.23,-275.33 711.59,-260.31 618.5,-244 615.58,-243.49 612.56,-242.93 609.53,-242.35"/>
<polygon fill="midnightblue" stroke="midnightblue" points="880.92,-286.69 891.29,-284.52 881.83,-279.75 880.92,-286.69"/>
</g>
<!-- Node52 -->
<g id="node18" class="node">
<title>Node52</title>
<g id="a_node18"><a xlink:href="arch_2arm64-linux_2odp_2api_2abi_2cpumask_8h_source.html" target="_top" xlink:title=" ">
<polygon fill="white" stroke="black" points="627.5,-224.5 627.5,-243.5 697.5,-243.5 697.5,-224.5 627.5,-224.5"/>
<text text-anchor="middle" x="662.5" y="-231.5" font-family="Helvetica,sans-Serif" font-size="10.00">cpumask.h</text>
</a>
</g>
</g>
<!-- Node50&#45;&gt;Node52 -->
<g id="edge18" class="edge">
<title>Node50&#45;&gt;Node52</title>
<path fill="none" stroke="midnightblue" d="M881.5,-279.8C829.53,-269.17 745.12,-251.9 697.7,-242.2"/>
<polygon fill="midnightblue" stroke="midnightblue" points="880.94,-283.25 891.44,-281.83 882.35,-276.4 880.94,-283.25"/>
</g>
<!-- Node53 -->
<g id="node19" class="node">
<title>Node53</title>
<g id="a_node19"><a xlink:href="arch_2default-linux_2odp_2api_2abi_2cpumask_8h_source.html" target="_top" xlink:title=" ">
<polygon fill="white" stroke="black" points="715.5,-224.5 715.5,-243.5 785.5,-243.5 785.5,-224.5 715.5,-224.5"/>
<text text-anchor="middle" x="750.5" y="-231.5" font-family="Helvetica,sans-Serif" font-size="10.00">cpumask.h</text>
</a>
</g>
</g>
<!-- Node50&#45;&gt;Node53 -->
<g id="edge19" class="edge">
<title>Node50&#45;&gt;Node53</title>
<path fill="none" stroke="midnightblue" d="M888.81,-277.44C855.63,-267.26 808.07,-252.66 778.26,-243.52"/>
<polygon fill="midnightblue" stroke="midnightblue" points="888.03,-280.86 898.61,-280.44 890.08,-274.16 888.03,-280.86"/>
</g>
<!-- Node54 -->
<g id="node20" class="node">
<title>Node54</title>
<g id="a_node20"><a xlink:href="arch_2mips64-linux_2odp_2api_2abi_2cpumask_8h_source.html" target="_top" xlink:title=" ">
<polygon fill="white" stroke="black" points="803.5,-224.5 803.5,-243.5 873.5,-243.5 873.5,-224.5 803.5,-224.5"/>
<text text-anchor="middle" x="838.5" y="-231.5" font-family="Helvetica,sans-Serif" font-size="10.00">cpumask.h</text>
</a>
</g>
</g>
<!-- Node50&#45;&gt;Node54 -->
<g id="edge20" class="edge">
<title>Node50&#45;&gt;Node54</title>
<path fill="none" stroke="midnightblue" d="M903.52,-274.9C887.39,-265 866.32,-252.07 852.6,-243.65"/>
<polygon fill="midnightblue" stroke="midnightblue" points="902.01,-278.08 912.36,-280.32 905.67,-272.11 902.01,-278.08"/>
</g>
<!-- Node55 -->
<g id="node21" class="node">
<title>Node55</title>
<g id="a_node21"><a xlink:href="arch_2power64-linux_2odp_2api_2abi_2cpumask_8h_source.html" target="_top" xlink:title=" ">
<polygon fill="white" stroke="black" points="891.5,-224.5 891.5,-243.5 961.5,-243.5 961.5,-224.5 891.5,-224.5"/>
<text text-anchor="middle" x="926.5" y="-231.5" font-family="Helvetica,sans-Serif" font-size="10.00">cpumask.h</text>
</a>
</g>
</g>
<!-- Node50&#45;&gt;Node55 -->
<g id="edge21" class="edge">
<title>Node50&#45;&gt;Node55</title>
<path fill="none" stroke="midnightblue" d="M926.5,-269.8C926.5,-260.91 926.5,-250.78 926.5,-243.75"/>
<polygon fill="midnightblue" stroke="midnightblue" points="923,-270.08 926.5,-280.08 930,-270.08 923,-270.08"/>
</g>
<!-- Node56 -->
<g id="node22" class="node">
<title>Node56</title>
<g id="a_node22"><a xlink:href="arch_2x86__32-linux_2odp_2api_2abi_2cpumask_8h_source.html" target="_top" xlink:title=" ">
<polygon fill="white" stroke="black" points="979.5,-224.5 979.5,-243.5 1049.5,-243.5 1049.5,-224.5 979.5,-224.5"/>
<text text-anchor="middle" x="1014.5" y="-231.5" font-family="Helvetica,sans-Serif" font-size="10.00">cpumask.h</text>
</a>
</g>
</g>
<!-- Node50&#45;&gt;Node56 -->
<g id="edge22" class="edge">
<title>Node50&#45;&gt;Node56</title>
<path fill="none" stroke="midnightblue" d="M949.48,-274.9C965.61,-265 986.68,-252.07 1000.4,-243.65"/>
<polygon fill="midnightblue" stroke="midnightblue" points="947.33,-272.11 940.64,-280.32 950.99,-278.08 947.33,-272.11"/>
</g>
<!-- Node57 -->
<g id="node23" class="node">
<title>Node57</title>
<g id="a_node23"><a xlink:href="arch_2x86__64-linux_2odp_2api_2abi_2cpumask_8h_source.html" target="_top" xlink:title=" ">
<polygon fill="white" stroke="black" points="1143.5,-224.5 1143.5,-243.5 1213.5,-243.5 1213.5,-224.5 1143.5,-224.5"/>
<text text-anchor="middle" x="1178.5" y="-231.5" font-family="Helvetica,sans-Serif" font-size="10.00">cpumask.h</text>
</a>
</g>
</g>
<!-- Node50&#45;&gt;Node57 -->
<g id="edge23" class="edge">
<title>Node50&#45;&gt;Node57</title>
<path fill="none" stroke="midnightblue" d="M971.58,-279.34C1020.77,-268.8 1098.48,-252.15 1143.35,-242.53"/>
<polygon fill="midnightblue" stroke="midnightblue" points="970.58,-275.97 961.54,-281.49 972.05,-282.82 970.58,-275.97"/>
</g>
<!-- Node58 -->
<g id="node24" class="node">
<title>Node58</title>
<g id="a_node24"><a xlink:href="api_2cpumask_8h.html" target="_top" xlink:title=" ">
<polygon fill="white" stroke="red" points="1143.5,-168.5 1143.5,-187.5 1213.5,-187.5 1213.5,-168.5 1143.5,-168.5"/>
<text text-anchor="middle" x="1178.5" y="-175.5" font-family="Helvetica,sans-Serif" font-size="10.00">cpumask.h</text>
</a>
</g>
</g>
<!-- Node57&#45;&gt;Node58 -->
<g id="edge24" class="edge">
<title>Node57&#45;&gt;Node58</title>
<path fill="none" stroke="midnightblue" d="M1178.5,-213.8C1178.5,-204.91 1178.5,-194.78 1178.5,-187.75"/>
<polygon fill="midnightblue" stroke="midnightblue" points="1175,-214.08 1178.5,-224.08 1182,-214.08 1175,-214.08"/>
</g>
<!-- Node58&#45;&gt;Node21 -->
<g id="edge26" class="edge">
<title>Node58&#45;&gt;Node21</title>
<path fill="none" stroke="midnightblue" d="M1182.88,-158.38C1187.43,-143.38 1196.1,-123.03 1211.5,-112 1256.41,-79.84 1423.41,-70.46 1494.32,-67.9"/>
<polygon fill="midnightblue" stroke="midnightblue" points="1179.47,-157.59 1180.26,-168.15 1186.23,-159.4 1179.47,-157.59"/>
</g>
<!-- Node70 -->
<g id="node25" class="node">
<title>Node70</title>
<g id="a_node25"><a xlink:href="api_2spec_2init_8h.html" target="_top" xlink:title=" ">
<polygon fill="white" stroke="red" points="1221,-112.5 1221,-131.5 1262,-131.5 1262,-112.5 1221,-112.5"/>
<text text-anchor="middle" x="1241.5" y="-119.5" font-family="Helvetica,sans-Serif" font-size="10.00">init.h</text>
</a>
</g>
</g>
<!-- Node58&#45;&gt;Node70 -->
<g id="edge25" class="edge">
<title>Node58&#45;&gt;Node70</title>
<path fill="none" stroke="midnightblue" d="M1196.54,-161.54C1207.77,-151.91 1221.82,-139.87 1231.19,-131.83"/>
<polygon fill="midnightblue" stroke="midnightblue" points="1193.94,-159.16 1188.62,-168.32 1198.49,-164.47 1193.94,-159.16"/>
</g>
<!-- Node75 -->
<g id="node27" class="node">
<title>Node75</title>
<g id="a_node27"><a xlink:href="api_2std__types_8h.html" target="_top" xlink:title=" ">
<polygon fill="white" stroke="red" points="1683,-336.5 1683,-355.5 1756,-355.5 1756,-336.5 1683,-336.5"/>
<text text-anchor="middle" x="1719.5" y="-343.5" font-family="Helvetica,sans-Serif" font-size="10.00">std_types.h</text>
</a>
</g>
</g>
<!-- Node74&#45;&gt;Node75 -->
<g id="edge28" class="edge">
<title>Node74&#45;&gt;Node75</title>
<path fill="none" stroke="midnightblue" d="M1568.47,-389.7C1604.52,-379.51 1656.74,-364.74 1689.38,-355.52"/>
<polygon fill="midnightblue" stroke="midnightblue" points="1567.44,-386.35 1558.76,-392.44 1569.34,-393.09 1567.44,-386.35"/>
</g>
<!-- Node75&#45;&gt;Node3 -->
<g id="edge29" class="edge">
<title>Node75&#45;&gt;Node3</title>
<path fill="none" stroke="midnightblue" d="M1672.76,-343.17C1455.1,-334.67 543.94,-299.07 367.25,-292.16"/>
<polygon fill="midnightblue" stroke="midnightblue" points="1672.76,-346.68 1682.89,-343.57 1673.04,-339.68 1672.76,-346.68"/>
</g>
<!-- Node75&#45;&gt;Node12 -->
<g id="edge30" class="edge">
<title>Node75&#45;&gt;Node12</title>
<path fill="none" stroke="midnightblue" d="M1672.46,-344.81C1544.91,-343.14 1197.81,-330.59 1134.5,-244 1109.2,-209.41 1124.86,-153.11 1132.26,-131.67"/>
<polygon fill="midnightblue" stroke="midnightblue" points="1672.65,-348.31 1682.68,-344.92 1672.72,-341.31 1672.65,-348.31"/>
</g>
<!-- Node75&#45;&gt;Node20 -->
<g id="edge40" class="edge">
<title>Node75&#45;&gt;Node20</title>
<path fill="none" stroke="midnightblue" d="M1672.66,-344.93C1558.68,-344.13 1269.85,-338.29 1182.5,-300 1108.33,-267.48 1072.24,-162.91 1062.97,-131.81"/>
<polygon fill="midnightblue" stroke="midnightblue" points="1672.79,-348.43 1682.81,-344.99 1672.83,-341.43 1672.79,-348.43"/>
</g>
<!-- Node75&#45;&gt;Node21 -->
<g id="edge73" class="edge">
<title>Node75&#45;&gt;Node21</title>
<path fill="none" stroke="midnightblue" d="M1766.32,-344.29C1969.39,-341.07 2765.82,-326.77 2811.5,-300 2840.76,-282.85 2851.5,-268.92 2851.5,-235 2851.5,-235 2851.5,-235 2851.5,-177 2851.5,-109.99 1760.95,-74.03 1558.6,-67.93"/>
<polygon fill="midnightblue" stroke="midnightblue" points="1766.21,-340.79 1756.27,-344.45 1766.32,-347.79 1766.21,-340.79"/>
</g>
<!-- Node75&#45;&gt;Node50 -->
<g id="edge32" class="edge">
<title>Node75&#45;&gt;Node50</title>
<path fill="none" stroke="midnightblue" d="M1672.52,-341.8C1527.62,-331.93 1089.66,-302.11 961.86,-293.41"/>
<polygon fill="midnightblue" stroke="midnightblue" points="1672.63,-345.32 1682.84,-342.5 1673.1,-338.33 1672.63,-345.32"/>
</g>
<!-- Node75&#45;&gt;Node70 -->
<g id="edge70" class="edge">
<title>Node75&#45;&gt;Node70</title>
<path fill="none" stroke="midnightblue" d="M1672.6,-344.33C1583.25,-342.28 1392.6,-333.94 1337.5,-300 1273.21,-260.4 1249.07,-161.62 1243.09,-131.71"/>
<polygon fill="midnightblue" stroke="midnightblue" points="1672.65,-347.83 1682.72,-344.55 1672.8,-340.84 1672.65,-347.83"/>
</g>
<!-- Node76 -->
<g id="node28" class="node">
<title>Node76</title>
<g id="a_node28"><a xlink:href="api_2abi-default_2byteorder_8h.html" target="_top" xlink:title=" ">
<polygon fill="white" stroke="red" points="1833.5,-280.5 1833.5,-299.5 1905.5,-299.5 1905.5,-280.5 1833.5,-280.5"/>
<text text-anchor="middle" x="1869.5" y="-287.5" font-family="Helvetica,sans-Serif" font-size="10.00">byteorder.h</text>
</a>
</g>
</g>
<!-- Node75&#45;&gt;Node76 -->
<g id="edge31" class="edge">
<title>Node75&#45;&gt;Node76</title>
<path fill="none" stroke="midnightblue" d="M1752.72,-333.04C1780.95,-322.88 1820.76,-308.55 1845.84,-299.52"/>
<polygon fill="midnightblue" stroke="midnightblue" points="1751.49,-329.76 1743.27,-336.44 1753.86,-336.35 1751.49,-329.76"/>
</g>
<!-- Node85 -->
<g id="node29" class="node">
<title>Node85</title>
<g id="a_node29"><a xlink:href="api_2abi-default_2init_8h.html" target="_top" xlink:title=" ">
<polygon fill="white" stroke="red" points="1924,-280.5 1924,-299.5 1965,-299.5 1965,-280.5 1924,-280.5"/>
<text text-anchor="middle" x="1944.5" y="-287.5" font-family="Helvetica,sans-Serif" font-size="10.00">init.h</text>
</a>
</g>
</g>
<!-- Node75&#45;&gt;Node85 -->
<g id="edge33" class="edge">
<title>Node75&#45;&gt;Node85</title>
<path fill="none" stroke="midnightblue" d="M1766.24,-335.1C1805.88,-326.5 1864.14,-313.35 1914.5,-300 1917.55,-299.19 1920.76,-298.29 1923.89,-297.37"/>
<polygon fill="midnightblue" stroke="midnightblue" points="1765.37,-331.71 1756.33,-337.24 1766.85,-338.55 1765.37,-331.71"/>
</g>
<!-- Node93 -->
<g id="node30" class="node">
<title>Node93</title>
<g id="a_node30"><a xlink:href="api_2abi-default_2ipsec_8h.html" target="_top" xlink:title=" ">
<polygon fill="white" stroke="red" points="1983,-280.5 1983,-299.5 2034,-299.5 2034,-280.5 1983,-280.5"/>
<text text-anchor="middle" x="2008.5" y="-287.5" font-family="Helvetica,sans-Serif" font-size="10.00">ipsec.h</text>
</a>
</g>
</g>
<!-- Node75&#45;&gt;Node93 -->
<g id="edge34" class="edge">
<title>Node75&#45;&gt;Node93</title>
<path fill="none" stroke="midnightblue" d="M1766.35,-337.8C1817.47,-329.69 1901.64,-315.58 1973.5,-300 1976.57,-299.34 1979.77,-298.59 1982.94,-297.81"/>
<polygon fill="midnightblue" stroke="midnightblue" points="1765.6,-334.37 1756.27,-339.39 1766.69,-341.29 1765.6,-334.37"/>
</g>
<!-- Node102 -->
<g id="node31" class="node">
<title>Node102</title>
<g id="a_node31"><a xlink:href="api_2abi-default_2packet__io_8h.html" target="_top" xlink:title=" ">
<polygon fill="white" stroke="red" points="2052.5,-280.5 2052.5,-299.5 2124.5,-299.5 2124.5,-280.5 2052.5,-280.5"/>
<text text-anchor="middle" x="2088.5" y="-287.5" font-family="Helvetica,sans-Serif" font-size="10.00">packet_io.h</text>
</a>
</g>
</g>
<!-- Node75&#45;&gt;Node102 -->
<g id="edge35" class="edge">
<title>Node75&#45;&gt;Node102</title>
<path fill="none" stroke="midnightblue" d="M1766.43,-339.28C1829.4,-331.42 1944.64,-316.38 2042.5,-300 2045.71,-299.46 2049.04,-298.87 2052.37,-298.26"/>
<polygon fill="midnightblue" stroke="midnightblue" points="1765.91,-335.82 1756.41,-340.53 1766.77,-342.77 1765.91,-335.82"/>
</g>
<!-- Node32 -->
<g id="node32" class="node">
<title>Node32</title>
<g id="a_node32"><a xlink:href="api_2abi-default_2rwlock__recursive_8h.html" target="_top" xlink:title=" ">
<polygon fill="white" stroke="red" points="2142.5,-280.5 2142.5,-299.5 2250.5,-299.5 2250.5,-280.5 2142.5,-280.5"/>
<text text-anchor="middle" x="2196.5" y="-287.5" font-family="Helvetica,sans-Serif" font-size="10.00">rwlock_recursive.h</text>
</a>
</g>
</g>
<!-- Node75&#45;&gt;Node32 -->
<g id="edge36" class="edge">
<title>Node75&#45;&gt;Node32</title>
<path fill="none" stroke="midnightblue" d="M1766.39,-340.42C1843.2,-332.81 2000.59,-316.71 2133.5,-300 2136.35,-299.64 2139.27,-299.26 2142.22,-298.87"/>
<polygon fill="midnightblue" stroke="midnightblue" points="1765.71,-336.97 1756.1,-341.44 1766.4,-343.94 1765.71,-336.97"/>
</g>
<!-- Node130 -->
<g id="node33" class="node">
<title>Node130</title>
<g id="a_node33"><a xlink:href="api_2abi-default_2schedule_8h.html" target="_top" xlink:title=" ">
<polygon fill="white" stroke="red" points="2269,-280.5 2269,-299.5 2338,-299.5 2338,-280.5 2269,-280.5"/>
<text text-anchor="middle" x="2303.5" y="-287.5" font-family="Helvetica,sans-Serif" font-size="10.00">schedule.h</text>
</a>
</g>
</g>
<!-- Node75&#45;&gt;Node130 -->
<g id="edge37" class="edge">
<title>Node75&#45;&gt;Node130</title>
<path fill="none" stroke="midnightblue" d="M1766.02,-342.98C1859.78,-338.51 2077.97,-326.04 2259.5,-300 2262.59,-299.56 2265.78,-299.03 2268.98,-298.46"/>
<polygon fill="midnightblue" stroke="midnightblue" points="1765.84,-339.49 1756.01,-343.45 1766.16,-346.48 1765.84,-339.49"/>
</g>
<!-- Node138 -->
<g id="node34" class="node">
<title>Node138</title>
<g id="a_node34"><a xlink:href="api_2abi-default_2spinlock__recursive_8h.html" target="_top" xlink:title=" ">
<polygon fill="white" stroke="red" points="2356.5,-280.5 2356.5,-299.5 2472.5,-299.5 2472.5,-280.5 2356.5,-280.5"/>
<text text-anchor="middle" x="2414.5" y="-287.5" font-family="Helvetica,sans-Serif" font-size="10.00">spinlock_recursive.h</text>
</a>
</g>
</g>
<!-- Node75&#45;&gt;Node138 -->
<g id="edge38" class="edge">
<title>Node75&#45;&gt;Node138</title>
<path fill="none" stroke="midnightblue" d="M1766.52,-342.59C1871,-337.03 2130.27,-322.05 2346.5,-300 2349.7,-299.67 2352.98,-299.32 2356.29,-298.94"/>
<polygon fill="midnightblue" stroke="midnightblue" points="1766.12,-339.11 1756.32,-343.13 1766.49,-346.1 1766.12,-339.11"/>
</g>
<!-- Node147 -->
<g id="node35" class="node">
<title>Node147</title>
<g id="a_node35"><a xlink:href="api_2abi-default_2traffic__mngr_8h.html" target="_top" xlink:title=" ">
<polygon fill="white" stroke="red" points="2490.5,-280.5 2490.5,-299.5 2574.5,-299.5 2574.5,-280.5 2490.5,-280.5"/>
<text text-anchor="middle" x="2532.5" y="-287.5" font-family="Helvetica,sans-Serif" font-size="10.00">traffic_mngr.h</text>
</a>
</g>
</g>
<!-- Node75&#45;&gt;Node147 -->
<g id="edge39" class="edge">
<title>Node75&#45;&gt;Node147</title>
<path fill="none" stroke="midnightblue" d="M1766.37,-344.12C1885.94,-341.46 2211.92,-331.64 2481.5,-300 2484.36,-299.66 2487.3,-299.27 2490.25,-298.84"/>
<polygon fill="midnightblue" stroke="midnightblue" points="1766.04,-340.62 1756.11,-344.34 1766.19,-347.62 1766.04,-340.62"/>
</g>
<!-- Node155 -->
<g id="node36" class="node">
<title>Node155</title>
<g id="a_node36"><a xlink:href="api_2buffer_8h.html" target="_top" xlink:title=" ">
<polygon fill="white" stroke="black" points="1273,-168.5 1273,-187.5 1326,-187.5 1326,-168.5 1273,-168.5"/>
<text text-anchor="middle" x="1299.5" y="-175.5" font-family="Helvetica,sans-Serif" font-size="10.00">buffer.h</text>
</a>
</g>
</g>
<!-- Node75&#45;&gt;Node155 -->
<g id="edge41" class="edge">
<title>Node75&#45;&gt;Node155</title>
<path fill="none" stroke="midnightblue" d="M1672.57,-344.28C1587.32,-342.15 1411.23,-333.67 1361.5,-300 1321.04,-272.61 1305.47,-210.4 1301,-187.59"/>
<polygon fill="midnightblue" stroke="midnightblue" points="1672.67,-347.78 1682.75,-344.52 1672.83,-340.79 1672.67,-347.78"/>
</g>
<!-- Node110 -->
<g id="node37" class="node">
<title>Node110</title>
<g id="a_node37"><a xlink:href="api_2classification_8h.html" target="_top" xlink:title=" ">
<polygon fill="white" stroke="black" points="1346,-168.5 1346,-187.5 1435,-187.5 1435,-168.5 1346,-168.5"/>
<text text-anchor="middle" x="1390.5" y="-175.5" font-family="Helvetica,sans-Serif" font-size="10.00">classification.h</text>
</a>
</g>
</g>
<!-- Node75&#45;&gt;Node110 -->
<g id="edge43" class="edge">
<title>Node75&#45;&gt;Node110</title>
<path fill="none" stroke="midnightblue" d="M1672.69,-341.5C1596.81,-335.29 1450.7,-321.01 1403.5,-300 1368.05,-284.22 1352.94,-279.16 1336.5,-244 1325.69,-220.87 1354.52,-199.16 1374.1,-187.62"/>
<polygon fill="midnightblue" stroke="midnightblue" points="1672.66,-345 1682.91,-342.32 1673.22,-338.03 1672.66,-345"/>
</g>
<!-- Node111 -->
<g id="node38" class="node">
<title>Node111</title>
<g id="a_node38"><a xlink:href="api_2spec_2ipsec_8h.html" target="_top" xlink:title=" ">
<polygon fill="white" stroke="red" points="1503,-112.5 1503,-131.5 1554,-131.5 1554,-112.5 1503,-112.5"/>
<text text-anchor="middle" x="1528.5" y="-119.5" font-family="Helvetica,sans-Serif" font-size="10.00">ipsec.h</text>
</a>
</g>
</g>
<!-- Node75&#45;&gt;Node111 -->
<g id="edge71" class="edge">
<title>Node75&#45;&gt;Node111</title>
<path fill="none" stroke="midnightblue" d="M1672.93,-334.96C1650.84,-328.2 1625.43,-317.27 1607.5,-300 1555.63,-250.05 1535.27,-159.92 1529.99,-131.7"/>
<polygon fill="midnightblue" stroke="midnightblue" points="1672.23,-338.4 1682.8,-337.78 1674.15,-331.67 1672.23,-338.4"/>
</g>
<!-- Node116 -->
<g id="node39" class="node">
<title>Node116</title>
<g id="a_node39"><a xlink:href="api_2crypto_8h.html" target="_top" xlink:title=" ">
<polygon fill="white" stroke="black" points="1567.5,-168.5 1567.5,-187.5 1623.5,-187.5 1623.5,-168.5 1567.5,-168.5"/>
<text text-anchor="middle" x="1595.5" y="-175.5" font-family="Helvetica,sans-Serif" font-size="10.00">crypto.h</text>
</a>
</g>
</g>
<!-- Node75&#45;&gt;Node116 -->
<g id="edge46" class="edge">
<title>Node75&#45;&gt;Node116</title>
<path fill="none" stroke="midnightblue" d="M1682.69,-332.64C1664.79,-325.26 1643.87,-314.48 1628.5,-300 1607.63,-280.35 1604.07,-271.65 1596.5,-244 1591.13,-224.41 1592.82,-200.23 1594.29,-187.6"/>
<polygon fill="midnightblue" stroke="midnightblue" points="1681.69,-336 1692.27,-336.38 1684.24,-329.48 1681.69,-336"/>
</g>
<!-- Node112 -->
<g id="node40" class="node">
<title>Node112</title>
<g id="a_node40"><a xlink:href="api_2packet_8h.html" target="_top" xlink:title=" ">
<polygon fill="white" stroke="red" points="1719.5,-280.5 1719.5,-299.5 1777.5,-299.5 1777.5,-280.5 1719.5,-280.5"/>
<text text-anchor="middle" x="1748.5" y="-287.5" font-family="Helvetica,sans-Serif" font-size="10.00">packet.h</text>
</a>
</g>
</g>
<!-- Node75&#45;&gt;Node112 -->
<g id="edge49" class="edge">
<title>Node75&#45;&gt;Node112</title>
<path fill="none" stroke="midnightblue" d="M1729.18,-326.98C1734.1,-317.82 1739.86,-307.09 1743.8,-299.75"/>
<polygon fill="midnightblue" stroke="midnightblue" points="1725.94,-325.62 1724.29,-336.08 1732.1,-328.93 1725.94,-325.62"/>
</g>
<!-- Node113 -->
<g id="node41" class="node">
<title>Node113</title>
<g id="a_node41"><a xlink:href="api_2spec_2comp_8h.html" target="_top" xlink:title=" ">
<polygon fill="white" stroke="red" points="1718,-224.5 1718,-243.5 1771,-243.5 1771,-224.5 1718,-224.5"/>
<text text-anchor="middle" x="1744.5" y="-231.5" font-family="Helvetica,sans-Serif" font-size="10.00">comp.h</text>
</a>
</g>
</g>
<!-- Node75&#45;&gt;Node113 -->
<g id="edge66" class="edge">
<title>Node75&#45;&gt;Node113</title>
<path fill="none" stroke="midnightblue" d="M1712.56,-326.55C1708.63,-313.3 1705.41,-295.19 1710.5,-280 1715.36,-265.52 1726.92,-251.98 1735.21,-243.61"/>
<polygon fill="midnightblue" stroke="midnightblue" points="1709.36,-328 1715.87,-336.36 1715.99,-325.76 1709.36,-328"/>
</g>
<!-- Node115 -->
<g id="node42" class="node">
<title>Node115</title>
<g id="a_node42"><a xlink:href="api_2spec_2crypto_8h.html" target="_top" xlink:title=" ">
<polygon fill="white" stroke="black" points="1605.5,-224.5 1605.5,-243.5 1661.5,-243.5 1661.5,-224.5 1605.5,-224.5"/>
<text text-anchor="middle" x="1633.5" y="-231.5" font-family="Helvetica,sans-Serif" font-size="10.00">crypto.h</text>
</a>
</g>
</g>
<!-- Node75&#45;&gt;Node115 -->
<g id="edge68" class="edge">
<title>Node75&#45;&gt;Node115</title>
<path fill="none" stroke="midnightblue" d="M1681.17,-332.48C1665.68,-325.42 1649.19,-314.95 1639.5,-300 1628.28,-282.69 1629.98,-257.14 1631.9,-243.82"/>
<polygon fill="midnightblue" stroke="midnightblue" points="1680.05,-335.8 1690.62,-336.44 1682.75,-329.35 1680.05,-335.8"/>
</g>
<!-- Node128 -->
<g id="node43" class="node">
<title>Node128</title>
<g id="a_node43"><a xlink:href="api_2spec_2packet__flags_8h.html" target="_top" xlink:title=" ">
<polygon fill="white" stroke="red" points="1827.5,-224.5 1827.5,-243.5 1913.5,-243.5 1913.5,-224.5 1827.5,-224.5"/>
<text text-anchor="middle" x="1870.5" y="-231.5" font-family="Helvetica,sans-Serif" font-size="10.00">packet_flags.h</text>
</a>
</g>
</g>
<!-- Node75&#45;&gt;Node128 -->
<g id="edge72" class="edge">
<title>Node75&#45;&gt;Node128</title>
<path fill="none" stroke="midnightblue" d="M1741.23,-330.94C1754.47,-322.24 1771.64,-310.72 1786.5,-300 1813.42,-280.58 1844.01,-256.33 1859.8,-243.65"/>
<polygon fill="midnightblue" stroke="midnightblue" points="1739.23,-328.06 1732.77,-336.46 1743.06,-333.92 1739.23,-328.06"/>
</g>
<!-- Node124 -->
<g id="node44" class="node">
<title>Node124</title>
<g id="a_node44"><a xlink:href="api_2packet__io_8h.html" target="_top" xlink:title=" ">
<polygon fill="white" stroke="red" points="1433.5,-280.5 1433.5,-299.5 1505.5,-299.5 1505.5,-280.5 1433.5,-280.5"/>
<text text-anchor="middle" x="1469.5" y="-287.5" font-family="Helvetica,sans-Serif" font-size="10.00">packet_io.h</text>
</a>
</g>
</g>
<!-- Node75&#45;&gt;Node124 -->
<g id="edge55" class="edge">
<title>Node75&#45;&gt;Node124</title>
<path fill="none" stroke="midnightblue" d="M1672.98,-334.95C1624.64,-324.51 1549.99,-308.39 1505.81,-298.84"/>
<polygon fill="midnightblue" stroke="midnightblue" points="1672.37,-338.4 1682.88,-337.09 1673.84,-331.56 1672.37,-338.4"/>
</g>
<!-- Node125 -->
<g id="node45" class="node">
<title>Node125</title>
<g id="a_node45"><a xlink:href="api_2spec_2classification_8h.html" target="_top" xlink:title=" ">
<polygon fill="white" stroke="black" points="1346,-224.5 1346,-243.5 1435,-243.5 1435,-224.5 1346,-224.5"/>
<text text-anchor="middle" x="1390.5" y="-231.5" font-family="Helvetica,sans-Serif" font-size="10.00">classification.h</text>
</a>
</g>
</g>
<!-- Node75&#45;&gt;Node125 -->
<g id="edge65" class="edge">
<title>Node75&#45;&gt;Node125</title>
<path fill="none" stroke="midnightblue" d="M1672.62,-342.94C1599.7,-338.91 1463.43,-327.8 1424.5,-300 1405.22,-286.23 1396.01,-258.16 1392.41,-243.83"/>
<polygon fill="midnightblue" stroke="midnightblue" points="1672.73,-346.45 1682.9,-343.49 1673.1,-339.46 1672.73,-346.45"/>
</g>
<!-- Node156 -->
<g id="node46" class="node">
<title>Node156</title>
<g id="a_node46"><a xlink:href="api_2proto__stats_8h.html" target="_top" xlink:title=" ">
<polygon fill="white" stroke="black" points="1633.5,-112.5 1633.5,-131.5 1713.5,-131.5 1713.5,-112.5 1633.5,-112.5"/>
<text text-anchor="middle" x="1673.5" y="-119.5" font-family="Helvetica,sans-Serif" font-size="10.00">proto_stats.h</text>
</a>
</g>
</g>
<!-- Node75&#45;&gt;Node156 -->
<g id="edge60" class="edge">
<title>Node75&#45;&gt;Node156</title>
<path fill="none" stroke="midnightblue" d="M1712.8,-326.93C1709.95,-318.78 1706.77,-308.99 1704.5,-300 1688.37,-236.18 1677.77,-157.32 1674.54,-131.57"/>
<polygon fill="midnightblue" stroke="midnightblue" points="1709.56,-328.27 1716.24,-336.49 1716.14,-325.89 1709.56,-328.27"/>
</g>
<!-- Node120 -->
<g id="node47" class="node">
<title>Node120</title>
<g id="a_node47"><a xlink:href="api_2queue_8h.html" target="_top" xlink:title=" ">
<polygon fill="white" stroke="red" points="2297.5,-168.5 2297.5,-187.5 2353.5,-187.5 2353.5,-168.5 2297.5,-168.5"/>
<text text-anchor="middle" x="2325.5" y="-175.5" font-family="Helvetica,sans-Serif" font-size="10.00">queue.h</text>
</a>
</g>
</g>
<!-- Node75&#45;&gt;Node120 -->
<g id="edge62" class="edge">
<title>Node75&#45;&gt;Node120</title>
<path fill="none" stroke="midnightblue" d="M1766.28,-344.82C1968.32,-343.83 2757.47,-337.57 2793.5,-300 2857.54,-233.22 2464.06,-191.71 2353.7,-181.48"/>
<polygon fill="midnightblue" stroke="midnightblue" points="1765.99,-341.32 1756.01,-344.87 1766.03,-348.32 1765.99,-341.32"/>
</g>
<!-- Node157 -->
<g id="node48" class="node">
<title>Node157</title>
<g id="a_node48"><a xlink:href="spec_2chksum_8h.html" target="_top" xlink:title=" ">
<polygon fill="white" stroke="red" points="2592.5,-280.5 2592.5,-299.5 2656.5,-299.5 2656.5,-280.5 2592.5,-280.5"/>
<text text-anchor="middle" x="2624.5" y="-287.5" font-family="Helvetica,sans-Serif" font-size="10.00">chksum.h</text>
</a>
</g>
</g>
<!-- Node75&#45;&gt;Node157 -->
<g id="edge64" class="edge">
<title>Node75&#45;&gt;Node157</title>
<path fill="none" stroke="midnightblue" d="M1766.36,-345.25C1896.6,-345.37 2273.71,-341.78 2583.5,-300 2586.39,-299.61 2589.38,-299.12 2592.36,-298.58"/>
<polygon fill="midnightblue" stroke="midnightblue" points="1766.34,-341.75 1756.33,-345.23 1766.33,-348.75 1766.34,-341.75"/>
</g>
<!-- Node159 -->
<g id="node49" class="node">
<title>Node159</title>
<g id="a_node49"><a xlink:href="api_2spec_2cpu_8h.html" target="_top" xlink:title=" ">
<polygon fill="white" stroke="red" points="2675,-280.5 2675,-299.5 2718,-299.5 2718,-280.5 2675,-280.5"/>
<text text-anchor="middle" x="2696.5" y="-287.5" font-family="Helvetica,sans-Serif" font-size="10.00">cpu.h</text>
</a>
</g>
</g>
<!-- Node75&#45;&gt;Node159 -->
<g id="edge67" class="edge">
<title>Node75&#45;&gt;Node159</title>
<path fill="none" stroke="midnightblue" d="M1766.46,-344.23C1932.23,-341.26 2489.54,-329.31 2665.5,-300 2668.6,-299.48 2671.82,-298.76 2674.97,-297.95"/>
<polygon fill="midnightblue" stroke="midnightblue" points="1766.05,-340.73 1756.11,-344.41 1766.17,-347.73 1766.05,-340.73"/>
</g>
<!-- Node161 -->
<g id="node50" class="node">
<title>Node161</title>
<g id="a_node50"><a xlink:href="api_2spec_2hash_8h.html" target="_top" xlink:title=" ">
<polygon fill="white" stroke="red" points="2736,-280.5 2736,-299.5 2785,-299.5 2785,-280.5 2736,-280.5"/>
<text text-anchor="middle" x="2760.5" y="-287.5" font-family="Helvetica,sans-Serif" font-size="10.00">hash.h</text>
</a>
</g>
</g>
<!-- Node75&#45;&gt;Node161 -->
<g id="edge69" class="edge">
<title>Node75&#45;&gt;Node161</title>
<path fill="none" stroke="midnightblue" d="M1766.29,-344.24C1938.62,-341.23 2537.68,-328.87 2726.5,-300 2729.52,-299.54 2732.65,-298.91 2735.75,-298.21"/>
<polygon fill="midnightblue" stroke="midnightblue" points="1765.97,-340.74 1756.03,-344.42 1766.09,-347.74 1765.97,-340.74"/>
</g>
<!-- Node155&#45;&gt;Node21 -->
<g id="edge42" class="edge">
<title>Node155&#45;&gt;Node21</title>
<path fill="none" stroke="midnightblue" d="M1323.93,-163.7C1348.96,-150.22 1389.11,-128.99 1424.5,-112 1452.42,-98.6 1485.28,-84.37 1506,-75.58"/>
<polygon fill="midnightblue" stroke="midnightblue" points="1322.26,-160.63 1315.12,-168.46 1325.58,-166.79 1322.26,-160.63"/>
</g>
<!-- Node110&#45;&gt;Node21 -->
<g id="edge45" class="edge">
<title>Node110&#45;&gt;Node21</title>
<path fill="none" stroke="midnightblue" d="M1403.49,-160.01C1414.7,-146.05 1431.83,-126.33 1449.5,-112 1468.02,-96.98 1492.12,-83.75 1508.39,-75.59"/>
<polygon fill="midnightblue" stroke="midnightblue" points="1400.46,-158.2 1397.04,-168.23 1405.97,-162.52 1400.46,-158.2"/>
</g>
<!-- Node110&#45;&gt;Node111 -->
<g id="edge44" class="edge">
<title>Node110&#45;&gt;Node111</title>
<path fill="none" stroke="midnightblue" d="M1421.75,-164.77C1447.67,-154.63 1483.86,-140.47 1506.74,-131.52"/>
<polygon fill="midnightblue" stroke="midnightblue" points="1420.4,-161.54 1412.37,-168.44 1422.95,-168.06 1420.4,-161.54"/>
</g>
<!-- Node116&#45;&gt;Node21 -->
<g id="edge48" class="edge">
<title>Node116&#45;&gt;Node21</title>
<path fill="none" stroke="midnightblue" d="M1587.49,-158.81C1581.32,-145.46 1572.23,-127.11 1562.5,-112 1553.83,-98.54 1541.94,-84.33 1534.23,-75.56"/>
<polygon fill="midnightblue" stroke="midnightblue" points="1584.46,-160.6 1591.76,-168.28 1590.84,-157.72 1584.46,-160.6"/>
</g>
<!-- Node116&#45;&gt;Node111 -->
<g id="edge47" class="edge">
<title>Node116&#45;&gt;Node111</title>
<path fill="none" stroke="midnightblue" d="M1576.67,-161.82C1564.66,-152.15 1549.53,-139.95 1539.46,-131.83"/>
<polygon fill="midnightblue" stroke="midnightblue" points="1574.75,-164.77 1584.74,-168.32 1579.15,-159.32 1574.75,-164.77"/>
</g>
<!-- Node112&#45;&gt;Node21 -->
<g id="edge54" class="edge">
<title>Node112&#45;&gt;Node21</title>
<path fill="none" stroke="midnightblue" d="M1763.48,-272.47C1769.72,-264.48 1776.27,-254.38 1779.5,-244 1782.14,-235.51 1781.57,-232.64 1779.5,-224 1766.47,-169.69 1766.53,-146.37 1722.5,-112 1674.48,-74.51 1600.86,-67.22 1558.85,-66.38"/>
<polygon fill="midnightblue" stroke="midnightblue" points="1760.71,-270.32 1756.98,-280.23 1766.08,-274.81 1760.71,-270.32"/>
</g>
<!-- Node112&#45;&gt;Node113 -->
<g id="edge50" class="edge">
<title>Node112&#45;&gt;Node113</title>
<path fill="none" stroke="midnightblue" d="M1747.1,-270.1C1746.44,-261.14 1745.67,-250.86 1745.15,-243.75"/>
<polygon fill="midnightblue" stroke="midnightblue" points="1743.61,-270.37 1747.84,-280.08 1750.59,-269.85 1743.61,-270.37"/>
</g>
<!-- Node112&#45;&gt;Node115 -->
<g id="edge51" class="edge">
<title>Node112&#45;&gt;Node115</title>
<path fill="none" stroke="midnightblue" d="M1721.02,-276.1C1699.53,-266.01 1670.28,-252.27 1651.64,-243.52"/>
<polygon fill="midnightblue" stroke="midnightblue" points="1719.74,-279.36 1730.28,-280.44 1722.71,-273.02 1719.74,-279.36"/>
</g>
<!-- Node112&#45;&gt;Node128 -->
<g id="edge53" class="edge">
<title>Node112&#45;&gt;Node128</title>
<path fill="none" stroke="midnightblue" d="M1777.04,-276.37C1799.89,-266.26 1831.31,-252.35 1851.26,-243.52"/>
<polygon fill="midnightblue" stroke="midnightblue" points="1775.56,-273.2 1767.83,-280.44 1778.39,-279.6 1775.56,-273.2"/>
</g>
<!-- Node115&#45;&gt;Node116 -->
<g id="edge52" class="edge">
<title>Node115&#45;&gt;Node116</title>
<path fill="none" stroke="midnightblue" d="M1621.44,-215.86C1614.86,-206.5 1606.99,-195.33 1601.66,-187.75"/>
<polygon fill="midnightblue" stroke="midnightblue" points="1618.61,-217.92 1627.23,-224.08 1624.33,-213.89 1618.61,-217.92"/>
</g>
<!-- Node124&#45;&gt;Node21 -->
<g id="edge59" class="edge">
<title>Node124&#45;&gt;Node21</title>
<path fill="none" stroke="midnightblue" d="M1469.06,-270.01C1468.94,-236.73 1471.59,-166.27 1493.5,-112 1499.16,-97.99 1510.17,-84.34 1517.92,-75.82"/>
<polygon fill="midnightblue" stroke="midnightblue" points="1465.56,-270.19 1469.19,-280.14 1472.56,-270.09 1465.56,-270.19"/>
</g>
<!-- Node124&#45;&gt;Node111 -->
<g id="edge58" class="edge">
<title>Node124&#45;&gt;Node111</title>
<path fill="none" stroke="midnightblue" d="M1476.11,-270.39C1488.84,-234.59 1516.29,-157.34 1525.45,-131.57"/>
<polygon fill="midnightblue" stroke="midnightblue" points="1472.72,-269.48 1472.67,-280.08 1479.32,-271.82 1472.72,-269.48"/>
</g>
<!-- Node124&#45;&gt;Node125 -->
<g id="edge56" class="edge">
<title>Node124&#45;&gt;Node125</title>
<path fill="none" stroke="midnightblue" d="M1448.47,-274.62C1434.03,-264.76 1415.36,-251.99 1403.16,-243.65"/>
<polygon fill="midnightblue" stroke="midnightblue" points="1446.58,-277.57 1456.81,-280.32 1450.53,-271.79 1446.58,-277.57"/>
</g>
<!-- Node125&#45;&gt;Node110 -->
<g id="edge57" class="edge">
<title>Node125&#45;&gt;Node110</title>
<path fill="none" stroke="midnightblue" d="M1390.5,-213.8C1390.5,-204.91 1390.5,-194.78 1390.5,-187.75"/>
<polygon fill="midnightblue" stroke="midnightblue" points="1387,-214.08 1390.5,-224.08 1394,-214.08 1387,-214.08"/>
</g>
<!-- Node156&#45;&gt;Node21 -->
<g id="edge61" class="edge">
<title>Node156&#45;&gt;Node21</title>
<path fill="none" stroke="midnightblue" d="M1640.58,-108.91C1612.94,-98.75 1574.16,-84.51 1549.68,-75.52"/>
<polygon fill="midnightblue" stroke="midnightblue" points="1639.61,-112.28 1650.21,-112.44 1642.03,-105.71 1639.61,-112.28"/>
</g>
<!-- Node120&#45;&gt;Node21 -->
<g id="edge63" class="edge">
<title>Node120&#45;&gt;Node21</title>
<path fill="none" stroke="midnightblue" d="M2287.02,-171.7C2149.79,-152.81 1685.89,-88.94 1558.88,-71.46"/>
<polygon fill="midnightblue" stroke="midnightblue" points="2286.68,-175.19 2297.06,-173.09 2287.63,-168.25 2286.68,-175.19"/>
</g>
</g>
</svg>
