<?xml version="1.0" encoding="UTF-8" standalone="no"?>
<!DOCTYPE svg PUBLIC "-//W3C//DTD SVG 1.1//EN"
 "http://www.w3.org/Graphics/SVG/1.1/DTD/svg11.dtd">
<!-- Generated by graphviz version 2.43.0 (0)
 -->
<!-- Title: event.h Pages: 1 -->
<svg width="440pt" height="700pt"
 viewBox="0.00 0.00 439.50 700.00" xmlns="http://www.w3.org/2000/svg" xmlns:xlink="http://www.w3.org/1999/xlink">
<g id="graph0" class="graph" transform="scale(1 1) rotate(0) translate(4 696)">
<title>event.h</title>
<polygon fill="white" stroke="transparent" points="-4,4 -4,-696 435.5,-696 435.5,4 -4,4"/>
<!-- Node1 -->
<g id="node1" class="node">
<title>Node1</title>
<g id="a_node1"><a xlink:title=" ">
<polygon fill="#bfbfbf" stroke="black" points="307.5,-672.5 307.5,-691.5 360.5,-691.5 360.5,-672.5 307.5,-672.5"/>
<text text-anchor="middle" x="334" y="-679.5" font-family="Helvetica,sans-Serif" font-size="10.00">event.h</text>
</a>
</g>
</g>
<!-- Node2 -->
<g id="node2" class="node">
<title>Node2</title>
<g id="a_node2"><a xlink:href="api_2spec_2queue_8h.html" target="_top" xlink:title=" ">
<polygon fill="white" stroke="black" points="250,-616.5 250,-635.5 306,-635.5 306,-616.5 250,-616.5"/>
<text text-anchor="middle" x="278" y="-623.5" font-family="Helvetica,sans-Serif" font-size="10.00">queue.h</text>
</a>
</g>
</g>
<!-- Node1&#45;&gt;Node2 -->
<g id="edge1" class="edge">
<title>Node1&#45;&gt;Node2</title>
<path fill="none" stroke="midnightblue" d="M317.67,-665.25C307.74,-655.67 295.41,-643.79 287.16,-635.83"/>
<polygon fill="midnightblue" stroke="midnightblue" points="315.37,-667.9 325,-672.32 320.23,-662.86 315.37,-667.9"/>
</g>
<!-- Node12 -->
<g id="node12" class="node">
<title>Node12</title>
<g id="a_node12"><a xlink:href="odp__api_8h.html" target="_top" xlink:title=" ">
<polygon fill="white" stroke="black" points="226,-56.5 226,-75.5 290,-75.5 290,-56.5 226,-56.5"/>
<text text-anchor="middle" x="258" y="-63.5" font-family="Helvetica,sans-Serif" font-size="10.00">odp_api.h</text>
</a>
</g>
</g>
<!-- Node1&#45;&gt;Node12 -->
<g id="edge24" class="edge">
<title>Node1&#45;&gt;Node12</title>
<path fill="none" stroke="midnightblue" d="M334,-662.25C334,-640.36 334,-603.05 334,-571 334,-571 334,-571 334,-177 334,-132.2 290.8,-92.43 269.54,-75.57"/>
<polygon fill="midnightblue" stroke="midnightblue" points="330.5,-662.44 334,-672.44 337.5,-662.44 330.5,-662.44"/>
</g>
<!-- Node16 -->
<g id="node16" class="node">
<title>Node16</title>
<g id="a_node16"><a xlink:href="api_2spec_2schedule_8h.html" target="_top" xlink:title=" ">
<polygon fill="white" stroke="black" points="362.5,-616.5 362.5,-635.5 431.5,-635.5 431.5,-616.5 362.5,-616.5"/>
<text text-anchor="middle" x="397" y="-623.5" font-family="Helvetica,sans-Serif" font-size="10.00">schedule.h</text>
</a>
</g>
</g>
<!-- Node1&#45;&gt;Node16 -->
<g id="edge21" class="edge">
<title>Node1&#45;&gt;Node16</title>
<path fill="none" stroke="midnightblue" d="M352.04,-665.54C363.27,-655.91 377.32,-643.87 386.69,-635.83"/>
<polygon fill="midnightblue" stroke="midnightblue" points="349.44,-663.16 344.12,-672.32 353.99,-668.47 349.44,-663.16"/>
</g>
<!-- Node3 -->
<g id="node3" class="node">
<title>Node3</title>
<g id="a_node3"><a xlink:href="api_2queue_8h.html" target="_top" xlink:title=" ">
<polygon fill="white" stroke="black" points="250,-560.5 250,-579.5 306,-579.5 306,-560.5 250,-560.5"/>
<text text-anchor="middle" x="278" y="-567.5" font-family="Helvetica,sans-Serif" font-size="10.00">queue.h</text>
</a>
</g>
</g>
<!-- Node2&#45;&gt;Node3 -->
<g id="edge2" class="edge">
<title>Node2&#45;&gt;Node3</title>
<path fill="none" stroke="midnightblue" d="M278,-605.8C278,-596.91 278,-586.78 278,-579.75"/>
<polygon fill="midnightblue" stroke="midnightblue" points="274.5,-606.08 278,-616.08 281.5,-606.08 274.5,-606.08"/>
</g>
<!-- Node4 -->
<g id="node4" class="node">
<title>Node4</title>
<g id="a_node4"><a xlink:href="spec_2packet__io__stats_8h.html" target="_top" xlink:title=" ">
<polygon fill="white" stroke="black" points="166.5,-504.5 166.5,-523.5 267.5,-523.5 267.5,-504.5 166.5,-504.5"/>
<text text-anchor="middle" x="217" y="-511.5" font-family="Helvetica,sans-Serif" font-size="10.00">packet_io_stats.h</text>
</a>
</g>
</g>
<!-- Node3&#45;&gt;Node4 -->
<g id="edge3" class="edge">
<title>Node3&#45;&gt;Node4</title>
<path fill="none" stroke="midnightblue" d="M260.53,-553.54C249.66,-543.91 236.06,-531.87 226.98,-523.83"/>
<polygon fill="midnightblue" stroke="midnightblue" points="258.39,-556.32 268.2,-560.32 263.03,-551.07 258.39,-556.32"/>
</g>
<!-- Node3&#45;&gt;Node12 -->
<g id="edge20" class="edge">
<title>Node3&#45;&gt;Node12</title>
<path fill="none" stroke="midnightblue" d="M282.94,-550.37C288.27,-528.62 296,-491.46 296,-459 296,-459 296,-459 296,-177 296,-137.4 273.73,-93.96 263.28,-75.77"/>
<polygon fill="midnightblue" stroke="midnightblue" points="279.51,-549.68 280.43,-560.24 286.29,-551.41 279.51,-549.68"/>
</g>
<!-- Node5 -->
<g id="node5" class="node">
<title>Node5</title>
<g id="a_node5"><a xlink:href="packet__io__stats_8h.html" target="_top" xlink:title=" ">
<polygon fill="white" stroke="black" points="158.5,-448.5 158.5,-467.5 259.5,-467.5 259.5,-448.5 158.5,-448.5"/>
<text text-anchor="middle" x="209" y="-455.5" font-family="Helvetica,sans-Serif" font-size="10.00">packet_io_stats.h</text>
</a>
</g>
</g>
<!-- Node4&#45;&gt;Node5 -->
<g id="edge4" class="edge">
<title>Node4&#45;&gt;Node5</title>
<path fill="none" stroke="midnightblue" d="M214.2,-494.1C212.87,-485.14 211.35,-474.86 210.3,-467.75"/>
<polygon fill="midnightblue" stroke="midnightblue" points="210.75,-494.7 215.68,-504.08 217.68,-493.68 210.75,-494.7"/>
</g>
<!-- Node6 -->
<g id="node6" class="node">
<title>Node6</title>
<g id="a_node6"><a xlink:href="api_2spec_2packet__io_8h.html" target="_top" xlink:title=" ">
<polygon fill="white" stroke="black" points="157,-392.5 157,-411.5 229,-411.5 229,-392.5 157,-392.5"/>
<text text-anchor="middle" x="193" y="-399.5" font-family="Helvetica,sans-Serif" font-size="10.00">packet_io.h</text>
</a>
</g>
</g>
<!-- Node5&#45;&gt;Node6 -->
<g id="edge5" class="edge">
<title>Node5&#45;&gt;Node6</title>
<path fill="none" stroke="midnightblue" d="M203.49,-438.4C200.81,-429.36 197.72,-418.94 195.59,-411.75"/>
<polygon fill="midnightblue" stroke="midnightblue" points="200.16,-439.49 206.36,-448.08 206.87,-437.5 200.16,-439.49"/>
</g>
<!-- Node7 -->
<g id="node7" class="node">
<title>Node7</title>
<g id="a_node7"><a xlink:href="api_2packet__io_8h.html" target="_top" xlink:title=" ">
<polygon fill="white" stroke="black" points="149,-336.5 149,-355.5 221,-355.5 221,-336.5 149,-336.5"/>
<text text-anchor="middle" x="185" y="-343.5" font-family="Helvetica,sans-Serif" font-size="10.00">packet_io.h</text>
</a>
</g>
</g>
<!-- Node6&#45;&gt;Node7 -->
<g id="edge6" class="edge">
<title>Node6&#45;&gt;Node7</title>
<path fill="none" stroke="midnightblue" d="M190.2,-382.1C188.87,-373.14 187.35,-362.86 186.3,-355.75"/>
<polygon fill="midnightblue" stroke="midnightblue" points="186.75,-382.7 191.68,-392.08 193.68,-381.68 186.75,-382.7"/>
</g>
<!-- Node8 -->
<g id="node8" class="node">
<title>Node8</title>
<g id="a_node8"><a xlink:href="api_2spec_2classification_8h.html" target="_top" xlink:title=" ">
<polygon fill="white" stroke="black" points="140.5,-280.5 140.5,-299.5 229.5,-299.5 229.5,-280.5 140.5,-280.5"/>
<text text-anchor="middle" x="185" y="-287.5" font-family="Helvetica,sans-Serif" font-size="10.00">classification.h</text>
</a>
</g>
</g>
<!-- Node7&#45;&gt;Node8 -->
<g id="edge7" class="edge">
<title>Node7&#45;&gt;Node8</title>
<path fill="none" stroke="midnightblue" d="M185,-325.8C185,-316.91 185,-306.78 185,-299.75"/>
<polygon fill="midnightblue" stroke="midnightblue" points="181.5,-326.08 185,-336.08 188.5,-326.08 181.5,-326.08"/>
</g>
<!-- Node10 -->
<g id="node10" class="node">
<title>Node10</title>
<g id="a_node10"><a xlink:href="api_2spec_2ipsec_8h.html" target="_top" xlink:title=" ">
<polygon fill="white" stroke="black" points="106.5,-168.5 106.5,-187.5 157.5,-187.5 157.5,-168.5 106.5,-168.5"/>
<text text-anchor="middle" x="132" y="-175.5" font-family="Helvetica,sans-Serif" font-size="10.00">ipsec.h</text>
</a>
</g>
</g>
<!-- Node7&#45;&gt;Node10 -->
<g id="edge14" class="edge">
<title>Node7&#45;&gt;Node10</title>
<path fill="none" stroke="midnightblue" d="M160.28,-330.9C149.47,-323.28 137.92,-312.79 132,-300 114.18,-261.49 124.48,-208.42 129.62,-187.74"/>
<polygon fill="midnightblue" stroke="midnightblue" points="158.38,-333.84 168.67,-336.39 162.21,-327.98 158.38,-333.84"/>
</g>
<!-- Node7&#45;&gt;Node12 -->
<g id="edge19" class="edge">
<title>Node7&#45;&gt;Node12</title>
<path fill="none" stroke="midnightblue" d="M207.75,-330.75C218.62,-322.89 230.98,-312.24 239,-300 255.5,-274.83 258,-265.1 258,-235 258,-235 258,-235 258,-177 258,-139.19 258,-94.06 258,-75.56"/>
<polygon fill="midnightblue" stroke="midnightblue" points="205.73,-327.89 199.46,-336.44 209.69,-333.67 205.73,-327.89"/>
</g>
<!-- Node14 -->
<g id="node14" class="node">
<title>Node14</title>
<g id="a_node14"><a xlink:href="api_2spec_2traffic__mngr_8h.html" target="_top" xlink:title=" ">
<polygon fill="white" stroke="black" points="0,-280.5 0,-299.5 84,-299.5 84,-280.5 0,-280.5"/>
<text text-anchor="middle" x="42" y="-287.5" font-family="Helvetica,sans-Serif" font-size="10.00">traffic_mngr.h</text>
</a>
</g>
</g>
<!-- Node7&#45;&gt;Node14 -->
<g id="edge15" class="edge">
<title>Node7&#45;&gt;Node14</title>
<path fill="none" stroke="midnightblue" d="M152.97,-332.91C126.09,-322.75 88.36,-308.51 64.55,-299.52"/>
<polygon fill="midnightblue" stroke="midnightblue" points="151.75,-336.19 162.34,-336.44 154.22,-329.64 151.75,-336.19"/>
</g>
<!-- Node9 -->
<g id="node9" class="node">
<title>Node9</title>
<g id="a_node9"><a xlink:href="api_2classification_8h.html" target="_top" xlink:title=" ">
<polygon fill="white" stroke="black" points="140.5,-224.5 140.5,-243.5 229.5,-243.5 229.5,-224.5 140.5,-224.5"/>
<text text-anchor="middle" x="185" y="-231.5" font-family="Helvetica,sans-Serif" font-size="10.00">classification.h</text>
</a>
</g>
</g>
<!-- Node8&#45;&gt;Node9 -->
<g id="edge8" class="edge">
<title>Node8&#45;&gt;Node9</title>
<path fill="none" stroke="midnightblue" d="M185,-269.8C185,-260.91 185,-250.78 185,-243.75"/>
<polygon fill="midnightblue" stroke="midnightblue" points="181.5,-270.08 185,-280.08 188.5,-270.08 181.5,-270.08"/>
</g>
<!-- Node9&#45;&gt;Node10 -->
<g id="edge9" class="edge">
<title>Node9&#45;&gt;Node10</title>
<path fill="none" stroke="midnightblue" d="M169.02,-216.72C159.68,-207.2 148.25,-195.56 140.59,-187.75"/>
<polygon fill="midnightblue" stroke="midnightblue" points="166.75,-219.4 176.25,-224.08 171.74,-214.49 166.75,-219.4"/>
</g>
<!-- Node9&#45;&gt;Node12 -->
<g id="edge13" class="edge">
<title>Node9&#45;&gt;Node12</title>
<path fill="none" stroke="midnightblue" d="M192.98,-214.86C208.64,-179.25 242.85,-101.45 254.23,-75.57"/>
<polygon fill="midnightblue" stroke="midnightblue" points="189.75,-213.51 188.92,-224.08 196.15,-216.33 189.75,-213.51"/>
</g>
<!-- Node11 -->
<g id="node11" class="node">
<title>Node11</title>
<g id="a_node11"><a xlink:href="api_2ipsec_8h.html" target="_top" xlink:title=" ">
<polygon fill="white" stroke="black" points="120.5,-112.5 120.5,-131.5 171.5,-131.5 171.5,-112.5 120.5,-112.5"/>
<text text-anchor="middle" x="146" y="-119.5" font-family="Helvetica,sans-Serif" font-size="10.00">ipsec.h</text>
</a>
</g>
</g>
<!-- Node10&#45;&gt;Node11 -->
<g id="edge10" class="edge">
<title>Node10&#45;&gt;Node11</title>
<path fill="none" stroke="midnightblue" d="M136.82,-158.4C139.17,-149.36 141.87,-138.94 143.73,-131.75"/>
<polygon fill="midnightblue" stroke="midnightblue" points="133.43,-157.52 134.31,-168.08 140.21,-159.28 133.43,-157.52"/>
</g>
<!-- Node11&#45;&gt;Node12 -->
<g id="edge11" class="edge">
<title>Node11&#45;&gt;Node12</title>
<path fill="none" stroke="midnightblue" d="M173.25,-107.86C194.02,-97.85 222.02,-84.35 240.05,-75.65"/>
<polygon fill="midnightblue" stroke="midnightblue" points="171.48,-104.83 163.99,-112.32 174.52,-111.13 171.48,-104.83"/>
</g>
<!-- Node13 -->
<g id="node13" class="node">
<title>Node13</title>
<g id="a_node13"><a xlink:href="odp_8h.html" target="_top" xlink:title=" ">
<polygon fill="white" stroke="black" points="236,-0.5 236,-19.5 280,-19.5 280,-0.5 236,-0.5"/>
<text text-anchor="middle" x="258" y="-7.5" font-family="Helvetica,sans-Serif" font-size="10.00">odp.h</text>
</a>
</g>
</g>
<!-- Node12&#45;&gt;Node13 -->
<g id="edge12" class="edge">
<title>Node12&#45;&gt;Node13</title>
<path fill="none" stroke="midnightblue" d="M258,-45.8C258,-36.91 258,-26.78 258,-19.75"/>
<polygon fill="midnightblue" stroke="midnightblue" points="254.5,-46.08 258,-56.08 261.5,-46.08 254.5,-46.08"/>
</g>
<!-- Node15 -->
<g id="node15" class="node">
<title>Node15</title>
<g id="a_node15"><a xlink:href="api_2traffic__mngr_8h.html" target="_top" xlink:title=" ">
<polygon fill="white" stroke="black" points="0,-224.5 0,-243.5 84,-243.5 84,-224.5 0,-224.5"/>
<text text-anchor="middle" x="42" y="-231.5" font-family="Helvetica,sans-Serif" font-size="10.00">traffic_mngr.h</text>
</a>
</g>
</g>
<!-- Node14&#45;&gt;Node15 -->
<g id="edge16" class="edge">
<title>Node14&#45;&gt;Node15</title>
<path fill="none" stroke="midnightblue" d="M42,-269.8C42,-260.91 42,-250.78 42,-243.75"/>
<polygon fill="midnightblue" stroke="midnightblue" points="38.5,-270.08 42,-280.08 45.5,-270.08 38.5,-270.08"/>
</g>
<!-- Node15&#45;&gt;Node10 -->
<g id="edge17" class="edge">
<title>Node15&#45;&gt;Node10</title>
<path fill="none" stroke="midnightblue" d="M65.04,-219.18C81.6,-209.24 103.42,-196.15 117.58,-187.65"/>
<polygon fill="midnightblue" stroke="midnightblue" points="63.23,-216.18 56.46,-224.32 66.84,-222.18 63.23,-216.18"/>
</g>
<!-- Node15&#45;&gt;Node12 -->
<g id="edge18" class="edge">
<title>Node15&#45;&gt;Node12</title>
<path fill="none" stroke="midnightblue" d="M47.78,-214.61C57.07,-188.08 77.8,-139.24 112,-112 145.19,-85.56 193.93,-74.59 225.81,-70.08"/>
<polygon fill="midnightblue" stroke="midnightblue" points="44.43,-213.6 44.59,-224.2 51.07,-215.81 44.43,-213.6"/>
</g>
<!-- Node17 -->
<g id="node17" class="node">
<title>Node17</title>
<g id="a_node17"><a xlink:href="api_2schedule_8h.html" target="_top" xlink:title=" ">
<polygon fill="white" stroke="black" points="362.5,-504.5 362.5,-523.5 431.5,-523.5 431.5,-504.5 362.5,-504.5"/>
<text text-anchor="middle" x="397" y="-511.5" font-family="Helvetica,sans-Serif" font-size="10.00">schedule.h</text>
</a>
</g>
</g>
<!-- Node16&#45;&gt;Node17 -->
<g id="edge22" class="edge">
<title>Node16&#45;&gt;Node17</title>
<path fill="none" stroke="midnightblue" d="M397,-606.35C397,-582.25 397,-541.31 397,-523.59"/>
<polygon fill="midnightblue" stroke="midnightblue" points="393.5,-606.37 397,-616.37 400.5,-606.37 393.5,-606.37"/>
</g>
<!-- Node17&#45;&gt;Node12 -->
<g id="edge23" class="edge">
<title>Node17&#45;&gt;Node12</title>
<path fill="none" stroke="midnightblue" d="M393.49,-494.63C389.64,-472.85 384,-435.42 384,-403 384,-403 384,-403 384,-177 384,-143.98 371.84,-134.85 348,-112 330.09,-94.83 304.36,-82.86 284.99,-75.61"/>
<polygon fill="midnightblue" stroke="midnightblue" points="390.05,-495.28 395.3,-504.48 396.93,-494.01 390.05,-495.28"/>
</g>
</g>
</svg>
