<?xml version="1.0" encoding="UTF-8" standalone="no"?>
<!DOCTYPE svg PUBLIC "-//W3C//DTD SVG 1.1//EN"
 "http://www.w3.org/Graphics/SVG/1.1/DTD/svg11.dtd">
<!-- Generated by graphviz version 2.43.0 (0)
 -->
<!-- Title: traffic_mngr.h Pages: 1 -->
<svg width="704pt" height="364pt"
 viewBox="0.00 0.00 704.00 364.00" xmlns="http://www.w3.org/2000/svg" xmlns:xlink="http://www.w3.org/1999/xlink">
<g id="graph0" class="graph" transform="scale(1 1) rotate(0) translate(4 360)">
<title>traffic_mngr.h</title>
<polygon fill="white" stroke="transparent" points="-4,4 -4,-360 700,-360 700,4 -4,4"/>
<!-- Node1 -->
<g id="node1" class="node">
<title>Node1</title>
<g id="a_node1"><a xlink:title=" ">
<polygon fill="#bfbfbf" stroke="black" points="306,-336.5 306,-355.5 390,-355.5 390,-336.5 306,-336.5"/>
<text text-anchor="middle" x="348" y="-343.5" font-family="Helvetica,sans-Serif" font-size="10.00">traffic_mngr.h</text>
</a>
</g>
</g>
<!-- Node2 -->
<g id="node2" class="node">
<title>Node2</title>
<g id="a_node2"><a xlink:href="arch_2arm32-linux_2odp_2api_2abi_2traffic__mngr_8h_source.html" target="_top" xlink:title=" ">
<polygon fill="white" stroke="black" points="0,-280.5 0,-299.5 84,-299.5 84,-280.5 0,-280.5"/>
<text text-anchor="middle" x="42" y="-287.5" font-family="Helvetica,sans-Serif" font-size="10.00">traffic_mngr.h</text>
</a>
</g>
</g>
<!-- Node1&#45;&gt;Node2 -->
<g id="edge1" class="edge">
<title>Node1&#45;&gt;Node2</title>
<path fill="none" stroke="midnightblue" d="M295.8,-335.79C236.09,-325.25 139.49,-308.2 84.28,-298.46"/>
<polygon fill="midnightblue" stroke="midnightblue" points="295.32,-339.26 305.77,-337.55 296.53,-332.36 295.32,-339.26"/>
</g>
<!-- Node3 -->
<g id="node3" class="node">
<title>Node3</title>
<g id="a_node3"><a xlink:href="arch_2arm64-linux_2odp_2api_2abi_2traffic__mngr_8h_source.html" target="_top" xlink:title=" ">
<polygon fill="white" stroke="black" points="102,-280.5 102,-299.5 186,-299.5 186,-280.5 102,-280.5"/>
<text text-anchor="middle" x="144" y="-287.5" font-family="Helvetica,sans-Serif" font-size="10.00">traffic_mngr.h</text>
</a>
</g>
</g>
<!-- Node1&#45;&gt;Node3 -->
<g id="edge2" class="edge">
<title>Node1&#45;&gt;Node3</title>
<path fill="none" stroke="midnightblue" d="M305.8,-333.83C267.28,-323.63 211.18,-308.78 176.17,-299.52"/>
<polygon fill="midnightblue" stroke="midnightblue" points="305.11,-337.27 315.68,-336.44 306.9,-330.5 305.11,-337.27"/>
</g>
<!-- Node4 -->
<g id="node4" class="node">
<title>Node4</title>
<g id="a_node4"><a xlink:href="arch_2default-linux_2odp_2api_2abi_2traffic__mngr_8h_source.html" target="_top" xlink:title=" ">
<polygon fill="white" stroke="black" points="204,-280.5 204,-299.5 288,-299.5 288,-280.5 204,-280.5"/>
<text text-anchor="middle" x="246" y="-287.5" font-family="Helvetica,sans-Serif" font-size="10.00">traffic_mngr.h</text>
</a>
</g>
</g>
<!-- Node1&#45;&gt;Node4 -->
<g id="edge3" class="edge">
<title>Node1&#45;&gt;Node4</title>
<path fill="none" stroke="midnightblue" d="M322.67,-331.59C303.81,-321.61 278.62,-308.27 262.35,-299.65"/>
<polygon fill="midnightblue" stroke="midnightblue" points="321.14,-334.74 331.61,-336.32 324.41,-328.55 321.14,-334.74"/>
</g>
<!-- Node5 -->
<g id="node5" class="node">
<title>Node5</title>
<g id="a_node5"><a xlink:href="arch_2mips64-linux_2odp_2api_2abi_2traffic__mngr_8h_source.html" target="_top" xlink:title=" ">
<polygon fill="white" stroke="black" points="306,-280.5 306,-299.5 390,-299.5 390,-280.5 306,-280.5"/>
<text text-anchor="middle" x="348" y="-287.5" font-family="Helvetica,sans-Serif" font-size="10.00">traffic_mngr.h</text>
</a>
</g>
</g>
<!-- Node1&#45;&gt;Node5 -->
<g id="edge4" class="edge">
<title>Node1&#45;&gt;Node5</title>
<path fill="none" stroke="midnightblue" d="M348,-325.8C348,-316.91 348,-306.78 348,-299.75"/>
<polygon fill="midnightblue" stroke="midnightblue" points="344.5,-326.08 348,-336.08 351.5,-326.08 344.5,-326.08"/>
</g>
<!-- Node6 -->
<g id="node6" class="node">
<title>Node6</title>
<g id="a_node6"><a xlink:href="arch_2power64-linux_2odp_2api_2abi_2traffic__mngr_8h_source.html" target="_top" xlink:title=" ">
<polygon fill="white" stroke="black" points="408,-280.5 408,-299.5 492,-299.5 492,-280.5 408,-280.5"/>
<text text-anchor="middle" x="450" y="-287.5" font-family="Helvetica,sans-Serif" font-size="10.00">traffic_mngr.h</text>
</a>
</g>
</g>
<!-- Node1&#45;&gt;Node6 -->
<g id="edge5" class="edge">
<title>Node1&#45;&gt;Node6</title>
<path fill="none" stroke="midnightblue" d="M373.33,-331.59C392.19,-321.61 417.38,-308.27 433.65,-299.65"/>
<polygon fill="midnightblue" stroke="midnightblue" points="371.59,-328.55 364.39,-336.32 374.86,-334.74 371.59,-328.55"/>
</g>
<!-- Node7 -->
<g id="node7" class="node">
<title>Node7</title>
<g id="a_node7"><a xlink:href="arch_2x86__32-linux_2odp_2api_2abi_2traffic__mngr_8h_source.html" target="_top" xlink:title=" ">
<polygon fill="white" stroke="black" points="510,-280.5 510,-299.5 594,-299.5 594,-280.5 510,-280.5"/>
<text text-anchor="middle" x="552" y="-287.5" font-family="Helvetica,sans-Serif" font-size="10.00">traffic_mngr.h</text>
</a>
</g>
</g>
<!-- Node1&#45;&gt;Node7 -->
<g id="edge6" class="edge">
<title>Node1&#45;&gt;Node7</title>
<path fill="none" stroke="midnightblue" d="M390.2,-333.83C428.72,-323.63 484.82,-308.78 519.83,-299.52"/>
<polygon fill="midnightblue" stroke="midnightblue" points="389.1,-330.5 380.32,-336.44 390.89,-337.27 389.1,-330.5"/>
</g>
<!-- Node8 -->
<g id="node8" class="node">
<title>Node8</title>
<g id="a_node8"><a xlink:href="arch_2x86__64-linux_2odp_2api_2abi_2traffic__mngr_8h_source.html" target="_top" xlink:title=" ">
<polygon fill="white" stroke="black" points="612,-280.5 612,-299.5 696,-299.5 696,-280.5 612,-280.5"/>
<text text-anchor="middle" x="654" y="-287.5" font-family="Helvetica,sans-Serif" font-size="10.00">traffic_mngr.h</text>
</a>
</g>
</g>
<!-- Node1&#45;&gt;Node8 -->
<g id="edge7" class="edge">
<title>Node1&#45;&gt;Node8</title>
<path fill="none" stroke="midnightblue" d="M400.2,-335.79C459.91,-325.25 556.51,-308.2 611.72,-298.46"/>
<polygon fill="midnightblue" stroke="midnightblue" points="399.47,-332.36 390.23,-337.55 400.68,-339.26 399.47,-332.36"/>
</g>
<!-- Node9 -->
<g id="node9" class="node">
<title>Node9</title>
<g id="a_node9"><a xlink:href="api_2traffic__mngr_8h.html" target="_top" xlink:title=" ">
<polygon fill="white" stroke="black" points="612,-224.5 612,-243.5 696,-243.5 696,-224.5 612,-224.5"/>
<text text-anchor="middle" x="654" y="-231.5" font-family="Helvetica,sans-Serif" font-size="10.00">traffic_mngr.h</text>
</a>
</g>
</g>
<!-- Node8&#45;&gt;Node9 -->
<g id="edge8" class="edge">
<title>Node8&#45;&gt;Node9</title>
<path fill="none" stroke="midnightblue" d="M654,-269.8C654,-260.91 654,-250.78 654,-243.75"/>
<polygon fill="midnightblue" stroke="midnightblue" points="650.5,-270.08 654,-280.08 657.5,-270.08 650.5,-270.08"/>
</g>
<!-- Node10 -->
<g id="node10" class="node">
<title>Node10</title>
<g id="a_node10"><a xlink:href="api_2spec_2ipsec_8h.html" target="_top" xlink:title=" ">
<polygon fill="white" stroke="black" points="601.5,-168.5 601.5,-187.5 652.5,-187.5 652.5,-168.5 601.5,-168.5"/>
<text text-anchor="middle" x="627" y="-175.5" font-family="Helvetica,sans-Serif" font-size="10.00">ipsec.h</text>
</a>
</g>
</g>
<!-- Node9&#45;&gt;Node10 -->
<g id="edge9" class="edge">
<title>Node9&#45;&gt;Node10</title>
<path fill="none" stroke="midnightblue" d="M644.99,-214.98C640.41,-205.82 635.05,-195.09 631.38,-187.75"/>
<polygon fill="midnightblue" stroke="midnightblue" points="641.94,-216.7 649.54,-224.08 648.2,-213.57 641.94,-216.7"/>
</g>
<!-- Node12 -->
<g id="node12" class="node">
<title>Node12</title>
<g id="a_node12"><a xlink:href="odp__api_8h.html" target="_top" xlink:title=" ">
<polygon fill="white" stroke="black" points="622,-56.5 622,-75.5 686,-75.5 686,-56.5 622,-56.5"/>
<text text-anchor="middle" x="654" y="-63.5" font-family="Helvetica,sans-Serif" font-size="10.00">odp_api.h</text>
</a>
</g>
</g>
<!-- Node9&#45;&gt;Node12 -->
<g id="edge13" class="edge">
<title>Node9&#45;&gt;Node12</title>
<path fill="none" stroke="midnightblue" d="M658.03,-214.57C659.61,-206.46 661.22,-196.8 662,-188 664.97,-154.35 664.97,-145.65 662,-112 660.87,-99.2 657.97,-84.58 655.99,-75.57"/>
<polygon fill="midnightblue" stroke="midnightblue" points="654.59,-213.93 655.99,-224.43 661.44,-215.35 654.59,-213.93"/>
</g>
<!-- Node11 -->
<g id="node11" class="node">
<title>Node11</title>
<g id="a_node11"><a xlink:href="api_2ipsec_8h.html" target="_top" xlink:title=" ">
<polygon fill="white" stroke="black" points="601.5,-112.5 601.5,-131.5 652.5,-131.5 652.5,-112.5 601.5,-112.5"/>
<text text-anchor="middle" x="627" y="-119.5" font-family="Helvetica,sans-Serif" font-size="10.00">ipsec.h</text>
</a>
</g>
</g>
<!-- Node10&#45;&gt;Node11 -->
<g id="edge10" class="edge">
<title>Node10&#45;&gt;Node11</title>
<path fill="none" stroke="midnightblue" d="M627,-157.8C627,-148.91 627,-138.78 627,-131.75"/>
<polygon fill="midnightblue" stroke="midnightblue" points="623.5,-158.08 627,-168.08 630.5,-158.08 623.5,-158.08"/>
</g>
<!-- Node11&#45;&gt;Node12 -->
<g id="edge11" class="edge">
<title>Node11&#45;&gt;Node12</title>
<path fill="none" stroke="midnightblue" d="M636.01,-102.98C640.59,-93.82 645.95,-83.09 649.62,-75.75"/>
<polygon fill="midnightblue" stroke="midnightblue" points="632.8,-101.57 631.46,-112.08 639.06,-104.7 632.8,-101.57"/>
</g>
<!-- Node13 -->
<g id="node13" class="node">
<title>Node13</title>
<g id="a_node13"><a xlink:href="odp_8h.html" target="_top" xlink:title=" ">
<polygon fill="white" stroke="black" points="632,-0.5 632,-19.5 676,-19.5 676,-0.5 632,-0.5"/>
<text text-anchor="middle" x="654" y="-7.5" font-family="Helvetica,sans-Serif" font-size="10.00">odp.h</text>
</a>
</g>
</g>
<!-- Node12&#45;&gt;Node13 -->
<g id="edge12" class="edge">
<title>Node12&#45;&gt;Node13</title>
<path fill="none" stroke="midnightblue" d="M654,-45.8C654,-36.91 654,-26.78 654,-19.75"/>
<polygon fill="midnightblue" stroke="midnightblue" points="650.5,-46.08 654,-56.08 657.5,-46.08 650.5,-46.08"/>
</g>
</g>
</svg>
