<?xml version="1.0" encoding="UTF-8" standalone="no"?>
<!DOCTYPE svg PUBLIC "-//W3C//DTD SVG 1.1//EN"
 "http://www.w3.org/Graphics/SVG/1.1/DTD/svg11.dtd">
<!-- Generated by graphviz version 2.43.0 (0)
 -->
<!-- Title: std_types.h Pages: 1 -->
<svg width="3055pt" height="308pt"
 viewBox="0.00 0.00 3055.00 308.00" xmlns="http://www.w3.org/2000/svg" xmlns:xlink="http://www.w3.org/1999/xlink">
<g id="graph0" class="graph" transform="scale(1 1) rotate(0) translate(4 304)">
<title>std_types.h</title>
<polygon fill="white" stroke="transparent" points="-4,4 -4,-304 3051,-304 3051,4 -4,4"/>
<!-- Node1 -->
<g id="node1" class="node">
<title>Node1</title>
<g id="a_node1"><a xlink:title=" ">
<polygon fill="#bfbfbf" stroke="black" points="1635,-280.5 1635,-299.5 1708,-299.5 1708,-280.5 1635,-280.5"/>
<text text-anchor="middle" x="1671.5" y="-287.5" font-family="Helvetica,sans-Serif" font-size="10.00">std_types.h</text>
</a>
</g>
</g>
<!-- Node2 -->
<g id="node2" class="node">
<title>Node2</title>
<g id="a_node2"><a xlink:href="api_2std__types_8h.html" target="_top" xlink:title=" ">
<polygon fill="white" stroke="black" points="1635,-224.5 1635,-243.5 1708,-243.5 1708,-224.5 1635,-224.5"/>
<text text-anchor="middle" x="1671.5" y="-231.5" font-family="Helvetica,sans-Serif" font-size="10.00">std_types.h</text>
</a>
</g>
</g>
<!-- Node1&#45;&gt;Node2 -->
<g id="edge1" class="edge">
<title>Node1&#45;&gt;Node2</title>
<path fill="none" stroke="midnightblue" d="M1671.5,-269.8C1671.5,-260.91 1671.5,-250.78 1671.5,-243.75"/>
<polygon fill="midnightblue" stroke="midnightblue" points="1668,-270.08 1671.5,-280.08 1675,-270.08 1668,-270.08"/>
</g>
<!-- Node3 -->
<g id="node3" class="node">
<title>Node3</title>
<g id="a_node3"><a xlink:href="api_2abi-default_2atomic_8h.html" target="_top" xlink:title=" ">
<polygon fill="white" stroke="red" points="192,-168.5 192,-187.5 251,-187.5 251,-168.5 192,-168.5"/>
<text text-anchor="middle" x="221.5" y="-175.5" font-family="Helvetica,sans-Serif" font-size="10.00">atomic.h</text>
</a>
</g>
</g>
<!-- Node2&#45;&gt;Node3 -->
<g id="edge2" class="edge">
<title>Node2&#45;&gt;Node3</title>
<path fill="none" stroke="midnightblue" d="M1624.56,-232.77C1411.28,-231.53 532.21,-224.27 259.5,-188 256.81,-187.64 254.04,-187.18 251.27,-186.65"/>
<polygon fill="midnightblue" stroke="midnightblue" points="1624.77,-236.27 1634.79,-232.83 1624.81,-229.27 1624.77,-236.27"/>
</g>
<!-- Node12 -->
<g id="node10" class="node">
<title>Node12</title>
<g id="a_node10"><a xlink:href="api_2abi-default_2barrier_8h.html" target="_top" xlink:title=" ">
<polygon fill="white" stroke="red" points="269,-168.5 269,-187.5 326,-187.5 326,-168.5 269,-168.5"/>
<text text-anchor="middle" x="297.5" y="-175.5" font-family="Helvetica,sans-Serif" font-size="10.00">barrier.h</text>
</a>
</g>
</g>
<!-- Node2&#45;&gt;Node12 -->
<g id="edge9" class="edge">
<title>Node2&#45;&gt;Node12</title>
<path fill="none" stroke="midnightblue" d="M1624.77,-232.67C1419,-231.04 592.54,-222.42 335.5,-188 332.41,-187.59 329.2,-187.03 326.02,-186.4"/>
<polygon fill="midnightblue" stroke="midnightblue" points="1624.91,-236.17 1634.93,-232.75 1624.96,-229.17 1624.91,-236.17"/>
</g>
<!-- Node50 -->
<g id="node11" class="node">
<title>Node50</title>
<g id="a_node11"><a xlink:href="api_2abi-default_2byteorder_8h.html" target="_top" xlink:title=" ">
<polygon fill="white" stroke="red" points="344.5,-168.5 344.5,-187.5 416.5,-187.5 416.5,-168.5 344.5,-168.5"/>
<text text-anchor="middle" x="380.5" y="-175.5" font-family="Helvetica,sans-Serif" font-size="10.00">byteorder.h</text>
</a>
</g>
</g>
<!-- Node2&#45;&gt;Node50 -->
<g id="edge10" class="edge">
<title>Node2&#45;&gt;Node50</title>
<path fill="none" stroke="midnightblue" d="M1624.76,-232.32C1427.77,-229.31 664.43,-216.02 425.5,-188 422.65,-187.67 419.71,-187.25 416.77,-186.78"/>
<polygon fill="midnightblue" stroke="midnightblue" points="1624.73,-235.82 1634.78,-232.47 1624.84,-228.82 1624.73,-235.82"/>
</g>
<!-- Node59 -->
<g id="node12" class="node">
<title>Node59</title>
<g id="a_node12"><a xlink:href="api_2abi-default_2cpumask_8h.html" target="_top" xlink:title=" ">
<polygon fill="white" stroke="red" points="434.5,-168.5 434.5,-187.5 504.5,-187.5 504.5,-168.5 434.5,-168.5"/>
<text text-anchor="middle" x="469.5" y="-175.5" font-family="Helvetica,sans-Serif" font-size="10.00">cpumask.h</text>
</a>
</g>
</g>
<!-- Node2&#45;&gt;Node59 -->
<g id="edge11" class="edge">
<title>Node2&#45;&gt;Node59</title>
<path fill="none" stroke="midnightblue" d="M1624.73,-232.2C1436.52,-228.83 734.16,-214.67 513.5,-188 510.71,-187.66 507.84,-187.24 504.96,-186.77"/>
<polygon fill="midnightblue" stroke="midnightblue" points="1624.78,-235.7 1634.84,-232.38 1624.91,-228.7 1624.78,-235.7"/>
</g>
<!-- Node83 -->
<g id="node13" class="node">
<title>Node83</title>
<g id="a_node13"><a xlink:href="api_2abi-default_2init_8h.html" target="_top" xlink:title=" ">
<polygon fill="white" stroke="red" points="523,-168.5 523,-187.5 564,-187.5 564,-168.5 523,-168.5"/>
<text text-anchor="middle" x="543.5" y="-175.5" font-family="Helvetica,sans-Serif" font-size="10.00">init.h</text>
</a>
</g>
</g>
<!-- Node2&#45;&gt;Node83 -->
<g id="edge12" class="edge">
<title>Node2&#45;&gt;Node83</title>
<path fill="none" stroke="midnightblue" d="M1624.95,-232.7C1442.97,-231.29 779.59,-223.74 572.5,-188 569.8,-187.53 567,-186.89 564.25,-186.15"/>
<polygon fill="midnightblue" stroke="midnightblue" points="1624.97,-236.2 1634.99,-232.78 1625.02,-229.2 1624.97,-236.2"/>
</g>
<!-- Node91 -->
<g id="node14" class="node">
<title>Node91</title>
<g id="a_node14"><a xlink:href="api_2abi-default_2ipsec_8h.html" target="_top" xlink:title=" ">
<polygon fill="white" stroke="red" points="582,-168.5 582,-187.5 633,-187.5 633,-168.5 582,-168.5"/>
<text text-anchor="middle" x="607.5" y="-175.5" font-family="Helvetica,sans-Serif" font-size="10.00">ipsec.h</text>
</a>
</g>
</g>
<!-- Node2&#45;&gt;Node91 -->
<g id="edge13" class="edge">
<title>Node2&#45;&gt;Node91</title>
<path fill="none" stroke="midnightblue" d="M1624.84,-232.25C1450.3,-229.24 835.98,-216.79 642.5,-188 639.52,-187.56 636.43,-186.96 633.37,-186.29"/>
<polygon fill="midnightblue" stroke="midnightblue" points="1624.92,-235.75 1634.98,-232.42 1625.04,-228.75 1624.92,-235.75"/>
</g>
<!-- Node100 -->
<g id="node15" class="node">
<title>Node100</title>
<g id="a_node15"><a xlink:href="api_2abi-default_2packet__io_8h.html" target="_top" xlink:title=" ">
<polygon fill="white" stroke="red" points="651.5,-168.5 651.5,-187.5 723.5,-187.5 723.5,-168.5 651.5,-168.5"/>
<text text-anchor="middle" x="687.5" y="-175.5" font-family="Helvetica,sans-Serif" font-size="10.00">packet_io.h</text>
</a>
</g>
</g>
<!-- Node2&#45;&gt;Node100 -->
<g id="edge14" class="edge">
<title>Node2&#45;&gt;Node100</title>
<path fill="none" stroke="midnightblue" d="M1624.45,-233.22C1486.72,-233.35 1072.71,-229.93 732.5,-188 729.65,-187.65 726.72,-187.22 723.77,-186.74"/>
<polygon fill="midnightblue" stroke="midnightblue" points="1624.65,-236.72 1634.64,-233.21 1624.64,-229.72 1624.65,-236.72"/>
</g>
<!-- Node32 -->
<g id="node16" class="node">
<title>Node32</title>
<g id="a_node16"><a xlink:href="api_2abi-default_2rwlock__recursive_8h.html" target="_top" xlink:title=" ">
<polygon fill="white" stroke="red" points="741.5,-168.5 741.5,-187.5 849.5,-187.5 849.5,-168.5 741.5,-168.5"/>
<text text-anchor="middle" x="795.5" y="-175.5" font-family="Helvetica,sans-Serif" font-size="10.00">rwlock_recursive.h</text>
</a>
</g>
</g>
<!-- Node2&#45;&gt;Node32 -->
<g id="edge15" class="edge">
<title>Node2&#45;&gt;Node32</title>
<path fill="none" stroke="midnightblue" d="M1624.62,-231.83C1499.77,-228.39 1148.97,-216.73 858.5,-188 855.64,-187.72 852.71,-187.4 849.76,-187.06"/>
<polygon fill="midnightblue" stroke="midnightblue" points="1624.86,-235.33 1634.95,-232.1 1625.05,-228.34 1624.86,-235.33"/>
</g>
<!-- Node128 -->
<g id="node17" class="node">
<title>Node128</title>
<g id="a_node17"><a xlink:href="api_2abi-default_2schedule_8h.html" target="_top" xlink:title=" ">
<polygon fill="white" stroke="red" points="868,-168.5 868,-187.5 937,-187.5 937,-168.5 868,-168.5"/>
<text text-anchor="middle" x="902.5" y="-175.5" font-family="Helvetica,sans-Serif" font-size="10.00">schedule.h</text>
</a>
</g>
</g>
<!-- Node2&#45;&gt;Node128 -->
<g id="edge16" class="edge">
<title>Node2&#45;&gt;Node128</title>
<path fill="none" stroke="midnightblue" d="M1624.46,-232.35C1508.67,-230.27 1200.78,-221.73 946.5,-188 943.41,-187.59 940.21,-187.09 937.01,-186.53"/>
<polygon fill="midnightblue" stroke="midnightblue" points="1624.68,-235.86 1634.74,-232.53 1624.8,-228.86 1624.68,-235.86"/>
</g>
<!-- Node136 -->
<g id="node18" class="node">
<title>Node136</title>
<g id="a_node18"><a xlink:href="api_2abi-default_2spinlock__recursive_8h.html" target="_top" xlink:title=" ">
<polygon fill="white" stroke="red" points="955.5,-168.5 955.5,-187.5 1071.5,-187.5 1071.5,-168.5 955.5,-168.5"/>
<text text-anchor="middle" x="1013.5" y="-175.5" font-family="Helvetica,sans-Serif" font-size="10.00">spinlock_recursive.h</text>
</a>
</g>
</g>
<!-- Node2&#45;&gt;Node136 -->
<g id="edge17" class="edge">
<title>Node2&#45;&gt;Node136</title>
<path fill="none" stroke="midnightblue" d="M1624.7,-230.35C1524.65,-224.5 1282.63,-209.25 1080.5,-188 1077.58,-187.69 1074.59,-187.36 1071.58,-187.01"/>
<polygon fill="midnightblue" stroke="midnightblue" points="1624.59,-233.85 1634.78,-230.94 1625,-226.87 1624.59,-233.85"/>
</g>
<!-- Node145 -->
<g id="node19" class="node">
<title>Node145</title>
<g id="a_node19"><a xlink:href="api_2abi-default_2traffic__mngr_8h.html" target="_top" xlink:title=" ">
<polygon fill="white" stroke="red" points="1089.5,-168.5 1089.5,-187.5 1173.5,-187.5 1173.5,-168.5 1089.5,-168.5"/>
<text text-anchor="middle" x="1131.5" y="-175.5" font-family="Helvetica,sans-Serif" font-size="10.00">traffic_mngr.h</text>
</a>
</g>
</g>
<!-- Node2&#45;&gt;Node145 -->
<g id="edge18" class="edge">
<title>Node2&#45;&gt;Node145</title>
<path fill="none" stroke="midnightblue" d="M1624.97,-229.71C1538.58,-223.37 1347.6,-208.28 1187.5,-188 1183.01,-187.43 1178.32,-186.78 1173.65,-186.08"/>
<polygon fill="midnightblue" stroke="midnightblue" points="1624.75,-233.2 1634.98,-230.44 1625.26,-226.22 1624.75,-233.2"/>
</g>
<!-- Node20 -->
<g id="node20" class="node">
<title>Node20</title>
<g id="a_node20"><a xlink:href="api_2barrier_8h.html" target="_top" xlink:title=" ">
<polygon fill="white" stroke="black" points="2079,-56.5 2079,-75.5 2136,-75.5 2136,-56.5 2079,-56.5"/>
<text text-anchor="middle" x="2107.5" y="-63.5" font-family="Helvetica,sans-Serif" font-size="10.00">barrier.h</text>
</a>
</g>
</g>
<!-- Node2&#45;&gt;Node20 -->
<g id="edge19" class="edge">
<title>Node2&#45;&gt;Node20</title>
<path fill="none" stroke="midnightblue" d="M1718.54,-231.89C1830.05,-228.78 2103.18,-218.13 2130.5,-188 2159.95,-155.53 2127.48,-97.47 2113.38,-75.63"/>
<polygon fill="midnightblue" stroke="midnightblue" points="1718.17,-228.4 1708.27,-232.17 1718.36,-235.4 1718.17,-228.4"/>
</g>
<!-- Node21 -->
<g id="node21" class="node">
<title>Node21</title>
<g id="a_node21"><a xlink:href="odp__api_8h.html" target="_top" xlink:title=" ">
<polygon fill="white" stroke="red" points="1761.5,-0.5 1761.5,-19.5 1825.5,-19.5 1825.5,-0.5 1761.5,-0.5"/>
<text text-anchor="middle" x="1793.5" y="-7.5" font-family="Helvetica,sans-Serif" font-size="10.00">odp_api.h</text>
</a>
</g>
</g>
<!-- Node2&#45;&gt;Node21 -->
<g id="edge71" class="edge">
<title>Node2&#45;&gt;Node21</title>
<path fill="none" stroke="midnightblue" d="M1718.39,-233.15C1943.36,-233.62 2903.06,-233 2946.5,-188 3109.83,-18.8 2027.82,-10.92 1825.65,-10.92"/>
<polygon fill="midnightblue" stroke="midnightblue" points="1718.25,-229.65 1708.24,-233.12 1718.23,-236.65 1718.25,-229.65"/>
</g>
<!-- Node153 -->
<g id="node22" class="node">
<title>Node153</title>
<g id="a_node22"><a xlink:href="api_2buffer_8h.html" target="_top" xlink:title=" ">
<polygon fill="white" stroke="black" points="2994,-56.5 2994,-75.5 3047,-75.5 3047,-56.5 2994,-56.5"/>
<text text-anchor="middle" x="3020.5" y="-63.5" font-family="Helvetica,sans-Serif" font-size="10.00">buffer.h</text>
</a>
</g>
</g>
<!-- Node2&#45;&gt;Node153 -->
<g id="edge21" class="edge">
<title>Node2&#45;&gt;Node153</title>
<path fill="none" stroke="midnightblue" d="M1718.57,-232.87C1946.64,-232.05 2927.95,-226.32 2979.5,-188 3016.35,-160.61 3020.41,-98.4 3020.62,-75.59"/>
<polygon fill="midnightblue" stroke="midnightblue" points="1718.27,-229.37 1708.29,-232.91 1718.3,-236.37 1718.27,-229.37"/>
</g>
<!-- Node108 -->
<g id="node23" class="node">
<title>Node108</title>
<g id="a_node23"><a xlink:href="api_2classification_8h.html" target="_top" xlink:title=" ">
<polygon fill="white" stroke="black" points="1116,-56.5 1116,-75.5 1205,-75.5 1205,-56.5 1116,-56.5"/>
<text text-anchor="middle" x="1160.5" y="-63.5" font-family="Helvetica,sans-Serif" font-size="10.00">classification.h</text>
</a>
</g>
</g>
<!-- Node2&#45;&gt;Node108 -->
<g id="edge23" class="edge">
<title>Node2&#45;&gt;Node108</title>
<path fill="none" stroke="midnightblue" d="M1624.75,-233.63C1546.26,-233.44 1383.79,-227.71 1253.5,-188 1235.24,-182.44 1233.07,-175.46 1215.5,-168 1168.54,-148.05 1136.39,-173.35 1106.5,-132 1091.2,-110.84 1123.28,-87.68 1144.25,-75.53"/>
<polygon fill="midnightblue" stroke="midnightblue" points="1624.8,-237.13 1634.8,-233.62 1624.8,-230.13 1624.8,-237.13"/>
</g>
<!-- Node109 -->
<g id="node24" class="node">
<title>Node109</title>
<g id="a_node24"><a xlink:href="api_2spec_2ipsec_8h.html" target="_top" xlink:title=" ">
<polygon fill="white" stroke="red" points="1172,-0.5 1172,-19.5 1223,-19.5 1223,-0.5 1172,-0.5"/>
<text text-anchor="middle" x="1197.5" y="-7.5" font-family="Helvetica,sans-Serif" font-size="10.00">ipsec.h</text>
</a>
</g>
</g>
<!-- Node2&#45;&gt;Node109 -->
<g id="edge52" class="edge">
<title>Node2&#45;&gt;Node109</title>
<path fill="none" stroke="midnightblue" d="M1624.49,-231C1523.82,-226.3 1290.49,-212.98 1215.5,-188 1199.23,-182.58 1197.74,-175.87 1182.5,-168 1146.78,-149.54 1121.56,-165.62 1099.5,-132 1090.16,-117.77 1090.59,-78.39 1106.5,-56 1121.92,-34.31 1150.81,-22.55 1171.91,-16.55"/>
<polygon fill="midnightblue" stroke="midnightblue" points="1624.51,-234.51 1634.66,-231.47 1624.83,-227.51 1624.51,-234.51"/>
</g>
<!-- Node114 -->
<g id="node25" class="node">
<title>Node114</title>
<g id="a_node25"><a xlink:href="api_2crypto_8h.html" target="_top" xlink:title=" ">
<polygon fill="white" stroke="black" points="1411.5,-56.5 1411.5,-75.5 1467.5,-75.5 1467.5,-56.5 1411.5,-56.5"/>
<text text-anchor="middle" x="1439.5" y="-63.5" font-family="Helvetica,sans-Serif" font-size="10.00">crypto.h</text>
</a>
</g>
</g>
<!-- Node2&#45;&gt;Node114 -->
<g id="edge26" class="edge">
<title>Node2&#45;&gt;Node114</title>
<path fill="none" stroke="midnightblue" d="M1624.56,-230.04C1565.5,-223.39 1467.37,-201.82 1430.5,-132 1420.82,-113.66 1429.45,-88.55 1435.25,-75.56"/>
<polygon fill="midnightblue" stroke="midnightblue" points="1624.44,-233.55 1634.75,-231.09 1625.16,-226.59 1624.44,-233.55"/>
</g>
<!-- Node110 -->
<g id="node26" class="node">
<title>Node110</title>
<g id="a_node26"><a xlink:href="api_2packet_8h.html" target="_top" xlink:title=" ">
<polygon fill="white" stroke="red" points="1566.5,-168.5 1566.5,-187.5 1624.5,-187.5 1624.5,-168.5 1566.5,-168.5"/>
<text text-anchor="middle" x="1595.5" y="-175.5" font-family="Helvetica,sans-Serif" font-size="10.00">packet.h</text>
</a>
</g>
</g>
<!-- Node2&#45;&gt;Node110 -->
<g id="edge29" class="edge">
<title>Node2&#45;&gt;Node110</title>
<path fill="none" stroke="midnightblue" d="M1650.92,-218.38C1637.19,-208.62 1619.57,-196.11 1607.93,-187.83"/>
<polygon fill="midnightblue" stroke="midnightblue" points="1649.11,-221.38 1659.29,-224.32 1653.16,-215.68 1649.11,-221.38"/>
</g>
<!-- Node111 -->
<g id="node27" class="node">
<title>Node111</title>
<g id="a_node27"><a xlink:href="api_2spec_2comp_8h.html" target="_top" xlink:title=" ">
<polygon fill="white" stroke="red" points="1514,-112.5 1514,-131.5 1567,-131.5 1567,-112.5 1514,-112.5"/>
<text text-anchor="middle" x="1540.5" y="-119.5" font-family="Helvetica,sans-Serif" font-size="10.00">comp.h</text>
</a>
</g>
</g>
<!-- Node2&#45;&gt;Node111 -->
<g id="edge47" class="edge">
<title>Node2&#45;&gt;Node111</title>
<path fill="none" stroke="midnightblue" d="M1625.18,-225.03C1601.83,-218.73 1574.85,-207.57 1557.5,-188 1543.26,-171.94 1540.71,-145.39 1540.4,-131.72"/>
<polygon fill="midnightblue" stroke="midnightblue" points="1624.39,-228.44 1634.93,-227.45 1626.07,-221.64 1624.39,-228.44"/>
</g>
<!-- Node113 -->
<g id="node28" class="node">
<title>Node113</title>
<g id="a_node28"><a xlink:href="api_2spec_2crypto_8h.html" target="_top" xlink:title=" ">
<polygon fill="white" stroke="black" points="1439.5,-112.5 1439.5,-131.5 1495.5,-131.5 1495.5,-112.5 1439.5,-112.5"/>
<text text-anchor="middle" x="1467.5" y="-119.5" font-family="Helvetica,sans-Serif" font-size="10.00">crypto.h</text>
</a>
</g>
</g>
<!-- Node2&#45;&gt;Node113 -->
<g id="edge49" class="edge">
<title>Node2&#45;&gt;Node113</title>
<path fill="none" stroke="midnightblue" d="M1626.83,-221.71C1601.41,-214.23 1569.54,-203 1543.5,-188 1515.82,-172.05 1488.67,-145.45 1475.59,-131.75"/>
<polygon fill="midnightblue" stroke="midnightblue" points="1626.01,-225.12 1636.59,-224.5 1627.93,-218.39 1626.01,-225.12"/>
</g>
<!-- Node126 -->
<g id="node29" class="node">
<title>Node126</title>
<g id="a_node29"><a xlink:href="api_2spec_2packet__flags_8h.html" target="_top" xlink:title=" ">
<polygon fill="white" stroke="red" points="1623.5,-112.5 1623.5,-131.5 1709.5,-131.5 1709.5,-112.5 1623.5,-112.5"/>
<text text-anchor="middle" x="1666.5" y="-119.5" font-family="Helvetica,sans-Serif" font-size="10.00">packet_flags.h</text>
</a>
</g>
</g>
<!-- Node2&#45;&gt;Node126 -->
<g id="edge53" class="edge">
<title>Node2&#45;&gt;Node126</title>
<path fill="none" stroke="midnightblue" d="M1670.65,-214.35C1669.56,-190.25 1667.7,-149.31 1666.89,-131.59"/>
<polygon fill="midnightblue" stroke="midnightblue" points="1667.16,-214.54 1671.11,-224.37 1674.15,-214.22 1667.16,-214.54"/>
</g>
<!-- Node122 -->
<g id="node30" class="node">
<title>Node122</title>
<g id="a_node30"><a xlink:href="api_2packet__io_8h.html" target="_top" xlink:title=" ">
<polygon fill="white" stroke="black" points="1305.5,-168.5 1305.5,-187.5 1377.5,-187.5 1377.5,-168.5 1305.5,-168.5"/>
<text text-anchor="middle" x="1341.5" y="-175.5" font-family="Helvetica,sans-Serif" font-size="10.00">packet_io.h</text>
</a>
</g>
</g>
<!-- Node2&#45;&gt;Node122 -->
<g id="edge35" class="edge">
<title>Node2&#45;&gt;Node122</title>
<path fill="none" stroke="midnightblue" d="M1624.87,-225.78C1569.26,-217.1 1473.52,-201.97 1391.5,-188 1386.98,-187.23 1382.23,-186.4 1377.54,-185.57"/>
<polygon fill="midnightblue" stroke="midnightblue" points="1624.35,-229.24 1634.77,-227.32 1625.43,-222.32 1624.35,-229.24"/>
</g>
<!-- Node123 -->
<g id="node31" class="node">
<title>Node123</title>
<g id="a_node31"><a xlink:href="api_2spec_2classification_8h.html" target="_top" xlink:title=" ">
<polygon fill="white" stroke="black" points="1116,-112.5 1116,-131.5 1205,-131.5 1205,-112.5 1116,-112.5"/>
<text text-anchor="middle" x="1160.5" y="-119.5" font-family="Helvetica,sans-Serif" font-size="10.00">classification.h</text>
</a>
</g>
</g>
<!-- Node2&#45;&gt;Node123 -->
<g id="edge46" class="edge">
<title>Node2&#45;&gt;Node123</title>
<path fill="none" stroke="midnightblue" d="M1624.68,-232.25C1552.74,-230.01 1411.28,-221.33 1296.5,-188 1293.41,-187.1 1214.54,-149.09 1178.35,-131.62"/>
<polygon fill="midnightblue" stroke="midnightblue" points="1624.68,-235.75 1634.78,-232.53 1624.88,-228.75 1624.68,-235.75"/>
</g>
<!-- Node124 -->
<g id="node32" class="node">
<title>Node124</title>
<g id="a_node32"><a xlink:href="api_2spec_2traffic__mngr_8h.html" target="_top" xlink:title=" ">
<polygon fill="white" stroke="red" points="1299.5,-112.5 1299.5,-131.5 1383.5,-131.5 1383.5,-112.5 1299.5,-112.5"/>
<text text-anchor="middle" x="1341.5" y="-119.5" font-family="Helvetica,sans-Serif" font-size="10.00">traffic_mngr.h</text>
</a>
</g>
</g>
<!-- Node2&#45;&gt;Node124 -->
<g id="edge64" class="edge">
<title>Node2&#45;&gt;Node124</title>
<path fill="none" stroke="midnightblue" d="M1624.53,-230.52C1574.4,-226.47 1493.53,-215.83 1429.5,-188 1397.1,-173.92 1365.33,-145.99 1350.37,-131.76"/>
<polygon fill="midnightblue" stroke="midnightblue" points="1624.51,-234.03 1634.75,-231.29 1625.04,-227.05 1624.51,-234.03"/>
</g>
<!-- Node154 -->
<g id="node33" class="node">
<title>Node154</title>
<g id="a_node33"><a xlink:href="api_2proto__stats_8h.html" target="_top" xlink:title=" ">
<polygon fill="white" stroke="black" points="1623.5,-56.5 1623.5,-75.5 1703.5,-75.5 1703.5,-56.5 1623.5,-56.5"/>
<text text-anchor="middle" x="1663.5" y="-63.5" font-family="Helvetica,sans-Serif" font-size="10.00">proto_stats.h</text>
</a>
</g>
</g>
<!-- Node2&#45;&gt;Node154 -->
<g id="edge41" class="edge">
<title>Node2&#45;&gt;Node154</title>
<path fill="none" stroke="midnightblue" d="M1681.88,-215.5C1698.3,-186.8 1727.52,-131.04 1718.5,-112 1710.73,-95.61 1693.75,-83.21 1680.7,-75.61"/>
<polygon fill="midnightblue" stroke="midnightblue" points="1678.7,-214.01 1676.69,-224.41 1684.75,-217.53 1678.7,-214.01"/>
</g>
<!-- Node118 -->
<g id="node34" class="node">
<title>Node118</title>
<g id="a_node34"><a xlink:href="api_2queue_8h.html" target="_top" xlink:title=" ">
<polygon fill="white" stroke="red" points="1721.5,-56.5 1721.5,-75.5 1777.5,-75.5 1777.5,-56.5 1721.5,-56.5"/>
<text text-anchor="middle" x="1749.5" y="-63.5" font-family="Helvetica,sans-Serif" font-size="10.00">queue.h</text>
</a>
</g>
</g>
<!-- Node2&#45;&gt;Node118 -->
<g id="edge43" class="edge">
<title>Node2&#45;&gt;Node118</title>
<path fill="none" stroke="midnightblue" d="M1689.71,-217.42C1698.2,-209.36 1707.88,-198.92 1714.5,-188 1737.51,-150.04 1746.04,-96.2 1748.58,-75.53"/>
<polygon fill="midnightblue" stroke="midnightblue" points="1687.11,-215.05 1682.06,-224.36 1691.81,-220.23 1687.11,-215.05"/>
</g>
<!-- Node155 -->
<g id="node35" class="node">
<title>Node155</title>
<g id="a_node35"><a xlink:href="spec_2chksum_8h.html" target="_top" xlink:title=" ">
<polygon fill="white" stroke="red" points="1870.5,-168.5 1870.5,-187.5 1934.5,-187.5 1934.5,-168.5 1870.5,-168.5"/>
<text text-anchor="middle" x="1902.5" y="-175.5" font-family="Helvetica,sans-Serif" font-size="10.00">chksum.h</text>
</a>
</g>
</g>
<!-- Node2&#45;&gt;Node155 -->
<g id="edge45" class="edge">
<title>Node2&#45;&gt;Node155</title>
<path fill="none" stroke="midnightblue" d="M1717.95,-222.14C1763.11,-211.58 1830.54,-195.82 1870.17,-186.56"/>
<polygon fill="midnightblue" stroke="midnightblue" points="1717.04,-218.76 1708.1,-224.44 1718.64,-225.58 1717.04,-218.76"/>
</g>
<!-- Node157 -->
<g id="node36" class="node">
<title>Node157</title>
<g id="a_node36"><a xlink:href="api_2spec_2cpu_8h.html" target="_top" xlink:title=" ">
<polygon fill="white" stroke="red" points="1953,-168.5 1953,-187.5 1996,-187.5 1996,-168.5 1953,-168.5"/>
<text text-anchor="middle" x="1974.5" y="-175.5" font-family="Helvetica,sans-Serif" font-size="10.00">cpu.h</text>
</a>
</g>
</g>
<!-- Node2&#45;&gt;Node157 -->
<g id="edge48" class="edge">
<title>Node2&#45;&gt;Node157</title>
<path fill="none" stroke="midnightblue" d="M1718.33,-226.97C1772.79,-219.57 1865.23,-205.77 1943.5,-188 1946.56,-187.31 1949.77,-186.48 1952.91,-185.62"/>
<polygon fill="midnightblue" stroke="midnightblue" points="1717.73,-223.52 1708.28,-228.33 1718.66,-230.46 1717.73,-223.52"/>
</g>
<!-- Node159 -->
<g id="node37" class="node">
<title>Node159</title>
<g id="a_node37"><a xlink:href="api_2spec_2hash_8h.html" target="_top" xlink:title=" ">
<polygon fill="white" stroke="red" points="2014,-168.5 2014,-187.5 2063,-187.5 2063,-168.5 2014,-168.5"/>
<text text-anchor="middle" x="2038.5" y="-175.5" font-family="Helvetica,sans-Serif" font-size="10.00">hash.h</text>
</a>
</g>
</g>
<!-- Node2&#45;&gt;Node159 -->
<g id="edge50" class="edge">
<title>Node2&#45;&gt;Node159</title>
<path fill="none" stroke="midnightblue" d="M1718.5,-228.51C1783.26,-221.91 1903.42,-208.13 2004.5,-188 2007.49,-187.4 2010.62,-186.7 2013.7,-185.95"/>
<polygon fill="midnightblue" stroke="midnightblue" points="1717.81,-225.06 1708.21,-229.55 1718.51,-232.03 1717.81,-225.06"/>
</g>
<!-- Node79 -->
<g id="node38" class="node">
<title>Node79</title>
<g id="a_node38"><a xlink:href="api_2spec_2init_8h.html" target="_top" xlink:title=" ">
<polygon fill="white" stroke="red" points="2081,-168.5 2081,-187.5 2122,-187.5 2122,-168.5 2081,-168.5"/>
<text text-anchor="middle" x="2101.5" y="-175.5" font-family="Helvetica,sans-Serif" font-size="10.00">init.h</text>
</a>
</g>
</g>
<!-- Node2&#45;&gt;Node79 -->
<g id="edge51" class="edge">
<title>Node2&#45;&gt;Node79</title>
<path fill="none" stroke="midnightblue" d="M1718.32,-230.46C1793.45,-225.78 1945.3,-213.81 2071.5,-188 2074.59,-187.37 2077.82,-186.56 2080.97,-185.69"/>
<polygon fill="midnightblue" stroke="midnightblue" points="1718.01,-226.98 1708.24,-231.08 1718.44,-233.96 1718.01,-226.98"/>
</g>
<!-- Node161 -->
<g id="node39" class="node">
<title>Node161</title>
<g id="a_node39"><a xlink:href="api_2spec_2pool_8h.html" target="_top" xlink:title=" ">
<polygon fill="white" stroke="red" points="2527,-112.5 2527,-131.5 2574,-131.5 2574,-112.5 2527,-112.5"/>
<text text-anchor="middle" x="2550.5" y="-119.5" font-family="Helvetica,sans-Serif" font-size="10.00">pool.h</text>
</a>
</g>
</g>
<!-- Node2&#45;&gt;Node161 -->
<g id="edge54" class="edge">
<title>Node2&#45;&gt;Node161</title>
<path fill="none" stroke="midnightblue" d="M1718.35,-230.78C1824.6,-225.41 2081.08,-210.48 2164.5,-188 2184.85,-182.52 2187.26,-173.88 2207.5,-168 2324,-134.13 2470.21,-125.7 2526.7,-123.64"/>
<polygon fill="midnightblue" stroke="midnightblue" points="1718.06,-227.29 1708.25,-231.28 1718.41,-234.28 1718.06,-227.29"/>
</g>
<!-- Node163 -->
<g id="node40" class="node">
<title>Node163</title>
<g id="a_node40"><a xlink:href="pool__types_8h.html" target="_top" xlink:title=" ">
<polygon fill="white" stroke="black" points="2858,-168.5 2858,-187.5 2937,-187.5 2937,-168.5 2858,-168.5"/>
<text text-anchor="middle" x="2897.5" y="-175.5" font-family="Helvetica,sans-Serif" font-size="10.00">pool_types.h</text>
</a>
</g>
</g>
<!-- Node2&#45;&gt;Node163 -->
<g id="edge55" class="edge">
<title>Node2&#45;&gt;Node163</title>
<path fill="none" stroke="midnightblue" d="M1718.39,-232.11C1908.67,-228.34 2623.71,-212.81 2848.5,-188 2851.59,-187.66 2854.79,-187.23 2857.99,-186.76"/>
<polygon fill="midnightblue" stroke="midnightblue" points="1718.1,-228.61 1708.17,-232.31 1718.24,-235.61 1718.1,-228.61"/>
</g>
<!-- Node164 -->
<g id="node41" class="node">
<title>Node164</title>
<g id="a_node41"><a xlink:href="api_2spec_2proto__stats__types_8h.html" target="_top" xlink:title=" ">
<polygon fill="white" stroke="red" points="2217,-168.5 2217,-187.5 2330,-187.5 2330,-168.5 2217,-168.5"/>
<text text-anchor="middle" x="2273.5" y="-175.5" font-family="Helvetica,sans-Serif" font-size="10.00">proto_stats_types.h</text>
</a>
</g>
</g>
<!-- Node2&#45;&gt;Node164 -->
<g id="edge57" class="edge">
<title>Node2&#45;&gt;Node164</title>
<path fill="none" stroke="midnightblue" d="M1718.41,-229.68C1811.05,-222.99 2023.99,-206.87 2202.5,-188 2207.2,-187.5 2212.06,-186.96 2216.94,-186.38"/>
<polygon fill="midnightblue" stroke="midnightblue" points="1717.97,-226.21 1708.24,-230.41 1718.47,-233.19 1717.97,-226.21"/>
</g>
<!-- Node77 -->
<g id="node42" class="node">
<title>Node77</title>
<g id="a_node42"><a xlink:href="api_2spec_2schedule_8h.html" target="_top" xlink:title=" ">
<polygon fill="white" stroke="red" points="2348,-168.5 2348,-187.5 2417,-187.5 2417,-168.5 2348,-168.5"/>
<text text-anchor="middle" x="2382.5" y="-175.5" font-family="Helvetica,sans-Serif" font-size="10.00">schedule.h</text>
</a>
</g>
</g>
<!-- Node2&#45;&gt;Node77 -->
<g id="edge58" class="edge">
<title>Node2&#45;&gt;Node77</title>
<path fill="none" stroke="midnightblue" d="M1718.2,-232.01C1827.26,-229.21 2107.03,-219.34 2338.5,-188 2341.59,-187.58 2344.79,-187.07 2347.99,-186.52"/>
<polygon fill="midnightblue" stroke="midnightblue" points="1718.1,-228.51 1708.19,-232.25 1718.27,-235.5 1718.1,-228.51"/>
</g>
<!-- Node170 -->
<g id="node43" class="node">
<title>Node170</title>
<g id="a_node43"><a xlink:href="api_2spec_2schedule__types_8h.html" target="_top" xlink:title=" ">
<polygon fill="white" stroke="red" points="2435,-168.5 2435,-187.5 2536,-187.5 2536,-168.5 2435,-168.5"/>
<text text-anchor="middle" x="2485.5" y="-175.5" font-family="Helvetica,sans-Serif" font-size="10.00">schedule_types.h</text>
</a>
</g>
</g>
<!-- Node2&#45;&gt;Node170 -->
<g id="edge59" class="edge">
<title>Node2&#45;&gt;Node170</title>
<path fill="none" stroke="midnightblue" d="M1718.25,-231.66C1836.8,-227.95 2158.68,-215.92 2425.5,-188 2428.54,-187.68 2431.66,-187.32 2434.8,-186.93"/>
<polygon fill="midnightblue" stroke="midnightblue" points="1717.97,-228.17 1708.08,-231.97 1718.18,-235.17 1717.97,-228.17"/>
</g>
<!-- Node174 -->
<g id="node44" class="node">
<title>Node174</title>
<g id="a_node44"><a xlink:href="api_2spec_2stash_8h.html" target="_top" xlink:title=" ">
<polygon fill="white" stroke="red" points="2554.5,-168.5 2554.5,-187.5 2606.5,-187.5 2606.5,-168.5 2554.5,-168.5"/>
<text text-anchor="middle" x="2580.5" y="-175.5" font-family="Helvetica,sans-Serif" font-size="10.00">stash.h</text>
</a>
</g>
</g>
<!-- Node2&#45;&gt;Node174 -->
<g id="edge60" class="edge">
<title>Node2&#45;&gt;Node174</title>
<path fill="none" stroke="midnightblue" d="M1718.42,-231.78C1875.63,-227.5 2382.92,-212.13 2544.5,-188 2547.69,-187.52 2551,-186.89 2554.27,-186.18"/>
<polygon fill="midnightblue" stroke="midnightblue" points="1718.05,-228.29 1708.15,-232.06 1718.24,-235.29 1718.05,-228.29"/>
</g>
<!-- Node176 -->
<g id="node45" class="node">
<title>Node176</title>
<g id="a_node45"><a xlink:href="api_2spec_2std_8h.html" target="_top" xlink:title=" ">
<polygon fill="white" stroke="red" points="2625,-168.5 2625,-187.5 2666,-187.5 2666,-168.5 2625,-168.5"/>
<text text-anchor="middle" x="2645.5" y="-175.5" font-family="Helvetica,sans-Serif" font-size="10.00">std.h</text>
</a>
</g>
</g>
<!-- Node2&#45;&gt;Node176 -->
<g id="edge61" class="edge">
<title>Node2&#45;&gt;Node176</title>
<path fill="none" stroke="midnightblue" d="M1718.37,-232.28C1883.83,-229.48 2440.04,-218.04 2615.5,-188 2618.5,-187.49 2621.63,-186.77 2624.67,-185.96"/>
<polygon fill="midnightblue" stroke="midnightblue" points="1717.98,-228.78 1708.04,-232.45 1718.1,-235.78 1717.98,-228.78"/>
</g>
<!-- Node178 -->
<g id="node46" class="node">
<title>Node178</title>
<g id="a_node46"><a xlink:href="spec_2threshold_8h.html" target="_top" xlink:title=" ">
<polygon fill="white" stroke="red" points="2684,-168.5 2684,-187.5 2755,-187.5 2755,-168.5 2684,-168.5"/>
<text text-anchor="middle" x="2719.5" y="-175.5" font-family="Helvetica,sans-Serif" font-size="10.00">threshold.h</text>
</a>
</g>
</g>
<!-- Node2&#45;&gt;Node178 -->
<g id="edge62" class="edge">
<title>Node2&#45;&gt;Node178</title>
<path fill="none" stroke="midnightblue" d="M1718.35,-233.5C1862.04,-234.49 2308.92,-233.42 2675.5,-188 2678.13,-187.67 2680.84,-187.28 2683.56,-186.83"/>
<polygon fill="midnightblue" stroke="midnightblue" points="1718.17,-230 1708.14,-233.43 1718.12,-237 1718.17,-230"/>
</g>
<!-- Node180 -->
<g id="node47" class="node">
<title>Node180</title>
<g id="a_node47"><a xlink:href="api_2spec_2thrmask_8h.html" target="_top" xlink:title=" ">
<polygon fill="white" stroke="red" points="2773.5,-168.5 2773.5,-187.5 2839.5,-187.5 2839.5,-168.5 2773.5,-168.5"/>
<text text-anchor="middle" x="2806.5" y="-175.5" font-family="Helvetica,sans-Serif" font-size="10.00">thrmask.h</text>
</a>
</g>
</g>
<!-- Node2&#45;&gt;Node180 -->
<g id="edge63" class="edge">
<title>Node2&#45;&gt;Node180</title>
<path fill="none" stroke="midnightblue" d="M1718.02,-232.14C1899.12,-228.62 2557.27,-214.28 2764.5,-188 2767.31,-187.64 2770.21,-187.19 2773.12,-186.69"/>
<polygon fill="midnightblue" stroke="midnightblue" points="1717.95,-228.64 1708.02,-232.33 1718.08,-235.64 1717.95,-228.64"/>
</g>
<!-- Node181 -->
<g id="node48" class="node">
<title>Node181</title>
<g id="a_node48"><a xlink:href="system__info_8h.html" target="_top" xlink:title=" ">
<polygon fill="white" stroke="black" points="1795.5,-56.5 1795.5,-75.5 1881.5,-75.5 1881.5,-56.5 1795.5,-56.5"/>
<text text-anchor="middle" x="1838.5" y="-63.5" font-family="Helvetica,sans-Serif" font-size="10.00">system_info.h</text>
</a>
</g>
</g>
<!-- Node2&#45;&gt;Node181 -->
<g id="edge65" class="edge">
<title>Node2&#45;&gt;Node181</title>
<path fill="none" stroke="midnightblue" d="M1693.97,-218.88C1706.46,-210.57 1721.97,-199.46 1734.5,-188 1776,-150.06 1817.08,-96.21 1832.31,-75.53"/>
<polygon fill="midnightblue" stroke="midnightblue" points="1691.96,-216.01 1685.49,-224.4 1695.78,-221.88 1691.96,-216.01"/>
</g>
<!-- Node182 -->
<g id="node49" class="node">
<title>Node182</title>
<g id="a_node49"><a xlink:href="api_2time_8h.html" target="_top" xlink:title=" ">
<polygon fill="white" stroke="red" points="1899.5,-56.5 1899.5,-75.5 1947.5,-75.5 1947.5,-56.5 1899.5,-56.5"/>
<text text-anchor="middle" x="1923.5" y="-63.5" font-family="Helvetica,sans-Serif" font-size="10.00">time.h</text>
</a>
</g>
</g>
<!-- Node2&#45;&gt;Node182 -->
<g id="edge67" class="edge">
<title>Node2&#45;&gt;Node182</title>
<path fill="none" stroke="midnightblue" d="M1699.69,-220.03C1717.28,-211.59 1740.17,-199.96 1759.5,-188 1820.58,-150.2 1887.91,-96.26 1913.18,-75.55"/>
<polygon fill="midnightblue" stroke="midnightblue" points="1698.06,-216.93 1690.52,-224.38 1701.06,-223.26 1698.06,-216.93"/>
</g>
<!-- Node183 -->
<g id="node50" class="node">
<title>Node183</title>
<g id="a_node50"><a xlink:href="api_2timer_8h.html" target="_top" xlink:title=" ">
<polygon fill="white" stroke="black" points="1966,-56.5 1966,-75.5 2017,-75.5 2017,-56.5 1966,-56.5"/>
<text text-anchor="middle" x="1991.5" y="-63.5" font-family="Helvetica,sans-Serif" font-size="10.00">timer.h</text>
</a>
</g>
</g>
<!-- Node2&#45;&gt;Node183 -->
<g id="edge69" class="edge">
<title>Node2&#45;&gt;Node183</title>
<path fill="none" stroke="midnightblue" d="M1707.17,-221.07C1730.7,-212.76 1761.95,-200.9 1788.5,-188 1863.41,-151.6 1947.16,-96.84 1978.63,-75.73"/>
<polygon fill="midnightblue" stroke="midnightblue" points="1705.89,-217.8 1697.6,-224.4 1708.19,-224.42 1705.89,-217.8"/>
</g>
<!-- Node4 -->
<g id="node4" class="node">
<title>Node4</title>
<g id="a_node4"><a xlink:href="arch_2arm32-linux_2odp_2api_2abi_2atomic_8h_source.html" target="_top" xlink:title=" ">
<polygon fill="white" stroke="black" points="154,-112.5 154,-131.5 213,-131.5 213,-112.5 154,-112.5"/>
<text text-anchor="middle" x="183.5" y="-119.5" font-family="Helvetica,sans-Serif" font-size="10.00">atomic.h</text>
</a>
</g>
</g>
<!-- Node3&#45;&gt;Node4 -->
<g id="edge3" class="edge">
<title>Node3&#45;&gt;Node4</title>
<path fill="none" stroke="midnightblue" d="M209.44,-159.86C202.86,-150.5 194.99,-139.33 189.66,-131.75"/>
<polygon fill="midnightblue" stroke="midnightblue" points="206.61,-161.92 215.23,-168.08 212.33,-157.89 206.61,-161.92"/>
</g>
<!-- Node5 -->
<g id="node5" class="node">
<title>Node5</title>
<g id="a_node5"><a xlink:href="arch_2arm64-linux_2odp_2api_2abi_2atomic_8h_source.html" target="_top" xlink:title=" ">
<polygon fill="white" stroke="black" points="231,-112.5 231,-131.5 290,-131.5 290,-112.5 231,-112.5"/>
<text text-anchor="middle" x="260.5" y="-119.5" font-family="Helvetica,sans-Serif" font-size="10.00">atomic.h</text>
</a>
</g>
</g>
<!-- Node3&#45;&gt;Node5 -->
<g id="edge4" class="edge">
<title>Node3&#45;&gt;Node5</title>
<path fill="none" stroke="midnightblue" d="M233.88,-159.86C240.64,-150.5 248.71,-139.33 254.18,-131.75"/>
<polygon fill="midnightblue" stroke="midnightblue" points="230.96,-157.93 227.94,-168.08 236.63,-162.03 230.96,-157.93"/>
</g>
<!-- Node6 -->
<g id="node6" class="node">
<title>Node6</title>
<g id="a_node6"><a xlink:href="arch_2default-linux_2odp_2api_2abi_2atomic_8h_source.html" target="_top" xlink:title=" ">
<polygon fill="white" stroke="black" points="308,-112.5 308,-131.5 367,-131.5 367,-112.5 308,-112.5"/>
<text text-anchor="middle" x="337.5" y="-119.5" font-family="Helvetica,sans-Serif" font-size="10.00">atomic.h</text>
</a>
</g>
</g>
<!-- Node3&#45;&gt;Node6 -->
<g id="edge5" class="edge">
<title>Node3&#45;&gt;Node6</title>
<path fill="none" stroke="midnightblue" d="M249.22,-164.1C270.89,-154.01 300.4,-140.27 319.21,-131.52"/>
<polygon fill="midnightblue" stroke="midnightblue" points="247.47,-161.05 239.88,-168.44 250.42,-167.4 247.47,-161.05"/>
</g>
<!-- Node7 -->
<g id="node7" class="node">
<title>Node7</title>
<g id="a_node7"><a xlink:href="arch_2mips64-linux_2odp_2api_2abi_2atomic_8h_source.html" target="_top" xlink:title=" ">
<polygon fill="white" stroke="black" points="385,-112.5 385,-131.5 444,-131.5 444,-112.5 385,-112.5"/>
<text text-anchor="middle" x="414.5" y="-119.5" font-family="Helvetica,sans-Serif" font-size="10.00">atomic.h</text>
</a>
</g>
</g>
<!-- Node3&#45;&gt;Node7 -->
<g id="edge6" class="edge">
<title>Node3&#45;&gt;Node7</title>
<path fill="none" stroke="midnightblue" d="M261.1,-165.92C297.79,-155.65 351.57,-140.61 384.73,-131.33"/>
<polygon fill="midnightblue" stroke="midnightblue" points="259.92,-162.62 251.23,-168.68 261.81,-169.36 259.92,-162.62"/>
</g>
<!-- Node8 -->
<g id="node8" class="node">
<title>Node8</title>
<g id="a_node8"><a xlink:href="arch_2power64-linux_2odp_2api_2abi_2atomic_8h_source.html" target="_top" xlink:title=" ">
<polygon fill="white" stroke="black" points="0,-112.5 0,-131.5 59,-131.5 59,-112.5 0,-112.5"/>
<text text-anchor="middle" x="29.5" y="-119.5" font-family="Helvetica,sans-Serif" font-size="10.00">atomic.h</text>
</a>
</g>
</g>
<!-- Node3&#45;&gt;Node8 -->
<g id="edge7" class="edge">
<title>Node3&#45;&gt;Node8</title>
<path fill="none" stroke="midnightblue" d="M182.11,-165.92C145.6,-155.65 92.11,-140.61 59.11,-131.33"/>
<polygon fill="midnightblue" stroke="midnightblue" points="181.35,-169.34 191.92,-168.68 183.24,-162.6 181.35,-169.34"/>
</g>
<!-- Node9 -->
<g id="node9" class="node">
<title>Node9</title>
<g id="a_node9"><a xlink:href="arch_2x86__32-linux_2odp_2api_2abi_2atomic_8h_source.html" target="_top" xlink:title=" ">
<polygon fill="white" stroke="black" points="77,-112.5 77,-131.5 136,-131.5 136,-112.5 77,-112.5"/>
<text text-anchor="middle" x="106.5" y="-119.5" font-family="Helvetica,sans-Serif" font-size="10.00">atomic.h</text>
</a>
</g>
</g>
<!-- Node3&#45;&gt;Node9 -->
<g id="edge8" class="edge">
<title>Node3&#45;&gt;Node9</title>
<path fill="none" stroke="midnightblue" d="M194.02,-164.1C172.53,-154.01 143.28,-140.27 124.64,-131.52"/>
<polygon fill="midnightblue" stroke="midnightblue" points="192.74,-167.36 203.28,-168.44 195.71,-161.02 192.74,-167.36"/>
</g>
<!-- Node20&#45;&gt;Node21 -->
<g id="edge20" class="edge">
<title>Node20&#45;&gt;Node21</title>
<path fill="none" stroke="midnightblue" d="M2068.93,-58.37C2006.38,-47.61 1883.95,-26.56 1825.74,-16.54"/>
<polygon fill="midnightblue" stroke="midnightblue" points="2068.35,-61.82 2078.8,-60.06 2069.54,-54.92 2068.35,-61.82"/>
</g>
<!-- Node153&#45;&gt;Node21 -->
<g id="edge22" class="edge">
<title>Node153&#45;&gt;Node21</title>
<path fill="none" stroke="midnightblue" d="M2983.45,-56.56C2982.12,-56.35 2980.8,-56.17 2979.5,-56 2747,-26.31 1991.1,-13.85 1825.68,-11.45"/>
<polygon fill="midnightblue" stroke="midnightblue" points="2983.25,-60.08 2993.71,-58.4 2984.49,-53.19 2983.25,-60.08"/>
</g>
<!-- Node108&#45;&gt;Node21 -->
<g id="edge25" class="edge">
<title>Node108&#45;&gt;Node21</title>
<path fill="none" stroke="midnightblue" d="M1215.64,-59.8C1229.32,-58.53 1243.94,-57.2 1257.5,-56 1448.66,-39.11 1678.31,-20.34 1761.47,-13.59"/>
<polygon fill="midnightblue" stroke="midnightblue" points="1215.04,-56.34 1205.4,-60.75 1215.69,-63.31 1215.04,-56.34"/>
</g>
<!-- Node108&#45;&gt;Node109 -->
<g id="edge24" class="edge">
<title>Node108&#45;&gt;Node109</title>
<path fill="none" stroke="midnightblue" d="M1172.45,-47.57C1178.81,-38.27 1186.37,-27.25 1191.5,-19.75"/>
<polygon fill="midnightblue" stroke="midnightblue" points="1169.37,-45.86 1166.61,-56.08 1175.15,-49.81 1169.37,-45.86"/>
</g>
<!-- Node114&#45;&gt;Node21 -->
<g id="edge28" class="edge">
<title>Node114&#45;&gt;Node21</title>
<path fill="none" stroke="midnightblue" d="M1477.74,-59.17C1547.92,-48.46 1696.05,-25.87 1761.38,-15.9"/>
<polygon fill="midnightblue" stroke="midnightblue" points="1476.93,-55.75 1467.57,-60.72 1477.99,-62.67 1476.93,-55.75"/>
</g>
<!-- Node114&#45;&gt;Node109 -->
<g id="edge27" class="edge">
<title>Node114&#45;&gt;Node109</title>
<path fill="none" stroke="midnightblue" d="M1401.23,-56.46C1351.51,-45.37 1266.05,-26.3 1223.35,-16.77"/>
<polygon fill="midnightblue" stroke="midnightblue" points="1400.74,-59.94 1411.27,-58.7 1402.27,-53.11 1400.74,-59.94"/>
</g>
<!-- Node110&#45;&gt;Node21 -->
<g id="edge34" class="edge">
<title>Node110&#45;&gt;Node21</title>
<path fill="none" stroke="midnightblue" d="M1592.64,-158.18C1589.76,-131.84 1588.89,-84.04 1614.5,-56 1634.06,-34.59 1715.44,-20.96 1761.45,-14.81"/>
<polygon fill="midnightblue" stroke="midnightblue" points="1589.2,-158.88 1593.96,-168.34 1596.14,-157.97 1589.2,-158.88"/>
</g>
<!-- Node110&#45;&gt;Node111 -->
<g id="edge30" class="edge">
<title>Node110&#45;&gt;Node111</title>
<path fill="none" stroke="midnightblue" d="M1579.21,-161C1569.46,-151.43 1557.45,-139.64 1549.41,-131.75"/>
<polygon fill="midnightblue" stroke="midnightblue" points="1576.83,-163.57 1586.42,-168.08 1581.73,-158.58 1576.83,-163.57"/>
</g>
<!-- Node110&#45;&gt;Node113 -->
<g id="edge31" class="edge">
<title>Node110&#45;&gt;Node113</title>
<path fill="none" stroke="midnightblue" d="M1565.88,-164.5C1541.88,-154.38 1508.72,-140.39 1487.69,-131.52"/>
<polygon fill="midnightblue" stroke="midnightblue" points="1564.64,-167.78 1575.22,-168.44 1567.36,-161.33 1564.64,-167.78"/>
</g>
<!-- Node110&#45;&gt;Node126 -->
<g id="edge33" class="edge">
<title>Node110&#45;&gt;Node126</title>
<path fill="none" stroke="midnightblue" d="M1615.09,-162.1C1627.87,-152.38 1644.11,-140.03 1654.89,-131.83"/>
<polygon fill="midnightblue" stroke="midnightblue" points="1612.75,-159.48 1606.91,-168.32 1616.99,-165.06 1612.75,-159.48"/>
</g>
<!-- Node113&#45;&gt;Node114 -->
<g id="edge32" class="edge">
<title>Node113&#45;&gt;Node114</title>
<path fill="none" stroke="midnightblue" d="M1458.16,-102.98C1453.41,-93.82 1447.84,-83.09 1444.04,-75.75"/>
<polygon fill="midnightblue" stroke="midnightblue" points="1455.17,-104.82 1462.88,-112.08 1461.38,-101.59 1455.17,-104.82"/>
</g>
<!-- Node122&#45;&gt;Node21 -->
<g id="edge40" class="edge">
<title>Node122&#45;&gt;Node21</title>
<path fill="none" stroke="midnightblue" d="M1317.45,-162.74C1299.2,-150.01 1279.03,-130.56 1290.5,-112 1319.76,-64.66 1349.16,-71.87 1402.5,-56 1531.52,-17.62 1693.51,-11.66 1761.33,-10.95"/>
<polygon fill="midnightblue" stroke="midnightblue" points="1315.83,-165.87 1326.11,-168.42 1319.67,-160.01 1315.83,-165.87"/>
</g>
<!-- Node122&#45;&gt;Node109 -->
<g id="edge38" class="edge">
<title>Node122&#45;&gt;Node109</title>
<path fill="none" stroke="midnightblue" d="M1307.07,-164.38C1290.49,-156.95 1271.26,-146.2 1257.5,-132 1240.37,-114.32 1210.97,-44.22 1200.96,-19.6"/>
<polygon fill="midnightblue" stroke="midnightblue" points="1305.9,-167.68 1316.47,-168.37 1308.63,-161.24 1305.9,-167.68"/>
</g>
<!-- Node122&#45;&gt;Node123 -->
<g id="edge36" class="edge">
<title>Node122&#45;&gt;Node123</title>
<path fill="none" stroke="midnightblue" d="M1303.18,-165.57C1269.04,-155.38 1219.84,-140.7 1189.05,-131.52"/>
<polygon fill="midnightblue" stroke="midnightblue" points="1302.24,-168.94 1312.82,-168.44 1304.24,-162.23 1302.24,-168.94"/>
</g>
<!-- Node122&#45;&gt;Node124 -->
<g id="edge39" class="edge">
<title>Node122&#45;&gt;Node124</title>
<path fill="none" stroke="midnightblue" d="M1341.5,-157.8C1341.5,-148.91 1341.5,-138.78 1341.5,-131.75"/>
<polygon fill="midnightblue" stroke="midnightblue" points="1338,-158.08 1341.5,-168.08 1345,-158.08 1338,-158.08"/>
</g>
<!-- Node123&#45;&gt;Node108 -->
<g id="edge37" class="edge">
<title>Node123&#45;&gt;Node108</title>
<path fill="none" stroke="midnightblue" d="M1160.5,-101.8C1160.5,-92.91 1160.5,-82.78 1160.5,-75.75"/>
<polygon fill="midnightblue" stroke="midnightblue" points="1157,-102.08 1160.5,-112.08 1164,-102.08 1157,-102.08"/>
</g>
<!-- Node154&#45;&gt;Node21 -->
<g id="edge42" class="edge">
<title>Node154&#45;&gt;Node21</title>
<path fill="none" stroke="midnightblue" d="M1693.59,-52.5C1717.96,-42.38 1751.64,-28.39 1773,-19.52"/>
<polygon fill="midnightblue" stroke="midnightblue" points="1691.99,-49.38 1684.1,-56.44 1694.68,-55.84 1691.99,-49.38"/>
</g>
<!-- Node118&#45;&gt;Node21 -->
<g id="edge44" class="edge">
<title>Node118&#45;&gt;Node21</title>
<path fill="none" stroke="midnightblue" d="M1763.23,-48.14C1770.9,-38.74 1780.13,-27.4 1786.37,-19.75"/>
<polygon fill="midnightblue" stroke="midnightblue" points="1760.37,-46.12 1756.77,-56.08 1765.8,-50.54 1760.37,-46.12"/>
</g>
<!-- Node163&#45;&gt;Node161 -->
<g id="edge56" class="edge">
<title>Node163&#45;&gt;Node161</title>
<path fill="none" stroke="midnightblue" d="M2847.8,-167.93C2739.26,-149.9 2623.03,-133.21 2574.11,-126.3"/>
<polygon fill="midnightblue" stroke="midnightblue" points="2847.5,-171.43 2857.94,-169.62 2848.65,-164.52 2847.5,-171.43"/>
</g>
<!-- Node181&#45;&gt;Node21 -->
<g id="edge66" class="edge">
<title>Node181&#45;&gt;Node21</title>
<path fill="none" stroke="midnightblue" d="M1824.45,-48.14C1816.61,-38.74 1807.17,-27.4 1800.79,-19.75"/>
<polygon fill="midnightblue" stroke="midnightblue" points="1821.98,-50.64 1831.07,-56.08 1827.36,-46.16 1821.98,-50.64"/>
</g>
<!-- Node182&#45;&gt;Node21 -->
<g id="edge68" class="edge">
<title>Node182&#45;&gt;Node21</title>
<path fill="none" stroke="midnightblue" d="M1893.41,-52.5C1869.04,-42.38 1835.36,-28.39 1814,-19.52"/>
<polygon fill="midnightblue" stroke="midnightblue" points="1892.32,-55.84 1902.9,-56.44 1895.01,-49.38 1892.32,-55.84"/>
</g>
<!-- Node183&#45;&gt;Node21 -->
<g id="edge70" class="edge">
<title>Node183&#45;&gt;Node21</title>
<path fill="none" stroke="midnightblue" d="M1955.68,-55.23C1918.38,-45.06 1860.53,-29.28 1824.95,-19.58"/>
<polygon fill="midnightblue" stroke="midnightblue" points="1955.05,-58.69 1965.61,-57.94 1956.89,-51.93 1955.05,-58.69"/>
</g>
</g>
</svg>
