<?xml version="1.0" encoding="UTF-8" standalone="no"?>
<!DOCTYPE svg PUBLIC "-//W3C//DTD SVG 1.1//EN"
 "http://www.w3.org/Graphics/SVG/1.1/DTD/svg11.dtd">
<!-- Generated by graphviz version 2.43.0 (0)
 -->
<!-- Title: deprecated.h Pages: 1 -->
<svg width="1412pt" height="1148pt"
 viewBox="0.00 0.00 1412.00 1148.00" xmlns="http://www.w3.org/2000/svg" xmlns:xlink="http://www.w3.org/1999/xlink">
<g id="graph0" class="graph" transform="scale(1 1) rotate(0) translate(4 1144)">
<title>deprecated.h</title>
<polygon fill="white" stroke="transparent" points="-4,4 -4,-1144 1408,-1144 1408,4 -4,4"/>
<!-- Node1 -->
<g id="node1" class="node">
<title>Node1</title>
<g id="a_node1"><a xlink:title=" ">
<polygon fill="#bfbfbf" stroke="black" points="744.5,-1120.5 744.5,-1139.5 824.5,-1139.5 824.5,-1120.5 744.5,-1120.5"/>
<text text-anchor="middle" x="784.5" y="-1127.5" font-family="Helvetica,sans-Serif" font-size="10.00">deprecated.h</text>
</a>
</g>
</g>
<!-- Node2 -->
<g id="node2" class="node">
<title>Node2</title>
<g id="a_node2"><a xlink:href="api_2abi-default_2classification_8h_source.html" target="_top" xlink:title=" ">
<polygon fill="white" stroke="black" points="375,-448.5 375,-467.5 464,-467.5 464,-448.5 375,-448.5"/>
<text text-anchor="middle" x="419.5" y="-455.5" font-family="Helvetica,sans-Serif" font-size="10.00">classification.h</text>
</a>
</g>
</g>
<!-- Node1&#45;&gt;Node2 -->
<g id="edge1" class="edge">
<title>Node1&#45;&gt;Node2</title>
<path fill="none" stroke="midnightblue" d="M734.4,-1127.63C663.78,-1122.73 543.5,-1102.18 543.5,-1019 543.5,-1019 543.5,-1019 543.5,-569 543.5,-515.91 479.09,-482.21 443.12,-467.52"/>
<polygon fill="midnightblue" stroke="midnightblue" points="734.24,-1131.13 744.43,-1128.25 734.67,-1124.14 734.24,-1131.13"/>
</g>
<!-- Node13 -->
<g id="node13" class="node">
<title>Node13</title>
<g id="a_node13"><a xlink:href="odp__api_8h.html" target="_top" xlink:title=" ">
<polygon fill="white" stroke="black" points="1005.5,-56.5 1005.5,-75.5 1069.5,-75.5 1069.5,-56.5 1005.5,-56.5"/>
<text text-anchor="middle" x="1037.5" y="-63.5" font-family="Helvetica,sans-Serif" font-size="10.00">odp_api.h</text>
</a>
</g>
</g>
<!-- Node1&#45;&gt;Node13 -->
<g id="edge61" class="edge">
<title>Node1&#45;&gt;Node13</title>
<path fill="none" stroke="midnightblue" d="M748.6,-1116.78C709.51,-1100.92 652.5,-1069.19 652.5,-1019 652.5,-1019 652.5,-1019 652.5,-177 652.5,-103.84 912.81,-76.62 1005.34,-69.26"/>
<polygon fill="midnightblue" stroke="midnightblue" points="747.52,-1120.11 758.11,-1120.47 750.05,-1113.58 747.52,-1120.11"/>
</g>
<!-- Node19 -->
<g id="node19" class="node">
<title>Node19</title>
<g id="a_node19"><a xlink:href="api_2spec_2crypto_8h.html" target="_top" xlink:title=" ">
<polygon fill="white" stroke="black" points="1008.5,-728.5 1008.5,-747.5 1064.5,-747.5 1064.5,-728.5 1008.5,-728.5"/>
<text text-anchor="middle" x="1036.5" y="-735.5" font-family="Helvetica,sans-Serif" font-size="10.00">crypto.h</text>
</a>
</g>
</g>
<!-- Node1&#45;&gt;Node19 -->
<g id="edge24" class="edge">
<title>Node1&#45;&gt;Node19</title>
<path fill="none" stroke="midnightblue" d="M798.54,-1112.44C805.41,-1104.09 813.65,-1093.71 820.5,-1084 843.39,-1051.55 846.49,-1041.7 867.5,-1008 931.39,-905.5 1009.65,-781.51 1030.93,-747.81"/>
<polygon fill="midnightblue" stroke="midnightblue" points="795.72,-1110.36 792,-1120.28 801.09,-1114.84 795.72,-1110.36"/>
</g>
<!-- Node21 -->
<g id="node21" class="node">
<title>Node21</title>
<g id="a_node21"><a xlink:href="api_2spec_2packet__io_8h.html" target="_top" xlink:title=" ">
<polygon fill="white" stroke="black" points="800.5,-392.5 800.5,-411.5 872.5,-411.5 872.5,-392.5 800.5,-392.5"/>
<text text-anchor="middle" x="836.5" y="-399.5" font-family="Helvetica,sans-Serif" font-size="10.00">packet_io.h</text>
</a>
</g>
</g>
<!-- Node1&#45;&gt;Node21 -->
<g id="edge28" class="edge">
<title>Node1&#45;&gt;Node21</title>
<path fill="none" stroke="midnightblue" d="M778.46,-1110.45C771.95,-1088.76 762.5,-1051.67 762.5,-1019 762.5,-1019 762.5,-1019 762.5,-513 762.5,-468.58 804.56,-428.62 825.26,-411.64"/>
<polygon fill="midnightblue" stroke="midnightblue" points="775.21,-1111.78 781.53,-1120.28 781.89,-1109.69 775.21,-1111.78"/>
</g>
<!-- Node22 -->
<g id="node22" class="node">
<title>Node22</title>
<g id="a_node22"><a xlink:href="spec_2packet__io__stats_8h.html" target="_top" xlink:title=" ">
<polygon fill="white" stroke="black" points="829,-504.5 829,-523.5 930,-523.5 930,-504.5 829,-504.5"/>
<text text-anchor="middle" x="879.5" y="-511.5" font-family="Helvetica,sans-Serif" font-size="10.00">packet_io_stats.h</text>
</a>
</g>
</g>
<!-- Node1&#45;&gt;Node22 -->
<g id="edge30" class="edge">
<title>Node1&#45;&gt;Node22</title>
<path fill="none" stroke="midnightblue" d="M788.43,-1110.17C800.86,-1048.92 838.5,-849.7 838.5,-683 838.5,-683 838.5,-683 838.5,-625 838.5,-585.05 862.53,-541.8 873.8,-523.71"/>
<polygon fill="midnightblue" stroke="midnightblue" points="784.94,-1109.75 786.36,-1120.25 791.8,-1111.16 784.94,-1109.75"/>
</g>
<!-- Node24 -->
<g id="node24" class="node">
<title>Node24</title>
<g id="a_node24"><a xlink:href="api_2spec_2queue__types_8h.html" target="_top" xlink:title=" ">
<polygon fill="white" stroke="black" points="874.5,-1064.5 874.5,-1083.5 962.5,-1083.5 962.5,-1064.5 874.5,-1064.5"/>
<text text-anchor="middle" x="918.5" y="-1071.5" font-family="Helvetica,sans-Serif" font-size="10.00">queue_types.h</text>
</a>
</g>
</g>
<!-- Node1&#45;&gt;Node24 -->
<g id="edge33" class="edge">
<title>Node1&#45;&gt;Node24</title>
<path fill="none" stroke="midnightblue" d="M815.18,-1116.64C840.32,-1106.5 875.25,-1092.43 897.37,-1083.52"/>
<polygon fill="midnightblue" stroke="midnightblue" points="813.7,-1113.46 805.73,-1120.44 816.32,-1119.95 813.7,-1113.46"/>
</g>
<!-- Node3 -->
<g id="node3" class="node">
<title>Node3</title>
<g id="a_node3"><a xlink:href="arch_2arm32-linux_2odp_2api_2abi_2classification_8h_source.html" target="_top" xlink:title=" ">
<polygon fill="white" stroke="black" points="0,-392.5 0,-411.5 89,-411.5 89,-392.5 0,-392.5"/>
<text text-anchor="middle" x="44.5" y="-399.5" font-family="Helvetica,sans-Serif" font-size="10.00">classification.h</text>
</a>
</g>
</g>
<!-- Node2&#45;&gt;Node3 -->
<g id="edge2" class="edge">
<title>Node2&#45;&gt;Node3</title>
<path fill="none" stroke="midnightblue" d="M364.62,-449.83C300.48,-441.33 191.16,-426.49 97.5,-412 94.73,-411.57 91.89,-411.12 89.02,-410.66"/>
<polygon fill="midnightblue" stroke="midnightblue" points="364.53,-453.35 374.9,-451.19 365.45,-446.41 364.53,-453.35"/>
</g>
<!-- Node4 -->
<g id="node4" class="node">
<title>Node4</title>
<g id="a_node4"><a xlink:href="arch_2arm64-linux_2odp_2api_2abi_2classification_8h_source.html" target="_top" xlink:title=" ">
<polygon fill="white" stroke="black" points="107,-392.5 107,-411.5 196,-411.5 196,-392.5 107,-392.5"/>
<text text-anchor="middle" x="151.5" y="-399.5" font-family="Helvetica,sans-Serif" font-size="10.00">classification.h</text>
</a>
</g>
</g>
<!-- Node2&#45;&gt;Node4 -->
<g id="edge3" class="edge">
<title>Node2&#45;&gt;Node4</title>
<path fill="none" stroke="midnightblue" d="M366.94,-446.41C316.29,-436.2 240.63,-420.96 193.77,-411.52"/>
<polygon fill="midnightblue" stroke="midnightblue" points="366.54,-449.9 377.03,-448.44 367.92,-443.04 366.54,-449.9"/>
</g>
<!-- Node5 -->
<g id="node5" class="node">
<title>Node5</title>
<g id="a_node5"><a xlink:href="arch_2default-linux_2odp_2api_2abi_2classification_8h_source.html" target="_top" xlink:title=" ">
<polygon fill="white" stroke="black" points="214,-392.5 214,-411.5 303,-411.5 303,-392.5 214,-392.5"/>
<text text-anchor="middle" x="258.5" y="-399.5" font-family="Helvetica,sans-Serif" font-size="10.00">classification.h</text>
</a>
</g>
</g>
<!-- Node2&#45;&gt;Node5 -->
<g id="edge4" class="edge">
<title>Node2&#45;&gt;Node5</title>
<path fill="none" stroke="midnightblue" d="M384.24,-445.17C353.92,-435 310.93,-420.59 283.89,-411.52"/>
<polygon fill="midnightblue" stroke="midnightblue" points="383.4,-448.58 393.99,-448.44 385.62,-441.95 383.4,-448.58"/>
</g>
<!-- Node6 -->
<g id="node6" class="node">
<title>Node6</title>
<g id="a_node6"><a xlink:href="arch_2mips64-linux_2odp_2api_2abi_2classification_8h_source.html" target="_top" xlink:title=" ">
<polygon fill="white" stroke="black" points="321,-392.5 321,-411.5 410,-411.5 410,-392.5 321,-392.5"/>
<text text-anchor="middle" x="365.5" y="-399.5" font-family="Helvetica,sans-Serif" font-size="10.00">classification.h</text>
</a>
</g>
</g>
<!-- Node2&#45;&gt;Node6 -->
<g id="edge5" class="edge">
<title>Node2&#45;&gt;Node6</title>
<path fill="none" stroke="midnightblue" d="M403.5,-441C393.93,-431.43 382.14,-419.64 374.25,-411.75"/>
<polygon fill="midnightblue" stroke="midnightblue" points="401.04,-443.49 410.58,-448.08 405.99,-438.54 401.04,-443.49"/>
</g>
<!-- Node7 -->
<g id="node7" class="node">
<title>Node7</title>
<g id="a_node7"><a xlink:href="arch_2power64-linux_2odp_2api_2abi_2classification_8h_source.html" target="_top" xlink:title=" ">
<polygon fill="white" stroke="black" points="428,-392.5 428,-411.5 517,-411.5 517,-392.5 428,-392.5"/>
<text text-anchor="middle" x="472.5" y="-399.5" font-family="Helvetica,sans-Serif" font-size="10.00">classification.h</text>
</a>
</g>
</g>
<!-- Node2&#45;&gt;Node7 -->
<g id="edge6" class="edge">
<title>Node2&#45;&gt;Node7</title>
<path fill="none" stroke="midnightblue" d="M435.48,-440.72C444.82,-431.2 456.25,-419.56 463.91,-411.75"/>
<polygon fill="midnightblue" stroke="midnightblue" points="432.76,-438.49 428.25,-448.08 437.75,-443.4 432.76,-438.49"/>
</g>
<!-- Node8 -->
<g id="node8" class="node">
<title>Node8</title>
<g id="a_node8"><a xlink:href="arch_2x86__32-linux_2odp_2api_2abi_2classification_8h_source.html" target="_top" xlink:title=" ">
<polygon fill="white" stroke="black" points="535,-392.5 535,-411.5 624,-411.5 624,-392.5 535,-392.5"/>
<text text-anchor="middle" x="579.5" y="-399.5" font-family="Helvetica,sans-Serif" font-size="10.00">classification.h</text>
</a>
</g>
</g>
<!-- Node2&#45;&gt;Node8 -->
<g id="edge7" class="edge">
<title>Node2&#45;&gt;Node8</title>
<path fill="none" stroke="midnightblue" d="M454.55,-445.17C484.67,-435 527.4,-420.59 554.27,-411.52"/>
<polygon fill="midnightblue" stroke="midnightblue" points="453.21,-441.93 444.85,-448.44 455.45,-448.56 453.21,-441.93"/>
</g>
<!-- Node9 -->
<g id="node9" class="node">
<title>Node9</title>
<g id="a_node9"><a xlink:href="arch_2x86__64-linux_2odp_2api_2abi_2classification_8h_source.html" target="_top" xlink:title=" ">
<polygon fill="white" stroke="black" points="681,-392.5 681,-411.5 770,-411.5 770,-392.5 681,-392.5"/>
<text text-anchor="middle" x="725.5" y="-399.5" font-family="Helvetica,sans-Serif" font-size="10.00">classification.h</text>
</a>
</g>
</g>
<!-- Node2&#45;&gt;Node9 -->
<g id="edge8" class="edge">
<title>Node2&#45;&gt;Node9</title>
<path fill="none" stroke="midnightblue" d="M474.19,-447.35C533.1,-436.95 625.73,-420.61 680.56,-410.93"/>
<polygon fill="midnightblue" stroke="midnightblue" points="473.56,-443.91 464.32,-449.09 474.78,-450.8 473.56,-443.91"/>
</g>
<!-- Node10 -->
<g id="node10" class="node">
<title>Node10</title>
<g id="a_node10"><a xlink:href="api_2classification_8h.html" target="_top" xlink:title=" ">
<polygon fill="white" stroke="black" points="719,-224.5 719,-243.5 808,-243.5 808,-224.5 719,-224.5"/>
<text text-anchor="middle" x="763.5" y="-231.5" font-family="Helvetica,sans-Serif" font-size="10.00">classification.h</text>
</a>
</g>
</g>
<!-- Node9&#45;&gt;Node10 -->
<g id="edge9" class="edge">
<title>Node9&#45;&gt;Node10</title>
<path fill="none" stroke="midnightblue" d="M717.15,-382.81C707.17,-358.28 693.69,-313.77 709.5,-280 717.16,-263.64 734.01,-251.16 746.87,-243.54"/>
<polygon fill="midnightblue" stroke="midnightblue" points="714.06,-384.5 721.24,-392.29 720.49,-381.73 714.06,-384.5"/>
</g>
<!-- Node15 -->
<g id="node15" class="node">
<title>Node15</title>
<g id="a_node15"><a xlink:href="api_2packet__io_8h.html" target="_top" xlink:title=" ">
<polygon fill="white" stroke="black" points="800.5,-336.5 800.5,-355.5 872.5,-355.5 872.5,-336.5 800.5,-336.5"/>
<text text-anchor="middle" x="836.5" y="-343.5" font-family="Helvetica,sans-Serif" font-size="10.00">packet_io.h</text>
</a>
</g>
</g>
<!-- Node9&#45;&gt;Node15 -->
<g id="edge15" class="edge">
<title>Node9&#45;&gt;Node15</title>
<path fill="none" stroke="midnightblue" d="M752.51,-387.86C773.09,-377.85 800.84,-364.35 818.71,-355.65"/>
<polygon fill="midnightblue" stroke="midnightblue" points="750.8,-384.8 743.33,-392.32 753.86,-391.1 750.8,-384.8"/>
</g>
<!-- Node11 -->
<g id="node11" class="node">
<title>Node11</title>
<g id="a_node11"><a xlink:href="api_2spec_2ipsec_8h.html" target="_top" xlink:title=" ">
<polygon fill="white" stroke="black" points="859,-168.5 859,-187.5 910,-187.5 910,-168.5 859,-168.5"/>
<text text-anchor="middle" x="884.5" y="-175.5" font-family="Helvetica,sans-Serif" font-size="10.00">ipsec.h</text>
</a>
</g>
</g>
<!-- Node10&#45;&gt;Node11 -->
<g id="edge10" class="edge">
<title>Node10&#45;&gt;Node11</title>
<path fill="none" stroke="midnightblue" d="M791.81,-220.37C814.47,-210.26 845.63,-196.35 865.42,-187.52"/>
<polygon fill="midnightblue" stroke="midnightblue" points="790.38,-217.17 782.67,-224.44 793.23,-223.56 790.38,-217.17"/>
</g>
<!-- Node10&#45;&gt;Node13 -->
<g id="edge14" class="edge">
<title>Node10&#45;&gt;Node13</title>
<path fill="none" stroke="midnightblue" d="M771.19,-215.03C783.6,-188.26 810.66,-138.23 849.5,-112 897.2,-79.79 965.36,-70.54 1005.16,-67.94"/>
<polygon fill="midnightblue" stroke="midnightblue" points="767.91,-213.8 767.03,-224.36 774.3,-216.65 767.91,-213.8"/>
</g>
<!-- Node12 -->
<g id="node12" class="node">
<title>Node12</title>
<g id="a_node12"><a xlink:href="api_2ipsec_8h.html" target="_top" xlink:title=" ">
<polygon fill="white" stroke="black" points="859,-112.5 859,-131.5 910,-131.5 910,-112.5 859,-112.5"/>
<text text-anchor="middle" x="884.5" y="-119.5" font-family="Helvetica,sans-Serif" font-size="10.00">ipsec.h</text>
</a>
</g>
</g>
<!-- Node11&#45;&gt;Node12 -->
<g id="edge11" class="edge">
<title>Node11&#45;&gt;Node12</title>
<path fill="none" stroke="midnightblue" d="M884.5,-157.8C884.5,-148.91 884.5,-138.78 884.5,-131.75"/>
<polygon fill="midnightblue" stroke="midnightblue" points="881,-158.08 884.5,-168.08 888,-158.08 881,-158.08"/>
</g>
<!-- Node12&#45;&gt;Node13 -->
<g id="edge12" class="edge">
<title>Node12&#45;&gt;Node13</title>
<path fill="none" stroke="midnightblue" d="M918.39,-109.04C947.18,-98.88 987.79,-84.55 1013.37,-75.52"/>
<polygon fill="midnightblue" stroke="midnightblue" points="917.01,-105.81 908.74,-112.44 919.34,-112.42 917.01,-105.81"/>
</g>
<!-- Node14 -->
<g id="node14" class="node">
<title>Node14</title>
<g id="a_node14"><a xlink:href="odp_8h.html" target="_top" xlink:title=" ">
<polygon fill="white" stroke="black" points="1015.5,-0.5 1015.5,-19.5 1059.5,-19.5 1059.5,-0.5 1015.5,-0.5"/>
<text text-anchor="middle" x="1037.5" y="-7.5" font-family="Helvetica,sans-Serif" font-size="10.00">odp.h</text>
</a>
</g>
</g>
<!-- Node13&#45;&gt;Node14 -->
<g id="edge13" class="edge">
<title>Node13&#45;&gt;Node14</title>
<path fill="none" stroke="midnightblue" d="M1037.5,-45.8C1037.5,-36.91 1037.5,-26.78 1037.5,-19.75"/>
<polygon fill="midnightblue" stroke="midnightblue" points="1034,-46.08 1037.5,-56.08 1041,-46.08 1034,-46.08"/>
</g>
<!-- Node15&#45;&gt;Node11 -->
<g id="edge18" class="edge">
<title>Node15&#45;&gt;Node11</title>
<path fill="none" stroke="midnightblue" d="M837.05,-326.18C838.3,-301.85 842.35,-258.49 855.5,-224 860.73,-210.28 870.55,-196.35 877.3,-187.7"/>
<polygon fill="midnightblue" stroke="midnightblue" points="833.54,-326.34 836.64,-336.48 840.54,-326.63 833.54,-326.34"/>
</g>
<!-- Node15&#45;&gt;Node13 -->
<g id="edge23" class="edge">
<title>Node15&#45;&gt;Node13</title>
<path fill="none" stroke="midnightblue" d="M882.34,-338.25C907.7,-332.25 937.95,-321 957.5,-300 978.01,-277.97 976.5,-265.1 976.5,-235 976.5,-235 976.5,-235 976.5,-177 976.5,-134.42 1011.89,-92.88 1028.76,-75.51"/>
<polygon fill="midnightblue" stroke="midnightblue" points="881.56,-334.84 872.53,-340.37 883.04,-341.68 881.56,-334.84"/>
</g>
<!-- Node16 -->
<g id="node16" class="node">
<title>Node16</title>
<g id="a_node16"><a xlink:href="api_2spec_2classification_8h.html" target="_top" xlink:title=" ">
<polygon fill="white" stroke="black" points="719,-280.5 719,-299.5 808,-299.5 808,-280.5 719,-280.5"/>
<text text-anchor="middle" x="763.5" y="-287.5" font-family="Helvetica,sans-Serif" font-size="10.00">classification.h</text>
</a>
</g>
</g>
<!-- Node15&#45;&gt;Node16 -->
<g id="edge16" class="edge">
<title>Node15&#45;&gt;Node16</title>
<path fill="none" stroke="midnightblue" d="M816.36,-330.1C803.22,-320.38 786.52,-308.03 775.44,-299.83"/>
<polygon fill="midnightblue" stroke="midnightblue" points="814.65,-333.19 824.77,-336.32 818.81,-327.56 814.65,-333.19"/>
</g>
<!-- Node17 -->
<g id="node17" class="node">
<title>Node17</title>
<g id="a_node17"><a xlink:href="api_2spec_2traffic__mngr_8h.html" target="_top" xlink:title=" ">
<polygon fill="white" stroke="black" points="864.5,-280.5 864.5,-299.5 948.5,-299.5 948.5,-280.5 864.5,-280.5"/>
<text text-anchor="middle" x="906.5" y="-287.5" font-family="Helvetica,sans-Serif" font-size="10.00">traffic_mngr.h</text>
</a>
</g>
</g>
<!-- Node15&#45;&gt;Node17 -->
<g id="edge19" class="edge">
<title>Node15&#45;&gt;Node17</title>
<path fill="none" stroke="midnightblue" d="M855.81,-330.1C868.41,-320.38 884.43,-308.03 895.05,-299.83"/>
<polygon fill="midnightblue" stroke="midnightblue" points="853.53,-327.44 847.75,-336.32 857.8,-332.99 853.53,-327.44"/>
</g>
<!-- Node16&#45;&gt;Node10 -->
<g id="edge17" class="edge">
<title>Node16&#45;&gt;Node10</title>
<path fill="none" stroke="midnightblue" d="M763.5,-269.8C763.5,-260.91 763.5,-250.78 763.5,-243.75"/>
<polygon fill="midnightblue" stroke="midnightblue" points="760,-270.08 763.5,-280.08 767,-270.08 760,-270.08"/>
</g>
<!-- Node18 -->
<g id="node18" class="node">
<title>Node18</title>
<g id="a_node18"><a xlink:href="api_2traffic__mngr_8h.html" target="_top" xlink:title=" ">
<polygon fill="white" stroke="black" points="864.5,-224.5 864.5,-243.5 948.5,-243.5 948.5,-224.5 864.5,-224.5"/>
<text text-anchor="middle" x="906.5" y="-231.5" font-family="Helvetica,sans-Serif" font-size="10.00">traffic_mngr.h</text>
</a>
</g>
</g>
<!-- Node17&#45;&gt;Node18 -->
<g id="edge20" class="edge">
<title>Node17&#45;&gt;Node18</title>
<path fill="none" stroke="midnightblue" d="M906.5,-269.8C906.5,-260.91 906.5,-250.78 906.5,-243.75"/>
<polygon fill="midnightblue" stroke="midnightblue" points="903,-270.08 906.5,-280.08 910,-270.08 903,-270.08"/>
</g>
<!-- Node18&#45;&gt;Node11 -->
<g id="edge21" class="edge">
<title>Node18&#45;&gt;Node11</title>
<path fill="none" stroke="midnightblue" d="M899.04,-214.69C895.33,-205.59 891.02,-195.01 888.07,-187.75"/>
<polygon fill="midnightblue" stroke="midnightblue" points="895.85,-216.14 902.87,-224.08 902.34,-213.5 895.85,-216.14"/>
</g>
<!-- Node18&#45;&gt;Node13 -->
<g id="edge22" class="edge">
<title>Node18&#45;&gt;Node13</title>
<path fill="none" stroke="midnightblue" d="M911.3,-214.55C918.7,-189.02 935.01,-142.6 962.5,-112 977.32,-95.51 999.63,-83.19 1016.06,-75.65"/>
<polygon fill="midnightblue" stroke="midnightblue" points="907.87,-213.83 908.59,-224.4 914.62,-215.69 907.87,-213.83"/>
</g>
<!-- Node20 -->
<g id="node20" class="node">
<title>Node20</title>
<g id="a_node20"><a xlink:href="api_2crypto_8h.html" target="_top" xlink:title=" ">
<polygon fill="white" stroke="black" points="1042.5,-224.5 1042.5,-243.5 1098.5,-243.5 1098.5,-224.5 1042.5,-224.5"/>
<text text-anchor="middle" x="1070.5" y="-231.5" font-family="Helvetica,sans-Serif" font-size="10.00">crypto.h</text>
</a>
</g>
</g>
<!-- Node19&#45;&gt;Node20 -->
<g id="edge25" class="edge">
<title>Node19&#45;&gt;Node20</title>
<path fill="none" stroke="midnightblue" d="M1045.56,-719.34C1055.63,-698.03 1070.5,-660.84 1070.5,-627 1070.5,-627 1070.5,-627 1070.5,-345 1070.5,-307.19 1070.5,-262.06 1070.5,-243.56"/>
<polygon fill="midnightblue" stroke="midnightblue" points="1042.36,-717.92 1041.09,-728.44 1048.64,-721.01 1042.36,-717.92"/>
</g>
<!-- Node20&#45;&gt;Node11 -->
<g id="edge26" class="edge">
<title>Node20&#45;&gt;Node11</title>
<path fill="none" stroke="midnightblue" d="M1032.44,-221.95C995.88,-211.34 941.66,-195.59 910.02,-186.41"/>
<polygon fill="midnightblue" stroke="midnightblue" points="1031.67,-225.37 1042.25,-224.8 1033.62,-218.65 1031.67,-225.37"/>
</g>
<!-- Node20&#45;&gt;Node13 -->
<g id="edge27" class="edge">
<title>Node20&#45;&gt;Node13</title>
<path fill="none" stroke="midnightblue" d="M1066.71,-213.93C1059.55,-177.92 1044.31,-101.23 1039.2,-75.57"/>
<polygon fill="midnightblue" stroke="midnightblue" points="1063.34,-214.95 1068.73,-224.08 1070.21,-213.58 1063.34,-214.95"/>
</g>
<!-- Node21&#45;&gt;Node15 -->
<g id="edge29" class="edge">
<title>Node21&#45;&gt;Node15</title>
<path fill="none" stroke="midnightblue" d="M836.5,-381.8C836.5,-372.91 836.5,-362.78 836.5,-355.75"/>
<polygon fill="midnightblue" stroke="midnightblue" points="833,-382.08 836.5,-392.08 840,-382.08 833,-382.08"/>
</g>
<!-- Node23 -->
<g id="node23" class="node">
<title>Node23</title>
<g id="a_node23"><a xlink:href="packet__io__stats_8h.html" target="_top" xlink:title=" ">
<polygon fill="white" stroke="black" points="829,-448.5 829,-467.5 930,-467.5 930,-448.5 829,-448.5"/>
<text text-anchor="middle" x="879.5" y="-455.5" font-family="Helvetica,sans-Serif" font-size="10.00">packet_io_stats.h</text>
</a>
</g>
</g>
<!-- Node22&#45;&gt;Node23 -->
<g id="edge31" class="edge">
<title>Node22&#45;&gt;Node23</title>
<path fill="none" stroke="midnightblue" d="M879.5,-493.8C879.5,-484.91 879.5,-474.78 879.5,-467.75"/>
<polygon fill="midnightblue" stroke="midnightblue" points="876,-494.08 879.5,-504.08 883,-494.08 876,-494.08"/>
</g>
<!-- Node23&#45;&gt;Node21 -->
<g id="edge32" class="edge">
<title>Node23&#45;&gt;Node21</title>
<path fill="none" stroke="midnightblue" d="M866.08,-440.14C858.59,-430.74 849.56,-419.4 843.47,-411.75"/>
<polygon fill="midnightblue" stroke="midnightblue" points="863.43,-442.44 872.4,-448.08 868.91,-438.08 863.43,-442.44"/>
</g>
<!-- Node25 -->
<g id="node25" class="node">
<title>Node25</title>
<g id="a_node25"><a xlink:href="api_2queue__types_8h.html" target="_top" xlink:title=" ">
<polygon fill="white" stroke="black" points="876.5,-1008.5 876.5,-1027.5 964.5,-1027.5 964.5,-1008.5 876.5,-1008.5"/>
<text text-anchor="middle" x="920.5" y="-1015.5" font-family="Helvetica,sans-Serif" font-size="10.00">queue_types.h</text>
</a>
</g>
</g>
<!-- Node24&#45;&gt;Node25 -->
<g id="edge34" class="edge">
<title>Node24&#45;&gt;Node25</title>
<path fill="none" stroke="midnightblue" d="M919.21,-1053.8C919.54,-1044.91 919.92,-1034.78 920.18,-1027.75"/>
<polygon fill="midnightblue" stroke="midnightblue" points="915.7,-1053.96 918.83,-1064.08 922.7,-1054.22 915.7,-1053.96"/>
</g>
<!-- Node25&#45;&gt;Node21 -->
<g id="edge35" class="edge">
<title>Node25&#45;&gt;Node21</title>
<path fill="none" stroke="midnightblue" d="M909.49,-999.8C879.84,-951.77 800.5,-811.26 800.5,-683 800.5,-683 800.5,-683 800.5,-513 800.5,-473.41 821.82,-429.61 831.64,-411.53"/>
<polygon fill="midnightblue" stroke="midnightblue" points="906.59,-1001.77 914.87,-1008.38 912.53,-998.05 906.59,-1001.77"/>
</g>
<!-- Node26 -->
<g id="node26" class="node">
<title>Node26</title>
<g id="a_node26"><a xlink:href="api_2spec_2packet__types_8h.html" target="_top" xlink:title=" ">
<polygon fill="white" stroke="black" points="961.5,-952.5 961.5,-971.5 1051.5,-971.5 1051.5,-952.5 961.5,-952.5"/>
<text text-anchor="middle" x="1006.5" y="-959.5" font-family="Helvetica,sans-Serif" font-size="10.00">packet_types.h</text>
</a>
</g>
</g>
<!-- Node25&#45;&gt;Node26 -->
<g id="edge36" class="edge">
<title>Node25&#45;&gt;Node26</title>
<path fill="none" stroke="midnightblue" d="M942.95,-1002.9C958.72,-993 979.31,-980.07 992.72,-971.65"/>
<polygon fill="midnightblue" stroke="midnightblue" points="940.93,-1000.04 934.32,-1008.32 944.65,-1005.97 940.93,-1000.04"/>
</g>
<!-- Node34 -->
<g id="node34" class="node">
<title>Node34</title>
<g id="a_node34"><a xlink:href="api_2spec_2queue_8h.html" target="_top" xlink:title=" ">
<polygon fill="white" stroke="black" points="986.5,-616.5 986.5,-635.5 1042.5,-635.5 1042.5,-616.5 986.5,-616.5"/>
<text text-anchor="middle" x="1014.5" y="-623.5" font-family="Helvetica,sans-Serif" font-size="10.00">queue.h</text>
</a>
</g>
</g>
<!-- Node25&#45;&gt;Node34 -->
<g id="edge59" class="edge">
<title>Node25&#45;&gt;Node34</title>
<path fill="none" stroke="midnightblue" d="M920.5,-998.25C920.5,-976.36 920.5,-939.05 920.5,-907 920.5,-907 920.5,-907 920.5,-737 920.5,-689.27 972.28,-651.8 998.98,-635.65"/>
<polygon fill="midnightblue" stroke="midnightblue" points="917,-998.44 920.5,-1008.44 924,-998.44 917,-998.44"/>
</g>
<!-- Node36 -->
<g id="node36" class="node">
<title>Node36</title>
<g id="a_node36"><a xlink:href="api_2spec_2schedule_8h.html" target="_top" xlink:title=" ">
<polygon fill="white" stroke="black" points="1335,-616.5 1335,-635.5 1404,-635.5 1404,-616.5 1335,-616.5"/>
<text text-anchor="middle" x="1369.5" y="-623.5" font-family="Helvetica,sans-Serif" font-size="10.00">schedule.h</text>
</a>
</g>
</g>
<!-- Node25&#45;&gt;Node36 -->
<g id="edge60" class="edge">
<title>Node25&#45;&gt;Node36</title>
<path fill="none" stroke="midnightblue" d="M975.03,-1015.32C1096.45,-1010.1 1378.5,-989.14 1378.5,-907 1378.5,-907 1378.5,-907 1378.5,-737 1378.5,-699.06 1373.12,-654.01 1370.68,-635.54"/>
<polygon fill="midnightblue" stroke="midnightblue" points="974.68,-1011.83 964.83,-1015.74 974.97,-1018.83 974.68,-1011.83"/>
</g>
<!-- Node27 -->
<g id="node27" class="node">
<title>Node27</title>
<g id="a_node27"><a xlink:href="api_2packet__types_8h.html" target="_top" xlink:title=" ">
<polygon fill="white" stroke="black" points="1010.5,-896.5 1010.5,-915.5 1100.5,-915.5 1100.5,-896.5 1010.5,-896.5"/>
<text text-anchor="middle" x="1055.5" y="-903.5" font-family="Helvetica,sans-Serif" font-size="10.00">packet_types.h</text>
</a>
</g>
</g>
<!-- Node26&#45;&gt;Node27 -->
<g id="edge37" class="edge">
<title>Node26&#45;&gt;Node27</title>
<path fill="none" stroke="midnightblue" d="M1021.53,-944.43C1030.12,-934.97 1040.54,-923.48 1047.56,-915.75"/>
<polygon fill="midnightblue" stroke="midnightblue" points="1018.72,-942.33 1014.59,-952.08 1023.9,-947.03 1018.72,-942.33"/>
</g>
<!-- Node28 -->
<g id="node28" class="node">
<title>Node28</title>
<g id="a_node28"><a xlink:href="api_2spec_2packet_8h.html" target="_top" xlink:title=" ">
<polygon fill="white" stroke="black" points="1051.5,-840.5 1051.5,-859.5 1109.5,-859.5 1109.5,-840.5 1051.5,-840.5"/>
<text text-anchor="middle" x="1080.5" y="-847.5" font-family="Helvetica,sans-Serif" font-size="10.00">packet.h</text>
</a>
</g>
</g>
<!-- Node27&#45;&gt;Node28 -->
<g id="edge38" class="edge">
<title>Node27&#45;&gt;Node28</title>
<path fill="none" stroke="midnightblue" d="M1063.84,-886.98C1068.08,-877.82 1073.05,-867.09 1076.45,-859.75"/>
<polygon fill="midnightblue" stroke="midnightblue" points="1060.65,-885.54 1059.63,-896.08 1067.01,-888.48 1060.65,-885.54"/>
</g>
<!-- Node29 -->
<g id="node29" class="node">
<title>Node29</title>
<g id="a_node29"><a xlink:href="api_2packet_8h.html" target="_top" xlink:title=" ">
<polygon fill="white" stroke="black" points="1063.5,-784.5 1063.5,-803.5 1121.5,-803.5 1121.5,-784.5 1063.5,-784.5"/>
<text text-anchor="middle" x="1092.5" y="-791.5" font-family="Helvetica,sans-Serif" font-size="10.00">packet.h</text>
</a>
</g>
</g>
<!-- Node28&#45;&gt;Node29 -->
<g id="edge39" class="edge">
<title>Node28&#45;&gt;Node29</title>
<path fill="none" stroke="midnightblue" d="M1084.7,-830.1C1086.69,-821.14 1088.98,-810.86 1090.56,-803.75"/>
<polygon fill="midnightblue" stroke="midnightblue" points="1081.23,-829.56 1082.48,-840.08 1088.07,-831.08 1081.23,-829.56"/>
</g>
<!-- Node29&#45;&gt;Node13 -->
<g id="edge58" class="edge">
<title>Node29&#45;&gt;Node13</title>
<path fill="none" stroke="midnightblue" d="M1095.96,-773.91C1108.47,-701.39 1148.55,-436.3 1107.5,-224 1095.83,-163.64 1057.61,-98.76 1043.13,-75.72"/>
<polygon fill="midnightblue" stroke="midnightblue" points="1092.43,-773.74 1094.14,-784.19 1099.33,-774.95 1092.43,-773.74"/>
</g>
<!-- Node29&#45;&gt;Node19 -->
<g id="edge43" class="edge">
<title>Node29&#45;&gt;Node19</title>
<path fill="none" stroke="midnightblue" d="M1076.17,-777.25C1066.24,-767.67 1053.91,-755.79 1045.66,-747.83"/>
<polygon fill="midnightblue" stroke="midnightblue" points="1073.87,-779.9 1083.5,-784.32 1078.73,-774.86 1073.87,-779.9"/>
</g>
<!-- Node29&#45;&gt;Node21 -->
<g id="edge57" class="edge">
<title>Node29&#45;&gt;Node21</title>
<path fill="none" stroke="midnightblue" d="M1055.98,-780.91C1016.3,-765.19 958.5,-733.61 958.5,-683 958.5,-683 958.5,-683 958.5,-513 958.5,-482.77 958.59,-470.59 938.5,-448 921.39,-428.76 894.53,-417.37 872.67,-410.86"/>
<polygon fill="midnightblue" stroke="midnightblue" points="1054.79,-784.2 1065.38,-784.47 1057.27,-777.65 1054.79,-784.2"/>
</g>
<!-- Node30 -->
<g id="node30" class="node">
<title>Node30</title>
<g id="a_node30"><a xlink:href="api_2spec_2comp_8h.html" target="_top" xlink:title=" ">
<polygon fill="white" stroke="black" points="1121,-728.5 1121,-747.5 1174,-747.5 1174,-728.5 1121,-728.5"/>
<text text-anchor="middle" x="1147.5" y="-735.5" font-family="Helvetica,sans-Serif" font-size="10.00">comp.h</text>
</a>
</g>
</g>
<!-- Node29&#45;&gt;Node30 -->
<g id="edge40" class="edge">
<title>Node29&#45;&gt;Node30</title>
<path fill="none" stroke="midnightblue" d="M1108.79,-777C1118.54,-767.43 1130.55,-755.64 1138.59,-747.75"/>
<polygon fill="midnightblue" stroke="midnightblue" points="1106.27,-774.58 1101.58,-784.08 1111.17,-779.57 1106.27,-774.58"/>
</g>
<!-- Node32 -->
<g id="node32" class="node">
<title>Node32</title>
<g id="a_node32"><a xlink:href="api_2spec_2event_8h.html" target="_top" xlink:title=" ">
<polygon fill="white" stroke="black" points="1297,-728.5 1297,-747.5 1350,-747.5 1350,-728.5 1297,-728.5"/>
<text text-anchor="middle" x="1323.5" y="-735.5" font-family="Helvetica,sans-Serif" font-size="10.00">event.h</text>
</a>
</g>
</g>
<!-- Node29&#45;&gt;Node32 -->
<g id="edge44" class="edge">
<title>Node29&#45;&gt;Node32</title>
<path fill="none" stroke="midnightblue" d="M1131.6,-784.2C1171,-775.27 1233.54,-760.97 1287.5,-748 1290.51,-747.28 1293.65,-746.51 1296.78,-745.74"/>
<polygon fill="midnightblue" stroke="midnightblue" points="1130.59,-780.84 1121.61,-786.46 1132.14,-787.66 1130.59,-780.84"/>
</g>
<!-- Node38 -->
<g id="node38" class="node">
<title>Node38</title>
<g id="a_node38"><a xlink:href="api_2spec_2packet__flags_8h.html" target="_top" xlink:title=" ">
<polygon fill="white" stroke="black" points="1192.5,-728.5 1192.5,-747.5 1278.5,-747.5 1278.5,-728.5 1192.5,-728.5"/>
<text text-anchor="middle" x="1235.5" y="-735.5" font-family="Helvetica,sans-Serif" font-size="10.00">packet_flags.h</text>
</a>
</g>
</g>
<!-- Node29&#45;&gt;Node38 -->
<g id="edge54" class="edge">
<title>Node29&#45;&gt;Node38</title>
<path fill="none" stroke="midnightblue" d="M1124.53,-780.91C1151.41,-770.75 1189.14,-756.51 1212.95,-747.52"/>
<polygon fill="midnightblue" stroke="midnightblue" points="1123.28,-777.64 1115.16,-784.44 1125.75,-784.19 1123.28,-777.64"/>
</g>
<!-- Node31 -->
<g id="node31" class="node">
<title>Node31</title>
<g id="a_node31"><a xlink:href="api_2comp_8h.html" target="_top" xlink:title=" ">
<polygon fill="white" stroke="black" points="1138,-504.5 1138,-523.5 1191,-523.5 1191,-504.5 1138,-504.5"/>
<text text-anchor="middle" x="1164.5" y="-511.5" font-family="Helvetica,sans-Serif" font-size="10.00">comp.h</text>
</a>
</g>
</g>
<!-- Node30&#45;&gt;Node31 -->
<g id="edge41" class="edge">
<title>Node30&#45;&gt;Node31</title>
<path fill="none" stroke="midnightblue" d="M1148.93,-718.3C1152.43,-672.64 1161.29,-556.85 1163.82,-523.88"/>
<polygon fill="midnightblue" stroke="midnightblue" points="1145.44,-718.06 1148.17,-728.3 1152.42,-718.59 1145.44,-718.06"/>
</g>
<!-- Node31&#45;&gt;Node13 -->
<g id="edge42" class="edge">
<title>Node31&#45;&gt;Node13</title>
<path fill="none" stroke="midnightblue" d="M1164.5,-494.25C1164.5,-472.36 1164.5,-435.05 1164.5,-403 1164.5,-403 1164.5,-403 1164.5,-177 1164.5,-146.2 1161.63,-134.4 1140.5,-112 1121.62,-91.99 1092.29,-80.37 1069.75,-73.97"/>
<polygon fill="midnightblue" stroke="midnightblue" points="1161,-494.44 1164.5,-504.44 1168,-494.44 1161,-494.44"/>
</g>
<!-- Node33 -->
<g id="node33" class="node">
<title>Node33</title>
<g id="a_node33"><a xlink:href="api_2event_8h.html" target="_top" xlink:title=" ">
<polygon fill="white" stroke="black" points="1288,-672.5 1288,-691.5 1341,-691.5 1341,-672.5 1288,-672.5"/>
<text text-anchor="middle" x="1314.5" y="-679.5" font-family="Helvetica,sans-Serif" font-size="10.00">event.h</text>
</a>
</g>
</g>
<!-- Node32&#45;&gt;Node33 -->
<g id="edge45" class="edge">
<title>Node32&#45;&gt;Node33</title>
<path fill="none" stroke="midnightblue" d="M1320.35,-718.1C1318.86,-709.14 1317.14,-698.86 1315.96,-691.75"/>
<polygon fill="midnightblue" stroke="midnightblue" points="1316.92,-718.79 1322.01,-728.08 1323.82,-717.64 1316.92,-718.79"/>
</g>
<!-- Node33&#45;&gt;Node13 -->
<g id="edge53" class="edge">
<title>Node33&#45;&gt;Node13</title>
<path fill="none" stroke="midnightblue" d="M1312.31,-662.28C1309.94,-640.42 1306.5,-603.14 1306.5,-571 1306.5,-571 1306.5,-571 1306.5,-177 1306.5,-126.36 1141.08,-87.5 1069.68,-73.08"/>
<polygon fill="midnightblue" stroke="midnightblue" points="1308.86,-662.91 1313.45,-672.46 1315.81,-662.13 1308.86,-662.91"/>
</g>
<!-- Node33&#45;&gt;Node34 -->
<g id="edge46" class="edge">
<title>Node33&#45;&gt;Node34</title>
<path fill="none" stroke="midnightblue" d="M1277.99,-674.43C1217.42,-663.53 1097.45,-641.93 1042.81,-632.1"/>
<polygon fill="midnightblue" stroke="midnightblue" points="1277.42,-677.88 1287.88,-676.21 1278.66,-670.99 1277.42,-677.88"/>
</g>
<!-- Node33&#45;&gt;Node36 -->
<g id="edge50" class="edge">
<title>Node33&#45;&gt;Node36</title>
<path fill="none" stroke="midnightblue" d="M1330.79,-665C1340.54,-655.43 1352.55,-643.64 1360.59,-635.75"/>
<polygon fill="midnightblue" stroke="midnightblue" points="1328.27,-662.58 1323.58,-672.08 1333.17,-667.57 1328.27,-662.58"/>
</g>
<!-- Node35 -->
<g id="node35" class="node">
<title>Node35</title>
<g id="a_node35"><a xlink:href="api_2queue_8h.html" target="_top" xlink:title=" ">
<polygon fill="white" stroke="black" points="986.5,-560.5 986.5,-579.5 1042.5,-579.5 1042.5,-560.5 986.5,-560.5"/>
<text text-anchor="middle" x="1014.5" y="-567.5" font-family="Helvetica,sans-Serif" font-size="10.00">queue.h</text>
</a>
</g>
</g>
<!-- Node34&#45;&gt;Node35 -->
<g id="edge47" class="edge">
<title>Node34&#45;&gt;Node35</title>
<path fill="none" stroke="midnightblue" d="M1014.5,-605.8C1014.5,-596.91 1014.5,-586.78 1014.5,-579.75"/>
<polygon fill="midnightblue" stroke="midnightblue" points="1011,-606.08 1014.5,-616.08 1018,-606.08 1011,-606.08"/>
</g>
<!-- Node35&#45;&gt;Node13 -->
<g id="edge49" class="edge">
<title>Node35&#45;&gt;Node13</title>
<path fill="none" stroke="midnightblue" d="M1014.5,-550.25C1014.5,-528.36 1014.5,-491.05 1014.5,-459 1014.5,-459 1014.5,-459 1014.5,-177 1014.5,-138.56 1028.12,-94.14 1034.4,-75.71"/>
<polygon fill="midnightblue" stroke="midnightblue" points="1011,-550.44 1014.5,-560.44 1018,-550.44 1011,-550.44"/>
</g>
<!-- Node35&#45;&gt;Node22 -->
<g id="edge48" class="edge">
<title>Node35&#45;&gt;Node22</title>
<path fill="none" stroke="midnightblue" d="M983.59,-556.64C958.26,-546.5 923.07,-532.43 900.79,-523.52"/>
<polygon fill="midnightblue" stroke="midnightblue" points="982.52,-559.98 993.11,-560.44 985.12,-553.48 982.52,-559.98"/>
</g>
<!-- Node37 -->
<g id="node37" class="node">
<title>Node37</title>
<g id="a_node37"><a xlink:href="api_2schedule_8h.html" target="_top" xlink:title=" ">
<polygon fill="white" stroke="black" points="1335,-168.5 1335,-187.5 1404,-187.5 1404,-168.5 1335,-168.5"/>
<text text-anchor="middle" x="1369.5" y="-175.5" font-family="Helvetica,sans-Serif" font-size="10.00">schedule.h</text>
</a>
</g>
</g>
<!-- Node36&#45;&gt;Node37 -->
<g id="edge51" class="edge">
<title>Node36&#45;&gt;Node37</title>
<path fill="none" stroke="midnightblue" d="M1369.5,-606.25C1369.5,-584.36 1369.5,-547.05 1369.5,-515 1369.5,-515 1369.5,-515 1369.5,-289 1369.5,-251.19 1369.5,-206.06 1369.5,-187.56"/>
<polygon fill="midnightblue" stroke="midnightblue" points="1366,-606.44 1369.5,-616.44 1373,-606.44 1366,-606.44"/>
</g>
<!-- Node37&#45;&gt;Node13 -->
<g id="edge52" class="edge">
<title>Node37&#45;&gt;Node13</title>
<path fill="none" stroke="midnightblue" d="M1361.02,-159.19C1352.84,-144.07 1338.98,-123.11 1320.5,-112 1278.71,-86.88 1135.02,-73.85 1069.96,-69.12"/>
<polygon fill="midnightblue" stroke="midnightblue" points="1357.91,-160.79 1365.57,-168.12 1364.15,-157.62 1357.91,-160.79"/>
</g>
<!-- Node39 -->
<g id="node39" class="node">
<title>Node39</title>
<g id="a_node39"><a xlink:href="api_2packet__flags_8h.html" target="_top" xlink:title=" ">
<polygon fill="white" stroke="black" points="1192.5,-336.5 1192.5,-355.5 1278.5,-355.5 1278.5,-336.5 1192.5,-336.5"/>
<text text-anchor="middle" x="1235.5" y="-343.5" font-family="Helvetica,sans-Serif" font-size="10.00">packet_flags.h</text>
</a>
</g>
</g>
<!-- Node38&#45;&gt;Node39 -->
<g id="edge55" class="edge">
<title>Node38&#45;&gt;Node39</title>
<path fill="none" stroke="midnightblue" d="M1235.5,-718.25C1235.5,-696.36 1235.5,-659.05 1235.5,-627 1235.5,-627 1235.5,-627 1235.5,-457 1235.5,-419.19 1235.5,-374.06 1235.5,-355.56"/>
<polygon fill="midnightblue" stroke="midnightblue" points="1232,-718.44 1235.5,-728.44 1239,-718.44 1232,-718.44"/>
</g>
<!-- Node39&#45;&gt;Node13 -->
<g id="edge56" class="edge">
<title>Node39&#45;&gt;Node13</title>
<path fill="none" stroke="midnightblue" d="M1230.83,-326.36C1225.8,-304.58 1218.5,-267.42 1218.5,-235 1218.5,-235 1218.5,-235 1218.5,-177 1218.5,-108.24 1121.92,-81.24 1069.86,-71.68"/>
<polygon fill="midnightblue" stroke="midnightblue" points="1227.47,-327.33 1233.21,-336.23 1234.27,-325.69 1227.47,-327.33"/>
</g>
</g>
</svg>
