<?xml version="1.0" encoding="UTF-8" standalone="no"?>
<!DOCTYPE svg PUBLIC "-//W3C//DTD SVG 1.1//EN"
 "http://www.w3.org/Graphics/SVG/1.1/DTD/svg11.dtd">
<!-- Generated by graphviz version 2.43.0 (0)
 -->
<!-- Title: arch Pages: 1 -->
<svg width="794pt" height="159pt"
 viewBox="0.00 0.00 794.00 159.00" xmlns="http://www.w3.org/2000/svg" xmlns:xlink="http://www.w3.org/1999/xlink">
<g id="graph0" class="graph" transform="scale(1 1) rotate(0) translate(4 155)">
<title>arch</title>
<polygon fill="white" stroke="transparent" points="-4,4 -4,-155 790,-155 790,4 -4,4"/>
<g id="clust1" class="cluster">
<title>clusterdir_a97ec78d987d17ef5986981beb9a2005</title>
<g id="a_clust1"><a xlink:href="dir_a97ec78d987d17ef5986981beb9a2005.html" target="_top" xlink:title="odp">
<polygon fill="#ddddee" stroke="black" points="8,-56 8,-143 778,-143 778,-56 8,-56"/>
<text text-anchor="middle" x="393" y="-131" font-family="Helvetica,sans-Serif" font-size="10.00">odp</text>
</a>
</g>
</g>
<g id="clust2" class="cluster">
<title>clusterdir_4eda4fd55dd0f0d3e72752e79818319a</title>
<g id="a_clust2"><a xlink:href="dir_4eda4fd55dd0f0d3e72752e79818319a.html" target="_top">
<polygon fill="#eeeeff" stroke="black" points="16,-64 16,-116 770,-116 770,-64 16,-64"/>
</a>
</g>
</g>
<!-- dir_4eda4fd55dd0f0d3e72752e79818319a -->
<g id="node1" class="node">
<title>dir_4eda4fd55dd0f0d3e72752e79818319a</title>
<text text-anchor="middle" x="735" y="-87.5" font-family="Helvetica,sans-Serif" font-size="10.00">arch</text>
</g>
<!-- dir_052e7602a29a4e1039e7de666bce86ca -->
<g id="node2" class="node">
<title>dir_052e7602a29a4e1039e7de666bce86ca</title>
<g id="a_node2"><a xlink:href="dir_052e7602a29a4e1039e7de666bce86ca.html" target="_top" xlink:title="arm32&#45;linux">
<polygon fill="white" stroke="red" points="690,-108 614,-108 614,-72 690,-72 690,-108"/>
<text text-anchor="middle" x="652" y="-87.5" font-family="Helvetica,sans-Serif" font-size="10.00">arm32&#45;linux</text>
</a>
</g>
</g>
<!-- dir_be9f6d876b8eda462084eff1b3ea4553 -->
<g id="node9" class="node">
<title>dir_be9f6d876b8eda462084eff1b3ea4553</title>
<g id="a_node9"><a xlink:href="dir_be9f6d876b8eda462084eff1b3ea4553.html" target="_top" xlink:title="api">
<polygon fill="white" stroke="red" points="391,-36 337,-36 337,0 391,0 391,-36"/>
<text text-anchor="middle" x="364" y="-15.5" font-family="Helvetica,sans-Serif" font-size="10.00">api</text>
</a>
</g>
</g>
<!-- dir_052e7602a29a4e1039e7de666bce86ca&#45;&gt;dir_be9f6d876b8eda462084eff1b3ea4553 -->
<g id="edge7" class="edge">
<title>dir_052e7602a29a4e1039e7de666bce86ca&#45;&gt;dir_be9f6d876b8eda462084eff1b3ea4553</title>
<path fill="none" stroke="black" d="M631.68,-71.66C623.81,-65.8 614.44,-59.79 605,-56 536.58,-28.49 449.67,-21.29 401.12,-19.49"/>
<polygon fill="black" stroke="black" points="401.18,-15.99 391.08,-19.18 400.97,-22.99 401.18,-15.99"/>
<g id="a_edge7&#45;headlabel"><a xlink:href="dir_000006_000002.html" target="_top" xlink:title="25">
<text text-anchor="middle" x="404.87" y="-10.77" font-family="Helvetica,sans-Serif" font-size="10.00">25</text>
</a>
</g>
</g>
<!-- dir_70eaa2f41713610ea0cf8498c63ac358 -->
<g id="node3" class="node">
<title>dir_70eaa2f41713610ea0cf8498c63ac358</title>
<g id="a_node3"><a xlink:href="dir_70eaa2f41713610ea0cf8498c63ac358.html" target="_top" xlink:title="arm64&#45;linux">
<polygon fill="white" stroke="red" points="596,-108 520,-108 520,-72 596,-72 596,-108"/>
<text text-anchor="middle" x="558" y="-87.5" font-family="Helvetica,sans-Serif" font-size="10.00">arm64&#45;linux</text>
</a>
</g>
</g>
<!-- dir_70eaa2f41713610ea0cf8498c63ac358&#45;&gt;dir_be9f6d876b8eda462084eff1b3ea4553 -->
<g id="edge2" class="edge">
<title>dir_70eaa2f41713610ea0cf8498c63ac358&#45;&gt;dir_be9f6d876b8eda462084eff1b3ea4553</title>
<path fill="none" stroke="black" d="M537.01,-71.8C529.22,-66.09 520.07,-60.15 511,-56 475.47,-39.73 431.7,-29.89 401.2,-24.49"/>
<polygon fill="black" stroke="black" points="401.45,-20.98 391,-22.76 400.28,-27.88 401.45,-20.98"/>
<g id="a_edge2&#45;headlabel"><a xlink:href="dir_000010_000002.html" target="_top" xlink:title="25">
<text text-anchor="middle" x="405.47" y="-16.28" font-family="Helvetica,sans-Serif" font-size="10.00">25</text>
</a>
</g>
</g>
<!-- dir_48117faa50f292645806ea8fb70008d8 -->
<g id="node4" class="node">
<title>dir_48117faa50f292645806ea8fb70008d8</title>
<g id="a_node4"><a xlink:href="dir_48117faa50f292645806ea8fb70008d8.html" target="_top" xlink:title="default&#45;linux">
<polygon fill="white" stroke="red" points="501.5,-108 422.5,-108 422.5,-72 501.5,-72 501.5,-108"/>
<text text-anchor="middle" x="462" y="-87.5" font-family="Helvetica,sans-Serif" font-size="10.00">default&#45;linux</text>
</a>
</g>
</g>
<!-- dir_48117faa50f292645806ea8fb70008d8&#45;&gt;dir_be9f6d876b8eda462084eff1b3ea4553 -->
<g id="edge4" class="edge">
<title>dir_48117faa50f292645806ea8fb70008d8&#45;&gt;dir_be9f6d876b8eda462084eff1b3ea4553</title>
<path fill="none" stroke="black" d="M438.03,-71.88C425.45,-62.89 409.87,-51.76 396.25,-42.03"/>
<polygon fill="black" stroke="black" points="398.24,-39.15 388.07,-36.19 394.17,-44.85 398.24,-39.15"/>
<g id="a_edge4&#45;headlabel"><a xlink:href="dir_000014_000002.html" target="_top" xlink:title="25">
<text text-anchor="middle" x="402.81" y="-36.43" font-family="Helvetica,sans-Serif" font-size="10.00">25</text>
</a>
</g>
</g>
<!-- dir_178cc946f187f307d85774a5fd402eaa -->
<g id="node5" class="node">
<title>dir_178cc946f187f307d85774a5fd402eaa</title>
<g id="a_node5"><a xlink:href="dir_178cc946f187f307d85774a5fd402eaa.html" target="_top" xlink:title="mips64&#45;linux">
<polygon fill="white" stroke="red" points="404,-108 324,-108 324,-72 404,-72 404,-108"/>
<text text-anchor="middle" x="364" y="-87.5" font-family="Helvetica,sans-Serif" font-size="10.00">mips64&#45;linux</text>
</a>
</g>
</g>
<!-- dir_178cc946f187f307d85774a5fd402eaa&#45;&gt;dir_be9f6d876b8eda462084eff1b3ea4553 -->
<g id="edge6" class="edge">
<title>dir_178cc946f187f307d85774a5fd402eaa&#45;&gt;dir_be9f6d876b8eda462084eff1b3ea4553</title>
<path fill="none" stroke="black" d="M364,-71.7C364,-63.98 364,-54.71 364,-46.11"/>
<polygon fill="black" stroke="black" points="367.5,-46.1 364,-36.1 360.5,-46.1 367.5,-46.1"/>
<g id="a_edge6&#45;headlabel"><a xlink:href="dir_000018_000002.html" target="_top" xlink:title="25">
<text text-anchor="middle" x="370.34" y="-47.2" font-family="Helvetica,sans-Serif" font-size="10.00">25</text>
</a>
</g>
</g>
<!-- dir_03c05aea247c636c5180e1c14df87c04 -->
<g id="node6" class="node">
<title>dir_03c05aea247c636c5180e1c14df87c04</title>
<g id="a_node6"><a xlink:href="dir_03c05aea247c636c5180e1c14df87c04.html" target="_top" xlink:title="power64&#45;linux">
<polygon fill="white" stroke="red" points="306,-108 220,-108 220,-72 306,-72 306,-108"/>
<text text-anchor="middle" x="263" y="-87.5" font-family="Helvetica,sans-Serif" font-size="10.00">power64&#45;linux</text>
</a>
</g>
</g>
<!-- dir_03c05aea247c636c5180e1c14df87c04&#45;&gt;dir_be9f6d876b8eda462084eff1b3ea4553 -->
<g id="edge5" class="edge">
<title>dir_03c05aea247c636c5180e1c14df87c04&#45;&gt;dir_be9f6d876b8eda462084eff1b3ea4553</title>
<path fill="none" stroke="black" d="M287.71,-71.88C300.67,-62.89 316.73,-51.76 330.77,-42.03"/>
<polygon fill="black" stroke="black" points="332.97,-44.76 339.2,-36.19 328.98,-39.01 332.97,-44.76"/>
<g id="a_edge5&#45;headlabel"><a xlink:href="dir_000022_000002.html" target="_top" xlink:title="25">
<text text-anchor="middle" x="331.64" y="-46.64" font-family="Helvetica,sans-Serif" font-size="10.00">25</text>
</a>
</g>
</g>
<!-- dir_8bf6b7e80d8919b75edbcc15956e61d9 -->
<g id="node7" class="node">
<title>dir_8bf6b7e80d8919b75edbcc15956e61d9</title>
<g id="a_node7"><a xlink:href="dir_8bf6b7e80d8919b75edbcc15956e61d9.html" target="_top" xlink:title="x86_32&#45;linux">
<polygon fill="white" stroke="red" points="202,-108 122,-108 122,-72 202,-72 202,-108"/>
<text text-anchor="middle" x="162" y="-87.5" font-family="Helvetica,sans-Serif" font-size="10.00">x86_32&#45;linux</text>
</a>
</g>
</g>
<!-- dir_8bf6b7e80d8919b75edbcc15956e61d9&#45;&gt;dir_be9f6d876b8eda462084eff1b3ea4553 -->
<g id="edge1" class="edge">
<title>dir_8bf6b7e80d8919b75edbcc15956e61d9&#45;&gt;dir_be9f6d876b8eda462084eff1b3ea4553</title>
<path fill="none" stroke="black" d="M183.95,-71.78C192.08,-66.08 201.61,-60.14 211,-56 248.64,-39.42 294.89,-29.55 326.63,-24.22"/>
<polygon fill="black" stroke="black" points="327.49,-27.63 336.81,-22.59 326.38,-20.72 327.49,-27.63"/>
<g id="a_edge1&#45;headlabel"><a xlink:href="dir_000026_000002.html" target="_top" xlink:title="25">
<text text-anchor="middle" x="324.39" y="-28.51" font-family="Helvetica,sans-Serif" font-size="10.00">25</text>
</a>
</g>
</g>
<!-- dir_e8c392aee706068680f6562db90ecbae -->
<g id="node8" class="node">
<title>dir_e8c392aee706068680f6562db90ecbae</title>
<g id="a_node8"><a xlink:href="dir_e8c392aee706068680f6562db90ecbae.html" target="_top" xlink:title="x86_64&#45;linux">
<polygon fill="white" stroke="red" points="104,-108 24,-108 24,-72 104,-72 104,-108"/>
<text text-anchor="middle" x="64" y="-87.5" font-family="Helvetica,sans-Serif" font-size="10.00">x86_64&#45;linux</text>
</a>
</g>
</g>
<!-- dir_e8c392aee706068680f6562db90ecbae&#45;&gt;dir_be9f6d876b8eda462084eff1b3ea4553 -->
<g id="edge3" class="edge">
<title>dir_e8c392aee706068680f6562db90ecbae&#45;&gt;dir_be9f6d876b8eda462084eff1b3ea4553</title>
<path fill="none" stroke="black" d="M84.79,-71.99C93.1,-66.02 103.05,-59.85 113,-56 185.28,-28 276.8,-21.01 326.95,-19.38"/>
<polygon fill="black" stroke="black" points="327.1,-22.88 337,-19.11 326.91,-15.88 327.1,-22.88"/>
<g id="a_edge3&#45;headlabel"><a xlink:href="dir_000030_000002.html" target="_top" xlink:title="25">
<text text-anchor="middle" x="323.58" y="-23.31" font-family="Helvetica,sans-Serif" font-size="10.00">25</text>
</a>
</g>
</g>
</g>
</svg>
