<?xml version="1.0" encoding="UTF-8" standalone="no"?>
<!DOCTYPE svg PUBLIC "-//W3C//DTD SVG 1.1//EN"
 "http://www.w3.org/Graphics/SVG/1.1/DTD/svg11.dtd">
<!-- Generated by graphviz version 2.43.0 (0)
 -->
<!-- Title: odp_api.h Pages: 1 -->
<svg width="5202pt" height="196pt"
 viewBox="0.00 0.00 5201.50 196.00" xmlns="http://www.w3.org/2000/svg" xmlns:xlink="http://www.w3.org/1999/xlink">
<g id="graph0" class="graph" transform="scale(1 1) rotate(0) translate(4 192)">
<title>odp_api.h</title>
<polygon fill="white" stroke="transparent" points="-4,4 -4,-192 5197.5,-192 5197.5,4 -4,4"/>
<!-- Node1 -->
<g id="node1" class="node">
<title>Node1</title>
<g id="a_node1"><a xlink:title=" ">
<polygon fill="#bfbfbf" stroke="black" points="2425.5,-168.5 2425.5,-187.5 2489.5,-187.5 2489.5,-168.5 2425.5,-168.5"/>
<text text-anchor="middle" x="2457.5" y="-175.5" font-family="Helvetica,sans-Serif" font-size="10.00">odp_api.h</text>
</a>
</g>
</g>
<!-- Node2 -->
<g id="node2" class="node">
<title>Node2</title>
<g id="a_node2"><a xlink:href="deprecated_8h.html" target="_top" xlink:title=" ">
<polygon fill="white" stroke="black" points="26,-112.5 26,-131.5 145,-131.5 145,-112.5 26,-112.5"/>
<text text-anchor="middle" x="85.5" y="-119.5" font-family="Helvetica,sans-Serif" font-size="10.00">odp/api/deprecated.h</text>
</a>
</g>
</g>
<!-- Node1&#45;&gt;Node2 -->
<g id="edge1" class="edge">
<title>Node1&#45;&gt;Node2</title>
<path fill="none" stroke="midnightblue" d="M2425.16,-176.77C2181.78,-174.98 634.19,-162.51 166.5,-132 162.82,-131.76 159.06,-131.48 155.26,-131.16"/>
<polygon fill="midnightblue" stroke="midnightblue" points="155.44,-127.66 145.16,-130.25 154.81,-134.63 155.44,-127.66"/>
</g>
<!-- Node6 -->
<g id="node4" class="node">
<title>Node6</title>
<g id="a_node4"><a xlink:href="api_2version_8h.html" target="_top" xlink:title=" ">
<polygon fill="white" stroke="black" points="176,-112.5 176,-131.5 277,-131.5 277,-112.5 176,-112.5"/>
<text text-anchor="middle" x="226.5" y="-119.5" font-family="Helvetica,sans-Serif" font-size="10.00">odp/api/version.h</text>
</a>
</g>
</g>
<!-- Node1&#45;&gt;Node6 -->
<g id="edge3" class="edge">
<title>Node1&#45;&gt;Node6</title>
<path fill="none" stroke="midnightblue" d="M2425.36,-176.9C2191.62,-176.09 749.45,-169.64 287.25,-131.91"/>
<polygon fill="midnightblue" stroke="midnightblue" points="287.44,-128.41 277.19,-131.07 286.86,-135.39 287.44,-128.41"/>
</g>
<!-- Node9 -->
<g id="node7" class="node">
<title>Node9</title>
<g id="a_node7"><a xlink:href="api_2std__types_8h.html" target="_top" xlink:title=" ">
<polygon fill="white" stroke="red" points="2626.5,-56.5 2626.5,-75.5 2738.5,-75.5 2738.5,-56.5 2626.5,-56.5"/>
<text text-anchor="middle" x="2682.5" y="-63.5" font-family="Helvetica,sans-Serif" font-size="10.00">odp/api/std_types.h</text>
</a>
</g>
</g>
<!-- Node1&#45;&gt;Node9 -->
<g id="edge6" class="edge">
<title>Node1&#45;&gt;Node9</title>
<path fill="none" stroke="midnightblue" d="M2489.66,-177.01C2768.41,-176.99 4765.95,-175.37 4808.5,-132 4814.72,-125.65 4814.72,-118.35 4808.5,-112 4771.59,-74.3 3104.14,-68.04 2748.7,-67.14"/>
<polygon fill="midnightblue" stroke="midnightblue" points="2748.58,-63.64 2738.57,-67.11 2748.56,-70.64 2748.58,-63.64"/>
</g>
<!-- Node13 -->
<g id="node9" class="node">
<title>Node13</title>
<g id="a_node9"><a xlink:href="api_2align_8h.html" target="_top" xlink:title=" ">
<polygon fill="white" stroke="red" points="396,-112.5 396,-131.5 485,-131.5 485,-112.5 396,-112.5"/>
<text text-anchor="middle" x="440.5" y="-119.5" font-family="Helvetica,sans-Serif" font-size="10.00">odp/api/align.h</text>
</a>
</g>
</g>
<!-- Node1&#45;&gt;Node13 -->
<g id="edge8" class="edge">
<title>Node1&#45;&gt;Node13</title>
<path fill="none" stroke="midnightblue" d="M2425.28,-176.9C2204.51,-176.15 911.79,-170.17 495.23,-132.01"/>
<polygon fill="midnightblue" stroke="midnightblue" points="495.54,-128.52 485.26,-131.07 494.89,-135.49 495.54,-128.52"/>
</g>
<!-- Node16 -->
<g id="node10" class="node">
<title>Node16</title>
<g id="a_node10"><a xlink:href="api_2hash_8h.html" target="_top" xlink:title=" ">
<polygon fill="white" stroke="red" points="502.5,-112.5 502.5,-131.5 590.5,-131.5 590.5,-112.5 502.5,-112.5"/>
<text text-anchor="middle" x="546.5" y="-119.5" font-family="Helvetica,sans-Serif" font-size="10.00">odp/api/hash.h</text>
</a>
</g>
</g>
<!-- Node1&#45;&gt;Node16 -->
<g id="edge9" class="edge">
<title>Node1&#45;&gt;Node16</title>
<path fill="none" stroke="midnightblue" d="M2425.31,-176.86C2211.68,-175.8 995.31,-168.3 600.7,-131.94"/>
<polygon fill="midnightblue" stroke="midnightblue" points="600.97,-128.45 590.68,-130.99 600.31,-135.42 600.97,-128.45"/>
</g>
<!-- Node19 -->
<g id="node11" class="node">
<title>Node19</title>
<g id="a_node11"><a xlink:href="chksum_8h.html" target="_top" xlink:title=" ">
<polygon fill="white" stroke="red" points="609,-112.5 609,-131.5 712,-131.5 712,-112.5 609,-112.5"/>
<text text-anchor="middle" x="660.5" y="-119.5" font-family="Helvetica,sans-Serif" font-size="10.00">odp/api/chksum.h</text>
</a>
</g>
</g>
<!-- Node1&#45;&gt;Node19 -->
<g id="edge10" class="edge">
<title>Node1&#45;&gt;Node19</title>
<path fill="none" stroke="midnightblue" d="M2425.46,-176.7C2220.67,-174.69 1092.09,-162.42 722.22,-131.91"/>
<polygon fill="midnightblue" stroke="midnightblue" points="722.29,-128.4 712.03,-131.05 721.7,-135.38 722.29,-128.4"/>
</g>
<!-- Node21 -->
<g id="node12" class="node">
<title>Node21</title>
<g id="a_node12"><a xlink:href="api_2comp_8h.html" target="_top" xlink:title=" ">
<polygon fill="white" stroke="red" points="730.5,-112.5 730.5,-131.5 822.5,-131.5 822.5,-112.5 730.5,-112.5"/>
<text text-anchor="middle" x="776.5" y="-119.5" font-family="Helvetica,sans-Serif" font-size="10.00">odp/api/comp.h</text>
</a>
</g>
</g>
<!-- Node1&#45;&gt;Node21 -->
<g id="edge11" class="edge">
<title>Node1&#45;&gt;Node21</title>
<path fill="none" stroke="midnightblue" d="M2425.28,-176.69C2227.85,-174.68 1178.87,-162.77 832.62,-131.82"/>
<polygon fill="midnightblue" stroke="midnightblue" points="832.86,-128.33 822.58,-130.9 832.22,-135.3 832.86,-128.33"/>
</g>
<!-- Node46 -->
<g id="node13" class="node">
<title>Node46</title>
<g id="a_node13"><a xlink:href="hints_8h.html" target="_top" xlink:title=" ">
<polygon fill="white" stroke="red" points="841,-112.5 841,-131.5 930,-131.5 930,-112.5 841,-112.5"/>
<text text-anchor="middle" x="885.5" y="-119.5" font-family="Helvetica,sans-Serif" font-size="10.00">odp/api/hints.h</text>
</a>
</g>
</g>
<!-- Node1&#45;&gt;Node46 -->
<g id="edge12" class="edge">
<title>Node1&#45;&gt;Node46</title>
<path fill="none" stroke="midnightblue" d="M2425.26,-176.64C2235.67,-174.43 1263.62,-161.87 940.52,-131.92"/>
<polygon fill="midnightblue" stroke="midnightblue" points="940.51,-128.4 930.23,-130.93 939.85,-135.37 940.51,-128.4"/>
</g>
<!-- Node48 -->
<g id="node14" class="node">
<title>Node48</title>
<g id="a_node14"><a xlink:href="api_2debug_8h.html" target="_top" xlink:title=" ">
<polygon fill="white" stroke="red" points="948,-112.5 948,-131.5 1043,-131.5 1043,-112.5 948,-112.5"/>
<text text-anchor="middle" x="995.5" y="-119.5" font-family="Helvetica,sans-Serif" font-size="10.00">odp/api/debug.h</text>
</a>
</g>
</g>
<!-- Node1&#45;&gt;Node48 -->
<g id="edge13" class="edge">
<title>Node1&#45;&gt;Node48</title>
<path fill="none" stroke="midnightblue" d="M2425.31,-176.51C2244.42,-173.71 1352.12,-158.76 1052.99,-131.88"/>
<polygon fill="midnightblue" stroke="midnightblue" points="1053.31,-128.39 1043.03,-130.96 1052.67,-135.36 1053.31,-128.39"/>
</g>
<!-- Node51 -->
<g id="node15" class="node">
<title>Node51</title>
<g id="a_node15"><a xlink:href="api_2byteorder_8h.html" target="_top" xlink:title=" ">
<polygon fill="white" stroke="red" points="1061,-112.5 1061,-131.5 1172,-131.5 1172,-112.5 1061,-112.5"/>
<text text-anchor="middle" x="1116.5" y="-119.5" font-family="Helvetica,sans-Serif" font-size="10.00">odp/api/byteorder.h</text>
</a>
</g>
</g>
<!-- Node1&#45;&gt;Node51 -->
<g id="edge14" class="edge">
<title>Node1&#45;&gt;Node51</title>
<path fill="none" stroke="midnightblue" d="M2425.03,-176.95C2280.15,-176.52 1678.34,-172.24 1186.5,-132 1185.19,-131.89 1183.88,-131.78 1182.55,-131.66"/>
<polygon fill="midnightblue" stroke="midnightblue" points="1182.53,-128.14 1172.24,-130.64 1181.84,-135.11 1182.53,-128.14"/>
</g>
<!-- Node54 -->
<g id="node16" class="node">
<title>Node54</title>
<g id="a_node16"><a xlink:href="api_2cpu_8h.html" target="_top" xlink:title=" ">
<polygon fill="white" stroke="red" points="295.5,-112.5 295.5,-131.5 377.5,-131.5 377.5,-112.5 295.5,-112.5"/>
<text text-anchor="middle" x="336.5" y="-119.5" font-family="Helvetica,sans-Serif" font-size="10.00">odp/api/cpu.h</text>
</a>
</g>
</g>
<!-- Node1&#45;&gt;Node54 -->
<g id="edge15" class="edge">
<title>Node1&#45;&gt;Node54</title>
<path fill="none" stroke="midnightblue" d="M2425.38,-176.99C2197.99,-176.83 827.94,-174.12 387.85,-131.93"/>
<polygon fill="midnightblue" stroke="midnightblue" points="387.92,-128.42 377.63,-130.93 387.24,-135.39 387.92,-128.42"/>
</g>
<!-- Node56 -->
<g id="node17" class="node">
<title>Node56</title>
<g id="a_node17"><a xlink:href="api_2thread_8h.html" target="_top" xlink:title=" ">
<polygon fill="white" stroke="red" points="794.5,-56.5 794.5,-75.5 890.5,-75.5 890.5,-56.5 794.5,-56.5"/>
<text text-anchor="middle" x="842.5" y="-63.5" font-family="Helvetica,sans-Serif" font-size="10.00">odp/api/thread.h</text>
</a>
</g>
</g>
<!-- Node1&#45;&gt;Node56 -->
<g id="edge26" class="edge">
<title>Node1&#45;&gt;Node56</title>
<path fill="none" stroke="midnightblue" d="M2425.42,-176.94C2257.96,-176.45 1482.84,-172.04 1246.5,-132 1216.7,-126.95 1211.03,-118.46 1181.5,-112 1084.13,-90.71 968.68,-77.99 900.73,-71.76"/>
<polygon fill="midnightblue" stroke="midnightblue" points="900.93,-68.26 890.66,-70.85 900.3,-75.23 900.93,-68.26"/>
</g>
<!-- Node61 -->
<g id="node18" class="node">
<title>Node61</title>
<g id="a_node18"><a xlink:href="api_2cpumask_8h.html" target="_top" xlink:title=" ">
<polygon fill="white" stroke="red" points="1267,-112.5 1267,-131.5 1376,-131.5 1376,-112.5 1267,-112.5"/>
<text text-anchor="middle" x="1321.5" y="-119.5" font-family="Helvetica,sans-Serif" font-size="10.00">odp/api/cpumask.h</text>
</a>
</g>
</g>
<!-- Node1&#45;&gt;Node61 -->
<g id="edge17" class="edge">
<title>Node1&#45;&gt;Node61</title>
<path fill="none" stroke="midnightblue" d="M2425.13,-176.67C2295.06,-175.12 1797.82,-167.09 1390.5,-132 1389.03,-131.87 1387.55,-131.74 1386.05,-131.6"/>
<polygon fill="midnightblue" stroke="midnightblue" points="1386.37,-128.11 1376.07,-130.57 1385.65,-135.07 1386.37,-128.11"/>
</g>
<!-- Node64 -->
<g id="node19" class="node">
<title>Node64</title>
<g id="a_node19"><a xlink:href="api_2barrier_8h.html" target="_top" xlink:title=" ">
<polygon fill="white" stroke="red" points="1432.5,-112.5 1432.5,-131.5 1528.5,-131.5 1528.5,-112.5 1432.5,-112.5"/>
<text text-anchor="middle" x="1480.5" y="-119.5" font-family="Helvetica,sans-Serif" font-size="10.00">odp/api/barrier.h</text>
</a>
</g>
</g>
<!-- Node1&#45;&gt;Node64 -->
<g id="edge18" class="edge">
<title>Node1&#45;&gt;Node64</title>
<path fill="none" stroke="midnightblue" d="M2425.26,-176.65C2306.8,-175.08 1884.55,-167.22 1538.5,-132 1538.4,-131.99 1538.3,-131.98 1538.2,-131.97"/>
<polygon fill="midnightblue" stroke="midnightblue" points="1538.89,-128.53 1528.56,-130.85 1538.09,-135.48 1538.89,-128.53"/>
</g>
<!-- Node65 -->
<g id="node20" class="node">
<title>Node65</title>
<g id="a_node20"><a xlink:href="api_2atomic_8h.html" target="_top" xlink:title=" ">
<polygon fill="white" stroke="red" points="1393.5,-56.5 1393.5,-75.5 1491.5,-75.5 1491.5,-56.5 1393.5,-56.5"/>
<text text-anchor="middle" x="1442.5" y="-63.5" font-family="Helvetica,sans-Serif" font-size="10.00">odp/api/atomic.h</text>
</a>
</g>
</g>
<!-- Node1&#45;&gt;Node65 -->
<g id="edge22" class="edge">
<title>Node1&#45;&gt;Node65</title>
<path fill="none" stroke="midnightblue" d="M2425.5,-176.84C2254.91,-175.82 1458.99,-169.07 1423.5,-132 1411.23,-119.18 1420.03,-98.88 1429.33,-84.38"/>
<polygon fill="midnightblue" stroke="midnightblue" points="1432.44,-86.03 1435.29,-75.82 1426.7,-82.03 1432.44,-86.03"/>
</g>
<!-- Node71 -->
<g id="node21" class="node">
<title>Node71</title>
<g id="a_node21"><a xlink:href="api_2spinlock_8h.html" target="_top" xlink:title=" ">
<polygon fill="white" stroke="red" points="1547,-112.5 1547,-131.5 1652,-131.5 1652,-112.5 1547,-112.5"/>
<text text-anchor="middle" x="1599.5" y="-119.5" font-family="Helvetica,sans-Serif" font-size="10.00">odp/api/spinlock.h</text>
</a>
</g>
</g>
<!-- Node1&#45;&gt;Node71 -->
<g id="edge21" class="edge">
<title>Node1&#45;&gt;Node71</title>
<path fill="none" stroke="midnightblue" d="M2425.2,-176.19C2318.17,-173.29 1965.3,-162.02 1662.52,-132"/>
<polygon fill="midnightblue" stroke="midnightblue" points="1662.53,-128.49 1652.23,-130.97 1661.83,-135.45 1662.53,-128.49"/>
</g>
<!-- Node74 -->
<g id="node22" class="node">
<title>Node74</title>
<g id="a_node22"><a xlink:href="api_2init_8h.html" target="_top" xlink:title=" ">
<polygon fill="white" stroke="red" points="1670.5,-112.5 1670.5,-131.5 1750.5,-131.5 1750.5,-112.5 1670.5,-112.5"/>
<text text-anchor="middle" x="1710.5" y="-119.5" font-family="Helvetica,sans-Serif" font-size="10.00">odp/api/init.h</text>
</a>
</g>
</g>
<!-- Node1&#45;&gt;Node74 -->
<g id="edge23" class="edge">
<title>Node1&#45;&gt;Node74</title>
<path fill="none" stroke="midnightblue" d="M2425.42,-176.23C2326.21,-173.55 2015.68,-163.1 1760.5,-132 1760.4,-131.99 1760.3,-131.98 1760.2,-131.96"/>
<polygon fill="midnightblue" stroke="midnightblue" points="1760.94,-128.53 1750.56,-130.62 1759.98,-135.47 1760.94,-128.53"/>
</g>
<!-- Node77 -->
<g id="node23" class="node">
<title>Node77</title>
<g id="a_node23"><a xlink:href="system__info_8h.html" target="_top" xlink:title=" ">
<polygon fill="white" stroke="red" points="1769,-112.5 1769,-131.5 1894,-131.5 1894,-112.5 1769,-112.5"/>
<text text-anchor="middle" x="1831.5" y="-119.5" font-family="Helvetica,sans-Serif" font-size="10.00">odp/api/system_info.h</text>
</a>
</g>
</g>
<!-- Node1&#45;&gt;Node77 -->
<g id="edge24" class="edge">
<title>Node1&#45;&gt;Node77</title>
<path fill="none" stroke="midnightblue" d="M2425.29,-174.87C2341.42,-169.23 2109.13,-152.94 1904.35,-132.04"/>
<polygon fill="midnightblue" stroke="midnightblue" points="1904.62,-128.55 1894.31,-131.01 1903.9,-135.52 1904.62,-128.55"/>
</g>
<!-- Node79 -->
<g id="node24" class="node">
<title>Node79</title>
<g id="a_node24"><a xlink:href="api_2shared__memory_8h.html" target="_top" xlink:title=" ">
<polygon fill="white" stroke="red" points="1912,-112.5 1912,-131.5 2055,-131.5 2055,-112.5 1912,-112.5"/>
<text text-anchor="middle" x="1983.5" y="-119.5" font-family="Helvetica,sans-Serif" font-size="10.00">odp/api/shared_memory.h</text>
</a>
</g>
</g>
<!-- Node1&#45;&gt;Node79 -->
<g id="edge27" class="edge">
<title>Node1&#45;&gt;Node79</title>
<path fill="none" stroke="midnightblue" d="M2425.29,-173.33C2352.12,-164.99 2171.49,-144.42 2065.23,-132.31"/>
<polygon fill="midnightblue" stroke="midnightblue" points="2065.52,-128.82 2055.18,-131.17 2064.72,-135.78 2065.52,-128.82"/>
</g>
<!-- Node81 -->
<g id="node25" class="node">
<title>Node81</title>
<g id="a_node25"><a xlink:href="api_2buffer_8h.html" target="_top" xlink:title=" ">
<polygon fill="white" stroke="red" points="2073.5,-112.5 2073.5,-131.5 2165.5,-131.5 2165.5,-112.5 2073.5,-112.5"/>
<text text-anchor="middle" x="2119.5" y="-119.5" font-family="Helvetica,sans-Serif" font-size="10.00">odp/api/buffer.h</text>
</a>
</g>
</g>
<!-- Node1&#45;&gt;Node81 -->
<g id="edge28" class="edge">
<title>Node1&#45;&gt;Node81</title>
<path fill="none" stroke="midnightblue" d="M2425.24,-171.92C2374.44,-163.91 2272.43,-147.78 2175.66,-132.18"/>
<polygon fill="midnightblue" stroke="midnightblue" points="2176.14,-128.71 2165.71,-130.58 2175.03,-135.62 2176.14,-128.71"/>
</g>
<!-- Node83 -->
<g id="node26" class="node">
<title>Node83</title>
<g id="a_node26"><a xlink:href="api_2pool_8h.html" target="_top" xlink:title=" ">
<polygon fill="white" stroke="red" points="2183.5,-112.5 2183.5,-131.5 2269.5,-131.5 2269.5,-112.5 2183.5,-112.5"/>
<text text-anchor="middle" x="2226.5" y="-119.5" font-family="Helvetica,sans-Serif" font-size="10.00">odp/api/pool.h</text>
</a>
</g>
</g>
<!-- Node1&#45;&gt;Node83 -->
<g id="edge30" class="edge">
<title>Node1&#45;&gt;Node83</title>
<path fill="none" stroke="midnightblue" d="M2425.38,-169.49C2385.73,-160.22 2318.02,-144.39 2272.77,-133.82"/>
<polygon fill="midnightblue" stroke="midnightblue" points="2273.45,-130.38 2262.91,-131.51 2271.85,-137.2 2273.45,-130.38"/>
</g>
<!-- Node86 -->
<g id="node27" class="node">
<title>Node86</title>
<g id="a_node27"><a xlink:href="api_2queue_8h.html" target="_top" xlink:title=" ">
<polygon fill="white" stroke="red" points="2288,-112.5 2288,-131.5 2383,-131.5 2383,-112.5 2288,-112.5"/>
<text text-anchor="middle" x="2335.5" y="-119.5" font-family="Helvetica,sans-Serif" font-size="10.00">odp/api/queue.h</text>
</a>
</g>
</g>
<!-- Node1&#45;&gt;Node86 -->
<g id="edge31" class="edge">
<title>Node1&#45;&gt;Node86</title>
<path fill="none" stroke="midnightblue" d="M2438.17,-168.44C2418.18,-159.6 2386.76,-145.69 2363.94,-135.59"/>
<polygon fill="midnightblue" stroke="midnightblue" points="2365.3,-132.36 2354.74,-131.52 2362.47,-138.76 2365.3,-132.36"/>
</g>
<!-- Node91 -->
<g id="node28" class="node">
<title>Node91</title>
<g id="a_node28"><a xlink:href="api_2ticketlock_8h.html" target="_top" xlink:title=" ">
<polygon fill="white" stroke="red" points="2401.5,-112.5 2401.5,-131.5 2513.5,-131.5 2513.5,-112.5 2401.5,-112.5"/>
<text text-anchor="middle" x="2457.5" y="-119.5" font-family="Helvetica,sans-Serif" font-size="10.00">odp/api/ticketlock.h</text>
</a>
</g>
</g>
<!-- Node1&#45;&gt;Node91 -->
<g id="edge33" class="edge">
<title>Node1&#45;&gt;Node91</title>
<path fill="none" stroke="midnightblue" d="M2457.5,-168.08C2457.5,-161.01 2457.5,-150.86 2457.5,-141.99"/>
<polygon fill="midnightblue" stroke="midnightblue" points="2461,-141.75 2457.5,-131.75 2454,-141.75 2461,-141.75"/>
</g>
<!-- Node36 -->
<g id="node29" class="node">
<title>Node36</title>
<g id="a_node29"><a xlink:href="api_2time_8h.html" target="_top" xlink:title=" ">
<polygon fill="white" stroke="red" points="2532,-112.5 2532,-131.5 2619,-131.5 2619,-112.5 2532,-112.5"/>
<text text-anchor="middle" x="2575.5" y="-119.5" font-family="Helvetica,sans-Serif" font-size="10.00">odp/api/time.h</text>
</a>
</g>
</g>
<!-- Node1&#45;&gt;Node36 -->
<g id="edge34" class="edge">
<title>Node1&#45;&gt;Node36</title>
<path fill="none" stroke="midnightblue" d="M2476.2,-168.44C2495.44,-159.64 2525.65,-145.81 2547.7,-135.72"/>
<polygon fill="midnightblue" stroke="midnightblue" points="2549.25,-138.86 2556.89,-131.52 2546.34,-132.5 2549.25,-138.86"/>
</g>
<!-- Node94 -->
<g id="node30" class="node">
<title>Node94</title>
<g id="a_node30"><a xlink:href="api_2timer_8h.html" target="_top" xlink:title=" ">
<polygon fill="white" stroke="red" points="2637.5,-112.5 2637.5,-131.5 2727.5,-131.5 2727.5,-112.5 2637.5,-112.5"/>
<text text-anchor="middle" x="2682.5" y="-119.5" font-family="Helvetica,sans-Serif" font-size="10.00">odp/api/timer.h</text>
</a>
</g>
</g>
<!-- Node1&#45;&gt;Node94 -->
<g id="edge36" class="edge">
<title>Node1&#45;&gt;Node94</title>
<path fill="none" stroke="midnightblue" d="M2489.74,-169.26C2528.4,-159.98 2593.47,-144.37 2637.18,-133.88"/>
<polygon fill="midnightblue" stroke="midnightblue" points="2638.07,-137.26 2646.98,-131.52 2636.44,-130.45 2638.07,-137.26"/>
</g>
<!-- Node97 -->
<g id="node31" class="node">
<title>Node97</title>
<g id="a_node31"><a xlink:href="api_2schedule_8h.html" target="_top" xlink:title=" ">
<polygon fill="white" stroke="red" points="2745.5,-112.5 2745.5,-131.5 2853.5,-131.5 2853.5,-112.5 2745.5,-112.5"/>
<text text-anchor="middle" x="2799.5" y="-119.5" font-family="Helvetica,sans-Serif" font-size="10.00">odp/api/schedule.h</text>
</a>
</g>
</g>
<!-- Node1&#45;&gt;Node97 -->
<g id="edge38" class="edge">
<title>Node1&#45;&gt;Node97</title>
<path fill="none" stroke="midnightblue" d="M2489.67,-171.92C2545.74,-163.07 2662.31,-144.66 2735.39,-133.12"/>
<polygon fill="midnightblue" stroke="midnightblue" points="2736.07,-136.56 2745.4,-131.54 2734.98,-129.64 2736.07,-136.56"/>
</g>
<!-- Node103 -->
<g id="node32" class="node">
<title>Node103</title>
<g id="a_node32"><a xlink:href="api_2sync_8h.html" target="_top" xlink:title=" ">
<polygon fill="white" stroke="red" points="2872,-112.5 2872,-131.5 2959,-131.5 2959,-112.5 2872,-112.5"/>
<text text-anchor="middle" x="2915.5" y="-119.5" font-family="Helvetica,sans-Serif" font-size="10.00">odp/api/sync.h</text>
</a>
</g>
</g>
<!-- Node1&#45;&gt;Node103 -->
<g id="edge39" class="edge">
<title>Node1&#45;&gt;Node103</title>
<path fill="none" stroke="midnightblue" d="M2489.6,-174.07C2556.67,-167.8 2716.73,-152.14 2861.88,-132.01"/>
<polygon fill="midnightblue" stroke="midnightblue" points="2862.44,-135.47 2871.86,-130.62 2861.47,-128.53 2862.44,-135.47"/>
</g>
<!-- Node26 -->
<g id="node33" class="node">
<title>Node26</title>
<g id="a_node33"><a xlink:href="api_2packet_8h.html" target="_top" xlink:title=" ">
<polygon fill="white" stroke="red" points="2977,-112.5 2977,-131.5 3074,-131.5 3074,-112.5 2977,-112.5"/>
<text text-anchor="middle" x="3025.5" y="-119.5" font-family="Helvetica,sans-Serif" font-size="10.00">odp/api/packet.h</text>
</a>
</g>
</g>
<!-- Node1&#45;&gt;Node26 -->
<g id="edge40" class="edge">
<title>Node1&#45;&gt;Node26</title>
<path fill="none" stroke="midnightblue" d="M2489.57,-174.95C2568.8,-169.71 2780.34,-154.72 2966.73,-132.15"/>
<polygon fill="midnightblue" stroke="midnightblue" points="2967.21,-135.62 2976.71,-130.93 2966.36,-128.67 2967.21,-135.62"/>
</g>
<!-- Node106 -->
<g id="node34" class="node">
<title>Node106</title>
<g id="a_node34"><a xlink:href="api_2packet__flags_8h.html" target="_top" xlink:title=" ">
<polygon fill="white" stroke="red" points="3092,-112.5 3092,-131.5 3217,-131.5 3217,-112.5 3092,-112.5"/>
<text text-anchor="middle" x="3154.5" y="-119.5" font-family="Helvetica,sans-Serif" font-size="10.00">odp/api/packet_flags.h</text>
</a>
</g>
</g>
<!-- Node1&#45;&gt;Node106 -->
<g id="edge42" class="edge">
<title>Node1&#45;&gt;Node106</title>
<path fill="none" stroke="midnightblue" d="M2489.81,-175.3C2581.08,-170.36 2848.88,-154.96 3081.79,-132.12"/>
<polygon fill="midnightblue" stroke="midnightblue" points="3082.19,-135.6 3091.8,-131.14 3081.51,-128.63 3082.19,-135.6"/>
</g>
<!-- Node109 -->
<g id="node35" class="node">
<title>Node109</title>
<g id="a_node35"><a xlink:href="api_2packet__io_8h.html" target="_top" xlink:title=" ">
<polygon fill="white" stroke="red" points="3235,-112.5 3235,-131.5 3346,-131.5 3346,-112.5 3235,-112.5"/>
<text text-anchor="middle" x="3290.5" y="-119.5" font-family="Helvetica,sans-Serif" font-size="10.00">odp/api/packet_io.h</text>
</a>
</g>
</g>
<!-- Node1&#45;&gt;Node109 -->
<g id="edge43" class="edge">
<title>Node1&#45;&gt;Node109</title>
<path fill="none" stroke="midnightblue" d="M2489.81,-176.05C2594.44,-172.77 2933.63,-160.6 3224.36,-132.14"/>
<polygon fill="midnightblue" stroke="midnightblue" points="3225.08,-135.59 3234.68,-131.12 3224.39,-128.62 3225.08,-135.59"/>
</g>
<!-- Node116 -->
<g id="node36" class="node">
<title>Node116</title>
<g id="a_node36"><a xlink:href="api_2proto__stats_8h.html" target="_top" xlink:title=" ">
<polygon fill="white" stroke="red" points="3364,-112.5 3364,-131.5 3483,-131.5 3483,-112.5 3364,-112.5"/>
<text text-anchor="middle" x="3423.5" y="-119.5" font-family="Helvetica,sans-Serif" font-size="10.00">odp/api/proto_stats.h</text>
</a>
</g>
</g>
<!-- Node1&#45;&gt;Node116 -->
<g id="edge45" class="edge">
<title>Node1&#45;&gt;Node116</title>
<path fill="none" stroke="midnightblue" d="M2489.78,-176.33C2605.4,-173.75 3009.77,-162.97 3353.67,-132.1"/>
<polygon fill="midnightblue" stroke="midnightblue" points="3354.18,-135.57 3363.83,-131.18 3353.55,-128.59 3354.18,-135.57"/>
</g>
<!-- Node119 -->
<g id="node37" class="node">
<title>Node119</title>
<g id="a_node37"><a xlink:href="api_2crypto_8h.html" target="_top" xlink:title=" ">
<polygon fill="white" stroke="red" points="3501,-112.5 3501,-131.5 3596,-131.5 3596,-112.5 3501,-112.5"/>
<text text-anchor="middle" x="3548.5" y="-119.5" font-family="Helvetica,sans-Serif" font-size="10.00">odp/api/crypto.h</text>
</a>
</g>
</g>
<!-- Node1&#45;&gt;Node119 -->
<g id="edge47" class="edge">
<title>Node1&#45;&gt;Node119</title>
<path fill="none" stroke="midnightblue" d="M2489.79,-176.96C2616.35,-176.5 3090.88,-172.13 3490.86,-132.05"/>
<polygon fill="midnightblue" stroke="midnightblue" points="3491.29,-135.52 3500.89,-131.04 3490.59,-128.56 3491.29,-135.52"/>
</g>
<!-- Node122 -->
<g id="node38" class="node">
<title>Node122</title>
<g id="a_node38"><a xlink:href="api_2classification_8h.html" target="_top" xlink:title=" ">
<polygon fill="white" stroke="red" points="3614.5,-112.5 3614.5,-131.5 3742.5,-131.5 3742.5,-112.5 3614.5,-112.5"/>
<text text-anchor="middle" x="3678.5" y="-119.5" font-family="Helvetica,sans-Serif" font-size="10.00">odp/api/classification.h</text>
</a>
</g>
</g>
<!-- Node1&#45;&gt;Node122 -->
<g id="edge49" class="edge">
<title>Node1&#45;&gt;Node122</title>
<path fill="none" stroke="midnightblue" d="M2489.52,-176.72C2623.93,-175.36 3156.01,-167.91 3604.2,-132.03"/>
<polygon fill="midnightblue" stroke="midnightblue" points="3604.75,-135.5 3614.44,-131.21 3604.19,-128.52 3604.75,-135.5"/>
</g>
<!-- Node126 -->
<g id="node39" class="node">
<title>Node126</title>
<g id="a_node39"><a xlink:href="api_2rwlock_8h.html" target="_top" xlink:title=" ">
<polygon fill="white" stroke="red" points="3761,-112.5 3761,-131.5 3858,-131.5 3858,-112.5 3761,-112.5"/>
<text text-anchor="middle" x="3809.5" y="-119.5" font-family="Helvetica,sans-Serif" font-size="10.00">odp/api/rwlock.h</text>
</a>
</g>
</g>
<!-- Node1&#45;&gt;Node126 -->
<g id="edge51" class="edge">
<title>Node1&#45;&gt;Node126</title>
<path fill="none" stroke="midnightblue" d="M2489.6,-177.29C2634.5,-178.31 3242.13,-179.42 3750.71,-131.94"/>
<polygon fill="midnightblue" stroke="midnightblue" points="3751.19,-135.41 3760.82,-130.98 3750.53,-128.44 3751.19,-135.41"/>
</g>
<!-- Node89 -->
<g id="node40" class="node">
<title>Node89</title>
<g id="a_node40"><a xlink:href="api_2event_8h.html" target="_top" xlink:title=" ">
<polygon fill="white" stroke="red" points="3876.5,-112.5 3876.5,-131.5 3968.5,-131.5 3968.5,-112.5 3876.5,-112.5"/>
<text text-anchor="middle" x="3922.5" y="-119.5" font-family="Helvetica,sans-Serif" font-size="10.00">odp/api/event.h</text>
</a>
</g>
</g>
<!-- Node1&#45;&gt;Node89 -->
<g id="edge52" class="edge">
<title>Node1&#45;&gt;Node89</title>
<path fill="none" stroke="midnightblue" d="M2489.5,-176.55C2670.37,-173.9 3566.72,-159.62 3866.37,-131.95"/>
<polygon fill="midnightblue" stroke="midnightblue" points="3866.72,-135.43 3876.34,-131 3866.06,-128.46 3866.72,-135.43"/>
</g>
<!-- Node129 -->
<g id="node41" class="node">
<title>Node129</title>
<g id="a_node41"><a xlink:href="random_8h.html" target="_top" xlink:title=" ">
<polygon fill="white" stroke="red" points="3986.5,-112.5 3986.5,-131.5 4088.5,-131.5 4088.5,-112.5 3986.5,-112.5"/>
<text text-anchor="middle" x="4037.5" y="-119.5" font-family="Helvetica,sans-Serif" font-size="10.00">odp/api/random.h</text>
</a>
</g>
</g>
<!-- Node1&#45;&gt;Node129 -->
<g id="edge53" class="edge">
<title>Node1&#45;&gt;Node129</title>
<path fill="none" stroke="midnightblue" d="M2489.78,-176.57C2679.57,-173.96 3652.73,-159.48 3976.18,-131.98"/>
<polygon fill="midnightblue" stroke="midnightblue" points="3976.83,-135.43 3986.49,-131.08 3976.22,-128.46 3976.83,-135.43"/>
</g>
<!-- Node131 -->
<g id="node42" class="node">
<title>Node131</title>
<g id="a_node42"><a xlink:href="api_2errno_8h.html" target="_top" xlink:title=" ">
<polygon fill="white" stroke="red" points="4106.5,-112.5 4106.5,-131.5 4196.5,-131.5 4196.5,-112.5 4106.5,-112.5"/>
<text text-anchor="middle" x="4151.5" y="-119.5" font-family="Helvetica,sans-Serif" font-size="10.00">odp/api/errno.h</text>
</a>
</g>
</g>
<!-- Node1&#45;&gt;Node131 -->
<g id="edge54" class="edge">
<title>Node1&#45;&gt;Node131</title>
<path fill="none" stroke="midnightblue" d="M2489.69,-176.72C2688.13,-174.92 3747.82,-163.97 4096.38,-131.93"/>
<polygon fill="midnightblue" stroke="midnightblue" points="4096.85,-135.4 4106.48,-130.98 4096.2,-128.44 4096.85,-135.4"/>
</g>
<!-- Node100 -->
<g id="node43" class="node">
<title>Node100</title>
<g id="a_node43"><a xlink:href="api_2thrmask_8h.html" target="_top" xlink:title=" ">
<polygon fill="white" stroke="red" points="4215,-112.5 4215,-131.5 4320,-131.5 4320,-112.5 4215,-112.5"/>
<text text-anchor="middle" x="4267.5" y="-119.5" font-family="Helvetica,sans-Serif" font-size="10.00">odp/api/thrmask.h</text>
</a>
</g>
</g>
<!-- Node1&#45;&gt;Node100 -->
<g id="edge55" class="edge">
<title>Node1&#45;&gt;Node100</title>
<path fill="none" stroke="midnightblue" d="M2489.76,-176.69C2696.01,-174.65 3832.88,-162.19 4204.8,-131.92"/>
<polygon fill="midnightblue" stroke="midnightblue" points="4205.11,-135.4 4214.78,-131.09 4204.53,-128.43 4205.11,-135.4"/>
</g>
<!-- Node134 -->
<g id="node44" class="node">
<title>Node134</title>
<g id="a_node44"><a xlink:href="api_2traffic__mngr_8h.html" target="_top" xlink:title=" ">
<polygon fill="white" stroke="red" points="4338,-112.5 4338,-131.5 4461,-131.5 4461,-112.5 4338,-112.5"/>
<text text-anchor="middle" x="4399.5" y="-119.5" font-family="Helvetica,sans-Serif" font-size="10.00">odp/api/traffic_mngr.h</text>
</a>
</g>
</g>
<!-- Node1&#45;&gt;Node134 -->
<g id="edge56" class="edge">
<title>Node1&#45;&gt;Node134</title>
<path fill="none" stroke="midnightblue" d="M2489.57,-176.69C2703.73,-174.52 3929.84,-161.03 4327.6,-132.05"/>
<polygon fill="midnightblue" stroke="midnightblue" points="4327.99,-135.53 4337.7,-131.3 4327.47,-128.55 4327.99,-135.53"/>
</g>
<!-- Node137 -->
<g id="node45" class="node">
<title>Node137</title>
<g id="a_node45"><a xlink:href="api_2spinlock__recursive_8h.html" target="_top" xlink:title=" ">
<polygon fill="white" stroke="red" points="4479,-112.5 4479,-131.5 4634,-131.5 4634,-112.5 4479,-112.5"/>
<text text-anchor="middle" x="4556.5" y="-119.5" font-family="Helvetica,sans-Serif" font-size="10.00">odp/api/spinlock_recursive.h</text>
</a>
</g>
</g>
<!-- Node1&#45;&gt;Node137 -->
<g id="edge57" class="edge">
<title>Node1&#45;&gt;Node137</title>
<path fill="none" stroke="midnightblue" d="M2489.5,-177.27C2677.57,-178.63 3658.18,-182.94 4468.58,-132.07"/>
<polygon fill="midnightblue" stroke="midnightblue" points="4468.95,-135.55 4478.71,-131.43 4468.51,-128.57 4468.95,-135.55"/>
</g>
<!-- Node140 -->
<g id="node46" class="node">
<title>Node140</title>
<g id="a_node46"><a xlink:href="api_2rwlock__recursive_8h.html" target="_top" xlink:title=" ">
<polygon fill="white" stroke="red" points="4652,-112.5 4652,-131.5 4799,-131.5 4799,-112.5 4652,-112.5"/>
<text text-anchor="middle" x="4725.5" y="-119.5" font-family="Helvetica,sans-Serif" font-size="10.00">odp/api/rwlock_recursive.h</text>
</a>
</g>
</g>
<!-- Node1&#45;&gt;Node140 -->
<g id="edge58" class="edge">
<title>Node1&#45;&gt;Node140</title>
<path fill="none" stroke="midnightblue" d="M2489.85,-176.73C2725.11,-174.7 4176.69,-161.16 4641.64,-132.05"/>
<polygon fill="midnightblue" stroke="midnightblue" points="4642.01,-135.53 4651.77,-131.4 4641.57,-128.55 4642.01,-135.53"/>
</g>
<!-- Node143 -->
<g id="node47" class="node">
<title>Node143</title>
<g id="a_node47"><a xlink:href="api_2std_8h_source.html" target="_top" xlink:title=" ">
<polygon fill="white" stroke="red" points="1227.5,-56.5 1227.5,-75.5 1307.5,-75.5 1307.5,-56.5 1227.5,-56.5"/>
<text text-anchor="middle" x="1267.5" y="-63.5" font-family="Helvetica,sans-Serif" font-size="10.00">odp/api/std.h</text>
</a>
</g>
</g>
<!-- Node1&#45;&gt;Node143 -->
<g id="edge59" class="edge">
<title>Node1&#45;&gt;Node143</title>
<path fill="none" stroke="midnightblue" d="M2425.42,-177.04C2238.83,-177.09 1300.14,-175.23 1258.5,-132 1246.68,-119.73 1251.74,-99.63 1257.99,-85.02"/>
<polygon fill="midnightblue" stroke="midnightblue" points="1261.17,-86.48 1262.31,-75.95 1254.85,-83.47 1261.17,-86.48"/>
</g>
<!-- Node146 -->
<g id="node48" class="node">
<title>Node146</title>
<g id="a_node48"><a xlink:href="api_2ipsec_8h.html" target="_top" xlink:title=" ">
<polygon fill="white" stroke="red" points="4855.5,-112.5 4855.5,-131.5 4945.5,-131.5 4945.5,-112.5 4855.5,-112.5"/>
<text text-anchor="middle" x="4900.5" y="-119.5" font-family="Helvetica,sans-Serif" font-size="10.00">odp/api/ipsec.h</text>
</a>
</g>
</g>
<!-- Node1&#45;&gt;Node146 -->
<g id="edge61" class="edge">
<title>Node1&#45;&gt;Node146</title>
<path fill="none" stroke="midnightblue" d="M2489.57,-176.98C2737.69,-176.74 4354.54,-173.55 4841.5,-132 4842.78,-131.89 4844.07,-131.77 4845.37,-131.64"/>
<polygon fill="midnightblue" stroke="midnightblue" points="4845.93,-135.1 4855.48,-130.5 4845.14,-128.15 4845.93,-135.1"/>
</g>
<!-- Node151 -->
<g id="node49" class="node">
<title>Node151</title>
<g id="a_node49"><a xlink:href="api_2stash_8h.html" target="_top" xlink:title=" ">
<polygon fill="white" stroke="red" points="4964,-112.5 4964,-131.5 5055,-131.5 5055,-112.5 4964,-112.5"/>
<text text-anchor="middle" x="5009.5" y="-119.5" font-family="Helvetica,sans-Serif" font-size="10.00">odp/api/stash.h</text>
</a>
</g>
</g>
<!-- Node1&#45;&gt;Node151 -->
<g id="edge62" class="edge">
<title>Node1&#45;&gt;Node151</title>
<path fill="none" stroke="midnightblue" d="M2489.87,-177.06C2744,-177.43 4422.37,-178.13 4953.9,-131.87"/>
<polygon fill="midnightblue" stroke="midnightblue" points="4954.29,-135.34 4963.95,-130.97 4953.68,-128.37 4954.29,-135.34"/>
</g>
<!-- Node114 -->
<g id="node50" class="node">
<title>Node114</title>
<g id="a_node50"><a xlink:href="reassembly_8h.html" target="_top" xlink:title=" ">
<polygon fill="white" stroke="red" points="5073.5,-112.5 5073.5,-131.5 5193.5,-131.5 5193.5,-112.5 5073.5,-112.5"/>
<text text-anchor="middle" x="5133.5" y="-119.5" font-family="Helvetica,sans-Serif" font-size="10.00">odp/api/reassembly.h</text>
</a>
</g>
</g>
<!-- Node1&#45;&gt;Node114 -->
<g id="edge63" class="edge">
<title>Node1&#45;&gt;Node114</title>
<path fill="none" stroke="midnightblue" d="M2489.61,-176.94C2749.11,-176.42 4507.87,-171.44 5063.24,-131.98"/>
<polygon fill="midnightblue" stroke="midnightblue" points="5063.61,-135.47 5073.33,-131.25 5063.1,-128.48 5063.61,-135.47"/>
</g>
<!-- Node3 -->
<g id="node3" class="node">
<title>Node3</title>
<g id="a_node3"><a xlink:href="spec_2deprecated_8h.html" target="_top" xlink:title=" ">
<polygon fill="white" stroke="red" points="0,-56.5 0,-75.5 145,-75.5 145,-56.5 0,-56.5"/>
<text text-anchor="middle" x="72.5" y="-63.5" font-family="Helvetica,sans-Serif" font-size="10.00">odp/api/spec/deprecated.h</text>
</a>
</g>
</g>
<!-- Node2&#45;&gt;Node3 -->
<g id="edge2" class="edge">
<title>Node2&#45;&gt;Node3</title>
<path fill="none" stroke="midnightblue" d="M83.35,-112.08C81.63,-104.93 79.15,-94.64 77,-85.69"/>
<polygon fill="midnightblue" stroke="midnightblue" points="80.35,-84.65 74.61,-75.75 73.54,-86.29 80.35,-84.65"/>
</g>
<!-- Node7 -->
<g id="node5" class="node">
<title>Node7</title>
<g id="a_node5"><a xlink:title=" ">
<polygon fill="white" stroke="#bfbfbf" points="308,-56.5 308,-75.5 427,-75.5 427,-56.5 308,-56.5"/>
<text text-anchor="middle" x="367.5" y="-63.5" font-family="Helvetica,sans-Serif" font-size="10.00">odp/api/abi/version.h</text>
</a>
</g>
</g>
<!-- Node6&#45;&gt;Node7 -->
<g id="edge4" class="edge">
<title>Node6&#45;&gt;Node7</title>
<path fill="none" stroke="midnightblue" d="M248.84,-112.44C272.25,-103.48 309.24,-89.31 335.69,-79.18"/>
<polygon fill="midnightblue" stroke="midnightblue" points="337.18,-82.36 345.26,-75.52 334.67,-75.82 337.18,-82.36"/>
</g>
<!-- Node8 -->
<g id="node6" class="node">
<title>Node8</title>
<g id="a_node6"><a xlink:href="api_2spec_2version_8h.html" target="_top" xlink:title=" ">
<polygon fill="white" stroke="red" points="163.5,-56.5 163.5,-75.5 289.5,-75.5 289.5,-56.5 163.5,-56.5"/>
<text text-anchor="middle" x="226.5" y="-63.5" font-family="Helvetica,sans-Serif" font-size="10.00">odp/api/spec/version.h</text>
</a>
</g>
</g>
<!-- Node6&#45;&gt;Node8 -->
<g id="edge5" class="edge">
<title>Node6&#45;&gt;Node8</title>
<path fill="none" stroke="midnightblue" d="M226.5,-112.08C226.5,-105.01 226.5,-94.86 226.5,-85.99"/>
<polygon fill="midnightblue" stroke="midnightblue" points="230,-85.75 226.5,-75.75 223,-85.75 230,-85.75"/>
</g>
<!-- Node10 -->
<g id="node8" class="node">
<title>Node10</title>
<g id="a_node8"><a xlink:title=" ">
<polygon fill="white" stroke="#bfbfbf" points="1924.5,-0.5 1924.5,-19.5 2054.5,-19.5 2054.5,-0.5 1924.5,-0.5"/>
<text text-anchor="middle" x="1989.5" y="-7.5" font-family="Helvetica,sans-Serif" font-size="10.00">odp/api/abi/std_types.h</text>
</a>
</g>
</g>
<!-- Node9&#45;&gt;Node10 -->
<g id="edge7" class="edge">
<title>Node9&#45;&gt;Node10</title>
<path fill="none" stroke="midnightblue" d="M2626.38,-60.63C2502.36,-50.96 2204.92,-27.79 2064.86,-16.87"/>
<polygon fill="midnightblue" stroke="midnightblue" points="2064.89,-13.36 2054.65,-16.08 2064.34,-20.34 2064.89,-13.36"/>
</g>
<!-- Node54&#45;&gt;Node56 -->
<g id="edge16" class="edge">
<title>Node54&#45;&gt;Node56</title>
<path fill="none" stroke="midnightblue" d="M377.66,-113.32C380.65,-112.85 383.62,-112.4 386.5,-112 528.84,-92.2 697.37,-77.93 784.24,-71.25"/>
<polygon fill="midnightblue" stroke="midnightblue" points="784.72,-74.73 794.43,-70.48 784.19,-67.75 784.72,-74.73"/>
</g>
<!-- Node64&#45;&gt;Node9 -->
<g id="edge19" class="edge">
<title>Node64&#45;&gt;Node9</title>
<path fill="none" stroke="midnightblue" d="M1528.55,-113.11C1531.91,-112.69 1535.25,-112.31 1538.5,-112 1946.81,-72.42 2440.32,-67.41 2616.26,-66.96"/>
<polygon fill="midnightblue" stroke="midnightblue" points="2616.4,-70.46 2626.4,-66.93 2616.39,-63.46 2616.4,-70.46"/>
</g>
<!-- Node64&#45;&gt;Node65 -->
<g id="edge20" class="edge">
<title>Node64&#45;&gt;Node65</title>
<path fill="none" stroke="midnightblue" d="M1474.23,-112.08C1468.86,-104.46 1460.98,-93.26 1454.42,-83.94"/>
<polygon fill="midnightblue" stroke="midnightblue" points="1457.28,-81.91 1448.66,-75.75 1451.55,-85.94 1457.28,-81.91"/>
</g>
<!-- Node77&#45;&gt;Node9 -->
<g id="edge25" class="edge">
<title>Node77&#45;&gt;Node9</title>
<path fill="none" stroke="midnightblue" d="M1894.3,-112.9C1897.41,-112.58 1900.49,-112.27 1903.5,-112 2166.79,-87.97 2481.39,-74.42 2616.04,-69.34"/>
<polygon fill="midnightblue" stroke="midnightblue" points="2616.33,-72.84 2626.19,-68.96 2616.07,-65.84 2616.33,-72.84"/>
</g>
<!-- Node81&#45;&gt;Node9 -->
<g id="edge29" class="edge">
<title>Node81&#45;&gt;Node9</title>
<path fill="none" stroke="midnightblue" d="M2165.68,-113.19C2168.66,-112.76 2171.62,-112.36 2174.5,-112 2332.36,-92.12 2518.91,-77.98 2616.09,-71.31"/>
<polygon fill="midnightblue" stroke="midnightblue" points="2616.61,-74.78 2626.35,-70.61 2616.14,-67.8 2616.61,-74.78"/>
</g>
<!-- Node86&#45;&gt;Node9 -->
<g id="edge32" class="edge">
<title>Node86&#45;&gt;Node9</title>
<path fill="none" stroke="midnightblue" d="M2383.08,-113.48C2386.27,-112.98 2389.43,-112.48 2392.5,-112 2469.71,-99.91 2558.5,-86.16 2617.28,-77.07"/>
<polygon fill="midnightblue" stroke="midnightblue" points="2617.82,-80.53 2627.17,-75.54 2616.75,-73.61 2617.82,-80.53"/>
</g>
<!-- Node36&#45;&gt;Node9 -->
<g id="edge35" class="edge">
<title>Node36&#45;&gt;Node9</title>
<path fill="none" stroke="midnightblue" d="M2592.69,-112.32C2609.85,-103.66 2636.45,-90.24 2656.25,-80.25"/>
<polygon fill="midnightblue" stroke="midnightblue" points="2658,-83.28 2665.35,-75.65 2654.85,-77.04 2658,-83.28"/>
</g>
<!-- Node94&#45;&gt;Node9 -->
<g id="edge37" class="edge">
<title>Node94&#45;&gt;Node9</title>
<path fill="none" stroke="midnightblue" d="M2682.5,-112.08C2682.5,-105.01 2682.5,-94.86 2682.5,-85.99"/>
<polygon fill="midnightblue" stroke="midnightblue" points="2686,-85.75 2682.5,-75.75 2679,-85.75 2686,-85.75"/>
</g>
<!-- Node26&#45;&gt;Node9 -->
<g id="edge41" class="edge">
<title>Node26&#45;&gt;Node9</title>
<path fill="none" stroke="midnightblue" d="M2976.99,-113.34C2974.12,-112.89 2971.27,-112.44 2968.5,-112 2892.39,-100 2804.88,-86.24 2746.91,-77.12"/>
<polygon fill="midnightblue" stroke="midnightblue" points="2747.22,-73.63 2736.8,-75.53 2746.13,-80.55 2747.22,-73.63"/>
</g>
<!-- Node109&#45;&gt;Node9 -->
<g id="edge44" class="edge">
<title>Node109&#45;&gt;Node9</title>
<path fill="none" stroke="midnightblue" d="M3234.68,-112.96C3231.91,-112.62 3229.18,-112.3 3226.5,-112 3054.63,-92.82 2851.37,-78.12 2748.8,-71.26"/>
<polygon fill="midnightblue" stroke="midnightblue" points="2748.81,-67.75 2738.6,-70.58 2748.34,-74.73 2748.81,-67.75"/>
</g>
<!-- Node116&#45;&gt;Node9 -->
<g id="edge46" class="edge">
<title>Node116&#45;&gt;Node9</title>
<path fill="none" stroke="midnightblue" d="M3363.82,-112.88C3361.01,-112.57 3358.23,-112.27 3355.5,-112 3133.86,-89.95 2870.05,-75.82 2749.09,-70.02"/>
<polygon fill="midnightblue" stroke="midnightblue" points="2749.04,-66.51 2738.88,-69.53 2748.71,-73.5 2749.04,-66.51"/>
</g>
<!-- Node119&#45;&gt;Node9 -->
<g id="edge48" class="edge">
<title>Node119&#45;&gt;Node9</title>
<path fill="none" stroke="midnightblue" d="M3500.89,-113C3498.05,-112.63 3495.24,-112.3 3492.5,-112 3217.23,-82.31 2887.09,-71.68 2748.67,-68.35"/>
<polygon fill="midnightblue" stroke="midnightblue" points="2748.72,-64.85 2738.64,-68.11 2748.55,-71.85 2748.72,-64.85"/>
</g>
<!-- Node122&#45;&gt;Node9 -->
<g id="edge50" class="edge">
<title>Node122&#45;&gt;Node9</title>
<path fill="none" stroke="midnightblue" d="M3614.43,-112.83C3611.42,-112.53 3608.43,-112.25 3605.5,-112 3284.98,-84.47 2900.3,-72.46 2748.61,-68.55"/>
<polygon fill="midnightblue" stroke="midnightblue" points="2748.61,-65.04 2738.52,-68.29 2748.43,-72.04 2748.61,-65.04"/>
</g>
<!-- Node143&#45;&gt;Node10 -->
<g id="edge60" class="edge">
<title>Node143&#45;&gt;Node10</title>
<path fill="none" stroke="midnightblue" d="M1307.57,-61.89C1330.16,-60.15 1358.9,-57.94 1384.5,-56 1575.14,-41.58 1799.61,-24.98 1914.08,-16.55"/>
<polygon fill="midnightblue" stroke="midnightblue" points="1914.43,-20.03 1924.14,-15.81 1913.91,-13.05 1914.43,-20.03"/>
</g>
</g>
</svg>
