<?xml version="1.0" encoding="UTF-8" standalone="no"?>
<!DOCTYPE svg PUBLIC "-//W3C//DTD SVG 1.1//EN"
 "http://www.w3.org/Graphics/SVG/1.1/DTD/svg11.dtd">
<!-- Generated by graphviz version 2.43.0 (0)
 -->
<!-- Title: odp.h Pages: 1 -->
<svg width="5258pt" height="196pt"
 viewBox="0.00 0.00 5257.50 196.00" xmlns="http://www.w3.org/2000/svg" xmlns:xlink="http://www.w3.org/1999/xlink">
<g id="graph0" class="graph" transform="scale(1 1) rotate(0) translate(4 192)">
<title>odp.h</title>
<polygon fill="white" stroke="transparent" points="-4,4 -4,-192 5253.5,-192 5253.5,4 -4,4"/>
<!-- Node1 -->
<g id="node1" class="node">
<title>Node1</title>
<g id="a_node1"><a xlink:title=" ">
<polygon fill="#bfbfbf" stroke="black" points="2498.5,-168.5 2498.5,-187.5 2542.5,-187.5 2542.5,-168.5 2498.5,-168.5"/>
<text text-anchor="middle" x="2520.5" y="-175.5" font-family="Helvetica,sans-Serif" font-size="10.00">odp.h</text>
</a>
</g>
</g>
<!-- Node2 -->
<g id="node2" class="node">
<title>Node2</title>
<g id="a_node2"><a xlink:href="odp__api_8h.html" target="_top" xlink:title=" ">
<polygon fill="white" stroke="black" points="2488.5,-112.5 2488.5,-131.5 2552.5,-131.5 2552.5,-112.5 2488.5,-112.5"/>
<text text-anchor="middle" x="2520.5" y="-119.5" font-family="Helvetica,sans-Serif" font-size="10.00">odp_api.h</text>
</a>
</g>
</g>
<!-- Node1&#45;&gt;Node2 -->
<g id="edge1" class="edge">
<title>Node1&#45;&gt;Node2</title>
<path fill="none" stroke="midnightblue" d="M2520.5,-168.08C2520.5,-161.01 2520.5,-150.86 2520.5,-141.99"/>
<polygon fill="midnightblue" stroke="midnightblue" points="2524,-141.75 2520.5,-131.75 2517,-141.75 2524,-141.75"/>
</g>
<!-- Node3 -->
<g id="node3" class="node">
<title>Node3</title>
<g id="a_node3"><a xlink:href="deprecated_8h.html" target="_top" xlink:title=" ">
<polygon fill="white" stroke="black" points="24,-56.5 24,-75.5 143,-75.5 143,-56.5 24,-56.5"/>
<text text-anchor="middle" x="83.5" y="-63.5" font-family="Helvetica,sans-Serif" font-size="10.00">odp/api/deprecated.h</text>
</a>
</g>
</g>
<!-- Node2&#45;&gt;Node3 -->
<g id="edge2" class="edge">
<title>Node2&#45;&gt;Node3</title>
<path fill="none" stroke="midnightblue" d="M2488.4,-120.8C2241.78,-119.24 644.59,-107.99 162.5,-76 159.59,-75.81 156.63,-75.59 153.64,-75.34"/>
<polygon fill="midnightblue" stroke="midnightblue" points="153.67,-71.83 143.4,-74.43 153.05,-78.8 153.67,-71.83"/>
</g>
<!-- Node7 -->
<g id="node5" class="node">
<title>Node7</title>
<g id="a_node5"><a xlink:href="api_2version_8h.html" target="_top" xlink:title=" ">
<polygon fill="white" stroke="black" points="172,-56.5 172,-75.5 273,-75.5 273,-56.5 172,-56.5"/>
<text text-anchor="middle" x="222.5" y="-63.5" font-family="Helvetica,sans-Serif" font-size="10.00">odp/api/version.h</text>
</a>
</g>
</g>
<!-- Node2&#45;&gt;Node7 -->
<g id="edge4" class="edge">
<title>Node2&#45;&gt;Node7</title>
<path fill="none" stroke="midnightblue" d="M2488.13,-120.92C2249.55,-120.27 759.54,-114.68 283.22,-75.91"/>
<polygon fill="midnightblue" stroke="midnightblue" points="283.44,-72.41 273.18,-75.07 282.86,-79.39 283.44,-72.41"/>
</g>
<!-- Node10 -->
<g id="node8" class="node">
<title>Node10</title>
<g id="a_node8"><a xlink:href="api_2std__types_8h.html" target="_top" xlink:title=" ">
<polygon fill="white" stroke="red" points="2639.5,-0.5 2639.5,-19.5 2751.5,-19.5 2751.5,-0.5 2639.5,-0.5"/>
<text text-anchor="middle" x="2695.5" y="-7.5" font-family="Helvetica,sans-Serif" font-size="10.00">odp/api/std_types.h</text>
</a>
</g>
</g>
<!-- Node2&#45;&gt;Node10 -->
<g id="edge7" class="edge">
<title>Node2&#45;&gt;Node10</title>
<path fill="none" stroke="midnightblue" d="M2552.61,-121.03C2738.36,-121.02 3668.24,-118.85 3709.5,-76 3715.67,-69.6 3715.64,-62.42 3709.5,-56 3676.71,-21.73 2981.66,-13.27 2761.66,-11.45"/>
<polygon fill="midnightblue" stroke="midnightblue" points="2761.57,-7.95 2751.54,-11.37 2761.51,-14.95 2761.57,-7.95"/>
</g>
<!-- Node14 -->
<g id="node9" class="node">
<title>Node14</title>
<g id="a_node9"><a xlink:href="api_2align_8h.html" target="_top" xlink:title=" ">
<polygon fill="white" stroke="red" points="392,-56.5 392,-75.5 481,-75.5 481,-56.5 392,-56.5"/>
<text text-anchor="middle" x="436.5" y="-63.5" font-family="Helvetica,sans-Serif" font-size="10.00">odp/api/align.h</text>
</a>
</g>
</g>
<!-- Node2&#45;&gt;Node14 -->
<g id="edge8" class="edge">
<title>Node2&#45;&gt;Node14</title>
<path fill="none" stroke="midnightblue" d="M2488.28,-120.93C2263.15,-120.36 922.13,-115.36 491.27,-76.01"/>
<polygon fill="midnightblue" stroke="midnightblue" points="491.54,-72.52 481.26,-75.07 490.89,-79.49 491.54,-72.52"/>
</g>
<!-- Node17 -->
<g id="node10" class="node">
<title>Node17</title>
<g id="a_node10"><a xlink:href="api_2hash_8h.html" target="_top" xlink:title=" ">
<polygon fill="white" stroke="red" points="498.5,-56.5 498.5,-75.5 586.5,-75.5 586.5,-56.5 498.5,-56.5"/>
<text text-anchor="middle" x="542.5" y="-63.5" font-family="Helvetica,sans-Serif" font-size="10.00">odp/api/hash.h</text>
</a>
</g>
</g>
<!-- Node2&#45;&gt;Node17 -->
<g id="edge9" class="edge">
<title>Node2&#45;&gt;Node17</title>
<path fill="none" stroke="midnightblue" d="M2488.22,-120.89C2269.85,-120.02 1005.65,-113.48 596.77,-75.94"/>
<polygon fill="midnightblue" stroke="midnightblue" points="596.97,-72.45 586.68,-74.99 596.31,-79.42 596.97,-72.45"/>
</g>
<!-- Node20 -->
<g id="node11" class="node">
<title>Node20</title>
<g id="a_node11"><a xlink:href="chksum_8h.html" target="_top" xlink:title=" ">
<polygon fill="white" stroke="red" points="605,-56.5 605,-75.5 708,-75.5 708,-56.5 605,-56.5"/>
<text text-anchor="middle" x="656.5" y="-63.5" font-family="Helvetica,sans-Serif" font-size="10.00">odp/api/chksum.h</text>
</a>
</g>
</g>
<!-- Node2&#45;&gt;Node20 -->
<g id="edge10" class="edge">
<title>Node2&#45;&gt;Node20</title>
<path fill="none" stroke="midnightblue" d="M2488.26,-120.73C2278.25,-118.91 1101.88,-107.43 718.06,-75.9"/>
<polygon fill="midnightblue" stroke="midnightblue" points="718.29,-72.4 708.03,-75.05 717.7,-79.38 718.29,-72.4"/>
</g>
<!-- Node22 -->
<g id="node12" class="node">
<title>Node22</title>
<g id="a_node12"><a xlink:href="api_2comp_8h.html" target="_top" xlink:title=" ">
<polygon fill="white" stroke="red" points="726.5,-56.5 726.5,-75.5 818.5,-75.5 818.5,-56.5 726.5,-56.5"/>
<text text-anchor="middle" x="772.5" y="-63.5" font-family="Helvetica,sans-Serif" font-size="10.00">odp/api/comp.h</text>
</a>
</g>
</g>
<!-- Node2&#45;&gt;Node22 -->
<g id="edge11" class="edge">
<title>Node2&#45;&gt;Node22</title>
<path fill="none" stroke="midnightblue" d="M2488.29,-120.73C2286.1,-118.93 1189.43,-107.89 828.78,-75.83"/>
<polygon fill="midnightblue" stroke="midnightblue" points="828.86,-72.33 818.58,-74.9 828.22,-79.3 828.86,-72.33"/>
</g>
<!-- Node47 -->
<g id="node13" class="node">
<title>Node47</title>
<g id="a_node13"><a xlink:href="hints_8h.html" target="_top" xlink:title=" ">
<polygon fill="white" stroke="red" points="837,-56.5 837,-75.5 926,-75.5 926,-56.5 837,-56.5"/>
<text text-anchor="middle" x="881.5" y="-63.5" font-family="Helvetica,sans-Serif" font-size="10.00">odp/api/hints.h</text>
</a>
</g>
</g>
<!-- Node2&#45;&gt;Node47 -->
<g id="edge12" class="edge">
<title>Node2&#45;&gt;Node47</title>
<path fill="none" stroke="midnightblue" d="M2488.44,-120.69C2294.35,-118.71 1273.88,-107.03 936.49,-75.91"/>
<polygon fill="midnightblue" stroke="midnightblue" points="936.51,-72.4 926.23,-74.94 935.85,-79.37 936.51,-72.4"/>
</g>
<!-- Node49 -->
<g id="node14" class="node">
<title>Node49</title>
<g id="a_node14"><a xlink:href="api_2debug_8h.html" target="_top" xlink:title=" ">
<polygon fill="white" stroke="red" points="944,-56.5 944,-75.5 1039,-75.5 1039,-56.5 944,-56.5"/>
<text text-anchor="middle" x="991.5" y="-63.5" font-family="Helvetica,sans-Serif" font-size="10.00">odp/api/debug.h</text>
</a>
</g>
</g>
<!-- Node2&#45;&gt;Node49 -->
<g id="edge13" class="edge">
<title>Node2&#45;&gt;Node49</title>
<path fill="none" stroke="midnightblue" d="M2488.33,-120.57C2302.32,-118 1362.38,-103.84 1049.01,-75.88"/>
<polygon fill="midnightblue" stroke="midnightblue" points="1049.31,-72.39 1039.03,-74.96 1048.67,-79.36 1049.31,-72.39"/>
</g>
<!-- Node52 -->
<g id="node15" class="node">
<title>Node52</title>
<g id="a_node15"><a xlink:href="api_2byteorder_8h.html" target="_top" xlink:title=" ">
<polygon fill="white" stroke="red" points="1057,-56.5 1057,-75.5 1168,-75.5 1168,-56.5 1057,-56.5"/>
<text text-anchor="middle" x="1112.5" y="-63.5" font-family="Helvetica,sans-Serif" font-size="10.00">odp/api/byteorder.h</text>
</a>
</g>
</g>
<!-- Node2&#45;&gt;Node52 -->
<g id="edge14" class="edge">
<title>Node2&#45;&gt;Node52</title>
<path fill="none" stroke="midnightblue" d="M2488.33,-121.04C2339.48,-120.96 1702.59,-118.09 1182.5,-76 1181.19,-75.89 1179.88,-75.78 1178.55,-75.66"/>
<polygon fill="midnightblue" stroke="midnightblue" points="1178.53,-72.14 1168.23,-74.65 1177.84,-79.11 1178.53,-72.14"/>
</g>
<!-- Node55 -->
<g id="node16" class="node">
<title>Node55</title>
<g id="a_node16"><a xlink:href="api_2cpu_8h.html" target="_top" xlink:title=" ">
<polygon fill="white" stroke="red" points="291.5,-56.5 291.5,-75.5 373.5,-75.5 373.5,-56.5 291.5,-56.5"/>
<text text-anchor="middle" x="332.5" y="-63.5" font-family="Helvetica,sans-Serif" font-size="10.00">odp/api/cpu.h</text>
</a>
</g>
</g>
<!-- Node2&#45;&gt;Node55 -->
<g id="edge15" class="edge">
<title>Node2&#45;&gt;Node55</title>
<path fill="none" stroke="midnightblue" d="M2488.46,-121.02C2257.1,-121.03 838.28,-119.39 383.86,-75.93"/>
<polygon fill="midnightblue" stroke="midnightblue" points="383.92,-72.42 373.63,-74.93 383.24,-79.39 383.92,-72.42"/>
</g>
<!-- Node57 -->
<g id="node17" class="node">
<title>Node57</title>
<g id="a_node17"><a xlink:href="api_2thread_8h.html" target="_top" xlink:title=" ">
<polygon fill="white" stroke="red" points="860.5,-0.5 860.5,-19.5 956.5,-19.5 956.5,-0.5 860.5,-0.5"/>
<text text-anchor="middle" x="908.5" y="-7.5" font-family="Helvetica,sans-Serif" font-size="10.00">odp/api/thread.h</text>
</a>
</g>
</g>
<!-- Node2&#45;&gt;Node57 -->
<g id="edge26" class="edge">
<title>Node2&#45;&gt;Node57</title>
<path fill="none" stroke="midnightblue" d="M2488.43,-120.97C2315.67,-120.67 1494.55,-117.04 1244.5,-76 1213.83,-70.97 1207.77,-63.02 1177.5,-56 1105.78,-39.37 1021.96,-26.34 967.18,-18.67"/>
<polygon fill="midnightblue" stroke="midnightblue" points="967.35,-15.16 956.96,-17.26 966.39,-22.1 967.35,-15.16"/>
</g>
<!-- Node62 -->
<g id="node18" class="node">
<title>Node62</title>
<g id="a_node18"><a xlink:href="api_2cpumask_8h.html" target="_top" xlink:title=" ">
<polygon fill="white" stroke="red" points="1263,-56.5 1263,-75.5 1372,-75.5 1372,-56.5 1263,-56.5"/>
<text text-anchor="middle" x="1317.5" y="-63.5" font-family="Helvetica,sans-Serif" font-size="10.00">odp/api/cpumask.h</text>
</a>
</g>
</g>
<!-- Node2&#45;&gt;Node62 -->
<g id="edge17" class="edge">
<title>Node2&#45;&gt;Node62</title>
<path fill="none" stroke="midnightblue" d="M2488.26,-120.91C2354.09,-120.28 1826.64,-115.34 1382.42,-75.98"/>
<polygon fill="midnightblue" stroke="midnightblue" points="1382.54,-72.47 1372.27,-75.07 1381.92,-79.45 1382.54,-72.47"/>
</g>
<!-- Node65 -->
<g id="node19" class="node">
<title>Node65</title>
<g id="a_node19"><a xlink:href="api_2barrier_8h.html" target="_top" xlink:title=" ">
<polygon fill="white" stroke="red" points="1390.5,-56.5 1390.5,-75.5 1486.5,-75.5 1486.5,-56.5 1390.5,-56.5"/>
<text text-anchor="middle" x="1438.5" y="-63.5" font-family="Helvetica,sans-Serif" font-size="10.00">odp/api/barrier.h</text>
</a>
</g>
</g>
<!-- Node2&#45;&gt;Node65 -->
<g id="edge18" class="edge">
<title>Node2&#45;&gt;Node65</title>
<path fill="none" stroke="midnightblue" d="M2488.13,-120.87C2361.24,-120.1 1885.63,-114.62 1496.5,-76 1496.4,-75.99 1496.3,-75.98 1496.2,-75.97"/>
<polygon fill="midnightblue" stroke="midnightblue" points="1496.89,-72.53 1486.55,-74.87 1496.1,-79.48 1496.89,-72.53"/>
</g>
<!-- Node66 -->
<g id="node20" class="node">
<title>Node66</title>
<g id="a_node20"><a xlink:href="api_2atomic_8h.html" target="_top" xlink:title=" ">
<polygon fill="white" stroke="red" points="1287.5,-0.5 1287.5,-19.5 1385.5,-19.5 1385.5,-0.5 1287.5,-0.5"/>
<text text-anchor="middle" x="1336.5" y="-7.5" font-family="Helvetica,sans-Serif" font-size="10.00">odp/api/atomic.h</text>
</a>
</g>
</g>
<!-- Node2&#45;&gt;Node66 -->
<g id="edge22" class="edge">
<title>Node2&#45;&gt;Node66</title>
<path fill="none" stroke="midnightblue" d="M2488.21,-121.1C2295,-121.56 1298.62,-121.72 1254.5,-76 1234.58,-55.36 1270.43,-35.45 1300.84,-23.22"/>
<polygon fill="midnightblue" stroke="midnightblue" points="1302.36,-26.39 1310.44,-19.53 1299.85,-19.85 1302.36,-26.39"/>
</g>
<!-- Node72 -->
<g id="node21" class="node">
<title>Node72</title>
<g id="a_node21"><a xlink:href="api_2spinlock_8h.html" target="_top" xlink:title=" ">
<polygon fill="white" stroke="red" points="1648,-56.5 1648,-75.5 1753,-75.5 1753,-56.5 1648,-56.5"/>
<text text-anchor="middle" x="1700.5" y="-63.5" font-family="Helvetica,sans-Serif" font-size="10.00">odp/api/spinlock.h</text>
</a>
</g>
</g>
<!-- Node2&#45;&gt;Node72 -->
<g id="edge21" class="edge">
<title>Node2&#45;&gt;Node72</title>
<path fill="none" stroke="midnightblue" d="M2488.28,-120.07C2384.71,-116.86 2050.78,-104.9 1763.43,-76"/>
<polygon fill="midnightblue" stroke="midnightblue" points="1763.53,-72.49 1753.23,-74.96 1762.82,-79.46 1763.53,-72.49"/>
</g>
<!-- Node75 -->
<g id="node22" class="node">
<title>Node75</title>
<g id="a_node22"><a xlink:href="api_2init_8h.html" target="_top" xlink:title=" ">
<polygon fill="white" stroke="red" points="1771.5,-56.5 1771.5,-75.5 1851.5,-75.5 1851.5,-56.5 1771.5,-56.5"/>
<text text-anchor="middle" x="1811.5" y="-63.5" font-family="Helvetica,sans-Serif" font-size="10.00">odp/api/init.h</text>
</a>
</g>
</g>
<!-- Node2&#45;&gt;Node75 -->
<g id="edge23" class="edge">
<title>Node2&#45;&gt;Node75</title>
<path fill="none" stroke="midnightblue" d="M2488.44,-120.1C2394.01,-117.19 2108.61,-106.44 1861.79,-76.02"/>
<polygon fill="midnightblue" stroke="midnightblue" points="1861.91,-72.5 1851.55,-74.74 1861.04,-79.45 1861.91,-72.5"/>
</g>
<!-- Node78 -->
<g id="node23" class="node">
<title>Node78</title>
<g id="a_node23"><a xlink:href="system__info_8h.html" target="_top" xlink:title=" ">
<polygon fill="white" stroke="red" points="1505,-56.5 1505,-75.5 1630,-75.5 1630,-56.5 1505,-56.5"/>
<text text-anchor="middle" x="1567.5" y="-63.5" font-family="Helvetica,sans-Serif" font-size="10.00">odp/api/system_info.h</text>
</a>
</g>
</g>
<!-- Node2&#45;&gt;Node78 -->
<g id="edge24" class="edge">
<title>Node2&#45;&gt;Node78</title>
<path fill="none" stroke="midnightblue" d="M2488.44,-120.21C2374.51,-117.23 1978.4,-105.34 1640.29,-76"/>
<polygon fill="midnightblue" stroke="midnightblue" points="1640.57,-72.51 1630.3,-75.13 1639.96,-79.48 1640.57,-72.51"/>
</g>
<!-- Node80 -->
<g id="node24" class="node">
<title>Node80</title>
<g id="a_node24"><a xlink:href="api_2shared__memory_8h.html" target="_top" xlink:title=" ">
<polygon fill="white" stroke="red" points="1980,-56.5 1980,-75.5 2123,-75.5 2123,-56.5 1980,-56.5"/>
<text text-anchor="middle" x="2051.5" y="-63.5" font-family="Helvetica,sans-Serif" font-size="10.00">odp/api/shared_memory.h</text>
</a>
</g>
</g>
<!-- Node2&#45;&gt;Node80 -->
<g id="edge27" class="edge">
<title>Node2&#45;&gt;Node80</title>
<path fill="none" stroke="midnightblue" d="M2488.26,-117.29C2415.86,-108.95 2238.48,-88.53 2133.39,-76.43"/>
<polygon fill="midnightblue" stroke="midnightblue" points="2133.47,-72.91 2123.14,-75.25 2132.67,-79.87 2133.47,-72.91"/>
</g>
<!-- Node82 -->
<g id="node25" class="node">
<title>Node82</title>
<g id="a_node25"><a xlink:href="api_2buffer_8h.html" target="_top" xlink:title=" ">
<polygon fill="white" stroke="red" points="1869.5,-56.5 1869.5,-75.5 1961.5,-75.5 1961.5,-56.5 1869.5,-56.5"/>
<text text-anchor="middle" x="1915.5" y="-63.5" font-family="Helvetica,sans-Serif" font-size="10.00">odp/api/buffer.h</text>
</a>
</g>
</g>
<!-- Node2&#45;&gt;Node82 -->
<g id="edge28" class="edge">
<title>Node2&#45;&gt;Node82</title>
<path fill="none" stroke="midnightblue" d="M2488.23,-119.23C2404.75,-114.47 2174.65,-100.17 1971.56,-75.9"/>
<polygon fill="midnightblue" stroke="midnightblue" points="1971.95,-72.42 1961.6,-74.7 1971.11,-79.37 1971.95,-72.42"/>
</g>
<!-- Node84 -->
<g id="node26" class="node">
<title>Node84</title>
<g id="a_node26"><a xlink:href="api_2pool_8h.html" target="_top" xlink:title=" ">
<polygon fill="white" stroke="red" points="2254.5,-56.5 2254.5,-75.5 2340.5,-75.5 2340.5,-56.5 2254.5,-56.5"/>
<text text-anchor="middle" x="2297.5" y="-63.5" font-family="Helvetica,sans-Serif" font-size="10.00">odp/api/pool.h</text>
</a>
</g>
</g>
<!-- Node2&#45;&gt;Node84 -->
<g id="edge30" class="edge">
<title>Node2&#45;&gt;Node84</title>
<path fill="none" stroke="midnightblue" d="M2488.07,-113.15C2449.83,-103.89 2386.01,-88.43 2342.87,-77.99"/>
<polygon fill="midnightblue" stroke="midnightblue" points="2343.46,-74.53 2332.91,-75.58 2341.81,-81.33 2343.46,-74.53"/>
</g>
<!-- Node87 -->
<g id="node27" class="node">
<title>Node87</title>
<g id="a_node27"><a xlink:href="api_2queue_8h.html" target="_top" xlink:title=" ">
<polygon fill="white" stroke="red" points="2141,-56.5 2141,-75.5 2236,-75.5 2236,-56.5 2141,-56.5"/>
<text text-anchor="middle" x="2188.5" y="-63.5" font-family="Helvetica,sans-Serif" font-size="10.00">odp/api/queue.h</text>
</a>
</g>
</g>
<!-- Node2&#45;&gt;Node87 -->
<g id="edge31" class="edge">
<title>Node2&#45;&gt;Node87</title>
<path fill="none" stroke="midnightblue" d="M2488.36,-115.77C2432.37,-106.67 2316.21,-87.77 2246.04,-76.36"/>
<polygon fill="midnightblue" stroke="midnightblue" points="2246.46,-72.88 2236.03,-74.73 2245.34,-79.79 2246.46,-72.88"/>
</g>
<!-- Node92 -->
<g id="node28" class="node">
<title>Node92</title>
<g id="a_node28"><a xlink:href="api_2ticketlock_8h.html" target="_top" xlink:title=" ">
<polygon fill="white" stroke="red" points="2464.5,-56.5 2464.5,-75.5 2576.5,-75.5 2576.5,-56.5 2464.5,-56.5"/>
<text text-anchor="middle" x="2520.5" y="-63.5" font-family="Helvetica,sans-Serif" font-size="10.00">odp/api/ticketlock.h</text>
</a>
</g>
</g>
<!-- Node2&#45;&gt;Node92 -->
<g id="edge33" class="edge">
<title>Node2&#45;&gt;Node92</title>
<path fill="none" stroke="midnightblue" d="M2520.5,-112.08C2520.5,-105.01 2520.5,-94.86 2520.5,-85.99"/>
<polygon fill="midnightblue" stroke="midnightblue" points="2524,-85.75 2520.5,-75.75 2517,-85.75 2524,-85.75"/>
</g>
<!-- Node37 -->
<g id="node29" class="node">
<title>Node37</title>
<g id="a_node29"><a xlink:href="api_2time_8h.html" target="_top" xlink:title=" ">
<polygon fill="white" stroke="red" points="2359,-56.5 2359,-75.5 2446,-75.5 2446,-56.5 2359,-56.5"/>
<text text-anchor="middle" x="2402.5" y="-63.5" font-family="Helvetica,sans-Serif" font-size="10.00">odp/api/time.h</text>
</a>
</g>
</g>
<!-- Node2&#45;&gt;Node37 -->
<g id="edge34" class="edge">
<title>Node2&#45;&gt;Node37</title>
<path fill="none" stroke="midnightblue" d="M2501.8,-112.44C2482.56,-103.64 2452.35,-89.81 2430.3,-79.72"/>
<polygon fill="midnightblue" stroke="midnightblue" points="2431.66,-76.5 2421.11,-75.52 2428.75,-82.86 2431.66,-76.5"/>
</g>
<!-- Node95 -->
<g id="node30" class="node">
<title>Node95</title>
<g id="a_node30"><a xlink:href="api_2timer_8h.html" target="_top" xlink:title=" ">
<polygon fill="white" stroke="red" points="2594.5,-56.5 2594.5,-75.5 2684.5,-75.5 2684.5,-56.5 2594.5,-56.5"/>
<text text-anchor="middle" x="2639.5" y="-63.5" font-family="Helvetica,sans-Serif" font-size="10.00">odp/api/timer.h</text>
</a>
</g>
</g>
<!-- Node2&#45;&gt;Node95 -->
<g id="edge36" class="edge">
<title>Node2&#45;&gt;Node95</title>
<path fill="none" stroke="midnightblue" d="M2539.36,-112.44C2558.77,-103.64 2589.23,-89.81 2611.46,-79.72"/>
<polygon fill="midnightblue" stroke="midnightblue" points="2613.07,-82.84 2620.73,-75.52 2610.18,-76.46 2613.07,-82.84"/>
</g>
<!-- Node98 -->
<g id="node31" class="node">
<title>Node98</title>
<g id="a_node31"><a xlink:href="api_2schedule_8h.html" target="_top" xlink:title=" ">
<polygon fill="white" stroke="red" points="2818.5,-56.5 2818.5,-75.5 2926.5,-75.5 2926.5,-56.5 2818.5,-56.5"/>
<text text-anchor="middle" x="2872.5" y="-63.5" font-family="Helvetica,sans-Serif" font-size="10.00">odp/api/schedule.h</text>
</a>
</g>
</g>
<!-- Node2&#45;&gt;Node98 -->
<g id="edge38" class="edge">
<title>Node2&#45;&gt;Node98</title>
<path fill="none" stroke="midnightblue" d="M2552.67,-116.06C2610.38,-107.21 2732.48,-88.48 2808.01,-76.89"/>
<polygon fill="midnightblue" stroke="midnightblue" points="2808.99,-80.28 2818.35,-75.31 2807.93,-73.36 2808.99,-80.28"/>
</g>
<!-- Node104 -->
<g id="node32" class="node">
<title>Node104</title>
<g id="a_node32"><a xlink:href="api_2sync_8h.html" target="_top" xlink:title=" ">
<polygon fill="white" stroke="red" points="2945,-56.5 2945,-75.5 3032,-75.5 3032,-56.5 2945,-56.5"/>
<text text-anchor="middle" x="2988.5" y="-63.5" font-family="Helvetica,sans-Serif" font-size="10.00">odp/api/sync.h</text>
</a>
</g>
</g>
<!-- Node2&#45;&gt;Node104 -->
<g id="edge39" class="edge">
<title>Node2&#45;&gt;Node104</title>
<path fill="none" stroke="midnightblue" d="M2552.6,-118.18C2620.85,-112.05 2785.57,-96.5 2934.61,-76.04"/>
<polygon fill="midnightblue" stroke="midnightblue" points="2935.43,-79.46 2944.86,-74.62 2934.47,-72.53 2935.43,-79.46"/>
</g>
<!-- Node27 -->
<g id="node33" class="node">
<title>Node27</title>
<g id="a_node33"><a xlink:href="api_2packet_8h.html" target="_top" xlink:title=" ">
<polygon fill="white" stroke="red" points="2703,-56.5 2703,-75.5 2800,-75.5 2800,-56.5 2703,-56.5"/>
<text text-anchor="middle" x="2751.5" y="-63.5" font-family="Helvetica,sans-Serif" font-size="10.00">odp/api/packet.h</text>
</a>
</g>
</g>
<!-- Node2&#45;&gt;Node27 -->
<g id="edge40" class="edge">
<title>Node2&#45;&gt;Node27</title>
<path fill="none" stroke="midnightblue" d="M2552.62,-113.49C2592.27,-104.22 2659.98,-88.39 2705.23,-77.82"/>
<polygon fill="midnightblue" stroke="midnightblue" points="2706.15,-81.2 2715.09,-75.51 2704.55,-74.38 2706.15,-81.2"/>
</g>
<!-- Node107 -->
<g id="node34" class="node">
<title>Node107</title>
<g id="a_node34"><a xlink:href="api_2packet__flags_8h.html" target="_top" xlink:title=" ">
<polygon fill="white" stroke="red" points="3179,-56.5 3179,-75.5 3304,-75.5 3304,-56.5 3179,-56.5"/>
<text text-anchor="middle" x="3241.5" y="-63.5" font-family="Helvetica,sans-Serif" font-size="10.00">odp/api/packet_flags.h</text>
</a>
</g>
</g>
<!-- Node2&#45;&gt;Node107 -->
<g id="edge42" class="edge">
<title>Node2&#45;&gt;Node107</title>
<path fill="none" stroke="midnightblue" d="M2552.68,-119.42C2646.17,-114.7 2926.01,-99.6 3168.73,-76.13"/>
<polygon fill="midnightblue" stroke="midnightblue" points="3169.19,-79.6 3178.8,-75.14 3168.51,-72.63 3169.19,-79.6"/>
</g>
<!-- Node110 -->
<g id="node35" class="node">
<title>Node110</title>
<g id="a_node35"><a xlink:href="api_2packet__io_8h.html" target="_top" xlink:title=" ">
<polygon fill="white" stroke="red" points="3050,-56.5 3050,-75.5 3161,-75.5 3161,-56.5 3050,-56.5"/>
<text text-anchor="middle" x="3105.5" y="-63.5" font-family="Helvetica,sans-Serif" font-size="10.00">odp/api/packet_io.h</text>
</a>
</g>
</g>
<!-- Node2&#45;&gt;Node110 -->
<g id="edge43" class="edge">
<title>Node2&#45;&gt;Node110</title>
<path fill="none" stroke="midnightblue" d="M2552.57,-118.83C2632.83,-113.27 2849.02,-97.52 3039.48,-76.18"/>
<polygon fill="midnightblue" stroke="midnightblue" points="3040.13,-79.63 3049.67,-75.03 3039.35,-72.67 3040.13,-79.63"/>
</g>
<!-- Node117 -->
<g id="node36" class="node">
<title>Node117</title>
<g id="a_node36"><a xlink:href="api_2proto__stats_8h.html" target="_top" xlink:title=" ">
<polygon fill="white" stroke="red" points="3322,-56.5 3322,-75.5 3441,-75.5 3441,-56.5 3322,-56.5"/>
<text text-anchor="middle" x="3381.5" y="-63.5" font-family="Helvetica,sans-Serif" font-size="10.00">odp/api/proto_stats.h</text>
</a>
</g>
</g>
<!-- Node2&#45;&gt;Node117 -->
<g id="edge45" class="edge">
<title>Node2&#45;&gt;Node117</title>
<path fill="none" stroke="midnightblue" d="M2552.67,-120.04C2659.25,-116.68 3010.67,-104.12 3311.59,-76.12"/>
<polygon fill="midnightblue" stroke="midnightblue" points="3312.2,-79.57 3321.82,-75.16 3311.54,-72.6 3312.2,-79.57"/>
</g>
<!-- Node120 -->
<g id="node37" class="node">
<title>Node120</title>
<g id="a_node37"><a xlink:href="api_2crypto_8h.html" target="_top" xlink:title=" ">
<polygon fill="white" stroke="red" points="3459,-56.5 3459,-75.5 3554,-75.5 3554,-56.5 3459,-56.5"/>
<text text-anchor="middle" x="3506.5" y="-63.5" font-family="Helvetica,sans-Serif" font-size="10.00">odp/api/crypto.h</text>
</a>
</g>
</g>
<!-- Node2&#45;&gt;Node120 -->
<g id="edge47" class="edge">
<title>Node2&#45;&gt;Node120</title>
<path fill="none" stroke="midnightblue" d="M2552.72,-120.73C2670.94,-119.49 3092.09,-112.66 3448.88,-76.06"/>
<polygon fill="midnightblue" stroke="midnightblue" points="3449.3,-79.53 3458.89,-75.02 3448.58,-72.57 3449.3,-79.53"/>
</g>
<!-- Node123 -->
<g id="node38" class="node">
<title>Node123</title>
<g id="a_node38"><a xlink:href="api_2classification_8h.html" target="_top" xlink:title=" ">
<polygon fill="white" stroke="red" points="3572.5,-56.5 3572.5,-75.5 3700.5,-75.5 3700.5,-56.5 3572.5,-56.5"/>
<text text-anchor="middle" x="3636.5" y="-63.5" font-family="Helvetica,sans-Serif" font-size="10.00">odp/api/classification.h</text>
</a>
</g>
</g>
<!-- Node2&#45;&gt;Node123 -->
<g id="edge49" class="edge">
<title>Node2&#45;&gt;Node123</title>
<path fill="none" stroke="midnightblue" d="M2552.57,-120.55C2679.3,-118.56 3157.65,-109.21 3562.29,-76.03"/>
<polygon fill="midnightblue" stroke="midnightblue" points="3562.76,-79.5 3572.44,-75.19 3562.18,-72.53 3562.76,-79.5"/>
</g>
<!-- Node127 -->
<g id="node39" class="node">
<title>Node127</title>
<g id="a_node39"><a xlink:href="api_2rwlock_8h.html" target="_top" xlink:title=" ">
<polygon fill="white" stroke="red" points="3757,-56.5 3757,-75.5 3854,-75.5 3854,-56.5 3757,-56.5"/>
<text text-anchor="middle" x="3805.5" y="-63.5" font-family="Helvetica,sans-Serif" font-size="10.00">odp/api/rwlock.h</text>
</a>
</g>
</g>
<!-- Node2&#45;&gt;Node127 -->
<g id="edge51" class="edge">
<title>Node2&#45;&gt;Node127</title>
<path fill="none" stroke="midnightblue" d="M2552.68,-121.06C2693.67,-121.04 3270.97,-118.25 3742.5,-76 3743.8,-75.88 3745.11,-75.76 3746.44,-75.63"/>
<polygon fill="midnightblue" stroke="midnightblue" points="3747.17,-79.07 3756.72,-74.48 3746.39,-72.11 3747.17,-79.07"/>
</g>
<!-- Node90 -->
<g id="node40" class="node">
<title>Node90</title>
<g id="a_node40"><a xlink:href="api_2event_8h.html" target="_top" xlink:title=" ">
<polygon fill="white" stroke="red" points="3872.5,-56.5 3872.5,-75.5 3964.5,-75.5 3964.5,-56.5 3872.5,-56.5"/>
<text text-anchor="middle" x="3918.5" y="-63.5" font-family="Helvetica,sans-Serif" font-size="10.00">odp/api/event.h</text>
</a>
</g>
</g>
<!-- Node2&#45;&gt;Node90 -->
<g id="edge52" class="edge">
<title>Node2&#45;&gt;Node90</title>
<path fill="none" stroke="midnightblue" d="M2552.71,-120.48C2728.71,-117.58 3576.32,-102.5 3862.01,-75.98"/>
<polygon fill="midnightblue" stroke="midnightblue" points="3862.72,-79.43 3872.34,-75 3862.06,-72.46 3862.72,-79.43"/>
</g>
<!-- Node130 -->
<g id="node41" class="node">
<title>Node130</title>
<g id="a_node41"><a xlink:href="random_8h.html" target="_top" xlink:title=" ">
<polygon fill="white" stroke="red" points="3982.5,-56.5 3982.5,-75.5 4084.5,-75.5 4084.5,-56.5 3982.5,-56.5"/>
<text text-anchor="middle" x="4033.5" y="-63.5" font-family="Helvetica,sans-Serif" font-size="10.00">odp/api/random.h</text>
</a>
</g>
</g>
<!-- Node2&#45;&gt;Node130 -->
<g id="edge53" class="edge">
<title>Node2&#45;&gt;Node130</title>
<path fill="none" stroke="midnightblue" d="M2552.56,-120.52C2736.77,-117.7 3662.83,-102.45 3972.19,-75.98"/>
<polygon fill="midnightblue" stroke="midnightblue" points="3972.83,-79.43 3982.49,-75.07 3972.22,-72.46 3972.83,-79.43"/>
</g>
<!-- Node132 -->
<g id="node42" class="node">
<title>Node132</title>
<g id="a_node42"><a xlink:href="api_2errno_8h.html" target="_top" xlink:title=" ">
<polygon fill="white" stroke="red" points="4102.5,-56.5 4102.5,-75.5 4192.5,-75.5 4192.5,-56.5 4102.5,-56.5"/>
<text text-anchor="middle" x="4147.5" y="-63.5" font-family="Helvetica,sans-Serif" font-size="10.00">odp/api/errno.h</text>
</a>
</g>
</g>
<!-- Node2&#45;&gt;Node132 -->
<g id="edge54" class="edge">
<title>Node2&#45;&gt;Node132</title>
<path fill="none" stroke="midnightblue" d="M2552.63,-120.68C2746.04,-118.66 3757.87,-106.82 4092.31,-75.94"/>
<polygon fill="midnightblue" stroke="midnightblue" points="4092.86,-79.4 4102.48,-74.98 4092.19,-72.44 4092.86,-79.4"/>
</g>
<!-- Node101 -->
<g id="node43" class="node">
<title>Node101</title>
<g id="a_node43"><a xlink:href="api_2thrmask_8h.html" target="_top" xlink:title=" ">
<polygon fill="white" stroke="red" points="4211,-56.5 4211,-75.5 4316,-75.5 4316,-56.5 4211,-56.5"/>
<text text-anchor="middle" x="4263.5" y="-63.5" font-family="Helvetica,sans-Serif" font-size="10.00">odp/api/thrmask.h</text>
</a>
</g>
</g>
<!-- Node2&#45;&gt;Node101 -->
<g id="edge55" class="edge">
<title>Node2&#45;&gt;Node101</title>
<path fill="none" stroke="midnightblue" d="M2552.83,-120.65C2754.52,-118.41 3842.89,-105.18 4200.67,-75.93"/>
<polygon fill="midnightblue" stroke="midnightblue" points="4201.11,-79.41 4210.78,-75.08 4200.53,-72.43 4201.11,-79.41"/>
</g>
<!-- Node135 -->
<g id="node44" class="node">
<title>Node135</title>
<g id="a_node44"><a xlink:href="api_2traffic__mngr_8h.html" target="_top" xlink:title=" ">
<polygon fill="white" stroke="red" points="4334,-56.5 4334,-75.5 4457,-75.5 4457,-56.5 4334,-56.5"/>
<text text-anchor="middle" x="4395.5" y="-63.5" font-family="Helvetica,sans-Serif" font-size="10.00">odp/api/traffic_mngr.h</text>
</a>
</g>
</g>
<!-- Node2&#45;&gt;Node135 -->
<g id="edge56" class="edge">
<title>Node2&#45;&gt;Node135</title>
<path fill="none" stroke="midnightblue" d="M2552.77,-120.65C2762.97,-118.31 3940.42,-104.12 4323.69,-76.05"/>
<polygon fill="midnightblue" stroke="midnightblue" points="4323.99,-79.53 4333.7,-75.3 4323.47,-72.55 4323.99,-79.53"/>
</g>
<!-- Node138 -->
<g id="node45" class="node">
<title>Node138</title>
<g id="a_node45"><a xlink:href="api_2spinlock__recursive_8h.html" target="_top" xlink:title=" ">
<polygon fill="white" stroke="red" points="4475,-56.5 4475,-75.5 4630,-75.5 4630,-56.5 4475,-56.5"/>
<text text-anchor="middle" x="4552.5" y="-63.5" font-family="Helvetica,sans-Serif" font-size="10.00">odp/api/spinlock_recursive.h</text>
</a>
</g>
</g>
<!-- Node2&#45;&gt;Node138 -->
<g id="edge57" class="edge">
<title>Node2&#45;&gt;Node138</title>
<path fill="none" stroke="midnightblue" d="M2552.64,-121.23C2737.36,-122.37 3682.69,-125.45 4464.65,-76.07"/>
<polygon fill="midnightblue" stroke="midnightblue" points="4464.95,-79.55 4474.71,-75.43 4464.51,-72.57 4464.95,-79.55"/>
</g>
<!-- Node141 -->
<g id="node46" class="node">
<title>Node141</title>
<g id="a_node46"><a xlink:href="api_2rwlock__recursive_8h.html" target="_top" xlink:title=" ">
<polygon fill="white" stroke="red" points="4648,-56.5 4648,-75.5 4795,-75.5 4795,-56.5 4648,-56.5"/>
<text text-anchor="middle" x="4721.5" y="-63.5" font-family="Helvetica,sans-Serif" font-size="10.00">odp/api/rwlock_recursive.h</text>
</a>
</g>
</g>
<!-- Node2&#45;&gt;Node141 -->
<g id="edge58" class="edge">
<title>Node2&#45;&gt;Node141</title>
<path fill="none" stroke="midnightblue" d="M2552.6,-120.71C2782.87,-118.55 4186.81,-104.4 4637.62,-76.05"/>
<polygon fill="midnightblue" stroke="midnightblue" points="4638.01,-79.54 4647.77,-75.4 4637.57,-72.55 4638.01,-79.54"/>
</g>
<!-- Node144 -->
<g id="node47" class="node">
<title>Node144</title>
<g id="a_node47"><a xlink:href="api_2std_8h_source.html" target="_top" xlink:title=" ">
<polygon fill="white" stroke="red" points="4813.5,-56.5 4813.5,-75.5 4893.5,-75.5 4893.5,-56.5 4813.5,-56.5"/>
<text text-anchor="middle" x="4853.5" y="-63.5" font-family="Helvetica,sans-Serif" font-size="10.00">odp/api/std.h</text>
</a>
</g>
</g>
<!-- Node2&#45;&gt;Node144 -->
<g id="edge59" class="edge">
<title>Node2&#45;&gt;Node144</title>
<path fill="none" stroke="midnightblue" d="M2552.77,-121.08C2793.88,-121.59 4317.82,-122.94 4803.24,-75.91"/>
<polygon fill="midnightblue" stroke="midnightblue" points="4803.86,-79.37 4813.46,-74.9 4803.17,-72.4 4803.86,-79.37"/>
</g>
<!-- Node147 -->
<g id="node48" class="node">
<title>Node147</title>
<g id="a_node48"><a xlink:href="api_2ipsec_8h.html" target="_top" xlink:title=" ">
<polygon fill="white" stroke="red" points="4911.5,-56.5 4911.5,-75.5 5001.5,-75.5 5001.5,-56.5 4911.5,-56.5"/>
<text text-anchor="middle" x="4956.5" y="-63.5" font-family="Helvetica,sans-Serif" font-size="10.00">odp/api/ipsec.h</text>
</a>
</g>
</g>
<!-- Node2&#45;&gt;Node147 -->
<g id="edge60" class="edge">
<title>Node2&#45;&gt;Node147</title>
<path fill="none" stroke="midnightblue" d="M2552.55,-121.04C2798.81,-121.25 4394.21,-120.88 4901.17,-75.94"/>
<polygon fill="midnightblue" stroke="midnightblue" points="4901.84,-79.4 4911.48,-75.01 4901.21,-72.43 4901.84,-79.4"/>
</g>
<!-- Node152 -->
<g id="node49" class="node">
<title>Node152</title>
<g id="a_node49"><a xlink:href="api_2stash_8h.html" target="_top" xlink:title=" ">
<polygon fill="white" stroke="red" points="5020,-56.5 5020,-75.5 5111,-75.5 5111,-56.5 5020,-56.5"/>
<text text-anchor="middle" x="5065.5" y="-63.5" font-family="Helvetica,sans-Serif" font-size="10.00">odp/api/stash.h</text>
</a>
</g>
</g>
<!-- Node2&#45;&gt;Node152 -->
<g id="edge61" class="edge">
<title>Node2&#45;&gt;Node152</title>
<path fill="none" stroke="midnightblue" d="M2552.78,-121.06C2806.2,-121.41 4479.87,-122.01 5009.93,-75.86"/>
<polygon fill="midnightblue" stroke="midnightblue" points="5010.3,-79.34 5019.95,-74.97 5009.68,-72.37 5010.3,-79.34"/>
</g>
<!-- Node115 -->
<g id="node50" class="node">
<title>Node115</title>
<g id="a_node50"><a xlink:href="reassembly_8h.html" target="_top" xlink:title=" ">
<polygon fill="white" stroke="red" points="5129.5,-56.5 5129.5,-75.5 5249.5,-75.5 5249.5,-56.5 5129.5,-56.5"/>
<text text-anchor="middle" x="5189.5" y="-63.5" font-family="Helvetica,sans-Serif" font-size="10.00">odp/api/reassembly.h</text>
</a>
</g>
</g>
<!-- Node2&#45;&gt;Node115 -->
<g id="edge62" class="edge">
<title>Node2&#45;&gt;Node115</title>
<path fill="none" stroke="midnightblue" d="M2552.52,-120.94C2811.33,-120.4 4565.37,-115.35 5119.26,-75.98"/>
<polygon fill="midnightblue" stroke="midnightblue" points="5119.61,-79.47 5129.33,-75.25 5119.1,-72.48 5119.61,-79.47"/>
</g>
<!-- Node4 -->
<g id="node4" class="node">
<title>Node4</title>
<g id="a_node4"><a xlink:href="spec_2deprecated_8h.html" target="_top" xlink:title=" ">
<polygon fill="white" stroke="red" points="0,-0.5 0,-19.5 145,-19.5 145,-0.5 0,-0.5"/>
<text text-anchor="middle" x="72.5" y="-7.5" font-family="Helvetica,sans-Serif" font-size="10.00">odp/api/spec/deprecated.h</text>
</a>
</g>
</g>
<!-- Node3&#45;&gt;Node4 -->
<g id="edge3" class="edge">
<title>Node3&#45;&gt;Node4</title>
<path fill="none" stroke="midnightblue" d="M81.68,-56.08C80.23,-48.93 78.13,-38.64 76.31,-29.69"/>
<polygon fill="midnightblue" stroke="midnightblue" points="79.71,-28.85 74.28,-19.75 72.85,-30.25 79.71,-28.85"/>
</g>
<!-- Node8 -->
<g id="node6" class="node">
<title>Node8</title>
<g id="a_node6"><a xlink:title=" ">
<polygon fill="white" stroke="#bfbfbf" points="163,-0.5 163,-19.5 282,-19.5 282,-0.5 163,-0.5"/>
<text text-anchor="middle" x="222.5" y="-7.5" font-family="Helvetica,sans-Serif" font-size="10.00">odp/api/abi/version.h</text>
</a>
</g>
</g>
<!-- Node7&#45;&gt;Node8 -->
<g id="edge5" class="edge">
<title>Node7&#45;&gt;Node8</title>
<path fill="none" stroke="midnightblue" d="M222.5,-56.08C222.5,-49.01 222.5,-38.86 222.5,-29.99"/>
<polygon fill="midnightblue" stroke="midnightblue" points="226,-29.75 222.5,-19.75 219,-29.75 226,-29.75"/>
</g>
<!-- Node9 -->
<g id="node7" class="node">
<title>Node9</title>
<g id="a_node7"><a xlink:href="api_2spec_2version_8h.html" target="_top" xlink:title=" ">
<polygon fill="white" stroke="red" points="300.5,-0.5 300.5,-19.5 426.5,-19.5 426.5,-0.5 300.5,-0.5"/>
<text text-anchor="middle" x="363.5" y="-7.5" font-family="Helvetica,sans-Serif" font-size="10.00">odp/api/spec/version.h</text>
</a>
</g>
</g>
<!-- Node7&#45;&gt;Node9 -->
<g id="edge6" class="edge">
<title>Node7&#45;&gt;Node9</title>
<path fill="none" stroke="midnightblue" d="M244.84,-56.44C268.25,-47.48 305.24,-33.31 331.69,-23.18"/>
<polygon fill="midnightblue" stroke="midnightblue" points="333.18,-26.36 341.26,-19.52 330.67,-19.82 333.18,-26.36"/>
</g>
<!-- Node55&#45;&gt;Node57 -->
<g id="edge16" class="edge">
<title>Node55&#45;&gt;Node57</title>
<path fill="none" stroke="midnightblue" d="M373.65,-57.28C376.64,-56.82 379.61,-56.38 382.5,-56 551.69,-33.58 753.06,-19.97 850.27,-14.21"/>
<polygon fill="midnightblue" stroke="midnightblue" points="850.69,-17.69 860.47,-13.61 850.28,-10.7 850.69,-17.69"/>
</g>
<!-- Node65&#45;&gt;Node10 -->
<g id="edge19" class="edge">
<title>Node65&#45;&gt;Node10</title>
<path fill="none" stroke="midnightblue" d="M1486.55,-57.1C1489.91,-56.69 1493.25,-56.31 1496.5,-56 1926.95,-14.67 2447.73,-10.78 2629.28,-10.78"/>
<polygon fill="midnightblue" stroke="midnightblue" points="2629.46,-14.28 2639.47,-10.79 2629.47,-7.28 2629.46,-14.28"/>
</g>
<!-- Node65&#45;&gt;Node66 -->
<g id="edge20" class="edge">
<title>Node65&#45;&gt;Node66</title>
<path fill="none" stroke="midnightblue" d="M1422.11,-56.32C1405.83,-47.7 1380.63,-34.36 1361.78,-24.39"/>
<polygon fill="midnightblue" stroke="midnightblue" points="1363.32,-21.24 1352.85,-19.65 1360.05,-27.43 1363.32,-21.24"/>
</g>
<!-- Node78&#45;&gt;Node10 -->
<g id="edge25" class="edge">
<title>Node78&#45;&gt;Node10</title>
<path fill="none" stroke="midnightblue" d="M1630.3,-56.84C1633.41,-56.54 1636.49,-56.25 1639.5,-56 2012.95,-24.76 2462.6,-14.72 2629.21,-11.94"/>
<polygon fill="midnightblue" stroke="midnightblue" points="2629.36,-15.44 2639.3,-11.78 2629.25,-8.44 2629.36,-15.44"/>
</g>
<!-- Node82&#45;&gt;Node10 -->
<g id="edge29" class="edge">
<title>Node82&#45;&gt;Node10</title>
<path fill="none" stroke="midnightblue" d="M1961.6,-57.23C1964.94,-56.78 1968.27,-56.36 1971.5,-56 2213.1,-29.14 2501.97,-17.2 2629.48,-12.95"/>
<polygon fill="midnightblue" stroke="midnightblue" points="2629.6,-16.45 2639.47,-12.63 2629.37,-9.46 2629.6,-16.45"/>
</g>
<!-- Node87&#45;&gt;Node10 -->
<g id="edge32" class="edge">
<title>Node87&#45;&gt;Node10</title>
<path fill="none" stroke="midnightblue" d="M2236.06,-57.28C2239.25,-56.83 2242.42,-56.4 2245.5,-56 2381.45,-38.48 2541.27,-23.93 2629.16,-16.44"/>
<polygon fill="midnightblue" stroke="midnightblue" points="2629.59,-19.92 2639.26,-15.59 2629,-12.95 2629.59,-19.92"/>
</g>
<!-- Node37&#45;&gt;Node10 -->
<g id="edge35" class="edge">
<title>Node37&#45;&gt;Node10</title>
<path fill="none" stroke="midnightblue" d="M2446.05,-56.97C2497.37,-47.51 2582.79,-31.77 2639.13,-21.39"/>
<polygon fill="midnightblue" stroke="midnightblue" points="2640.09,-24.77 2649.29,-19.52 2638.82,-17.89 2640.09,-24.77"/>
</g>
<!-- Node95&#45;&gt;Node10 -->
<g id="edge37" class="edge">
<title>Node95&#45;&gt;Node10</title>
<path fill="none" stroke="midnightblue" d="M2648.5,-56.32C2656.69,-48.42 2669.01,-36.55 2678.97,-26.94"/>
<polygon fill="midnightblue" stroke="midnightblue" points="2681.57,-29.29 2686.34,-19.83 2676.71,-24.26 2681.57,-29.29"/>
</g>
<!-- Node27&#45;&gt;Node10 -->
<g id="edge41" class="edge">
<title>Node27&#45;&gt;Node10</title>
<path fill="none" stroke="midnightblue" d="M2742.5,-56.32C2734.31,-48.42 2721.99,-36.55 2712.03,-26.94"/>
<polygon fill="midnightblue" stroke="midnightblue" points="2714.29,-24.26 2704.66,-19.83 2709.43,-29.29 2714.29,-24.26"/>
</g>
<!-- Node110&#45;&gt;Node10 -->
<g id="edge44" class="edge">
<title>Node110&#45;&gt;Node10</title>
<path fill="none" stroke="midnightblue" d="M3049.66,-57.11C3046.9,-56.73 3044.17,-56.36 3041.5,-56 2944.09,-42.82 2831.15,-28.27 2761.51,-19.38"/>
<polygon fill="midnightblue" stroke="midnightblue" points="2761.92,-15.9 2751.56,-18.11 2761.03,-22.85 2761.92,-15.9"/>
</g>
<!-- Node117&#45;&gt;Node10 -->
<g id="edge46" class="edge">
<title>Node117&#45;&gt;Node10</title>
<path fill="none" stroke="midnightblue" d="M3321.82,-56.9C3319.01,-56.58 3316.22,-56.28 3313.5,-56 3113.21,-35.47 2875.47,-20.91 2762.09,-14.56"/>
<polygon fill="midnightblue" stroke="midnightblue" points="2762.01,-11.05 2751.84,-13.99 2761.63,-18.04 2762.01,-11.05"/>
</g>
<!-- Node120&#45;&gt;Node10 -->
<g id="edge48" class="edge">
<title>Node120&#45;&gt;Node10</title>
<path fill="none" stroke="midnightblue" d="M3458.88,-57.02C3456.05,-56.64 3453.24,-56.3 3450.5,-56 3196.97,-28.14 2893.52,-16.65 2761.86,-12.73"/>
<polygon fill="midnightblue" stroke="midnightblue" points="2761.64,-9.22 2751.54,-12.43 2761.44,-16.22 2761.64,-9.22"/>
</g>
<!-- Node123&#45;&gt;Node10 -->
<g id="edge50" class="edge">
<title>Node123&#45;&gt;Node10</title>
<path fill="none" stroke="midnightblue" d="M3572.43,-56.84C3569.42,-56.54 3566.43,-56.26 3563.5,-56 3264.95,-29.89 2907.2,-17.21 2761.8,-12.83"/>
<polygon fill="midnightblue" stroke="midnightblue" points="2761.8,-9.33 2751.7,-12.53 2761.59,-16.33 2761.8,-9.33"/>
</g>
</g>
</svg>
