<?xml version="1.0" encoding="UTF-8" standalone="no"?>
<!DOCTYPE svg PUBLIC "-//W3C//DTD SVG 1.1//EN"
 "http://www.w3.org/Graphics/SVG/1.1/DTD/svg11.dtd">
<!-- Generated by graphviz version 2.43.0 (0)
 -->
<!-- Title: packet_io_stats.h Pages: 1 -->
<svg width="266pt" height="476pt"
 viewBox="0.00 0.00 266.07 476.00" xmlns="http://www.w3.org/2000/svg" xmlns:xlink="http://www.w3.org/1999/xlink">
<g id="graph0" class="graph" transform="scale(1 1) rotate(0) translate(4 472)">
<title>packet_io_stats.h</title>
<polygon fill="white" stroke="transparent" points="-4,4 -4,-472 262.07,-472 262.07,4 -4,4"/>
<!-- Node1 -->
<g id="node1" class="node">
<title>Node1</title>
<g id="a_node1"><a xlink:title=" ">
<polygon fill="#bfbfbf" stroke="black" points="58.57,-448.5 58.57,-467.5 159.57,-467.5 159.57,-448.5 58.57,-448.5"/>
<text text-anchor="middle" x="109.07" y="-455.5" font-family="Helvetica,sans-Serif" font-size="10.00">packet_io_stats.h</text>
</a>
</g>
</g>
<!-- Node2 -->
<g id="node2" class="node">
<title>Node2</title>
<g id="a_node2"><a xlink:href="api_2spec_2packet__io_8h.html" target="_top" xlink:title=" ">
<polygon fill="white" stroke="black" points="73.07,-392.5 73.07,-411.5 145.07,-411.5 145.07,-392.5 73.07,-392.5"/>
<text text-anchor="middle" x="109.07" y="-399.5" font-family="Helvetica,sans-Serif" font-size="10.00">packet_io.h</text>
</a>
</g>
</g>
<!-- Node1&#45;&gt;Node2 -->
<g id="edge1" class="edge">
<title>Node1&#45;&gt;Node2</title>
<path fill="none" stroke="midnightblue" d="M109.07,-437.8C109.07,-428.91 109.07,-418.78 109.07,-411.75"/>
<polygon fill="midnightblue" stroke="midnightblue" points="105.57,-438.08 109.07,-448.08 112.57,-438.08 105.57,-438.08"/>
</g>
<!-- Node3 -->
<g id="node3" class="node">
<title>Node3</title>
<g id="a_node3"><a xlink:href="api_2packet__io_8h.html" target="_top" xlink:title=" ">
<polygon fill="white" stroke="black" points="73.07,-336.5 73.07,-355.5 145.07,-355.5 145.07,-336.5 73.07,-336.5"/>
<text text-anchor="middle" x="109.07" y="-343.5" font-family="Helvetica,sans-Serif" font-size="10.00">packet_io.h</text>
</a>
</g>
</g>
<!-- Node2&#45;&gt;Node3 -->
<g id="edge2" class="edge">
<title>Node2&#45;&gt;Node3</title>
<path fill="none" stroke="midnightblue" d="M109.07,-381.8C109.07,-372.91 109.07,-362.78 109.07,-355.75"/>
<polygon fill="midnightblue" stroke="midnightblue" points="105.57,-382.08 109.07,-392.08 112.57,-382.08 105.57,-382.08"/>
</g>
<!-- Node4 -->
<g id="node4" class="node">
<title>Node4</title>
<g id="a_node4"><a xlink:href="api_2spec_2classification_8h.html" target="_top" xlink:title=" ">
<polygon fill="white" stroke="black" points="28.57,-280.5 28.57,-299.5 117.57,-299.5 117.57,-280.5 28.57,-280.5"/>
<text text-anchor="middle" x="73.07" y="-287.5" font-family="Helvetica,sans-Serif" font-size="10.00">classification.h</text>
</a>
</g>
</g>
<!-- Node3&#45;&gt;Node4 -->
<g id="edge3" class="edge">
<title>Node3&#45;&gt;Node4</title>
<path fill="none" stroke="midnightblue" d="M97.45,-327.57C91.26,-318.27 83.91,-307.25 78.91,-299.75"/>
<polygon fill="midnightblue" stroke="midnightblue" points="94.67,-329.7 103.13,-336.08 100.49,-325.82 94.67,-329.7"/>
</g>
<!-- Node6 -->
<g id="node6" class="node">
<title>Node6</title>
<g id="a_node6"><a xlink:href="api_2spec_2ipsec_8h.html" target="_top" xlink:title=" ">
<polygon fill="white" stroke="black" points="116.57,-168.5 116.57,-187.5 167.57,-187.5 167.57,-168.5 116.57,-168.5"/>
<text text-anchor="middle" x="142.07" y="-175.5" font-family="Helvetica,sans-Serif" font-size="10.00">ipsec.h</text>
</a>
</g>
</g>
<!-- Node3&#45;&gt;Node6 -->
<g id="edge10" class="edge">
<title>Node3&#45;&gt;Node6</title>
<path fill="none" stroke="midnightblue" d="M117.06,-326.75C120.3,-318.69 123.81,-309.01 126.07,-300 136.46,-258.69 140.4,-207.66 141.61,-187.64"/>
<polygon fill="midnightblue" stroke="midnightblue" points="113.72,-325.65 113.08,-336.23 120.18,-328.36 113.72,-325.65"/>
</g>
<!-- Node8 -->
<g id="node8" class="node">
<title>Node8</title>
<g id="a_node8"><a xlink:href="odp__api_8h.html" target="_top" xlink:title=" ">
<polygon fill="white" stroke="black" points="76.07,-56.5 76.07,-75.5 140.07,-75.5 140.07,-56.5 76.07,-56.5"/>
<text text-anchor="middle" x="108.07" y="-63.5" font-family="Helvetica,sans-Serif" font-size="10.00">odp_api.h</text>
</a>
</g>
</g>
<!-- Node3&#45;&gt;Node8 -->
<g id="edge15" class="edge">
<title>Node3&#45;&gt;Node8</title>
<path fill="none" stroke="midnightblue" d="M68.46,-332.92C51.05,-325.86 31.83,-315.27 19.07,-300 -0.22,-276.9 0.07,-265.1 0.07,-235 0.07,-235 0.07,-235 0.07,-177 0.07,-126.69 58.32,-90.95 89.26,-75.51"/>
<polygon fill="midnightblue" stroke="midnightblue" points="67.3,-336.22 77.89,-336.48 69.77,-329.67 67.3,-336.22"/>
</g>
<!-- Node10 -->
<g id="node10" class="node">
<title>Node10</title>
<g id="a_node10"><a xlink:href="api_2spec_2traffic__mngr_8h.html" target="_top" xlink:title=" ">
<polygon fill="white" stroke="black" points="174.07,-280.5 174.07,-299.5 258.07,-299.5 258.07,-280.5 174.07,-280.5"/>
<text text-anchor="middle" x="216.07" y="-287.5" font-family="Helvetica,sans-Serif" font-size="10.00">traffic_mngr.h</text>
</a>
</g>
</g>
<!-- Node3&#45;&gt;Node10 -->
<g id="edge11" class="edge">
<title>Node3&#45;&gt;Node10</title>
<path fill="none" stroke="midnightblue" d="M135.37,-331.73C155.19,-321.73 181.78,-308.31 198.92,-299.65"/>
<polygon fill="midnightblue" stroke="midnightblue" points="133.61,-328.69 126.26,-336.32 136.77,-334.94 133.61,-328.69"/>
</g>
<!-- Node5 -->
<g id="node5" class="node">
<title>Node5</title>
<g id="a_node5"><a xlink:href="api_2classification_8h.html" target="_top" xlink:title=" ">
<polygon fill="white" stroke="black" points="28.57,-224.5 28.57,-243.5 117.57,-243.5 117.57,-224.5 28.57,-224.5"/>
<text text-anchor="middle" x="73.07" y="-231.5" font-family="Helvetica,sans-Serif" font-size="10.00">classification.h</text>
</a>
</g>
</g>
<!-- Node4&#45;&gt;Node5 -->
<g id="edge4" class="edge">
<title>Node4&#45;&gt;Node5</title>
<path fill="none" stroke="midnightblue" d="M73.07,-269.8C73.07,-260.91 73.07,-250.78 73.07,-243.75"/>
<polygon fill="midnightblue" stroke="midnightblue" points="69.57,-270.08 73.07,-280.08 76.57,-270.08 69.57,-270.08"/>
</g>
<!-- Node5&#45;&gt;Node6 -->
<g id="edge5" class="edge">
<title>Node5&#45;&gt;Node6</title>
<path fill="none" stroke="midnightblue" d="M92.11,-218.1C104.53,-208.38 120.32,-196.03 130.79,-187.83"/>
<polygon fill="midnightblue" stroke="midnightblue" points="89.88,-215.4 84.16,-224.32 94.19,-220.92 89.88,-215.4"/>
</g>
<!-- Node5&#45;&gt;Node8 -->
<g id="edge9" class="edge">
<title>Node5&#45;&gt;Node8</title>
<path fill="none" stroke="midnightblue" d="M77.09,-213.93C84.69,-177.92 100.86,-101.23 106.27,-75.57"/>
<polygon fill="midnightblue" stroke="midnightblue" points="73.59,-213.57 74.95,-224.08 80.44,-215.01 73.59,-213.57"/>
</g>
<!-- Node7 -->
<g id="node7" class="node">
<title>Node7</title>
<g id="a_node7"><a xlink:href="api_2ipsec_8h.html" target="_top" xlink:title=" ">
<polygon fill="white" stroke="black" points="114.57,-112.5 114.57,-131.5 165.57,-131.5 165.57,-112.5 114.57,-112.5"/>
<text text-anchor="middle" x="140.07" y="-119.5" font-family="Helvetica,sans-Serif" font-size="10.00">ipsec.h</text>
</a>
</g>
</g>
<!-- Node6&#45;&gt;Node7 -->
<g id="edge6" class="edge">
<title>Node6&#45;&gt;Node7</title>
<path fill="none" stroke="midnightblue" d="M141.36,-157.8C141.03,-148.91 140.66,-138.78 140.4,-131.75"/>
<polygon fill="midnightblue" stroke="midnightblue" points="137.87,-158.22 141.74,-168.08 144.87,-157.96 137.87,-158.22"/>
</g>
<!-- Node7&#45;&gt;Node8 -->
<g id="edge7" class="edge">
<title>Node7&#45;&gt;Node8</title>
<path fill="none" stroke="midnightblue" d="M129.57,-103.27C124.1,-94.05 117.66,-83.17 113.26,-75.75"/>
<polygon fill="midnightblue" stroke="midnightblue" points="126.68,-105.26 134.79,-112.08 132.7,-101.7 126.68,-105.26"/>
</g>
<!-- Node9 -->
<g id="node9" class="node">
<title>Node9</title>
<g id="a_node9"><a xlink:href="odp_8h.html" target="_top" xlink:title=" ">
<polygon fill="white" stroke="black" points="86.07,-0.5 86.07,-19.5 130.07,-19.5 130.07,-0.5 86.07,-0.5"/>
<text text-anchor="middle" x="108.07" y="-7.5" font-family="Helvetica,sans-Serif" font-size="10.00">odp.h</text>
</a>
</g>
</g>
<!-- Node8&#45;&gt;Node9 -->
<g id="edge8" class="edge">
<title>Node8&#45;&gt;Node9</title>
<path fill="none" stroke="midnightblue" d="M108.07,-45.8C108.07,-36.91 108.07,-26.78 108.07,-19.75"/>
<polygon fill="midnightblue" stroke="midnightblue" points="104.57,-46.08 108.07,-56.08 111.57,-46.08 104.57,-46.08"/>
</g>
<!-- Node11 -->
<g id="node11" class="node">
<title>Node11</title>
<g id="a_node11"><a xlink:href="api_2traffic__mngr_8h.html" target="_top" xlink:title=" ">
<polygon fill="white" stroke="black" points="174.07,-224.5 174.07,-243.5 258.07,-243.5 258.07,-224.5 174.07,-224.5"/>
<text text-anchor="middle" x="216.07" y="-231.5" font-family="Helvetica,sans-Serif" font-size="10.00">traffic_mngr.h</text>
</a>
</g>
</g>
<!-- Node10&#45;&gt;Node11 -->
<g id="edge12" class="edge">
<title>Node10&#45;&gt;Node11</title>
<path fill="none" stroke="midnightblue" d="M216.07,-269.8C216.07,-260.91 216.07,-250.78 216.07,-243.75"/>
<polygon fill="midnightblue" stroke="midnightblue" points="212.57,-270.08 216.07,-280.08 219.57,-270.08 212.57,-270.08"/>
</g>
<!-- Node11&#45;&gt;Node6 -->
<g id="edge13" class="edge">
<title>Node11&#45;&gt;Node6</title>
<path fill="none" stroke="midnightblue" d="M196.04,-218.38C182.66,-208.62 165.51,-196.11 154.18,-187.83"/>
<polygon fill="midnightblue" stroke="midnightblue" points="194.04,-221.26 204.18,-224.32 198.17,-215.6 194.04,-221.26"/>
</g>
<!-- Node11&#45;&gt;Node8 -->
<g id="edge14" class="edge">
<title>Node11&#45;&gt;Node8</title>
<path fill="none" stroke="midnightblue" d="M213.58,-214.41C209.38,-189.04 198.91,-143.16 175.07,-112 162.56,-95.64 142.32,-83.23 127.36,-75.63"/>
<polygon fill="midnightblue" stroke="midnightblue" points="210.15,-215.13 215.09,-224.5 217.07,-214.09 210.15,-215.13"/>
</g>
</g>
</svg>
