<?xml version="1.0" encoding="UTF-8" standalone="no"?>
<!DOCTYPE svg PUBLIC "-//W3C//DTD SVG 1.1//EN"
 "http://www.w3.org/Graphics/SVG/1.1/DTD/svg11.dtd">
<!-- Generated by graphviz version 2.43.0 (0)
 -->
<!-- Title: reassembly.h Pages: 1 -->
<svg width="313pt" height="476pt"
 viewBox="0.00 0.00 312.50 476.00" xmlns="http://www.w3.org/2000/svg" xmlns:xlink="http://www.w3.org/1999/xlink">
<g id="graph0" class="graph" transform="scale(1 1) rotate(0) translate(4 472)">
<title>reassembly.h</title>
<polygon fill="white" stroke="transparent" points="-4,4 -4,-472 308.5,-472 308.5,4 -4,4"/>
<!-- Node1 -->
<g id="node1" class="node">
<title>Node1</title>
<g id="a_node1"><a xlink:title=" ">
<polygon fill="#bfbfbf" stroke="black" points="0,-448.5 0,-467.5 81,-467.5 81,-448.5 0,-448.5"/>
<text text-anchor="middle" x="40.5" y="-455.5" font-family="Helvetica,sans-Serif" font-size="10.00">reassembly.h</text>
</a>
</g>
</g>
<!-- Node2 -->
<g id="node2" class="node">
<title>Node2</title>
<g id="a_node2"><a xlink:href="api_2spec_2packet__io_8h.html" target="_top" xlink:title=" ">
<polygon fill="white" stroke="black" points="59.5,-392.5 59.5,-411.5 131.5,-411.5 131.5,-392.5 59.5,-392.5"/>
<text text-anchor="middle" x="95.5" y="-399.5" font-family="Helvetica,sans-Serif" font-size="10.00">packet_io.h</text>
</a>
</g>
</g>
<!-- Node1&#45;&gt;Node2 -->
<g id="edge1" class="edge">
<title>Node1&#45;&gt;Node2</title>
<path fill="none" stroke="midnightblue" d="M56.79,-441C66.54,-431.43 78.55,-419.64 86.59,-411.75"/>
<polygon fill="midnightblue" stroke="midnightblue" points="54.27,-438.58 49.58,-448.08 59.17,-443.57 54.27,-438.58"/>
</g>
<!-- Node8 -->
<g id="node8" class="node">
<title>Node8</title>
<g id="a_node8"><a xlink:href="odp__api_8h.html" target="_top" xlink:title=" ">
<polygon fill="white" stroke="black" points="87.5,-56.5 87.5,-75.5 151.5,-75.5 151.5,-56.5 87.5,-56.5"/>
<text text-anchor="middle" x="119.5" y="-63.5" font-family="Helvetica,sans-Serif" font-size="10.00">odp_api.h</text>
</a>
</g>
</g>
<!-- Node1&#45;&gt;Node8 -->
<g id="edge16" class="edge">
<title>Node1&#45;&gt;Node8</title>
<path fill="none" stroke="midnightblue" d="M31.97,-439.28C22.49,-417.92 8.5,-380.67 8.5,-347 8.5,-347 8.5,-347 8.5,-177 8.5,-126.27 67.73,-90.96 99.66,-75.61"/>
<polygon fill="midnightblue" stroke="midnightblue" points="28.82,-440.79 36.18,-448.41 35.17,-437.86 28.82,-440.79"/>
</g>
<!-- Node3 -->
<g id="node3" class="node">
<title>Node3</title>
<g id="a_node3"><a xlink:href="api_2packet__io_8h.html" target="_top" xlink:title=" ">
<polygon fill="white" stroke="black" points="83.5,-336.5 83.5,-355.5 155.5,-355.5 155.5,-336.5 83.5,-336.5"/>
<text text-anchor="middle" x="119.5" y="-343.5" font-family="Helvetica,sans-Serif" font-size="10.00">packet_io.h</text>
</a>
</g>
</g>
<!-- Node2&#45;&gt;Node3 -->
<g id="edge2" class="edge">
<title>Node2&#45;&gt;Node3</title>
<path fill="none" stroke="midnightblue" d="M103.64,-382.69C107.68,-373.59 112.38,-363.01 115.61,-355.75"/>
<polygon fill="midnightblue" stroke="midnightblue" points="100.33,-381.52 99.46,-392.08 106.72,-384.37 100.33,-381.52"/>
</g>
<!-- Node4 -->
<g id="node4" class="node">
<title>Node4</title>
<g id="a_node4"><a xlink:href="api_2spec_2classification_8h.html" target="_top" xlink:title=" ">
<polygon fill="white" stroke="black" points="75,-280.5 75,-299.5 164,-299.5 164,-280.5 75,-280.5"/>
<text text-anchor="middle" x="119.5" y="-287.5" font-family="Helvetica,sans-Serif" font-size="10.00">classification.h</text>
</a>
</g>
</g>
<!-- Node3&#45;&gt;Node4 -->
<g id="edge3" class="edge">
<title>Node3&#45;&gt;Node4</title>
<path fill="none" stroke="midnightblue" d="M119.5,-325.8C119.5,-316.91 119.5,-306.78 119.5,-299.75"/>
<polygon fill="midnightblue" stroke="midnightblue" points="116,-326.08 119.5,-336.08 123,-326.08 116,-326.08"/>
</g>
<!-- Node6 -->
<g id="node6" class="node">
<title>Node6</title>
<g id="a_node6"><a xlink:href="api_2spec_2ipsec_8h.html" target="_top" xlink:title=" ">
<polygon fill="white" stroke="black" points="157,-168.5 157,-187.5 208,-187.5 208,-168.5 157,-168.5"/>
<text text-anchor="middle" x="182.5" y="-175.5" font-family="Helvetica,sans-Serif" font-size="10.00">ipsec.h</text>
</a>
</g>
</g>
<!-- Node3&#45;&gt;Node6 -->
<g id="edge10" class="edge">
<title>Node3&#45;&gt;Node6</title>
<path fill="none" stroke="midnightblue" d="M143.86,-330.6C154.54,-322.93 166.08,-312.5 172.5,-300 192.06,-261.94 186.89,-208.16 183.91,-187.52"/>
<polygon fill="midnightblue" stroke="midnightblue" points="141.6,-327.9 135.23,-336.37 145.49,-333.72 141.6,-327.9"/>
</g>
<!-- Node3&#45;&gt;Node8 -->
<g id="edge15" class="edge">
<title>Node3&#45;&gt;Node8</title>
<path fill="none" stroke="midnightblue" d="M96.75,-330.75C85.88,-322.89 73.52,-312.24 65.5,-300 49,-274.83 46.5,-265.1 46.5,-235 46.5,-235 46.5,-235 46.5,-177 46.5,-132.76 87.99,-92.71 108.41,-75.67"/>
<polygon fill="midnightblue" stroke="midnightblue" points="94.81,-333.67 105.04,-336.44 98.77,-327.89 94.81,-333.67"/>
</g>
<!-- Node10 -->
<g id="node10" class="node">
<title>Node10</title>
<g id="a_node10"><a xlink:href="api_2spec_2traffic__mngr_8h.html" target="_top" xlink:title=" ">
<polygon fill="white" stroke="black" points="220.5,-280.5 220.5,-299.5 304.5,-299.5 304.5,-280.5 220.5,-280.5"/>
<text text-anchor="middle" x="262.5" y="-287.5" font-family="Helvetica,sans-Serif" font-size="10.00">traffic_mngr.h</text>
</a>
</g>
</g>
<!-- Node3&#45;&gt;Node10 -->
<g id="edge11" class="edge">
<title>Node3&#45;&gt;Node10</title>
<path fill="none" stroke="midnightblue" d="M151.53,-332.91C178.41,-322.75 216.14,-308.51 239.95,-299.52"/>
<polygon fill="midnightblue" stroke="midnightblue" points="150.28,-329.64 142.16,-336.44 152.75,-336.19 150.28,-329.64"/>
</g>
<!-- Node5 -->
<g id="node5" class="node">
<title>Node5</title>
<g id="a_node5"><a xlink:href="api_2classification_8h.html" target="_top" xlink:title=" ">
<polygon fill="white" stroke="black" points="75,-224.5 75,-243.5 164,-243.5 164,-224.5 75,-224.5"/>
<text text-anchor="middle" x="119.5" y="-231.5" font-family="Helvetica,sans-Serif" font-size="10.00">classification.h</text>
</a>
</g>
</g>
<!-- Node4&#45;&gt;Node5 -->
<g id="edge4" class="edge">
<title>Node4&#45;&gt;Node5</title>
<path fill="none" stroke="midnightblue" d="M119.5,-269.8C119.5,-260.91 119.5,-250.78 119.5,-243.75"/>
<polygon fill="midnightblue" stroke="midnightblue" points="116,-270.08 119.5,-280.08 123,-270.08 116,-270.08"/>
</g>
<!-- Node5&#45;&gt;Node6 -->
<g id="edge5" class="edge">
<title>Node5&#45;&gt;Node6</title>
<path fill="none" stroke="midnightblue" d="M137.54,-217.54C148.77,-207.91 162.82,-195.87 172.19,-187.83"/>
<polygon fill="midnightblue" stroke="midnightblue" points="134.94,-215.16 129.62,-224.32 139.49,-220.47 134.94,-215.16"/>
</g>
<!-- Node5&#45;&gt;Node8 -->
<g id="edge9" class="edge">
<title>Node5&#45;&gt;Node8</title>
<path fill="none" stroke="midnightblue" d="M119.5,-213.93C119.5,-177.92 119.5,-101.23 119.5,-75.57"/>
<polygon fill="midnightblue" stroke="midnightblue" points="116,-214.08 119.5,-224.08 123,-214.08 116,-214.08"/>
</g>
<!-- Node7 -->
<g id="node7" class="node">
<title>Node7</title>
<g id="a_node7"><a xlink:href="api_2ipsec_8h.html" target="_top" xlink:title=" ">
<polygon fill="white" stroke="black" points="153,-112.5 153,-131.5 204,-131.5 204,-112.5 153,-112.5"/>
<text text-anchor="middle" x="178.5" y="-119.5" font-family="Helvetica,sans-Serif" font-size="10.00">ipsec.h</text>
</a>
</g>
</g>
<!-- Node6&#45;&gt;Node7 -->
<g id="edge6" class="edge">
<title>Node6&#45;&gt;Node7</title>
<path fill="none" stroke="midnightblue" d="M181.1,-158.1C180.44,-149.14 179.67,-138.86 179.15,-131.75"/>
<polygon fill="midnightblue" stroke="midnightblue" points="177.61,-158.37 181.84,-168.08 184.59,-157.85 177.61,-158.37"/>
</g>
<!-- Node7&#45;&gt;Node8 -->
<g id="edge7" class="edge">
<title>Node7&#45;&gt;Node8</title>
<path fill="none" stroke="midnightblue" d="M161.61,-105.54C151.09,-95.91 137.93,-83.87 129.15,-75.83"/>
<polygon fill="midnightblue" stroke="midnightblue" points="159.28,-108.15 169.02,-112.32 164.01,-102.99 159.28,-108.15"/>
</g>
<!-- Node9 -->
<g id="node9" class="node">
<title>Node9</title>
<g id="a_node9"><a xlink:href="odp_8h.html" target="_top" xlink:title=" ">
<polygon fill="white" stroke="black" points="97.5,-0.5 97.5,-19.5 141.5,-19.5 141.5,-0.5 97.5,-0.5"/>
<text text-anchor="middle" x="119.5" y="-7.5" font-family="Helvetica,sans-Serif" font-size="10.00">odp.h</text>
</a>
</g>
</g>
<!-- Node8&#45;&gt;Node9 -->
<g id="edge8" class="edge">
<title>Node8&#45;&gt;Node9</title>
<path fill="none" stroke="midnightblue" d="M119.5,-45.8C119.5,-36.91 119.5,-26.78 119.5,-19.75"/>
<polygon fill="midnightblue" stroke="midnightblue" points="116,-46.08 119.5,-56.08 123,-46.08 116,-46.08"/>
</g>
<!-- Node11 -->
<g id="node11" class="node">
<title>Node11</title>
<g id="a_node11"><a xlink:href="api_2traffic__mngr_8h.html" target="_top" xlink:title=" ">
<polygon fill="white" stroke="black" points="220.5,-224.5 220.5,-243.5 304.5,-243.5 304.5,-224.5 220.5,-224.5"/>
<text text-anchor="middle" x="262.5" y="-231.5" font-family="Helvetica,sans-Serif" font-size="10.00">traffic_mngr.h</text>
</a>
</g>
</g>
<!-- Node10&#45;&gt;Node11 -->
<g id="edge12" class="edge">
<title>Node10&#45;&gt;Node11</title>
<path fill="none" stroke="midnightblue" d="M262.5,-269.8C262.5,-260.91 262.5,-250.78 262.5,-243.75"/>
<polygon fill="midnightblue" stroke="midnightblue" points="259,-270.08 262.5,-280.08 266,-270.08 259,-270.08"/>
</g>
<!-- Node11&#45;&gt;Node6 -->
<g id="edge13" class="edge">
<title>Node11&#45;&gt;Node6</title>
<path fill="none" stroke="midnightblue" d="M241.2,-218.62C226.58,-208.76 207.67,-195.99 195.32,-187.65"/>
<polygon fill="midnightblue" stroke="midnightblue" points="239.4,-221.63 249.65,-224.32 243.32,-215.83 239.4,-221.63"/>
</g>
<!-- Node11&#45;&gt;Node8 -->
<g id="edge14" class="edge">
<title>Node11&#45;&gt;Node8</title>
<path fill="none" stroke="midnightblue" d="M259.29,-214.2C253.99,-188.25 241.09,-141.34 213.5,-112 196.65,-94.07 171.17,-82.49 150.99,-75.58"/>
<polygon fill="midnightblue" stroke="midnightblue" points="255.89,-215.04 261.18,-224.22 262.77,-213.75 255.89,-215.04"/>
</g>
</g>
</svg>
