<?xml version="1.0" encoding="UTF-8" standalone="no"?>
<!DOCTYPE svg PUBLIC "-//W3C//DTD SVG 1.1//EN"
 "http://www.w3.org/Graphics/SVG/1.1/DTD/svg11.dtd">
<!-- Generated by graphviz version 2.43.0 (0)
 -->
<!-- Title: odp_ipsec_capability_t Pages: 1 -->
<svg width="385pt" height="180pt"
 viewBox="0.00 0.00 385.00 180.00" xmlns="http://www.w3.org/2000/svg" xmlns:xlink="http://www.w3.org/1999/xlink">
<g id="graph0" class="graph" transform="scale(1 1) rotate(0) translate(4 176)">
<title>odp_ipsec_capability_t</title>
<polygon fill="white" stroke="transparent" points="-4,4 -4,-176 381,-176 381,4 -4,4"/>
<!-- Node1 -->
<g id="node1" class="node">
<title>Node1</title>
<g id="a_node1"><a xlink:title="IPSEC capability.">
<polygon fill="#bfbfbf" stroke="black" points="249,-76.5 249,-95.5 377,-95.5 377,-76.5 249,-76.5"/>
<text text-anchor="middle" x="313" y="-83.5" font-family="Helvetica,sans-Serif" font-size="10.00">odp_ipsec_capability_t</text>
</a>
</g>
</g>
<!-- Node2 -->
<g id="node2" class="node">
<title>Node2</title>
<g id="a_node2"><a xlink:href="unionodp__proto__chksums__t.html" target="_top" xlink:title="Flags to control packet data checksum checking.">
<polygon fill="white" stroke="black" points="14.5,-152.5 14.5,-171.5 137.5,-171.5 137.5,-152.5 14.5,-152.5"/>
<text text-anchor="middle" x="76" y="-159.5" font-family="Helvetica,sans-Serif" font-size="10.00">odp_proto_chksums_t</text>
</a>
</g>
</g>
<!-- Node2&#45;&gt;Node1 -->
<g id="edge1" class="edge">
<title>Node2&#45;&gt;Node1</title>
<path fill="none" stroke="#9a32cd" stroke-dasharray="5,2" d="M138.62,-150.34C167.14,-144.15 201.23,-135.61 231,-125 253.79,-116.88 278.68,-104.3 294.77,-95.63"/>
<polygon fill="#9a32cd" stroke="#9a32cd" points="137.83,-146.93 128.78,-152.43 139.29,-153.78 137.83,-146.93"/>
<text text-anchor="middle" x="200.5" y="-145" font-family="Helvetica,sans-Serif" font-size="10.00"> chksums_in</text>
</g>
<!-- Node3 -->
<g id="node3" class="node">
<title>Node3</title>
<g id="a_node3"><a xlink:href="unionodp__crypto__cipher__algos__t.html" target="_top" xlink:title="Cipher algorithms in a bit field structure.">
<polygon fill="white" stroke="black" points="3,-114.5 3,-133.5 149,-133.5 149,-114.5 3,-114.5"/>
<text text-anchor="middle" x="76" y="-121.5" font-family="Helvetica,sans-Serif" font-size="10.00">odp_crypto_cipher_algos_t</text>
</a>
</g>
</g>
<!-- Node3&#45;&gt;Node1 -->
<g id="edge2" class="edge">
<title>Node3&#45;&gt;Node1</title>
<path fill="none" stroke="#9a32cd" stroke-dasharray="5,2" d="M154.16,-113.01C178.75,-109.37 206.04,-105.17 231,-101 241.02,-99.33 251.71,-97.43 261.93,-95.55"/>
<polygon fill="#9a32cd" stroke="#9a32cd" points="153.55,-109.57 144.17,-114.49 154.57,-116.49 153.55,-109.57"/>
<text text-anchor="middle" x="200.5" y="-113" font-family="Helvetica,sans-Serif" font-size="10.00"> ciphers</text>
</g>
<!-- Node4 -->
<g id="node4" class="node">
<title>Node4</title>
<g id="a_node4"><a xlink:href="unionodp__crypto__auth__algos__t.html" target="_top" xlink:title="Authentication algorithms in a bit field structure.">
<polygon fill="white" stroke="black" points="7,-76.5 7,-95.5 145,-95.5 145,-76.5 7,-76.5"/>
<text text-anchor="middle" x="76" y="-83.5" font-family="Helvetica,sans-Serif" font-size="10.00">odp_crypto_auth_algos_t</text>
</a>
</g>
</g>
<!-- Node4&#45;&gt;Node1 -->
<g id="edge3" class="edge">
<title>Node4&#45;&gt;Node1</title>
<path fill="none" stroke="#9a32cd" stroke-dasharray="5,2" d="M155.42,-86C185.77,-86 220.05,-86 248.77,-86"/>
<polygon fill="#9a32cd" stroke="#9a32cd" points="155.29,-82.5 145.29,-86 155.29,-89.5 155.29,-82.5"/>
<text text-anchor="middle" x="200.5" y="-89" font-family="Helvetica,sans-Serif" font-size="10.00"> auths</text>
</g>
<!-- Node5 -->
<g id="node5" class="node">
<title>Node5</title>
<g id="a_node5"><a xlink:href="structodp__reass__capability__t.html" target="_top" xlink:title="Reassembly capabilities.">
<polygon fill="white" stroke="black" points="12,-38.5 12,-57.5 140,-57.5 140,-38.5 12,-38.5"/>
<text text-anchor="middle" x="76" y="-45.5" font-family="Helvetica,sans-Serif" font-size="10.00">odp_reass_capability_t</text>
</a>
</g>
</g>
<!-- Node5&#45;&gt;Node1 -->
<g id="edge4" class="edge">
<title>Node5&#45;&gt;Node1</title>
<path fill="none" stroke="#9a32cd" stroke-dasharray="5,2" d="M150.03,-58.38C175.67,-62.16 204.64,-66.59 231,-71 241.02,-72.67 251.71,-74.57 261.93,-76.45"/>
<polygon fill="#9a32cd" stroke="#9a32cd" points="150.42,-54.89 140.02,-56.91 149.4,-61.82 150.42,-54.89"/>
<text text-anchor="middle" x="200.5" y="-74" font-family="Helvetica,sans-Serif" font-size="10.00"> reassembly</text>
</g>
<!-- Node6 -->
<g id="node6" class="node">
<title>Node6</title>
<g id="a_node6"><a xlink:href="structodp__ipsec__test__capability__t.html" target="_top" xlink:title="IPSEC TEST capability.">
<polygon fill="white" stroke="black" points="0,-0.5 0,-19.5 152,-19.5 152,-0.5 0,-0.5"/>
<text text-anchor="middle" x="76" y="-7.5" font-family="Helvetica,sans-Serif" font-size="10.00">odp_ipsec_test_capability_t</text>
</a>
</g>
</g>
<!-- Node6&#45;&gt;Node1 -->
<g id="edge5" class="edge">
<title>Node6&#45;&gt;Node1</title>
<path fill="none" stroke="#9a32cd" stroke-dasharray="5,2" d="M141.39,-21.62C169.35,-27.53 202.23,-35.69 231,-46 254.18,-54.31 279.39,-67.47 295.43,-76.41"/>
<polygon fill="#9a32cd" stroke="#9a32cd" points="141.83,-18.13 131.33,-19.54 140.41,-24.99 141.83,-18.13"/>
<text text-anchor="middle" x="200.5" y="-49" font-family="Helvetica,sans-Serif" font-size="10.00"> test</text>
</g>
</g>
</svg>
