<?xml version="1.0" encoding="UTF-8" standalone="no"?>
<!DOCTYPE svg PUBLIC "-//W3C//DTD SVG 1.1//EN"
 "http://www.w3.org/Graphics/SVG/1.1/DTD/svg11.dtd">
<!-- Generated by graphviz version 2.43.0 (0)
 -->
<!-- Title: odp_crypto_session_param_t Pages: 1 -->
<svg width="440pt" height="128pt"
 viewBox="0.00 0.00 440.00 128.00" xmlns="http://www.w3.org/2000/svg" xmlns:xlink="http://www.w3.org/1999/xlink">
<g id="graph0" class="graph" transform="scale(1 1) rotate(0) translate(4 124)">
<title>odp_crypto_session_param_t</title>
<polygon fill="white" stroke="transparent" points="-4,4 -4,-124 436,-124 436,4 -4,4"/>
<!-- Node1 -->
<g id="node1" class="node">
<title>Node1</title>
<g id="a_node1"><a xlink:title="Crypto API session creation parameters.">
<polygon fill="#bfbfbf" stroke="black" points="165,-0.5 165,-30.5 278,-30.5 278,-0.5 165,-0.5"/>
<text text-anchor="start" x="173" y="-18.5" font-family="Helvetica,sans-Serif" font-size="10.00">odp_crypto_session</text>
<text text-anchor="middle" x="221.5" y="-7.5" font-family="Helvetica,sans-Serif" font-size="10.00">_param_t</text>
</a>
</g>
</g>
<!-- Node2 -->
<g id="node2" class="node">
<title>Node2</title>
<g id="a_node2"><a xlink:href="struct__odp__abi__pool__t.html" target="_top" xlink:title=" ">
<polygon fill="white" stroke="black" points="0,-100.5 0,-119.5 95,-119.5 95,-100.5 0,-100.5"/>
<text text-anchor="middle" x="47.5" y="-107.5" font-family="Helvetica,sans-Serif" font-size="10.00">_odp_abi_pool_t</text>
</a>
</g>
</g>
<!-- Node2&#45;&gt;Node1 -->
<g id="edge1" class="edge">
<title>Node2&#45;&gt;Node1</title>
<path fill="none" stroke="#9a32cd" stroke-dasharray="5,2" d="M60.2,-92.23C71.29,-78.7 88.54,-60.15 107.5,-49 124.97,-38.72 145.88,-31.55 164.99,-26.6"/>
<polygon fill="#9a32cd" stroke="#9a32cd" points="57.3,-90.25 53.85,-100.26 62.8,-94.59 57.3,-90.25"/>
<text text-anchor="middle" x="138" y="-63" font-family="Helvetica,sans-Serif" font-size="10.00"> output_pool</text>
</g>
<!-- Node3 -->
<g id="node3" class="node">
<title>Node3</title>
<g id="a_node3"><a xlink:href="struct__odp__abi__queue__t.html" target="_top" xlink:title=" ">
<polygon fill="white" stroke="black" points="113.5,-100.5 113.5,-119.5 217.5,-119.5 217.5,-100.5 113.5,-100.5"/>
<text text-anchor="middle" x="165.5" y="-107.5" font-family="Helvetica,sans-Serif" font-size="10.00">_odp_abi_queue_t</text>
</a>
</g>
</g>
<!-- Node3&#45;&gt;Node1 -->
<g id="edge2" class="edge">
<title>Node3&#45;&gt;Node1</title>
<path fill="none" stroke="#9a32cd" stroke-dasharray="5,2" d="M169.89,-90.58C173.4,-78.17 179.13,-61.78 187.5,-49 191.88,-42.3 197.89,-35.97 203.64,-30.71"/>
<polygon fill="#9a32cd" stroke="#9a32cd" points="166.5,-89.73 167.37,-100.29 173.27,-91.49 166.5,-89.73"/>
<text text-anchor="middle" x="222" y="-63" font-family="Helvetica,sans-Serif" font-size="10.00"> compl_queue</text>
</g>
<!-- Node4 -->
<g id="node4" class="node">
<title>Node4</title>
<g id="a_node4"><a xlink:href="structodp__crypto__iv.html" target="_top" xlink:title="Crypto API IV structure.">
<polygon fill="white" stroke="black" points="236,-100.5 236,-119.5 321,-119.5 321,-100.5 236,-100.5"/>
<text text-anchor="middle" x="278.5" y="-107.5" font-family="Helvetica,sans-Serif" font-size="10.00">odp_crypto_iv</text>
</a>
</g>
</g>
<!-- Node4&#45;&gt;Node1 -->
<g id="edge3" class="edge">
<title>Node4&#45;&gt;Node1</title>
<path fill="none" stroke="#9a32cd" stroke-dasharray="5,2" d="M274.17,-90.55C270.68,-78.11 264.96,-61.72 256.5,-49 252,-42.23 245.82,-35.89 239.9,-30.63"/>
<polygon fill="#9a32cd" stroke="#9a32cd" points="270.78,-91.45 276.66,-100.26 277.56,-89.71 270.78,-91.45"/>
<text text-anchor="middle" x="295.5" y="-74" font-family="Helvetica,sans-Serif" font-size="10.00"> cipher_iv</text>
<text text-anchor="middle" x="295.5" y="-63" font-family="Helvetica,sans-Serif" font-size="10.00">iv</text>
<text text-anchor="middle" x="295.5" y="-52" font-family="Helvetica,sans-Serif" font-size="10.00">auth_iv</text>
</g>
<!-- Node5 -->
<g id="node5" class="node">
<title>Node5</title>
<g id="a_node5"><a xlink:href="structodp__crypto__key.html" target="_top" xlink:title="Crypto API key structure.">
<polygon fill="white" stroke="black" points="339,-100.5 339,-119.5 432,-119.5 432,-100.5 339,-100.5"/>
<text text-anchor="middle" x="385.5" y="-107.5" font-family="Helvetica,sans-Serif" font-size="10.00">odp_crypto_key</text>
</a>
</g>
</g>
<!-- Node5&#45;&gt;Node1 -->
<g id="edge4" class="edge">
<title>Node5&#45;&gt;Node1</title>
<path fill="none" stroke="#9a32cd" stroke-dasharray="5,2" d="M372.17,-92.4C360.59,-78.97 342.7,-60.47 323.5,-49 309.62,-40.7 293.39,-34.29 278.02,-29.44"/>
<polygon fill="#9a32cd" stroke="#9a32cd" points="369.72,-94.93 378.82,-100.36 375.1,-90.44 369.72,-94.93"/>
<text text-anchor="middle" x="389" y="-68.5" font-family="Helvetica,sans-Serif" font-size="10.00"> auth_key</text>
<text text-anchor="middle" x="389" y="-57.5" font-family="Helvetica,sans-Serif" font-size="10.00">cipher_key</text>
</g>
</g>
</svg>
