<?xml version="1.0" encoding="UTF-8" standalone="no"?>
<!DOCTYPE svg PUBLIC "-//W3C//DTD SVG 1.1//EN"
 "http://www.w3.org/Graphics/SVG/1.1/DTD/svg11.dtd">
<!-- Generated by graphviz version 2.43.0 (0)
 -->
<!-- Title: thread_types.h Pages: 1 -->
<svg width="1087pt" height="364pt"
 viewBox="0.00 0.00 1087.03 364.00" xmlns="http://www.w3.org/2000/svg" xmlns:xlink="http://www.w3.org/1999/xlink">
<g id="graph0" class="graph" transform="scale(1 1) rotate(0) translate(4 360)">
<title>thread_types.h</title>
<polygon fill="white" stroke="transparent" points="-4,4 -4,-360 1083.03,-360 1083.03,4 -4,4"/>
<!-- Node1 -->
<g id="node1" class="node">
<title>Node1</title>
<g id="a_node1"><a xlink:title=" ">
<polygon fill="#bfbfbf" stroke="black" points="267.5,-336.5 267.5,-355.5 356.5,-355.5 356.5,-336.5 267.5,-336.5"/>
<text text-anchor="middle" x="312" y="-343.5" font-family="Helvetica,sans-Serif" font-size="10.00">thread_types.h</text>
</a>
</g>
</g>
<!-- Node2 -->
<g id="node2" class="node">
<title>Node2</title>
<g id="a_node2"><a xlink:href="api_2spec_2init_8h.html" target="_top" xlink:title=" ">
<polygon fill="white" stroke="black" points="258.5,-280.5 258.5,-299.5 299.5,-299.5 299.5,-280.5 258.5,-280.5"/>
<text text-anchor="middle" x="279" y="-287.5" font-family="Helvetica,sans-Serif" font-size="10.00">init.h</text>
</a>
</g>
</g>
<!-- Node1&#45;&gt;Node2 -->
<g id="edge1" class="edge">
<title>Node1&#45;&gt;Node2</title>
<path fill="none" stroke="midnightblue" d="M301.17,-327.27C295.53,-318.05 288.88,-307.17 284.35,-299.75"/>
<polygon fill="midnightblue" stroke="midnightblue" points="298.35,-329.38 306.55,-336.08 304.32,-325.73 298.35,-329.38"/>
</g>
<!-- Node8 -->
<g id="node8" class="node">
<title>Node8</title>
<g id="a_node8"><a xlink:href="api_2thread_8h.html" target="_top" xlink:title=" ">
<polygon fill="white" stroke="black" points="396.5,-280.5 396.5,-299.5 453.5,-299.5 453.5,-280.5 396.5,-280.5"/>
<text text-anchor="middle" x="425" y="-287.5" font-family="Helvetica,sans-Serif" font-size="10.00">thread.h</text>
</a>
</g>
</g>
<!-- Node1&#45;&gt;Node8 -->
<g id="edge8" class="edge">
<title>Node1&#45;&gt;Node8</title>
<path fill="none" stroke="midnightblue" d="M339,-332.1C360.11,-322.01 388.86,-308.27 407.18,-299.52"/>
<polygon fill="midnightblue" stroke="midnightblue" points="337.42,-328.97 329.91,-336.44 340.44,-335.29 337.42,-328.97"/>
</g>
<!-- Node3 -->
<g id="node3" class="node">
<title>Node3</title>
<g id="a_node3"><a xlink:href="api_2init_8h.html" target="_top" xlink:title=" ">
<polygon fill="white" stroke="black" points="100.5,-224.5 100.5,-243.5 141.5,-243.5 141.5,-224.5 100.5,-224.5"/>
<text text-anchor="middle" x="121" y="-231.5" font-family="Helvetica,sans-Serif" font-size="10.00">init.h</text>
</a>
</g>
</g>
<!-- Node2&#45;&gt;Node3 -->
<g id="edge2" class="edge">
<title>Node2&#45;&gt;Node3</title>
<path fill="none" stroke="midnightblue" d="M248.78,-278.67C217.35,-267.93 168.99,-251.4 141.66,-242.06"/>
<polygon fill="midnightblue" stroke="midnightblue" points="247.75,-282.02 258.34,-281.94 250.01,-275.39 247.75,-282.02"/>
</g>
<!-- Node4 -->
<g id="node4" class="node">
<title>Node4</title>
<g id="a_node4"><a xlink:href="api_2spec_2shared__memory_8h.html" target="_top" xlink:title=" ">
<polygon fill="white" stroke="black" points="0,-168.5 0,-187.5 104,-187.5 104,-168.5 0,-168.5"/>
<text text-anchor="middle" x="52" y="-175.5" font-family="Helvetica,sans-Serif" font-size="10.00">shared_memory.h</text>
</a>
</g>
</g>
<!-- Node3&#45;&gt;Node4 -->
<g id="edge3" class="edge">
<title>Node3&#45;&gt;Node4</title>
<path fill="none" stroke="midnightblue" d="M101.96,-218.1C89.54,-208.38 73.76,-196.03 63.29,-187.83"/>
<polygon fill="midnightblue" stroke="midnightblue" points="99.88,-220.92 109.91,-224.32 104.2,-215.4 99.88,-220.92"/>
</g>
<!-- Node6 -->
<g id="node6" class="node">
<title>Node6</title>
<g id="a_node6"><a xlink:href="odp__api_8h.html" target="_top" xlink:title=" ">
<polygon fill="white" stroke="black" points="138,-56.5 138,-75.5 202,-75.5 202,-56.5 138,-56.5"/>
<text text-anchor="middle" x="170" y="-63.5" font-family="Helvetica,sans-Serif" font-size="10.00">odp_api.h</text>
</a>
</g>
</g>
<!-- Node3&#45;&gt;Node6 -->
<g id="edge7" class="edge">
<title>Node3&#45;&gt;Node6</title>
<path fill="none" stroke="midnightblue" d="M126.16,-214.73C132.89,-191.01 145.09,-148.34 156,-112 159.81,-99.3 164.4,-84.66 167.26,-75.61"/>
<polygon fill="midnightblue" stroke="midnightblue" points="122.76,-213.9 123.4,-224.47 129.49,-215.81 122.76,-213.9"/>
</g>
<!-- Node5 -->
<g id="node5" class="node">
<title>Node5</title>
<g id="a_node5"><a xlink:href="api_2shared__memory_8h.html" target="_top" xlink:title=" ">
<polygon fill="white" stroke="black" points="0,-112.5 0,-131.5 104,-131.5 104,-112.5 0,-112.5"/>
<text text-anchor="middle" x="52" y="-119.5" font-family="Helvetica,sans-Serif" font-size="10.00">shared_memory.h</text>
</a>
</g>
</g>
<!-- Node4&#45;&gt;Node5 -->
<g id="edge4" class="edge">
<title>Node4&#45;&gt;Node5</title>
<path fill="none" stroke="midnightblue" d="M52,-157.8C52,-148.91 52,-138.78 52,-131.75"/>
<polygon fill="midnightblue" stroke="midnightblue" points="48.5,-158.08 52,-168.08 55.5,-158.08 48.5,-158.08"/>
</g>
<!-- Node5&#45;&gt;Node6 -->
<g id="edge5" class="edge">
<title>Node5&#45;&gt;Node6</title>
<path fill="none" stroke="midnightblue" d="M79.9,-108.23C101.97,-98.13 132.18,-84.31 151.39,-75.52"/>
<polygon fill="midnightblue" stroke="midnightblue" points="78.33,-105.1 70.7,-112.44 81.25,-111.46 78.33,-105.1"/>
</g>
<!-- Node7 -->
<g id="node7" class="node">
<title>Node7</title>
<g id="a_node7"><a xlink:href="odp_8h.html" target="_top" xlink:title=" ">
<polygon fill="white" stroke="black" points="148,-0.5 148,-19.5 192,-19.5 192,-0.5 148,-0.5"/>
<text text-anchor="middle" x="170" y="-7.5" font-family="Helvetica,sans-Serif" font-size="10.00">odp.h</text>
</a>
</g>
</g>
<!-- Node6&#45;&gt;Node7 -->
<g id="edge6" class="edge">
<title>Node6&#45;&gt;Node7</title>
<path fill="none" stroke="midnightblue" d="M170,-45.8C170,-36.91 170,-26.78 170,-19.75"/>
<polygon fill="midnightblue" stroke="midnightblue" points="166.5,-46.08 170,-56.08 173.5,-46.08 166.5,-46.08"/>
</g>
<!-- Node8&#45;&gt;Node6 -->
<g id="edge21" class="edge">
<title>Node8&#45;&gt;Node6</title>
<path fill="none" stroke="midnightblue" d="M386.3,-284.04C332.91,-275.02 237.74,-250.66 189,-188 162.37,-153.76 166.11,-97.25 168.74,-75.71"/>
<polygon fill="midnightblue" stroke="midnightblue" points="385.97,-287.53 396.4,-285.65 387.07,-280.62 385.97,-287.53"/>
</g>
<!-- Node9 -->
<g id="node9" class="node">
<title>Node9</title>
<g id="a_node9"><a xlink:href="api_2abi-default_2rwlock__recursive_8h.html" target="_top" xlink:title=" ">
<polygon fill="white" stroke="black" points="513,-224.5 513,-243.5 621,-243.5 621,-224.5 513,-224.5"/>
<text text-anchor="middle" x="567" y="-231.5" font-family="Helvetica,sans-Serif" font-size="10.00">rwlock_recursive.h</text>
</a>
</g>
</g>
<!-- Node8&#45;&gt;Node9 -->
<g id="edge9" class="edge">
<title>Node8&#45;&gt;Node9</title>
<path fill="none" stroke="midnightblue" d="M457.16,-276.77C483.83,-266.63 521.07,-252.47 544.6,-243.52"/>
<polygon fill="midnightblue" stroke="midnightblue" points="455.6,-273.62 447.5,-280.44 458.09,-280.16 455.6,-273.62"/>
</g>
<!-- Node18 -->
<g id="node18" class="node">
<title>Node18</title>
<g id="a_node18"><a xlink:href="api_2cpu_8h.html" target="_top" xlink:title=" ">
<polygon fill="white" stroke="black" points="882.5,-112.5 882.5,-131.5 925.5,-131.5 925.5,-112.5 882.5,-112.5"/>
<text text-anchor="middle" x="904" y="-119.5" font-family="Helvetica,sans-Serif" font-size="10.00">cpu.h</text>
</a>
</g>
</g>
<!-- Node8&#45;&gt;Node18 -->
<g id="edge19" class="edge">
<title>Node8&#45;&gt;Node18</title>
<path fill="none" stroke="midnightblue" d="M463.8,-289.19C591.01,-288.91 991.76,-280.59 1071,-188 1112.57,-139.42 979.79,-126.95 925.78,-123.92"/>
<polygon fill="midnightblue" stroke="midnightblue" points="463.74,-285.69 453.74,-289.2 463.74,-292.69 463.74,-285.69"/>
</g>
<!-- Node10 -->
<g id="node10" class="node">
<title>Node10</title>
<g id="a_node10"><a xlink:href="arch_2arm32-linux_2odp_2api_2abi_2rwlock__recursive_8h_source.html" target="_top" xlink:title=" ">
<polygon fill="white" stroke="black" points="198,-168.5 198,-187.5 306,-187.5 306,-168.5 198,-168.5"/>
<text text-anchor="middle" x="252" y="-175.5" font-family="Helvetica,sans-Serif" font-size="10.00">rwlock_recursive.h</text>
</a>
</g>
</g>
<!-- Node9&#45;&gt;Node10 -->
<g id="edge10" class="edge">
<title>Node9&#45;&gt;Node10</title>
<path fill="none" stroke="midnightblue" d="M507.08,-222.73C447.55,-212.52 357.34,-197.06 301.68,-187.52"/>
<polygon fill="midnightblue" stroke="midnightblue" points="506.64,-226.2 517.09,-224.44 507.82,-219.3 506.64,-226.2"/>
</g>
<!-- Node11 -->
<g id="node11" class="node">
<title>Node11</title>
<g id="a_node11"><a xlink:href="arch_2arm64-linux_2odp_2api_2abi_2rwlock__recursive_8h_source.html" target="_top" xlink:title=" ">
<polygon fill="white" stroke="black" points="324,-168.5 324,-187.5 432,-187.5 432,-168.5 324,-168.5"/>
<text text-anchor="middle" x="378" y="-175.5" font-family="Helvetica,sans-Serif" font-size="10.00">rwlock_recursive.h</text>
</a>
</g>
</g>
<!-- Node9&#45;&gt;Node11 -->
<g id="edge11" class="edge">
<title>Node9&#45;&gt;Node11</title>
<path fill="none" stroke="midnightblue" d="M526.99,-221.57C491.33,-211.38 439.96,-196.7 407.81,-187.52"/>
<polygon fill="midnightblue" stroke="midnightblue" points="526.48,-225.06 537.05,-224.44 528.4,-218.33 526.48,-225.06"/>
</g>
<!-- Node12 -->
<g id="node12" class="node">
<title>Node12</title>
<g id="a_node12"><a xlink:href="arch_2default-linux_2odp_2api_2abi_2rwlock__recursive_8h_source.html" target="_top" xlink:title=" ">
<polygon fill="white" stroke="black" points="450,-168.5 450,-187.5 558,-187.5 558,-168.5 450,-168.5"/>
<text text-anchor="middle" x="504" y="-175.5" font-family="Helvetica,sans-Serif" font-size="10.00">rwlock_recursive.h</text>
</a>
</g>
</g>
<!-- Node9&#45;&gt;Node12 -->
<g id="edge12" class="edge">
<title>Node9&#45;&gt;Node12</title>
<path fill="none" stroke="midnightblue" d="M548.96,-217.54C537.73,-207.91 523.68,-195.87 514.31,-187.83"/>
<polygon fill="midnightblue" stroke="midnightblue" points="547.01,-220.47 556.88,-224.32 551.56,-215.16 547.01,-220.47"/>
</g>
<!-- Node13 -->
<g id="node13" class="node">
<title>Node13</title>
<g id="a_node13"><a xlink:href="arch_2mips64-linux_2odp_2api_2abi_2rwlock__recursive_8h_source.html" target="_top" xlink:title=" ">
<polygon fill="white" stroke="black" points="576,-168.5 576,-187.5 684,-187.5 684,-168.5 576,-168.5"/>
<text text-anchor="middle" x="630" y="-175.5" font-family="Helvetica,sans-Serif" font-size="10.00">rwlock_recursive.h</text>
</a>
</g>
</g>
<!-- Node9&#45;&gt;Node13 -->
<g id="edge13" class="edge">
<title>Node9&#45;&gt;Node13</title>
<path fill="none" stroke="midnightblue" d="M585.04,-217.54C596.27,-207.91 610.32,-195.87 619.69,-187.83"/>
<polygon fill="midnightblue" stroke="midnightblue" points="582.44,-215.16 577.12,-224.32 586.99,-220.47 582.44,-215.16"/>
</g>
<!-- Node14 -->
<g id="node14" class="node">
<title>Node14</title>
<g id="a_node14"><a xlink:href="arch_2power64-linux_2odp_2api_2abi_2rwlock__recursive_8h_source.html" target="_top" xlink:title=" ">
<polygon fill="white" stroke="black" points="702,-168.5 702,-187.5 810,-187.5 810,-168.5 702,-168.5"/>
<text text-anchor="middle" x="756" y="-175.5" font-family="Helvetica,sans-Serif" font-size="10.00">rwlock_recursive.h</text>
</a>
</g>
</g>
<!-- Node9&#45;&gt;Node14 -->
<g id="edge14" class="edge">
<title>Node9&#45;&gt;Node14</title>
<path fill="none" stroke="midnightblue" d="M607.01,-221.57C642.67,-211.38 694.04,-196.7 726.19,-187.52"/>
<polygon fill="midnightblue" stroke="midnightblue" points="605.6,-218.33 596.95,-224.44 607.52,-225.06 605.6,-218.33"/>
</g>
<!-- Node15 -->
<g id="node15" class="node">
<title>Node15</title>
<g id="a_node15"><a xlink:href="arch_2x86__32-linux_2odp_2api_2abi_2rwlock__recursive_8h_source.html" target="_top" xlink:title=" ">
<polygon fill="white" stroke="black" points="828,-168.5 828,-187.5 936,-187.5 936,-168.5 828,-168.5"/>
<text text-anchor="middle" x="882" y="-175.5" font-family="Helvetica,sans-Serif" font-size="10.00">rwlock_recursive.h</text>
</a>
</g>
</g>
<!-- Node9&#45;&gt;Node15 -->
<g id="edge15" class="edge">
<title>Node9&#45;&gt;Node15</title>
<path fill="none" stroke="midnightblue" d="M626.92,-222.73C686.45,-212.52 776.66,-197.06 832.32,-187.52"/>
<polygon fill="midnightblue" stroke="midnightblue" points="626.18,-219.3 616.91,-224.44 627.36,-226.2 626.18,-219.3"/>
</g>
<!-- Node16 -->
<g id="node16" class="node">
<title>Node16</title>
<g id="a_node16"><a xlink:href="arch_2x86__64-linux_2odp_2api_2abi_2rwlock__recursive_8h_source.html" target="_top" xlink:title=" ">
<polygon fill="white" stroke="black" points="954,-168.5 954,-187.5 1062,-187.5 1062,-168.5 954,-168.5"/>
<text text-anchor="middle" x="1008" y="-175.5" font-family="Helvetica,sans-Serif" font-size="10.00">rwlock_recursive.h</text>
</a>
</g>
</g>
<!-- Node9&#45;&gt;Node16 -->
<g id="edge16" class="edge">
<title>Node9&#45;&gt;Node16</title>
<path fill="none" stroke="midnightblue" d="M631.46,-225.79C706.74,-217.26 835.01,-202.4 945,-188 947.85,-187.63 950.77,-187.24 953.71,-186.84"/>
<polygon fill="midnightblue" stroke="midnightblue" points="630.74,-222.35 621.2,-226.95 631.53,-229.31 630.74,-222.35"/>
</g>
<!-- Node17 -->
<g id="node17" class="node">
<title>Node17</title>
<g id="a_node17"><a xlink:href="api_2rwlock__recursive_8h.html" target="_top" xlink:title=" ">
<polygon fill="white" stroke="black" points="570,-112.5 570,-131.5 678,-131.5 678,-112.5 570,-112.5"/>
<text text-anchor="middle" x="624" y="-119.5" font-family="Helvetica,sans-Serif" font-size="10.00">rwlock_recursive.h</text>
</a>
</g>
</g>
<!-- Node16&#45;&gt;Node17 -->
<g id="edge17" class="edge">
<title>Node16&#45;&gt;Node17</title>
<path fill="none" stroke="midnightblue" d="M943.78,-167.83C844.26,-153.76 740.02,-139.18 678.25,-130.56"/>
<polygon fill="midnightblue" stroke="midnightblue" points="943.31,-171.3 953.71,-169.23 944.29,-164.37 943.31,-171.3"/>
</g>
<!-- Node17&#45;&gt;Node6 -->
<g id="edge18" class="edge">
<title>Node17&#45;&gt;Node6</title>
<path fill="none" stroke="midnightblue" d="M559.55,-113.33C460.92,-101.6 276.17,-79.63 202.01,-70.81"/>
<polygon fill="midnightblue" stroke="midnightblue" points="559.34,-116.83 569.69,-114.54 560.17,-109.88 559.34,-116.83"/>
</g>
<!-- Node18&#45;&gt;Node6 -->
<g id="edge20" class="edge">
<title>Node18&#45;&gt;Node6</title>
<path fill="none" stroke="midnightblue" d="M872.4,-118.67C752.08,-109.82 323.32,-78.28 202.12,-69.36"/>
<polygon fill="midnightblue" stroke="midnightblue" points="872.2,-122.17 882.43,-119.41 872.71,-115.19 872.2,-122.17"/>
</g>
</g>
</svg>
