<?xml version="1.0" encoding="UTF-8" standalone="no"?>
<!DOCTYPE svg PUBLIC "-//W3C//DTD SVG 1.1//EN"
 "http://www.w3.org/Graphics/SVG/1.1/DTD/svg11.dtd">
<!-- Generated by graphviz version 2.43.0 (0)
 -->
<!-- Title: align.h Pages: 1 -->
<svg width="3144pt" height="476pt"
 viewBox="0.00 0.00 3143.50 476.00" xmlns="http://www.w3.org/2000/svg" xmlns:xlink="http://www.w3.org/1999/xlink">
<g id="graph0" class="graph" transform="scale(1 1) rotate(0) translate(4 472)">
<title>align.h</title>
<polygon fill="white" stroke="transparent" points="-4,4 -4,-472 3139.5,-472 3139.5,4 -4,4"/>
<!-- Node1 -->
<g id="node1" class="node">
<title>Node1</title>
<g id="a_node1"><a xlink:title=" ">
<polygon fill="#bfbfbf" stroke="black" points="119.5,-448.5 119.5,-467.5 169.5,-467.5 169.5,-448.5 119.5,-448.5"/>
<text text-anchor="middle" x="144.5" y="-455.5" font-family="Helvetica,sans-Serif" font-size="10.00">align.h</text>
</a>
</g>
</g>
<!-- Node2 -->
<g id="node2" class="node">
<title>Node2</title>
<g id="a_node2"><a xlink:href="abi-default_2atomic_8h.html" target="_top" xlink:title=" ">
<polygon fill="white" stroke="black" points="0,-280.5 0,-299.5 59,-299.5 59,-280.5 0,-280.5"/>
<text text-anchor="middle" x="29.5" y="-287.5" font-family="Helvetica,sans-Serif" font-size="10.00">atomic.h</text>
</a>
</g>
</g>
<!-- Node1&#45;&gt;Node2 -->
<g id="edge1" class="edge">
<title>Node1&#45;&gt;Node2</title>
<path fill="none" stroke="midnightblue" d="M132.56,-439.76C108.19,-404.59 53.52,-325.68 35.44,-299.57"/>
<polygon fill="midnightblue" stroke="midnightblue" points="129.75,-441.85 138.32,-448.08 135.5,-437.86 129.75,-441.85"/>
</g>
<!-- Node3 -->
<g id="node3" class="node">
<title>Node3</title>
<g id="a_node3"><a xlink:href="abi-default_2cpumask_8h.html" target="_top" xlink:title=" ">
<polygon fill="white" stroke="black" points="77.5,-280.5 77.5,-299.5 147.5,-299.5 147.5,-280.5 77.5,-280.5"/>
<text text-anchor="middle" x="112.5" y="-287.5" font-family="Helvetica,sans-Serif" font-size="10.00">cpumask.h</text>
</a>
</g>
</g>
<!-- Node1&#45;&gt;Node3 -->
<g id="edge2" class="edge">
<title>Node1&#45;&gt;Node3</title>
<path fill="none" stroke="midnightblue" d="M138.7,-438.88C136.24,-430.73 133.49,-420.94 131.5,-412 122.24,-370.27 115.81,-319.48 113.47,-299.58"/>
<polygon fill="midnightblue" stroke="midnightblue" points="135.37,-439.95 141.68,-448.46 142.05,-437.87 135.37,-439.95"/>
</g>
<!-- Node4 -->
<g id="node4" class="node">
<title>Node4</title>
<g id="a_node4"><a xlink:href="spec_2std__types_8h.html" target="_top" xlink:title=" ">
<polygon fill="white" stroke="black" points="141,-392.5 141,-411.5 214,-411.5 214,-392.5 141,-392.5"/>
<text text-anchor="middle" x="177.5" y="-399.5" font-family="Helvetica,sans-Serif" font-size="10.00">std_types.h</text>
</a>
</g>
</g>
<!-- Node1&#45;&gt;Node4 -->
<g id="edge3" class="edge">
<title>Node1&#45;&gt;Node4</title>
<path fill="none" stroke="midnightblue" d="M155.33,-439.27C160.97,-430.05 167.62,-419.17 172.15,-411.75"/>
<polygon fill="midnightblue" stroke="midnightblue" points="152.18,-437.73 149.95,-448.08 158.15,-441.38 152.18,-437.73"/>
</g>
<!-- Node81 -->
<g id="node50" class="node">
<title>Node81</title>
<g id="a_node50"><a xlink:href="time__inlines_8h_source.html" target="_top" xlink:title=" ">
<polygon fill="white" stroke="black" points="232.5,-392.5 232.5,-411.5 318.5,-411.5 318.5,-392.5 232.5,-392.5"/>
<text text-anchor="middle" x="275.5" y="-399.5" font-family="Helvetica,sans-Serif" font-size="10.00">time_inlines.h</text>
</a>
</g>
</g>
<!-- Node1&#45;&gt;Node81 -->
<g id="edge64" class="edge">
<title>Node1&#45;&gt;Node81</title>
<path fill="none" stroke="midnightblue" d="M174.82,-444.5C199.38,-434.38 233.32,-420.39 254.84,-411.52"/>
<polygon fill="midnightblue" stroke="midnightblue" points="173.17,-441.4 165.26,-448.44 175.84,-447.87 173.17,-441.4"/>
</g>
<!-- Node5 -->
<g id="node5" class="node">
<title>Node5</title>
<g id="a_node5"><a xlink:href="std__types_8h.html" target="_top" xlink:title=" ">
<polygon fill="white" stroke="black" points="1312,-336.5 1312,-355.5 1385,-355.5 1385,-336.5 1312,-336.5"/>
<text text-anchor="middle" x="1348.5" y="-343.5" font-family="Helvetica,sans-Serif" font-size="10.00">std_types.h</text>
</a>
</g>
</g>
<!-- Node4&#45;&gt;Node5 -->
<g id="edge4" class="edge">
<title>Node4&#45;&gt;Node5</title>
<path fill="none" stroke="midnightblue" d="M224.02,-392.18C461.31,-366.03 1145.48,-351.05 1311.77,-347.71"/>
<polygon fill="midnightblue" stroke="midnightblue" points="223.62,-388.71 214.08,-393.32 224.41,-395.66 223.62,-388.71"/>
</g>
<!-- Node5&#45;&gt;Node2 -->
<g id="edge5" class="edge">
<title>Node5&#45;&gt;Node2</title>
<path fill="none" stroke="midnightblue" d="M1301.79,-344.56C1101.47,-342.47 314.05,-332.34 68.5,-300 65.47,-299.6 62.33,-299.07 59.2,-298.47"/>
<polygon fill="midnightblue" stroke="midnightblue" points="1301.94,-348.06 1311.98,-344.66 1302.01,-341.06 1301.94,-348.06"/>
</g>
<!-- Node5&#45;&gt;Node3 -->
<g id="edge8" class="edge">
<title>Node5&#45;&gt;Node3</title>
<path fill="none" stroke="midnightblue" d="M1301.92,-344.26C1110.56,-341.08 384.26,-327.41 156.5,-300 153.71,-299.66 150.84,-299.25 147.96,-298.77"/>
<polygon fill="midnightblue" stroke="midnightblue" points="1301.88,-347.76 1311.93,-344.43 1301.99,-340.76 1301.88,-347.76"/>
</g>
<!-- Node6 -->
<g id="node6" class="node">
<title>Node6</title>
<g id="a_node6"><a xlink:href="abi-default_2barrier_8h.html" target="_top" xlink:title=" ">
<polygon fill="white" stroke="black" points="2643,-280.5 2643,-299.5 2700,-299.5 2700,-280.5 2643,-280.5"/>
<text text-anchor="middle" x="2671.5" y="-287.5" font-family="Helvetica,sans-Serif" font-size="10.00">barrier.h</text>
</a>
</g>
</g>
<!-- Node5&#45;&gt;Node6 -->
<g id="edge6" class="edge">
<title>Node5&#45;&gt;Node6</title>
<path fill="none" stroke="midnightblue" d="M1395.43,-344.64C1596.73,-342.88 2388,-333.93 2634.5,-300 2637.25,-299.62 2640.09,-299.12 2642.93,-298.56"/>
<polygon fill="midnightblue" stroke="midnightblue" points="1395.17,-341.14 1385.2,-344.72 1395.23,-348.14 1395.17,-341.14"/>
</g>
<!-- Node7 -->
<g id="node7" class="node">
<title>Node7</title>
<g id="a_node7"><a xlink:href="abi-default_2byteorder_8h.html" target="_top" xlink:title=" ">
<polygon fill="white" stroke="black" points="2718.5,-280.5 2718.5,-299.5 2790.5,-299.5 2790.5,-280.5 2718.5,-280.5"/>
<text text-anchor="middle" x="2754.5" y="-287.5" font-family="Helvetica,sans-Serif" font-size="10.00">byteorder.h</text>
</a>
</g>
</g>
<!-- Node5&#45;&gt;Node7 -->
<g id="edge7" class="edge">
<title>Node5&#45;&gt;Node7</title>
<path fill="none" stroke="midnightblue" d="M1395.39,-344.48C1603.73,-342.04 2446.78,-330.41 2709.5,-300 2712.35,-299.67 2715.29,-299.26 2718.23,-298.79"/>
<polygon fill="midnightblue" stroke="midnightblue" points="1395.06,-340.99 1385.1,-344.6 1395.14,-347.99 1395.06,-340.99"/>
</g>
<!-- Node8 -->
<g id="node8" class="node">
<title>Node8</title>
<g id="a_node8"><a xlink:href="abi-default_2init_8h.html" target="_top" xlink:title=" ">
<polygon fill="white" stroke="black" points="2809,-280.5 2809,-299.5 2850,-299.5 2850,-280.5 2809,-280.5"/>
<text text-anchor="middle" x="2829.5" y="-287.5" font-family="Helvetica,sans-Serif" font-size="10.00">init.h</text>
</a>
</g>
</g>
<!-- Node5&#45;&gt;Node8 -->
<g id="edge9" class="edge">
<title>Node5&#45;&gt;Node8</title>
<path fill="none" stroke="midnightblue" d="M1395.39,-345.18C1612.33,-345.78 2519.87,-345.48 2799.5,-300 2802.51,-299.51 2805.63,-298.81 2808.68,-298"/>
<polygon fill="midnightblue" stroke="midnightblue" points="1395.31,-341.68 1385.3,-345.15 1395.28,-348.68 1395.31,-341.68"/>
</g>
<!-- Node9 -->
<g id="node9" class="node">
<title>Node9</title>
<g id="a_node9"><a xlink:href="abi-default_2ipsec_8h.html" target="_top" xlink:title=" ">
<polygon fill="white" stroke="black" points="2868,-280.5 2868,-299.5 2919,-299.5 2919,-280.5 2868,-280.5"/>
<text text-anchor="middle" x="2893.5" y="-287.5" font-family="Helvetica,sans-Serif" font-size="10.00">ipsec.h</text>
</a>
</g>
</g>
<!-- Node5&#45;&gt;Node9 -->
<g id="edge10" class="edge">
<title>Node5&#45;&gt;Node9</title>
<path fill="none" stroke="midnightblue" d="M1395.13,-345.05C1616.94,-345.05 2566.61,-342.55 2859.5,-300 2862.16,-299.61 2864.91,-299.09 2867.64,-298.5"/>
<polygon fill="midnightblue" stroke="midnightblue" points="1395.12,-341.55 1385.12,-345.05 1395.12,-348.55 1395.12,-341.55"/>
</g>
<!-- Node10 -->
<g id="node10" class="node">
<title>Node10</title>
<g id="a_node10"><a xlink:href="abi-default_2packet__io_8h.html" target="_top" xlink:title=" ">
<polygon fill="white" stroke="black" points="2937.5,-280.5 2937.5,-299.5 3009.5,-299.5 3009.5,-280.5 2937.5,-280.5"/>
<text text-anchor="middle" x="2973.5" y="-287.5" font-family="Helvetica,sans-Serif" font-size="10.00">packet_io.h</text>
</a>
</g>
</g>
<!-- Node5&#45;&gt;Node10 -->
<g id="edge11" class="edge">
<title>Node5&#45;&gt;Node10</title>
<path fill="none" stroke="midnightblue" d="M1395.33,-344.73C1623.49,-343.27 2620.17,-334.97 2928.5,-300 2931.35,-299.68 2934.29,-299.27 2937.23,-298.8"/>
<polygon fill="midnightblue" stroke="midnightblue" points="1395.03,-341.24 1385.05,-344.8 1395.07,-348.24 1395.03,-341.24"/>
</g>
<!-- Node11 -->
<g id="node11" class="node">
<title>Node11</title>
<g id="a_node11"><a xlink:href="abi-default_2rwlock__recursive_8h.html" target="_top" xlink:title=" ">
<polygon fill="white" stroke="black" points="3027.5,-280.5 3027.5,-299.5 3135.5,-299.5 3135.5,-280.5 3027.5,-280.5"/>
<text text-anchor="middle" x="3081.5" y="-287.5" font-family="Helvetica,sans-Serif" font-size="10.00">rwlock_recursive.h</text>
</a>
</g>
</g>
<!-- Node5&#45;&gt;Node11 -->
<g id="edge12" class="edge">
<title>Node5&#45;&gt;Node11</title>
<path fill="none" stroke="midnightblue" d="M1395.66,-344.46C1632.16,-341.66 2690.64,-327.74 3018.5,-300 3021.36,-299.76 3024.29,-299.47 3027.25,-299.15"/>
<polygon fill="midnightblue" stroke="midnightblue" points="1395.3,-340.97 1385.34,-344.58 1395.38,-347.97 1395.3,-340.97"/>
</g>
<!-- Node12 -->
<g id="node12" class="node">
<title>Node12</title>
<g id="a_node12"><a xlink:href="abi-default_2schedule_8h.html" target="_top" xlink:title=" ">
<polygon fill="white" stroke="black" points="166,-280.5 166,-299.5 235,-299.5 235,-280.5 166,-280.5"/>
<text text-anchor="middle" x="200.5" y="-287.5" font-family="Helvetica,sans-Serif" font-size="10.00">schedule.h</text>
</a>
</g>
</g>
<!-- Node5&#45;&gt;Node12 -->
<g id="edge13" class="edge">
<title>Node5&#45;&gt;Node12</title>
<path fill="none" stroke="midnightblue" d="M1301.83,-344.1C1119.36,-340.43 454.06,-325.53 244.5,-300 241.4,-299.62 238.2,-299.14 235,-298.6"/>
<polygon fill="midnightblue" stroke="midnightblue" points="1301.83,-347.6 1311.9,-344.3 1301.97,-340.6 1301.83,-347.6"/>
</g>
<!-- Node13 -->
<g id="node13" class="node">
<title>Node13</title>
<g id="a_node13"><a xlink:href="abi-default_2spinlock__recursive_8h.html" target="_top" xlink:title=" ">
<polygon fill="white" stroke="black" points="253.5,-280.5 253.5,-299.5 369.5,-299.5 369.5,-280.5 253.5,-280.5"/>
<text text-anchor="middle" x="311.5" y="-287.5" font-family="Helvetica,sans-Serif" font-size="10.00">spinlock_recursive.h</text>
</a>
</g>
</g>
<!-- Node5&#45;&gt;Node13 -->
<g id="edge14" class="edge">
<title>Node5&#45;&gt;Node13</title>
<path fill="none" stroke="midnightblue" d="M1301.48,-344.27C1161.03,-341.78 732.37,-331.91 378.5,-300 375.58,-299.74 372.59,-299.44 369.57,-299.12"/>
<polygon fill="midnightblue" stroke="midnightblue" points="1301.81,-347.78 1311.87,-344.45 1301.93,-340.78 1301.81,-347.78"/>
</g>
<!-- Node14 -->
<g id="node14" class="node">
<title>Node14</title>
<g id="a_node14"><a xlink:href="abi-default_2traffic__mngr_8h.html" target="_top" xlink:title=" ">
<polygon fill="white" stroke="black" points="387.5,-280.5 387.5,-299.5 471.5,-299.5 471.5,-280.5 387.5,-280.5"/>
<text text-anchor="middle" x="429.5" y="-287.5" font-family="Helvetica,sans-Serif" font-size="10.00">traffic_mngr.h</text>
</a>
</g>
</g>
<!-- Node5&#45;&gt;Node14 -->
<g id="edge15" class="edge">
<title>Node5&#45;&gt;Node14</title>
<path fill="none" stroke="midnightblue" d="M1301.96,-344.6C1171.76,-343.03 792.89,-335.53 480.5,-300 477.64,-299.67 474.7,-299.29 471.74,-298.87"/>
<polygon fill="midnightblue" stroke="midnightblue" points="1301.94,-348.1 1311.98,-344.71 1302.02,-341.1 1301.94,-348.1"/>
</g>
<!-- Node15 -->
<g id="node15" class="node">
<title>Node15</title>
<g id="a_node15"><a xlink:href="barrier_8h.html" target="_top" xlink:title=" ">
<polygon fill="white" stroke="black" points="490,-280.5 490,-299.5 547,-299.5 547,-280.5 490,-280.5"/>
<text text-anchor="middle" x="518.5" y="-287.5" font-family="Helvetica,sans-Serif" font-size="10.00">barrier.h</text>
</a>
</g>
</g>
<!-- Node5&#45;&gt;Node15 -->
<g id="edge16" class="edge">
<title>Node5&#45;&gt;Node15</title>
<path fill="none" stroke="midnightblue" d="M1301.71,-345.3C1178.73,-345.46 836.47,-341.79 555.5,-300 552.75,-299.59 549.91,-299.07 547.08,-298.5"/>
<polygon fill="midnightblue" stroke="midnightblue" points="1301.91,-348.8 1311.9,-345.28 1301.89,-341.8 1301.91,-348.8"/>
</g>
<!-- Node16 -->
<g id="node16" class="node">
<title>Node16</title>
<g id="a_node16"><a xlink:href="buffer_8h.html" target="_top" xlink:title=" ">
<polygon fill="white" stroke="black" points="565,-280.5 565,-299.5 618,-299.5 618,-280.5 565,-280.5"/>
<text text-anchor="middle" x="591.5" y="-287.5" font-family="Helvetica,sans-Serif" font-size="10.00">buffer.h</text>
</a>
</g>
</g>
<!-- Node5&#45;&gt;Node16 -->
<g id="edge17" class="edge">
<title>Node5&#45;&gt;Node16</title>
<path fill="none" stroke="midnightblue" d="M1301.6,-344.53C1186.87,-342.86 883.08,-335.17 632.5,-300 627.88,-299.35 623.01,-298.47 618.3,-297.5"/>
<polygon fill="midnightblue" stroke="midnightblue" points="1301.74,-348.04 1311.79,-344.67 1301.84,-341.04 1301.74,-348.04"/>
</g>
<!-- Node17 -->
<g id="node17" class="node">
<title>Node17</title>
<g id="a_node17"><a xlink:href="classification_8h.html" target="_top" xlink:title=" ">
<polygon fill="white" stroke="black" points="713,-56.5 713,-75.5 802,-75.5 802,-56.5 713,-56.5"/>
<text text-anchor="middle" x="757.5" y="-63.5" font-family="Helvetica,sans-Serif" font-size="10.00">classification.h</text>
</a>
</g>
</g>
<!-- Node5&#45;&gt;Node17 -->
<g id="edge18" class="edge">
<title>Node5&#45;&gt;Node17</title>
<path fill="none" stroke="midnightblue" d="M1301.69,-345.26C1179.8,-345.35 855.28,-341.54 757.5,-300 717.52,-283.01 684.5,-278.44 684.5,-235 684.5,-235 684.5,-235 684.5,-177 684.5,-146.9 687,-137.17 703.5,-112 713.67,-96.49 730.8,-83.53 743.04,-75.56"/>
<polygon fill="midnightblue" stroke="midnightblue" points="1301.83,-348.76 1311.82,-345.25 1301.82,-341.76 1301.83,-348.76"/>
</g>
<!-- Node18 -->
<g id="node18" class="node">
<title>Node18</title>
<g id="a_node18"><a xlink:href="spec_2ipsec_8h.html" target="_top" xlink:title=" ">
<polygon fill="white" stroke="red" points="768,-0.5 768,-19.5 819,-19.5 819,-0.5 768,-0.5"/>
<text text-anchor="middle" x="793.5" y="-7.5" font-family="Helvetica,sans-Serif" font-size="10.00">ipsec.h</text>
</a>
</g>
</g>
<!-- Node5&#45;&gt;Node18 -->
<g id="edge46" class="edge">
<title>Node5&#45;&gt;Node18</title>
<path fill="none" stroke="midnightblue" d="M1301.46,-343.67C1162.58,-339.48 760.71,-325.29 707.5,-300 671.72,-283 646.5,-274.62 646.5,-235 646.5,-235 646.5,-235 646.5,-121 646.5,-61.07 725.78,-29.84 767.89,-17.48"/>
<polygon fill="midnightblue" stroke="midnightblue" points="1301.67,-347.18 1311.77,-343.98 1301.88,-340.18 1301.67,-347.18"/>
</g>
<!-- Node20 -->
<g id="node19" class="node">
<title>Node20</title>
<g id="a_node19"><a xlink:href="crypto_8h.html" target="_top" xlink:title=" ">
<polygon fill="white" stroke="black" points="942.5,-168.5 942.5,-187.5 998.5,-187.5 998.5,-168.5 942.5,-168.5"/>
<text text-anchor="middle" x="970.5" y="-175.5" font-family="Helvetica,sans-Serif" font-size="10.00">crypto.h</text>
</a>
</g>
</g>
<!-- Node5&#45;&gt;Node20 -->
<g id="edge20" class="edge">
<title>Node5&#45;&gt;Node20</title>
<path fill="none" stroke="midnightblue" d="M1301.74,-344.96C1212.73,-344.01 1023.21,-337.5 971.5,-300 942.6,-279.04 936.55,-258.56 945.5,-224 949.04,-210.33 957.73,-196.39 963.87,-187.73"/>
<polygon fill="midnightblue" stroke="midnightblue" points="1301.79,-348.46 1311.83,-345.05 1301.86,-341.46 1301.79,-348.46"/>
</g>
<!-- Node21 -->
<g id="node20" class="node">
<title>Node21</title>
<g id="a_node20"><a xlink:href="packet_8h.html" target="_top" xlink:title=" ">
<polygon fill="white" stroke="black" points="992.5,-280.5 992.5,-299.5 1050.5,-299.5 1050.5,-280.5 992.5,-280.5"/>
<text text-anchor="middle" x="1021.5" y="-287.5" font-family="Helvetica,sans-Serif" font-size="10.00">packet.h</text>
</a>
</g>
</g>
<!-- Node5&#45;&gt;Node21 -->
<g id="edge22" class="edge">
<title>Node5&#45;&gt;Node21</title>
<path fill="none" stroke="midnightblue" d="M1301.6,-338.29C1245.19,-330.05 1147.7,-315.29 1064.5,-300 1060,-299.17 1055.25,-298.24 1050.61,-297.29"/>
<polygon fill="midnightblue" stroke="midnightblue" points="1301.24,-341.77 1311.64,-339.75 1302.25,-334.85 1301.24,-341.77"/>
</g>
<!-- Node22 -->
<g id="node21" class="node">
<title>Node22</title>
<g id="a_node21"><a xlink:href="spec_2comp_8h.html" target="_top" xlink:title=" ">
<polygon fill="white" stroke="red" points="955,-224.5 955,-243.5 1008,-243.5 1008,-224.5 955,-224.5"/>
<text text-anchor="middle" x="981.5" y="-231.5" font-family="Helvetica,sans-Serif" font-size="10.00">comp.h</text>
</a>
</g>
</g>
<!-- Node5&#45;&gt;Node22 -->
<g id="edge41" class="edge">
<title>Node5&#45;&gt;Node22</title>
<path fill="none" stroke="midnightblue" d="M1301.78,-342.58C1208.14,-337.27 1004.62,-323.16 983.5,-300 969.5,-284.65 974.59,-257.79 978.56,-243.89"/>
<polygon fill="midnightblue" stroke="midnightblue" points="1301.65,-346.08 1311.83,-343.14 1302.04,-339.09 1301.65,-346.08"/>
</g>
<!-- Node24 -->
<g id="node22" class="node">
<title>Node24</title>
<g id="a_node22"><a xlink:href="spec_2crypto_8h.html" target="_top" xlink:title=" ">
<polygon fill="white" stroke="black" points="1201.5,-224.5 1201.5,-243.5 1257.5,-243.5 1257.5,-224.5 1201.5,-224.5"/>
<text text-anchor="middle" x="1229.5" y="-231.5" font-family="Helvetica,sans-Serif" font-size="10.00">crypto.h</text>
</a>
</g>
</g>
<!-- Node5&#45;&gt;Node24 -->
<g id="edge43" class="edge">
<title>Node5&#45;&gt;Node24</title>
<path fill="none" stroke="midnightblue" d="M1301.64,-341.82C1245.37,-336.92 1156,-325.29 1135.5,-300 1113.51,-272.88 1166.18,-252.32 1201.26,-242.13"/>
<polygon fill="midnightblue" stroke="midnightblue" points="1301.48,-345.32 1311.73,-342.66 1302.06,-338.35 1301.48,-345.32"/>
</g>
<!-- Node38 -->
<g id="node24" class="node">
<title>Node38</title>
<g id="a_node24"><a xlink:href="spec_2packet__flags_8h.html" target="_top" xlink:title=" ">
<polygon fill="white" stroke="red" points="1097.5,-224.5 1097.5,-243.5 1183.5,-243.5 1183.5,-224.5 1097.5,-224.5"/>
<text text-anchor="middle" x="1140.5" y="-231.5" font-family="Helvetica,sans-Serif" font-size="10.00">packet_flags.h</text>
</a>
</g>
</g>
<!-- Node5&#45;&gt;Node38 -->
<g id="edge47" class="edge">
<title>Node5&#45;&gt;Node38</title>
<path fill="none" stroke="midnightblue" d="M1301.48,-342.26C1242.99,-337.76 1148.16,-326.49 1126.5,-300 1113.06,-283.56 1126.17,-257.17 1134.61,-243.63"/>
<polygon fill="midnightblue" stroke="midnightblue" points="1301.37,-345.76 1311.59,-343 1301.88,-338.78 1301.37,-345.76"/>
</g>
<!-- Node32 -->
<g id="node26" class="node">
<title>Node32</title>
<g id="a_node26"><a xlink:href="packet__io_8h.html" target="_top" xlink:title=" ">
<polygon fill="white" stroke="black" points="788.5,-168.5 788.5,-187.5 860.5,-187.5 860.5,-168.5 788.5,-168.5"/>
<text text-anchor="middle" x="824.5" y="-175.5" font-family="Helvetica,sans-Serif" font-size="10.00">packet_io.h</text>
</a>
</g>
</g>
<!-- Node5&#45;&gt;Node32 -->
<g id="edge34" class="edge">
<title>Node5&#45;&gt;Node32</title>
<path fill="none" stroke="midnightblue" d="M1301.6,-344.11C1175.6,-341.33 836.58,-331 797.5,-300 770.31,-278.43 766.22,-256.07 779.5,-224 785.93,-208.48 800.59,-195.53 811.44,-187.56"/>
<polygon fill="midnightblue" stroke="midnightblue" points="1301.64,-347.62 1311.71,-344.33 1301.79,-340.62 1301.64,-347.62"/>
</g>
<!-- Node33 -->
<g id="node27" class="node">
<title>Node33</title>
<g id="a_node27"><a xlink:href="spec_2classification_8h.html" target="_top" xlink:title=" ">
<polygon fill="white" stroke="black" points="713,-112.5 713,-131.5 802,-131.5 802,-112.5 713,-112.5"/>
<text text-anchor="middle" x="757.5" y="-119.5" font-family="Helvetica,sans-Serif" font-size="10.00">classification.h</text>
</a>
</g>
</g>
<!-- Node5&#45;&gt;Node33 -->
<g id="edge40" class="edge">
<title>Node5&#45;&gt;Node33</title>
<path fill="none" stroke="midnightblue" d="M1301.59,-344.68C1171.44,-343.34 812.9,-336.36 775.5,-300 727.88,-253.71 747.55,-160.33 755.07,-131.6"/>
<polygon fill="midnightblue" stroke="midnightblue" points="1301.62,-348.18 1311.65,-344.78 1301.69,-341.18 1301.62,-348.18"/>
</g>
<!-- Node34 -->
<g id="node28" class="node">
<title>Node34</title>
<g id="a_node28"><a xlink:href="spec_2traffic__mngr_8h.html" target="_top" xlink:title=" ">
<polygon fill="white" stroke="red" points="858.5,-112.5 858.5,-131.5 942.5,-131.5 942.5,-112.5 858.5,-112.5"/>
<text text-anchor="middle" x="900.5" y="-119.5" font-family="Helvetica,sans-Serif" font-size="10.00">traffic_mngr.h</text>
</a>
</g>
</g>
<!-- Node5&#45;&gt;Node34 -->
<g id="edge58" class="edge">
<title>Node5&#45;&gt;Node34</title>
<path fill="none" stroke="midnightblue" d="M1301.58,-342.68C1201.47,-337.32 973.89,-322.75 947.5,-300 895.73,-255.36 897.77,-160.86 899.75,-131.73"/>
<polygon fill="midnightblue" stroke="midnightblue" points="1301.54,-346.18 1311.71,-343.22 1301.91,-339.19 1301.54,-346.18"/>
</g>
<!-- Node40 -->
<g id="node29" class="node">
<title>Node40</title>
<g id="a_node29"><a xlink:href="proto__stats_8h.html" target="_top" xlink:title=" ">
<polygon fill="white" stroke="black" points="1144.5,-280.5 1144.5,-299.5 1224.5,-299.5 1224.5,-280.5 1144.5,-280.5"/>
<text text-anchor="middle" x="1184.5" y="-287.5" font-family="Helvetica,sans-Serif" font-size="10.00">proto_stats.h</text>
</a>
</g>
</g>
<!-- Node5&#45;&gt;Node40 -->
<g id="edge35" class="edge">
<title>Node5&#45;&gt;Node40</title>
<path fill="none" stroke="midnightblue" d="M1312.98,-333.3C1282.08,-323.13 1238.03,-308.62 1210.36,-299.52"/>
<polygon fill="midnightblue" stroke="midnightblue" points="1311.92,-336.64 1322.51,-336.44 1314.11,-329.99 1311.92,-336.64"/>
</g>
<!-- Node28 -->
<g id="node30" class="node">
<title>Node28</title>
<g id="a_node30"><a xlink:href="queue_8h.html" target="_top" xlink:title=" ">
<polygon fill="white" stroke="black" points="1242.5,-280.5 1242.5,-299.5 1298.5,-299.5 1298.5,-280.5 1242.5,-280.5"/>
<text text-anchor="middle" x="1270.5" y="-287.5" font-family="Helvetica,sans-Serif" font-size="10.00">queue.h</text>
</a>
</g>
</g>
<!-- Node5&#45;&gt;Node28 -->
<g id="edge36" class="edge">
<title>Node5&#45;&gt;Node28</title>
<path fill="none" stroke="midnightblue" d="M1327.73,-330.62C1313.48,-320.76 1295.04,-307.99 1283,-299.65"/>
<polygon fill="midnightblue" stroke="midnightblue" points="1325.75,-333.51 1335.97,-336.32 1329.74,-327.75 1325.75,-333.51"/>
</g>
<!-- Node41 -->
<g id="node32" class="node">
<title>Node41</title>
<g id="a_node32"><a xlink:href="spec_2chksum_8h.html" target="_top" xlink:title=" ">
<polygon fill="white" stroke="black" points="1316.5,-280.5 1316.5,-299.5 1380.5,-299.5 1380.5,-280.5 1316.5,-280.5"/>
<text text-anchor="middle" x="1348.5" y="-287.5" font-family="Helvetica,sans-Serif" font-size="10.00">chksum.h</text>
</a>
</g>
</g>
<!-- Node5&#45;&gt;Node41 -->
<g id="edge38" class="edge">
<title>Node5&#45;&gt;Node41</title>
<path fill="none" stroke="midnightblue" d="M1348.5,-325.8C1348.5,-316.91 1348.5,-306.78 1348.5,-299.75"/>
<polygon fill="midnightblue" stroke="midnightblue" points="1345,-326.08 1348.5,-336.08 1352,-326.08 1345,-326.08"/>
</g>
<!-- Node43 -->
<g id="node34" class="node">
<title>Node43</title>
<g id="a_node34"><a xlink:href="spec_2cpu_8h.html" target="_top" xlink:title=" ">
<polygon fill="white" stroke="red" points="1399,-280.5 1399,-299.5 1442,-299.5 1442,-280.5 1399,-280.5"/>
<text text-anchor="middle" x="1420.5" y="-287.5" font-family="Helvetica,sans-Serif" font-size="10.00">cpu.h</text>
</a>
</g>
</g>
<!-- Node5&#45;&gt;Node43 -->
<g id="edge42" class="edge">
<title>Node5&#45;&gt;Node43</title>
<path fill="none" stroke="midnightblue" d="M1368.37,-330.1C1381.32,-320.38 1397.8,-308.03 1408.72,-299.83"/>
<polygon fill="midnightblue" stroke="midnightblue" points="1365.97,-327.52 1360.07,-336.32 1370.17,-333.12 1365.97,-327.52"/>
</g>
<!-- Node46 -->
<g id="node35" class="node">
<title>Node46</title>
<g id="a_node35"><a xlink:href="spec_2hash_8h.html" target="_top" xlink:title=" ">
<polygon fill="white" stroke="red" points="1460,-280.5 1460,-299.5 1509,-299.5 1509,-280.5 1460,-280.5"/>
<text text-anchor="middle" x="1484.5" y="-287.5" font-family="Helvetica,sans-Serif" font-size="10.00">hash.h</text>
</a>
</g>
</g>
<!-- Node5&#45;&gt;Node46 -->
<g id="edge44" class="edge">
<title>Node5&#45;&gt;Node46</title>
<path fill="none" stroke="midnightblue" d="M1379.63,-332.64C1405.16,-322.5 1440.61,-308.43 1463.05,-299.52"/>
<polygon fill="midnightblue" stroke="midnightblue" points="1378.05,-329.5 1370.05,-336.44 1380.64,-336.01 1378.05,-329.5"/>
</g>
<!-- Node48 -->
<g id="node36" class="node">
<title>Node48</title>
<g id="a_node36"><a xlink:href="spec_2init_8h.html" target="_top" xlink:title=" ">
<polygon fill="white" stroke="red" points="1527,-280.5 1527,-299.5 1568,-299.5 1568,-280.5 1527,-280.5"/>
<text text-anchor="middle" x="1547.5" y="-287.5" font-family="Helvetica,sans-Serif" font-size="10.00">init.h</text>
</a>
</g>
</g>
<!-- Node5&#45;&gt;Node48 -->
<g id="edge45" class="edge">
<title>Node5&#45;&gt;Node48</title>
<path fill="none" stroke="midnightblue" d="M1392.05,-333.8C1426.24,-324.92 1475.01,-312.03 1517.5,-300 1520.53,-299.14 1523.73,-298.21 1526.87,-297.28"/>
<polygon fill="midnightblue" stroke="midnightblue" points="1390.73,-330.53 1381.93,-336.43 1392.49,-337.3 1390.73,-330.53"/>
</g>
<!-- Node53 -->
<g id="node37" class="node">
<title>Node53</title>
<g id="a_node37"><a xlink:href="spec_2pool_8h.html" target="_top" xlink:title=" ">
<polygon fill="white" stroke="red" points="1607,-224.5 1607,-243.5 1654,-243.5 1654,-224.5 1607,-224.5"/>
<text text-anchor="middle" x="1630.5" y="-231.5" font-family="Helvetica,sans-Serif" font-size="10.00">pool.h</text>
</a>
</g>
</g>
<!-- Node5&#45;&gt;Node53 -->
<g id="edge48" class="edge">
<title>Node5&#45;&gt;Node53</title>
<path fill="none" stroke="midnightblue" d="M1395.59,-344.92C1444.36,-342.83 1521.18,-333.79 1577.5,-300 1600.72,-286.07 1618.18,-258.07 1625.99,-243.8"/>
<polygon fill="midnightblue" stroke="midnightblue" points="1395.2,-341.43 1385.33,-345.27 1395.44,-348.42 1395.2,-341.43"/>
</g>
<!-- Node56 -->
<g id="node38" class="node">
<title>Node56</title>
<g id="a_node38"><a xlink:href="pool__types_8h.html" target="_top" xlink:title=" ">
<polygon fill="white" stroke="black" points="1625,-280.5 1625,-299.5 1704,-299.5 1704,-280.5 1625,-280.5"/>
<text text-anchor="middle" x="1664.5" y="-287.5" font-family="Helvetica,sans-Serif" font-size="10.00">pool_types.h</text>
</a>
</g>
</g>
<!-- Node5&#45;&gt;Node56 -->
<g id="edge49" class="edge">
<title>Node5&#45;&gt;Node56</title>
<path fill="none" stroke="midnightblue" d="M1394.99,-337.06C1457.15,-326.43 1566.3,-307.78 1624.81,-297.78"/>
<polygon fill="midnightblue" stroke="midnightblue" points="1394.33,-333.62 1385.06,-338.75 1395.5,-340.52 1394.33,-333.62"/>
</g>
<!-- Node57 -->
<g id="node39" class="node">
<title>Node57</title>
<g id="a_node39"><a xlink:href="spec_2proto__stats__types_8h.html" target="_top" xlink:title=" ">
<polygon fill="white" stroke="red" points="1722,-280.5 1722,-299.5 1835,-299.5 1835,-280.5 1722,-280.5"/>
<text text-anchor="middle" x="1778.5" y="-287.5" font-family="Helvetica,sans-Serif" font-size="10.00">proto_stats_types.h</text>
</a>
</g>
</g>
<!-- Node5&#45;&gt;Node57 -->
<g id="edge51" class="edge">
<title>Node5&#45;&gt;Node57</title>
<path fill="none" stroke="midnightblue" d="M1395.22,-339.47C1464.67,-331.19 1599.24,-314.95 1713.5,-300 1716.21,-299.65 1718.99,-299.28 1721.79,-298.9"/>
<polygon fill="midnightblue" stroke="midnightblue" points="1394.56,-336.02 1385.05,-340.68 1395.39,-342.97 1394.56,-336.02"/>
</g>
<!-- Node36 -->
<g id="node40" class="node">
<title>Node36</title>
<g id="a_node40"><a xlink:href="spec_2schedule_8h.html" target="_top" xlink:title=" ">
<polygon fill="white" stroke="red" points="1853,-280.5 1853,-299.5 1922,-299.5 1922,-280.5 1853,-280.5"/>
<text text-anchor="middle" x="1887.5" y="-287.5" font-family="Helvetica,sans-Serif" font-size="10.00">schedule.h</text>
</a>
</g>
</g>
<!-- Node5&#45;&gt;Node36 -->
<g id="edge52" class="edge">
<title>Node5&#45;&gt;Node36</title>
<path fill="none" stroke="midnightblue" d="M1395.29,-342.57C1483.51,-337.58 1680.36,-324.54 1844.5,-300 1847.22,-299.59 1850.02,-299.12 1852.83,-298.62"/>
<polygon fill="midnightblue" stroke="midnightblue" points="1394.87,-339.08 1385.08,-343.14 1395.26,-346.07 1394.87,-339.08"/>
</g>
<!-- Node63 -->
<g id="node41" class="node">
<title>Node63</title>
<g id="a_node41"><a xlink:href="spec_2schedule__types_8h.html" target="_top" xlink:title=" ">
<polygon fill="white" stroke="red" points="1940,-280.5 1940,-299.5 2041,-299.5 2041,-280.5 1940,-280.5"/>
<text text-anchor="middle" x="1990.5" y="-287.5" font-family="Helvetica,sans-Serif" font-size="10.00">schedule_types.h</text>
</a>
</g>
</g>
<!-- Node5&#45;&gt;Node63 -->
<g id="edge53" class="edge">
<title>Node5&#45;&gt;Node63</title>
<path fill="none" stroke="midnightblue" d="M1395.36,-342.57C1494.51,-337.16 1732.75,-322.8 1931.5,-300 1934.18,-299.69 1936.92,-299.36 1939.68,-299"/>
<polygon fill="midnightblue" stroke="midnightblue" points="1394.88,-339.09 1385.09,-343.12 1395.26,-346.08 1394.88,-339.09"/>
</g>
<!-- Node69 -->
<g id="node42" class="node">
<title>Node69</title>
<g id="a_node42"><a xlink:href="spec_2stash_8h.html" target="_top" xlink:title=" ">
<polygon fill="white" stroke="red" points="2059.5,-280.5 2059.5,-299.5 2111.5,-299.5 2111.5,-280.5 2059.5,-280.5"/>
<text text-anchor="middle" x="2085.5" y="-287.5" font-family="Helvetica,sans-Serif" font-size="10.00">stash.h</text>
</a>
</g>
</g>
<!-- Node5&#45;&gt;Node69 -->
<g id="edge54" class="edge">
<title>Node5&#45;&gt;Node69</title>
<path fill="none" stroke="midnightblue" d="M1395.37,-345.02C1508.67,-344.41 1806.06,-338.91 2050.5,-300 2053.35,-299.55 2056.31,-298.97 2059.24,-298.32"/>
<polygon fill="midnightblue" stroke="midnightblue" points="1395.29,-341.52 1385.31,-345.06 1395.32,-348.52 1395.29,-341.52"/>
</g>
<!-- Node71 -->
<g id="node43" class="node">
<title>Node71</title>
<g id="a_node43"><a xlink:href="spec_2std_8h.html" target="_top" xlink:title=" ">
<polygon fill="white" stroke="red" points="2130,-280.5 2130,-299.5 2171,-299.5 2171,-280.5 2130,-280.5"/>
<text text-anchor="middle" x="2150.5" y="-287.5" font-family="Helvetica,sans-Serif" font-size="10.00">std.h</text>
</a>
</g>
</g>
<!-- Node5&#45;&gt;Node71 -->
<g id="edge55" class="edge">
<title>Node5&#45;&gt;Node71</title>
<path fill="none" stroke="midnightblue" d="M1395.76,-343.69C1541.1,-339.43 1980.07,-324.81 2120.5,-300 2123.61,-299.45 2126.84,-298.69 2130,-297.84"/>
<polygon fill="midnightblue" stroke="midnightblue" points="1395.31,-340.2 1385.41,-343.99 1395.51,-347.2 1395.31,-340.2"/>
</g>
<!-- Node73 -->
<g id="node44" class="node">
<title>Node73</title>
<g id="a_node44"><a xlink:href="spec_2threshold_8h.html" target="_top" xlink:title=" ">
<polygon fill="white" stroke="red" points="2189,-280.5 2189,-299.5 2260,-299.5 2260,-280.5 2189,-280.5"/>
<text text-anchor="middle" x="2224.5" y="-287.5" font-family="Helvetica,sans-Serif" font-size="10.00">threshold.h</text>
</a>
</g>
</g>
<!-- Node5&#45;&gt;Node73 -->
<g id="edge56" class="edge">
<title>Node5&#45;&gt;Node73</title>
<path fill="none" stroke="midnightblue" d="M1395.31,-344.89C1522.21,-344.05 1883.26,-338.23 2180.5,-300 2183.13,-299.66 2185.84,-299.25 2188.55,-298.8"/>
<polygon fill="midnightblue" stroke="midnightblue" points="1395.15,-341.39 1385.17,-344.94 1395.19,-348.39 1395.15,-341.39"/>
</g>
<!-- Node75 -->
<g id="node45" class="node">
<title>Node75</title>
<g id="a_node45"><a xlink:href="spec_2thrmask_8h.html" target="_top" xlink:title=" ">
<polygon fill="white" stroke="red" points="2278.5,-280.5 2278.5,-299.5 2344.5,-299.5 2344.5,-280.5 2278.5,-280.5"/>
<text text-anchor="middle" x="2311.5" y="-287.5" font-family="Helvetica,sans-Serif" font-size="10.00">thrmask.h</text>
</a>
</g>
</g>
<!-- Node5&#45;&gt;Node75 -->
<g id="edge57" class="edge">
<title>Node5&#45;&gt;Node75</title>
<path fill="none" stroke="midnightblue" d="M1395.15,-345.38C1530.78,-345.93 1936.49,-343.52 2269.5,-300 2272.31,-299.63 2275.21,-299.18 2278.11,-298.67"/>
<polygon fill="midnightblue" stroke="midnightblue" points="1395.12,-341.88 1385.11,-345.34 1395.09,-348.88 1395.12,-341.88"/>
</g>
<!-- Node77 -->
<g id="node46" class="node">
<title>Node77</title>
<g id="a_node46"><a xlink:href="system__info_8h.html" target="_top" xlink:title=" ">
<polygon fill="white" stroke="black" points="2362.5,-280.5 2362.5,-299.5 2448.5,-299.5 2448.5,-280.5 2362.5,-280.5"/>
<text text-anchor="middle" x="2405.5" y="-287.5" font-family="Helvetica,sans-Serif" font-size="10.00">system_info.h</text>
</a>
</g>
</g>
<!-- Node5&#45;&gt;Node77 -->
<g id="edge59" class="edge">
<title>Node5&#45;&gt;Node77</title>
<path fill="none" stroke="midnightblue" d="M1395.34,-345.01C1539,-344.57 1985.91,-339.88 2353.5,-300 2356.41,-299.68 2359.41,-299.31 2362.43,-298.89"/>
<polygon fill="midnightblue" stroke="midnightblue" points="1395.12,-341.51 1385.13,-345.03 1395.14,-348.51 1395.12,-341.51"/>
</g>
<!-- Node78 -->
<g id="node47" class="node">
<title>Node78</title>
<g id="a_node47"><a xlink:href="time_8h.html" target="_top" xlink:title=" ">
<polygon fill="white" stroke="red" points="806.5,-280.5 806.5,-299.5 854.5,-299.5 854.5,-280.5 806.5,-280.5"/>
<text text-anchor="middle" x="830.5" y="-287.5" font-family="Helvetica,sans-Serif" font-size="10.00">time.h</text>
</a>
</g>
</g>
<!-- Node5&#45;&gt;Node78 -->
<g id="edge60" class="edge">
<title>Node5&#45;&gt;Node78</title>
<path fill="none" stroke="midnightblue" d="M1301.62,-342.22C1216.31,-336.79 1030.09,-323.23 874.5,-300 868.02,-299.03 861.06,-297.73 854.62,-296.42"/>
<polygon fill="midnightblue" stroke="midnightblue" points="1301.56,-345.72 1311.76,-342.86 1302,-338.74 1301.56,-345.72"/>
</g>
<!-- Node79 -->
<g id="node48" class="node">
<title>Node79</title>
<g id="a_node48"><a xlink:href="timer_8h.html" target="_top" xlink:title=" ">
<polygon fill="white" stroke="black" points="2467,-280.5 2467,-299.5 2518,-299.5 2518,-280.5 2467,-280.5"/>
<text text-anchor="middle" x="2492.5" y="-287.5" font-family="Helvetica,sans-Serif" font-size="10.00">timer.h</text>
</a>
</g>
</g>
<!-- Node5&#45;&gt;Node79 -->
<g id="edge62" class="edge">
<title>Node5&#45;&gt;Node79</title>
<path fill="none" stroke="midnightblue" d="M1395.12,-344.42C1578.13,-341.94 2247.58,-330.89 2457.5,-300 2460.48,-299.56 2463.57,-298.97 2466.63,-298.3"/>
<polygon fill="midnightblue" stroke="midnightblue" points="1394.97,-340.92 1385.02,-344.55 1395.07,-347.92 1394.97,-340.92"/>
</g>
<!-- Node80 -->
<g id="node49" class="node">
<title>Node80</title>
<g id="a_node49"><a xlink:href="strong__types_8h.html" target="_top" xlink:title=" ">
<polygon fill="white" stroke="black" points="2536,-280.5 2536,-299.5 2625,-299.5 2625,-280.5 2536,-280.5"/>
<text text-anchor="middle" x="2580.5" y="-287.5" font-family="Helvetica,sans-Serif" font-size="10.00">strong_types.h</text>
</a>
</g>
</g>
<!-- Node5&#45;&gt;Node80 -->
<g id="edge63" class="edge">
<title>Node5&#45;&gt;Node80</title>
<path fill="none" stroke="midnightblue" d="M1395.7,-345.4C1555.3,-346.27 2089.32,-345.37 2527.5,-300 2530.19,-299.72 2532.95,-299.39 2535.74,-299.02"/>
<polygon fill="midnightblue" stroke="midnightblue" points="1395.32,-341.89 1385.3,-345.33 1395.27,-348.89 1395.32,-341.89"/>
</g>
<!-- Node17&#45;&gt;Node18 -->
<g id="edge19" class="edge">
<title>Node17&#45;&gt;Node18</title>
<path fill="none" stroke="midnightblue" d="M769.12,-47.57C775.32,-38.27 782.67,-27.25 787.67,-19.75"/>
<polygon fill="midnightblue" stroke="midnightblue" points="766.08,-45.82 763.44,-56.08 771.9,-49.7 766.08,-45.82"/>
</g>
<!-- Node20&#45;&gt;Node18 -->
<g id="edge21" class="edge">
<title>Node20&#45;&gt;Node18</title>
<path fill="none" stroke="midnightblue" d="M968.52,-157.81C966.28,-143.95 961.53,-125.38 951.5,-112 915.96,-64.59 851.1,-33.54 816.57,-19.55"/>
<polygon fill="midnightblue" stroke="midnightblue" points="965.1,-158.68 969.87,-168.14 972.04,-157.77 965.1,-158.68"/>
</g>
<!-- Node21&#45;&gt;Node22 -->
<g id="edge23" class="edge">
<title>Node21&#45;&gt;Node22</title>
<path fill="none" stroke="midnightblue" d="M1008.8,-271.86C1001.87,-262.5 993.59,-251.33 987.98,-243.75"/>
<polygon fill="midnightblue" stroke="midnightblue" points="1006.13,-274.13 1014.89,-280.08 1011.75,-269.96 1006.13,-274.13"/>
</g>
<!-- Node21&#45;&gt;Node24 -->
<g id="edge24" class="edge">
<title>Node21&#45;&gt;Node24</title>
<path fill="none" stroke="midnightblue" d="M1060.77,-278.81C1101.75,-268.17 1164.99,-251.75 1201.29,-242.32"/>
<polygon fill="midnightblue" stroke="midnightblue" points="1059.66,-275.48 1050.86,-281.38 1061.42,-282.25 1059.66,-275.48"/>
</g>
<!-- Node25 -->
<g id="node23" class="node">
<title>Node25</title>
<g id="a_node23"><a xlink:href="spec_2event_8h.html" target="_top" xlink:title=" ">
<polygon fill="white" stroke="red" points="1026,-224.5 1026,-243.5 1079,-243.5 1079,-224.5 1026,-224.5"/>
<text text-anchor="middle" x="1052.5" y="-231.5" font-family="Helvetica,sans-Serif" font-size="10.00">event.h</text>
</a>
</g>
</g>
<!-- Node21&#45;&gt;Node25 -->
<g id="edge26" class="edge">
<title>Node21&#45;&gt;Node25</title>
<path fill="none" stroke="midnightblue" d="M1031.68,-271.27C1036.97,-262.05 1043.22,-251.17 1047.48,-243.75"/>
<polygon fill="midnightblue" stroke="midnightblue" points="1028.56,-269.67 1026.62,-280.08 1034.63,-273.15 1028.56,-269.67"/>
</g>
<!-- Node21&#45;&gt;Node38 -->
<g id="edge27" class="edge">
<title>Node21&#45;&gt;Node38</title>
<path fill="none" stroke="midnightblue" d="M1049.64,-276.23C1071.9,-266.13 1102.36,-252.31 1121.73,-243.52"/>
<polygon fill="midnightblue" stroke="midnightblue" points="1048.02,-273.12 1040.36,-280.44 1050.91,-279.5 1048.02,-273.12"/>
</g>
<!-- Node31 -->
<g id="node25" class="node">
<title>Node31</title>
<g id="a_node25"><a xlink:href="spec_2packet__io_8h.html" target="_top" xlink:title=" ">
<polygon fill="white" stroke="black" points="788.5,-224.5 788.5,-243.5 860.5,-243.5 860.5,-224.5 788.5,-224.5"/>
<text text-anchor="middle" x="824.5" y="-231.5" font-family="Helvetica,sans-Serif" font-size="10.00">packet_io.h</text>
</a>
</g>
</g>
<!-- Node21&#45;&gt;Node31 -->
<g id="edge28" class="edge">
<title>Node21&#45;&gt;Node31</title>
<path fill="none" stroke="midnightblue" d="M982.45,-278.3C945.25,-268.1 889.97,-252.95 855.64,-243.54"/>
<polygon fill="midnightblue" stroke="midnightblue" points="981.86,-281.76 992.43,-281.03 983.71,-275.01 981.86,-281.76"/>
</g>
<!-- Node24&#45;&gt;Node20 -->
<g id="edge25" class="edge">
<title>Node24&#45;&gt;Node20</title>
<path fill="none" stroke="midnightblue" d="M1191.14,-223.76C1116.03,-207.15 1039,-192.08 998.61,-184.34"/>
<polygon fill="midnightblue" stroke="midnightblue" points="1190.72,-227.25 1201.24,-226.01 1192.24,-220.42 1190.72,-227.25"/>
</g>
<!-- Node31&#45;&gt;Node32 -->
<g id="edge29" class="edge">
<title>Node31&#45;&gt;Node32</title>
<path fill="none" stroke="midnightblue" d="M824.5,-213.8C824.5,-204.91 824.5,-194.78 824.5,-187.75"/>
<polygon fill="midnightblue" stroke="midnightblue" points="821,-214.08 824.5,-224.08 828,-214.08 821,-214.08"/>
</g>
<!-- Node32&#45;&gt;Node18 -->
<g id="edge32" class="edge">
<title>Node32&#45;&gt;Node18</title>
<path fill="none" stroke="midnightblue" d="M823.76,-158.19C822.48,-134.18 819.12,-91.5 810.5,-56 807.35,-43.02 801.49,-28.68 797.55,-19.76"/>
<polygon fill="midnightblue" stroke="midnightblue" points="820.27,-158.54 824.23,-168.36 827.26,-158.21 820.27,-158.54"/>
</g>
<!-- Node32&#45;&gt;Node33 -->
<g id="edge30" class="edge">
<title>Node32&#45;&gt;Node33</title>
<path fill="none" stroke="midnightblue" d="M805.67,-161.82C793.66,-152.15 778.53,-139.95 768.46,-131.83"/>
<polygon fill="midnightblue" stroke="midnightblue" points="803.75,-164.77 813.74,-168.32 808.15,-159.32 803.75,-164.77"/>
</g>
<!-- Node32&#45;&gt;Node34 -->
<g id="edge33" class="edge">
<title>Node32&#45;&gt;Node34</title>
<path fill="none" stroke="midnightblue" d="M845.08,-162.38C858.81,-152.62 876.43,-140.11 888.07,-131.83"/>
<polygon fill="midnightblue" stroke="midnightblue" points="842.84,-159.68 836.71,-168.32 846.89,-165.38 842.84,-159.68"/>
</g>
<!-- Node33&#45;&gt;Node17 -->
<g id="edge31" class="edge">
<title>Node33&#45;&gt;Node17</title>
<path fill="none" stroke="midnightblue" d="M757.5,-101.8C757.5,-92.91 757.5,-82.78 757.5,-75.75"/>
<polygon fill="midnightblue" stroke="midnightblue" points="754,-102.08 757.5,-112.08 761,-102.08 754,-102.08"/>
</g>
<!-- Node29 -->
<g id="node31" class="node">
<title>Node29</title>
<g id="a_node31"><a xlink:href="spec_2packet__io__stats_8h.html" target="_top" xlink:title=" ">
<polygon fill="white" stroke="red" points="1276,-224.5 1276,-243.5 1377,-243.5 1377,-224.5 1276,-224.5"/>
<text text-anchor="middle" x="1326.5" y="-231.5" font-family="Helvetica,sans-Serif" font-size="10.00">packet_io_stats.h</text>
</a>
</g>
</g>
<!-- Node28&#45;&gt;Node29 -->
<g id="edge37" class="edge">
<title>Node28&#45;&gt;Node29</title>
<path fill="none" stroke="midnightblue" d="M1286.83,-273.25C1296.76,-263.67 1309.09,-251.79 1317.34,-243.83"/>
<polygon fill="midnightblue" stroke="midnightblue" points="1284.27,-270.86 1279.5,-280.32 1289.13,-275.9 1284.27,-270.86"/>
</g>
<!-- Node42 -->
<g id="node33" class="node">
<title>Node42</title>
<g id="a_node33"><a xlink:href="chksum_8h.html" target="_top" xlink:title=" ">
<polygon fill="white" stroke="black" points="1395.5,-224.5 1395.5,-243.5 1459.5,-243.5 1459.5,-224.5 1395.5,-224.5"/>
<text text-anchor="middle" x="1427.5" y="-231.5" font-family="Helvetica,sans-Serif" font-size="10.00">chksum.h</text>
</a>
</g>
</g>
<!-- Node41&#45;&gt;Node42 -->
<g id="edge39" class="edge">
<title>Node41&#45;&gt;Node42</title>
<path fill="none" stroke="midnightblue" d="M1369.53,-274.62C1383.97,-264.76 1402.64,-251.99 1414.84,-243.65"/>
<polygon fill="midnightblue" stroke="midnightblue" points="1367.47,-271.79 1361.19,-280.32 1371.42,-277.57 1367.47,-271.79"/>
</g>
<!-- Node56&#45;&gt;Node53 -->
<g id="edge50" class="edge">
<title>Node56&#45;&gt;Node53</title>
<path fill="none" stroke="midnightblue" d="M1653.52,-271.57C1647.67,-262.27 1640.73,-251.25 1636.01,-243.75"/>
<polygon fill="midnightblue" stroke="midnightblue" points="1650.6,-273.49 1658.89,-280.08 1656.52,-269.76 1650.6,-273.49"/>
</g>
<!-- Node78&#45;&gt;Node31 -->
<g id="edge61" class="edge">
<title>Node78&#45;&gt;Node31</title>
<path fill="none" stroke="midnightblue" d="M828.4,-270.1C827.4,-261.14 826.26,-250.86 825.47,-243.75"/>
<polygon fill="midnightblue" stroke="midnightblue" points="824.93,-270.53 829.51,-280.08 831.88,-269.76 824.93,-270.53"/>
</g>
</g>
</svg>
