<?xml version="1.0" encoding="UTF-8" standalone="no"?>
<!DOCTYPE svg PUBLIC "-//W3C//DTD SVG 1.1//EN"
 "http://www.w3.org/Graphics/SVG/1.1/DTD/svg11.dtd">
<!-- Generated by graphviz version 2.43.0 (0)
 -->
<!-- Title: buffer.h Pages: 1 -->
<svg width="760pt" height="308pt"
 viewBox="0.00 0.00 760.00 308.00" xmlns="http://www.w3.org/2000/svg" xmlns:xlink="http://www.w3.org/1999/xlink">
<g id="graph0" class="graph" transform="scale(1 1) rotate(0) translate(4 304)">
<title>buffer.h</title>
<polygon fill="white" stroke="transparent" points="-4,4 -4,-304 756,-304 756,4 -4,4"/>
<!-- Node1 -->
<g id="node1" class="node">
<title>Node1</title>
<g id="a_node1"><a xlink:title=" ">
<polygon fill="#bfbfbf" stroke="black" points="420.5,-280.5 420.5,-299.5 473.5,-299.5 473.5,-280.5 420.5,-280.5"/>
<text text-anchor="middle" x="447" y="-287.5" font-family="Helvetica,sans-Serif" font-size="10.00">buffer.h</text>
</a>
</g>
</g>
<!-- Node2 -->
<g id="node2" class="node">
<title>Node2</title>
<g id="a_node2"><a xlink:href="std__types_8h.html" target="_top" xlink:title=" ">
<polygon fill="white" stroke="black" points="161,-224.5 161,-243.5 273,-243.5 273,-224.5 161,-224.5"/>
<text text-anchor="middle" x="217" y="-231.5" font-family="Helvetica,sans-Serif" font-size="10.00">odp/api/std_types.h</text>
</a>
</g>
</g>
<!-- Node1&#45;&gt;Node2 -->
<g id="edge1" class="edge">
<title>Node1&#45;&gt;Node2</title>
<path fill="none" stroke="midnightblue" d="M420.17,-282.7C381.75,-273.68 310.52,-256.96 263.44,-245.9"/>
<polygon fill="midnightblue" stroke="midnightblue" points="264.02,-242.45 253.49,-243.57 262.42,-249.26 264.02,-242.45"/>
</g>
<!-- Node11 -->
<g id="node11" class="node">
<title>Node11</title>
<g id="a_node11"><a xlink:title=" ">
<polygon fill="white" stroke="#bfbfbf" points="392,-224.5 392,-243.5 502,-243.5 502,-224.5 392,-224.5"/>
<text text-anchor="middle" x="447" y="-231.5" font-family="Helvetica,sans-Serif" font-size="10.00">odp/api/abi/event.h</text>
</a>
</g>
</g>
<!-- Node1&#45;&gt;Node11 -->
<g id="edge12" class="edge">
<title>Node1&#45;&gt;Node11</title>
<path fill="none" stroke="midnightblue" d="M447,-280.08C447,-273.01 447,-262.86 447,-253.99"/>
<polygon fill="midnightblue" stroke="midnightblue" points="450.5,-253.75 447,-243.75 443.5,-253.75 450.5,-253.75"/>
</g>
<!-- Node12 -->
<g id="node12" class="node">
<title>Node12</title>
<g id="a_node12"><a xlink:title=" ">
<polygon fill="white" stroke="#bfbfbf" points="520,-224.5 520,-243.5 630,-243.5 630,-224.5 520,-224.5"/>
<text text-anchor="middle" x="575" y="-231.5" font-family="Helvetica,sans-Serif" font-size="10.00">odp/api/abi/buffer.h</text>
</a>
</g>
</g>
<!-- Node1&#45;&gt;Node12 -->
<g id="edge13" class="edge">
<title>Node1&#45;&gt;Node12</title>
<path fill="none" stroke="midnightblue" d="M467.28,-280.44C488.35,-271.56 521.52,-257.56 545.49,-247.45"/>
<polygon fill="midnightblue" stroke="midnightblue" points="546.96,-250.63 554.81,-243.52 544.24,-244.18 546.96,-250.63"/>
</g>
<!-- Node13 -->
<g id="node13" class="node">
<title>Node13</title>
<g id="a_node13"><a xlink:title=" ">
<polygon fill="white" stroke="#bfbfbf" points="648,-224.5 648,-243.5 752,-243.5 752,-224.5 648,-224.5"/>
<text text-anchor="middle" x="700" y="-231.5" font-family="Helvetica,sans-Serif" font-size="10.00">odp/api/abi/pool.h</text>
</a>
</g>
</g>
<!-- Node1&#45;&gt;Node13 -->
<g id="edge14" class="edge">
<title>Node1&#45;&gt;Node13</title>
<path fill="none" stroke="midnightblue" d="M473.6,-283.32C515.43,-274.39 597.29,-256.92 650.26,-245.62"/>
<polygon fill="midnightblue" stroke="midnightblue" points="651.08,-249.02 660.13,-243.51 649.62,-242.17 651.08,-249.02"/>
</g>
<!-- Node14 -->
<g id="node14" class="node">
<title>Node14</title>
<g id="a_node14"><a xlink:href="spec_2buffer_8h.html" target="_top" xlink:title=" ">
<polygon fill="white" stroke="black" points="330,-56.5 330,-75.5 448,-75.5 448,-56.5 330,-56.5"/>
<text text-anchor="middle" x="389" y="-63.5" font-family="Helvetica,sans-Serif" font-size="10.00">odp/api/spec/buffer.h</text>
</a>
</g>
</g>
<!-- Node1&#45;&gt;Node14 -->
<g id="edge15" class="edge">
<title>Node1&#45;&gt;Node14</title>
<path fill="none" stroke="midnightblue" d="M425.52,-280.36C410.61,-273.09 391.89,-261.12 383,-244 356.01,-192.03 372.5,-119.41 382.72,-85.64"/>
<polygon fill="midnightblue" stroke="midnightblue" points="386.16,-86.35 385.87,-75.76 379.49,-84.23 386.16,-86.35"/>
</g>
<!-- Node3 -->
<g id="node3" class="node">
<title>Node3</title>
<g id="a_node3"><a xlink:title=" ">
<polygon fill="white" stroke="#bfbfbf" points="0,-168.5 0,-187.5 130,-187.5 130,-168.5 0,-168.5"/>
<text text-anchor="middle" x="65" y="-175.5" font-family="Helvetica,sans-Serif" font-size="10.00">odp/api/abi/std_types.h</text>
</a>
</g>
</g>
<!-- Node2&#45;&gt;Node3 -->
<g id="edge2" class="edge">
<title>Node2&#45;&gt;Node3</title>
<path fill="none" stroke="midnightblue" d="M192.92,-224.44C167.46,-215.4 127.11,-201.06 98.54,-190.92"/>
<polygon fill="midnightblue" stroke="midnightblue" points="99.57,-187.57 88.97,-187.52 97.22,-194.16 99.57,-187.57"/>
</g>
<!-- Node4 -->
<g id="node4" class="node">
<title>Node4</title>
<g id="a_node4"><a xlink:href="spec_2std__types_8h.html" target="_top" xlink:title=" ">
<polygon fill="white" stroke="black" points="148.5,-168.5 148.5,-187.5 285.5,-187.5 285.5,-168.5 148.5,-168.5"/>
<text text-anchor="middle" x="217" y="-175.5" font-family="Helvetica,sans-Serif" font-size="10.00">odp/api/spec/std_types.h</text>
</a>
</g>
</g>
<!-- Node2&#45;&gt;Node4 -->
<g id="edge3" class="edge">
<title>Node2&#45;&gt;Node4</title>
<path fill="none" stroke="midnightblue" d="M217,-224.08C217,-217.01 217,-206.86 217,-197.99"/>
<polygon fill="midnightblue" stroke="midnightblue" points="220.5,-197.75 217,-187.75 213.5,-197.75 220.5,-197.75"/>
</g>
<!-- Node5 -->
<g id="node5" class="node">
<title>Node5</title>
<g id="a_node5"><a xlink:title=" ">
<polygon fill="white" stroke="#bfbfbf" points="131.5,-0.5 131.5,-19.5 252.5,-19.5 252.5,-0.5 131.5,-0.5"/>
<text text-anchor="middle" x="192" y="-7.5" font-family="Helvetica,sans-Serif" font-size="10.00">odp/visibility_begin.h</text>
</a>
</g>
</g>
<!-- Node4&#45;&gt;Node5 -->
<g id="edge4" class="edge">
<title>Node4&#45;&gt;Node5</title>
<path fill="none" stroke="midnightblue" d="M168.36,-168.4C120.43,-156.88 50.76,-131.1 25,-76 5.03,-33.28 67.25,-18.36 121.33,-13.3"/>
<polygon fill="midnightblue" stroke="midnightblue" points="121.64,-16.79 131.31,-12.46 121.05,-9.81 121.64,-16.79"/>
</g>
<!-- Node6 -->
<g id="node6" class="node">
<title>Node6</title>
<g id="a_node6"><a xlink:title=" ">
<polygon fill="white" stroke="#bfbfbf" points="101.5,-112.5 101.5,-131.5 154.5,-131.5 154.5,-112.5 101.5,-112.5"/>
<text text-anchor="middle" x="128" y="-119.5" font-family="Helvetica,sans-Serif" font-size="10.00">stdint.h</text>
</a>
</g>
</g>
<!-- Node4&#45;&gt;Node6 -->
<g id="edge5" class="edge">
<title>Node4&#45;&gt;Node6</title>
<path fill="none" stroke="midnightblue" d="M202.7,-168.32C188.82,-159.9 167.51,-146.97 151.2,-137.07"/>
<polygon fill="midnightblue" stroke="midnightblue" points="152.63,-133.85 142.26,-131.65 149,-139.83 152.63,-133.85"/>
</g>
<!-- Node7 -->
<g id="node7" class="node">
<title>Node7</title>
<g id="a_node7"><a xlink:href="align_8h.html" target="_top" xlink:title=" ">
<polygon fill="white" stroke="black" points="172.5,-112.5 172.5,-131.5 261.5,-131.5 261.5,-112.5 172.5,-112.5"/>
<text text-anchor="middle" x="217" y="-119.5" font-family="Helvetica,sans-Serif" font-size="10.00">odp/api/align.h</text>
</a>
</g>
</g>
<!-- Node4&#45;&gt;Node7 -->
<g id="edge6" class="edge">
<title>Node4&#45;&gt;Node7</title>
<path fill="none" stroke="midnightblue" d="M217,-168.08C217,-161.01 217,-150.86 217,-141.99"/>
<polygon fill="midnightblue" stroke="midnightblue" points="220.5,-141.75 217,-131.75 213.5,-141.75 220.5,-141.75"/>
</g>
<!-- Node10 -->
<g id="node10" class="node">
<title>Node10</title>
<g id="a_node10"><a xlink:title=" ">
<polygon fill="white" stroke="#bfbfbf" points="271,-0.5 271,-19.5 383,-19.5 383,-0.5 271,-0.5"/>
<text text-anchor="middle" x="327" y="-7.5" font-family="Helvetica,sans-Serif" font-size="10.00">odp/visibility_end.h</text>
</a>
</g>
</g>
<!-- Node4&#45;&gt;Node10 -->
<g id="edge11" class="edge">
<title>Node4&#45;&gt;Node10</title>
<path fill="none" stroke="midnightblue" d="M230.44,-168.36C242.34,-160.16 259.56,-146.91 271,-132 295.93,-99.53 313.14,-54.19 321.4,-29.24"/>
<polygon fill="midnightblue" stroke="midnightblue" points="324.76,-30.21 324.47,-19.62 318.09,-28.08 324.76,-30.21"/>
</g>
<!-- Node8 -->
<g id="node8" class="node">
<title>Node8</title>
<g id="a_node8"><a xlink:title=" ">
<polygon fill="white" stroke="#bfbfbf" points="34.5,-56.5 34.5,-75.5 141.5,-75.5 141.5,-56.5 34.5,-56.5"/>
<text text-anchor="middle" x="88" y="-63.5" font-family="Helvetica,sans-Serif" font-size="10.00">odp/api/abi/align.h</text>
</a>
</g>
</g>
<!-- Node7&#45;&gt;Node8 -->
<g id="edge7" class="edge">
<title>Node7&#45;&gt;Node8</title>
<path fill="none" stroke="midnightblue" d="M196.56,-112.44C175.33,-103.56 141.9,-89.56 117.75,-79.45"/>
<polygon fill="midnightblue" stroke="midnightblue" points="118.92,-76.15 108.34,-75.52 116.22,-82.61 118.92,-76.15"/>
</g>
<!-- Node9 -->
<g id="node9" class="node">
<title>Node9</title>
<g id="a_node9"><a xlink:href="spec_2align_8h.html" target="_top" xlink:title=" ">
<polygon fill="white" stroke="black" points="160,-56.5 160,-75.5 274,-75.5 274,-56.5 160,-56.5"/>
<text text-anchor="middle" x="217" y="-63.5" font-family="Helvetica,sans-Serif" font-size="10.00">odp/api/spec/align.h</text>
</a>
</g>
</g>
<!-- Node7&#45;&gt;Node9 -->
<g id="edge8" class="edge">
<title>Node7&#45;&gt;Node9</title>
<path fill="none" stroke="midnightblue" d="M217,-112.08C217,-105.01 217,-94.86 217,-85.99"/>
<polygon fill="midnightblue" stroke="midnightblue" points="220.5,-85.75 217,-75.75 213.5,-85.75 220.5,-85.75"/>
</g>
<!-- Node9&#45;&gt;Node5 -->
<g id="edge9" class="edge">
<title>Node9&#45;&gt;Node5</title>
<path fill="none" stroke="midnightblue" d="M212.87,-56.08C209.49,-48.77 204.58,-38.18 200.38,-29.1"/>
<polygon fill="midnightblue" stroke="midnightblue" points="203.43,-27.36 196.05,-19.75 197.08,-30.3 203.43,-27.36"/>
</g>
<!-- Node9&#45;&gt;Node10 -->
<g id="edge10" class="edge">
<title>Node9&#45;&gt;Node10</title>
<path fill="none" stroke="midnightblue" d="M234.67,-56.32C252.39,-47.62 279.9,-34.12 300.29,-24.11"/>
<polygon fill="midnightblue" stroke="midnightblue" points="301.94,-27.2 309.37,-19.65 298.85,-20.92 301.94,-27.2"/>
</g>
<!-- Node14&#45;&gt;Node5 -->
<g id="edge16" class="edge">
<title>Node14&#45;&gt;Node5</title>
<path fill="none" stroke="midnightblue" d="M357.78,-56.44C324.07,-47.2 270.2,-32.44 233.07,-22.26"/>
<polygon fill="midnightblue" stroke="midnightblue" points="233.64,-18.78 223.07,-19.52 231.79,-25.54 233.64,-18.78"/>
</g>
<!-- Node14&#45;&gt;Node10 -->
<g id="edge17" class="edge">
<title>Node14&#45;&gt;Node10</title>
<path fill="none" stroke="midnightblue" d="M379.04,-56.32C369.87,-48.34 356.06,-36.31 344.97,-26.65"/>
<polygon fill="midnightblue" stroke="midnightblue" points="346.98,-23.76 337.14,-19.83 342.38,-29.04 346.98,-23.76"/>
</g>
</g>
</svg>
