<?xml version="1.0" encoding="UTF-8" standalone="no"?>
<!DOCTYPE svg PUBLIC "-//W3C//DTD SVG 1.1//EN"
 "http://www.w3.org/Graphics/SVG/1.1/DTD/svg11.dtd">
<!-- Generated by graphviz version 2.43.0 (0)
 -->
<!-- Title: crypto.h Pages: 1 -->
<svg width="1267pt" height="856pt"
 viewBox="0.00 0.00 1267.00 856.00" xmlns="http://www.w3.org/2000/svg" xmlns:xlink="http://www.w3.org/1999/xlink">
<g id="graph0" class="graph" transform="scale(1 1) rotate(0) translate(4 852)">
<title>crypto.h</title>
<polygon fill="white" stroke="transparent" points="-4,4 -4,-852 1263,-852 1263,4 -4,4"/>
<!-- Node1 -->
<g id="node1" class="node">
<title>Node1</title>
<g id="a_node1"><a xlink:title=" ">
<polygon fill="#bfbfbf" stroke="black" points="180,-828.5 180,-847.5 236,-847.5 236,-828.5 180,-828.5"/>
<text text-anchor="middle" x="208" y="-835.5" font-family="Helvetica,sans-Serif" font-size="10.00">crypto.h</text>
</a>
</g>
</g>
<!-- Node2 -->
<g id="node2" class="node">
<title>Node2</title>
<g id="a_node2"><a xlink:href="std__types_8h.html" target="_top" xlink:title=" ">
<polygon fill="white" stroke="black" points="144,-224.5 144,-243.5 256,-243.5 256,-224.5 144,-224.5"/>
<text text-anchor="middle" x="200" y="-231.5" font-family="Helvetica,sans-Serif" font-size="10.00">odp/api/std_types.h</text>
</a>
</g>
</g>
<!-- Node1&#45;&gt;Node2 -->
<g id="edge1" class="edge">
<title>Node1&#45;&gt;Node2</title>
<path fill="none" stroke="midnightblue" d="M179.95,-834.99C123.17,-829.23 0,-807.47 0,-727 0,-727 0,-727 0,-417.5 0,-328.19 110.18,-270.92 166.98,-247.32"/>
<polygon fill="midnightblue" stroke="midnightblue" points="168.31,-250.56 176.27,-243.57 165.69,-244.07 168.31,-250.56"/>
</g>
<!-- Node11 -->
<g id="node11" class="node">
<title>Node11</title>
<g id="a_node11"><a xlink:title=" ">
<polygon fill="white" stroke="#bfbfbf" points="899,-537.5 899,-567.5 1005,-567.5 1005,-537.5 899,-537.5"/>
<text text-anchor="start" x="907" y="-555.5" font-family="Helvetica,sans-Serif" font-size="10.00">odp/api/abi/packet</text>
<text text-anchor="middle" x="952" y="-544.5" font-family="Helvetica,sans-Serif" font-size="10.00">_types.h</text>
</a>
</g>
</g>
<!-- Node1&#45;&gt;Node11 -->
<g id="edge12" class="edge">
<title>Node1&#45;&gt;Node11</title>
<path fill="none" stroke="midnightblue" d="M236.18,-834.87C358.9,-825.06 845.51,-780.28 954,-680 979.42,-656.51 977.19,-638.05 971,-604 969.36,-594.96 966.18,-585.43 962.89,-577.12"/>
<polygon fill="midnightblue" stroke="midnightblue" points="966.03,-575.54 958.91,-567.69 959.58,-578.26 966.03,-575.54"/>
</g>
<!-- Node12 -->
<g id="node12" class="node">
<title>Node12</title>
<g id="a_node12"><a xlink:title=" ">
<polygon fill="white" stroke="#bfbfbf" points="66.5,-772.5 66.5,-791.5 179.5,-791.5 179.5,-772.5 66.5,-772.5"/>
<text text-anchor="middle" x="123" y="-779.5" font-family="Helvetica,sans-Serif" font-size="10.00">odp/api/abi/crypto.h</text>
</a>
</g>
</g>
<!-- Node1&#45;&gt;Node12 -->
<g id="edge13" class="edge">
<title>Node1&#45;&gt;Node12</title>
<path fill="none" stroke="midnightblue" d="M194.34,-828.32C181.08,-819.9 160.73,-806.97 145.15,-797.07"/>
<polygon fill="midnightblue" stroke="midnightblue" points="146.94,-794.06 136.62,-791.65 143.19,-799.97 146.94,-794.06"/>
</g>
<!-- Node13 -->
<g id="node13" class="node">
<title>Node13</title>
<g id="a_node13"><a xlink:title=" ">
<polygon fill="white" stroke="#bfbfbf" points="66,-660.5 66,-679.5 176,-679.5 176,-660.5 66,-660.5"/>
<text text-anchor="middle" x="121" y="-667.5" font-family="Helvetica,sans-Serif" font-size="10.00">odp/api/abi/buffer.h</text>
</a>
</g>
</g>
<!-- Node1&#45;&gt;Node13 -->
<g id="edge14" class="edge">
<title>Node1&#45;&gt;Node13</title>
<path fill="none" stroke="midnightblue" d="M179.9,-837.85C144.64,-837.19 85.37,-830.05 57,-792 31,-757.12 74.91,-710.25 102.04,-686.38"/>
<polygon fill="midnightblue" stroke="midnightblue" points="104.49,-688.89 109.83,-679.74 99.95,-683.56 104.49,-688.89"/>
</g>
<!-- Node14 -->
<g id="node14" class="node">
<title>Node14</title>
<g id="a_node14"><a xlink:title=" ">
<polygon fill="white" stroke="#bfbfbf" points="232,-660.5 232,-679.5 336,-679.5 336,-660.5 232,-660.5"/>
<text text-anchor="middle" x="284" y="-667.5" font-family="Helvetica,sans-Serif" font-size="10.00">odp/api/abi/pool.h</text>
</a>
</g>
</g>
<!-- Node1&#45;&gt;Node14 -->
<g id="edge15" class="edge">
<title>Node1&#45;&gt;Node14</title>
<path fill="none" stroke="midnightblue" d="M212.09,-828.08C224.15,-801.72 259.79,-723.88 275.91,-688.66"/>
<polygon fill="midnightblue" stroke="midnightblue" points="279.1,-690.12 280.08,-679.57 272.73,-687.2 279.1,-690.12"/>
</g>
<!-- Node15 -->
<g id="node15" class="node">
<title>Node15</title>
<g id="a_node15"><a xlink:title=" ">
<polygon fill="white" stroke="#bfbfbf" points="1085.5,-409 1085.5,-428 1230.5,-428 1230.5,-409 1085.5,-409"/>
<text text-anchor="middle" x="1158" y="-416" font-family="Helvetica,sans-Serif" font-size="10.00">odp/api/abi/queue_types.h</text>
</a>
</g>
</g>
<!-- Node1&#45;&gt;Node15 -->
<g id="edge16" class="edge">
<title>Node1&#45;&gt;Node15</title>
<path fill="none" stroke="midnightblue" d="M236.12,-836.8C394.2,-835.3 1165,-823.06 1165,-727 1165,-727 1165,-727 1165,-551.5 1165,-511.1 1161.69,-463.84 1159.62,-438.27"/>
<polygon fill="midnightblue" stroke="midnightblue" points="1163.1,-437.81 1158.78,-428.14 1156.12,-438.4 1163.1,-437.81"/>
</g>
<!-- Node16 -->
<g id="node16" class="node">
<title>Node16</title>
<g id="a_node16"><a xlink:href="spec_2crypto_8h.html" target="_top" xlink:title=" ">
<polygon fill="white" stroke="black" points="313.5,-772.5 313.5,-791.5 434.5,-791.5 434.5,-772.5 313.5,-772.5"/>
<text text-anchor="middle" x="374" y="-779.5" font-family="Helvetica,sans-Serif" font-size="10.00">odp/api/spec/crypto.h</text>
</a>
</g>
</g>
<!-- Node1&#45;&gt;Node16 -->
<g id="edge17" class="edge">
<title>Node1&#45;&gt;Node16</title>
<path fill="none" stroke="midnightblue" d="M234.3,-828.44C262.35,-819.32 306.94,-804.81 338.18,-794.65"/>
<polygon fill="midnightblue" stroke="midnightblue" points="339.39,-797.94 347.82,-791.52 337.23,-791.28 339.39,-797.94"/>
</g>
<!-- Node3 -->
<g id="node3" class="node">
<title>Node3</title>
<g id="a_node3"><a xlink:title=" ">
<polygon fill="white" stroke="#bfbfbf" points="81,-168.5 81,-187.5 211,-187.5 211,-168.5 81,-168.5"/>
<text text-anchor="middle" x="146" y="-175.5" font-family="Helvetica,sans-Serif" font-size="10.00">odp/api/abi/std_types.h</text>
</a>
</g>
</g>
<!-- Node2&#45;&gt;Node3 -->
<g id="edge2" class="edge">
<title>Node2&#45;&gt;Node3</title>
<path fill="none" stroke="midnightblue" d="M191.08,-224.08C183.22,-216.22 171.57,-204.57 162.08,-195.08"/>
<polygon fill="midnightblue" stroke="midnightblue" points="164.3,-192.35 154.75,-187.75 159.35,-197.3 164.3,-192.35"/>
</g>
<!-- Node4 -->
<g id="node4" class="node">
<title>Node4</title>
<g id="a_node4"><a xlink:href="spec_2std__types_8h.html" target="_top" xlink:title=" ">
<polygon fill="white" stroke="black" points="229.5,-168.5 229.5,-187.5 366.5,-187.5 366.5,-168.5 229.5,-168.5"/>
<text text-anchor="middle" x="298" y="-175.5" font-family="Helvetica,sans-Serif" font-size="10.00">odp/api/spec/std_types.h</text>
</a>
</g>
</g>
<!-- Node2&#45;&gt;Node4 -->
<g id="edge3" class="edge">
<title>Node2&#45;&gt;Node4</title>
<path fill="none" stroke="midnightblue" d="M215.75,-224.32C231.32,-215.74 255.38,-202.49 273.46,-192.52"/>
<polygon fill="midnightblue" stroke="midnightblue" points="275.22,-195.55 282.29,-187.65 271.85,-189.42 275.22,-195.55"/>
</g>
<!-- Node5 -->
<g id="node5" class="node">
<title>Node5</title>
<g id="a_node5"><a xlink:title=" ">
<polygon fill="white" stroke="#bfbfbf" points="884.5,-0.5 884.5,-19.5 1005.5,-19.5 1005.5,-0.5 884.5,-0.5"/>
<text text-anchor="middle" x="945" y="-7.5" font-family="Helvetica,sans-Serif" font-size="10.00">odp/visibility_begin.h</text>
</a>
</g>
</g>
<!-- Node4&#45;&gt;Node5 -->
<g id="edge4" class="edge">
<title>Node4&#45;&gt;Node5</title>
<path fill="none" stroke="midnightblue" d="M336.94,-168.5C412.09,-151.93 582.21,-113.63 724,-76 789.09,-58.73 864.17,-36.05 907.93,-22.56"/>
<polygon fill="midnightblue" stroke="midnightblue" points="909.05,-25.88 917.57,-19.58 906.98,-19.19 909.05,-25.88"/>
</g>
<!-- Node6 -->
<g id="node6" class="node">
<title>Node6</title>
<g id="a_node6"><a xlink:title=" ">
<polygon fill="white" stroke="#bfbfbf" points="119.5,-112.5 119.5,-131.5 172.5,-131.5 172.5,-112.5 119.5,-112.5"/>
<text text-anchor="middle" x="146" y="-119.5" font-family="Helvetica,sans-Serif" font-size="10.00">stdint.h</text>
</a>
</g>
</g>
<!-- Node4&#45;&gt;Node6 -->
<g id="edge5" class="edge">
<title>Node4&#45;&gt;Node6</title>
<path fill="none" stroke="midnightblue" d="M273.92,-168.44C248.46,-159.4 208.11,-145.06 179.54,-134.92"/>
<polygon fill="midnightblue" stroke="midnightblue" points="180.57,-131.57 169.97,-131.52 178.22,-138.16 180.57,-131.57"/>
</g>
<!-- Node7 -->
<g id="node7" class="node">
<title>Node7</title>
<g id="a_node7"><a xlink:href="align_8h.html" target="_top" xlink:title=" ">
<polygon fill="white" stroke="black" points="276.5,-112.5 276.5,-131.5 365.5,-131.5 365.5,-112.5 276.5,-112.5"/>
<text text-anchor="middle" x="321" y="-119.5" font-family="Helvetica,sans-Serif" font-size="10.00">odp/api/align.h</text>
</a>
</g>
</g>
<!-- Node4&#45;&gt;Node7 -->
<g id="edge6" class="edge">
<title>Node4&#45;&gt;Node7</title>
<path fill="none" stroke="midnightblue" d="M301.8,-168.08C304.91,-160.77 309.42,-150.18 313.29,-141.1"/>
<polygon fill="midnightblue" stroke="midnightblue" points="316.57,-142.32 317.27,-131.75 310.13,-139.58 316.57,-142.32"/>
</g>
<!-- Node10 -->
<g id="node10" class="node">
<title>Node10</title>
<g id="a_node10"><a xlink:title=" ">
<polygon fill="white" stroke="#bfbfbf" points="428,-0.5 428,-19.5 540,-19.5 540,-0.5 428,-0.5"/>
<text text-anchor="middle" x="484" y="-7.5" font-family="Helvetica,sans-Serif" font-size="10.00">odp/visibility_end.h</text>
</a>
</g>
</g>
<!-- Node4&#45;&gt;Node10 -->
<g id="edge11" class="edge">
<title>Node4&#45;&gt;Node10</title>
<path fill="none" stroke="midnightblue" d="M275.68,-168.45C260.09,-161.22 240.29,-149.27 230,-132 212.67,-102.92 203.21,-81.9 225,-56 249.17,-27.27 349.28,-16.88 417.72,-13.12"/>
<polygon fill="midnightblue" stroke="midnightblue" points="418.18,-16.6 427.99,-12.6 417.83,-9.61 418.18,-16.6"/>
</g>
<!-- Node8 -->
<g id="node8" class="node">
<title>Node8</title>
<g id="a_node8"><a xlink:title=" ">
<polygon fill="white" stroke="#bfbfbf" points="267.5,-56.5 267.5,-75.5 374.5,-75.5 374.5,-56.5 267.5,-56.5"/>
<text text-anchor="middle" x="321" y="-63.5" font-family="Helvetica,sans-Serif" font-size="10.00">odp/api/abi/align.h</text>
</a>
</g>
</g>
<!-- Node7&#45;&gt;Node8 -->
<g id="edge7" class="edge">
<title>Node7&#45;&gt;Node8</title>
<path fill="none" stroke="midnightblue" d="M321,-112.08C321,-105.01 321,-94.86 321,-85.99"/>
<polygon fill="midnightblue" stroke="midnightblue" points="324.5,-85.75 321,-75.75 317.5,-85.75 324.5,-85.75"/>
</g>
<!-- Node9 -->
<g id="node9" class="node">
<title>Node9</title>
<g id="a_node9"><a xlink:href="spec_2align_8h.html" target="_top" xlink:title=" ">
<polygon fill="white" stroke="black" points="469,-56.5 469,-75.5 583,-75.5 583,-56.5 469,-56.5"/>
<text text-anchor="middle" x="526" y="-63.5" font-family="Helvetica,sans-Serif" font-size="10.00">odp/api/spec/align.h</text>
</a>
</g>
</g>
<!-- Node7&#45;&gt;Node9 -->
<g id="edge8" class="edge">
<title>Node7&#45;&gt;Node9</title>
<path fill="none" stroke="midnightblue" d="M353.48,-112.44C388.72,-103.16 445.1,-88.31 483.76,-78.13"/>
<polygon fill="midnightblue" stroke="midnightblue" points="484.89,-81.45 493.67,-75.52 483.11,-74.68 484.89,-81.45"/>
</g>
<!-- Node9&#45;&gt;Node5 -->
<g id="edge9" class="edge">
<title>Node9&#45;&gt;Node5</title>
<path fill="none" stroke="midnightblue" d="M583.02,-57.32C586.39,-56.87 589.74,-56.43 593,-56 690.38,-43.24 802.97,-28.92 874.07,-19.93"/>
<polygon fill="midnightblue" stroke="midnightblue" points="874.77,-23.37 884.25,-18.65 873.89,-16.43 874.77,-23.37"/>
</g>
<!-- Node9&#45;&gt;Node10 -->
<g id="edge10" class="edge">
<title>Node9&#45;&gt;Node10</title>
<path fill="none" stroke="midnightblue" d="M519.06,-56.08C513.07,-48.38 504.25,-37.03 496.95,-27.65"/>
<polygon fill="midnightblue" stroke="midnightblue" points="499.71,-25.5 490.81,-19.75 494.18,-29.79 499.71,-25.5"/>
</g>
<!-- Node16&#45;&gt;Node2 -->
<g id="edge23" class="edge">
<title>Node16&#45;&gt;Node2</title>
<path fill="none" stroke="midnightblue" d="M329.78,-772.44C279.41,-759.83 204,-730.94 204,-671 204,-671 204,-671 204,-356 204,-319.69 202.18,-277.29 200.99,-253.55"/>
<polygon fill="midnightblue" stroke="midnightblue" points="204.49,-253.31 200.47,-243.51 197.5,-253.67 204.49,-253.31"/>
</g>
<!-- Node16&#45;&gt;Node5 -->
<g id="edge18" class="edge">
<title>Node16&#45;&gt;Node5</title>
<path fill="none" stroke="midnightblue" d="M434.61,-779.46C525.5,-776.2 702.15,-766.21 849,-736 928.57,-719.63 952.95,-721.15 1023,-680 1175.99,-590.13 1259,-535.43 1259,-358 1259,-358 1259,-358 1259,-121 1259,-69.66 1107.58,-36.58 1015.04,-21.15"/>
<polygon fill="midnightblue" stroke="midnightblue" points="1015.6,-17.7 1005.17,-19.54 1014.47,-24.61 1015.6,-17.7"/>
</g>
<!-- Node16&#45;&gt;Node10 -->
<g id="edge65" class="edge">
<title>Node16&#45;&gt;Node10</title>
<path fill="none" stroke="midnightblue" d="M313.3,-778.53C241.91,-772.29 124.56,-751.05 57,-680 36.26,-658.19 38,-645.1 38,-615 38,-615 38,-615 38,-121 38,-43.72 293.61,-20.41 417.81,-13.64"/>
<polygon fill="midnightblue" stroke="midnightblue" points="418.16,-17.13 427.97,-13.11 417.8,-10.14 418.16,-17.13"/>
</g>
<!-- Node17 -->
<g id="node17" class="node">
<title>Node17</title>
<g id="a_node17"><a xlink:href="deprecated_8h.html" target="_top" xlink:title=" ">
<polygon fill="white" stroke="black" points="987.5,-347.5 987.5,-366.5 1106.5,-366.5 1106.5,-347.5 987.5,-347.5"/>
<text text-anchor="middle" x="1047" y="-354.5" font-family="Helvetica,sans-Serif" font-size="10.00">odp/api/deprecated.h</text>
</a>
</g>
</g>
<!-- Node16&#45;&gt;Node17 -->
<g id="edge19" class="edge">
<title>Node16&#45;&gt;Node17</title>
<path fill="none" stroke="midnightblue" d="M434.61,-777.76C590.63,-767.9 998.5,-732.04 1065,-624 1114.64,-543.35 1073.44,-421.71 1054.89,-376.11"/>
<polygon fill="midnightblue" stroke="midnightblue" points="1058.02,-374.54 1050.92,-366.67 1051.57,-377.25 1058.02,-374.54"/>
</g>
<!-- Node19 -->
<g id="node19" class="node">
<title>Node19</title>
<g id="a_node19"><a xlink:href="packet_8h.html" target="_top" xlink:title=" ">
<polygon fill="white" stroke="black" points="401.5,-716.5 401.5,-735.5 498.5,-735.5 498.5,-716.5 401.5,-716.5"/>
<text text-anchor="middle" x="450" y="-723.5" font-family="Helvetica,sans-Serif" font-size="10.00">odp/api/packet.h</text>
</a>
</g>
</g>
<!-- Node16&#45;&gt;Node19 -->
<g id="edge24" class="edge">
<title>Node16&#45;&gt;Node19</title>
<path fill="none" stroke="midnightblue" d="M386.21,-772.32C397.78,-764.11 415.38,-751.6 429.16,-741.81"/>
<polygon fill="midnightblue" stroke="midnightblue" points="431.44,-744.48 437.57,-735.83 427.39,-738.77 431.44,-744.48"/>
</g>
<!-- Node18 -->
<g id="node18" class="node">
<title>Node18</title>
<g id="a_node18"><a xlink:href="spec_2deprecated_8h.html" target="_top" xlink:title=" ">
<polygon fill="white" stroke="black" points="923.5,-56.5 923.5,-75.5 1068.5,-75.5 1068.5,-56.5 923.5,-56.5"/>
<text text-anchor="middle" x="996" y="-63.5" font-family="Helvetica,sans-Serif" font-size="10.00">odp/api/spec/deprecated.h</text>
</a>
</g>
</g>
<!-- Node17&#45;&gt;Node18 -->
<g id="edge20" class="edge">
<title>Node17&#45;&gt;Node18</title>
<path fill="none" stroke="midnightblue" d="M1053.33,-347.4C1066.79,-328.26 1097,-280.23 1097,-235 1097,-235 1097,-235 1097,-177 1097,-132.59 1051.79,-98.37 1021.86,-80.58"/>
<polygon fill="midnightblue" stroke="midnightblue" points="1023.55,-77.51 1013.13,-75.59 1020.08,-83.59 1023.55,-77.51"/>
</g>
<!-- Node18&#45;&gt;Node5 -->
<g id="edge21" class="edge">
<title>Node18&#45;&gt;Node5</title>
<path fill="none" stroke="midnightblue" d="M987.58,-56.08C980.15,-48.22 969.15,-36.57 960.19,-27.08"/>
<polygon fill="midnightblue" stroke="midnightblue" points="962.68,-24.62 953.26,-19.75 957.59,-29.42 962.68,-24.62"/>
</g>
<!-- Node18&#45;&gt;Node10 -->
<g id="edge22" class="edge">
<title>Node18&#45;&gt;Node10</title>
<path fill="none" stroke="midnightblue" d="M923.46,-57.35C823.91,-46.85 646.39,-28.13 550.26,-17.99"/>
<polygon fill="midnightblue" stroke="midnightblue" points="550.39,-14.48 540.08,-16.91 549.66,-21.44 550.39,-14.48"/>
</g>
<!-- Node19&#45;&gt;Node2 -->
<g id="edge25" class="edge">
<title>Node19&#45;&gt;Node2</title>
<path fill="none" stroke="midnightblue" d="M431.88,-716.39C417.25,-708.65 397.03,-696.04 384,-680 376.6,-670.89 240.49,-335.08 207.27,-252.97"/>
<polygon fill="midnightblue" stroke="midnightblue" points="210.51,-251.65 203.51,-243.69 204.02,-254.27 210.51,-251.65"/>
</g>
<!-- Node19&#45;&gt;Node11 -->
<g id="edge28" class="edge">
<title>Node19&#45;&gt;Node11</title>
<path fill="none" stroke="midnightblue" d="M498.68,-723.81C615.02,-720.51 901.86,-709.43 933,-680 960.48,-654.03 959.81,-606.65 956.28,-577.83"/>
<polygon fill="midnightblue" stroke="midnightblue" points="959.72,-577.18 954.84,-567.77 952.79,-578.17 959.72,-577.18"/>
</g>
<!-- Node19&#45;&gt;Node13 -->
<g id="edge30" class="edge">
<title>Node19&#45;&gt;Node13</title>
<path fill="none" stroke="midnightblue" d="M401.45,-717.03C343.55,-707.53 246.64,-691.62 183.27,-681.22"/>
<polygon fill="midnightblue" stroke="midnightblue" points="183.44,-677.7 173.01,-679.54 182.31,-684.61 183.44,-677.7"/>
</g>
<!-- Node19&#45;&gt;Node14 -->
<g id="edge31" class="edge">
<title>Node19&#45;&gt;Node14</title>
<path fill="none" stroke="midnightblue" d="M423.7,-716.44C395.65,-707.32 351.06,-692.81 319.82,-682.65"/>
<polygon fill="midnightblue" stroke="midnightblue" points="320.77,-679.28 310.18,-679.52 318.61,-685.94 320.77,-679.28"/>
</g>
<!-- Node20 -->
<g id="node20" class="node">
<title>Node20</title>
<g id="a_node20"><a xlink:title=" ">
<polygon fill="white" stroke="#bfbfbf" points="526,-660.5 526,-679.5 636,-679.5 636,-660.5 526,-660.5"/>
<text text-anchor="middle" x="581" y="-667.5" font-family="Helvetica,sans-Serif" font-size="10.00">odp/api/abi/event.h</text>
</a>
</g>
</g>
<!-- Node19&#45;&gt;Node20 -->
<g id="edge26" class="edge">
<title>Node19&#45;&gt;Node20</title>
<path fill="none" stroke="midnightblue" d="M470.76,-716.44C492.32,-707.56 526.26,-693.56 550.79,-683.45"/>
<polygon fill="midnightblue" stroke="midnightblue" points="552.43,-686.56 560.34,-679.52 549.76,-680.09 552.43,-686.56"/>
</g>
<!-- Node21 -->
<g id="node21" class="node">
<title>Node21</title>
<g id="a_node21"><a xlink:title=" ">
<polygon fill="white" stroke="#bfbfbf" points="794.5,-660.5 794.5,-679.5 923.5,-679.5 923.5,-660.5 794.5,-660.5"/>
<text text-anchor="middle" x="859" y="-667.5" font-family="Helvetica,sans-Serif" font-size="10.00">odp/api/abi/packet_io.h</text>
</a>
</g>
</g>
<!-- Node19&#45;&gt;Node21 -->
<g id="edge27" class="edge">
<title>Node19&#45;&gt;Node21</title>
<path fill="none" stroke="midnightblue" d="M498.52,-718.59C569.21,-709.26 701.12,-691.84 784.26,-680.87"/>
<polygon fill="midnightblue" stroke="midnightblue" points="784.95,-684.31 794.4,-679.53 784.03,-677.37 784.95,-684.31"/>
</g>
<!-- Node22 -->
<g id="node22" class="node">
<title>Node22</title>
<g id="a_node22"><a xlink:title=" ">
<polygon fill="white" stroke="#bfbfbf" points="392.5,-660.5 392.5,-679.5 507.5,-679.5 507.5,-660.5 392.5,-660.5"/>
<text text-anchor="middle" x="450" y="-667.5" font-family="Helvetica,sans-Serif" font-size="10.00">odp/api/abi/packet.h</text>
</a>
</g>
</g>
<!-- Node19&#45;&gt;Node22 -->
<g id="edge29" class="edge">
<title>Node19&#45;&gt;Node22</title>
<path fill="none" stroke="midnightblue" d="M450,-716.08C450,-709.01 450,-698.86 450,-689.99"/>
<polygon fill="midnightblue" stroke="midnightblue" points="453.5,-689.75 450,-679.75 446.5,-689.75 453.5,-689.75"/>
</g>
<!-- Node23 -->
<g id="node23" class="node">
<title>Node23</title>
<g id="a_node23"><a xlink:href="spec_2packet_8h.html" target="_top" xlink:title=" ">
<polygon fill="white" stroke="black" points="654,-660.5 654,-679.5 776,-679.5 776,-660.5 654,-660.5"/>
<text text-anchor="middle" x="715" y="-667.5" font-family="Helvetica,sans-Serif" font-size="10.00">odp/api/spec/packet.h</text>
</a>
</g>
</g>
<!-- Node19&#45;&gt;Node23 -->
<g id="edge32" class="edge">
<title>Node19&#45;&gt;Node23</title>
<path fill="none" stroke="midnightblue" d="M491.99,-716.44C538.41,-706.98 613.23,-691.74 663.24,-681.55"/>
<polygon fill="midnightblue" stroke="midnightblue" points="664.11,-684.94 673.21,-679.52 662.71,-678.08 664.11,-684.94"/>
</g>
<!-- Node23&#45;&gt;Node5 -->
<g id="edge33" class="edge">
<title>Node23&#45;&gt;Node5</title>
<path fill="none" stroke="midnightblue" d="M752.93,-660.45C824.52,-643.65 975.79,-604.75 1014,-568 1070.58,-513.59 1026.8,-463.35 1077,-403 1096.64,-379.38 1114.99,-389.41 1136,-367 1160.2,-341.18 1173,-331.89 1173,-296.5 1173,-296.5 1173,-296.5 1173,-121 1173,-50.14 1082.57,-24.91 1015.61,-15.93"/>
<polygon fill="midnightblue" stroke="midnightblue" points="1015.86,-12.44 1005.5,-14.67 1014.99,-19.38 1015.86,-12.44"/>
</g>
<!-- Node23&#45;&gt;Node10 -->
<g id="edge64" class="edge">
<title>Node23&#45;&gt;Node10</title>
<path fill="none" stroke="midnightblue" d="M662.92,-660.47C575.33,-644.62 408,-607.31 408,-553.5 408,-553.5 408,-553.5 408,-294.5 408,-236.51 415.46,-210.5 376,-168 341.57,-130.92 300.76,-170.56 268,-132 245.98,-106.08 237.44,-82.3 259,-56 278.82,-31.83 358.88,-20.38 417.89,-15.14"/>
<polygon fill="midnightblue" stroke="midnightblue" points="418.23,-18.63 427.9,-14.29 417.64,-11.65 418.23,-18.63"/>
</g>
<!-- Node24 -->
<g id="node24" class="node">
<title>Node24</title>
<g id="a_node24"><a xlink:href="proto__stats__types_8h.html" target="_top" xlink:title=" ">
<polygon fill="white" stroke="black" points="519,-470.5 519,-500.5 629,-500.5 629,-470.5 519,-470.5"/>
<text text-anchor="start" x="527" y="-488.5" font-family="Helvetica,sans-Serif" font-size="10.00">odp/api/proto_stats</text>
<text text-anchor="middle" x="574" y="-477.5" font-family="Helvetica,sans-Serif" font-size="10.00">_types.h</text>
</a>
</g>
</g>
<!-- Node23&#45;&gt;Node24 -->
<g id="edge34" class="edge">
<title>Node23&#45;&gt;Node24</title>
<path fill="none" stroke="midnightblue" d="M708.2,-660.2C687.14,-632.93 622.52,-549.3 591.28,-508.86"/>
<polygon fill="midnightblue" stroke="midnightblue" points="593.85,-506.47 584.97,-500.69 588.31,-510.75 593.85,-506.47"/>
</g>
<!-- Node27 -->
<g id="node27" class="node">
<title>Node27</title>
<g id="a_node27"><a xlink:href="time_8h.html" target="_top" xlink:title=" ">
<polygon fill="white" stroke="black" points="292.5,-286 292.5,-305 379.5,-305 379.5,-286 292.5,-286"/>
<text text-anchor="middle" x="336" y="-293" font-family="Helvetica,sans-Serif" font-size="10.00">odp/api/time.h</text>
</a>
</g>
</g>
<!-- Node23&#45;&gt;Node27 -->
<g id="edge40" class="edge">
<title>Node23&#45;&gt;Node27</title>
<path fill="none" stroke="midnightblue" d="M653.63,-661.08C561.96,-649.16 399.36,-627.6 394,-624 363.91,-603.78 353,-589.75 353,-553.5 353,-553.5 353,-553.5 353,-417.5 353,-381.04 345.34,-339 340.3,-315.3"/>
<polygon fill="midnightblue" stroke="midnightblue" points="343.66,-314.26 338.08,-305.25 336.82,-315.77 343.66,-314.26"/>
</g>
<!-- Node30 -->
<g id="node30" class="node">
<title>Node30</title>
<g id="a_node30"><a xlink:href="packet__types_8h.html" target="_top" xlink:title=" ">
<polygon fill="white" stroke="black" points="704.5,-604.5 704.5,-623.5 833.5,-623.5 833.5,-604.5 704.5,-604.5"/>
<text text-anchor="middle" x="769" y="-611.5" font-family="Helvetica,sans-Serif" font-size="10.00">odp/api/packet_types.h</text>
</a>
</g>
</g>
<!-- Node23&#45;&gt;Node30 -->
<g id="edge46" class="edge">
<title>Node23&#45;&gt;Node30</title>
<path fill="none" stroke="midnightblue" d="M723.92,-660.08C731.78,-652.22 743.43,-640.57 752.92,-631.08"/>
<polygon fill="midnightblue" stroke="midnightblue" points="755.65,-633.3 760.25,-623.75 750.7,-628.35 755.65,-633.3"/>
</g>
<!-- Node25 -->
<g id="node25" class="node">
<title>Node25</title>
<g id="a_node25"><a xlink:title=" ">
<polygon fill="white" stroke="#bfbfbf" points="505,-403.5 505,-433.5 633,-433.5 633,-403.5 505,-403.5"/>
<text text-anchor="start" x="513" y="-421.5" font-family="Helvetica,sans-Serif" font-size="10.00">odp/api/abi/proto_stats</text>
<text text-anchor="middle" x="569" y="-410.5" font-family="Helvetica,sans-Serif" font-size="10.00">_types.h</text>
</a>
</g>
</g>
<!-- Node24&#45;&gt;Node25 -->
<g id="edge35" class="edge">
<title>Node24&#45;&gt;Node25</title>
<path fill="none" stroke="midnightblue" d="M572.92,-470.4C572.31,-462.56 571.55,-452.6 570.85,-443.57"/>
<polygon fill="midnightblue" stroke="midnightblue" points="574.34,-443.28 570.08,-433.58 567.36,-443.82 574.34,-443.28"/>
</g>
<!-- Node26 -->
<g id="node26" class="node">
<title>Node26</title>
<g id="a_node26"><a xlink:href="spec_2proto__stats__types_8h.html" target="_top" xlink:title=" ">
<polygon fill="white" stroke="black" points="436.5,-280.5 436.5,-310.5 543.5,-310.5 543.5,-280.5 436.5,-280.5"/>
<text text-anchor="start" x="444.5" y="-298.5" font-family="Helvetica,sans-Serif" font-size="10.00">odp/api/spec/proto</text>
<text text-anchor="middle" x="490" y="-287.5" font-family="Helvetica,sans-Serif" font-size="10.00">_stats_types.h</text>
</a>
</g>
</g>
<!-- Node24&#45;&gt;Node26 -->
<g id="edge36" class="edge">
<title>Node24&#45;&gt;Node26</title>
<path fill="none" stroke="midnightblue" d="M538.28,-470.49C522.48,-462.34 505.38,-450.38 496,-434 475.79,-398.7 479.81,-349.54 484.77,-320.56"/>
<polygon fill="midnightblue" stroke="midnightblue" points="488.25,-321 486.66,-310.52 481.37,-319.7 488.25,-321"/>
</g>
<!-- Node26&#45;&gt;Node2 -->
<g id="edge38" class="edge">
<title>Node26&#45;&gt;Node2</title>
<path fill="none" stroke="midnightblue" d="M436.47,-283.52C383.69,-272.69 303.58,-256.25 251.51,-245.57"/>
<polygon fill="midnightblue" stroke="midnightblue" points="251.99,-242.09 241.49,-243.51 250.58,-248.95 251.99,-242.09"/>
</g>
<!-- Node26&#45;&gt;Node5 -->
<g id="edge37" class="edge">
<title>Node26&#45;&gt;Node5</title>
<path fill="none" stroke="midnightblue" d="M543.59,-287.01C636.82,-272.46 819,-236.66 819,-179 819,-179 819,-179 819,-121 819,-71.95 873.85,-39.74 911.17,-23.5"/>
<polygon fill="midnightblue" stroke="midnightblue" points="912.82,-26.61 920.71,-19.53 910.13,-20.14 912.82,-26.61"/>
</g>
<!-- Node26&#45;&gt;Node10 -->
<g id="edge39" class="edge">
<title>Node26&#45;&gt;Node10</title>
<path fill="none" stroke="midnightblue" d="M484.46,-280.49C471.26,-246.25 438.21,-155.35 427,-76 425.76,-67.2 423.12,-64 427,-56 433.4,-42.8 445.75,-32.3 457.33,-24.78"/>
<polygon fill="midnightblue" stroke="midnightblue" points="459.16,-27.77 465.92,-19.61 455.55,-21.77 459.16,-27.77"/>
</g>
<!-- Node27&#45;&gt;Node2 -->
<g id="edge41" class="edge">
<title>Node27&#45;&gt;Node2</title>
<path fill="none" stroke="midnightblue" d="M316.51,-285.98C293.59,-275.95 255.31,-259.2 228.92,-247.65"/>
<polygon fill="midnightblue" stroke="midnightblue" points="230.01,-244.31 219.45,-243.51 227.21,-250.72 230.01,-244.31"/>
</g>
<!-- Node28 -->
<g id="node28" class="node">
<title>Node28</title>
<g id="a_node28"><a xlink:title=" ">
<polygon fill="white" stroke="#bfbfbf" points="274.5,-224.5 274.5,-243.5 379.5,-243.5 379.5,-224.5 274.5,-224.5"/>
<text text-anchor="middle" x="327" y="-231.5" font-family="Helvetica,sans-Serif" font-size="10.00">odp/api/abi/time.h</text>
</a>
</g>
</g>
<!-- Node27&#45;&gt;Node28 -->
<g id="edge42" class="edge">
<title>Node27&#45;&gt;Node28</title>
<path fill="none" stroke="midnightblue" d="M334.71,-285.98C333.44,-277.58 331.46,-264.48 329.82,-253.66"/>
<polygon fill="midnightblue" stroke="midnightblue" points="333.24,-252.87 328.29,-243.51 326.32,-253.92 333.24,-252.87"/>
</g>
<!-- Node29 -->
<g id="node29" class="node">
<title>Node29</title>
<g id="a_node29"><a xlink:href="spec_2time_8h.html" target="_top" xlink:title=" ">
<polygon fill="white" stroke="black" points="601.5,-56.5 601.5,-75.5 714.5,-75.5 714.5,-56.5 601.5,-56.5"/>
<text text-anchor="middle" x="658" y="-63.5" font-family="Helvetica,sans-Serif" font-size="10.00">odp/api/spec/time.h</text>
</a>
</g>
</g>
<!-- Node27&#45;&gt;Node29 -->
<g id="edge43" class="edge">
<title>Node27&#45;&gt;Node29</title>
<path fill="none" stroke="midnightblue" d="M348.23,-285.86C396.74,-251.58 575.98,-124.95 637.28,-81.64"/>
<polygon fill="midnightblue" stroke="midnightblue" points="639.61,-84.28 645.76,-75.65 635.57,-78.56 639.61,-84.28"/>
</g>
<!-- Node29&#45;&gt;Node5 -->
<g id="edge44" class="edge">
<title>Node29&#45;&gt;Node5</title>
<path fill="none" stroke="midnightblue" d="M703.48,-56.44C753.96,-46.94 835.46,-31.61 889.62,-21.42"/>
<polygon fill="midnightblue" stroke="midnightblue" points="890.56,-24.81 899.74,-19.52 889.26,-17.93 890.56,-24.81"/>
</g>
<!-- Node29&#45;&gt;Node10 -->
<g id="edge45" class="edge">
<title>Node29&#45;&gt;Node10</title>
<path fill="none" stroke="midnightblue" d="M630.43,-56.44C600.9,-47.28 553.88,-32.69 521.12,-22.52"/>
<polygon fill="midnightblue" stroke="midnightblue" points="522.03,-19.14 511.44,-19.52 519.96,-25.82 522.03,-19.14"/>
</g>
<!-- Node30&#45;&gt;Node11 -->
<g id="edge47" class="edge">
<title>Node30&#45;&gt;Node11</title>
<path fill="none" stroke="midnightblue" d="M795.22,-604.48C822.2,-595.7 865,-581.79 899.06,-570.71"/>
<polygon fill="midnightblue" stroke="midnightblue" points="900.44,-573.94 908.87,-567.52 898.28,-567.29 900.44,-573.94"/>
</g>
<!-- Node31 -->
<g id="node31" class="node">
<title>Node31</title>
<g id="a_node31"><a xlink:href="spec_2packet__types_8h.html" target="_top" xlink:title=" ">
<polygon fill="white" stroke="black" points="712.5,-537.5 712.5,-567.5 825.5,-567.5 825.5,-537.5 712.5,-537.5"/>
<text text-anchor="start" x="720.5" y="-555.5" font-family="Helvetica,sans-Serif" font-size="10.00">odp/api/spec/packet</text>
<text text-anchor="middle" x="769" y="-544.5" font-family="Helvetica,sans-Serif" font-size="10.00">_types.h</text>
</a>
</g>
</g>
<!-- Node30&#45;&gt;Node31 -->
<g id="edge48" class="edge">
<title>Node30&#45;&gt;Node31</title>
<path fill="none" stroke="midnightblue" d="M769,-604.48C769,-597.47 769,-587.19 769,-577.7"/>
<polygon fill="midnightblue" stroke="midnightblue" points="772.5,-577.52 769,-567.52 765.5,-577.52 772.5,-577.52"/>
</g>
<!-- Node31&#45;&gt;Node5 -->
<g id="edge49" class="edge">
<title>Node31&#45;&gt;Node5</title>
<path fill="none" stroke="midnightblue" d="M825.78,-544.31C863.92,-537.53 914.12,-524.73 953,-501 1003.48,-470.2 995.67,-438.46 1043,-403 1071.95,-381.31 1093.03,-394.95 1116,-367 1136.61,-341.93 1135,-328.95 1135,-296.5 1135,-296.5 1135,-296.5 1135,-121 1135,-62.69 1067.15,-34.79 1012.54,-21.78"/>
<polygon fill="midnightblue" stroke="midnightblue" points="1013.05,-18.3 1002.52,-19.52 1011.51,-25.13 1013.05,-18.3"/>
</g>
<!-- Node31&#45;&gt;Node10 -->
<g id="edge63" class="edge">
<title>Node31&#45;&gt;Node10</title>
<path fill="none" stroke="midnightblue" d="M758.23,-537.39C707.27,-470.31 491.54,-182.43 460,-76 455.1,-59.48 463.2,-41.1 471.28,-28.11"/>
<polygon fill="midnightblue" stroke="midnightblue" points="474.26,-29.95 476.98,-19.71 468.47,-26.02 474.26,-29.95"/>
</g>
<!-- Node31&#45;&gt;Node24 -->
<g id="edge50" class="edge">
<title>Node31&#45;&gt;Node24</title>
<path fill="none" stroke="midnightblue" d="M726.69,-537.4C697.05,-527.52 657.26,-514.25 625.73,-503.74"/>
<polygon fill="midnightblue" stroke="midnightblue" points="626.82,-500.42 616.23,-500.58 624.61,-507.06 626.82,-500.42"/>
</g>
<!-- Node32 -->
<g id="node32" class="node">
<title>Node32</title>
<g id="a_node32"><a xlink:href="queue__types_8h.html" target="_top" xlink:title=" ">
<polygon fill="white" stroke="black" points="816.5,-476 816.5,-495 943.5,-495 943.5,-476 816.5,-476"/>
<text text-anchor="middle" x="880" y="-483" font-family="Helvetica,sans-Serif" font-size="10.00">odp/api/queue_types.h</text>
</a>
</g>
</g>
<!-- Node31&#45;&gt;Node32 -->
<g id="edge51" class="edge">
<title>Node31&#45;&gt;Node32</title>
<path fill="none" stroke="midnightblue" d="M793.09,-537.4C811.96,-526.34 838.06,-511.06 856.72,-500.13"/>
<polygon fill="midnightblue" stroke="midnightblue" points="858.61,-503.08 865.47,-495.01 855.07,-497.04 858.61,-503.08"/>
</g>
<!-- Node32&#45;&gt;Node15 -->
<g id="edge52" class="edge">
<title>Node32&#45;&gt;Node15</title>
<path fill="none" stroke="midnightblue" d="M916.63,-475.94C966.74,-464.22 1056.67,-443.19 1111.48,-430.38"/>
<polygon fill="midnightblue" stroke="midnightblue" points="1112.35,-433.77 1121.29,-428.08 1110.76,-426.95 1112.35,-433.77"/>
</g>
<!-- Node33 -->
<g id="node33" class="node">
<title>Node33</title>
<g id="a_node33"><a xlink:href="spec_2queue__types_8h.html" target="_top" xlink:title=" ">
<polygon fill="white" stroke="black" points="824.5,-403.5 824.5,-433.5 935.5,-433.5 935.5,-403.5 824.5,-403.5"/>
<text text-anchor="start" x="832.5" y="-421.5" font-family="Helvetica,sans-Serif" font-size="10.00">odp/api/spec/queue</text>
<text text-anchor="middle" x="880" y="-410.5" font-family="Helvetica,sans-Serif" font-size="10.00">_types.h</text>
</a>
</g>
</g>
<!-- Node32&#45;&gt;Node33 -->
<g id="edge53" class="edge">
<title>Node32&#45;&gt;Node33</title>
<path fill="none" stroke="midnightblue" d="M880,-475.73C880,-467.54 880,-454.92 880,-443.71"/>
<polygon fill="midnightblue" stroke="midnightblue" points="883.5,-443.59 880,-433.59 876.5,-443.59 883.5,-443.59"/>
</g>
<!-- Node33&#45;&gt;Node5 -->
<g id="edge54" class="edge">
<title>Node33&#45;&gt;Node5</title>
<path fill="none" stroke="midnightblue" d="M898.65,-403.5C918.3,-388.9 950.33,-365.62 979,-347 1005.4,-329.85 1021.17,-336.23 1040,-311 1060.83,-283.1 1059,-269.82 1059,-235 1059,-235 1059,-235 1059,-177 1059,-122.56 1109.73,-100.23 1078,-56 1063.45,-35.72 1039.26,-24.46 1015.48,-18.26"/>
<polygon fill="midnightblue" stroke="midnightblue" points="1016.23,-14.84 1005.69,-15.97 1014.63,-21.65 1016.23,-14.84"/>
</g>
<!-- Node33&#45;&gt;Node10 -->
<g id="edge62" class="edge">
<title>Node33&#45;&gt;Node10</title>
<path fill="none" stroke="midnightblue" d="M836.75,-403.49C817.75,-395.44 796.5,-383.56 782,-367 689.39,-261.2 821.55,-157.27 724,-56 700.53,-31.63 613.03,-20.16 550.46,-14.97"/>
<polygon fill="midnightblue" stroke="midnightblue" points="550.51,-11.46 540.26,-14.16 549.96,-18.44 550.51,-11.46"/>
</g>
<!-- Node33&#45;&gt;Node17 -->
<g id="edge61" class="edge">
<title>Node33&#45;&gt;Node17</title>
<path fill="none" stroke="midnightblue" d="M919.58,-403.4C948.1,-393.24 986.17,-379.67 1013.26,-370.02"/>
<polygon fill="midnightblue" stroke="midnightblue" points="1014.45,-373.31 1022.7,-366.66 1012.11,-366.72 1014.45,-373.31"/>
</g>
<!-- Node34 -->
<g id="node34" class="node">
<title>Node34</title>
<g id="a_node34"><a xlink:href="schedule__types_8h.html" target="_top" xlink:title=" ">
<polygon fill="white" stroke="black" points="791,-347.5 791,-366.5 931,-366.5 931,-347.5 791,-347.5"/>
<text text-anchor="middle" x="861" y="-354.5" font-family="Helvetica,sans-Serif" font-size="10.00">odp/api/schedule_types.h</text>
</a>
</g>
</g>
<!-- Node33&#45;&gt;Node34 -->
<g id="edge55" class="edge">
<title>Node33&#45;&gt;Node34</title>
<path fill="none" stroke="midnightblue" d="M875.5,-403.4C872.91,-395.29 869.62,-385.01 866.84,-376.28"/>
<polygon fill="midnightblue" stroke="midnightblue" points="870.14,-375.12 863.76,-366.66 863.47,-377.25 870.14,-375.12"/>
</g>
<!-- Node35 -->
<g id="node35" class="node">
<title>Node35</title>
<g id="a_node35"><a xlink:title=" ">
<polygon fill="white" stroke="#bfbfbf" points="913.5,-280.5 913.5,-310.5 1030.5,-310.5 1030.5,-280.5 913.5,-280.5"/>
<text text-anchor="start" x="921.5" y="-298.5" font-family="Helvetica,sans-Serif" font-size="10.00">odp/api/abi/schedule</text>
<text text-anchor="middle" x="972" y="-287.5" font-family="Helvetica,sans-Serif" font-size="10.00">_types.h</text>
</a>
</g>
</g>
<!-- Node34&#45;&gt;Node35 -->
<g id="edge56" class="edge">
<title>Node34&#45;&gt;Node35</title>
<path fill="none" stroke="midnightblue" d="M876.9,-347.48C892.5,-339.12 916.8,-326.09 936.93,-315.3"/>
<polygon fill="midnightblue" stroke="midnightblue" points="938.68,-318.33 945.84,-310.52 935.37,-312.16 938.68,-318.33"/>
</g>
<!-- Node36 -->
<g id="node36" class="node">
<title>Node36</title>
<g id="a_node36"><a xlink:href="spec_2schedule__types_8h.html" target="_top" xlink:title=" ">
<polygon fill="white" stroke="black" points="770.5,-280.5 770.5,-310.5 895.5,-310.5 895.5,-280.5 770.5,-280.5"/>
<text text-anchor="start" x="778.5" y="-298.5" font-family="Helvetica,sans-Serif" font-size="10.00">odp/api/spec/schedule</text>
<text text-anchor="middle" x="833" y="-287.5" font-family="Helvetica,sans-Serif" font-size="10.00">_types.h</text>
</a>
</g>
</g>
<!-- Node34&#45;&gt;Node36 -->
<g id="edge57" class="edge">
<title>Node34&#45;&gt;Node36</title>
<path fill="none" stroke="midnightblue" d="M856.99,-347.48C853.59,-340.25 848.54,-329.53 843.95,-319.78"/>
<polygon fill="midnightblue" stroke="midnightblue" points="847.02,-318.08 839.6,-310.52 840.69,-321.06 847.02,-318.08"/>
</g>
<!-- Node36&#45;&gt;Node2 -->
<g id="edge59" class="edge">
<title>Node36&#45;&gt;Node2</title>
<path fill="none" stroke="midnightblue" d="M770.4,-289.89C667.63,-282.1 456.5,-265.21 266.33,-243.98"/>
<polygon fill="midnightblue" stroke="midnightblue" points="266.48,-240.48 256.15,-242.84 265.69,-247.43 266.48,-240.48"/>
</g>
<!-- Node36&#45;&gt;Node5 -->
<g id="edge58" class="edge">
<title>Node36&#45;&gt;Node5</title>
<path fill="none" stroke="midnightblue" d="M846.45,-280.49C864.69,-259.97 895,-219.74 895,-179 895,-179 895,-179 895,-121 895,-85.18 917.24,-48.21 932.05,-27.56"/>
<polygon fill="midnightblue" stroke="midnightblue" points="934.88,-29.63 938.05,-19.52 929.27,-25.45 934.88,-29.63"/>
</g>
<!-- Node36&#45;&gt;Node10 -->
<g id="edge60" class="edge">
<title>Node36&#45;&gt;Node10</title>
<path fill="none" stroke="midnightblue" d="M837.86,-280.47C844.87,-258.93 857,-216.27 857,-179 857,-179 857,-179 857,-121 857,-57.8 657.52,-28.21 550.32,-16.87"/>
<polygon fill="midnightblue" stroke="midnightblue" points="550.55,-13.37 540.25,-15.83 549.83,-20.34 550.55,-13.37"/>
</g>
</g>
</svg>
