<?xml version="1.0" encoding="UTF-8" standalone="no"?>
<!DOCTYPE svg PUBLIC "-//W3C//DTD SVG 1.1//EN"
 "http://www.w3.org/Graphics/SVG/1.1/DTD/svg11.dtd">
<!-- Generated by graphviz version 2.43.0 (0)
 -->
<!-- Title: event.h Pages: 1 -->
<svg width="1199pt" height="856pt"
 viewBox="0.00 0.00 1198.50 856.00" xmlns="http://www.w3.org/2000/svg" xmlns:xlink="http://www.w3.org/1999/xlink">
<g id="graph0" class="graph" transform="scale(1 1) rotate(0) translate(4 852)">
<title>event.h</title>
<polygon fill="white" stroke="transparent" points="-4,4 -4,-852 1194.5,-852 1194.5,4 -4,4"/>
<!-- Node1 -->
<g id="node1" class="node">
<title>Node1</title>
<g id="a_node1"><a xlink:title=" ">
<polygon fill="#bfbfbf" stroke="black" points="0,-828.5 0,-847.5 53,-847.5 53,-828.5 0,-828.5"/>
<text text-anchor="middle" x="26.5" y="-835.5" font-family="Helvetica,sans-Serif" font-size="10.00">event.h</text>
</a>
</g>
</g>
<!-- Node2 -->
<g id="node2" class="node">
<title>Node2</title>
<g id="a_node2"><a xlink:title=" ">
<polygon fill="white" stroke="#bfbfbf" points="49.5,-660.5 49.5,-679.5 159.5,-679.5 159.5,-660.5 49.5,-660.5"/>
<text text-anchor="middle" x="104.5" y="-667.5" font-family="Helvetica,sans-Serif" font-size="10.00">odp/api/abi/event.h</text>
</a>
</g>
</g>
<!-- Node1&#45;&gt;Node2 -->
<g id="edge1" class="edge">
<title>Node1&#45;&gt;Node2</title>
<path fill="none" stroke="midnightblue" d="M30.69,-828.08C43.08,-801.72 79.65,-723.88 96.2,-688.66"/>
<polygon fill="midnightblue" stroke="midnightblue" points="99.39,-690.11 100.47,-679.57 93.05,-687.13 99.39,-690.11"/>
</g>
<!-- Node3 -->
<g id="node3" class="node">
<title>Node3</title>
<g id="a_node3"><a xlink:href="spec_2event_8h.html" target="_top" xlink:title=" ">
<polygon fill="white" stroke="black" points="186.5,-772.5 186.5,-791.5 304.5,-791.5 304.5,-772.5 186.5,-772.5"/>
<text text-anchor="middle" x="245.5" y="-779.5" font-family="Helvetica,sans-Serif" font-size="10.00">odp/api/spec/event.h</text>
</a>
</g>
</g>
<!-- Node1&#45;&gt;Node3 -->
<g id="edge2" class="edge">
<title>Node1&#45;&gt;Node3</title>
<path fill="none" stroke="midnightblue" d="M53.35,-830.38C90.12,-821.31 156.62,-804.92 200.92,-793.99"/>
<polygon fill="midnightblue" stroke="midnightblue" points="201.97,-797.34 210.84,-791.55 200.3,-790.54 201.97,-797.34"/>
</g>
<!-- Node4 -->
<g id="node4" class="node">
<title>Node4</title>
<g id="a_node4"><a xlink:title=" ">
<polygon fill="white" stroke="#bfbfbf" points="959,-0.5 959,-19.5 1080,-19.5 1080,-0.5 959,-0.5"/>
<text text-anchor="middle" x="1019.5" y="-7.5" font-family="Helvetica,sans-Serif" font-size="10.00">odp/visibility_begin.h</text>
</a>
</g>
</g>
<!-- Node3&#45;&gt;Node4 -->
<g id="edge3" class="edge">
<title>Node3&#45;&gt;Node4</title>
<path fill="none" stroke="midnightblue" d="M304.61,-780.36C511.5,-777.34 1190.5,-760.6 1190.5,-671 1190.5,-671 1190.5,-671 1190.5,-121 1190.5,-64.74 1124.22,-35.9 1074.19,-22.14"/>
<polygon fill="midnightblue" stroke="midnightblue" points="1074.99,-18.73 1064.43,-19.58 1073.22,-25.5 1074.99,-18.73"/>
</g>
<!-- Node5 -->
<g id="node5" class="node">
<title>Node5</title>
<g id="a_node5"><a xlink:href="packet_8h.html" target="_top" xlink:title=" ">
<polygon fill="white" stroke="black" points="372,-716.5 372,-735.5 469,-735.5 469,-716.5 372,-716.5"/>
<text text-anchor="middle" x="420.5" y="-723.5" font-family="Helvetica,sans-Serif" font-size="10.00">odp/api/packet.h</text>
</a>
</g>
</g>
<!-- Node3&#45;&gt;Node5 -->
<g id="edge4" class="edge">
<title>Node3&#45;&gt;Node5</title>
<path fill="none" stroke="midnightblue" d="M273.23,-772.44C302.93,-763.28 350.22,-748.69 383.17,-738.52"/>
<polygon fill="midnightblue" stroke="midnightblue" points="384.38,-741.81 392.9,-735.52 382.31,-735.12 384.38,-741.81"/>
</g>
<!-- Node13 -->
<g id="node13" class="node">
<title>Node13</title>
<g id="a_node13"><a xlink:title=" ">
<polygon fill="white" stroke="#bfbfbf" points="289.5,-0.5 289.5,-19.5 401.5,-19.5 401.5,-0.5 289.5,-0.5"/>
<text text-anchor="middle" x="345.5" y="-7.5" font-family="Helvetica,sans-Serif" font-size="10.00">odp/visibility_end.h</text>
</a>
</g>
</g>
<!-- Node3&#45;&gt;Node13 -->
<g id="edge58" class="edge">
<title>Node3&#45;&gt;Node13</title>
<path fill="none" stroke="midnightblue" d="M186.35,-777C119.99,-768.92 21.5,-744.54 21.5,-671 21.5,-671 21.5,-671 21.5,-121 21.5,-67.05 184.6,-34.28 279.36,-19.8"/>
<polygon fill="midnightblue" stroke="midnightblue" points="280.06,-23.23 289.43,-18.29 279.02,-16.31 280.06,-23.23"/>
</g>
<!-- Node5&#45;&gt;Node2 -->
<g id="edge16" class="edge">
<title>Node5&#45;&gt;Node2</title>
<path fill="none" stroke="midnightblue" d="M371.82,-716.68C316.01,-707.14 224.51,-691.51 164.39,-681.23"/>
<polygon fill="midnightblue" stroke="midnightblue" points="164.73,-677.74 154.28,-679.51 163.55,-684.64 164.73,-677.74"/>
</g>
<!-- Node6 -->
<g id="node6" class="node">
<title>Node6</title>
<g id="a_node6"><a xlink:href="std__types_8h.html" target="_top" xlink:title=" ">
<polygon fill="white" stroke="black" points="731.5,-224.5 731.5,-243.5 843.5,-243.5 843.5,-224.5 731.5,-224.5"/>
<text text-anchor="middle" x="787.5" y="-231.5" font-family="Helvetica,sans-Serif" font-size="10.00">odp/api/std_types.h</text>
</a>
</g>
</g>
<!-- Node5&#45;&gt;Node6 -->
<g id="edge5" class="edge">
<title>Node5&#45;&gt;Node6</title>
<path fill="none" stroke="midnightblue" d="M469.11,-725.51C549.17,-725.2 703.34,-719.35 737.5,-680 743.33,-673.29 738.12,-668.87 737.5,-660 734.16,-612.32 722.5,-601.3 722.5,-553.5 722.5,-553.5 722.5,-553.5 722.5,-356 722.5,-321.07 725.1,-310.29 742.5,-280 748.99,-268.7 759.05,-258.27 768.01,-250.29"/>
<polygon fill="midnightblue" stroke="midnightblue" points="770.42,-252.84 775.8,-243.71 765.9,-247.49 770.42,-252.84"/>
</g>
<!-- Node14 -->
<g id="node14" class="node">
<title>Node14</title>
<g id="a_node14"><a xlink:title=" ">
<polygon fill="white" stroke="#bfbfbf" points="216,-660.5 216,-679.5 345,-679.5 345,-660.5 216,-660.5"/>
<text text-anchor="middle" x="280.5" y="-667.5" font-family="Helvetica,sans-Serif" font-size="10.00">odp/api/abi/packet_io.h</text>
</a>
</g>
</g>
<!-- Node5&#45;&gt;Node14 -->
<g id="edge17" class="edge">
<title>Node5&#45;&gt;Node14</title>
<path fill="none" stroke="midnightblue" d="M398.32,-716.44C375.07,-707.48 338.35,-693.31 312.08,-683.18"/>
<polygon fill="midnightblue" stroke="midnightblue" points="313.17,-679.85 302.58,-679.52 310.65,-686.38 313.17,-679.85"/>
</g>
<!-- Node15 -->
<g id="node15" class="node">
<title>Node15</title>
<g id="a_node15"><a xlink:title=" ">
<polygon fill="white" stroke="#bfbfbf" points="378.5,-537.5 378.5,-567.5 484.5,-567.5 484.5,-537.5 378.5,-537.5"/>
<text text-anchor="start" x="386.5" y="-555.5" font-family="Helvetica,sans-Serif" font-size="10.00">odp/api/abi/packet</text>
<text text-anchor="middle" x="431.5" y="-544.5" font-family="Helvetica,sans-Serif" font-size="10.00">_types.h</text>
</a>
</g>
</g>
<!-- Node5&#45;&gt;Node15 -->
<g id="edge18" class="edge">
<title>Node5&#45;&gt;Node15</title>
<path fill="none" stroke="midnightblue" d="M371.66,-721.7C315.05,-716.75 226.9,-705.13 206.5,-680 156.03,-617.81 285.71,-580.8 368.59,-564.12"/>
<polygon fill="midnightblue" stroke="midnightblue" points="369.31,-567.54 378.45,-562.19 367.96,-560.67 369.31,-567.54"/>
</g>
<!-- Node16 -->
<g id="node16" class="node">
<title>Node16</title>
<g id="a_node16"><a xlink:title=" ">
<polygon fill="white" stroke="#bfbfbf" points="363,-660.5 363,-679.5 478,-679.5 478,-660.5 363,-660.5"/>
<text text-anchor="middle" x="420.5" y="-667.5" font-family="Helvetica,sans-Serif" font-size="10.00">odp/api/abi/packet.h</text>
</a>
</g>
</g>
<!-- Node5&#45;&gt;Node16 -->
<g id="edge19" class="edge">
<title>Node5&#45;&gt;Node16</title>
<path fill="none" stroke="midnightblue" d="M420.5,-716.08C420.5,-709.01 420.5,-698.86 420.5,-689.99"/>
<polygon fill="midnightblue" stroke="midnightblue" points="424,-689.75 420.5,-679.75 417,-689.75 424,-689.75"/>
</g>
<!-- Node17 -->
<g id="node17" class="node">
<title>Node17</title>
<g id="a_node17"><a xlink:title=" ">
<polygon fill="white" stroke="#bfbfbf" points="496.5,-660.5 496.5,-679.5 606.5,-679.5 606.5,-660.5 496.5,-660.5"/>
<text text-anchor="middle" x="551.5" y="-667.5" font-family="Helvetica,sans-Serif" font-size="10.00">odp/api/abi/buffer.h</text>
</a>
</g>
</g>
<!-- Node5&#45;&gt;Node17 -->
<g id="edge20" class="edge">
<title>Node5&#45;&gt;Node17</title>
<path fill="none" stroke="midnightblue" d="M441.26,-716.44C462.82,-707.56 496.76,-693.56 521.29,-683.45"/>
<polygon fill="midnightblue" stroke="midnightblue" points="522.93,-686.56 530.84,-679.52 520.26,-680.09 522.93,-686.56"/>
</g>
<!-- Node18 -->
<g id="node18" class="node">
<title>Node18</title>
<g id="a_node18"><a xlink:title=" ">
<polygon fill="white" stroke="#bfbfbf" points="624.5,-660.5 624.5,-679.5 728.5,-679.5 728.5,-660.5 624.5,-660.5"/>
<text text-anchor="middle" x="676.5" y="-667.5" font-family="Helvetica,sans-Serif" font-size="10.00">odp/api/abi/pool.h</text>
</a>
</g>
</g>
<!-- Node5&#45;&gt;Node18 -->
<g id="edge21" class="edge">
<title>Node5&#45;&gt;Node18</title>
<path fill="none" stroke="midnightblue" d="M461.06,-716.44C505.82,-707 577.88,-691.8 626.2,-681.61"/>
<polygon fill="midnightblue" stroke="midnightblue" points="627.06,-685.01 636.13,-679.52 625.62,-678.16 627.06,-685.01"/>
</g>
<!-- Node19 -->
<g id="node19" class="node">
<title>Node19</title>
<g id="a_node19"><a xlink:href="spec_2packet_8h.html" target="_top" xlink:title=" ">
<polygon fill="white" stroke="black" points="851.5,-660.5 851.5,-679.5 973.5,-679.5 973.5,-660.5 851.5,-660.5"/>
<text text-anchor="middle" x="912.5" y="-667.5" font-family="Helvetica,sans-Serif" font-size="10.00">odp/api/spec/packet.h</text>
</a>
</g>
</g>
<!-- Node5&#45;&gt;Node19 -->
<g id="edge22" class="edge">
<title>Node5&#45;&gt;Node19</title>
<path fill="none" stroke="midnightblue" d="M469.02,-719.67C556.21,-710.1 739.73,-689.96 841.23,-678.82"/>
<polygon fill="midnightblue" stroke="midnightblue" points="841.83,-682.28 851.39,-677.71 841.07,-675.32 841.83,-682.28"/>
</g>
<!-- Node7 -->
<g id="node7" class="node">
<title>Node7</title>
<g id="a_node7"><a xlink:title=" ">
<polygon fill="white" stroke="#bfbfbf" points="918.5,-168.5 918.5,-187.5 1048.5,-187.5 1048.5,-168.5 918.5,-168.5"/>
<text text-anchor="middle" x="983.5" y="-175.5" font-family="Helvetica,sans-Serif" font-size="10.00">odp/api/abi/std_types.h</text>
</a>
</g>
</g>
<!-- Node6&#45;&gt;Node7 -->
<g id="edge6" class="edge">
<title>Node6&#45;&gt;Node7</title>
<path fill="none" stroke="midnightblue" d="M818.56,-224.44C852.1,-215.2 905.7,-200.44 942.64,-190.26"/>
<polygon fill="midnightblue" stroke="midnightblue" points="943.88,-193.55 952.59,-187.52 942.02,-186.8 943.88,-193.55"/>
</g>
<!-- Node8 -->
<g id="node8" class="node">
<title>Node8</title>
<g id="a_node8"><a xlink:href="spec_2std__types_8h.html" target="_top" xlink:title=" ">
<polygon fill="white" stroke="black" points="725,-168.5 725,-187.5 862,-187.5 862,-168.5 725,-168.5"/>
<text text-anchor="middle" x="793.5" y="-175.5" font-family="Helvetica,sans-Serif" font-size="10.00">odp/api/spec/std_types.h</text>
</a>
</g>
</g>
<!-- Node6&#45;&gt;Node8 -->
<g id="edge7" class="edge">
<title>Node6&#45;&gt;Node8</title>
<path fill="none" stroke="midnightblue" d="M788.49,-224.08C789.29,-216.93 790.43,-206.64 791.42,-197.69"/>
<polygon fill="midnightblue" stroke="midnightblue" points="794.9,-198.08 792.53,-187.75 787.94,-197.3 794.9,-198.08"/>
</g>
<!-- Node8&#45;&gt;Node4 -->
<g id="edge8" class="edge">
<title>Node8&#45;&gt;Node4</title>
<path fill="none" stroke="midnightblue" d="M822.64,-168.39C863.42,-154.96 937.43,-125.32 981.5,-76 994.13,-61.86 1004.65,-42.88 1011.39,-29.08"/>
<polygon fill="midnightblue" stroke="midnightblue" points="1014.71,-30.25 1015.78,-19.71 1008.37,-27.28 1014.71,-30.25"/>
</g>
<!-- Node9 -->
<g id="node9" class="node">
<title>Node9</title>
<g id="a_node9"><a xlink:title=" ">
<polygon fill="white" stroke="#bfbfbf" points="844,-112.5 844,-131.5 897,-131.5 897,-112.5 844,-112.5"/>
<text text-anchor="middle" x="870.5" y="-119.5" font-family="Helvetica,sans-Serif" font-size="10.00">stdint.h</text>
</a>
</g>
</g>
<!-- Node8&#45;&gt;Node9 -->
<g id="edge9" class="edge">
<title>Node8&#45;&gt;Node9</title>
<path fill="none" stroke="midnightblue" d="M805.87,-168.32C817.66,-160.06 835.63,-147.45 849.64,-137.63"/>
<polygon fill="midnightblue" stroke="midnightblue" points="851.98,-140.26 858.16,-131.65 847.96,-134.53 851.98,-140.26"/>
</g>
<!-- Node10 -->
<g id="node10" class="node">
<title>Node10</title>
<g id="a_node10"><a xlink:href="align_8h.html" target="_top" xlink:title=" ">
<polygon fill="white" stroke="black" points="737,-112.5 737,-131.5 826,-131.5 826,-112.5 737,-112.5"/>
<text text-anchor="middle" x="781.5" y="-119.5" font-family="Helvetica,sans-Serif" font-size="10.00">odp/api/align.h</text>
</a>
</g>
</g>
<!-- Node8&#45;&gt;Node10 -->
<g id="edge10" class="edge">
<title>Node8&#45;&gt;Node10</title>
<path fill="none" stroke="midnightblue" d="M791.52,-168.08C789.93,-160.93 787.64,-150.64 785.65,-141.69"/>
<polygon fill="midnightblue" stroke="midnightblue" points="789.03,-140.75 783.44,-131.75 782.2,-142.27 789.03,-140.75"/>
</g>
<!-- Node8&#45;&gt;Node13 -->
<g id="edge15" class="edge">
<title>Node8&#45;&gt;Node13</title>
<path fill="none" stroke="midnightblue" d="M772.64,-168.41C731.01,-151.21 634.74,-111.18 554.5,-76 534.83,-67.37 530.7,-63.29 510.5,-56 471.78,-42.02 426.6,-29.98 393.31,-21.89"/>
<polygon fill="midnightblue" stroke="midnightblue" points="393.93,-18.43 383.39,-19.5 392.29,-25.24 393.93,-18.43"/>
</g>
<!-- Node11 -->
<g id="node11" class="node">
<title>Node11</title>
<g id="a_node11"><a xlink:title=" ">
<polygon fill="white" stroke="#bfbfbf" points="865,-56.5 865,-75.5 972,-75.5 972,-56.5 865,-56.5"/>
<text text-anchor="middle" x="918.5" y="-63.5" font-family="Helvetica,sans-Serif" font-size="10.00">odp/api/abi/align.h</text>
</a>
</g>
</g>
<!-- Node10&#45;&gt;Node11 -->
<g id="edge11" class="edge">
<title>Node10&#45;&gt;Node11</title>
<path fill="none" stroke="midnightblue" d="M803.21,-112.44C825.85,-103.52 861.57,-89.44 887.25,-79.32"/>
<polygon fill="midnightblue" stroke="midnightblue" points="888.87,-82.44 896.89,-75.52 886.31,-75.93 888.87,-82.44"/>
</g>
<!-- Node12 -->
<g id="node12" class="node">
<title>Node12</title>
<g id="a_node12"><a xlink:href="spec_2align_8h.html" target="_top" xlink:title=" ">
<polygon fill="white" stroke="black" points="694.5,-56.5 694.5,-75.5 808.5,-75.5 808.5,-56.5 694.5,-56.5"/>
<text text-anchor="middle" x="751.5" y="-63.5" font-family="Helvetica,sans-Serif" font-size="10.00">odp/api/spec/align.h</text>
</a>
</g>
</g>
<!-- Node10&#45;&gt;Node12 -->
<g id="edge12" class="edge">
<title>Node10&#45;&gt;Node12</title>
<path fill="none" stroke="midnightblue" d="M776.55,-112.08C772.4,-104.61 766.35,-93.72 761.23,-84.52"/>
<polygon fill="midnightblue" stroke="midnightblue" points="764.28,-82.79 756.36,-75.75 758.16,-86.19 764.28,-82.79"/>
</g>
<!-- Node12&#45;&gt;Node4 -->
<g id="edge13" class="edge">
<title>Node12&#45;&gt;Node4</title>
<path fill="none" stroke="midnightblue" d="M793.97,-56.44C840.91,-46.98 916.58,-31.74 967.15,-21.55"/>
<polygon fill="midnightblue" stroke="midnightblue" points="968.12,-24.92 977.23,-19.52 966.74,-18.06 968.12,-24.92"/>
</g>
<!-- Node12&#45;&gt;Node13 -->
<g id="edge14" class="edge">
<title>Node12&#45;&gt;Node13</title>
<path fill="none" stroke="midnightblue" d="M694.26,-57.18C691.3,-56.78 688.37,-56.38 685.5,-56 590.5,-43.24 480.53,-28.73 411.98,-19.72"/>
<polygon fill="midnightblue" stroke="midnightblue" points="412.13,-16.21 401.76,-18.38 411.22,-23.15 412.13,-16.21"/>
</g>
<!-- Node19&#45;&gt;Node4 -->
<g id="edge23" class="edge">
<title>Node19&#45;&gt;Node4</title>
<path fill="none" stroke="midnightblue" d="M973.68,-665.48C1044.79,-657.69 1152.5,-632.8 1152.5,-553.5 1152.5,-553.5 1152.5,-553.5 1152.5,-121 1152.5,-70.73 1095.37,-39.1 1056,-23.27"/>
<polygon fill="midnightblue" stroke="midnightblue" points="1057,-19.91 1046.41,-19.59 1054.49,-26.45 1057,-19.91"/>
</g>
<!-- Node19&#45;&gt;Node13 -->
<g id="edge57" class="edge">
<title>Node19&#45;&gt;Node13</title>
<path fill="none" stroke="midnightblue" d="M884.43,-660.49C754.6,-620.95 218.5,-455.51 218.5,-419.5 218.5,-419.5 218.5,-419.5 218.5,-121 218.5,-71.87 273.49,-39.77 311.1,-23.56"/>
<polygon fill="midnightblue" stroke="midnightblue" points="312.8,-26.64 320.71,-19.59 310.13,-20.17 312.8,-26.64"/>
</g>
<!-- Node20 -->
<g id="node20" class="node">
<title>Node20</title>
<g id="a_node20"><a xlink:href="proto__stats__types_8h.html" target="_top" xlink:title=" ">
<polygon fill="white" stroke="black" points="820.5,-470.5 820.5,-500.5 930.5,-500.5 930.5,-470.5 820.5,-470.5"/>
<text text-anchor="start" x="828.5" y="-488.5" font-family="Helvetica,sans-Serif" font-size="10.00">odp/api/proto_stats</text>
<text text-anchor="middle" x="875.5" y="-477.5" font-family="Helvetica,sans-Serif" font-size="10.00">_types.h</text>
</a>
</g>
</g>
<!-- Node19&#45;&gt;Node20 -->
<g id="edge24" class="edge">
<title>Node19&#45;&gt;Node20</title>
<path fill="none" stroke="midnightblue" d="M916.36,-660.25C920.06,-651.33 925.39,-637.01 927.5,-624 931.71,-598.09 921.97,-542.56 919.5,-537 914.78,-526.37 907.03,-516.33 899.34,-508.06"/>
<polygon fill="midnightblue" stroke="midnightblue" points="901.6,-505.36 892.09,-500.69 896.61,-510.27 901.6,-505.36"/>
</g>
<!-- Node23 -->
<g id="node23" class="node">
<title>Node23</title>
<g id="a_node23"><a xlink:href="time_8h.html" target="_top" xlink:title=" ">
<polygon fill="white" stroke="black" points="933,-286 933,-305 1020,-305 1020,-286 933,-286"/>
<text text-anchor="middle" x="976.5" y="-293" font-family="Helvetica,sans-Serif" font-size="10.00">odp/api/time.h</text>
</a>
</g>
</g>
<!-- Node19&#45;&gt;Node23 -->
<g id="edge30" class="edge">
<title>Node19&#45;&gt;Node23</title>
<path fill="none" stroke="midnightblue" d="M949.71,-660.4C998.1,-646.76 1076.5,-615.14 1076.5,-553.5 1076.5,-553.5 1076.5,-553.5 1076.5,-417.5 1076.5,-369.59 1029.34,-330.41 999.79,-310.58"/>
<polygon fill="midnightblue" stroke="midnightblue" points="1001.55,-307.55 991.26,-305.05 997.75,-313.42 1001.55,-307.55"/>
</g>
<!-- Node26 -->
<g id="node26" class="node">
<title>Node26</title>
<g id="a_node26"><a xlink:href="packet__types_8h.html" target="_top" xlink:title=" ">
<polygon fill="white" stroke="black" points="789,-604.5 789,-623.5 918,-623.5 918,-604.5 789,-604.5"/>
<text text-anchor="middle" x="853.5" y="-611.5" font-family="Helvetica,sans-Serif" font-size="10.00">odp/api/packet_types.h</text>
</a>
</g>
</g>
<!-- Node19&#45;&gt;Node26 -->
<g id="edge36" class="edge">
<title>Node19&#45;&gt;Node26</title>
<path fill="none" stroke="midnightblue" d="M903.02,-660.32C894.3,-652.34 881.16,-640.31 870.6,-630.65"/>
<polygon fill="midnightblue" stroke="midnightblue" points="872.89,-628 863.15,-623.83 868.17,-633.17 872.89,-628"/>
</g>
<!-- Node21 -->
<g id="node21" class="node">
<title>Node21</title>
<g id="a_node21"><a xlink:title=" ">
<polygon fill="white" stroke="#bfbfbf" points="832.5,-403.5 832.5,-433.5 960.5,-433.5 960.5,-403.5 832.5,-403.5"/>
<text text-anchor="start" x="840.5" y="-421.5" font-family="Helvetica,sans-Serif" font-size="10.00">odp/api/abi/proto_stats</text>
<text text-anchor="middle" x="896.5" y="-410.5" font-family="Helvetica,sans-Serif" font-size="10.00">_types.h</text>
</a>
</g>
</g>
<!-- Node20&#45;&gt;Node21 -->
<g id="edge25" class="edge">
<title>Node20&#45;&gt;Node21</title>
<path fill="none" stroke="midnightblue" d="M880.06,-470.4C882.62,-462.47 885.88,-452.38 888.82,-443.27"/>
<polygon fill="midnightblue" stroke="midnightblue" points="892.21,-444.17 891.95,-433.58 885.55,-442.02 892.21,-444.17"/>
</g>
<!-- Node22 -->
<g id="node22" class="node">
<title>Node22</title>
<g id="a_node22"><a xlink:href="spec_2proto__stats__types_8h.html" target="_top" xlink:title=" ">
<polygon fill="white" stroke="black" points="751,-280.5 751,-310.5 858,-310.5 858,-280.5 751,-280.5"/>
<text text-anchor="start" x="759" y="-298.5" font-family="Helvetica,sans-Serif" font-size="10.00">odp/api/spec/proto</text>
<text text-anchor="middle" x="804.5" y="-287.5" font-family="Helvetica,sans-Serif" font-size="10.00">_stats_types.h</text>
</a>
</g>
</g>
<!-- Node20&#45;&gt;Node22 -->
<g id="edge26" class="edge">
<title>Node20&#45;&gt;Node22</title>
<path fill="none" stroke="midnightblue" d="M855.48,-470.45C844.18,-461.39 830.89,-448.6 823.5,-434 805.15,-397.75 802.73,-349.6 803.21,-320.95"/>
<polygon fill="midnightblue" stroke="midnightblue" points="806.72,-320.75 803.53,-310.65 799.73,-320.54 806.72,-320.75"/>
</g>
<!-- Node22&#45;&gt;Node4 -->
<g id="edge27" class="edge">
<title>Node22&#45;&gt;Node4</title>
<path fill="none" stroke="midnightblue" d="M838.06,-280.41C906.82,-251.53 1057.3,-188.31 1057.5,-188 1069.43,-170.03 1112.33,-225.85 1052.5,-56 1048.81,-45.53 1041.82,-35.42 1035.21,-27.44"/>
<polygon fill="midnightblue" stroke="midnightblue" points="1037.62,-24.88 1028.37,-19.71 1032.38,-29.52 1037.62,-24.88"/>
</g>
<!-- Node22&#45;&gt;Node6 -->
<g id="edge28" class="edge">
<title>Node22&#45;&gt;Node6</title>
<path fill="none" stroke="midnightblue" d="M800.47,-280.4C798.15,-272.29 795.22,-262.01 792.72,-253.28"/>
<polygon fill="midnightblue" stroke="midnightblue" points="796.09,-252.31 789.97,-243.66 789.36,-254.23 796.09,-252.31"/>
</g>
<!-- Node22&#45;&gt;Node13 -->
<g id="edge29" class="edge">
<title>Node22&#45;&gt;Node13</title>
<path fill="none" stroke="midnightblue" d="M780.05,-280.32C763.53,-270.53 741.38,-256.98 722.5,-244 665.8,-205.02 537.15,-88.48 476.5,-56 448.96,-41.25 415.64,-29.88 389.5,-22.26"/>
<polygon fill="midnightblue" stroke="midnightblue" points="390.43,-18.89 379.85,-19.53 388.52,-25.62 390.43,-18.89"/>
</g>
<!-- Node23&#45;&gt;Node6 -->
<g id="edge31" class="edge">
<title>Node23&#45;&gt;Node6</title>
<path fill="none" stroke="midnightblue" d="M949.42,-285.98C916.58,-275.64 861.07,-258.16 824.35,-246.6"/>
<polygon fill="midnightblue" stroke="midnightblue" points="825.12,-243.17 814.53,-243.51 823.02,-249.85 825.12,-243.17"/>
</g>
<!-- Node24 -->
<g id="node24" class="node">
<title>Node24</title>
<g id="a_node24"><a xlink:title=" ">
<polygon fill="white" stroke="#bfbfbf" points="981,-224.5 981,-243.5 1086,-243.5 1086,-224.5 981,-224.5"/>
<text text-anchor="middle" x="1033.5" y="-231.5" font-family="Helvetica,sans-Serif" font-size="10.00">odp/api/abi/time.h</text>
</a>
</g>
</g>
<!-- Node23&#45;&gt;Node24 -->
<g id="edge32" class="edge">
<title>Node23&#45;&gt;Node24</title>
<path fill="none" stroke="midnightblue" d="M984.67,-285.98C993.39,-276.87 1007.4,-262.24 1018.19,-250.98"/>
<polygon fill="midnightblue" stroke="midnightblue" points="1020.96,-253.15 1025.35,-243.51 1015.9,-248.31 1020.96,-253.15"/>
</g>
<!-- Node25 -->
<g id="node25" class="node">
<title>Node25</title>
<g id="a_node25"><a xlink:href="spec_2time_8h.html" target="_top" xlink:title=" ">
<polygon fill="white" stroke="black" points="563,-56.5 563,-75.5 676,-75.5 676,-56.5 563,-56.5"/>
<text text-anchor="middle" x="619.5" y="-63.5" font-family="Helvetica,sans-Serif" font-size="10.00">odp/api/spec/time.h</text>
</a>
</g>
</g>
<!-- Node23&#45;&gt;Node25 -->
<g id="edge33" class="edge">
<title>Node23&#45;&gt;Node25</title>
<path fill="none" stroke="midnightblue" d="M964.02,-285.95C942.27,-271.38 895.6,-241.61 852.5,-224 794.62,-200.35 768.91,-222.1 716.5,-188 675.28,-161.18 643.5,-111.03 628.67,-84.5"/>
<polygon fill="midnightblue" stroke="midnightblue" points="631.68,-82.7 623.84,-75.58 625.53,-86.04 631.68,-82.7"/>
</g>
<!-- Node25&#45;&gt;Node4 -->
<g id="edge34" class="edge">
<title>Node25&#45;&gt;Node4</title>
<path fill="none" stroke="midnightblue" d="M676.02,-57.29C679.23,-56.85 682.41,-56.42 685.5,-56 776.36,-43.68 881.13,-29.58 948.74,-20.5"/>
<polygon fill="midnightblue" stroke="midnightblue" points="949.41,-23.94 958.85,-19.14 948.48,-17 949.41,-23.94"/>
</g>
<!-- Node25&#45;&gt;Node13 -->
<g id="edge35" class="edge">
<title>Node25&#45;&gt;Node13</title>
<path fill="none" stroke="midnightblue" d="M576.08,-56.44C527.98,-46.96 450.41,-31.67 398.69,-21.48"/>
<polygon fill="midnightblue" stroke="midnightblue" points="399.2,-18.02 388.71,-19.52 397.85,-24.88 399.2,-18.02"/>
</g>
<!-- Node26&#45;&gt;Node15 -->
<g id="edge37" class="edge">
<title>Node26&#45;&gt;Node15</title>
<path fill="none" stroke="midnightblue" d="M793.04,-604.48C713.7,-593.29 575.12,-573.75 494.53,-562.39"/>
<polygon fill="midnightblue" stroke="midnightblue" points="494.91,-558.91 484.52,-560.97 493.93,-565.84 494.91,-558.91"/>
</g>
<!-- Node27 -->
<g id="node27" class="node">
<title>Node27</title>
<g id="a_node27"><a xlink:href="spec_2packet__types_8h.html" target="_top" xlink:title=" ">
<polygon fill="white" stroke="black" points="797,-537.5 797,-567.5 910,-567.5 910,-537.5 797,-537.5"/>
<text text-anchor="start" x="805" y="-555.5" font-family="Helvetica,sans-Serif" font-size="10.00">odp/api/spec/packet</text>
<text text-anchor="middle" x="853.5" y="-544.5" font-family="Helvetica,sans-Serif" font-size="10.00">_types.h</text>
</a>
</g>
</g>
<!-- Node26&#45;&gt;Node27 -->
<g id="edge38" class="edge">
<title>Node26&#45;&gt;Node27</title>
<path fill="none" stroke="midnightblue" d="M853.5,-604.48C853.5,-597.47 853.5,-587.19 853.5,-577.7"/>
<polygon fill="midnightblue" stroke="midnightblue" points="857,-577.52 853.5,-567.52 850,-577.52 857,-577.52"/>
</g>
<!-- Node27&#45;&gt;Node4 -->
<g id="edge39" class="edge">
<title>Node27&#45;&gt;Node4</title>
<path fill="none" stroke="midnightblue" d="M908.53,-537.41C985.11,-514.1 1114.5,-459.67 1114.5,-358 1114.5,-358 1114.5,-358 1114.5,-121 1114.5,-77.74 1071.89,-43.09 1043.75,-24.91"/>
<polygon fill="midnightblue" stroke="midnightblue" points="1045.53,-21.9 1035.19,-19.6 1041.84,-27.85 1045.53,-21.9"/>
</g>
<!-- Node27&#45;&gt;Node13 -->
<g id="edge56" class="edge">
<title>Node27&#45;&gt;Node13</title>
<path fill="none" stroke="midnightblue" d="M796.99,-547.44C634.99,-534.26 180.5,-485.88 180.5,-358 180.5,-358 180.5,-358 180.5,-121 180.5,-90.2 182.24,-77.28 204.5,-56 224.76,-36.63 253.34,-25.6 279.49,-19.31"/>
<polygon fill="midnightblue" stroke="midnightblue" points="280.36,-22.71 289.37,-17.13 278.85,-15.87 280.36,-22.71"/>
</g>
<!-- Node27&#45;&gt;Node20 -->
<g id="edge40" class="edge">
<title>Node27&#45;&gt;Node20</title>
<path fill="none" stroke="midnightblue" d="M858.27,-537.4C860.95,-529.47 864.37,-519.38 867.45,-510.27"/>
<polygon fill="midnightblue" stroke="midnightblue" points="870.84,-511.17 870.74,-500.58 864.21,-508.93 870.84,-511.17"/>
</g>
<!-- Node28 -->
<g id="node28" class="node">
<title>Node28</title>
<g id="a_node28"><a xlink:href="queue__types_8h.html" target="_top" xlink:title=" ">
<polygon fill="white" stroke="black" points="558,-476 558,-495 685,-495 685,-476 558,-476"/>
<text text-anchor="middle" x="621.5" y="-483" font-family="Helvetica,sans-Serif" font-size="10.00">odp/api/queue_types.h</text>
</a>
</g>
</g>
<!-- Node27&#45;&gt;Node28 -->
<g id="edge41" class="edge">
<title>Node27&#45;&gt;Node28</title>
<path fill="none" stroke="midnightblue" d="M803.45,-537.48C761.05,-525.6 701.05,-508.79 661.72,-497.77"/>
<polygon fill="midnightblue" stroke="midnightblue" points="662.51,-494.36 651.94,-495.03 660.63,-501.1 662.51,-494.36"/>
</g>
<!-- Node29 -->
<g id="node29" class="node">
<title>Node29</title>
<g id="a_node29"><a xlink:title=" ">
<polygon fill="white" stroke="#bfbfbf" points="549,-409 549,-428 694,-428 694,-409 549,-409"/>
<text text-anchor="middle" x="621.5" y="-416" font-family="Helvetica,sans-Serif" font-size="10.00">odp/api/abi/queue_types.h</text>
</a>
</g>
</g>
<!-- Node28&#45;&gt;Node29 -->
<g id="edge42" class="edge">
<title>Node28&#45;&gt;Node29</title>
<path fill="none" stroke="midnightblue" d="M621.5,-475.73C621.5,-466.18 621.5,-450.62 621.5,-438.28"/>
<polygon fill="midnightblue" stroke="midnightblue" points="625,-438.13 621.5,-428.13 618,-438.13 625,-438.13"/>
</g>
<!-- Node30 -->
<g id="node30" class="node">
<title>Node30</title>
<g id="a_node30"><a xlink:href="spec_2queue__types_8h.html" target="_top" xlink:title=" ">
<polygon fill="white" stroke="black" points="420,-403.5 420,-433.5 531,-433.5 531,-403.5 420,-403.5"/>
<text text-anchor="start" x="428" y="-421.5" font-family="Helvetica,sans-Serif" font-size="10.00">odp/api/spec/queue</text>
<text text-anchor="middle" x="475.5" y="-410.5" font-family="Helvetica,sans-Serif" font-size="10.00">_types.h</text>
</a>
</g>
</g>
<!-- Node28&#45;&gt;Node30 -->
<g id="edge43" class="edge">
<title>Node28&#45;&gt;Node30</title>
<path fill="none" stroke="midnightblue" d="M602.11,-475.87C580.3,-466.16 544.25,-450.11 516.19,-437.61"/>
<polygon fill="midnightblue" stroke="midnightblue" points="517.57,-434.4 507.01,-433.53 514.72,-440.79 517.57,-434.4"/>
</g>
<!-- Node30&#45;&gt;Node4 -->
<g id="edge44" class="edge">
<title>Node30&#45;&gt;Node4</title>
<path fill="none" stroke="midnightblue" d="M505.16,-403.41C524.48,-393.87 550,-380.57 571.5,-367 606.68,-344.8 615.98,-339.27 646.5,-311 684.17,-276.11 678.59,-250.61 722.5,-224 780.76,-188.69 810.77,-218.87 871.5,-188 905.79,-170.57 908.26,-157 937.5,-132 966.48,-107.22 982.32,-108.35 1002.5,-76 1011.28,-61.93 1015.55,-43.44 1017.61,-29.77"/>
<polygon fill="midnightblue" stroke="midnightblue" points="1021.11,-29.99 1018.88,-19.64 1014.17,-29.13 1021.11,-29.99"/>
</g>
<!-- Node30&#45;&gt;Node13 -->
<g id="edge55" class="edge">
<title>Node30&#45;&gt;Node13</title>
<path fill="none" stroke="midnightblue" d="M419.86,-409.85C368.03,-401.61 295.79,-386.97 275.5,-367 252.37,-344.24 256.5,-328.95 256.5,-296.5 256.5,-296.5 256.5,-296.5 256.5,-121 256.5,-78.85 296.49,-43.78 322.86,-25.24"/>
<polygon fill="midnightblue" stroke="midnightblue" points="324.88,-28.1 331.2,-19.6 320.96,-22.3 324.88,-28.1"/>
</g>
<!-- Node31 -->
<g id="node31" class="node">
<title>Node31</title>
<g id="a_node31"><a xlink:href="schedule__types_8h.html" target="_top" xlink:title=" ">
<polygon fill="white" stroke="black" points="422.5,-347.5 422.5,-366.5 562.5,-366.5 562.5,-347.5 422.5,-347.5"/>
<text text-anchor="middle" x="492.5" y="-354.5" font-family="Helvetica,sans-Serif" font-size="10.00">odp/api/schedule_types.h</text>
</a>
</g>
</g>
<!-- Node30&#45;&gt;Node31 -->
<g id="edge45" class="edge">
<title>Node30&#45;&gt;Node31</title>
<path fill="none" stroke="midnightblue" d="M479.53,-403.4C481.85,-395.29 484.78,-385.01 487.28,-376.28"/>
<polygon fill="midnightblue" stroke="midnightblue" points="490.64,-377.23 490.03,-366.66 483.91,-375.31 490.64,-377.23"/>
</g>
<!-- Node34 -->
<g id="node34" class="node">
<title>Node34</title>
<g id="a_node34"><a xlink:href="deprecated_8h.html" target="_top" xlink:title=" ">
<polygon fill="white" stroke="black" points="285,-347.5 285,-366.5 404,-366.5 404,-347.5 285,-347.5"/>
<text text-anchor="middle" x="344.5" y="-354.5" font-family="Helvetica,sans-Serif" font-size="10.00">odp/api/deprecated.h</text>
</a>
</g>
</g>
<!-- Node30&#45;&gt;Node34 -->
<g id="edge51" class="edge">
<title>Node30&#45;&gt;Node34</title>
<path fill="none" stroke="midnightblue" d="M444.45,-403.4C422.77,-393.55 394.04,-380.5 372.95,-370.92"/>
<polygon fill="midnightblue" stroke="midnightblue" points="374.11,-367.61 363.56,-366.66 371.22,-373.98 374.11,-367.61"/>
</g>
<!-- Node32 -->
<g id="node32" class="node">
<title>Node32</title>
<g id="a_node32"><a xlink:title=" ">
<polygon fill="white" stroke="#bfbfbf" points="520,-280.5 520,-310.5 637,-310.5 637,-280.5 520,-280.5"/>
<text text-anchor="start" x="528" y="-298.5" font-family="Helvetica,sans-Serif" font-size="10.00">odp/api/abi/schedule</text>
<text text-anchor="middle" x="578.5" y="-287.5" font-family="Helvetica,sans-Serif" font-size="10.00">_types.h</text>
</a>
</g>
</g>
<!-- Node31&#45;&gt;Node32 -->
<g id="edge46" class="edge">
<title>Node31&#45;&gt;Node32</title>
<path fill="none" stroke="midnightblue" d="M504.82,-347.48C516.47,-339.42 534.38,-327.02 549.63,-316.47"/>
<polygon fill="midnightblue" stroke="midnightblue" points="552,-319.09 558.23,-310.52 548.02,-313.33 552,-319.09"/>
</g>
<!-- Node33 -->
<g id="node33" class="node">
<title>Node33</title>
<g id="a_node33"><a xlink:href="spec_2schedule__types_8h.html" target="_top" xlink:title=" ">
<polygon fill="white" stroke="black" points="377,-280.5 377,-310.5 502,-310.5 502,-280.5 377,-280.5"/>
<text text-anchor="start" x="385" y="-298.5" font-family="Helvetica,sans-Serif" font-size="10.00">odp/api/spec/schedule</text>
<text text-anchor="middle" x="439.5" y="-287.5" font-family="Helvetica,sans-Serif" font-size="10.00">_types.h</text>
</a>
</g>
</g>
<!-- Node31&#45;&gt;Node33 -->
<g id="edge47" class="edge">
<title>Node31&#45;&gt;Node33</title>
<path fill="none" stroke="midnightblue" d="M484.91,-347.48C478.13,-339.87 467.91,-328.4 458.89,-318.26"/>
<polygon fill="midnightblue" stroke="midnightblue" points="461.26,-315.66 451.99,-310.52 456.03,-320.32 461.26,-315.66"/>
</g>
<!-- Node33&#45;&gt;Node4 -->
<g id="edge48" class="edge">
<title>Node33&#45;&gt;Node4</title>
<path fill="none" stroke="midnightblue" d="M459.09,-280.38C504.74,-247.89 622.37,-166.42 728.5,-112 766.47,-92.53 778.7,-93.75 817.5,-76 835.21,-67.9 838.35,-63.07 856.5,-56 893.68,-41.51 937.34,-29.72 970.11,-21.85"/>
<polygon fill="midnightblue" stroke="midnightblue" points="970.98,-25.24 979.91,-19.53 969.37,-18.43 970.98,-25.24"/>
</g>
<!-- Node33&#45;&gt;Node6 -->
<g id="edge49" class="edge">
<title>Node33&#45;&gt;Node6</title>
<path fill="none" stroke="midnightblue" d="M502.3,-281.71C505.41,-281.12 508.49,-280.55 511.5,-280 582.99,-266.98 665.24,-253.8 721.22,-245.1"/>
<polygon fill="midnightblue" stroke="midnightblue" points="722.02,-248.52 731.36,-243.53 720.94,-241.6 722.02,-248.52"/>
</g>
<!-- Node33&#45;&gt;Node13 -->
<g id="edge50" class="edge">
<title>Node33&#45;&gt;Node13</title>
<path fill="none" stroke="midnightblue" d="M427.7,-280.35C400.95,-247.23 336.26,-161.02 313.5,-76 311.2,-67.41 310.8,-64.47 313.5,-56 316.84,-45.54 323.6,-35.43 330.05,-27.45"/>
<polygon fill="midnightblue" stroke="midnightblue" points="332.85,-29.56 336.75,-19.71 327.56,-24.98 332.85,-29.56"/>
</g>
<!-- Node35 -->
<g id="node35" class="node">
<title>Node35</title>
<g id="a_node35"><a xlink:href="spec_2deprecated_8h.html" target="_top" xlink:title=" ">
<polygon fill="white" stroke="black" points="323,-56.5 323,-75.5 468,-75.5 468,-56.5 323,-56.5"/>
<text text-anchor="middle" x="395.5" y="-63.5" font-family="Helvetica,sans-Serif" font-size="10.00">odp/api/spec/deprecated.h</text>
</a>
</g>
</g>
<!-- Node34&#45;&gt;Node35 -->
<g id="edge52" class="edge">
<title>Node34&#45;&gt;Node35</title>
<path fill="none" stroke="midnightblue" d="M343.03,-347.22C339.82,-327.32 332.5,-277.22 332.5,-235 332.5,-235 332.5,-235 332.5,-177 332.5,-139.48 360.45,-103.14 379.11,-83.05"/>
<polygon fill="midnightblue" stroke="midnightblue" points="381.77,-85.34 386.2,-75.72 376.74,-80.48 381.77,-85.34"/>
</g>
<!-- Node35&#45;&gt;Node4 -->
<g id="edge53" class="edge">
<title>Node35&#45;&gt;Node4</title>
<path fill="none" stroke="midnightblue" d="M468.3,-58.7C589.04,-48.25 829.21,-27.47 948.65,-17.13"/>
<polygon fill="midnightblue" stroke="midnightblue" points="949.12,-20.6 958.78,-16.25 948.52,-13.63 949.12,-20.6"/>
</g>
<!-- Node35&#45;&gt;Node13 -->
<g id="edge54" class="edge">
<title>Node35&#45;&gt;Node13</title>
<path fill="none" stroke="midnightblue" d="M387.24,-56.08C380.04,-48.3 369.39,-36.8 360.65,-27.37"/>
<polygon fill="midnightblue" stroke="midnightblue" points="362.97,-24.71 353.6,-19.75 357.83,-29.47 362.97,-24.71"/>
</g>
</g>
</svg>
