<?xml version="1.0" encoding="UTF-8" standalone="no"?>
<!DOCTYPE svg PUBLIC "-//W3C//DTD SVG 1.1//EN"
 "http://www.w3.org/Graphics/SVG/1.1/DTD/svg11.dtd">
<!-- Generated by graphviz version 2.43.0 (0)
 -->
<!-- Title: packet.h Pages: 1 -->
<svg width="1225pt" height="744pt"
 viewBox="0.00 0.00 1225.00 744.00" xmlns="http://www.w3.org/2000/svg" xmlns:xlink="http://www.w3.org/1999/xlink">
<g id="graph0" class="graph" transform="scale(1 1) rotate(0) translate(4 740)">
<title>packet.h</title>
<polygon fill="white" stroke="transparent" points="-4,4 -4,-740 1221,-740 1221,4 -4,4"/>
<!-- Node1 -->
<g id="node1" class="node">
<title>Node1</title>
<g id="a_node1"><a xlink:title=" ">
<polygon fill="#bfbfbf" stroke="black" points="671,-716.5 671,-735.5 729,-735.5 729,-716.5 671,-716.5"/>
<text text-anchor="middle" x="700" y="-723.5" font-family="Helvetica,sans-Serif" font-size="10.00">packet.h</text>
</a>
</g>
</g>
<!-- Node2 -->
<g id="node2" class="node">
<title>Node2</title>
<g id="a_node2"><a xlink:href="std__types_8h.html" target="_top" xlink:title=" ">
<polygon fill="white" stroke="black" points="313,-224.5 313,-243.5 425,-243.5 425,-224.5 313,-224.5"/>
<text text-anchor="middle" x="369" y="-231.5" font-family="Helvetica,sans-Serif" font-size="10.00">odp/api/std_types.h</text>
</a>
</g>
</g>
<!-- Node1&#45;&gt;Node2 -->
<g id="edge1" class="edge">
<title>Node1&#45;&gt;Node2</title>
<path fill="none" stroke="midnightblue" d="M670.89,-723.83C596.07,-720.42 398.89,-708.89 341,-680 305,-662.04 278,-655.23 278,-615 278,-615 278,-615 278,-356 278,-321.18 276.53,-308.16 297,-280 307.17,-266.01 323.13,-255.4 337.45,-248"/>
<polygon fill="midnightblue" stroke="midnightblue" points="339.07,-251.1 346.54,-243.6 336.02,-244.8 339.07,-251.1"/>
</g>
<!-- Node11 -->
<g id="node11" class="node">
<title>Node11</title>
<g id="a_node11"><a xlink:title=" ">
<polygon fill="white" stroke="#bfbfbf" points="576,-660.5 576,-679.5 686,-679.5 686,-660.5 576,-660.5"/>
<text text-anchor="middle" x="631" y="-667.5" font-family="Helvetica,sans-Serif" font-size="10.00">odp/api/abi/event.h</text>
</a>
</g>
</g>
<!-- Node1&#45;&gt;Node11 -->
<g id="edge12" class="edge">
<title>Node1&#45;&gt;Node11</title>
<path fill="none" stroke="midnightblue" d="M688.91,-716.32C678.51,-708.18 662.74,-695.84 650.28,-686.09"/>
<polygon fill="midnightblue" stroke="midnightblue" points="652.32,-683.24 642.29,-679.83 648.01,-688.75 652.32,-683.24"/>
</g>
<!-- Node12 -->
<g id="node12" class="node">
<title>Node12</title>
<g id="a_node12"><a xlink:title=" ">
<polygon fill="white" stroke="#bfbfbf" points="704.5,-660.5 704.5,-679.5 833.5,-679.5 833.5,-660.5 704.5,-660.5"/>
<text text-anchor="middle" x="769" y="-667.5" font-family="Helvetica,sans-Serif" font-size="10.00">odp/api/abi/packet_io.h</text>
</a>
</g>
</g>
<!-- Node1&#45;&gt;Node12 -->
<g id="edge13" class="edge">
<title>Node1&#45;&gt;Node12</title>
<path fill="none" stroke="midnightblue" d="M711.09,-716.32C721.49,-708.18 737.26,-695.84 749.72,-686.09"/>
<polygon fill="midnightblue" stroke="midnightblue" points="751.99,-688.75 757.71,-679.83 747.68,-683.24 751.99,-688.75"/>
</g>
<!-- Node13 -->
<g id="node13" class="node">
<title>Node13</title>
<g id="a_node13"><a xlink:title=" ">
<polygon fill="white" stroke="#bfbfbf" points="526,-537.5 526,-567.5 632,-567.5 632,-537.5 526,-537.5"/>
<text text-anchor="start" x="534" y="-555.5" font-family="Helvetica,sans-Serif" font-size="10.00">odp/api/abi/packet</text>
<text text-anchor="middle" x="579" y="-544.5" font-family="Helvetica,sans-Serif" font-size="10.00">_types.h</text>
</a>
</g>
</g>
<!-- Node1&#45;&gt;Node13 -->
<g id="edge14" class="edge">
<title>Node1&#45;&gt;Node13</title>
<path fill="none" stroke="midnightblue" d="M670.99,-724.42C639.51,-722.04 590.59,-712.88 567,-680 545.34,-649.8 557.38,-604.56 568.15,-577.16"/>
<polygon fill="midnightblue" stroke="midnightblue" points="571.52,-578.17 572.15,-567.6 565.06,-575.48 571.52,-578.17"/>
</g>
<!-- Node14 -->
<g id="node14" class="node">
<title>Node14</title>
<g id="a_node14"><a xlink:title=" ">
<polygon fill="white" stroke="#bfbfbf" points="851.5,-660.5 851.5,-679.5 966.5,-679.5 966.5,-660.5 851.5,-660.5"/>
<text text-anchor="middle" x="909" y="-667.5" font-family="Helvetica,sans-Serif" font-size="10.00">odp/api/abi/packet.h</text>
</a>
</g>
</g>
<!-- Node1&#45;&gt;Node14 -->
<g id="edge15" class="edge">
<title>Node1&#45;&gt;Node14</title>
<path fill="none" stroke="midnightblue" d="M729.06,-717.49C764.71,-708.28 825.43,-692.59 866.36,-682.02"/>
<polygon fill="midnightblue" stroke="midnightblue" points="867.25,-685.4 876.06,-679.51 865.5,-678.62 867.25,-685.4"/>
</g>
<!-- Node15 -->
<g id="node15" class="node">
<title>Node15</title>
<g id="a_node15"><a xlink:title=" ">
<polygon fill="white" stroke="#bfbfbf" points="985,-660.5 985,-679.5 1095,-679.5 1095,-660.5 985,-660.5"/>
<text text-anchor="middle" x="1040" y="-667.5" font-family="Helvetica,sans-Serif" font-size="10.00">odp/api/abi/buffer.h</text>
</a>
</g>
</g>
<!-- Node1&#45;&gt;Node15 -->
<g id="edge16" class="edge">
<title>Node1&#45;&gt;Node15</title>
<path fill="none" stroke="midnightblue" d="M729.28,-720.35C783.9,-711.68 902.44,-692.85 976.29,-681.12"/>
<polygon fill="midnightblue" stroke="midnightblue" points="977.07,-684.54 986.4,-679.51 975.97,-677.63 977.07,-684.54"/>
</g>
<!-- Node16 -->
<g id="node16" class="node">
<title>Node16</title>
<g id="a_node16"><a xlink:title=" ">
<polygon fill="white" stroke="#bfbfbf" points="1113,-660.5 1113,-679.5 1217,-679.5 1217,-660.5 1113,-660.5"/>
<text text-anchor="middle" x="1165" y="-667.5" font-family="Helvetica,sans-Serif" font-size="10.00">odp/api/abi/pool.h</text>
</a>
</g>
</g>
<!-- Node1&#45;&gt;Node16 -->
<g id="edge17" class="edge">
<title>Node1&#45;&gt;Node16</title>
<path fill="none" stroke="midnightblue" d="M729.44,-722.08C794.68,-715.54 956.53,-698.89 1102.72,-680.13"/>
<polygon fill="midnightblue" stroke="midnightblue" points="1103.3,-683.58 1112.77,-678.83 1102.41,-676.64 1103.3,-683.58"/>
</g>
<!-- Node17 -->
<g id="node17" class="node">
<title>Node17</title>
<g id="a_node17"><a xlink:href="spec_2packet_8h.html" target="_top" xlink:title=" ">
<polygon fill="white" stroke="black" points="350,-660.5 350,-679.5 472,-679.5 472,-660.5 350,-660.5"/>
<text text-anchor="middle" x="411" y="-667.5" font-family="Helvetica,sans-Serif" font-size="10.00">odp/api/spec/packet.h</text>
</a>
</g>
</g>
<!-- Node1&#45;&gt;Node17 -->
<g id="edge18" class="edge">
<title>Node1&#45;&gt;Node17</title>
<path fill="none" stroke="midnightblue" d="M670.97,-719.58C623.24,-710.66 527.42,-692.75 466.39,-681.35"/>
<polygon fill="midnightblue" stroke="midnightblue" points="467.01,-677.9 456.53,-679.51 465.72,-684.79 467.01,-677.9"/>
</g>
<!-- Node3 -->
<g id="node3" class="node">
<title>Node3</title>
<g id="a_node3"><a xlink:title=" ">
<polygon fill="white" stroke="#bfbfbf" points="304,-168.5 304,-187.5 434,-187.5 434,-168.5 304,-168.5"/>
<text text-anchor="middle" x="369" y="-175.5" font-family="Helvetica,sans-Serif" font-size="10.00">odp/api/abi/std_types.h</text>
</a>
</g>
</g>
<!-- Node2&#45;&gt;Node3 -->
<g id="edge2" class="edge">
<title>Node2&#45;&gt;Node3</title>
<path fill="none" stroke="midnightblue" d="M369,-224.08C369,-217.01 369,-206.86 369,-197.99"/>
<polygon fill="midnightblue" stroke="midnightblue" points="372.5,-197.75 369,-187.75 365.5,-197.75 372.5,-197.75"/>
</g>
<!-- Node4 -->
<g id="node4" class="node">
<title>Node4</title>
<g id="a_node4"><a xlink:href="spec_2std__types_8h.html" target="_top" xlink:title=" ">
<polygon fill="white" stroke="black" points="490.5,-168.5 490.5,-187.5 627.5,-187.5 627.5,-168.5 490.5,-168.5"/>
<text text-anchor="middle" x="559" y="-175.5" font-family="Helvetica,sans-Serif" font-size="10.00">odp/api/spec/std_types.h</text>
</a>
</g>
</g>
<!-- Node2&#45;&gt;Node4 -->
<g id="edge3" class="edge">
<title>Node2&#45;&gt;Node4</title>
<path fill="none" stroke="midnightblue" d="M399.11,-224.44C431.63,-215.2 483.58,-200.44 519.39,-190.26"/>
<polygon fill="midnightblue" stroke="midnightblue" points="520.37,-193.62 529.03,-187.52 518.46,-186.88 520.37,-193.62"/>
</g>
<!-- Node5 -->
<g id="node5" class="node">
<title>Node5</title>
<g id="a_node5"><a xlink:title=" ">
<polygon fill="white" stroke="#bfbfbf" points="760.5,-0.5 760.5,-19.5 881.5,-19.5 881.5,-0.5 760.5,-0.5"/>
<text text-anchor="middle" x="821" y="-7.5" font-family="Helvetica,sans-Serif" font-size="10.00">odp/visibility_begin.h</text>
</a>
</g>
</g>
<!-- Node4&#45;&gt;Node5 -->
<g id="edge4" class="edge">
<title>Node4&#45;&gt;Node5</title>
<path fill="none" stroke="midnightblue" d="M583.79,-168.43C624.2,-153.7 705.6,-120.79 764,-76 781.98,-62.21 798.57,-42.09 809.16,-27.89"/>
<polygon fill="midnightblue" stroke="midnightblue" points="812.18,-29.7 815.21,-19.54 806.51,-25.59 812.18,-29.7"/>
</g>
<!-- Node6 -->
<g id="node6" class="node">
<title>Node6</title>
<g id="a_node6"><a xlink:title=" ">
<polygon fill="white" stroke="#bfbfbf" points="430.5,-112.5 430.5,-131.5 483.5,-131.5 483.5,-112.5 430.5,-112.5"/>
<text text-anchor="middle" x="457" y="-119.5" font-family="Helvetica,sans-Serif" font-size="10.00">stdint.h</text>
</a>
</g>
</g>
<!-- Node4&#45;&gt;Node6 -->
<g id="edge5" class="edge">
<title>Node4&#45;&gt;Node6</title>
<path fill="none" stroke="midnightblue" d="M542.61,-168.32C526.33,-159.7 501.13,-146.36 482.28,-136.39"/>
<polygon fill="midnightblue" stroke="midnightblue" points="483.82,-133.24 473.35,-131.65 480.55,-139.43 483.82,-133.24"/>
</g>
<!-- Node7 -->
<g id="node7" class="node">
<title>Node7</title>
<g id="a_node7"><a xlink:href="align_8h.html" target="_top" xlink:title=" ">
<polygon fill="white" stroke="black" points="501.5,-112.5 501.5,-131.5 590.5,-131.5 590.5,-112.5 501.5,-112.5"/>
<text text-anchor="middle" x="546" y="-119.5" font-family="Helvetica,sans-Serif" font-size="10.00">odp/api/align.h</text>
</a>
</g>
</g>
<!-- Node4&#45;&gt;Node7 -->
<g id="edge6" class="edge">
<title>Node4&#45;&gt;Node7</title>
<path fill="none" stroke="midnightblue" d="M556.85,-168.08C555.13,-160.93 552.65,-150.64 550.5,-141.69"/>
<polygon fill="midnightblue" stroke="midnightblue" points="553.85,-140.65 548.11,-131.75 547.04,-142.29 553.85,-140.65"/>
</g>
<!-- Node10 -->
<g id="node10" class="node">
<title>Node10</title>
<g id="a_node10"><a xlink:title=" ">
<polygon fill="white" stroke="#bfbfbf" points="97,-0.5 97,-19.5 209,-19.5 209,-0.5 97,-0.5"/>
<text text-anchor="middle" x="153" y="-7.5" font-family="Helvetica,sans-Serif" font-size="10.00">odp/visibility_end.h</text>
</a>
</g>
</g>
<!-- Node4&#45;&gt;Node10 -->
<g id="edge11" class="edge">
<title>Node4&#45;&gt;Node10</title>
<path fill="none" stroke="midnightblue" d="M524.6,-168.44C496.1,-160.72 454.91,-148.12 421,-132 364.66,-105.22 359.65,-82.11 303,-56 270.5,-41.02 231.77,-29.55 201.8,-21.94"/>
<polygon fill="midnightblue" stroke="midnightblue" points="202.55,-18.52 192,-19.51 200.86,-25.31 202.55,-18.52"/>
</g>
<!-- Node8 -->
<g id="node8" class="node">
<title>Node8</title>
<g id="a_node8"><a xlink:title=" ">
<polygon fill="white" stroke="#bfbfbf" points="351.5,-56.5 351.5,-75.5 458.5,-75.5 458.5,-56.5 351.5,-56.5"/>
<text text-anchor="middle" x="405" y="-63.5" font-family="Helvetica,sans-Serif" font-size="10.00">odp/api/abi/align.h</text>
</a>
</g>
</g>
<!-- Node7&#45;&gt;Node8 -->
<g id="edge7" class="edge">
<title>Node7&#45;&gt;Node8</title>
<path fill="none" stroke="midnightblue" d="M523.66,-112.44C500.25,-103.48 463.26,-89.31 436.81,-79.18"/>
<polygon fill="midnightblue" stroke="midnightblue" points="437.83,-75.82 427.24,-75.52 435.32,-82.36 437.83,-75.82"/>
</g>
<!-- Node9 -->
<g id="node9" class="node">
<title>Node9</title>
<g id="a_node9"><a xlink:href="spec_2align_8h.html" target="_top" xlink:title=" ">
<polygon fill="white" stroke="black" points="477,-56.5 477,-75.5 591,-75.5 591,-56.5 477,-56.5"/>
<text text-anchor="middle" x="534" y="-63.5" font-family="Helvetica,sans-Serif" font-size="10.00">odp/api/spec/align.h</text>
</a>
</g>
</g>
<!-- Node7&#45;&gt;Node9 -->
<g id="edge8" class="edge">
<title>Node7&#45;&gt;Node9</title>
<path fill="none" stroke="midnightblue" d="M544.02,-112.08C542.43,-104.93 540.14,-94.64 538.15,-85.69"/>
<polygon fill="midnightblue" stroke="midnightblue" points="541.53,-84.75 535.94,-75.75 534.7,-86.27 541.53,-84.75"/>
</g>
<!-- Node9&#45;&gt;Node5 -->
<g id="edge9" class="edge">
<title>Node9&#45;&gt;Node5</title>
<path fill="none" stroke="midnightblue" d="M579.48,-56.44C629.96,-46.94 711.46,-31.61 765.62,-21.42"/>
<polygon fill="midnightblue" stroke="midnightblue" points="766.56,-24.81 775.74,-19.52 765.26,-17.93 766.56,-24.81"/>
</g>
<!-- Node9&#45;&gt;Node10 -->
<g id="edge10" class="edge">
<title>Node9&#45;&gt;Node10</title>
<path fill="none" stroke="midnightblue" d="M476.96,-56.92C407.96,-47.14 292.03,-30.7 219.17,-20.38"/>
<polygon fill="midnightblue" stroke="midnightblue" points="219.58,-16.9 209.19,-18.96 218.6,-23.83 219.58,-16.9"/>
</g>
<!-- Node17&#45;&gt;Node5 -->
<g id="edge19" class="edge">
<title>Node17&#45;&gt;Node5</title>
<path fill="none" stroke="midnightblue" d="M472.21,-662.81C617.87,-647.27 973,-604.18 973,-553.5 973,-553.5 973,-553.5 973,-121 973,-67.44 910.29,-37.3 865.43,-22.59"/>
<polygon fill="midnightblue" stroke="midnightblue" points="866.46,-19.25 855.87,-19.6 864.37,-25.93 866.46,-19.25"/>
</g>
<!-- Node17&#45;&gt;Node10 -->
<g id="edge53" class="edge">
<title>Node17&#45;&gt;Node10</title>
<path fill="none" stroke="midnightblue" d="M349.91,-664.57C235.42,-654.58 0,-625.3 0,-553.5 0,-553.5 0,-553.5 0,-121 0,-67.21 63.12,-37.13 108.28,-22.5"/>
<polygon fill="midnightblue" stroke="midnightblue" points="109.38,-25.83 117.9,-19.53 107.31,-19.14 109.38,-25.83"/>
</g>
<!-- Node18 -->
<g id="node18" class="node">
<title>Node18</title>
<g id="a_node18"><a xlink:href="proto__stats__types_8h.html" target="_top" xlink:title=" ">
<polygon fill="white" stroke="black" points="396,-470.5 396,-500.5 506,-500.5 506,-470.5 396,-470.5"/>
<text text-anchor="start" x="404" y="-488.5" font-family="Helvetica,sans-Serif" font-size="10.00">odp/api/proto_stats</text>
<text text-anchor="middle" x="451" y="-477.5" font-family="Helvetica,sans-Serif" font-size="10.00">_types.h</text>
</a>
</g>
</g>
<!-- Node17&#45;&gt;Node18 -->
<g id="edge20" class="edge">
<title>Node17&#45;&gt;Node18</title>
<path fill="none" stroke="midnightblue" d="M402.79,-660.18C395.46,-651.66 385.24,-638.02 381,-624 375.11,-604.55 371.1,-563.14 385,-537 391.64,-524.51 402.87,-514.19 414.2,-506.19"/>
<polygon fill="midnightblue" stroke="midnightblue" points="416.37,-508.95 422.81,-500.54 412.53,-503.1 416.37,-508.95"/>
</g>
<!-- Node21 -->
<g id="node21" class="node">
<title>Node21</title>
<g id="a_node21"><a xlink:href="time_8h.html" target="_top" xlink:title=" ">
<polygon fill="white" stroke="black" points="162.5,-286 162.5,-305 249.5,-305 249.5,-286 162.5,-286"/>
<text text-anchor="middle" x="206" y="-293" font-family="Helvetica,sans-Serif" font-size="10.00">odp/api/time.h</text>
</a>
</g>
</g>
<!-- Node17&#45;&gt;Node21 -->
<g id="edge26" class="edge">
<title>Node17&#45;&gt;Node21</title>
<path fill="none" stroke="midnightblue" d="M402.49,-660.18C394.32,-651.44 381.94,-637.46 373,-624 299.31,-513.08 234.8,-365.4 213.46,-314.58"/>
<polygon fill="midnightblue" stroke="midnightblue" points="216.65,-313.13 209.57,-305.25 210.19,-315.83 216.65,-313.13"/>
</g>
<!-- Node24 -->
<g id="node24" class="node">
<title>Node24</title>
<g id="a_node24"><a xlink:href="packet__types_8h.html" target="_top" xlink:title=" ">
<polygon fill="white" stroke="black" points="390.5,-604.5 390.5,-623.5 519.5,-623.5 519.5,-604.5 390.5,-604.5"/>
<text text-anchor="middle" x="455" y="-611.5" font-family="Helvetica,sans-Serif" font-size="10.00">odp/api/packet_types.h</text>
</a>
</g>
</g>
<!-- Node17&#45;&gt;Node24 -->
<g id="edge32" class="edge">
<title>Node17&#45;&gt;Node24</title>
<path fill="none" stroke="midnightblue" d="M418.27,-660.08C424.54,-652.38 433.79,-641.03 441.43,-631.65"/>
<polygon fill="midnightblue" stroke="midnightblue" points="444.27,-633.71 447.87,-623.75 438.84,-629.29 444.27,-633.71"/>
</g>
<!-- Node19 -->
<g id="node19" class="node">
<title>Node19</title>
<g id="a_node19"><a xlink:title=" ">
<polygon fill="white" stroke="#bfbfbf" points="479,-403.5 479,-433.5 607,-433.5 607,-403.5 479,-403.5"/>
<text text-anchor="start" x="487" y="-421.5" font-family="Helvetica,sans-Serif" font-size="10.00">odp/api/abi/proto_stats</text>
<text text-anchor="middle" x="543" y="-410.5" font-family="Helvetica,sans-Serif" font-size="10.00">_types.h</text>
</a>
</g>
</g>
<!-- Node18&#45;&gt;Node19 -->
<g id="edge21" class="edge">
<title>Node18&#45;&gt;Node19</title>
<path fill="none" stroke="midnightblue" d="M470.96,-470.4C483.74,-461.37 500.52,-449.51 514.67,-439.52"/>
<polygon fill="midnightblue" stroke="midnightblue" points="516.93,-442.21 523.08,-433.58 512.89,-436.49 516.93,-442.21"/>
</g>
<!-- Node20 -->
<g id="node20" class="node">
<title>Node20</title>
<g id="a_node20"><a xlink:href="spec_2proto__stats__types_8h.html" target="_top" xlink:title=" ">
<polygon fill="white" stroke="black" points="584.5,-280.5 584.5,-310.5 691.5,-310.5 691.5,-280.5 584.5,-280.5"/>
<text text-anchor="start" x="592.5" y="-298.5" font-family="Helvetica,sans-Serif" font-size="10.00">odp/api/spec/proto</text>
<text text-anchor="middle" x="638" y="-287.5" font-family="Helvetica,sans-Serif" font-size="10.00">_stats_types.h</text>
</a>
</g>
</g>
<!-- Node18&#45;&gt;Node20 -->
<g id="edge22" class="edge">
<title>Node18&#45;&gt;Node20</title>
<path fill="none" stroke="midnightblue" d="M451.14,-470.21C451.97,-452.82 455.62,-423.26 470,-403 499.86,-360.95 552.05,-331.72 590.36,-314.66"/>
<polygon fill="midnightblue" stroke="midnightblue" points="591.99,-317.76 599.78,-310.58 589.21,-311.34 591.99,-317.76"/>
</g>
<!-- Node20&#45;&gt;Node2 -->
<g id="edge24" class="edge">
<title>Node20&#45;&gt;Node2</title>
<path fill="none" stroke="midnightblue" d="M584.24,-281.87C581.46,-281.24 578.7,-280.61 576,-280 522.47,-267.92 461.03,-254.64 419.08,-245.66"/>
<polygon fill="midnightblue" stroke="midnightblue" points="419.62,-242.19 409.11,-243.52 418.16,-249.04 419.62,-242.19"/>
</g>
<!-- Node20&#45;&gt;Node5 -->
<g id="edge23" class="edge">
<title>Node20&#45;&gt;Node5</title>
<path fill="none" stroke="midnightblue" d="M668.1,-280.49C714.13,-257.17 800.31,-205.59 835,-132 850.87,-98.34 838.31,-53.79 828.9,-29.22"/>
<polygon fill="midnightblue" stroke="midnightblue" points="832.05,-27.66 825.04,-19.72 825.57,-30.3 832.05,-27.66"/>
</g>
<!-- Node20&#45;&gt;Node10 -->
<g id="edge25" class="edge">
<title>Node20&#45;&gt;Node10</title>
<path fill="none" stroke="midnightblue" d="M619.82,-280.48C586.38,-255.21 512.17,-201.53 443,-168 328.54,-112.52 259.99,-167.85 172,-76 160.19,-63.67 155.67,-44.42 153.96,-30.06"/>
<polygon fill="midnightblue" stroke="midnightblue" points="157.43,-29.5 153.11,-19.83 150.45,-30.08 157.43,-29.5"/>
</g>
<!-- Node21&#45;&gt;Node2 -->
<g id="edge27" class="edge">
<title>Node21&#45;&gt;Node2</title>
<path fill="none" stroke="midnightblue" d="M229.35,-285.98C257.31,-275.77 304.33,-258.61 335.99,-247.05"/>
<polygon fill="midnightblue" stroke="midnightblue" points="337.5,-250.23 345.69,-243.51 335.1,-243.65 337.5,-250.23"/>
</g>
<!-- Node22 -->
<g id="node22" class="node">
<title>Node22</title>
<g id="a_node22"><a xlink:title=" ">
<polygon fill="white" stroke="#bfbfbf" points="104.5,-224.5 104.5,-243.5 209.5,-243.5 209.5,-224.5 104.5,-224.5"/>
<text text-anchor="middle" x="157" y="-231.5" font-family="Helvetica,sans-Serif" font-size="10.00">odp/api/abi/time.h</text>
</a>
</g>
</g>
<!-- Node21&#45;&gt;Node22 -->
<g id="edge28" class="edge">
<title>Node21&#45;&gt;Node22</title>
<path fill="none" stroke="midnightblue" d="M198.98,-285.98C191.56,-276.96 179.67,-262.52 170.43,-251.31"/>
<polygon fill="midnightblue" stroke="midnightblue" points="173.07,-249 164.01,-243.51 167.66,-253.45 173.07,-249"/>
</g>
<!-- Node23 -->
<g id="node23" class="node">
<title>Node23</title>
<g id="a_node23"><a xlink:href="spec_2time_8h.html" target="_top" xlink:title=" ">
<polygon fill="white" stroke="black" points="181.5,-56.5 181.5,-75.5 294.5,-75.5 294.5,-56.5 181.5,-56.5"/>
<text text-anchor="middle" x="238" y="-63.5" font-family="Helvetica,sans-Serif" font-size="10.00">odp/api/spec/time.h</text>
</a>
</g>
</g>
<!-- Node21&#45;&gt;Node23 -->
<g id="edge29" class="edge">
<title>Node21&#45;&gt;Node23</title>
<path fill="none" stroke="midnightblue" d="M208.36,-285.99C211.04,-276 215.4,-258.91 218,-244 228,-186.75 234.09,-118.17 236.63,-85.75"/>
<polygon fill="midnightblue" stroke="midnightblue" points="240.14,-85.76 237.4,-75.53 233.16,-85.23 240.14,-85.76"/>
</g>
<!-- Node23&#45;&gt;Node5 -->
<g id="edge30" class="edge">
<title>Node23&#45;&gt;Node5</title>
<path fill="none" stroke="midnightblue" d="M294.7,-59.75C401.63,-49.84 632.87,-28.43 749.97,-17.58"/>
<polygon fill="midnightblue" stroke="midnightblue" points="750.62,-21.03 760.25,-16.63 749.97,-14.06 750.62,-21.03"/>
</g>
<!-- Node23&#45;&gt;Node10 -->
<g id="edge31" class="edge">
<title>Node23&#45;&gt;Node10</title>
<path fill="none" stroke="midnightblue" d="M224.34,-56.32C211.08,-47.9 190.73,-34.97 175.15,-25.07"/>
<polygon fill="midnightblue" stroke="midnightblue" points="176.94,-22.06 166.62,-19.65 173.19,-27.97 176.94,-22.06"/>
</g>
<!-- Node24&#45;&gt;Node13 -->
<g id="edge33" class="edge">
<title>Node24&#45;&gt;Node13</title>
<path fill="none" stroke="midnightblue" d="M472.77,-604.48C490.42,-596 518.07,-582.74 540.73,-571.86"/>
<polygon fill="midnightblue" stroke="midnightblue" points="542.27,-575 549.78,-567.52 539.25,-568.69 542.27,-575"/>
</g>
<!-- Node25 -->
<g id="node25" class="node">
<title>Node25</title>
<g id="a_node25"><a xlink:href="spec_2packet__types_8h.html" target="_top" xlink:title=" ">
<polygon fill="white" stroke="black" points="394.5,-537.5 394.5,-567.5 507.5,-567.5 507.5,-537.5 394.5,-537.5"/>
<text text-anchor="start" x="402.5" y="-555.5" font-family="Helvetica,sans-Serif" font-size="10.00">odp/api/spec/packet</text>
<text text-anchor="middle" x="451" y="-544.5" font-family="Helvetica,sans-Serif" font-size="10.00">_types.h</text>
</a>
</g>
</g>
<!-- Node24&#45;&gt;Node25 -->
<g id="edge34" class="edge">
<title>Node24&#45;&gt;Node25</title>
<path fill="none" stroke="midnightblue" d="M454.43,-604.48C453.96,-597.47 453.27,-587.19 452.63,-577.7"/>
<polygon fill="midnightblue" stroke="midnightblue" points="456.11,-577.27 451.94,-567.52 449.12,-577.74 456.11,-577.27"/>
</g>
<!-- Node25&#45;&gt;Node5 -->
<g id="edge35" class="edge">
<title>Node25&#45;&gt;Node5</title>
<path fill="none" stroke="midnightblue" d="M507.83,-538.73C510.93,-538.12 514,-537.54 517,-537 611.96,-519.87 935,-515.99 935,-419.5 935,-419.5 935,-419.5 935,-121 935,-74.11 884.45,-40.89 850.67,-23.93"/>
<polygon fill="midnightblue" stroke="midnightblue" points="852.17,-20.77 841.64,-19.58 849.13,-27.07 852.17,-20.77"/>
</g>
<!-- Node25&#45;&gt;Node10 -->
<g id="edge52" class="edge">
<title>Node25&#45;&gt;Node10</title>
<path fill="none" stroke="midnightblue" d="M394.44,-545.41C281.33,-531.65 38,-493.46 38,-419.5 38,-419.5 38,-419.5 38,-121 38,-73.9 88.99,-40.75 123.07,-23.86"/>
<polygon fill="midnightblue" stroke="midnightblue" points="124.65,-26.98 132.17,-19.53 121.64,-20.66 124.65,-26.98"/>
</g>
<!-- Node25&#45;&gt;Node18 -->
<g id="edge36" class="edge">
<title>Node25&#45;&gt;Node18</title>
<path fill="none" stroke="midnightblue" d="M451,-537.4C451,-529.64 451,-519.81 451,-510.86"/>
<polygon fill="midnightblue" stroke="midnightblue" points="454.5,-510.58 451,-500.58 447.5,-510.58 454.5,-510.58"/>
</g>
<!-- Node26 -->
<g id="node26" class="node">
<title>Node26</title>
<g id="a_node26"><a xlink:href="queue__types_8h.html" target="_top" xlink:title=" ">
<polygon fill="white" stroke="black" points="634.5,-476 634.5,-495 761.5,-495 761.5,-476 634.5,-476"/>
<text text-anchor="middle" x="698" y="-483" font-family="Helvetica,sans-Serif" font-size="10.00">odp/api/queue_types.h</text>
</a>
</g>
</g>
<!-- Node25&#45;&gt;Node26 -->
<g id="edge37" class="edge">
<title>Node25&#45;&gt;Node26</title>
<path fill="none" stroke="midnightblue" d="M504.29,-537.48C549.62,-525.55 613.85,-508.64 655.72,-497.63"/>
<polygon fill="midnightblue" stroke="midnightblue" points="656.81,-500.96 665.59,-495.03 655.03,-494.19 656.81,-500.96"/>
</g>
<!-- Node27 -->
<g id="node27" class="node">
<title>Node27</title>
<g id="a_node27"><a xlink:title=" ">
<polygon fill="white" stroke="#bfbfbf" points="625.5,-409 625.5,-428 770.5,-428 770.5,-409 625.5,-409"/>
<text text-anchor="middle" x="698" y="-416" font-family="Helvetica,sans-Serif" font-size="10.00">odp/api/abi/queue_types.h</text>
</a>
</g>
</g>
<!-- Node26&#45;&gt;Node27 -->
<g id="edge38" class="edge">
<title>Node26&#45;&gt;Node27</title>
<path fill="none" stroke="midnightblue" d="M698,-475.73C698,-466.18 698,-450.62 698,-438.28"/>
<polygon fill="midnightblue" stroke="midnightblue" points="701.5,-438.13 698,-428.13 694.5,-438.13 701.5,-438.13"/>
</g>
<!-- Node28 -->
<g id="node28" class="node">
<title>Node28</title>
<g id="a_node28"><a xlink:href="spec_2queue__types_8h.html" target="_top" xlink:title=" ">
<polygon fill="white" stroke="black" points="788.5,-403.5 788.5,-433.5 899.5,-433.5 899.5,-403.5 788.5,-403.5"/>
<text text-anchor="start" x="796.5" y="-421.5" font-family="Helvetica,sans-Serif" font-size="10.00">odp/api/spec/queue</text>
<text text-anchor="middle" x="844" y="-410.5" font-family="Helvetica,sans-Serif" font-size="10.00">_types.h</text>
</a>
</g>
</g>
<!-- Node26&#45;&gt;Node28 -->
<g id="edge39" class="edge">
<title>Node26&#45;&gt;Node28</title>
<path fill="none" stroke="midnightblue" d="M717.39,-475.87C739.2,-466.16 775.25,-450.11 803.31,-437.61"/>
<polygon fill="midnightblue" stroke="midnightblue" points="804.78,-440.79 812.49,-433.53 801.93,-434.4 804.78,-440.79"/>
</g>
<!-- Node28&#45;&gt;Node5 -->
<g id="edge40" class="edge">
<title>Node28&#45;&gt;Node5</title>
<path fill="none" stroke="midnightblue" d="M854.73,-403.48C870.21,-381.79 897,-338.24 897,-296.5 897,-296.5 897,-296.5 897,-121 897,-81.28 863.04,-45.5 840.52,-26.15"/>
<polygon fill="midnightblue" stroke="midnightblue" points="842.48,-23.24 832.54,-19.57 838.02,-28.63 842.48,-23.24"/>
</g>
<!-- Node28&#45;&gt;Node10 -->
<g id="edge51" class="edge">
<title>Node28&#45;&gt;Node10</title>
<path fill="none" stroke="midnightblue" d="M788.24,-404.36C785.46,-403.86 782.7,-403.4 780,-403 567.11,-371.13 508.32,-407.99 297,-367 195.79,-347.37 76,-399.6 76,-296.5 76,-296.5 76,-296.5 76,-121 76,-80.93 110.71,-45.08 133.53,-25.84"/>
<polygon fill="midnightblue" stroke="midnightblue" points="135.74,-28.55 141.31,-19.53 131.33,-23.11 135.74,-28.55"/>
</g>
<!-- Node29 -->
<g id="node29" class="node">
<title>Node29</title>
<g id="a_node29"><a xlink:href="schedule__types_8h.html" target="_top" xlink:title=" ">
<polygon fill="white" stroke="black" points="306,-347.5 306,-366.5 446,-366.5 446,-347.5 306,-347.5"/>
<text text-anchor="middle" x="376" y="-354.5" font-family="Helvetica,sans-Serif" font-size="10.00">odp/api/schedule_types.h</text>
</a>
</g>
</g>
<!-- Node28&#45;&gt;Node29 -->
<g id="edge41" class="edge">
<title>Node28&#45;&gt;Node29</title>
<path fill="none" stroke="midnightblue" d="M788.23,-404.48C785.45,-403.95 782.7,-403.45 780,-403 668.27,-384.18 537.78,-371.27 456.01,-364.25"/>
<polygon fill="midnightblue" stroke="midnightblue" points="456.29,-360.77 446.03,-363.41 455.7,-367.74 456.29,-360.77"/>
</g>
<!-- Node32 -->
<g id="node32" class="node">
<title>Node32</title>
<g id="a_node32"><a xlink:href="deprecated_8h.html" target="_top" xlink:title=" ">
<polygon fill="white" stroke="black" points="733.5,-347.5 733.5,-366.5 852.5,-366.5 852.5,-347.5 733.5,-347.5"/>
<text text-anchor="middle" x="793" y="-354.5" font-family="Helvetica,sans-Serif" font-size="10.00">odp/api/deprecated.h</text>
</a>
</g>
</g>
<!-- Node28&#45;&gt;Node32 -->
<g id="edge47" class="edge">
<title>Node28&#45;&gt;Node32</title>
<path fill="none" stroke="midnightblue" d="M831.91,-403.4C824.43,-394.66 814.78,-383.41 806.97,-374.3"/>
<polygon fill="midnightblue" stroke="midnightblue" points="809.59,-371.97 800.42,-366.66 804.27,-376.53 809.59,-371.97"/>
</g>
<!-- Node30 -->
<g id="node30" class="node">
<title>Node30</title>
<g id="a_node30"><a xlink:title=" ">
<polygon fill="white" stroke="#bfbfbf" points="449.5,-280.5 449.5,-310.5 566.5,-310.5 566.5,-280.5 449.5,-280.5"/>
<text text-anchor="start" x="457.5" y="-298.5" font-family="Helvetica,sans-Serif" font-size="10.00">odp/api/abi/schedule</text>
<text text-anchor="middle" x="508" y="-287.5" font-family="Helvetica,sans-Serif" font-size="10.00">_types.h</text>
</a>
</g>
</g>
<!-- Node29&#45;&gt;Node30 -->
<g id="edge42" class="edge">
<title>Node29&#45;&gt;Node30</title>
<path fill="none" stroke="midnightblue" d="M394.91,-347.48C413.79,-338.96 443.4,-325.62 467.58,-314.72"/>
<polygon fill="midnightblue" stroke="midnightblue" points="469.21,-317.82 476.89,-310.52 466.34,-311.44 469.21,-317.82"/>
</g>
<!-- Node31 -->
<g id="node31" class="node">
<title>Node31</title>
<g id="a_node31"><a xlink:href="spec_2schedule__types_8h.html" target="_top" xlink:title=" ">
<polygon fill="white" stroke="black" points="306.5,-280.5 306.5,-310.5 431.5,-310.5 431.5,-280.5 306.5,-280.5"/>
<text text-anchor="start" x="314.5" y="-298.5" font-family="Helvetica,sans-Serif" font-size="10.00">odp/api/spec/schedule</text>
<text text-anchor="middle" x="369" y="-287.5" font-family="Helvetica,sans-Serif" font-size="10.00">_types.h</text>
</a>
</g>
</g>
<!-- Node29&#45;&gt;Node31 -->
<g id="edge43" class="edge">
<title>Node29&#45;&gt;Node31</title>
<path fill="none" stroke="midnightblue" d="M375,-347.48C374.17,-340.47 372.96,-330.19 371.85,-320.7"/>
<polygon fill="midnightblue" stroke="midnightblue" points="375.29,-320.05 370.65,-310.52 368.34,-320.86 375.29,-320.05"/>
</g>
<!-- Node31&#45;&gt;Node2 -->
<g id="edge45" class="edge">
<title>Node31&#45;&gt;Node2</title>
<path fill="none" stroke="midnightblue" d="M369,-280.4C369,-272.47 369,-262.46 369,-253.86"/>
<polygon fill="midnightblue" stroke="midnightblue" points="372.5,-253.66 369,-243.66 365.5,-253.66 372.5,-253.66"/>
</g>
<!-- Node31&#45;&gt;Node5 -->
<g id="edge44" class="edge">
<title>Node31&#45;&gt;Node5</title>
<path fill="none" stroke="midnightblue" d="M424.13,-280.47C513.45,-254.94 689.69,-192.44 788,-76 799.84,-61.98 808.86,-42.98 814.45,-29.15"/>
<polygon fill="midnightblue" stroke="midnightblue" points="817.74,-30.33 818.05,-19.74 811.2,-27.83 817.74,-30.33"/>
</g>
<!-- Node31&#45;&gt;Node10 -->
<g id="edge46" class="edge">
<title>Node31&#45;&gt;Node10</title>
<path fill="none" stroke="midnightblue" d="M343.36,-280.36C292.4,-250.53 179.76,-175.66 139,-76 132.73,-60.67 137.88,-42.12 143.63,-28.76"/>
<polygon fill="midnightblue" stroke="midnightblue" points="146.8,-30.23 147.95,-19.7 140.48,-27.22 146.8,-30.23"/>
</g>
<!-- Node33 -->
<g id="node33" class="node">
<title>Node33</title>
<g id="a_node33"><a xlink:href="spec_2deprecated_8h.html" target="_top" xlink:title=" ">
<polygon fill="white" stroke="black" points="609.5,-56.5 609.5,-75.5 754.5,-75.5 754.5,-56.5 609.5,-56.5"/>
<text text-anchor="middle" x="682" y="-63.5" font-family="Helvetica,sans-Serif" font-size="10.00">odp/api/spec/deprecated.h</text>
</a>
</g>
</g>
<!-- Node32&#45;&gt;Node33 -->
<g id="edge48" class="edge">
<title>Node32&#45;&gt;Node33</title>
<path fill="none" stroke="midnightblue" d="M789.68,-347.35C774.36,-307.46 710.37,-140.86 688.99,-85.2"/>
<polygon fill="midnightblue" stroke="midnightblue" points="692.16,-83.7 685.31,-75.62 685.63,-86.21 692.16,-83.7"/>
</g>
<!-- Node33&#45;&gt;Node5 -->
<g id="edge49" class="edge">
<title>Node33&#45;&gt;Node5</title>
<path fill="none" stroke="midnightblue" d="M704.02,-56.44C727.1,-47.48 763.56,-33.31 789.64,-23.18"/>
<polygon fill="midnightblue" stroke="midnightblue" points="791.02,-26.4 799.08,-19.52 788.49,-19.88 791.02,-26.4"/>
</g>
<!-- Node33&#45;&gt;Node10 -->
<g id="edge50" class="edge">
<title>Node33&#45;&gt;Node10</title>
<path fill="none" stroke="midnightblue" d="M609.13,-56.97C606.04,-56.64 602.99,-56.31 600,-56 464.76,-41.77 306.4,-26.05 219.14,-17.47"/>
<polygon fill="midnightblue" stroke="midnightblue" points="219.41,-13.98 209.12,-16.49 218.73,-20.95 219.41,-13.98"/>
</g>
</g>
</svg>
