<?xml version="1.0" encoding="UTF-8" standalone="no"?>
<!DOCTYPE svg PUBLIC "-//W3C//DTD SVG 1.1//EN"
 "http://www.w3.org/Graphics/SVG/1.1/DTD/svg11.dtd">
<!-- Generated by graphviz version 2.43.0 (0)
 -->
<!-- Title: packet_inlines.h Pages: 1 -->
<svg width="1760pt" height="710pt"
 viewBox="0.00 0.00 1759.50 710.00" xmlns="http://www.w3.org/2000/svg" xmlns:xlink="http://www.w3.org/1999/xlink">
<g id="graph0" class="graph" transform="scale(1 1) rotate(0) translate(4 706)">
<title>packet_inlines.h</title>
<polygon fill="white" stroke="transparent" points="-4,4 -4,-706 1755.5,-706 1755.5,4 -4,4"/>
<!-- Node1 -->
<g id="node1" class="node">
<title>Node1</title>
<g id="a_node1"><a xlink:title=" ">
<polygon fill="#bfbfbf" stroke="black" points="1040.5,-682.5 1040.5,-701.5 1135.5,-701.5 1135.5,-682.5 1040.5,-682.5"/>
<text text-anchor="middle" x="1088" y="-689.5" font-family="Helvetica,sans-Serif" font-size="10.00">packet_inlines.h</text>
</a>
</g>
</g>
<!-- Node2 -->
<g id="node2" class="node">
<title>Node2</title>
<g id="a_node2"><a xlink:title=" ">
<polygon fill="white" stroke="#bfbfbf" points="443.5,-621 443.5,-640 558.5,-640 558.5,-621 443.5,-621"/>
<text text-anchor="middle" x="501" y="-628" font-family="Helvetica,sans-Serif" font-size="10.00">odp/api/abi/packet.h</text>
</a>
</g>
</g>
<!-- Node1&#45;&gt;Node2 -->
<g id="edge1" class="edge">
<title>Node1&#45;&gt;Node2</title>
<path fill="none" stroke="midnightblue" d="M1040.22,-688.61C949.03,-683.65 744.01,-670.61 573,-646 565.28,-644.89 557.14,-643.48 549.22,-641.98"/>
<polygon fill="midnightblue" stroke="midnightblue" points="549.84,-638.54 539.35,-640.05 548.49,-645.41 549.84,-638.54"/>
</g>
<!-- Node3 -->
<g id="node3" class="node">
<title>Node3</title>
<g id="a_node3"><a xlink:href="packet__types_8h.html" target="_top" xlink:title=" ">
<polygon fill="white" stroke="black" points="731.5,-621 731.5,-640 860.5,-640 860.5,-621 731.5,-621"/>
<text text-anchor="middle" x="796" y="-628" font-family="Helvetica,sans-Serif" font-size="10.00">odp/api/packet_types.h</text>
</a>
</g>
</g>
<!-- Node1&#45;&gt;Node3 -->
<g id="edge2" class="edge">
<title>Node1&#45;&gt;Node3</title>
<path fill="none" stroke="midnightblue" d="M1046.16,-682.48C993.8,-671.8 904.13,-653.53 847.57,-642.01"/>
<polygon fill="midnightblue" stroke="midnightblue" points="848.26,-638.58 837.76,-640.01 846.86,-645.44 848.26,-638.58"/>
</g>
<!-- Node26 -->
<g id="node26" class="node">
<title>Node26</title>
<g id="a_node26"><a xlink:href="pool_8h.html" target="_top" xlink:title=" ">
<polygon fill="white" stroke="black" points="1010,-621 1010,-640 1096,-640 1096,-621 1010,-621"/>
<text text-anchor="middle" x="1053" y="-628" font-family="Helvetica,sans-Serif" font-size="10.00">odp/api/pool.h</text>
</a>
</g>
</g>
<!-- Node1&#45;&gt;Node26 -->
<g id="edge38" class="edge">
<title>Node1&#45;&gt;Node26</title>
<path fill="none" stroke="midnightblue" d="M1082.99,-682.48C1077.84,-673.73 1069.69,-659.87 1063.18,-648.81"/>
<polygon fill="midnightblue" stroke="midnightblue" points="1066.09,-646.85 1058.01,-640.01 1060.06,-650.4 1066.09,-646.85"/>
</g>
<!-- Node29 -->
<g id="node29" class="node">
<title>Node29</title>
<g id="a_node29"><a xlink:title=" ">
<polygon fill="white" stroke="#bfbfbf" points="1296,-554 1296,-573 1406,-573 1406,-554 1296,-554"/>
<text text-anchor="middle" x="1351" y="-561" font-family="Helvetica,sans-Serif" font-size="10.00">odp/api/abi/event.h</text>
</a>
</g>
</g>
<!-- Node1&#45;&gt;Node29 -->
<g id="edge62" class="edge">
<title>Node1&#45;&gt;Node29</title>
<path fill="none" stroke="midnightblue" d="M1091.84,-682.4C1099.4,-666.47 1117.81,-632.44 1144,-615 1150.71,-610.53 1244.36,-588.71 1303.37,-575.26"/>
<polygon fill="midnightblue" stroke="midnightblue" points="1304.27,-578.64 1313.24,-573.01 1302.71,-571.82 1304.27,-578.64"/>
</g>
<!-- Node32 -->
<g id="node32" class="node">
<title>Node32</title>
<g id="a_node32"><a xlink:title=" ">
<polygon fill="white" stroke="#bfbfbf" points="1152.5,-621 1152.5,-640 1281.5,-640 1281.5,-621 1152.5,-621"/>
<text text-anchor="middle" x="1217" y="-628" font-family="Helvetica,sans-Serif" font-size="10.00">odp/api/abi/packet_io.h</text>
</a>
</g>
</g>
<!-- Node1&#45;&gt;Node32 -->
<g id="edge50" class="edge">
<title>Node1&#45;&gt;Node32</title>
<path fill="none" stroke="midnightblue" d="M1106.48,-682.48C1128.13,-672.49 1164.21,-655.85 1189.23,-644.31"/>
<polygon fill="midnightblue" stroke="midnightblue" points="1190.94,-647.38 1198.55,-640.01 1188.01,-641.02 1190.94,-647.38"/>
</g>
<!-- Node33 -->
<g id="node33" class="node">
<title>Node33</title>
<g id="a_node33"><a xlink:href="hints_8h.html" target="_top" xlink:title=" ">
<polygon fill="white" stroke="black" points="235.5,-487 235.5,-506 324.5,-506 324.5,-487 235.5,-487"/>
<text text-anchor="middle" x="280" y="-494" font-family="Helvetica,sans-Serif" font-size="10.00">odp/api/hints.h</text>
</a>
</g>
</g>
<!-- Node1&#45;&gt;Node33 -->
<g id="edge51" class="edge">
<title>Node1&#45;&gt;Node33</title>
<path fill="none" stroke="midnightblue" d="M1040.39,-688.22C970.04,-683.43 834.53,-671.55 722,-646 563.24,-609.96 381.14,-538.9 310.35,-510.08"/>
<polygon fill="midnightblue" stroke="midnightblue" points="311.31,-506.69 300.73,-506.15 308.66,-513.17 311.31,-506.69"/>
</g>
<!-- Node35 -->
<g id="node35" class="node">
<title>Node35</title>
<g id="a_node35"><a xlink:href="time_8h.html" target="_top" xlink:title=" ">
<polygon fill="white" stroke="black" points="826.5,-286 826.5,-305 913.5,-305 913.5,-286 826.5,-286"/>
<text text-anchor="middle" x="870" y="-293" font-family="Helvetica,sans-Serif" font-size="10.00">odp/api/time.h</text>
</a>
</g>
</g>
<!-- Node1&#45;&gt;Node35 -->
<g id="edge55" class="edge">
<title>Node1&#45;&gt;Node35</title>
<path fill="none" stroke="midnightblue" d="M1058.91,-682.49C1038.37,-675.35 1011.19,-663.47 992,-646 960.91,-617.7 944,-606.54 944,-564.5 944,-564.5 944,-564.5 944,-428.5 944,-381.5 907.86,-335.72 886.09,-312.42"/>
<polygon fill="midnightblue" stroke="midnightblue" points="888.54,-309.91 879.07,-305.14 883.5,-314.77 888.54,-309.91"/>
</g>
<!-- Node38 -->
<g id="node38" class="node">
<title>Node38</title>
<g id="a_node38"><a xlink:title=" ">
<polygon fill="white" stroke="#bfbfbf" points="1300,-621 1300,-640 1410,-640 1410,-621 1300,-621"/>
<text text-anchor="middle" x="1355" y="-628" font-family="Helvetica,sans-Serif" font-size="10.00">odp/api/abi/buffer.h</text>
</a>
</g>
</g>
<!-- Node1&#45;&gt;Node38 -->
<g id="edge61" class="edge">
<title>Node1&#45;&gt;Node38</title>
<path fill="none" stroke="midnightblue" d="M1126.93,-682.43C1167.8,-673.41 1233.94,-658.79 1291,-646 1296.35,-644.8 1301.95,-643.54 1307.52,-642.28"/>
<polygon fill="midnightblue" stroke="midnightblue" points="1308.46,-645.66 1317.44,-640.04 1306.92,-638.83 1308.46,-645.66"/>
</g>
<!-- Node39 -->
<g id="node39" class="node">
<title>Node39</title>
<g id="a_node39"><a xlink:href="packet__inline__types_8h.html" target="_top" xlink:title=" ">
<polygon fill="white" stroke="black" points="1098,-481.5 1098,-511.5 1208,-511.5 1208,-481.5 1098,-481.5"/>
<text text-anchor="start" x="1106" y="-499.5" font-family="Helvetica,sans-Serif" font-size="10.00">odp/api/plat/packet</text>
<text text-anchor="middle" x="1153" y="-488.5" font-family="Helvetica,sans-Serif" font-size="10.00">_inline_types.h</text>
</a>
</g>
</g>
<!-- Node1&#45;&gt;Node39 -->
<g id="edge63" class="edge">
<title>Node1&#45;&gt;Node39</title>
<path fill="none" stroke="midnightblue" d="M1052.99,-682.45C1034.07,-675.84 1012.32,-664.59 1001,-646 993.84,-634.23 997.49,-628.32 1001,-615 1009.73,-581.9 1013.63,-570.98 1039,-548 1054.65,-533.83 1074.92,-523.13 1094.02,-515.31"/>
<polygon fill="midnightblue" stroke="midnightblue" points="1095.52,-518.48 1103.57,-511.59 1092.98,-511.95 1095.52,-518.48"/>
</g>
<!-- Node40 -->
<g id="node40" class="node">
<title>Node40</title>
<g id="a_node40"><a xlink:href="pool__inline__types_8h.html" target="_top" xlink:title=" ">
<polygon fill="white" stroke="black" points="1428.5,-615.5 1428.5,-645.5 1559.5,-645.5 1559.5,-615.5 1428.5,-615.5"/>
<text text-anchor="start" x="1436.5" y="-633.5" font-family="Helvetica,sans-Serif" font-size="10.00">odp/api/plat/pool_inline</text>
<text text-anchor="middle" x="1494" y="-622.5" font-family="Helvetica,sans-Serif" font-size="10.00">_types.h</text>
</a>
</g>
</g>
<!-- Node1&#45;&gt;Node40 -->
<g id="edge65" class="edge">
<title>Node1&#45;&gt;Node40</title>
<path fill="none" stroke="midnightblue" d="M1135.54,-685.38C1197.99,-677.82 1311.3,-663.45 1418.2,-646.08"/>
<polygon fill="midnightblue" stroke="midnightblue" points="1418.88,-649.51 1428.19,-644.44 1417.75,-642.6 1418.88,-649.51"/>
</g>
<!-- Node41 -->
<g id="node41" class="node">
<title>Node41</title>
<g id="a_node41"><a xlink:href="pktio__inlines_8h_source.html" target="_top" xlink:title=" ">
<polygon fill="white" stroke="black" points="1578,-615.5 1578,-645.5 1680,-645.5 1680,-615.5 1578,-615.5"/>
<text text-anchor="start" x="1586" y="-633.5" font-family="Helvetica,sans-Serif" font-size="10.00">odp/api/plat/pktio</text>
<text text-anchor="middle" x="1629" y="-622.5" font-family="Helvetica,sans-Serif" font-size="10.00">_inlines.h</text>
</a>
</g>
</g>
<!-- Node1&#45;&gt;Node41 -->
<g id="edge66" class="edge">
<title>Node1&#45;&gt;Node41</title>
<path fill="none" stroke="midnightblue" d="M1135.74,-688.81C1220.72,-684.42 1403.89,-672.73 1567.47,-646.1"/>
<polygon fill="midnightblue" stroke="midnightblue" points="1568.42,-649.49 1577.71,-644.41 1567.28,-642.58 1568.42,-649.49"/>
</g>
<!-- Node42 -->
<g id="node42" class="node">
<title>Node42</title>
<g id="a_node42"><a xlink:title=" ">
<polygon fill="white" stroke="#bfbfbf" points="1698.5,-621 1698.5,-640 1751.5,-640 1751.5,-621 1698.5,-621"/>
<text text-anchor="middle" x="1725" y="-628" font-family="Helvetica,sans-Serif" font-size="10.00">string.h</text>
</a>
</g>
</g>
<!-- Node1&#45;&gt;Node42 -->
<g id="edge67" class="edge">
<title>Node1&#45;&gt;Node42</title>
<path fill="none" stroke="midnightblue" d="M1135.81,-689.32C1258.84,-684.69 1584.04,-670.45 1689,-646 1691.68,-645.38 1694.41,-644.58 1697.12,-643.69"/>
<polygon fill="midnightblue" stroke="midnightblue" points="1698.51,-646.91 1706.67,-640.15 1696.08,-640.35 1698.51,-646.91"/>
</g>
<!-- Node4 -->
<g id="node4" class="node">
<title>Node4</title>
<g id="a_node4"><a xlink:title=" ">
<polygon fill="white" stroke="#bfbfbf" points="615,-548.5 615,-578.5 721,-578.5 721,-548.5 615,-548.5"/>
<text text-anchor="start" x="623" y="-566.5" font-family="Helvetica,sans-Serif" font-size="10.00">odp/api/abi/packet</text>
<text text-anchor="middle" x="668" y="-555.5" font-family="Helvetica,sans-Serif" font-size="10.00">_types.h</text>
</a>
</g>
</g>
<!-- Node3&#45;&gt;Node4 -->
<g id="edge3" class="edge">
<title>Node3&#45;&gt;Node4</title>
<path fill="none" stroke="midnightblue" d="M779,-620.87C760.19,-611.31 729.3,-595.63 704.87,-583.22"/>
<polygon fill="midnightblue" stroke="midnightblue" points="706.37,-580.06 695.87,-578.65 703.2,-586.3 706.37,-580.06"/>
</g>
<!-- Node5 -->
<g id="node5" class="node">
<title>Node5</title>
<g id="a_node5"><a xlink:href="spec_2packet__types_8h.html" target="_top" xlink:title=" ">
<polygon fill="white" stroke="black" points="739.5,-548.5 739.5,-578.5 852.5,-578.5 852.5,-548.5 739.5,-548.5"/>
<text text-anchor="start" x="747.5" y="-566.5" font-family="Helvetica,sans-Serif" font-size="10.00">odp/api/spec/packet</text>
<text text-anchor="middle" x="796" y="-555.5" font-family="Helvetica,sans-Serif" font-size="10.00">_types.h</text>
</a>
</g>
</g>
<!-- Node3&#45;&gt;Node5 -->
<g id="edge4" class="edge">
<title>Node3&#45;&gt;Node5</title>
<path fill="none" stroke="midnightblue" d="M796,-620.73C796,-612.54 796,-599.92 796,-588.71"/>
<polygon fill="midnightblue" stroke="midnightblue" points="799.5,-588.59 796,-578.59 792.5,-588.59 799.5,-588.59"/>
</g>
<!-- Node6 -->
<g id="node6" class="node">
<title>Node6</title>
<g id="a_node6"><a xlink:title=" ">
<polygon fill="white" stroke="#bfbfbf" points="929.5,-0.5 929.5,-19.5 1050.5,-19.5 1050.5,-0.5 929.5,-0.5"/>
<text text-anchor="middle" x="990" y="-7.5" font-family="Helvetica,sans-Serif" font-size="10.00">odp/visibility_begin.h</text>
</a>
</g>
</g>
<!-- Node5&#45;&gt;Node6 -->
<g id="edge5" class="edge">
<title>Node5&#45;&gt;Node6</title>
<path fill="none" stroke="midnightblue" d="M826.17,-548.3C882.64,-520.79 1006.41,-456.01 1093,-378 1186.46,-293.8 1204.51,-254.53 1233,-132 1251.08,-54.24 1138.84,-26.41 1060.82,-16.48"/>
<polygon fill="midnightblue" stroke="midnightblue" points="1060.88,-12.96 1050.54,-15.24 1060.05,-19.91 1060.88,-12.96"/>
</g>
<!-- Node7 -->
<g id="node7" class="node">
<title>Node7</title>
<g id="a_node7"><a xlink:href="proto__stats__types_8h.html" target="_top" xlink:title=" ">
<polygon fill="white" stroke="black" points="700,-347.5 700,-377.5 810,-377.5 810,-347.5 700,-347.5"/>
<text text-anchor="start" x="708" y="-365.5" font-family="Helvetica,sans-Serif" font-size="10.00">odp/api/proto_stats</text>
<text text-anchor="middle" x="755" y="-354.5" font-family="Helvetica,sans-Serif" font-size="10.00">_types.h</text>
</a>
</g>
</g>
<!-- Node5&#45;&gt;Node7 -->
<g id="edge6" class="edge">
<title>Node5&#45;&gt;Node7</title>
<path fill="none" stroke="midnightblue" d="M793.05,-548.19C786.09,-514.41 768.59,-429.44 759.96,-387.57"/>
<polygon fill="midnightblue" stroke="midnightblue" points="763.37,-386.77 757.92,-377.68 756.51,-388.18 763.37,-386.77"/>
</g>
<!-- Node17 -->
<g id="node17" class="node">
<title>Node17</title>
<g id="a_node17"><a xlink:title=" ">
<polygon fill="white" stroke="#bfbfbf" points="291,-0.5 291,-19.5 403,-19.5 403,-0.5 291,-0.5"/>
<text text-anchor="middle" x="347" y="-7.5" font-family="Helvetica,sans-Serif" font-size="10.00">odp/visibility_end.h</text>
</a>
</g>
</g>
<!-- Node5&#45;&gt;Node17 -->
<g id="edge37" class="edge">
<title>Node5&#45;&gt;Node17</title>
<path fill="none" stroke="midnightblue" d="M739.21,-549.48C736.11,-548.93 733.02,-548.44 730,-548 507.75,-515.82 445.7,-558.53 226,-512 121.54,-489.88 0,-537.28 0,-430.5 0,-430.5 0,-430.5 0,-121 0,-84.28 19.28,-74.51 51,-56 88.89,-33.89 205.52,-21.37 280.57,-15.41"/>
<polygon fill="midnightblue" stroke="midnightblue" points="281.17,-18.87 290.87,-14.61 280.63,-11.89 281.17,-18.87"/>
</g>
<!-- Node18 -->
<g id="node18" class="node">
<title>Node18</title>
<g id="a_node18"><a xlink:href="queue__types_8h.html" target="_top" xlink:title=" ">
<polygon fill="white" stroke="black" points="430.5,-487 430.5,-506 557.5,-506 557.5,-487 430.5,-487"/>
<text text-anchor="middle" x="494" y="-494" font-family="Helvetica,sans-Serif" font-size="10.00">odp/api/queue_types.h</text>
</a>
</g>
</g>
<!-- Node5&#45;&gt;Node18 -->
<g id="edge22" class="edge">
<title>Node5&#45;&gt;Node18</title>
<path fill="none" stroke="midnightblue" d="M739.48,-550.06C736.27,-549.36 733.1,-548.67 730,-548 665.78,-534.07 591.66,-518.26 543.88,-508.09"/>
<polygon fill="midnightblue" stroke="midnightblue" points="544.61,-504.67 534.1,-506.01 543.15,-511.52 544.61,-504.67"/>
</g>
<!-- Node8 -->
<g id="node8" class="node">
<title>Node8</title>
<g id="a_node8"><a xlink:title=" ">
<polygon fill="white" stroke="#bfbfbf" points="517,-280.5 517,-310.5 645,-310.5 645,-280.5 517,-280.5"/>
<text text-anchor="start" x="525" y="-298.5" font-family="Helvetica,sans-Serif" font-size="10.00">odp/api/abi/proto_stats</text>
<text text-anchor="middle" x="581" y="-287.5" font-family="Helvetica,sans-Serif" font-size="10.00">_types.h</text>
</a>
</g>
</g>
<!-- Node7&#45;&gt;Node8 -->
<g id="edge7" class="edge">
<title>Node7&#45;&gt;Node8</title>
<path fill="none" stroke="midnightblue" d="M717.24,-347.4C691.14,-337.64 656.21,-324.59 628.25,-314.15"/>
<polygon fill="midnightblue" stroke="midnightblue" points="629.27,-310.8 618.68,-310.58 626.82,-317.35 629.27,-310.8"/>
</g>
<!-- Node9 -->
<g id="node9" class="node">
<title>Node9</title>
<g id="a_node9"><a xlink:href="spec_2proto__stats__types_8h.html" target="_top" xlink:title=" ">
<polygon fill="white" stroke="black" points="701.5,-280.5 701.5,-310.5 808.5,-310.5 808.5,-280.5 701.5,-280.5"/>
<text text-anchor="start" x="709.5" y="-298.5" font-family="Helvetica,sans-Serif" font-size="10.00">odp/api/spec/proto</text>
<text text-anchor="middle" x="755" y="-287.5" font-family="Helvetica,sans-Serif" font-size="10.00">_stats_types.h</text>
</a>
</g>
</g>
<!-- Node7&#45;&gt;Node9 -->
<g id="edge8" class="edge">
<title>Node7&#45;&gt;Node9</title>
<path fill="none" stroke="midnightblue" d="M755,-347.4C755,-339.64 755,-329.81 755,-320.86"/>
<polygon fill="midnightblue" stroke="midnightblue" points="758.5,-320.58 755,-310.58 751.5,-320.58 758.5,-320.58"/>
</g>
<!-- Node9&#45;&gt;Node6 -->
<g id="edge9" class="edge">
<title>Node9&#45;&gt;Node6</title>
<path fill="none" stroke="midnightblue" d="M729.59,-280.48C716.65,-271.83 702.18,-259.43 695,-244 682.83,-217.84 717.41,-169.2 719,-168 819.49,-92.14 913.5,-223.49 1000,-132 1026.21,-104.28 1010.36,-55.28 998.83,-28.94"/>
<polygon fill="midnightblue" stroke="midnightblue" points="1001.95,-27.36 994.57,-19.75 995.6,-30.3 1001.95,-27.36"/>
</g>
<!-- Node10 -->
<g id="node10" class="node">
<title>Node10</title>
<g id="a_node10"><a xlink:href="std__types_8h.html" target="_top" xlink:title=" ">
<polygon fill="white" stroke="black" points="828,-224.5 828,-243.5 940,-243.5 940,-224.5 828,-224.5"/>
<text text-anchor="middle" x="884" y="-231.5" font-family="Helvetica,sans-Serif" font-size="10.00">odp/api/std_types.h</text>
</a>
</g>
</g>
<!-- Node9&#45;&gt;Node10 -->
<g id="edge10" class="edge">
<title>Node9&#45;&gt;Node10</title>
<path fill="none" stroke="midnightblue" d="M785.57,-280.4C806.93,-270.55 835.22,-257.5 855.98,-247.92"/>
<polygon fill="midnightblue" stroke="midnightblue" points="857.61,-251.02 865.23,-243.66 854.68,-244.67 857.61,-251.02"/>
</g>
<!-- Node9&#45;&gt;Node17 -->
<g id="edge21" class="edge">
<title>Node9&#45;&gt;Node17</title>
<path fill="none" stroke="midnightblue" d="M701.39,-283.86C563.26,-255.26 201.24,-172.3 133,-76 127.86,-68.75 127.4,-62.9 133,-56 151.38,-33.35 224.82,-21.68 280.58,-15.96"/>
<polygon fill="midnightblue" stroke="midnightblue" points="281.16,-19.42 290.77,-14.97 280.48,-12.46 281.16,-19.42"/>
</g>
<!-- Node11 -->
<g id="node11" class="node">
<title>Node11</title>
<g id="a_node11"><a xlink:title=" ">
<polygon fill="white" stroke="#bfbfbf" points="728,-168.5 728,-187.5 858,-187.5 858,-168.5 728,-168.5"/>
<text text-anchor="middle" x="793" y="-175.5" font-family="Helvetica,sans-Serif" font-size="10.00">odp/api/abi/std_types.h</text>
</a>
</g>
</g>
<!-- Node10&#45;&gt;Node11 -->
<g id="edge11" class="edge">
<title>Node10&#45;&gt;Node11</title>
<path fill="none" stroke="midnightblue" d="M869.38,-224.32C855.05,-215.82 832.99,-202.73 816.25,-192.8"/>
<polygon fill="midnightblue" stroke="midnightblue" points="817.97,-189.75 807.58,-187.65 814.4,-195.77 817.97,-189.75"/>
</g>
<!-- Node12 -->
<g id="node12" class="node">
<title>Node12</title>
<g id="a_node12"><a xlink:href="spec_2std__types_8h.html" target="_top" xlink:title=" ">
<polygon fill="white" stroke="black" points="914.5,-168.5 914.5,-187.5 1051.5,-187.5 1051.5,-168.5 914.5,-168.5"/>
<text text-anchor="middle" x="983" y="-175.5" font-family="Helvetica,sans-Serif" font-size="10.00">odp/api/spec/std_types.h</text>
</a>
</g>
</g>
<!-- Node10&#45;&gt;Node12 -->
<g id="edge12" class="edge">
<title>Node10&#45;&gt;Node12</title>
<path fill="none" stroke="midnightblue" d="M899.91,-224.32C915.64,-215.74 939.94,-202.49 958.21,-192.52"/>
<polygon fill="midnightblue" stroke="midnightblue" points="960.03,-195.52 967.13,-187.65 956.68,-189.37 960.03,-195.52"/>
</g>
<!-- Node12&#45;&gt;Node6 -->
<g id="edge13" class="edge">
<title>Node12&#45;&gt;Node6</title>
<path fill="none" stroke="midnightblue" d="M1000.64,-168.46C1014.07,-160.92 1031.62,-148.53 1040,-132 1055.28,-101.86 1056.05,-86.73 1042,-56 1036.22,-43.36 1024.95,-32.91 1014.37,-25.27"/>
<polygon fill="midnightblue" stroke="midnightblue" points="1016.04,-22.18 1005.78,-19.53 1012.15,-28 1016.04,-22.18"/>
</g>
<!-- Node13 -->
<g id="node13" class="node">
<title>Node13</title>
<g id="a_node13"><a xlink:title=" ">
<polygon fill="white" stroke="#bfbfbf" points="1170.5,-112.5 1170.5,-131.5 1223.5,-131.5 1223.5,-112.5 1170.5,-112.5"/>
<text text-anchor="middle" x="1197" y="-119.5" font-family="Helvetica,sans-Serif" font-size="10.00">stdint.h</text>
</a>
</g>
</g>
<!-- Node12&#45;&gt;Node13 -->
<g id="edge14" class="edge">
<title>Node12&#45;&gt;Node13</title>
<path fill="none" stroke="midnightblue" d="M1016.91,-168.44C1056.05,-158.57 1120.18,-142.38 1160.42,-132.23"/>
<polygon fill="midnightblue" stroke="midnightblue" points="1161.51,-135.57 1170.35,-129.73 1159.8,-128.78 1161.51,-135.57"/>
</g>
<!-- Node14 -->
<g id="node14" class="node">
<title>Node14</title>
<g id="a_node14"><a xlink:href="align_8h.html" target="_top" xlink:title=" ">
<polygon fill="white" stroke="black" points="863.5,-112.5 863.5,-131.5 952.5,-131.5 952.5,-112.5 863.5,-112.5"/>
<text text-anchor="middle" x="908" y="-119.5" font-family="Helvetica,sans-Serif" font-size="10.00">odp/api/align.h</text>
</a>
</g>
</g>
<!-- Node12&#45;&gt;Node14 -->
<g id="edge15" class="edge">
<title>Node12&#45;&gt;Node14</title>
<path fill="none" stroke="midnightblue" d="M970.95,-168.32C959.54,-160.11 942.17,-147.6 928.57,-137.81"/>
<polygon fill="midnightblue" stroke="midnightblue" points="930.43,-134.84 920.27,-131.83 926.34,-140.52 930.43,-134.84"/>
</g>
<!-- Node12&#45;&gt;Node17 -->
<g id="edge20" class="edge">
<title>Node12&#45;&gt;Node17</title>
<path fill="none" stroke="midnightblue" d="M947.7,-168.44C877.65,-151.39 716.14,-111.74 581,-76 512.45,-57.87 432.99,-35.51 386.53,-22.3"/>
<polygon fill="midnightblue" stroke="midnightblue" points="387.43,-18.92 376.86,-19.55 385.52,-25.65 387.43,-18.92"/>
</g>
<!-- Node15 -->
<g id="node15" class="node">
<title>Node15</title>
<g id="a_node15"><a xlink:title=" ">
<polygon fill="white" stroke="#bfbfbf" points="854.5,-56.5 854.5,-75.5 961.5,-75.5 961.5,-56.5 854.5,-56.5"/>
<text text-anchor="middle" x="908" y="-63.5" font-family="Helvetica,sans-Serif" font-size="10.00">odp/api/abi/align.h</text>
</a>
</g>
</g>
<!-- Node14&#45;&gt;Node15 -->
<g id="edge16" class="edge">
<title>Node14&#45;&gt;Node15</title>
<path fill="none" stroke="midnightblue" d="M908,-112.08C908,-105.01 908,-94.86 908,-85.99"/>
<polygon fill="midnightblue" stroke="midnightblue" points="911.5,-85.75 908,-75.75 904.5,-85.75 911.5,-85.75"/>
</g>
<!-- Node16 -->
<g id="node16" class="node">
<title>Node16</title>
<g id="a_node16"><a xlink:href="spec_2align_8h.html" target="_top" xlink:title=" ">
<polygon fill="white" stroke="black" points="722,-56.5 722,-75.5 836,-75.5 836,-56.5 722,-56.5"/>
<text text-anchor="middle" x="779" y="-63.5" font-family="Helvetica,sans-Serif" font-size="10.00">odp/api/spec/align.h</text>
</a>
</g>
</g>
<!-- Node14&#45;&gt;Node16 -->
<g id="edge17" class="edge">
<title>Node14&#45;&gt;Node16</title>
<path fill="none" stroke="midnightblue" d="M887.56,-112.44C866.33,-103.56 832.9,-89.56 808.75,-79.45"/>
<polygon fill="midnightblue" stroke="midnightblue" points="809.92,-76.15 799.34,-75.52 807.22,-82.61 809.92,-76.15"/>
</g>
<!-- Node16&#45;&gt;Node6 -->
<g id="edge18" class="edge">
<title>Node16&#45;&gt;Node6</title>
<path fill="none" stroke="midnightblue" d="M812.43,-56.44C848.86,-47.12 907.23,-32.18 947.03,-22"/>
<polygon fill="midnightblue" stroke="midnightblue" points="947.9,-25.39 956.72,-19.52 946.17,-18.61 947.9,-25.39"/>
</g>
<!-- Node16&#45;&gt;Node17 -->
<g id="edge19" class="edge">
<title>Node16&#45;&gt;Node17</title>
<path fill="none" stroke="midnightblue" d="M721.99,-57.3C718.61,-56.86 715.26,-56.42 712,-56 607.67,-42.56 486.46,-27.78 413.3,-18.95"/>
<polygon fill="midnightblue" stroke="midnightblue" points="413.65,-15.47 403.3,-17.75 412.81,-22.42 413.65,-15.47"/>
</g>
<!-- Node19 -->
<g id="node19" class="node">
<title>Node19</title>
<g id="a_node19"><a xlink:title=" ">
<polygon fill="white" stroke="#bfbfbf" points="421.5,-420 421.5,-439 566.5,-439 566.5,-420 421.5,-420"/>
<text text-anchor="middle" x="494" y="-427" font-family="Helvetica,sans-Serif" font-size="10.00">odp/api/abi/queue_types.h</text>
</a>
</g>
</g>
<!-- Node18&#45;&gt;Node19 -->
<g id="edge23" class="edge">
<title>Node18&#45;&gt;Node19</title>
<path fill="none" stroke="midnightblue" d="M494,-486.73C494,-477.18 494,-461.62 494,-449.28"/>
<polygon fill="midnightblue" stroke="midnightblue" points="497.5,-449.13 494,-439.13 490.5,-449.13 497.5,-449.13"/>
</g>
<!-- Node20 -->
<g id="node20" class="node">
<title>Node20</title>
<g id="a_node20"><a xlink:href="spec_2queue__types_8h.html" target="_top" xlink:title=" ">
<polygon fill="white" stroke="black" points="274.5,-414.5 274.5,-444.5 385.5,-444.5 385.5,-414.5 274.5,-414.5"/>
<text text-anchor="start" x="282.5" y="-432.5" font-family="Helvetica,sans-Serif" font-size="10.00">odp/api/spec/queue</text>
<text text-anchor="middle" x="330" y="-421.5" font-family="Helvetica,sans-Serif" font-size="10.00">_types.h</text>
</a>
</g>
</g>
<!-- Node18&#45;&gt;Node20 -->
<g id="edge24" class="edge">
<title>Node18&#45;&gt;Node20</title>
<path fill="none" stroke="midnightblue" d="M472.22,-486.87C447.51,-477.07 406.52,-460.83 374.88,-448.29"/>
<polygon fill="midnightblue" stroke="midnightblue" points="375.98,-444.96 365.39,-444.53 373.4,-451.47 375.98,-444.96"/>
</g>
<!-- Node20&#45;&gt;Node6 -->
<g id="edge25" class="edge">
<title>Node20&#45;&gt;Node6</title>
<path fill="none" stroke="midnightblue" d="M355.12,-414.31C371.12,-404.82 391.96,-391.62 409,-378 457.35,-339.33 458.74,-317.51 508,-280 587.51,-219.45 608.44,-200.36 703,-168 812.96,-130.37 876.24,-210.43 962,-132 990.68,-105.77 992.85,-56.49 991.63,-29.62"/>
<polygon fill="midnightblue" stroke="midnightblue" points="995.12,-29.36 990.96,-19.61 988.14,-29.82 995.12,-29.36"/>
</g>
<!-- Node20&#45;&gt;Node17 -->
<g id="edge36" class="edge">
<title>Node20&#45;&gt;Node17</title>
<path fill="none" stroke="midnightblue" d="M286.91,-414.45C205.69,-384.94 38,-308.36 38,-179 38,-179 38,-179 38,-121 38,-86.61 51.27,-74.91 80,-56 112.17,-34.83 212.52,-22.33 280.61,-16.07"/>
<polygon fill="midnightblue" stroke="midnightblue" points="281.18,-19.53 290.83,-15.15 280.56,-12.56 281.18,-19.53"/>
</g>
<!-- Node21 -->
<g id="node21" class="node">
<title>Node21</title>
<g id="a_node21"><a xlink:href="schedule__types_8h.html" target="_top" xlink:title=" ">
<polygon fill="white" stroke="black" points="260,-353 260,-372 400,-372 400,-353 260,-353"/>
<text text-anchor="middle" x="330" y="-360" font-family="Helvetica,sans-Serif" font-size="10.00">odp/api/schedule_types.h</text>
</a>
</g>
</g>
<!-- Node20&#45;&gt;Node21 -->
<g id="edge26" class="edge">
<title>Node20&#45;&gt;Node21</title>
<path fill="none" stroke="midnightblue" d="M330,-414.4C330,-405.06 330,-392.71 330,-382.52"/>
<polygon fill="midnightblue" stroke="midnightblue" points="333.5,-382.19 330,-372.19 326.5,-382.19 333.5,-382.19"/>
</g>
<!-- Node24 -->
<g id="node24" class="node">
<title>Node24</title>
<g id="a_node24"><a xlink:href="deprecated_8h.html" target="_top" xlink:title=" ">
<polygon fill="white" stroke="black" points="142.5,-224.5 142.5,-243.5 261.5,-243.5 261.5,-224.5 142.5,-224.5"/>
<text text-anchor="middle" x="202" y="-231.5" font-family="Helvetica,sans-Serif" font-size="10.00">odp/api/deprecated.h</text>
</a>
</g>
</g>
<!-- Node20&#45;&gt;Node24 -->
<g id="edge32" class="edge">
<title>Node20&#45;&gt;Node24</title>
<path fill="none" stroke="midnightblue" d="M299.67,-414.46C264.86,-396.32 210.13,-361.03 191,-311 183.81,-292.18 188.94,-269.1 194.35,-253.34"/>
<polygon fill="midnightblue" stroke="midnightblue" points="197.72,-254.34 198,-243.74 191.17,-251.85 197.72,-254.34"/>
</g>
<!-- Node22 -->
<g id="node22" class="node">
<title>Node22</title>
<g id="a_node22"><a xlink:title=" ">
<polygon fill="white" stroke="#bfbfbf" points="200.5,-280.5 200.5,-310.5 317.5,-310.5 317.5,-280.5 200.5,-280.5"/>
<text text-anchor="start" x="208.5" y="-298.5" font-family="Helvetica,sans-Serif" font-size="10.00">odp/api/abi/schedule</text>
<text text-anchor="middle" x="259" y="-287.5" font-family="Helvetica,sans-Serif" font-size="10.00">_types.h</text>
</a>
</g>
</g>
<!-- Node21&#45;&gt;Node22 -->
<g id="edge27" class="edge">
<title>Node21&#45;&gt;Node22</title>
<path fill="none" stroke="midnightblue" d="M320.42,-352.73C310.64,-343.78 295.09,-329.54 282.09,-317.63"/>
<polygon fill="midnightblue" stroke="midnightblue" points="284.13,-314.76 274.39,-310.59 279.4,-319.92 284.13,-314.76"/>
</g>
<!-- Node23 -->
<g id="node23" class="node">
<title>Node23</title>
<g id="a_node23"><a xlink:href="spec_2schedule__types_8h.html" target="_top" xlink:title=" ">
<polygon fill="white" stroke="black" points="335.5,-280.5 335.5,-310.5 460.5,-310.5 460.5,-280.5 335.5,-280.5"/>
<text text-anchor="start" x="343.5" y="-298.5" font-family="Helvetica,sans-Serif" font-size="10.00">odp/api/spec/schedule</text>
<text text-anchor="middle" x="398" y="-287.5" font-family="Helvetica,sans-Serif" font-size="10.00">_types.h</text>
</a>
</g>
</g>
<!-- Node21&#45;&gt;Node23 -->
<g id="edge28" class="edge">
<title>Node21&#45;&gt;Node23</title>
<path fill="none" stroke="midnightblue" d="M339.17,-352.73C348.54,-343.78 363.43,-329.54 375.89,-317.63"/>
<polygon fill="midnightblue" stroke="midnightblue" points="378.45,-320.03 383.26,-310.59 373.61,-314.97 378.45,-320.03"/>
</g>
<!-- Node23&#45;&gt;Node6 -->
<g id="edge29" class="edge">
<title>Node23&#45;&gt;Node6</title>
<path fill="none" stroke="midnightblue" d="M432.76,-280.45C470.06,-262.81 524,-228.71 524,-179 524,-179 524,-179 524,-121 524,-82.58 546.92,-73.75 581,-56 638.19,-26.21 818.15,-16.06 919.26,-12.66"/>
<polygon fill="midnightblue" stroke="midnightblue" points="919.51,-16.15 929.39,-12.33 919.29,-9.16 919.51,-16.15"/>
</g>
<!-- Node23&#45;&gt;Node10 -->
<g id="edge30" class="edge">
<title>Node23&#45;&gt;Node10</title>
<path fill="none" stroke="midnightblue" d="M460.51,-286.09C476.02,-284.05 492.61,-281.91 508,-280 642.42,-263.34 678.7,-261.45 817.66,-244.02"/>
<polygon fill="midnightblue" stroke="midnightblue" points="818.36,-247.46 827.84,-242.74 817.48,-240.51 818.36,-247.46"/>
</g>
<!-- Node23&#45;&gt;Node17 -->
<g id="edge31" class="edge">
<title>Node23&#45;&gt;Node17</title>
<path fill="none" stroke="midnightblue" d="M335.18,-281.79C332.08,-281.18 329,-280.58 326,-280 208.36,-257.18 76,-298.84 76,-179 76,-179 76,-179 76,-121 76,-90.2 76.42,-75.81 100,-56 126.81,-33.48 217.25,-21.5 280.89,-15.71"/>
<polygon fill="midnightblue" stroke="midnightblue" points="281.21,-19.19 290.86,-14.83 280.59,-12.22 281.21,-19.19"/>
</g>
<!-- Node25 -->
<g id="node25" class="node">
<title>Node25</title>
<g id="a_node25"><a xlink:href="spec_2deprecated_8h.html" target="_top" xlink:title=" ">
<polygon fill="white" stroke="black" points="274.5,-56.5 274.5,-75.5 419.5,-75.5 419.5,-56.5 274.5,-56.5"/>
<text text-anchor="middle" x="347" y="-63.5" font-family="Helvetica,sans-Serif" font-size="10.00">odp/api/spec/deprecated.h</text>
</a>
</g>
</g>
<!-- Node24&#45;&gt;Node25 -->
<g id="edge33" class="edge">
<title>Node24&#45;&gt;Node25</title>
<path fill="none" stroke="midnightblue" d="M209.8,-224.08C233.11,-197.38 302.57,-117.87 332.74,-83.32"/>
<polygon fill="midnightblue" stroke="midnightblue" points="335.57,-85.4 339.52,-75.57 330.3,-80.8 335.57,-85.4"/>
</g>
<!-- Node25&#45;&gt;Node6 -->
<g id="edge34" class="edge">
<title>Node25&#45;&gt;Node6</title>
<path fill="none" stroke="midnightblue" d="M419.51,-58.91C543.78,-48.47 795.93,-27.3 919.09,-16.96"/>
<polygon fill="midnightblue" stroke="midnightblue" points="919.49,-20.43 929.17,-16.11 918.91,-13.46 919.49,-20.43"/>
</g>
<!-- Node25&#45;&gt;Node17 -->
<g id="edge35" class="edge">
<title>Node25&#45;&gt;Node17</title>
<path fill="none" stroke="midnightblue" d="M347,-56.08C347,-49.01 347,-38.86 347,-29.99"/>
<polygon fill="midnightblue" stroke="midnightblue" points="350.5,-29.75 347,-19.75 343.5,-29.75 350.5,-29.75"/>
</g>
<!-- Node27 -->
<g id="node27" class="node">
<title>Node27</title>
<g id="a_node27"><a xlink:title=" ">
<polygon fill="white" stroke="#bfbfbf" points="1048,-554 1048,-573 1152,-573 1152,-554 1048,-554"/>
<text text-anchor="middle" x="1100" y="-561" font-family="Helvetica,sans-Serif" font-size="10.00">odp/api/abi/pool.h</text>
</a>
</g>
</g>
<!-- Node26&#45;&gt;Node27 -->
<g id="edge39" class="edge">
<title>Node26&#45;&gt;Node27</title>
<path fill="none" stroke="midnightblue" d="M1059.34,-620.73C1066.6,-610.7 1078.66,-594.01 1087.76,-581.42"/>
<polygon fill="midnightblue" stroke="midnightblue" points="1090.74,-583.28 1093.76,-573.13 1085.07,-579.18 1090.74,-583.28"/>
</g>
<!-- Node28 -->
<g id="node28" class="node">
<title>Node28</title>
<g id="a_node28"><a xlink:title=" ">
<polygon fill="white" stroke="#bfbfbf" points="1170.5,-548.5 1170.5,-578.5 1277.5,-578.5 1277.5,-548.5 1170.5,-548.5"/>
<text text-anchor="start" x="1178.5" y="-566.5" font-family="Helvetica,sans-Serif" font-size="10.00">odp/api/abi/shared</text>
<text text-anchor="middle" x="1224" y="-555.5" font-family="Helvetica,sans-Serif" font-size="10.00">_memory.h</text>
</a>
</g>
</g>
<!-- Node26&#45;&gt;Node28 -->
<g id="edge40" class="edge">
<title>Node26&#45;&gt;Node28</title>
<path fill="none" stroke="midnightblue" d="M1075.71,-620.87C1101.59,-611.03 1144.58,-594.69 1177.63,-582.13"/>
<polygon fill="midnightblue" stroke="midnightblue" points="1178.99,-585.35 1187.1,-578.53 1176.5,-578.81 1178.99,-585.35"/>
</g>
<!-- Node26&#45;&gt;Node29 -->
<g id="edge41" class="edge">
<title>Node26&#45;&gt;Node29</title>
<path fill="none" stroke="midnightblue" d="M1085.49,-620.95C1093.48,-618.92 1102.04,-616.82 1110,-615 1188.26,-597.1 1208.52,-595.87 1287,-579 1292.43,-577.83 1298.11,-576.58 1303.76,-575.33"/>
<polygon fill="midnightblue" stroke="midnightblue" points="1304.81,-578.68 1313.8,-573.07 1303.28,-571.85 1304.81,-578.68"/>
</g>
<!-- Node30 -->
<g id="node30" class="node">
<title>Node30</title>
<g id="a_node30"><a xlink:href="spec_2pool_8h.html" target="_top" xlink:title=" ">
<polygon fill="white" stroke="black" points="972.5,-353 972.5,-372 1083.5,-372 1083.5,-353 972.5,-353"/>
<text text-anchor="middle" x="1028" y="-360" font-family="Helvetica,sans-Serif" font-size="10.00">odp/api/spec/pool.h</text>
</a>
</g>
</g>
<!-- Node26&#45;&gt;Node30 -->
<g id="edge42" class="edge">
<title>Node26&#45;&gt;Node30</title>
<path fill="none" stroke="midnightblue" d="M1049.92,-620.69C1046.59,-610.72 1041.42,-593.91 1039,-579 1027.37,-507.26 1027.05,-420.49 1027.58,-382.67"/>
<polygon fill="midnightblue" stroke="midnightblue" points="1031.08,-382.26 1027.76,-372.19 1024.09,-382.13 1031.08,-382.26"/>
</g>
<!-- Node30&#45;&gt;Node6 -->
<g id="edge43" class="edge">
<title>Node30&#45;&gt;Node6</title>
<path fill="none" stroke="midnightblue" d="M1057.57,-352.97C1078.83,-345.33 1106.55,-332.04 1123,-311 1144.45,-283.57 1142,-269.82 1142,-235 1142,-235 1142,-235 1142,-121 1142,-67.44 1079.29,-37.3 1034.43,-22.59"/>
<polygon fill="midnightblue" stroke="midnightblue" points="1035.46,-19.25 1024.87,-19.6 1033.37,-25.93 1035.46,-19.25"/>
</g>
<!-- Node30&#45;&gt;Node10 -->
<g id="edge44" class="edge">
<title>Node30&#45;&gt;Node10</title>
<path fill="none" stroke="midnightblue" d="M1015.98,-352.97C1002.49,-343.25 980.12,-326.66 962,-311 939.34,-291.42 914.86,-266.97 899.49,-251.18"/>
<polygon fill="midnightblue" stroke="midnightblue" points="901.81,-248.54 892.34,-243.78 896.77,-253.4 901.81,-248.54"/>
</g>
<!-- Node30&#45;&gt;Node17 -->
<g id="edge49" class="edge">
<title>Node30&#45;&gt;Node17</title>
<path fill="none" stroke="midnightblue" d="M972.41,-357.27C890.06,-350.31 740.2,-334.8 692,-311 673.72,-301.97 444.39,-68.14 428,-56 411.25,-43.59 390.71,-32.22 374.5,-24.01"/>
<polygon fill="midnightblue" stroke="midnightblue" points="376.03,-20.86 365.52,-19.56 372.92,-27.13 376.03,-20.86"/>
</g>
<!-- Node31 -->
<g id="node31" class="node">
<title>Node31</title>
<g id="a_node31"><a xlink:href="pool__types_8h.html" target="_top" xlink:title=" ">
<polygon fill="white" stroke="black" points="970.5,-286 970.5,-305 1113.5,-305 1113.5,-286 970.5,-286"/>
<text text-anchor="middle" x="1042" y="-293" font-family="Helvetica,sans-Serif" font-size="10.00">odp/api/spec/pool_types.h</text>
</a>
</g>
</g>
<!-- Node30&#45;&gt;Node31 -->
<g id="edge45" class="edge">
<title>Node30&#45;&gt;Node31</title>
<path fill="none" stroke="midnightblue" d="M1029.89,-352.73C1031.97,-343.09 1035.37,-327.3 1038.04,-314.91"/>
<polygon fill="midnightblue" stroke="midnightblue" points="1041.46,-315.64 1040.14,-305.13 1034.61,-314.17 1041.46,-315.64"/>
</g>
<!-- Node31&#45;&gt;Node6 -->
<g id="edge46" class="edge">
<title>Node31&#45;&gt;Node6</title>
<path fill="none" stroke="midnightblue" d="M1050.62,-285.79C1067.66,-267.61 1104,-223.61 1104,-179 1104,-179 1104,-179 1104,-121 1104,-74.11 1053.45,-40.89 1019.67,-23.93"/>
<polygon fill="midnightblue" stroke="midnightblue" points="1021.17,-20.77 1010.64,-19.58 1018.13,-27.07 1021.17,-20.77"/>
</g>
<!-- Node31&#45;&gt;Node10 -->
<g id="edge47" class="edge">
<title>Node31&#45;&gt;Node10</title>
<path fill="none" stroke="midnightblue" d="M1019.36,-285.98C992.26,-275.77 946.69,-258.61 916,-247.05"/>
<polygon fill="midnightblue" stroke="midnightblue" points="917.19,-243.76 906.6,-243.51 914.72,-250.31 917.19,-243.76"/>
</g>
<!-- Node31&#45;&gt;Node17 -->
<g id="edge48" class="edge">
<title>Node31&#45;&gt;Node17</title>
<path fill="none" stroke="midnightblue" d="M1033.01,-285.84C1008.56,-262.79 937.89,-199.56 867,-168 805.16,-140.46 784.65,-148.53 719,-132 623.25,-107.89 596.77,-109.82 504,-76 484.58,-68.92 480.97,-64.22 462,-56 434.75,-44.2 403.33,-32 380.22,-23.28"/>
<polygon fill="midnightblue" stroke="midnightblue" points="381.14,-19.89 370.55,-19.65 378.68,-26.44 381.14,-19.89"/>
</g>
<!-- Node34 -->
<g id="node34" class="node">
<title>Node34</title>
<g id="a_node34"><a xlink:href="spec_2hints_8h.html" target="_top" xlink:title=" ">
<polygon fill="white" stroke="black" points="142,-56.5 142,-75.5 256,-75.5 256,-56.5 142,-56.5"/>
<text text-anchor="middle" x="199" y="-63.5" font-family="Helvetica,sans-Serif" font-size="10.00">odp/api/spec/hints.h</text>
</a>
</g>
</g>
<!-- Node33&#45;&gt;Node34 -->
<g id="edge52" class="edge">
<title>Node33&#45;&gt;Node34</title>
<path fill="none" stroke="midnightblue" d="M272.44,-486.72C246.55,-456.01 161.46,-349.47 133,-244 116.67,-183.48 161.51,-114.67 185.29,-83.68"/>
<polygon fill="midnightblue" stroke="midnightblue" points="188.18,-85.67 191.63,-75.65 182.69,-81.32 188.18,-85.67"/>
</g>
<!-- Node34&#45;&gt;Node6 -->
<g id="edge53" class="edge">
<title>Node34&#45;&gt;Node6</title>
<path fill="none" stroke="midnightblue" d="M256.21,-56.94C259.18,-56.6 262.12,-56.29 265,-56 504.18,-32.3 789.07,-18.95 919.04,-13.67"/>
<polygon fill="midnightblue" stroke="midnightblue" points="919.4,-17.16 929.25,-13.26 919.12,-10.16 919.4,-17.16"/>
</g>
<!-- Node34&#45;&gt;Node17 -->
<g id="edge54" class="edge">
<title>Node34&#45;&gt;Node17</title>
<path fill="none" stroke="midnightblue" d="M222.45,-56.44C247.13,-47.44 286.19,-33.19 313.98,-23.05"/>
<polygon fill="midnightblue" stroke="midnightblue" points="315.46,-26.23 323.66,-19.52 313.06,-19.66 315.46,-26.23"/>
</g>
<!-- Node35&#45;&gt;Node10 -->
<g id="edge56" class="edge">
<title>Node35&#45;&gt;Node10</title>
<path fill="none" stroke="midnightblue" d="M872.01,-285.98C874,-277.49 877.13,-264.2 879.69,-253.32"/>
<polygon fill="midnightblue" stroke="midnightblue" points="883.11,-254.04 882,-243.51 876.3,-252.44 883.11,-254.04"/>
</g>
<!-- Node36 -->
<g id="node36" class="node">
<title>Node36</title>
<g id="a_node36"><a xlink:title=" ">
<polygon fill="white" stroke="#bfbfbf" points="704.5,-224.5 704.5,-243.5 809.5,-243.5 809.5,-224.5 704.5,-224.5"/>
<text text-anchor="middle" x="757" y="-231.5" font-family="Helvetica,sans-Serif" font-size="10.00">odp/api/abi/time.h</text>
</a>
</g>
</g>
<!-- Node35&#45;&gt;Node36 -->
<g id="edge57" class="edge">
<title>Node35&#45;&gt;Node36</title>
<path fill="none" stroke="midnightblue" d="M853.81,-285.98C835.1,-276.12 804.08,-259.79 782.2,-248.27"/>
<polygon fill="midnightblue" stroke="midnightblue" points="783.64,-245.07 773.16,-243.51 780.38,-251.27 783.64,-245.07"/>
</g>
<!-- Node37 -->
<g id="node37" class="node">
<title>Node37</title>
<g id="a_node37"><a xlink:href="spec_2time_8h.html" target="_top" xlink:title=" ">
<polygon fill="white" stroke="black" points="590.5,-56.5 590.5,-75.5 703.5,-75.5 703.5,-56.5 590.5,-56.5"/>
<text text-anchor="middle" x="647" y="-63.5" font-family="Helvetica,sans-Serif" font-size="10.00">odp/api/spec/time.h</text>
</a>
</g>
</g>
<!-- Node35&#45;&gt;Node37 -->
<g id="edge58" class="edge">
<title>Node35&#45;&gt;Node37</title>
<path fill="none" stroke="midnightblue" d="M838.88,-285.94C789.28,-272.23 697.59,-246.63 695,-244 651.88,-200.18 646.5,-121.76 646.46,-85.87"/>
<polygon fill="midnightblue" stroke="midnightblue" points="649.96,-85.85 646.59,-75.81 642.96,-85.76 649.96,-85.85"/>
</g>
<!-- Node37&#45;&gt;Node6 -->
<g id="edge59" class="edge">
<title>Node37&#45;&gt;Node6</title>
<path fill="none" stroke="midnightblue" d="M701.35,-56.44C762.31,-46.85 861.11,-31.29 925.82,-21.1"/>
<polygon fill="midnightblue" stroke="midnightblue" points="926.57,-24.53 935.9,-19.52 925.48,-17.61 926.57,-24.53"/>
</g>
<!-- Node37&#45;&gt;Node17 -->
<g id="edge60" class="edge">
<title>Node37&#45;&gt;Node17</title>
<path fill="none" stroke="midnightblue" d="M599.46,-56.44C546.47,-46.9 460.8,-31.48 404.18,-21.29"/>
<polygon fill="midnightblue" stroke="midnightblue" points="404.78,-17.84 394.31,-19.52 403.54,-24.73 404.78,-17.84"/>
</g>
<!-- Node39&#45;&gt;Node13 -->
<g id="edge64" class="edge">
<title>Node39&#45;&gt;Node13</title>
<path fill="none" stroke="midnightblue" d="M1165.53,-481.2C1184.42,-458.13 1218,-410.5 1218,-363.5 1218,-363.5 1218,-363.5 1218,-233 1218,-200.38 1208.98,-163.28 1202.77,-141.57"/>
<polygon fill="midnightblue" stroke="midnightblue" points="1206.04,-140.32 1199.83,-131.73 1199.33,-142.32 1206.04,-140.32"/>
</g>
</g>
</svg>
