<?xml version="1.0" encoding="UTF-8" standalone="no"?>
<!DOCTYPE svg PUBLIC "-//W3C//DTD SVG 1.1//EN"
 "http://www.w3.org/Graphics/SVG/1.1/DTD/svg11.dtd">
<!-- Generated by graphviz version 2.43.0 (0)
 -->
<!-- Title: packet.h Pages: 1 -->
<svg width="404pt" height="700pt"
 viewBox="0.00 0.00 403.50 700.00" xmlns="http://www.w3.org/2000/svg" xmlns:xlink="http://www.w3.org/1999/xlink">
<g id="graph0" class="graph" transform="scale(1 1) rotate(0) translate(4 696)">
<title>packet.h</title>
<polygon fill="white" stroke="transparent" points="-4,4 -4,-696 399.5,-696 399.5,4 -4,4"/>
<!-- Node1 -->
<g id="node1" class="node">
<title>Node1</title>
<g id="a_node1"><a xlink:title=" ">
<polygon fill="#bfbfbf" stroke="black" points="166.5,-672.5 166.5,-691.5 224.5,-691.5 224.5,-672.5 166.5,-672.5"/>
<text text-anchor="middle" x="195.5" y="-679.5" font-family="Helvetica,sans-Serif" font-size="10.00">packet.h</text>
</a>
</g>
</g>
<!-- Node2 -->
<g id="node2" class="node">
<title>Node2</title>
<g id="a_node2"><a xlink:href="spec_2comp_8h.html" target="_top" xlink:title=" ">
<polygon fill="white" stroke="black" points="6,-616.5 6,-635.5 59,-635.5 59,-616.5 6,-616.5"/>
<text text-anchor="middle" x="32.5" y="-623.5" font-family="Helvetica,sans-Serif" font-size="10.00">comp.h</text>
</a>
</g>
</g>
<!-- Node1&#45;&gt;Node2 -->
<g id="edge1" class="edge">
<title>Node1&#45;&gt;Node2</title>
<path fill="none" stroke="midnightblue" d="M159.8,-669.17C129.1,-659 85.58,-644.59 58.21,-635.52"/>
<polygon fill="midnightblue" stroke="midnightblue" points="159.08,-672.62 169.67,-672.44 161.28,-665.98 159.08,-672.62"/>
</g>
<!-- Node4 -->
<g id="node4" class="node">
<title>Node4</title>
<g id="a_node4"><a xlink:href="spec_2crypto_8h.html" target="_top" xlink:title=" ">
<polygon fill="white" stroke="black" points="88.5,-616.5 88.5,-635.5 144.5,-635.5 144.5,-616.5 88.5,-616.5"/>
<text text-anchor="middle" x="116.5" y="-623.5" font-family="Helvetica,sans-Serif" font-size="10.00">crypto.h</text>
</a>
</g>
</g>
<!-- Node1&#45;&gt;Node4 -->
<g id="edge3" class="edge">
<title>Node1&#45;&gt;Node4</title>
<path fill="none" stroke="midnightblue" d="M174.47,-666.62C160.03,-656.76 141.36,-643.99 129.16,-635.65"/>
<polygon fill="midnightblue" stroke="midnightblue" points="172.58,-669.57 182.81,-672.32 176.53,-663.79 172.58,-669.57"/>
</g>
<!-- Node8 -->
<g id="node8" class="node">
<title>Node8</title>
<g id="a_node8"><a xlink:href="spec_2event_8h.html" target="_top" xlink:title=" ">
<polygon fill="white" stroke="black" points="169,-616.5 169,-635.5 222,-635.5 222,-616.5 169,-616.5"/>
<text text-anchor="middle" x="195.5" y="-623.5" font-family="Helvetica,sans-Serif" font-size="10.00">event.h</text>
</a>
</g>
</g>
<!-- Node1&#45;&gt;Node8 -->
<g id="edge7" class="edge">
<title>Node1&#45;&gt;Node8</title>
<path fill="none" stroke="midnightblue" d="M195.5,-661.8C195.5,-652.91 195.5,-642.78 195.5,-635.75"/>
<polygon fill="midnightblue" stroke="midnightblue" points="192,-662.08 195.5,-672.08 199,-662.08 192,-662.08"/>
</g>
<!-- Node14 -->
<g id="node14" class="node">
<title>Node14</title>
<g id="a_node14"><a xlink:href="spec_2packet__io_8h.html" target="_top" xlink:title=" ">
<polygon fill="white" stroke="black" points="156.5,-280.5 156.5,-299.5 228.5,-299.5 228.5,-280.5 156.5,-280.5"/>
<text text-anchor="middle" x="192.5" y="-287.5" font-family="Helvetica,sans-Serif" font-size="10.00">packet_io.h</text>
</a>
</g>
</g>
<!-- Node1&#45;&gt;Node14 -->
<g id="edge26" class="edge">
<title>Node1&#45;&gt;Node14</title>
<path fill="none" stroke="midnightblue" d="M217.71,-666.33C243.19,-647.55 281.5,-612.42 281.5,-571 281.5,-571 281.5,-571 281.5,-401 281.5,-354.08 231.96,-315.94 206.8,-299.6"/>
<polygon fill="midnightblue" stroke="midnightblue" points="215.45,-663.64 209.32,-672.28 219.5,-669.36 215.45,-663.64"/>
</g>
<!-- Node22 -->
<g id="node22" class="node">
<title>Node22</title>
<g id="a_node22"><a xlink:href="spec_2packet__flags_8h.html" target="_top" xlink:title=" ">
<polygon fill="white" stroke="black" points="309.5,-616.5 309.5,-635.5 395.5,-635.5 395.5,-616.5 309.5,-616.5"/>
<text text-anchor="middle" x="352.5" y="-623.5" font-family="Helvetica,sans-Serif" font-size="10.00">packet_flags.h</text>
</a>
</g>
</g>
<!-- Node1&#45;&gt;Node22 -->
<g id="edge24" class="edge">
<title>Node1&#45;&gt;Node22</title>
<path fill="none" stroke="midnightblue" d="M229.89,-669.17C259.45,-659 301.37,-644.59 327.74,-635.52"/>
<polygon fill="midnightblue" stroke="midnightblue" points="228.7,-665.88 220.38,-672.44 230.97,-672.5 228.7,-665.88"/>
</g>
<!-- Node3 -->
<g id="node3" class="node">
<title>Node3</title>
<g id="a_node3"><a xlink:href="comp_8h.html" target="_top" xlink:title=" ">
<polygon fill="white" stroke="black" points="0,-560.5 0,-579.5 53,-579.5 53,-560.5 0,-560.5"/>
<text text-anchor="middle" x="26.5" y="-567.5" font-family="Helvetica,sans-Serif" font-size="10.00">comp.h</text>
</a>
</g>
</g>
<!-- Node2&#45;&gt;Node3 -->
<g id="edge2" class="edge">
<title>Node2&#45;&gt;Node3</title>
<path fill="none" stroke="midnightblue" d="M30.4,-606.1C29.4,-597.14 28.26,-586.86 27.47,-579.75"/>
<polygon fill="midnightblue" stroke="midnightblue" points="26.93,-606.53 31.51,-616.08 33.88,-605.76 26.93,-606.53"/>
</g>
<!-- Node5 -->
<g id="node5" class="node">
<title>Node5</title>
<g id="a_node5"><a xlink:href="crypto_8h.html" target="_top" xlink:title=" ">
<polygon fill="white" stroke="black" points="53.5,-392.5 53.5,-411.5 109.5,-411.5 109.5,-392.5 53.5,-392.5"/>
<text text-anchor="middle" x="81.5" y="-399.5" font-family="Helvetica,sans-Serif" font-size="10.00">crypto.h</text>
</a>
</g>
</g>
<!-- Node4&#45;&gt;Node5 -->
<g id="edge4" class="edge">
<title>Node4&#45;&gt;Node5</title>
<path fill="none" stroke="midnightblue" d="M113.53,-606.3C110.31,-586.03 105.03,-552.72 100.5,-524 93.84,-481.78 85.93,-431.27 82.83,-411.51"/>
<polygon fill="midnightblue" stroke="midnightblue" points="110.1,-607.03 115.13,-616.35 117.01,-605.93 110.1,-607.03"/>
</g>
<!-- Node6 -->
<g id="node6" class="node">
<title>Node6</title>
<g id="a_node6"><a xlink:href="spec_2ipsec_8h.html" target="_top" xlink:title=" ">
<polygon fill="white" stroke="black" points="130,-56.5 130,-75.5 181,-75.5 181,-56.5 130,-56.5"/>
<text text-anchor="middle" x="155.5" y="-63.5" font-family="Helvetica,sans-Serif" font-size="10.00">ipsec.h</text>
</a>
</g>
</g>
<!-- Node5&#45;&gt;Node6 -->
<g id="edge5" class="edge">
<title>Node5&#45;&gt;Node6</title>
<path fill="none" stroke="midnightblue" d="M81.5,-382.25C81.5,-360.36 81.5,-323.05 81.5,-291 81.5,-291 81.5,-291 81.5,-177 81.5,-132.58 123.56,-92.62 144.26,-75.64"/>
<polygon fill="midnightblue" stroke="midnightblue" points="78,-382.44 81.5,-392.44 85,-382.44 78,-382.44"/>
</g>
<!-- Node7 -->
<g id="node7" class="node">
<title>Node7</title>
<g id="a_node7"><a xlink:href="ipsec_8h.html" target="_top" xlink:title=" ">
<polygon fill="white" stroke="black" points="130,-0.5 130,-19.5 181,-19.5 181,-0.5 130,-0.5"/>
<text text-anchor="middle" x="155.5" y="-7.5" font-family="Helvetica,sans-Serif" font-size="10.00">ipsec.h</text>
</a>
</g>
</g>
<!-- Node6&#45;&gt;Node7 -->
<g id="edge6" class="edge">
<title>Node6&#45;&gt;Node7</title>
<path fill="none" stroke="midnightblue" d="M155.5,-45.8C155.5,-36.91 155.5,-26.78 155.5,-19.75"/>
<polygon fill="midnightblue" stroke="midnightblue" points="152,-46.08 155.5,-56.08 159,-46.08 152,-46.08"/>
</g>
<!-- Node9 -->
<g id="node9" class="node">
<title>Node9</title>
<g id="a_node9"><a xlink:href="event_8h.html" target="_top" xlink:title=" ">
<polygon fill="white" stroke="black" points="169,-560.5 169,-579.5 222,-579.5 222,-560.5 169,-560.5"/>
<text text-anchor="middle" x="195.5" y="-567.5" font-family="Helvetica,sans-Serif" font-size="10.00">event.h</text>
</a>
</g>
</g>
<!-- Node8&#45;&gt;Node9 -->
<g id="edge8" class="edge">
<title>Node8&#45;&gt;Node9</title>
<path fill="none" stroke="midnightblue" d="M195.5,-605.8C195.5,-596.91 195.5,-586.78 195.5,-579.75"/>
<polygon fill="midnightblue" stroke="midnightblue" points="192,-606.08 195.5,-616.08 199,-606.08 192,-606.08"/>
</g>
<!-- Node10 -->
<g id="node10" class="node">
<title>Node10</title>
<g id="a_node10"><a xlink:href="spec_2queue_8h.html" target="_top" xlink:title=" ">
<polygon fill="white" stroke="black" points="109.5,-504.5 109.5,-523.5 165.5,-523.5 165.5,-504.5 109.5,-504.5"/>
<text text-anchor="middle" x="137.5" y="-511.5" font-family="Helvetica,sans-Serif" font-size="10.00">queue.h</text>
</a>
</g>
</g>
<!-- Node9&#45;&gt;Node10 -->
<g id="edge9" class="edge">
<title>Node9&#45;&gt;Node10</title>
<path fill="none" stroke="midnightblue" d="M178.59,-553.25C168.3,-543.67 155.53,-531.79 146.99,-523.83"/>
<polygon fill="midnightblue" stroke="midnightblue" points="176.48,-556.07 186.18,-560.32 181.25,-550.95 176.48,-556.07"/>
</g>
<!-- Node20 -->
<g id="node20" class="node">
<title>Node20</title>
<g id="a_node20"><a xlink:href="spec_2schedule_8h.html" target="_top" xlink:title=" ">
<polygon fill="white" stroke="black" points="184,-504.5 184,-523.5 253,-523.5 253,-504.5 184,-504.5"/>
<text text-anchor="middle" x="218.5" y="-511.5" font-family="Helvetica,sans-Serif" font-size="10.00">schedule.h</text>
</a>
</g>
</g>
<!-- Node9&#45;&gt;Node20 -->
<g id="edge22" class="edge">
<title>Node9&#45;&gt;Node20</title>
<path fill="none" stroke="midnightblue" d="M203.3,-550.69C207.18,-541.59 211.68,-531.01 214.77,-523.75"/>
<polygon fill="midnightblue" stroke="midnightblue" points="200,-549.51 199.3,-560.08 206.44,-552.25 200,-549.51"/>
</g>
<!-- Node11 -->
<g id="node11" class="node">
<title>Node11</title>
<g id="a_node11"><a xlink:href="queue_8h.html" target="_top" xlink:title=" ">
<polygon fill="white" stroke="black" points="109.5,-448.5 109.5,-467.5 165.5,-467.5 165.5,-448.5 109.5,-448.5"/>
<text text-anchor="middle" x="137.5" y="-455.5" font-family="Helvetica,sans-Serif" font-size="10.00">queue.h</text>
</a>
</g>
</g>
<!-- Node10&#45;&gt;Node11 -->
<g id="edge10" class="edge">
<title>Node10&#45;&gt;Node11</title>
<path fill="none" stroke="midnightblue" d="M137.5,-493.8C137.5,-484.91 137.5,-474.78 137.5,-467.75"/>
<polygon fill="midnightblue" stroke="midnightblue" points="134,-494.08 137.5,-504.08 141,-494.08 134,-494.08"/>
</g>
<!-- Node12 -->
<g id="node12" class="node">
<title>Node12</title>
<g id="a_node12"><a xlink:href="spec_2packet__io__stats_8h.html" target="_top" xlink:title=" ">
<polygon fill="white" stroke="black" points="132,-392.5 132,-411.5 233,-411.5 233,-392.5 132,-392.5"/>
<text text-anchor="middle" x="182.5" y="-399.5" font-family="Helvetica,sans-Serif" font-size="10.00">packet_io_stats.h</text>
</a>
</g>
</g>
<!-- Node11&#45;&gt;Node12 -->
<g id="edge11" class="edge">
<title>Node11&#45;&gt;Node12</title>
<path fill="none" stroke="midnightblue" d="M151.55,-440.14C159.39,-430.74 168.83,-419.4 175.21,-411.75"/>
<polygon fill="midnightblue" stroke="midnightblue" points="148.64,-438.16 144.93,-448.08 154.02,-442.64 148.64,-438.16"/>
</g>
<!-- Node13 -->
<g id="node13" class="node">
<title>Node13</title>
<g id="a_node13"><a xlink:href="packet__io__stats_8h.html" target="_top" xlink:title=" ">
<polygon fill="white" stroke="black" points="135,-336.5 135,-355.5 236,-355.5 236,-336.5 135,-336.5"/>
<text text-anchor="middle" x="185.5" y="-343.5" font-family="Helvetica,sans-Serif" font-size="10.00">packet_io_stats.h</text>
</a>
</g>
</g>
<!-- Node12&#45;&gt;Node13 -->
<g id="edge12" class="edge">
<title>Node12&#45;&gt;Node13</title>
<path fill="none" stroke="midnightblue" d="M183.57,-381.8C184.06,-372.91 184.62,-362.78 185.01,-355.75"/>
<polygon fill="midnightblue" stroke="midnightblue" points="180.06,-381.9 183,-392.08 187.04,-382.29 180.06,-381.9"/>
</g>
<!-- Node13&#45;&gt;Node14 -->
<g id="edge13" class="edge">
<title>Node13&#45;&gt;Node14</title>
<path fill="none" stroke="midnightblue" d="M187.95,-326.1C189.11,-317.14 190.44,-306.86 191.37,-299.75"/>
<polygon fill="midnightblue" stroke="midnightblue" points="184.47,-325.72 186.66,-336.08 191.41,-326.62 184.47,-325.72"/>
</g>
<!-- Node15 -->
<g id="node15" class="node">
<title>Node15</title>
<g id="a_node15"><a xlink:href="packet__io_8h.html" target="_top" xlink:title=" ">
<polygon fill="white" stroke="black" points="156.5,-224.5 156.5,-243.5 228.5,-243.5 228.5,-224.5 156.5,-224.5"/>
<text text-anchor="middle" x="192.5" y="-231.5" font-family="Helvetica,sans-Serif" font-size="10.00">packet_io.h</text>
</a>
</g>
</g>
<!-- Node14&#45;&gt;Node15 -->
<g id="edge14" class="edge">
<title>Node14&#45;&gt;Node15</title>
<path fill="none" stroke="midnightblue" d="M192.5,-269.8C192.5,-260.91 192.5,-250.78 192.5,-243.75"/>
<polygon fill="midnightblue" stroke="midnightblue" points="189,-270.08 192.5,-280.08 196,-270.08 189,-270.08"/>
</g>
<!-- Node15&#45;&gt;Node6 -->
<g id="edge18" class="edge">
<title>Node15&#45;&gt;Node6</title>
<path fill="none" stroke="midnightblue" d="M167.32,-219C156.31,-211.4 144.54,-200.91 138.5,-188 120.32,-149.19 141.42,-96.29 151.12,-75.7"/>
<polygon fill="midnightblue" stroke="midnightblue" points="165.56,-222.03 175.87,-224.46 169.33,-216.13 165.56,-222.03"/>
</g>
<!-- Node16 -->
<g id="node16" class="node">
<title>Node16</title>
<g id="a_node16"><a xlink:href="spec_2classification_8h.html" target="_top" xlink:title=" ">
<polygon fill="white" stroke="black" points="148,-168.5 148,-187.5 237,-187.5 237,-168.5 148,-168.5"/>
<text text-anchor="middle" x="192.5" y="-175.5" font-family="Helvetica,sans-Serif" font-size="10.00">classification.h</text>
</a>
</g>
</g>
<!-- Node15&#45;&gt;Node16 -->
<g id="edge15" class="edge">
<title>Node15&#45;&gt;Node16</title>
<path fill="none" stroke="midnightblue" d="M192.5,-213.8C192.5,-204.91 192.5,-194.78 192.5,-187.75"/>
<polygon fill="midnightblue" stroke="midnightblue" points="189,-214.08 192.5,-224.08 196,-214.08 189,-214.08"/>
</g>
<!-- Node18 -->
<g id="node18" class="node">
<title>Node18</title>
<g id="a_node18"><a xlink:href="spec_2traffic__mngr_8h.html" target="_top" xlink:title=" ">
<polygon fill="white" stroke="black" points="254.5,-168.5 254.5,-187.5 338.5,-187.5 338.5,-168.5 254.5,-168.5"/>
<text text-anchor="middle" x="296.5" y="-175.5" font-family="Helvetica,sans-Serif" font-size="10.00">traffic_mngr.h</text>
</a>
</g>
</g>
<!-- Node15&#45;&gt;Node18 -->
<g id="edge19" class="edge">
<title>Node15&#45;&gt;Node18</title>
<path fill="none" stroke="midnightblue" d="M218.33,-219.59C237.56,-209.61 263.24,-196.27 279.83,-187.65"/>
<polygon fill="midnightblue" stroke="midnightblue" points="216.47,-216.61 209.21,-224.32 219.7,-222.82 216.47,-216.61"/>
</g>
<!-- Node17 -->
<g id="node17" class="node">
<title>Node17</title>
<g id="a_node17"><a xlink:href="classification_8h.html" target="_top" xlink:title=" ">
<polygon fill="white" stroke="black" points="148,-112.5 148,-131.5 237,-131.5 237,-112.5 148,-112.5"/>
<text text-anchor="middle" x="192.5" y="-119.5" font-family="Helvetica,sans-Serif" font-size="10.00">classification.h</text>
</a>
</g>
</g>
<!-- Node16&#45;&gt;Node17 -->
<g id="edge16" class="edge">
<title>Node16&#45;&gt;Node17</title>
<path fill="none" stroke="midnightblue" d="M192.5,-157.8C192.5,-148.91 192.5,-138.78 192.5,-131.75"/>
<polygon fill="midnightblue" stroke="midnightblue" points="189,-158.08 192.5,-168.08 196,-158.08 189,-158.08"/>
</g>
<!-- Node17&#45;&gt;Node6 -->
<g id="edge17" class="edge">
<title>Node17&#45;&gt;Node6</title>
<path fill="none" stroke="midnightblue" d="M180.55,-103.57C174.19,-94.27 166.63,-83.25 161.5,-75.75"/>
<polygon fill="midnightblue" stroke="midnightblue" points="177.85,-105.81 186.39,-112.08 183.63,-101.86 177.85,-105.81"/>
</g>
<!-- Node19 -->
<g id="node19" class="node">
<title>Node19</title>
<g id="a_node19"><a xlink:href="traffic__mngr_8h.html" target="_top" xlink:title=" ">
<polygon fill="white" stroke="black" points="254.5,-112.5 254.5,-131.5 338.5,-131.5 338.5,-112.5 254.5,-112.5"/>
<text text-anchor="middle" x="296.5" y="-119.5" font-family="Helvetica,sans-Serif" font-size="10.00">traffic_mngr.h</text>
</a>
</g>
</g>
<!-- Node18&#45;&gt;Node19 -->
<g id="edge20" class="edge">
<title>Node18&#45;&gt;Node19</title>
<path fill="none" stroke="midnightblue" d="M296.5,-157.8C296.5,-148.91 296.5,-138.78 296.5,-131.75"/>
<polygon fill="midnightblue" stroke="midnightblue" points="293,-158.08 296.5,-168.08 300,-158.08 293,-158.08"/>
</g>
<!-- Node19&#45;&gt;Node6 -->
<g id="edge21" class="edge">
<title>Node19&#45;&gt;Node6</title>
<path fill="none" stroke="midnightblue" d="M264.57,-108.77C238.09,-98.63 201.11,-84.47 177.74,-75.52"/>
<polygon fill="midnightblue" stroke="midnightblue" points="263.57,-112.14 274.16,-112.44 266.07,-105.6 263.57,-112.14"/>
</g>
<!-- Node21 -->
<g id="node21" class="node">
<title>Node21</title>
<g id="a_node21"><a xlink:href="schedule_8h.html" target="_top" xlink:title=" ">
<polygon fill="white" stroke="black" points="184,-448.5 184,-467.5 253,-467.5 253,-448.5 184,-448.5"/>
<text text-anchor="middle" x="218.5" y="-455.5" font-family="Helvetica,sans-Serif" font-size="10.00">schedule.h</text>
</a>
</g>
</g>
<!-- Node20&#45;&gt;Node21 -->
<g id="edge23" class="edge">
<title>Node20&#45;&gt;Node21</title>
<path fill="none" stroke="midnightblue" d="M218.5,-493.8C218.5,-484.91 218.5,-474.78 218.5,-467.75"/>
<polygon fill="midnightblue" stroke="midnightblue" points="215,-494.08 218.5,-504.08 222,-494.08 215,-494.08"/>
</g>
<!-- Node23 -->
<g id="node23" class="node">
<title>Node23</title>
<g id="a_node23"><a xlink:href="packet__flags_8h.html" target="_top" xlink:title=" ">
<polygon fill="white" stroke="black" points="309.5,-560.5 309.5,-579.5 395.5,-579.5 395.5,-560.5 309.5,-560.5"/>
<text text-anchor="middle" x="352.5" y="-567.5" font-family="Helvetica,sans-Serif" font-size="10.00">packet_flags.h</text>
</a>
</g>
</g>
<!-- Node22&#45;&gt;Node23 -->
<g id="edge25" class="edge">
<title>Node22&#45;&gt;Node23</title>
<path fill="none" stroke="midnightblue" d="M352.5,-605.8C352.5,-596.91 352.5,-586.78 352.5,-579.75"/>
<polygon fill="midnightblue" stroke="midnightblue" points="349,-606.08 352.5,-616.08 356,-606.08 349,-606.08"/>
</g>
</g>
</svg>
