<?xml version="1.0" encoding="UTF-8" standalone="no"?>
<!DOCTYPE svg PUBLIC "-//W3C//DTD SVG 1.1//EN"
 "http://www.w3.org/Graphics/SVG/1.1/DTD/svg11.dtd">
<!-- Generated by graphviz version 2.43.0 (0)
 -->
<!-- Title: packet_vector_inlines.h Pages: 1 -->
<svg width="706pt" height="151pt"
 viewBox="0.00 0.00 705.50 151.00" xmlns="http://www.w3.org/2000/svg" xmlns:xlink="http://www.w3.org/1999/xlink">
<g id="graph0" class="graph" transform="scale(1 1) rotate(0) translate(4 147)">
<title>packet_vector_inlines.h</title>
<polygon fill="white" stroke="transparent" points="-4,4 -4,-147 701.5,-147 701.5,4 -4,4"/>
<!-- Node1 -->
<g id="node1" class="node">
<title>Node1</title>
<g id="a_node1"><a xlink:title=" ">
<polygon fill="#bfbfbf" stroke="black" points="314.5,-123.5 314.5,-142.5 445.5,-142.5 445.5,-123.5 314.5,-123.5"/>
<text text-anchor="middle" x="380" y="-130.5" font-family="Helvetica,sans-Serif" font-size="10.00">packet_vector_inlines.h</text>
</a>
</g>
</g>
<!-- Node2 -->
<g id="node2" class="node">
<title>Node2</title>
<g id="a_node2"><a xlink:title=" ">
<polygon fill="white" stroke="#bfbfbf" points="0,-62 0,-81 110,-81 110,-62 0,-62"/>
<text text-anchor="middle" x="55" y="-69" font-family="Helvetica,sans-Serif" font-size="10.00">odp/api/abi/event.h</text>
</a>
</g>
</g>
<!-- Node1&#45;&gt;Node2 -->
<g id="edge1" class="edge">
<title>Node1&#45;&gt;Node2</title>
<path fill="none" stroke="midnightblue" d="M326.08,-123.44C273.4,-114.9 191,-101.06 120,-87 114.11,-85.83 107.94,-84.55 101.85,-83.23"/>
<polygon fill="midnightblue" stroke="midnightblue" points="102.23,-79.73 91.72,-81.01 100.74,-86.57 102.23,-79.73"/>
</g>
<!-- Node3 -->
<g id="node3" class="node">
<title>Node3</title>
<g id="a_node3"><a xlink:title=" ">
<polygon fill="white" stroke="#bfbfbf" points="128.5,-62 128.5,-81 243.5,-81 243.5,-62 128.5,-62"/>
<text text-anchor="middle" x="186" y="-69" font-family="Helvetica,sans-Serif" font-size="10.00">odp/api/abi/packet.h</text>
</a>
</g>
</g>
<!-- Node1&#45;&gt;Node3 -->
<g id="edge2" class="edge">
<title>Node1&#45;&gt;Node3</title>
<path fill="none" stroke="midnightblue" d="M352.2,-123.48C318.35,-113.09 261.03,-95.51 223.35,-83.95"/>
<polygon fill="midnightblue" stroke="midnightblue" points="224.33,-80.6 213.74,-81.01 222.28,-87.29 224.33,-80.6"/>
</g>
<!-- Node4 -->
<g id="node4" class="node">
<title>Node4</title>
<g id="a_node4"><a xlink:title=" ">
<polygon fill="white" stroke="#bfbfbf" points="262,-62 262,-81 366,-81 366,-62 262,-62"/>
<text text-anchor="middle" x="314" y="-69" font-family="Helvetica,sans-Serif" font-size="10.00">odp/api/abi/pool.h</text>
</a>
</g>
</g>
<!-- Node1&#45;&gt;Node4 -->
<g id="edge3" class="edge">
<title>Node1&#45;&gt;Node4</title>
<path fill="none" stroke="midnightblue" d="M370.54,-123.48C360.25,-114.2 343.58,-99.17 331.01,-87.83"/>
<polygon fill="midnightblue" stroke="midnightblue" points="333.21,-85.11 323.44,-81.01 328.52,-90.3 333.21,-85.11"/>
</g>
<!-- Node5 -->
<g id="node5" class="node">
<title>Node5</title>
<g id="a_node5"><a xlink:href="event__vector__inline__types_8h_source.html" target="_top" xlink:title=" ">
<polygon fill="white" stroke="black" points="384,-56.5 384,-86.5 510,-86.5 510,-56.5 384,-56.5"/>
<text text-anchor="start" x="392" y="-74.5" font-family="Helvetica,sans-Serif" font-size="10.00">odp/api/plat/event</text>
<text text-anchor="middle" x="447" y="-63.5" font-family="Helvetica,sans-Serif" font-size="10.00">_vector_inline_types.h</text>
</a>
</g>
</g>
<!-- Node1&#45;&gt;Node5 -->
<g id="edge4" class="edge">
<title>Node1&#45;&gt;Node5</title>
<path fill="none" stroke="midnightblue" d="M389.6,-123.48C398.42,-115.64 411.85,-103.71 423.5,-93.37"/>
<polygon fill="midnightblue" stroke="midnightblue" points="426.06,-95.78 431.21,-86.52 421.41,-90.55 426.06,-95.78"/>
</g>
<!-- Node6 -->
<g id="node6" class="node">
<title>Node6</title>
<g id="a_node6"><a xlink:title=" ">
<polygon fill="white" stroke="#bfbfbf" points="465.5,-0.5 465.5,-19.5 518.5,-19.5 518.5,-0.5 465.5,-0.5"/>
<text text-anchor="middle" x="492" y="-7.5" font-family="Helvetica,sans-Serif" font-size="10.00">stdint.h</text>
</a>
</g>
</g>
<!-- Node1&#45;&gt;Node6 -->
<g id="edge7" class="edge">
<title>Node1&#45;&gt;Node6</title>
<path fill="none" stroke="midnightblue" d="M445.52,-127.33C472.82,-121.76 502.07,-110.28 519,-87 532.07,-69.04 518.57,-44.16 506.42,-27.83"/>
<polygon fill="midnightblue" stroke="midnightblue" points="508.94,-25.38 499.98,-19.73 503.47,-29.74 508.94,-25.38"/>
</g>
<!-- Node7 -->
<g id="node7" class="node">
<title>Node7</title>
<g id="a_node7"><a xlink:href="pool__inline__types_8h.html" target="_top" xlink:title=" ">
<polygon fill="white" stroke="black" points="566.5,-56.5 566.5,-86.5 697.5,-86.5 697.5,-56.5 566.5,-56.5"/>
<text text-anchor="start" x="574.5" y="-74.5" font-family="Helvetica,sans-Serif" font-size="10.00">odp/api/plat/pool_inline</text>
<text text-anchor="middle" x="632" y="-63.5" font-family="Helvetica,sans-Serif" font-size="10.00">_types.h</text>
</a>
</g>
</g>
<!-- Node1&#45;&gt;Node7 -->
<g id="edge6" class="edge">
<title>Node1&#45;&gt;Node7</title>
<path fill="none" stroke="midnightblue" d="M416.11,-123.48C454.22,-114.48 515.24,-100.07 562.7,-88.86"/>
<polygon fill="midnightblue" stroke="midnightblue" points="563.68,-92.23 572.61,-86.52 562.07,-85.41 563.68,-92.23"/>
</g>
<!-- Node5&#45;&gt;Node6 -->
<g id="edge5" class="edge">
<title>Node5&#45;&gt;Node6</title>
<path fill="none" stroke="midnightblue" d="M457.66,-56.4C464.14,-47.84 472.43,-36.87 479.25,-27.86"/>
<polygon fill="midnightblue" stroke="midnightblue" points="482.21,-29.74 485.45,-19.66 476.63,-25.52 482.21,-29.74"/>
</g>
</g>
</svg>
