<?xml version="1.0" encoding="UTF-8" standalone="no"?>
<!DOCTYPE svg PUBLIC "-//W3C//DTD SVG 1.1//EN"
 "http://www.w3.org/Graphics/SVG/1.1/DTD/svg11.dtd">
<!-- Generated by graphviz version 2.43.0 (0)
 -->
<!-- Title: packet_flags.h Pages: 1 -->
<svg width="1370pt" height="867pt"
 viewBox="0.00 0.00 1370.00 867.00" xmlns="http://www.w3.org/2000/svg" xmlns:xlink="http://www.w3.org/1999/xlink">
<g id="graph0" class="graph" transform="scale(1 1) rotate(0) translate(4 863)">
<title>packet_flags.h</title>
<polygon fill="white" stroke="transparent" points="-4,4 -4,-863 1366,-863 1366,4 -4,4"/>
<!-- Node1 -->
<g id="node1" class="node">
<title>Node1</title>
<g id="a_node1"><a xlink:title=" ">
<polygon fill="#bfbfbf" stroke="black" points="557,-839.5 557,-858.5 643,-858.5 643,-839.5 557,-839.5"/>
<text text-anchor="middle" x="600" y="-846.5" font-family="Helvetica,sans-Serif" font-size="10.00">packet_flags.h</text>
</a>
</g>
</g>
<!-- Node2 -->
<g id="node2" class="node">
<title>Node2</title>
<g id="a_node2"><a xlink:title=" ">
<polygon fill="white" stroke="#bfbfbf" points="483,-772.5 483,-802.5 589,-802.5 589,-772.5 483,-772.5"/>
<text text-anchor="start" x="491" y="-790.5" font-family="Helvetica,sans-Serif" font-size="10.00">odp/api/abi/packet</text>
<text text-anchor="middle" x="536" y="-779.5" font-family="Helvetica,sans-Serif" font-size="10.00">_flags.h</text>
</a>
</g>
</g>
<!-- Node1&#45;&gt;Node2 -->
<g id="edge1" class="edge">
<title>Node1&#45;&gt;Node2</title>
<path fill="none" stroke="midnightblue" d="M590.83,-839.48C582.41,-831.64 569.58,-819.71 558.44,-809.37"/>
<polygon fill="midnightblue" stroke="midnightblue" points="560.79,-806.77 551.08,-802.52 556.02,-811.9 560.79,-806.77"/>
</g>
<!-- Node3 -->
<g id="node3" class="node">
<title>Node3</title>
<g id="a_node3"><a xlink:href="spec_2packet__flags_8h.html" target="_top" xlink:title=" ">
<polygon fill="white" stroke="black" points="607.5,-772.5 607.5,-802.5 720.5,-802.5 720.5,-772.5 607.5,-772.5"/>
<text text-anchor="start" x="615.5" y="-790.5" font-family="Helvetica,sans-Serif" font-size="10.00">odp/api/spec/packet</text>
<text text-anchor="middle" x="664" y="-779.5" font-family="Helvetica,sans-Serif" font-size="10.00">_flags.h</text>
</a>
</g>
</g>
<!-- Node1&#45;&gt;Node3 -->
<g id="edge2" class="edge">
<title>Node1&#45;&gt;Node3</title>
<path fill="none" stroke="midnightblue" d="M609.17,-839.48C617.59,-831.64 630.42,-819.71 641.56,-809.37"/>
<polygon fill="midnightblue" stroke="midnightblue" points="643.98,-811.9 648.92,-802.52 639.21,-806.77 643.98,-811.9"/>
</g>
<!-- Node4 -->
<g id="node4" class="node">
<title>Node4</title>
<g id="a_node4"><a xlink:title=" ">
<polygon fill="white" stroke="#bfbfbf" points="110.5,-0.5 110.5,-19.5 231.5,-19.5 231.5,-0.5 110.5,-0.5"/>
<text text-anchor="middle" x="171" y="-7.5" font-family="Helvetica,sans-Serif" font-size="10.00">odp/visibility_begin.h</text>
</a>
</g>
</g>
<!-- Node3&#45;&gt;Node4 -->
<g id="edge3" class="edge">
<title>Node3&#45;&gt;Node4</title>
<path fill="none" stroke="midnightblue" d="M607.15,-773.83C604.06,-773.19 600.99,-772.58 598,-772 465.7,-746.31 0,-805.77 0,-671 0,-671 0,-671 0,-121 0,-64.74 66.28,-35.9 116.31,-22.14"/>
<polygon fill="midnightblue" stroke="midnightblue" points="117.28,-25.5 126.07,-19.58 115.51,-18.73 117.28,-25.5"/>
</g>
<!-- Node5 -->
<g id="node5" class="node">
<title>Node5</title>
<g id="a_node5"><a xlink:href="std__types_8h.html" target="_top" xlink:title=" ">
<polygon fill="white" stroke="black" points="673,-224.5 673,-243.5 785,-243.5 785,-224.5 673,-224.5"/>
<text text-anchor="middle" x="729" y="-231.5" font-family="Helvetica,sans-Serif" font-size="10.00">odp/api/std_types.h</text>
</a>
</g>
</g>
<!-- Node3&#45;&gt;Node5 -->
<g id="edge4" class="edge">
<title>Node3&#45;&gt;Node5</title>
<path fill="none" stroke="midnightblue" d="M615.72,-772.48C561.22,-753.69 482.82,-716.1 505,-660 554.86,-533.89 657.73,-559.13 710,-434 735.83,-372.16 733.5,-290.39 730.8,-253.94"/>
<polygon fill="midnightblue" stroke="midnightblue" points="734.27,-253.45 729.95,-243.78 727.3,-254.04 734.27,-253.45"/>
</g>
<!-- Node12 -->
<g id="node12" class="node">
<title>Node12</title>
<g id="a_node12"><a xlink:title=" ">
<polygon fill="white" stroke="#bfbfbf" points="624,-0.5 624,-19.5 736,-19.5 736,-0.5 624,-0.5"/>
<text text-anchor="middle" x="680" y="-7.5" font-family="Helvetica,sans-Serif" font-size="10.00">odp/visibility_end.h</text>
</a>
</g>
</g>
<!-- Node3&#45;&gt;Node12 -->
<g id="edge59" class="edge">
<title>Node3&#45;&gt;Node12</title>
<path fill="none" stroke="midnightblue" d="M720.53,-783.09C886.7,-772.33 1362,-735.87 1362,-671 1362,-671 1362,-671 1362,-121 1362,-59.04 917.58,-25.43 746.25,-14.78"/>
<polygon fill="midnightblue" stroke="midnightblue" points="746.3,-11.28 736.1,-14.15 745.87,-18.26 746.3,-11.28"/>
</g>
<!-- Node13 -->
<g id="node13" class="node">
<title>Node13</title>
<g id="a_node13"><a xlink:href="packet_8h.html" target="_top" xlink:title=" ">
<polygon fill="white" stroke="black" points="794.5,-716.5 794.5,-735.5 891.5,-735.5 891.5,-716.5 794.5,-716.5"/>
<text text-anchor="middle" x="843" y="-723.5" font-family="Helvetica,sans-Serif" font-size="10.00">odp/api/packet.h</text>
</a>
</g>
</g>
<!-- Node3&#45;&gt;Node13 -->
<g id="edge15" class="edge">
<title>Node3&#45;&gt;Node13</title>
<path fill="none" stroke="midnightblue" d="M706.42,-772.4C737.22,-762.16 778.41,-748.47 807.48,-738.81"/>
<polygon fill="midnightblue" stroke="midnightblue" points="808.83,-742.05 817.22,-735.57 806.62,-735.4 808.83,-742.05"/>
</g>
<!-- Node6 -->
<g id="node6" class="node">
<title>Node6</title>
<g id="a_node6"><a xlink:title=" ">
<polygon fill="white" stroke="#bfbfbf" points="656,-168.5 656,-187.5 786,-187.5 786,-168.5 656,-168.5"/>
<text text-anchor="middle" x="721" y="-175.5" font-family="Helvetica,sans-Serif" font-size="10.00">odp/api/abi/std_types.h</text>
</a>
</g>
</g>
<!-- Node5&#45;&gt;Node6 -->
<g id="edge5" class="edge">
<title>Node5&#45;&gt;Node6</title>
<path fill="none" stroke="midnightblue" d="M727.68,-224.08C726.62,-216.93 725.09,-206.64 723.77,-197.69"/>
<polygon fill="midnightblue" stroke="midnightblue" points="727.22,-197.13 722.3,-187.75 720.3,-198.16 727.22,-197.13"/>
</g>
<!-- Node7 -->
<g id="node7" class="node">
<title>Node7</title>
<g id="a_node7"><a xlink:href="spec_2std__types_8h.html" target="_top" xlink:title=" ">
<polygon fill="white" stroke="black" points="842.5,-168.5 842.5,-187.5 979.5,-187.5 979.5,-168.5 842.5,-168.5"/>
<text text-anchor="middle" x="911" y="-175.5" font-family="Helvetica,sans-Serif" font-size="10.00">odp/api/spec/std_types.h</text>
</a>
</g>
</g>
<!-- Node5&#45;&gt;Node7 -->
<g id="edge6" class="edge">
<title>Node5&#45;&gt;Node7</title>
<path fill="none" stroke="midnightblue" d="M757.84,-224.44C788.86,-215.24 838.33,-200.56 872.62,-190.39"/>
<polygon fill="midnightblue" stroke="midnightblue" points="873.71,-193.72 882.3,-187.52 871.71,-187.01 873.71,-193.72"/>
</g>
<!-- Node7&#45;&gt;Node4 -->
<g id="edge7" class="edge">
<title>Node7&#45;&gt;Node4</title>
<path fill="none" stroke="midnightblue" d="M865.68,-168.45C828.99,-160.86 776.32,-148.43 732,-132 661.18,-105.75 652.45,-77.35 580,-56 464.72,-22.02 324.33,-13.27 241.61,-11.26"/>
<polygon fill="midnightblue" stroke="midnightblue" points="241.64,-7.76 231.57,-11.04 241.49,-14.76 241.64,-7.76"/>
</g>
<!-- Node8 -->
<g id="node8" class="node">
<title>Node8</title>
<g id="a_node8"><a xlink:title=" ">
<polygon fill="white" stroke="#bfbfbf" points="887.5,-112.5 887.5,-131.5 940.5,-131.5 940.5,-112.5 887.5,-112.5"/>
<text text-anchor="middle" x="914" y="-119.5" font-family="Helvetica,sans-Serif" font-size="10.00">stdint.h</text>
</a>
</g>
</g>
<!-- Node7&#45;&gt;Node8 -->
<g id="edge8" class="edge">
<title>Node7&#45;&gt;Node8</title>
<path fill="none" stroke="midnightblue" d="M911.5,-168.08C911.89,-161.01 912.45,-150.86 912.95,-141.99"/>
<polygon fill="midnightblue" stroke="midnightblue" points="916.45,-141.93 913.51,-131.75 909.46,-141.54 916.45,-141.93"/>
</g>
<!-- Node9 -->
<g id="node9" class="node">
<title>Node9</title>
<g id="a_node9"><a xlink:href="align_8h.html" target="_top" xlink:title=" ">
<polygon fill="white" stroke="black" points="741.5,-112.5 741.5,-131.5 830.5,-131.5 830.5,-112.5 741.5,-112.5"/>
<text text-anchor="middle" x="786" y="-119.5" font-family="Helvetica,sans-Serif" font-size="10.00">odp/api/align.h</text>
</a>
</g>
</g>
<!-- Node7&#45;&gt;Node9 -->
<g id="edge9" class="edge">
<title>Node7&#45;&gt;Node9</title>
<path fill="none" stroke="midnightblue" d="M891.19,-168.44C870.71,-159.6 838.52,-145.69 815.14,-135.59"/>
<polygon fill="midnightblue" stroke="midnightblue" points="816.28,-132.27 805.71,-131.52 813.51,-138.7 816.28,-132.27"/>
</g>
<!-- Node7&#45;&gt;Node12 -->
<g id="edge14" class="edge">
<title>Node7&#45;&gt;Node12</title>
<path fill="none" stroke="midnightblue" d="M921.71,-168.3C930.94,-160.07 943.59,-146.79 949,-132 954.74,-116.32 962.57,-72.91 948,-56 922.39,-26.28 816.94,-16.18 746.2,-12.75"/>
<polygon fill="midnightblue" stroke="midnightblue" points="746.17,-9.25 736.02,-12.3 745.86,-16.24 746.17,-9.25"/>
</g>
<!-- Node10 -->
<g id="node10" class="node">
<title>Node10</title>
<g id="a_node10"><a xlink:title=" ">
<polygon fill="white" stroke="#bfbfbf" points="798.5,-56.5 798.5,-75.5 905.5,-75.5 905.5,-56.5 798.5,-56.5"/>
<text text-anchor="middle" x="852" y="-63.5" font-family="Helvetica,sans-Serif" font-size="10.00">odp/api/abi/align.h</text>
</a>
</g>
</g>
<!-- Node9&#45;&gt;Node10 -->
<g id="edge10" class="edge">
<title>Node9&#45;&gt;Node10</title>
<path fill="none" stroke="midnightblue" d="M796.6,-112.32C806.46,-104.26 821.35,-92.08 833.22,-82.37"/>
<polygon fill="midnightblue" stroke="midnightblue" points="835.68,-84.88 841.2,-75.83 831.25,-79.46 835.68,-84.88"/>
</g>
<!-- Node11 -->
<g id="node11" class="node">
<title>Node11</title>
<g id="a_node11"><a xlink:href="spec_2align_8h.html" target="_top" xlink:title=" ">
<polygon fill="white" stroke="black" points="666,-56.5 666,-75.5 780,-75.5 780,-56.5 666,-56.5"/>
<text text-anchor="middle" x="723" y="-63.5" font-family="Helvetica,sans-Serif" font-size="10.00">odp/api/spec/align.h</text>
</a>
</g>
</g>
<!-- Node9&#45;&gt;Node11 -->
<g id="edge11" class="edge">
<title>Node9&#45;&gt;Node11</title>
<path fill="none" stroke="midnightblue" d="M775.88,-112.32C766.47,-104.26 752.26,-92.08 740.93,-82.37"/>
<polygon fill="midnightblue" stroke="midnightblue" points="743.18,-79.68 733.31,-75.83 738.62,-85 743.18,-79.68"/>
</g>
<!-- Node11&#45;&gt;Node4 -->
<g id="edge12" class="edge">
<title>Node11&#45;&gt;Node4</title>
<path fill="none" stroke="midnightblue" d="M665.75,-59.4C564.12,-49.46 352.5,-28.76 241.86,-17.93"/>
<polygon fill="midnightblue" stroke="midnightblue" points="242.09,-14.44 231.8,-16.95 241.41,-21.4 242.09,-14.44"/>
</g>
<!-- Node11&#45;&gt;Node12 -->
<g id="edge13" class="edge">
<title>Node11&#45;&gt;Node12</title>
<path fill="none" stroke="midnightblue" d="M715.9,-56.08C709.76,-48.38 700.73,-37.03 693.26,-27.65"/>
<polygon fill="midnightblue" stroke="midnightblue" points="695.94,-25.39 686.97,-19.75 690.46,-29.75 695.94,-25.39"/>
</g>
<!-- Node13&#45;&gt;Node5 -->
<g id="edge16" class="edge">
<title>Node13&#45;&gt;Node5</title>
<path fill="none" stroke="midnightblue" d="M891.94,-718.77C940.22,-711.66 1009.53,-698.58 1029,-680 1050.78,-659.22 1048,-645.1 1048,-615 1048,-615 1048,-615 1048,-551.5 1048,-467.15 820.37,-299.46 749.68,-249.42"/>
<polygon fill="midnightblue" stroke="midnightblue" points="751.7,-246.56 741.51,-243.66 747.67,-252.28 751.7,-246.56"/>
</g>
<!-- Node14 -->
<g id="node14" class="node">
<title>Node14</title>
<g id="a_node14"><a xlink:title=" ">
<polygon fill="white" stroke="#bfbfbf" points="1076,-660.5 1076,-679.5 1186,-679.5 1186,-660.5 1076,-660.5"/>
<text text-anchor="middle" x="1131" y="-667.5" font-family="Helvetica,sans-Serif" font-size="10.00">odp/api/abi/event.h</text>
</a>
</g>
</g>
<!-- Node13&#45;&gt;Node14 -->
<g id="edge17" class="edge">
<title>Node13&#45;&gt;Node14</title>
<path fill="none" stroke="midnightblue" d="M888.63,-716.44C939.3,-706.94 1021.07,-691.61 1075.43,-681.42"/>
<polygon fill="midnightblue" stroke="midnightblue" points="1076.4,-684.8 1085.58,-679.52 1075.11,-677.92 1076.4,-684.8"/>
</g>
<!-- Node15 -->
<g id="node15" class="node">
<title>Node15</title>
<g id="a_node15"><a xlink:title=" ">
<polygon fill="white" stroke="#bfbfbf" points="1204.5,-660.5 1204.5,-679.5 1333.5,-679.5 1333.5,-660.5 1204.5,-660.5"/>
<text text-anchor="middle" x="1269" y="-667.5" font-family="Helvetica,sans-Serif" font-size="10.00">odp/api/abi/packet_io.h</text>
</a>
</g>
</g>
<!-- Node13&#45;&gt;Node15 -->
<g id="edge18" class="edge">
<title>Node13&#45;&gt;Node15</title>
<path fill="none" stroke="midnightblue" d="M891.87,-718.81C965.97,-709.41 1107.33,-691.49 1194.36,-680.46"/>
<polygon fill="midnightblue" stroke="midnightblue" points="1194.95,-683.91 1204.43,-679.18 1194.07,-676.97 1194.95,-683.91"/>
</g>
<!-- Node16 -->
<g id="node16" class="node">
<title>Node16</title>
<g id="a_node16"><a xlink:title=" ">
<polygon fill="white" stroke="#bfbfbf" points="42,-537.5 42,-567.5 148,-567.5 148,-537.5 42,-537.5"/>
<text text-anchor="start" x="50" y="-555.5" font-family="Helvetica,sans-Serif" font-size="10.00">odp/api/abi/packet</text>
<text text-anchor="middle" x="95" y="-544.5" font-family="Helvetica,sans-Serif" font-size="10.00">_types.h</text>
</a>
</g>
</g>
<!-- Node13&#45;&gt;Node16 -->
<g id="edge19" class="edge">
<title>Node13&#45;&gt;Node16</title>
<path fill="none" stroke="midnightblue" d="M794.43,-722.16C634.94,-712.34 134.77,-677.47 88,-624 77.01,-611.44 79.64,-592.39 84.53,-577.25"/>
<polygon fill="midnightblue" stroke="midnightblue" points="87.94,-578.13 88.15,-567.53 81.38,-575.69 87.94,-578.13"/>
</g>
<!-- Node17 -->
<g id="node17" class="node">
<title>Node17</title>
<g id="a_node17"><a xlink:title=" ">
<polygon fill="white" stroke="#bfbfbf" points="654.5,-660.5 654.5,-679.5 769.5,-679.5 769.5,-660.5 654.5,-660.5"/>
<text text-anchor="middle" x="712" y="-667.5" font-family="Helvetica,sans-Serif" font-size="10.00">odp/api/abi/packet.h</text>
</a>
</g>
</g>
<!-- Node13&#45;&gt;Node17 -->
<g id="edge20" class="edge">
<title>Node13&#45;&gt;Node17</title>
<path fill="none" stroke="midnightblue" d="M822.24,-716.44C800.68,-707.56 766.74,-693.56 742.21,-683.45"/>
<polygon fill="midnightblue" stroke="midnightblue" points="743.24,-680.09 732.66,-679.52 740.57,-686.56 743.24,-680.09"/>
</g>
<!-- Node18 -->
<g id="node18" class="node">
<title>Node18</title>
<g id="a_node18"><a xlink:title=" ">
<polygon fill="white" stroke="#bfbfbf" points="788,-660.5 788,-679.5 898,-679.5 898,-660.5 788,-660.5"/>
<text text-anchor="middle" x="843" y="-667.5" font-family="Helvetica,sans-Serif" font-size="10.00">odp/api/abi/buffer.h</text>
</a>
</g>
</g>
<!-- Node13&#45;&gt;Node18 -->
<g id="edge21" class="edge">
<title>Node13&#45;&gt;Node18</title>
<path fill="none" stroke="midnightblue" d="M843,-716.08C843,-709.01 843,-698.86 843,-689.99"/>
<polygon fill="midnightblue" stroke="midnightblue" points="846.5,-689.75 843,-679.75 839.5,-689.75 846.5,-689.75"/>
</g>
<!-- Node19 -->
<g id="node19" class="node">
<title>Node19</title>
<g id="a_node19"><a xlink:title=" ">
<polygon fill="white" stroke="#bfbfbf" points="916,-660.5 916,-679.5 1020,-679.5 1020,-660.5 916,-660.5"/>
<text text-anchor="middle" x="968" y="-667.5" font-family="Helvetica,sans-Serif" font-size="10.00">odp/api/abi/pool.h</text>
</a>
</g>
</g>
<!-- Node13&#45;&gt;Node19 -->
<g id="edge22" class="edge">
<title>Node13&#45;&gt;Node19</title>
<path fill="none" stroke="midnightblue" d="M862.81,-716.44C883.29,-707.6 915.48,-693.69 938.86,-683.59"/>
<polygon fill="midnightblue" stroke="midnightblue" points="940.49,-686.7 948.29,-679.52 937.72,-680.27 940.49,-686.7"/>
</g>
<!-- Node20 -->
<g id="node20" class="node">
<title>Node20</title>
<g id="a_node20"><a xlink:href="spec_2packet_8h.html" target="_top" xlink:title=" ">
<polygon fill="white" stroke="black" points="514,-660.5 514,-679.5 636,-679.5 636,-660.5 514,-660.5"/>
<text text-anchor="middle" x="575" y="-667.5" font-family="Helvetica,sans-Serif" font-size="10.00">odp/api/spec/packet.h</text>
</a>
</g>
</g>
<!-- Node13&#45;&gt;Node20 -->
<g id="edge23" class="edge">
<title>Node13&#45;&gt;Node20</title>
<path fill="none" stroke="midnightblue" d="M800.53,-716.44C753.59,-706.98 677.92,-691.74 627.35,-681.55"/>
<polygon fill="midnightblue" stroke="midnightblue" points="627.76,-678.06 617.27,-679.52 626.38,-684.92 627.76,-678.06"/>
</g>
<!-- Node20&#45;&gt;Node4 -->
<g id="edge24" class="edge">
<title>Node20&#45;&gt;Node4</title>
<path fill="none" stroke="midnightblue" d="M538.51,-660.46C417.65,-631.11 38,-530.14 38,-419.5 38,-419.5 38,-419.5 38,-121 38,-70.73 95.13,-39.1 134.5,-23.27"/>
<polygon fill="midnightblue" stroke="midnightblue" points="136.01,-26.45 144.09,-19.59 133.5,-19.91 136.01,-26.45"/>
</g>
<!-- Node20&#45;&gt;Node12 -->
<g id="edge58" class="edge">
<title>Node20&#45;&gt;Node12</title>
<path fill="none" stroke="midnightblue" d="M633.15,-660.46C698.06,-650.66 798.86,-634.59 836,-624 916.24,-601.11 1010,-636.94 1010,-553.5 1010,-553.5 1010,-553.5 1010,-121 1010,-86.11 995.45,-74.7 966,-56 930.44,-33.41 818.84,-21.11 746.02,-15.31"/>
<polygon fill="midnightblue" stroke="midnightblue" points="746.25,-11.82 736.01,-14.54 745.71,-18.8 746.25,-11.82"/>
</g>
<!-- Node21 -->
<g id="node21" class="node">
<title>Node21</title>
<g id="a_node21"><a xlink:href="proto__stats__types_8h.html" target="_top" xlink:title=" ">
<polygon fill="white" stroke="black" points="535,-470.5 535,-500.5 645,-500.5 645,-470.5 535,-470.5"/>
<text text-anchor="start" x="543" y="-488.5" font-family="Helvetica,sans-Serif" font-size="10.00">odp/api/proto_stats</text>
<text text-anchor="middle" x="590" y="-477.5" font-family="Helvetica,sans-Serif" font-size="10.00">_types.h</text>
</a>
</g>
</g>
<!-- Node20&#45;&gt;Node21 -->
<g id="edge25" class="edge">
<title>Node20&#45;&gt;Node21</title>
<path fill="none" stroke="midnightblue" d="M575.72,-660.2C577.93,-633.33 584.64,-551.74 588.01,-510.67"/>
<polygon fill="midnightblue" stroke="midnightblue" points="591.5,-510.95 588.83,-500.69 584.53,-510.37 591.5,-510.95"/>
</g>
<!-- Node24 -->
<g id="node24" class="node">
<title>Node24</title>
<g id="a_node24"><a xlink:href="time_8h.html" target="_top" xlink:title=" ">
<polygon fill="white" stroke="black" points="860.5,-286 860.5,-305 947.5,-305 947.5,-286 860.5,-286"/>
<text text-anchor="middle" x="904" y="-293" font-family="Helvetica,sans-Serif" font-size="10.00">odp/api/time.h</text>
</a>
</g>
</g>
<!-- Node20&#45;&gt;Node24 -->
<g id="edge31" class="edge">
<title>Node20&#45;&gt;Node24</title>
<path fill="none" stroke="midnightblue" d="M632.02,-660.48C724.26,-645.08 896,-608.95 896,-553.5 896,-553.5 896,-553.5 896,-417.5 896,-381.32 899.61,-339.18 901.98,-315.39"/>
<polygon fill="midnightblue" stroke="midnightblue" points="905.47,-315.6 903.02,-305.29 898.51,-314.88 905.47,-315.6"/>
</g>
<!-- Node27 -->
<g id="node27" class="node">
<title>Node27</title>
<g id="a_node27"><a xlink:href="packet__types_8h.html" target="_top" xlink:title=" ">
<polygon fill="white" stroke="black" points="97.5,-604.5 97.5,-623.5 226.5,-623.5 226.5,-604.5 97.5,-604.5"/>
<text text-anchor="middle" x="162" y="-611.5" font-family="Helvetica,sans-Serif" font-size="10.00">odp/api/packet_types.h</text>
</a>
</g>
</g>
<!-- Node20&#45;&gt;Node27 -->
<g id="edge37" class="edge">
<title>Node20&#45;&gt;Node27</title>
<path fill="none" stroke="midnightblue" d="M513.62,-660.97C439.81,-651.32 316,-635.14 236.71,-624.77"/>
<polygon fill="midnightblue" stroke="midnightblue" points="237.16,-621.3 226.79,-623.47 236.25,-628.24 237.16,-621.3"/>
</g>
<!-- Node22 -->
<g id="node22" class="node">
<title>Node22</title>
<g id="a_node22"><a xlink:title=" ">
<polygon fill="white" stroke="#bfbfbf" points="573,-403.5 573,-433.5 701,-433.5 701,-403.5 573,-403.5"/>
<text text-anchor="start" x="581" y="-421.5" font-family="Helvetica,sans-Serif" font-size="10.00">odp/api/abi/proto_stats</text>
<text text-anchor="middle" x="637" y="-410.5" font-family="Helvetica,sans-Serif" font-size="10.00">_types.h</text>
</a>
</g>
</g>
<!-- Node21&#45;&gt;Node22 -->
<g id="edge26" class="edge">
<title>Node21&#45;&gt;Node22</title>
<path fill="none" stroke="midnightblue" d="M600.2,-470.4C606.23,-462.05 614.02,-451.29 620.87,-441.81"/>
<polygon fill="midnightblue" stroke="midnightblue" points="623.8,-443.73 626.82,-433.58 618.13,-439.63 623.8,-443.73"/>
</g>
<!-- Node23 -->
<g id="node23" class="node">
<title>Node23</title>
<g id="a_node23"><a xlink:href="spec_2proto__stats__types_8h.html" target="_top" xlink:title=" ">
<polygon fill="white" stroke="black" points="563.5,-280.5 563.5,-310.5 670.5,-310.5 670.5,-280.5 563.5,-280.5"/>
<text text-anchor="start" x="571.5" y="-298.5" font-family="Helvetica,sans-Serif" font-size="10.00">odp/api/spec/proto</text>
<text text-anchor="middle" x="617" y="-287.5" font-family="Helvetica,sans-Serif" font-size="10.00">_stats_types.h</text>
</a>
</g>
</g>
<!-- Node21&#45;&gt;Node23 -->
<g id="edge27" class="edge">
<title>Node21&#45;&gt;Node23</title>
<path fill="none" stroke="midnightblue" d="M580.3,-470.21C574.3,-460.47 567.16,-447.03 564,-434 560.76,-420.61 560.85,-416.41 564,-403 571.29,-372 589.02,-339.71 601.98,-318.93"/>
<polygon fill="midnightblue" stroke="midnightblue" points="604.93,-320.81 607.36,-310.5 599.03,-317.04 604.93,-320.81"/>
</g>
<!-- Node23&#45;&gt;Node4 -->
<g id="edge28" class="edge">
<title>Node23&#45;&gt;Node4</title>
<path fill="none" stroke="midnightblue" d="M574.08,-280.43C494.05,-252.42 320.11,-183.03 209,-76 195.2,-62.7 184.74,-43.31 178.32,-29.17"/>
<polygon fill="midnightblue" stroke="midnightblue" points="181.37,-27.39 174.22,-19.57 174.93,-30.14 181.37,-27.39"/>
</g>
<!-- Node23&#45;&gt;Node5 -->
<g id="edge29" class="edge">
<title>Node23&#45;&gt;Node5</title>
<path fill="none" stroke="midnightblue" d="M643.54,-280.4C661.66,-270.77 685.54,-258.09 703.44,-248.58"/>
<polygon fill="midnightblue" stroke="midnightblue" points="705.51,-251.44 712.7,-243.66 702.23,-245.26 705.51,-251.44"/>
</g>
<!-- Node23&#45;&gt;Node12 -->
<g id="edge30" class="edge">
<title>Node23&#45;&gt;Node12</title>
<path fill="none" stroke="midnightblue" d="M615.81,-280.34C614.44,-254.11 615.64,-197.91 647,-168 709.83,-108.08 759.49,-166.87 839,-132 858.05,-123.64 904.68,-94.59 914,-76 917.98,-68.05 919.66,-62.85 914,-56 893.04,-30.62 807.71,-19.41 746.14,-14.55"/>
<polygon fill="midnightblue" stroke="midnightblue" points="746.33,-11.06 736.1,-13.8 745.81,-18.04 746.33,-11.06"/>
</g>
<!-- Node24&#45;&gt;Node5 -->
<g id="edge32" class="edge">
<title>Node24&#45;&gt;Node5</title>
<path fill="none" stroke="midnightblue" d="M878.93,-285.98C848.65,-275.68 797.56,-258.31 763.56,-246.75"/>
<polygon fill="midnightblue" stroke="midnightblue" points="764.62,-243.41 754.03,-243.51 762.37,-250.04 764.62,-243.41"/>
</g>
<!-- Node25 -->
<g id="node25" class="node">
<title>Node25</title>
<g id="a_node25"><a xlink:title=" ">
<polygon fill="white" stroke="#bfbfbf" points="851.5,-224.5 851.5,-243.5 956.5,-243.5 956.5,-224.5 851.5,-224.5"/>
<text text-anchor="middle" x="904" y="-231.5" font-family="Helvetica,sans-Serif" font-size="10.00">odp/api/abi/time.h</text>
</a>
</g>
</g>
<!-- Node24&#45;&gt;Node25 -->
<g id="edge33" class="edge">
<title>Node24&#45;&gt;Node25</title>
<path fill="none" stroke="midnightblue" d="M904,-285.98C904,-277.58 904,-264.48 904,-253.66"/>
<polygon fill="midnightblue" stroke="midnightblue" points="907.5,-253.51 904,-243.51 900.5,-253.51 907.5,-253.51"/>
</g>
<!-- Node26 -->
<g id="node26" class="node">
<title>Node26</title>
<g id="a_node26"><a xlink:href="spec_2time_8h.html" target="_top" xlink:title=" ">
<polygon fill="white" stroke="black" points="458.5,-56.5 458.5,-75.5 571.5,-75.5 571.5,-56.5 458.5,-56.5"/>
<text text-anchor="middle" x="515" y="-63.5" font-family="Helvetica,sans-Serif" font-size="10.00">odp/api/spec/time.h</text>
</a>
</g>
</g>
<!-- Node24&#45;&gt;Node26 -->
<g id="edge34" class="edge">
<title>Node24&#45;&gt;Node26</title>
<path fill="none" stroke="midnightblue" d="M891.06,-285.91C877.73,-276.63 856.84,-260.9 842,-244 815.8,-214.16 826.18,-192.6 795,-168 754.95,-136.4 734.08,-149.07 686,-132 636.69,-114.5 580.03,-92.6 545.9,-79.22"/>
<polygon fill="midnightblue" stroke="midnightblue" points="547.07,-75.92 536.48,-75.52 544.51,-82.43 547.07,-75.92"/>
</g>
<!-- Node26&#45;&gt;Node4 -->
<g id="edge35" class="edge">
<title>Node26&#45;&gt;Node4</title>
<path fill="none" stroke="midnightblue" d="M460.49,-56.44C399.35,-46.85 300.26,-31.29 235.36,-21.1"/>
<polygon fill="midnightblue" stroke="midnightblue" points="235.67,-17.61 225.25,-19.52 234.59,-24.52 235.67,-17.61"/>
</g>
<!-- Node26&#45;&gt;Node12 -->
<g id="edge36" class="edge">
<title>Node26&#45;&gt;Node12</title>
<path fill="none" stroke="midnightblue" d="M541.14,-56.44C569.02,-47.32 613.35,-32.81 644.4,-22.65"/>
<polygon fill="midnightblue" stroke="midnightblue" points="645.56,-25.95 653.98,-19.52 643.38,-19.3 645.56,-25.95"/>
</g>
<!-- Node27&#45;&gt;Node16 -->
<g id="edge38" class="edge">
<title>Node27&#45;&gt;Node16</title>
<path fill="none" stroke="midnightblue" d="M152.4,-604.48C143.58,-596.64 130.15,-584.71 118.5,-574.37"/>
<polygon fill="midnightblue" stroke="midnightblue" points="120.59,-571.55 110.79,-567.52 115.94,-576.78 120.59,-571.55"/>
</g>
<!-- Node28 -->
<g id="node28" class="node">
<title>Node28</title>
<g id="a_node28"><a xlink:href="spec_2packet__types_8h.html" target="_top" xlink:title=" ">
<polygon fill="white" stroke="black" points="309.5,-537.5 309.5,-567.5 422.5,-567.5 422.5,-537.5 309.5,-537.5"/>
<text text-anchor="start" x="317.5" y="-555.5" font-family="Helvetica,sans-Serif" font-size="10.00">odp/api/spec/packet</text>
<text text-anchor="middle" x="366" y="-544.5" font-family="Helvetica,sans-Serif" font-size="10.00">_types.h</text>
</a>
</g>
</g>
<!-- Node27&#45;&gt;Node28 -->
<g id="edge39" class="edge">
<title>Node27&#45;&gt;Node28</title>
<path fill="none" stroke="midnightblue" d="M191.23,-604.48C221.57,-595.63 269.83,-581.55 307.96,-570.43"/>
<polygon fill="midnightblue" stroke="midnightblue" points="309.3,-573.68 317.92,-567.52 307.34,-566.96 309.3,-573.68"/>
</g>
<!-- Node28&#45;&gt;Node4 -->
<g id="edge40" class="edge">
<title>Node28&#45;&gt;Node4</title>
<path fill="none" stroke="midnightblue" d="M309.4,-537.95C225,-516.07 76,-470.25 76,-419.5 76,-419.5 76,-419.5 76,-121 76,-77.74 118.61,-43.09 146.75,-24.91"/>
<polygon fill="midnightblue" stroke="midnightblue" points="148.66,-27.85 155.31,-19.6 144.97,-21.9 148.66,-27.85"/>
</g>
<!-- Node28&#45;&gt;Node12 -->
<g id="edge57" class="edge">
<title>Node28&#45;&gt;Node12</title>
<path fill="none" stroke="midnightblue" d="M392.47,-537.38C407.29,-528.47 425.29,-515.84 438,-501 473.85,-459.15 632.29,-105.26 657,-56 661.53,-46.97 666.64,-36.95 670.89,-28.67"/>
<polygon fill="midnightblue" stroke="midnightblue" points="674.09,-30.1 675.55,-19.61 667.87,-26.9 674.09,-30.1"/>
</g>
<!-- Node28&#45;&gt;Node21 -->
<g id="edge41" class="edge">
<title>Node28&#45;&gt;Node21</title>
<path fill="none" stroke="midnightblue" d="M414.33,-537.48C448.66,-527.51 494.93,-514.09 531.37,-503.51"/>
<polygon fill="midnightblue" stroke="midnightblue" points="532.74,-506.76 541.37,-500.61 530.79,-500.04 532.74,-506.76"/>
</g>
<!-- Node29 -->
<g id="node29" class="node">
<title>Node29</title>
<g id="a_node29"><a xlink:href="queue__types_8h.html" target="_top" xlink:title=" ">
<polygon fill="white" stroke="black" points="302.5,-476 302.5,-495 429.5,-495 429.5,-476 302.5,-476"/>
<text text-anchor="middle" x="366" y="-483" font-family="Helvetica,sans-Serif" font-size="10.00">odp/api/queue_types.h</text>
</a>
</g>
</g>
<!-- Node28&#45;&gt;Node29 -->
<g id="edge42" class="edge">
<title>Node28&#45;&gt;Node29</title>
<path fill="none" stroke="midnightblue" d="M366,-537.4C366,-528.06 366,-515.71 366,-505.52"/>
<polygon fill="midnightblue" stroke="midnightblue" points="369.5,-505.19 366,-495.19 362.5,-505.19 369.5,-505.19"/>
</g>
<!-- Node30 -->
<g id="node30" class="node">
<title>Node30</title>
<g id="a_node30"><a xlink:title=" ">
<polygon fill="white" stroke="#bfbfbf" points="306.5,-409 306.5,-428 451.5,-428 451.5,-409 306.5,-409"/>
<text text-anchor="middle" x="379" y="-416" font-family="Helvetica,sans-Serif" font-size="10.00">odp/api/abi/queue_types.h</text>
</a>
</g>
</g>
<!-- Node29&#45;&gt;Node30 -->
<g id="edge43" class="edge">
<title>Node29&#45;&gt;Node30</title>
<path fill="none" stroke="midnightblue" d="M367.75,-475.73C369.66,-466.18 372.78,-450.62 375.24,-438.28"/>
<polygon fill="midnightblue" stroke="midnightblue" points="378.75,-438.62 377.27,-428.13 371.88,-437.25 378.75,-438.62"/>
</g>
<!-- Node31 -->
<g id="node31" class="node">
<title>Node31</title>
<g id="a_node31"><a xlink:href="spec_2queue__types_8h.html" target="_top" xlink:title=" ">
<polygon fill="white" stroke="black" points="177.5,-403.5 177.5,-433.5 288.5,-433.5 288.5,-403.5 177.5,-403.5"/>
<text text-anchor="start" x="185.5" y="-421.5" font-family="Helvetica,sans-Serif" font-size="10.00">odp/api/spec/queue</text>
<text text-anchor="middle" x="233" y="-410.5" font-family="Helvetica,sans-Serif" font-size="10.00">_types.h</text>
</a>
</g>
</g>
<!-- Node29&#45;&gt;Node31 -->
<g id="edge44" class="edge">
<title>Node29&#45;&gt;Node31</title>
<path fill="none" stroke="midnightblue" d="M348.34,-475.87C328.64,-466.24 296.2,-450.39 270.73,-437.94"/>
<polygon fill="midnightblue" stroke="midnightblue" points="272.22,-434.77 261.7,-433.53 269.15,-441.06 272.22,-434.77"/>
</g>
<!-- Node31&#45;&gt;Node4 -->
<g id="edge45" class="edge">
<title>Node31&#45;&gt;Node4</title>
<path fill="none" stroke="midnightblue" d="M186.47,-403.47C167.42,-395.57 146.69,-383.82 133,-367 112.51,-341.83 114,-328.95 114,-296.5 114,-296.5 114,-296.5 114,-121 114,-84.3 139.32,-47.66 156.21,-27.3"/>
<polygon fill="midnightblue" stroke="midnightblue" points="158.95,-29.48 162.83,-19.62 153.65,-24.9 158.95,-29.48"/>
</g>
<!-- Node31&#45;&gt;Node12 -->
<g id="edge56" class="edge">
<title>Node31&#45;&gt;Node12</title>
<path fill="none" stroke="midnightblue" d="M288.69,-404.5C344.74,-391.22 423.68,-371.86 429,-367 531.29,-273.61 360.92,-162.89 449,-56 469.54,-31.07 552.82,-19.77 613.51,-14.77"/>
<polygon fill="midnightblue" stroke="midnightblue" points="614.1,-18.24 623.79,-13.97 613.55,-11.26 614.1,-18.24"/>
</g>
<!-- Node32 -->
<g id="node32" class="node">
<title>Node32</title>
<g id="a_node32"><a xlink:href="schedule__types_8h.html" target="_top" xlink:title=" ">
<polygon fill="white" stroke="black" points="280,-347.5 280,-366.5 420,-366.5 420,-347.5 280,-347.5"/>
<text text-anchor="middle" x="350" y="-354.5" font-family="Helvetica,sans-Serif" font-size="10.00">odp/api/schedule_types.h</text>
</a>
</g>
</g>
<!-- Node31&#45;&gt;Node32 -->
<g id="edge46" class="edge">
<title>Node31&#45;&gt;Node32</title>
<path fill="none" stroke="midnightblue" d="M260.73,-403.4C279.83,-393.68 305.06,-380.86 323.82,-371.31"/>
<polygon fill="midnightblue" stroke="midnightblue" points="325.65,-374.31 332.98,-366.66 322.48,-368.07 325.65,-374.31"/>
</g>
<!-- Node35 -->
<g id="node35" class="node">
<title>Node35</title>
<g id="a_node35"><a xlink:href="deprecated_8h.html" target="_top" xlink:title=" ">
<polygon fill="white" stroke="black" points="142.5,-347.5 142.5,-366.5 261.5,-366.5 261.5,-347.5 142.5,-347.5"/>
<text text-anchor="middle" x="202" y="-354.5" font-family="Helvetica,sans-Serif" font-size="10.00">odp/api/deprecated.h</text>
</a>
</g>
</g>
<!-- Node31&#45;&gt;Node35 -->
<g id="edge52" class="edge">
<title>Node31&#45;&gt;Node35</title>
<path fill="none" stroke="midnightblue" d="M225.65,-403.4C221.33,-395.11 215.83,-384.55 211.23,-375.71"/>
<polygon fill="midnightblue" stroke="midnightblue" points="214.24,-373.91 206.51,-366.66 208.03,-377.14 214.24,-373.91"/>
</g>
<!-- Node33 -->
<g id="node33" class="node">
<title>Node33</title>
<g id="a_node33"><a xlink:title=" ">
<polygon fill="white" stroke="#bfbfbf" points="323.5,-280.5 323.5,-310.5 440.5,-310.5 440.5,-280.5 323.5,-280.5"/>
<text text-anchor="start" x="331.5" y="-298.5" font-family="Helvetica,sans-Serif" font-size="10.00">odp/api/abi/schedule</text>
<text text-anchor="middle" x="382" y="-287.5" font-family="Helvetica,sans-Serif" font-size="10.00">_types.h</text>
</a>
</g>
</g>
<!-- Node32&#45;&gt;Node33 -->
<g id="edge47" class="edge">
<title>Node32&#45;&gt;Node33</title>
<path fill="none" stroke="midnightblue" d="M354.58,-347.48C358.51,-340.17 364.36,-329.3 369.64,-319.47"/>
<polygon fill="midnightblue" stroke="midnightblue" points="372.8,-320.99 374.46,-310.52 366.64,-317.67 372.8,-320.99"/>
</g>
<!-- Node34 -->
<g id="node34" class="node">
<title>Node34</title>
<g id="a_node34"><a xlink:href="spec_2schedule__types_8h.html" target="_top" xlink:title=" ">
<polygon fill="white" stroke="black" points="180.5,-280.5 180.5,-310.5 305.5,-310.5 305.5,-280.5 180.5,-280.5"/>
<text text-anchor="start" x="188.5" y="-298.5" font-family="Helvetica,sans-Serif" font-size="10.00">odp/api/spec/schedule</text>
<text text-anchor="middle" x="243" y="-287.5" font-family="Helvetica,sans-Serif" font-size="10.00">_types.h</text>
</a>
</g>
</g>
<!-- Node32&#45;&gt;Node34 -->
<g id="edge48" class="edge">
<title>Node32&#45;&gt;Node34</title>
<path fill="none" stroke="midnightblue" d="M334.67,-347.48C319.7,-339.15 296.42,-326.21 277.07,-315.45"/>
<polygon fill="midnightblue" stroke="midnightblue" points="278.66,-312.32 268.22,-310.52 275.26,-318.44 278.66,-312.32"/>
</g>
<!-- Node34&#45;&gt;Node4 -->
<g id="edge49" class="edge">
<title>Node34&#45;&gt;Node4</title>
<path fill="none" stroke="midnightblue" d="M220.97,-280.21C194.04,-260.81 152,-223.42 152,-179 152,-179 152,-179 152,-121 152,-88.49 160.16,-51.35 165.78,-29.61"/>
<polygon fill="midnightblue" stroke="midnightblue" points="169.22,-30.32 168.44,-19.75 162.46,-28.5 169.22,-30.32"/>
</g>
<!-- Node34&#45;&gt;Node5 -->
<g id="edge50" class="edge">
<title>Node34&#45;&gt;Node5</title>
<path fill="none" stroke="midnightblue" d="M305.66,-281.37C308.48,-280.89 311.27,-280.43 314,-280 436.4,-260.91 580.37,-247.25 662.54,-240.28"/>
<polygon fill="midnightblue" stroke="midnightblue" points="663.06,-243.75 672.73,-239.42 662.47,-236.77 663.06,-243.75"/>
</g>
<!-- Node34&#45;&gt;Node12 -->
<g id="edge51" class="edge">
<title>Node34&#45;&gt;Node12</title>
<path fill="none" stroke="midnightblue" d="M248.66,-280.26C266.25,-238.05 324.33,-112.97 416,-56 448.21,-35.98 546.56,-23.2 613.69,-16.57"/>
<polygon fill="midnightblue" stroke="midnightblue" points="614.15,-20.04 623.77,-15.59 613.48,-13.07 614.15,-20.04"/>
</g>
<!-- Node36 -->
<g id="node36" class="node">
<title>Node36</title>
<g id="a_node36"><a xlink:href="spec_2deprecated_8h.html" target="_top" xlink:title=" ">
<polygon fill="white" stroke="black" points="218.5,-56.5 218.5,-75.5 363.5,-75.5 363.5,-56.5 218.5,-56.5"/>
<text text-anchor="middle" x="291" y="-63.5" font-family="Helvetica,sans-Serif" font-size="10.00">odp/api/spec/deprecated.h</text>
</a>
</g>
</g>
<!-- Node35&#45;&gt;Node36 -->
<g id="edge53" class="edge">
<title>Node35&#45;&gt;Node36</title>
<path fill="none" stroke="midnightblue" d="M193.52,-347.23C185.95,-338.75 175.4,-325.13 171,-311 166.91,-297.84 167.5,-293.33 171,-280 192.06,-199.73 250.95,-117.82 277.6,-83.6"/>
<polygon fill="midnightblue" stroke="midnightblue" points="280.47,-85.62 283.92,-75.61 274.97,-81.28 280.47,-85.62"/>
</g>
<!-- Node36&#45;&gt;Node4 -->
<g id="edge54" class="edge">
<title>Node36&#45;&gt;Node4</title>
<path fill="none" stroke="midnightblue" d="M271.99,-56.44C252.41,-47.64 221.69,-33.81 199.27,-23.72"/>
<polygon fill="midnightblue" stroke="midnightblue" points="200.48,-20.43 189.93,-19.52 197.61,-26.81 200.48,-20.43"/>
</g>
<!-- Node36&#45;&gt;Node12 -->
<g id="edge55" class="edge">
<title>Node36&#45;&gt;Node12</title>
<path fill="none" stroke="midnightblue" d="M352.64,-56.44C423.84,-46.56 540.55,-30.36 613.68,-20.21"/>
<polygon fill="midnightblue" stroke="midnightblue" points="614.28,-23.66 623.7,-18.82 613.32,-16.72 614.28,-23.66"/>
</g>
</g>
</svg>
