<?xml version="1.0" encoding="UTF-8" standalone="no"?>
<!DOCTYPE svg PUBLIC "-//W3C//DTD SVG 1.1//EN"
 "http://www.w3.org/Graphics/SVG/1.1/DTD/svg11.dtd">
<!-- Generated by graphviz version 2.43.0 (0)
 -->
<!-- Title: pool.h Pages: 1 -->
<svg width="706pt" height="431pt"
 viewBox="0.00 0.00 706.00 431.00" xmlns="http://www.w3.org/2000/svg" xmlns:xlink="http://www.w3.org/1999/xlink">
<g id="graph0" class="graph" transform="scale(1 1) rotate(0) translate(4 427)">
<title>pool.h</title>
<polygon fill="white" stroke="transparent" points="-4,4 -4,-427 702,-427 702,4 -4,4"/>
<!-- Node1 -->
<g id="node1" class="node">
<title>Node1</title>
<g id="a_node1"><a xlink:title=" ">
<polygon fill="#bfbfbf" stroke="black" points="215.5,-403.5 215.5,-422.5 262.5,-422.5 262.5,-403.5 215.5,-403.5"/>
<text text-anchor="middle" x="239" y="-410.5" font-family="Helvetica,sans-Serif" font-size="10.00">pool.h</text>
</a>
</g>
</g>
<!-- Node2 -->
<g id="node2" class="node">
<title>Node2</title>
<g id="a_node2"><a xlink:title=" ">
<polygon fill="white" stroke="#bfbfbf" points="0,-342 0,-361 104,-361 104,-342 0,-342"/>
<text text-anchor="middle" x="52" y="-349" font-family="Helvetica,sans-Serif" font-size="10.00">odp/api/abi/pool.h</text>
</a>
</g>
</g>
<!-- Node1&#45;&gt;Node2 -->
<g id="edge1" class="edge">
<title>Node1&#45;&gt;Node2</title>
<path fill="none" stroke="midnightblue" d="M215.32,-404.46C183.29,-394.27 125.87,-376 88.36,-364.07"/>
<polygon fill="midnightblue" stroke="midnightblue" points="89.4,-360.73 78.81,-361.03 87.28,-367.4 89.4,-360.73"/>
</g>
<!-- Node3 -->
<g id="node3" class="node">
<title>Node3</title>
<g id="a_node3"><a xlink:title=" ">
<polygon fill="white" stroke="#bfbfbf" points="122.5,-336.5 122.5,-366.5 229.5,-366.5 229.5,-336.5 122.5,-336.5"/>
<text text-anchor="start" x="130.5" y="-354.5" font-family="Helvetica,sans-Serif" font-size="10.00">odp/api/abi/shared</text>
<text text-anchor="middle" x="176" y="-343.5" font-family="Helvetica,sans-Serif" font-size="10.00">_memory.h</text>
</a>
</g>
</g>
<!-- Node1&#45;&gt;Node3 -->
<g id="edge2" class="edge">
<title>Node1&#45;&gt;Node3</title>
<path fill="none" stroke="midnightblue" d="M229.97,-403.48C221.76,-395.72 209.29,-383.94 198.41,-373.66"/>
<polygon fill="midnightblue" stroke="midnightblue" points="200.52,-370.84 190.85,-366.52 195.71,-375.93 200.52,-370.84"/>
</g>
<!-- Node4 -->
<g id="node4" class="node">
<title>Node4</title>
<g id="a_node4"><a xlink:title=" ">
<polygon fill="white" stroke="#bfbfbf" points="248,-342 248,-361 358,-361 358,-342 248,-342"/>
<text text-anchor="middle" x="303" y="-349" font-family="Helvetica,sans-Serif" font-size="10.00">odp/api/abi/event.h</text>
</a>
</g>
</g>
<!-- Node1&#45;&gt;Node4 -->
<g id="edge3" class="edge">
<title>Node1&#45;&gt;Node4</title>
<path fill="none" stroke="midnightblue" d="M248.17,-403.48C258.15,-394.2 274.31,-379.17 286.51,-367.83"/>
<polygon fill="midnightblue" stroke="midnightblue" points="288.91,-370.38 293.85,-361.01 284.14,-365.25 288.91,-370.38"/>
</g>
<!-- Node5 -->
<g id="node5" class="node">
<title>Node5</title>
<g id="a_node5"><a xlink:href="spec_2pool_8h.html" target="_top" xlink:title=" ">
<polygon fill="white" stroke="black" points="376.5,-342 376.5,-361 487.5,-361 487.5,-342 376.5,-342"/>
<text text-anchor="middle" x="432" y="-349" font-family="Helvetica,sans-Serif" font-size="10.00">odp/api/spec/pool.h</text>
</a>
</g>
</g>
<!-- Node1&#45;&gt;Node5 -->
<g id="edge4" class="edge">
<title>Node1&#45;&gt;Node5</title>
<path fill="none" stroke="midnightblue" d="M262.67,-404.7C295.56,-394.56 355.45,-376.1 394.47,-364.07"/>
<polygon fill="midnightblue" stroke="midnightblue" points="395.87,-367.3 404.4,-361.01 393.81,-360.61 395.87,-367.3"/>
</g>
<!-- Node6 -->
<g id="node6" class="node">
<title>Node6</title>
<g id="a_node6"><a xlink:title=" ">
<polygon fill="white" stroke="#bfbfbf" points="246.5,-0.5 246.5,-19.5 367.5,-19.5 367.5,-0.5 246.5,-0.5"/>
<text text-anchor="middle" x="307" y="-7.5" font-family="Helvetica,sans-Serif" font-size="10.00">odp/visibility_begin.h</text>
</a>
</g>
</g>
<!-- Node5&#45;&gt;Node6 -->
<g id="edge5" class="edge">
<title>Node5&#45;&gt;Node6</title>
<path fill="none" stroke="midnightblue" d="M394.92,-341.94C367.14,-334.24 329.22,-320.87 301,-300 271.48,-278.17 250,-271.72 250,-235 250,-235 250,-235 250,-121 250,-84.3 275.32,-47.66 292.21,-27.3"/>
<polygon fill="midnightblue" stroke="midnightblue" points="294.95,-29.48 298.83,-19.62 289.65,-24.9 294.95,-29.48"/>
</g>
<!-- Node7 -->
<g id="node7" class="node">
<title>Node7</title>
<g id="a_node7"><a xlink:href="std__types_8h.html" target="_top" xlink:title=" ">
<polygon fill="white" stroke="black" points="391,-224.5 391,-243.5 503,-243.5 503,-224.5 391,-224.5"/>
<text text-anchor="middle" x="447" y="-231.5" font-family="Helvetica,sans-Serif" font-size="10.00">odp/api/std_types.h</text>
</a>
</g>
</g>
<!-- Node5&#45;&gt;Node7 -->
<g id="edge6" class="edge">
<title>Node5&#45;&gt;Node7</title>
<path fill="none" stroke="midnightblue" d="M439.36,-341.91C446.98,-332.4 458.41,-316.24 463,-300 467.44,-284.29 462.19,-266.25 456.55,-253.17"/>
<polygon fill="midnightblue" stroke="midnightblue" points="459.58,-251.4 452.12,-243.88 453.26,-254.41 459.58,-251.4"/>
</g>
<!-- Node14 -->
<g id="node14" class="node">
<title>Node14</title>
<g id="a_node14"><a xlink:title=" ">
<polygon fill="white" stroke="#bfbfbf" points="585,-0.5 585,-19.5 697,-19.5 697,-0.5 585,-0.5"/>
<text text-anchor="middle" x="641" y="-7.5" font-family="Helvetica,sans-Serif" font-size="10.00">odp/visibility_end.h</text>
</a>
</g>
</g>
<!-- Node5&#45;&gt;Node14 -->
<g id="edge21" class="edge">
<title>Node5&#45;&gt;Node14</title>
<path fill="none" stroke="midnightblue" d="M487.76,-350C565.76,-346.02 698,-325.87 698,-235 698,-235 698,-235 698,-121 698,-84.3 672.68,-47.66 655.79,-27.3"/>
<polygon fill="midnightblue" stroke="midnightblue" points="658.35,-24.9 649.17,-19.62 653.05,-29.48 658.35,-24.9"/>
</g>
<!-- Node15 -->
<g id="node15" class="node">
<title>Node15</title>
<g id="a_node15"><a xlink:href="pool__types_8h.html" target="_top" xlink:title=" ">
<polygon fill="white" stroke="black" points="310.5,-280.5 310.5,-299.5 453.5,-299.5 453.5,-280.5 310.5,-280.5"/>
<text text-anchor="middle" x="382" y="-287.5" font-family="Helvetica,sans-Serif" font-size="10.00">odp/api/spec/pool_types.h</text>
</a>
</g>
</g>
<!-- Node5&#45;&gt;Node15 -->
<g id="edge17" class="edge">
<title>Node5&#45;&gt;Node15</title>
<path fill="none" stroke="midnightblue" d="M424.84,-341.98C417.26,-332.96 405.13,-318.52 395.71,-307.31"/>
<polygon fill="midnightblue" stroke="midnightblue" points="398.26,-304.91 389.15,-299.51 392.9,-309.42 398.26,-304.91"/>
</g>
<!-- Node8 -->
<g id="node8" class="node">
<title>Node8</title>
<g id="a_node8"><a xlink:title=" ">
<polygon fill="white" stroke="#bfbfbf" points="500,-168.5 500,-187.5 630,-187.5 630,-168.5 500,-168.5"/>
<text text-anchor="middle" x="565" y="-175.5" font-family="Helvetica,sans-Serif" font-size="10.00">odp/api/abi/std_types.h</text>
</a>
</g>
</g>
<!-- Node7&#45;&gt;Node8 -->
<g id="edge7" class="edge">
<title>Node7&#45;&gt;Node8</title>
<path fill="none" stroke="midnightblue" d="M465.7,-224.44C484.94,-215.64 515.15,-201.81 537.2,-191.72"/>
<polygon fill="midnightblue" stroke="midnightblue" points="538.75,-194.86 546.39,-187.52 535.84,-188.5 538.75,-194.86"/>
</g>
<!-- Node9 -->
<g id="node9" class="node">
<title>Node9</title>
<g id="a_node9"><a xlink:href="spec_2std__types_8h.html" target="_top" xlink:title=" ">
<polygon fill="white" stroke="black" points="344.5,-168.5 344.5,-187.5 481.5,-187.5 481.5,-168.5 344.5,-168.5"/>
<text text-anchor="middle" x="413" y="-175.5" font-family="Helvetica,sans-Serif" font-size="10.00">odp/api/spec/std_types.h</text>
</a>
</g>
</g>
<!-- Node7&#45;&gt;Node9 -->
<g id="edge8" class="edge">
<title>Node7&#45;&gt;Node9</title>
<path fill="none" stroke="midnightblue" d="M441.39,-224.08C436.63,-216.53 429.68,-205.49 423.85,-196.23"/>
<polygon fill="midnightblue" stroke="midnightblue" points="426.8,-194.35 418.51,-187.75 420.88,-198.08 426.8,-194.35"/>
</g>
<!-- Node9&#45;&gt;Node6 -->
<g id="edge9" class="edge">
<title>Node9&#45;&gt;Node6</title>
<path fill="none" stroke="midnightblue" d="M398.7,-168.19C386.51,-160.07 369.23,-147.02 358,-132 333.97,-99.86 318.87,-54.7 311.79,-29.63"/>
<polygon fill="midnightblue" stroke="midnightblue" points="315.07,-28.39 309.09,-19.65 308.32,-30.21 315.07,-28.39"/>
</g>
<!-- Node10 -->
<g id="node10" class="node">
<title>Node10</title>
<g id="a_node10"><a xlink:title=" ">
<polygon fill="white" stroke="#bfbfbf" points="474.5,-112.5 474.5,-131.5 527.5,-131.5 527.5,-112.5 474.5,-112.5"/>
<text text-anchor="middle" x="501" y="-119.5" font-family="Helvetica,sans-Serif" font-size="10.00">stdint.h</text>
</a>
</g>
</g>
<!-- Node9&#45;&gt;Node10 -->
<g id="edge10" class="edge">
<title>Node9&#45;&gt;Node10</title>
<path fill="none" stroke="midnightblue" d="M427.14,-168.32C440.87,-159.9 461.94,-146.97 478.06,-137.07"/>
<polygon fill="midnightblue" stroke="midnightblue" points="480.2,-139.87 486.9,-131.65 476.54,-133.9 480.2,-139.87"/>
</g>
<!-- Node11 -->
<g id="node11" class="node">
<title>Node11</title>
<g id="a_node11"><a xlink:href="align_8h.html" target="_top" xlink:title=" ">
<polygon fill="white" stroke="black" points="367.5,-112.5 367.5,-131.5 456.5,-131.5 456.5,-112.5 367.5,-112.5"/>
<text text-anchor="middle" x="412" y="-119.5" font-family="Helvetica,sans-Serif" font-size="10.00">odp/api/align.h</text>
</a>
</g>
</g>
<!-- Node9&#45;&gt;Node11 -->
<g id="edge11" class="edge">
<title>Node9&#45;&gt;Node11</title>
<path fill="none" stroke="midnightblue" d="M412.83,-168.08C412.7,-161.01 412.52,-150.86 412.35,-141.99"/>
<polygon fill="midnightblue" stroke="midnightblue" points="415.85,-141.68 412.16,-131.75 408.85,-141.81 415.85,-141.68"/>
</g>
<!-- Node9&#45;&gt;Node14 -->
<g id="edge16" class="edge">
<title>Node9&#45;&gt;Node14</title>
<path fill="none" stroke="midnightblue" d="M446.26,-168.43C472.06,-160.98 508.18,-148.73 537,-132 570.27,-112.69 578.27,-105.47 603,-76 615.19,-61.48 625.76,-42.55 632.64,-28.87"/>
<polygon fill="midnightblue" stroke="midnightblue" points="635.93,-30.11 637.14,-19.59 629.63,-27.05 635.93,-30.11"/>
</g>
<!-- Node12 -->
<g id="node12" class="node">
<title>Node12</title>
<g id="a_node12"><a xlink:title=" ">
<polygon fill="white" stroke="#bfbfbf" points="486.5,-56.5 486.5,-75.5 593.5,-75.5 593.5,-56.5 486.5,-56.5"/>
<text text-anchor="middle" x="540" y="-63.5" font-family="Helvetica,sans-Serif" font-size="10.00">odp/api/abi/align.h</text>
</a>
</g>
</g>
<!-- Node11&#45;&gt;Node12 -->
<g id="edge12" class="edge">
<title>Node11&#45;&gt;Node12</title>
<path fill="none" stroke="midnightblue" d="M432.28,-112.44C453.35,-103.56 486.52,-89.56 510.49,-79.45"/>
<polygon fill="midnightblue" stroke="midnightblue" points="511.96,-82.63 519.81,-75.52 509.24,-76.18 511.96,-82.63"/>
</g>
<!-- Node13 -->
<g id="node13" class="node">
<title>Node13</title>
<g id="a_node13"><a xlink:href="spec_2align_8h.html" target="_top" xlink:title=" ">
<polygon fill="white" stroke="black" points="354,-56.5 354,-75.5 468,-75.5 468,-56.5 354,-56.5"/>
<text text-anchor="middle" x="411" y="-63.5" font-family="Helvetica,sans-Serif" font-size="10.00">odp/api/spec/align.h</text>
</a>
</g>
</g>
<!-- Node11&#45;&gt;Node13 -->
<g id="edge13" class="edge">
<title>Node11&#45;&gt;Node13</title>
<path fill="none" stroke="midnightblue" d="M411.83,-112.08C411.7,-105.01 411.52,-94.86 411.35,-85.99"/>
<polygon fill="midnightblue" stroke="midnightblue" points="414.85,-85.68 411.16,-75.75 407.85,-85.81 414.85,-85.68"/>
</g>
<!-- Node13&#45;&gt;Node6 -->
<g id="edge14" class="edge">
<title>Node13&#45;&gt;Node6</title>
<path fill="none" stroke="midnightblue" d="M394.29,-56.32C377.69,-47.7 352,-34.36 332.78,-24.39"/>
<polygon fill="midnightblue" stroke="midnightblue" points="334.16,-21.16 323.67,-19.65 330.93,-27.37 334.16,-21.16"/>
</g>
<!-- Node13&#45;&gt;Node14 -->
<g id="edge15" class="edge">
<title>Node13&#45;&gt;Node14</title>
<path fill="none" stroke="midnightblue" d="M447.44,-56.44C487.4,-47.06 551.59,-31.99 594.98,-21.8"/>
<polygon fill="midnightblue" stroke="midnightblue" points="595.79,-25.21 604.73,-19.52 594.19,-18.39 595.79,-25.21"/>
</g>
<!-- Node15&#45;&gt;Node6 -->
<g id="edge18" class="edge">
<title>Node15&#45;&gt;Node6</title>
<path fill="none" stroke="midnightblue" d="M366.48,-280.35C339.78,-264.2 288,-226.73 288,-179 288,-179 288,-179 288,-121 288,-88.49 296.16,-51.35 301.78,-29.61"/>
<polygon fill="midnightblue" stroke="midnightblue" points="305.22,-30.32 304.44,-19.75 298.46,-28.5 305.22,-30.32"/>
</g>
<!-- Node15&#45;&gt;Node7 -->
<g id="edge19" class="edge">
<title>Node15&#45;&gt;Node7</title>
<path fill="none" stroke="midnightblue" d="M392.44,-280.32C402.15,-272.26 416.82,-260.08 428.5,-250.37"/>
<polygon fill="midnightblue" stroke="midnightblue" points="430.91,-252.92 436.37,-243.83 426.44,-247.53 430.91,-252.92"/>
</g>
<!-- Node15&#45;&gt;Node14 -->
<g id="edge20" class="edge">
<title>Node15&#45;&gt;Node14</title>
<path fill="none" stroke="midnightblue" d="M428.84,-280.48C508.07,-264.73 660,-228.11 660,-179 660,-179 660,-179 660,-121 660,-88.49 651.84,-51.35 646.22,-29.61"/>
<polygon fill="midnightblue" stroke="midnightblue" points="649.54,-28.5 643.56,-19.75 642.78,-30.32 649.54,-28.5"/>
</g>
</g>
</svg>
