<?xml version="1.0" encoding="UTF-8" standalone="no"?>
<!DOCTYPE svg PUBLIC "-//W3C//DTD SVG 1.1//EN"
 "http://www.w3.org/Graphics/SVG/1.1/DTD/svg11.dtd">
<!-- Generated by graphviz version 2.43.0 (0)
 -->
<!-- Title: queue.h Pages: 1 -->
<svg width="238pt" height="476pt"
 viewBox="0.00 0.00 237.50 476.00" xmlns="http://www.w3.org/2000/svg" xmlns:xlink="http://www.w3.org/1999/xlink">
<g id="graph0" class="graph" transform="scale(1 1) rotate(0) translate(4 472)">
<title>queue.h</title>
<polygon fill="white" stroke="transparent" points="-4,4 -4,-472 233.5,-472 233.5,4 -4,4"/>
<!-- Node1 -->
<g id="node1" class="node">
<title>Node1</title>
<g id="a_node1"><a xlink:title=" ">
<polygon fill="#bfbfbf" stroke="black" points="89.5,-448.5 89.5,-467.5 145.5,-467.5 145.5,-448.5 89.5,-448.5"/>
<text text-anchor="middle" x="117.5" y="-455.5" font-family="Helvetica,sans-Serif" font-size="10.00">queue.h</text>
</a>
</g>
</g>
<!-- Node2 -->
<g id="node2" class="node">
<title>Node2</title>
<g id="a_node2"><a xlink:href="spec_2packet__io__stats_8h.html" target="_top" xlink:title=" ">
<polygon fill="white" stroke="black" points="67,-392.5 67,-411.5 168,-411.5 168,-392.5 67,-392.5"/>
<text text-anchor="middle" x="117.5" y="-399.5" font-family="Helvetica,sans-Serif" font-size="10.00">packet_io_stats.h</text>
</a>
</g>
</g>
<!-- Node1&#45;&gt;Node2 -->
<g id="edge1" class="edge">
<title>Node1&#45;&gt;Node2</title>
<path fill="none" stroke="midnightblue" d="M117.5,-437.8C117.5,-428.91 117.5,-418.78 117.5,-411.75"/>
<polygon fill="midnightblue" stroke="midnightblue" points="114,-438.08 117.5,-448.08 121,-438.08 114,-438.08"/>
</g>
<!-- Node3 -->
<g id="node3" class="node">
<title>Node3</title>
<g id="a_node3"><a xlink:href="packet__io__stats_8h.html" target="_top" xlink:title=" ">
<polygon fill="white" stroke="black" points="67,-336.5 67,-355.5 168,-355.5 168,-336.5 67,-336.5"/>
<text text-anchor="middle" x="117.5" y="-343.5" font-family="Helvetica,sans-Serif" font-size="10.00">packet_io_stats.h</text>
</a>
</g>
</g>
<!-- Node2&#45;&gt;Node3 -->
<g id="edge2" class="edge">
<title>Node2&#45;&gt;Node3</title>
<path fill="none" stroke="midnightblue" d="M117.5,-381.8C117.5,-372.91 117.5,-362.78 117.5,-355.75"/>
<polygon fill="midnightblue" stroke="midnightblue" points="114,-382.08 117.5,-392.08 121,-382.08 114,-382.08"/>
</g>
<!-- Node4 -->
<g id="node4" class="node">
<title>Node4</title>
<g id="a_node4"><a xlink:href="spec_2packet__io_8h.html" target="_top" xlink:title=" ">
<polygon fill="white" stroke="black" points="81.5,-280.5 81.5,-299.5 153.5,-299.5 153.5,-280.5 81.5,-280.5"/>
<text text-anchor="middle" x="117.5" y="-287.5" font-family="Helvetica,sans-Serif" font-size="10.00">packet_io.h</text>
</a>
</g>
</g>
<!-- Node3&#45;&gt;Node4 -->
<g id="edge3" class="edge">
<title>Node3&#45;&gt;Node4</title>
<path fill="none" stroke="midnightblue" d="M117.5,-325.8C117.5,-316.91 117.5,-306.78 117.5,-299.75"/>
<polygon fill="midnightblue" stroke="midnightblue" points="114,-326.08 117.5,-336.08 121,-326.08 114,-326.08"/>
</g>
<!-- Node5 -->
<g id="node5" class="node">
<title>Node5</title>
<g id="a_node5"><a xlink:href="packet__io_8h.html" target="_top" xlink:title=" ">
<polygon fill="white" stroke="black" points="81.5,-224.5 81.5,-243.5 153.5,-243.5 153.5,-224.5 81.5,-224.5"/>
<text text-anchor="middle" x="117.5" y="-231.5" font-family="Helvetica,sans-Serif" font-size="10.00">packet_io.h</text>
</a>
</g>
</g>
<!-- Node4&#45;&gt;Node5 -->
<g id="edge4" class="edge">
<title>Node4&#45;&gt;Node5</title>
<path fill="none" stroke="midnightblue" d="M117.5,-269.8C117.5,-260.91 117.5,-250.78 117.5,-243.75"/>
<polygon fill="midnightblue" stroke="midnightblue" points="114,-270.08 117.5,-280.08 121,-270.08 114,-270.08"/>
</g>
<!-- Node6 -->
<g id="node6" class="node">
<title>Node6</title>
<g id="a_node6"><a xlink:href="spec_2classification_8h.html" target="_top" xlink:title=" ">
<polygon fill="white" stroke="black" points="0,-168.5 0,-187.5 89,-187.5 89,-168.5 0,-168.5"/>
<text text-anchor="middle" x="44.5" y="-175.5" font-family="Helvetica,sans-Serif" font-size="10.00">classification.h</text>
</a>
</g>
</g>
<!-- Node5&#45;&gt;Node6 -->
<g id="edge5" class="edge">
<title>Node5&#45;&gt;Node6</title>
<path fill="none" stroke="midnightblue" d="M97.36,-218.1C84.22,-208.38 67.52,-196.03 56.44,-187.83"/>
<polygon fill="midnightblue" stroke="midnightblue" points="95.65,-221.19 105.77,-224.32 99.81,-215.56 95.65,-221.19"/>
</g>
<!-- Node8 -->
<g id="node8" class="node">
<title>Node8</title>
<g id="a_node8"><a xlink:href="spec_2ipsec_8h.html" target="_top" xlink:title=" ">
<polygon fill="white" stroke="black" points="92,-56.5 92,-75.5 143,-75.5 143,-56.5 92,-56.5"/>
<text text-anchor="middle" x="117.5" y="-63.5" font-family="Helvetica,sans-Serif" font-size="10.00">ipsec.h</text>
</a>
</g>
</g>
<!-- Node5&#45;&gt;Node8 -->
<g id="edge9" class="edge">
<title>Node5&#45;&gt;Node8</title>
<path fill="none" stroke="midnightblue" d="M117.5,-213.93C117.5,-177.92 117.5,-101.23 117.5,-75.57"/>
<polygon fill="midnightblue" stroke="midnightblue" points="114,-214.08 117.5,-224.08 121,-214.08 114,-214.08"/>
</g>
<!-- Node10 -->
<g id="node10" class="node">
<title>Node10</title>
<g id="a_node10"><a xlink:href="spec_2traffic__mngr_8h.html" target="_top" xlink:title=" ">
<polygon fill="white" stroke="black" points="145.5,-168.5 145.5,-187.5 229.5,-187.5 229.5,-168.5 145.5,-168.5"/>
<text text-anchor="middle" x="187.5" y="-175.5" font-family="Helvetica,sans-Serif" font-size="10.00">traffic_mngr.h</text>
</a>
</g>
</g>
<!-- Node5&#45;&gt;Node10 -->
<g id="edge10" class="edge">
<title>Node5&#45;&gt;Node10</title>
<path fill="none" stroke="midnightblue" d="M136.81,-218.1C149.41,-208.38 165.43,-196.03 176.05,-187.83"/>
<polygon fill="midnightblue" stroke="midnightblue" points="134.53,-215.44 128.75,-224.32 138.8,-220.99 134.53,-215.44"/>
</g>
<!-- Node7 -->
<g id="node7" class="node">
<title>Node7</title>
<g id="a_node7"><a xlink:href="classification_8h.html" target="_top" xlink:title=" ">
<polygon fill="white" stroke="black" points="0,-112.5 0,-131.5 89,-131.5 89,-112.5 0,-112.5"/>
<text text-anchor="middle" x="44.5" y="-119.5" font-family="Helvetica,sans-Serif" font-size="10.00">classification.h</text>
</a>
</g>
</g>
<!-- Node6&#45;&gt;Node7 -->
<g id="edge6" class="edge">
<title>Node6&#45;&gt;Node7</title>
<path fill="none" stroke="midnightblue" d="M44.5,-157.8C44.5,-148.91 44.5,-138.78 44.5,-131.75"/>
<polygon fill="midnightblue" stroke="midnightblue" points="41,-158.08 44.5,-168.08 48,-158.08 41,-158.08"/>
</g>
<!-- Node7&#45;&gt;Node8 -->
<g id="edge7" class="edge">
<title>Node7&#45;&gt;Node8</title>
<path fill="none" stroke="midnightblue" d="M64.64,-106.1C77.78,-96.38 94.48,-84.03 105.56,-75.83"/>
<polygon fill="midnightblue" stroke="midnightblue" points="62.19,-103.56 56.23,-112.32 66.35,-109.19 62.19,-103.56"/>
</g>
<!-- Node9 -->
<g id="node9" class="node">
<title>Node9</title>
<g id="a_node9"><a xlink:href="ipsec_8h.html" target="_top" xlink:title=" ">
<polygon fill="white" stroke="black" points="92,-0.5 92,-19.5 143,-19.5 143,-0.5 92,-0.5"/>
<text text-anchor="middle" x="117.5" y="-7.5" font-family="Helvetica,sans-Serif" font-size="10.00">ipsec.h</text>
</a>
</g>
</g>
<!-- Node8&#45;&gt;Node9 -->
<g id="edge8" class="edge">
<title>Node8&#45;&gt;Node9</title>
<path fill="none" stroke="midnightblue" d="M117.5,-45.8C117.5,-36.91 117.5,-26.78 117.5,-19.75"/>
<polygon fill="midnightblue" stroke="midnightblue" points="114,-46.08 117.5,-56.08 121,-46.08 114,-46.08"/>
</g>
<!-- Node11 -->
<g id="node11" class="node">
<title>Node11</title>
<g id="a_node11"><a xlink:href="traffic__mngr_8h.html" target="_top" xlink:title=" ">
<polygon fill="white" stroke="black" points="145.5,-112.5 145.5,-131.5 229.5,-131.5 229.5,-112.5 145.5,-112.5"/>
<text text-anchor="middle" x="187.5" y="-119.5" font-family="Helvetica,sans-Serif" font-size="10.00">traffic_mngr.h</text>
</a>
</g>
</g>
<!-- Node10&#45;&gt;Node11 -->
<g id="edge11" class="edge">
<title>Node10&#45;&gt;Node11</title>
<path fill="none" stroke="midnightblue" d="M187.5,-157.8C187.5,-148.91 187.5,-138.78 187.5,-131.75"/>
<polygon fill="midnightblue" stroke="midnightblue" points="184,-158.08 187.5,-168.08 191,-158.08 184,-158.08"/>
</g>
<!-- Node11&#45;&gt;Node8 -->
<g id="edge12" class="edge">
<title>Node11&#45;&gt;Node8</title>
<path fill="none" stroke="midnightblue" d="M168.19,-106.1C155.59,-96.38 139.57,-84.03 128.95,-75.83"/>
<polygon fill="midnightblue" stroke="midnightblue" points="166.2,-108.99 176.25,-112.32 170.47,-103.44 166.2,-108.99"/>
</g>
</g>
</svg>
