<?xml version="1.0" encoding="UTF-8" standalone="no"?>
<!DOCTYPE svg PUBLIC "-//W3C//DTD SVG 1.1//EN"
 "http://www.w3.org/Graphics/SVG/1.1/DTD/svg11.dtd">
<!-- Generated by graphviz version 2.43.0 (0)
 -->
<!-- Title: schedule.h Pages: 1 -->
<svg width="1419pt" height="968pt"
 viewBox="0.00 0.00 1419.00 968.00" xmlns="http://www.w3.org/2000/svg" xmlns:xlink="http://www.w3.org/1999/xlink">
<g id="graph0" class="graph" transform="scale(1 1) rotate(0) translate(4 964)">
<title>schedule.h</title>
<polygon fill="white" stroke="transparent" points="-4,4 -4,-964 1415,-964 1415,4 -4,4"/>
<!-- Node1 -->
<g id="node1" class="node">
<title>Node1</title>
<g id="a_node1"><a xlink:title=" ">
<polygon fill="#bfbfbf" stroke="black" points="1221.5,-940.5 1221.5,-959.5 1290.5,-959.5 1290.5,-940.5 1221.5,-940.5"/>
<text text-anchor="middle" x="1256" y="-947.5" font-family="Helvetica,sans-Serif" font-size="10.00">schedule.h</text>
</a>
</g>
</g>
<!-- Node2 -->
<g id="node2" class="node">
<title>Node2</title>
<g id="a_node2"><a xlink:title=" ">
<polygon fill="white" stroke="#bfbfbf" points="821.5,-280.5 821.5,-310.5 938.5,-310.5 938.5,-280.5 821.5,-280.5"/>
<text text-anchor="start" x="829.5" y="-298.5" font-family="Helvetica,sans-Serif" font-size="10.00">odp/api/abi/schedule</text>
<text text-anchor="middle" x="880" y="-287.5" font-family="Helvetica,sans-Serif" font-size="10.00">_types.h</text>
</a>
</g>
</g>
<!-- Node1&#45;&gt;Node2 -->
<g id="edge1" class="edge">
<title>Node1&#45;&gt;Node2</title>
<path fill="none" stroke="midnightblue" d="M1250.52,-940.3C1219.37,-890.54 1066,-641.1 1066,-553.5 1066,-553.5 1066,-553.5 1066,-417.5 1066,-359.38 1001.41,-327.74 948.35,-311.56"/>
<polygon fill="midnightblue" stroke="midnightblue" points="949.18,-308.15 938.6,-308.71 947.22,-314.87 949.18,-308.15"/>
</g>
<!-- Node3 -->
<g id="node3" class="node">
<title>Node3</title>
<g id="a_node3"><a xlink:title=" ">
<polygon fill="white" stroke="#bfbfbf" points="1284,-884.5 1284,-903.5 1410,-903.5 1410,-884.5 1284,-884.5"/>
<text text-anchor="middle" x="1347" y="-891.5" font-family="Helvetica,sans-Serif" font-size="10.00">odp/api/abi/schedule.h</text>
</a>
</g>
</g>
<!-- Node1&#45;&gt;Node3 -->
<g id="edge2" class="edge">
<title>Node1&#45;&gt;Node3</title>
<path fill="none" stroke="midnightblue" d="M1270.62,-940.32C1284.95,-931.82 1307.01,-918.73 1323.75,-908.8"/>
<polygon fill="midnightblue" stroke="midnightblue" points="1325.6,-911.77 1332.42,-903.65 1322.03,-905.75 1325.6,-911.77"/>
</g>
<!-- Node4 -->
<g id="node4" class="node">
<title>Node4</title>
<g id="a_node4"><a xlink:href="spec_2schedule_8h.html" target="_top" xlink:title=" ">
<polygon fill="white" stroke="black" points="999,-884.5 999,-903.5 1133,-903.5 1133,-884.5 999,-884.5"/>
<text text-anchor="middle" x="1066" y="-891.5" font-family="Helvetica,sans-Serif" font-size="10.00">odp/api/spec/schedule.h</text>
</a>
</g>
</g>
<!-- Node1&#45;&gt;Node4 -->
<g id="edge3" class="edge">
<title>Node1&#45;&gt;Node4</title>
<path fill="none" stroke="midnightblue" d="M1225.89,-940.44C1193.37,-931.2 1141.42,-916.44 1105.61,-906.26"/>
<polygon fill="midnightblue" stroke="midnightblue" points="1106.54,-902.88 1095.97,-903.52 1104.63,-909.62 1106.54,-902.88"/>
</g>
<!-- Node5 -->
<g id="node5" class="node">
<title>Node5</title>
<g id="a_node5"><a xlink:title=" ">
<polygon fill="white" stroke="#bfbfbf" points="999.5,-0.5 999.5,-19.5 1120.5,-19.5 1120.5,-0.5 999.5,-0.5"/>
<text text-anchor="middle" x="1060" y="-7.5" font-family="Helvetica,sans-Serif" font-size="10.00">odp/visibility_begin.h</text>
</a>
</g>
</g>
<!-- Node4&#45;&gt;Node5 -->
<g id="edge4" class="edge">
<title>Node4&#45;&gt;Node5</title>
<path fill="none" stroke="midnightblue" d="M1101.38,-884.4C1122.94,-877.6 1149.76,-866.16 1168,-848 1187.32,-828.77 1182.38,-817.1 1193,-792 1296.57,-547.16 1411,-500.84 1411,-235 1411,-235 1411,-235 1411,-121 1411,-72.02 1367.11,-75.09 1322,-56 1260.61,-30.01 1185.09,-19.03 1130.93,-14.38"/>
<polygon fill="midnightblue" stroke="midnightblue" points="1130.98,-10.88 1120.73,-13.56 1130.42,-17.85 1130.98,-10.88"/>
</g>
<!-- Node6 -->
<g id="node6" class="node">
<title>Node6</title>
<g id="a_node6"><a xlink:href="std__types_8h.html" target="_top" xlink:title=" ">
<polygon fill="white" stroke="black" points="594,-224.5 594,-243.5 706,-243.5 706,-224.5 594,-224.5"/>
<text text-anchor="middle" x="650" y="-231.5" font-family="Helvetica,sans-Serif" font-size="10.00">odp/api/std_types.h</text>
</a>
</g>
</g>
<!-- Node4&#45;&gt;Node6 -->
<g id="edge5" class="edge">
<title>Node4&#45;&gt;Node6</title>
<path fill="none" stroke="midnightblue" d="M1071.28,-884.23C1081.73,-866.04 1104,-822.6 1104,-783 1104,-783 1104,-783 1104,-417.5 1104,-347.18 1044.94,-350.84 987,-311 968.76,-298.45 968.3,-288.84 948,-280 873.02,-247.35 778.52,-237.79 716.28,-235.3"/>
<polygon fill="midnightblue" stroke="midnightblue" points="716.31,-231.8 706.19,-234.95 716.06,-238.8 716.31,-231.8"/>
</g>
<!-- Node13 -->
<g id="node13" class="node">
<title>Node13</title>
<g id="a_node13"><a xlink:title=" ">
<polygon fill="white" stroke="#bfbfbf" points="223,-0.5 223,-19.5 335,-19.5 335,-0.5 223,-0.5"/>
<text text-anchor="middle" x="279" y="-7.5" font-family="Helvetica,sans-Serif" font-size="10.00">odp/visibility_end.h</text>
</a>
</g>
</g>
<!-- Node4&#45;&gt;Node13 -->
<g id="edge73" class="edge">
<title>Node4&#45;&gt;Node13</title>
<path fill="none" stroke="midnightblue" d="M998.91,-893.15C765.06,-892.78 0,-883.88 0,-783 0,-783 0,-783 0,-551.5 0,-388.79 184,-397.71 184,-235 184,-235 184,-235 184,-121 184,-77.74 226.61,-43.09 254.75,-24.91"/>
<polygon fill="midnightblue" stroke="midnightblue" points="256.66,-27.85 263.31,-19.6 252.97,-21.9 256.66,-27.85"/>
</g>
<!-- Node14 -->
<g id="node14" class="node">
<title>Node14</title>
<g id="a_node14"><a xlink:href="event_8h.html" target="_top" xlink:title=" ">
<polygon fill="white" stroke="black" points="529,-828.5 529,-847.5 621,-847.5 621,-828.5 529,-828.5"/>
<text text-anchor="middle" x="575" y="-835.5" font-family="Helvetica,sans-Serif" font-size="10.00">odp/api/event.h</text>
</a>
</g>
</g>
<!-- Node4&#45;&gt;Node14 -->
<g id="edge16" class="edge">
<title>Node4&#45;&gt;Node14</title>
<path fill="none" stroke="midnightblue" d="M998.76,-885.6C901.27,-874.88 722.4,-855.21 631.4,-845.2"/>
<polygon fill="midnightblue" stroke="midnightblue" points="631.6,-841.7 621.28,-844.09 630.84,-848.66 631.6,-841.7"/>
</g>
<!-- Node32 -->
<g id="node32" class="node">
<title>Node32</title>
<g id="a_node32"><a xlink:href="queue__types_8h.html" target="_top" xlink:title=" ">
<polygon fill="white" stroke="black" points="540.5,-476 540.5,-495 667.5,-495 667.5,-476 540.5,-476"/>
<text text-anchor="middle" x="604" y="-483" font-family="Helvetica,sans-Serif" font-size="10.00">odp/api/queue_types.h</text>
</a>
</g>
</g>
<!-- Node4&#45;&gt;Node32 -->
<g id="edge65" class="edge">
<title>Node4&#45;&gt;Node32</title>
<path fill="none" stroke="midnightblue" d="M1052.8,-884.46C1041.16,-876.33 1024.47,-863.12 1014,-848 996.47,-822.68 990,-813.8 990,-783 990,-783 990,-783 990,-725 990,-621.09 938.6,-592.89 851,-537 799.11,-503.89 729.7,-491.92 677.67,-487.85"/>
<polygon fill="midnightblue" stroke="midnightblue" points="677.73,-484.35 667.51,-487.14 677.24,-491.33 677.73,-484.35"/>
</g>
<!-- Node35 -->
<g id="node35" class="node">
<title>Node35</title>
<g id="a_node35"><a xlink:href="schedule__types_8h.html" target="_top" xlink:title=" ">
<polygon fill="white" stroke="black" points="777,-347.5 777,-366.5 917,-366.5 917,-347.5 777,-347.5"/>
<text text-anchor="middle" x="847" y="-354.5" font-family="Helvetica,sans-Serif" font-size="10.00">odp/api/schedule_types.h</text>
</a>
</g>
</g>
<!-- Node4&#45;&gt;Node35 -->
<g id="edge66" class="edge">
<title>Node4&#45;&gt;Node35</title>
<path fill="none" stroke="midnightblue" d="M1060.72,-884.23C1050.27,-866.04 1028,-822.6 1028,-783 1028,-783 1028,-783 1028,-484.5 1028,-419.54 948.7,-385.15 895.07,-369.32"/>
<polygon fill="midnightblue" stroke="midnightblue" points="895.96,-365.94 885.39,-366.58 894.05,-372.67 895.96,-365.94"/>
</g>
<!-- Node39 -->
<g id="node39" class="node">
<title>Node39</title>
<g id="a_node39"><a xlink:href="thrmask_8h.html" target="_top" xlink:title=" ">
<polygon fill="white" stroke="black" points="1221.5,-347.5 1221.5,-366.5 1326.5,-366.5 1326.5,-347.5 1221.5,-347.5"/>
<text text-anchor="middle" x="1274" y="-354.5" font-family="Helvetica,sans-Serif" font-size="10.00">odp/api/thrmask.h</text>
</a>
</g>
</g>
<!-- Node4&#45;&gt;Node39 -->
<g id="edge67" class="edge">
<title>Node4&#45;&gt;Node39</title>
<path fill="none" stroke="midnightblue" d="M1086.64,-884.42C1119.5,-869.23 1180,-834.29 1180,-783 1180,-783 1180,-783 1180,-484.5 1180,-436.11 1224.86,-394.2 1252.6,-372.92"/>
<polygon fill="midnightblue" stroke="midnightblue" points="1254.98,-375.52 1260.93,-366.75 1250.81,-369.89 1254.98,-375.52"/>
</g>
<!-- Node7 -->
<g id="node7" class="node">
<title>Node7</title>
<g id="a_node7"><a xlink:title=" ">
<polygon fill="white" stroke="#bfbfbf" points="566,-168.5 566,-187.5 696,-187.5 696,-168.5 566,-168.5"/>
<text text-anchor="middle" x="631" y="-175.5" font-family="Helvetica,sans-Serif" font-size="10.00">odp/api/abi/std_types.h</text>
</a>
</g>
</g>
<!-- Node6&#45;&gt;Node7 -->
<g id="edge6" class="edge">
<title>Node6&#45;&gt;Node7</title>
<path fill="none" stroke="midnightblue" d="M646.86,-224.08C644.32,-216.85 640.64,-206.41 637.47,-197.4"/>
<polygon fill="midnightblue" stroke="midnightblue" points="640.7,-196.02 634.08,-187.75 634.1,-198.35 640.7,-196.02"/>
</g>
<!-- Node8 -->
<g id="node8" class="node">
<title>Node8</title>
<g id="a_node8"><a xlink:href="spec_2std__types_8h.html" target="_top" xlink:title=" ">
<polygon fill="white" stroke="black" points="752.5,-168.5 752.5,-187.5 889.5,-187.5 889.5,-168.5 752.5,-168.5"/>
<text text-anchor="middle" x="821" y="-175.5" font-family="Helvetica,sans-Serif" font-size="10.00">odp/api/spec/std_types.h</text>
</a>
</g>
</g>
<!-- Node6&#45;&gt;Node8 -->
<g id="edge7" class="edge">
<title>Node6&#45;&gt;Node8</title>
<path fill="none" stroke="midnightblue" d="M677.1,-224.44C705.99,-215.32 751.92,-200.81 784.11,-190.65"/>
<polygon fill="midnightblue" stroke="midnightblue" points="785.55,-193.87 794.03,-187.52 783.44,-187.19 785.55,-193.87"/>
</g>
<!-- Node8&#45;&gt;Node5 -->
<g id="edge8" class="edge">
<title>Node8&#45;&gt;Node5</title>
<path fill="none" stroke="midnightblue" d="M862.07,-168.44C888.93,-161.53 923.93,-149.95 951,-132 973.42,-117.13 1022.75,-57.5 1046.58,-27.88"/>
<polygon fill="midnightblue" stroke="midnightblue" points="1049.59,-29.72 1053.1,-19.73 1044.12,-25.35 1049.59,-29.72"/>
</g>
<!-- Node9 -->
<g id="node9" class="node">
<title>Node9</title>
<g id="a_node9"><a xlink:title=" ">
<polygon fill="white" stroke="#bfbfbf" points="888.5,-112.5 888.5,-131.5 941.5,-131.5 941.5,-112.5 888.5,-112.5"/>
<text text-anchor="middle" x="915" y="-119.5" font-family="Helvetica,sans-Serif" font-size="10.00">stdint.h</text>
</a>
</g>
</g>
<!-- Node8&#45;&gt;Node9 -->
<g id="edge9" class="edge">
<title>Node8&#45;&gt;Node9</title>
<path fill="none" stroke="midnightblue" d="M836.1,-168.32C850.9,-159.82 873.69,-146.73 890.98,-136.8"/>
<polygon fill="midnightblue" stroke="midnightblue" points="893.01,-139.67 899.93,-131.65 889.52,-133.6 893.01,-139.67"/>
</g>
<!-- Node10 -->
<g id="node10" class="node">
<title>Node10</title>
<g id="a_node10"><a xlink:href="align_8h.html" target="_top" xlink:title=" ">
<polygon fill="white" stroke="black" points="742.5,-112.5 742.5,-131.5 831.5,-131.5 831.5,-112.5 742.5,-112.5"/>
<text text-anchor="middle" x="787" y="-119.5" font-family="Helvetica,sans-Serif" font-size="10.00">odp/api/align.h</text>
</a>
</g>
</g>
<!-- Node8&#45;&gt;Node10 -->
<g id="edge10" class="edge">
<title>Node8&#45;&gt;Node10</title>
<path fill="none" stroke="midnightblue" d="M815.39,-168.08C810.63,-160.53 803.68,-149.49 797.85,-140.23"/>
<polygon fill="midnightblue" stroke="midnightblue" points="800.8,-138.35 792.51,-131.75 794.88,-142.08 800.8,-138.35"/>
</g>
<!-- Node8&#45;&gt;Node13 -->
<g id="edge15" class="edge">
<title>Node8&#45;&gt;Node13</title>
<path fill="none" stroke="midnightblue" d="M761.23,-168.45C676.98,-155.16 519.45,-125.77 393,-76 358.68,-62.49 322.18,-40.08 299.98,-25.42"/>
<polygon fill="midnightblue" stroke="midnightblue" points="301.65,-22.32 291.39,-19.66 297.75,-28.14 301.65,-22.32"/>
</g>
<!-- Node11 -->
<g id="node11" class="node">
<title>Node11</title>
<g id="a_node11"><a xlink:title=" ">
<polygon fill="white" stroke="#bfbfbf" points="829.5,-56.5 829.5,-75.5 936.5,-75.5 936.5,-56.5 829.5,-56.5"/>
<text text-anchor="middle" x="883" y="-63.5" font-family="Helvetica,sans-Serif" font-size="10.00">odp/api/abi/align.h</text>
</a>
</g>
</g>
<!-- Node10&#45;&gt;Node11 -->
<g id="edge11" class="edge">
<title>Node10&#45;&gt;Node11</title>
<path fill="none" stroke="midnightblue" d="M802.42,-112.32C817.54,-103.82 840.82,-90.73 858.47,-80.8"/>
<polygon fill="midnightblue" stroke="midnightblue" points="860.61,-83.61 867.61,-75.65 857.18,-77.51 860.61,-83.61"/>
</g>
<!-- Node12 -->
<g id="node12" class="node">
<title>Node12</title>
<g id="a_node12"><a xlink:href="spec_2align_8h.html" target="_top" xlink:title=" ">
<polygon fill="white" stroke="black" points="697,-56.5 697,-75.5 811,-75.5 811,-56.5 697,-56.5"/>
<text text-anchor="middle" x="754" y="-63.5" font-family="Helvetica,sans-Serif" font-size="10.00">odp/api/spec/align.h</text>
</a>
</g>
</g>
<!-- Node10&#45;&gt;Node12 -->
<g id="edge12" class="edge">
<title>Node10&#45;&gt;Node12</title>
<path fill="none" stroke="midnightblue" d="M781.55,-112.08C776.99,-104.61 770.33,-93.72 764.71,-84.52"/>
<polygon fill="midnightblue" stroke="midnightblue" points="767.55,-82.46 759.35,-75.75 761.58,-86.11 767.55,-82.46"/>
</g>
<!-- Node12&#45;&gt;Node5 -->
<g id="edge13" class="edge">
<title>Node12&#45;&gt;Node5</title>
<path fill="none" stroke="midnightblue" d="M802.49,-56.44C856.54,-46.9 943.93,-31.48 1001.67,-21.29"/>
<polygon fill="midnightblue" stroke="midnightblue" points="1002.5,-24.7 1011.74,-19.52 1001.28,-17.81 1002.5,-24.7"/>
</g>
<!-- Node12&#45;&gt;Node13 -->
<g id="edge14" class="edge">
<title>Node12&#45;&gt;Node13</title>
<path fill="none" stroke="midnightblue" d="M696.99,-57.25C693.61,-56.82 690.26,-56.4 687,-56 566.59,-41.28 425.92,-26.24 345.17,-17.81"/>
<polygon fill="midnightblue" stroke="midnightblue" points="345.45,-14.32 335.15,-16.77 344.73,-21.28 345.45,-14.32"/>
</g>
<!-- Node15 -->
<g id="node15" class="node">
<title>Node15</title>
<g id="a_node15"><a xlink:title=" ">
<polygon fill="white" stroke="#bfbfbf" points="66,-660.5 66,-679.5 176,-679.5 176,-660.5 66,-660.5"/>
<text text-anchor="middle" x="121" y="-667.5" font-family="Helvetica,sans-Serif" font-size="10.00">odp/api/abi/event.h</text>
</a>
</g>
</g>
<!-- Node14&#45;&gt;Node15 -->
<g id="edge17" class="edge">
<title>Node14&#45;&gt;Node15</title>
<path fill="none" stroke="midnightblue" d="M551.55,-828.42C476.36,-800.93 241.15,-714.93 153.95,-683.05"/>
<polygon fill="midnightblue" stroke="midnightblue" points="154.91,-679.67 144.31,-679.52 152.5,-686.25 154.91,-679.67"/>
</g>
<!-- Node16 -->
<g id="node16" class="node">
<title>Node16</title>
<g id="a_node16"><a xlink:href="spec_2event_8h.html" target="_top" xlink:title=" ">
<polygon fill="white" stroke="black" points="516,-772.5 516,-791.5 634,-791.5 634,-772.5 516,-772.5"/>
<text text-anchor="middle" x="575" y="-779.5" font-family="Helvetica,sans-Serif" font-size="10.00">odp/api/spec/event.h</text>
</a>
</g>
</g>
<!-- Node14&#45;&gt;Node16 -->
<g id="edge18" class="edge">
<title>Node14&#45;&gt;Node16</title>
<path fill="none" stroke="midnightblue" d="M575,-828.08C575,-821.01 575,-810.86 575,-801.99"/>
<polygon fill="midnightblue" stroke="midnightblue" points="578.5,-801.75 575,-791.75 571.5,-801.75 578.5,-801.75"/>
</g>
<!-- Node16&#45;&gt;Node5 -->
<g id="edge19" class="edge">
<title>Node16&#45;&gt;Node5</title>
<path fill="none" stroke="midnightblue" d="M623.42,-772.5C796.31,-739.1 1373,-600.32 1373,-235 1373,-235 1373,-235 1373,-121 1373,-69.79 1221.96,-36.64 1129.72,-21.18"/>
<polygon fill="midnightblue" stroke="midnightblue" points="1130.05,-17.69 1119.61,-19.51 1128.91,-24.59 1130.05,-17.69"/>
</g>
<!-- Node16&#45;&gt;Node13 -->
<g id="edge64" class="edge">
<title>Node16&#45;&gt;Node13</title>
<path fill="none" stroke="midnightblue" d="M516,-781.23C376.5,-780.19 38,-767.71 38,-671 38,-671 38,-671 38,-121 38,-43.96 141.19,-20.64 212.52,-13.73"/>
<polygon fill="midnightblue" stroke="midnightblue" points="213.15,-17.19 222.8,-12.82 212.53,-10.21 213.15,-17.19"/>
</g>
<!-- Node17 -->
<g id="node17" class="node">
<title>Node17</title>
<g id="a_node17"><a xlink:href="packet_8h.html" target="_top" xlink:title=" ">
<polygon fill="white" stroke="black" points="526.5,-716.5 526.5,-735.5 623.5,-735.5 623.5,-716.5 526.5,-716.5"/>
<text text-anchor="middle" x="575" y="-723.5" font-family="Helvetica,sans-Serif" font-size="10.00">odp/api/packet.h</text>
</a>
</g>
</g>
<!-- Node16&#45;&gt;Node17 -->
<g id="edge20" class="edge">
<title>Node16&#45;&gt;Node17</title>
<path fill="none" stroke="midnightblue" d="M575,-772.08C575,-765.01 575,-754.86 575,-745.99"/>
<polygon fill="midnightblue" stroke="midnightblue" points="578.5,-745.75 575,-735.75 571.5,-745.75 578.5,-745.75"/>
</g>
<!-- Node17&#45;&gt;Node6 -->
<g id="edge21" class="edge">
<title>Node17&#45;&gt;Node6</title>
<path fill="none" stroke="midnightblue" d="M623.63,-725.09C700.34,-724.08 844.01,-717.13 876,-680 975.98,-563.96 703.43,-380.24 669,-311 659.94,-292.77 654.98,-269.88 652.42,-254.01"/>
<polygon fill="midnightblue" stroke="midnightblue" points="655.85,-253.26 650.96,-243.86 648.92,-254.26 655.85,-253.26"/>
</g>
<!-- Node17&#45;&gt;Node15 -->
<g id="edge22" class="edge">
<title>Node17&#45;&gt;Node15</title>
<path fill="none" stroke="midnightblue" d="M526.31,-719.78C454.33,-711.96 315.01,-696.51 186.19,-680.13"/>
<polygon fill="midnightblue" stroke="midnightblue" points="186.51,-676.64 176.15,-678.84 185.62,-683.58 186.51,-676.64"/>
</g>
<!-- Node18 -->
<g id="node18" class="node">
<title>Node18</title>
<g id="a_node18"><a xlink:title=" ">
<polygon fill="white" stroke="#bfbfbf" points="578.5,-660.5 578.5,-679.5 707.5,-679.5 707.5,-660.5 578.5,-660.5"/>
<text text-anchor="middle" x="643" y="-667.5" font-family="Helvetica,sans-Serif" font-size="10.00">odp/api/abi/packet_io.h</text>
</a>
</g>
</g>
<!-- Node17&#45;&gt;Node18 -->
<g id="edge23" class="edge">
<title>Node17&#45;&gt;Node18</title>
<path fill="none" stroke="midnightblue" d="M585.93,-716.32C596.17,-708.18 611.72,-695.84 624,-686.09"/>
<polygon fill="midnightblue" stroke="midnightblue" points="626.22,-688.79 631.88,-679.83 621.87,-683.31 626.22,-688.79"/>
</g>
<!-- Node19 -->
<g id="node19" class="node">
<title>Node19</title>
<g id="a_node19"><a xlink:title=" ">
<polygon fill="white" stroke="#bfbfbf" points="736,-537.5 736,-567.5 842,-567.5 842,-537.5 736,-537.5"/>
<text text-anchor="start" x="744" y="-555.5" font-family="Helvetica,sans-Serif" font-size="10.00">odp/api/abi/packet</text>
<text text-anchor="middle" x="789" y="-544.5" font-family="Helvetica,sans-Serif" font-size="10.00">_types.h</text>
</a>
</g>
</g>
<!-- Node17&#45;&gt;Node19 -->
<g id="edge24" class="edge">
<title>Node17&#45;&gt;Node19</title>
<path fill="none" stroke="midnightblue" d="M623.53,-724.53C696.11,-722.68 827.56,-714.51 857,-680 878.92,-654.3 872.18,-634.18 857,-604 850.63,-591.33 839.41,-581.04 827.9,-573.14"/>
<polygon fill="midnightblue" stroke="midnightblue" points="829.43,-569.97 819.12,-567.56 825.68,-575.87 829.43,-569.97"/>
</g>
<!-- Node20 -->
<g id="node20" class="node">
<title>Node20</title>
<g id="a_node20"><a xlink:title=" ">
<polygon fill="white" stroke="#bfbfbf" points="194.5,-660.5 194.5,-679.5 309.5,-679.5 309.5,-660.5 194.5,-660.5"/>
<text text-anchor="middle" x="252" y="-667.5" font-family="Helvetica,sans-Serif" font-size="10.00">odp/api/abi/packet.h</text>
</a>
</g>
</g>
<!-- Node17&#45;&gt;Node20 -->
<g id="edge25" class="edge">
<title>Node17&#45;&gt;Node20</title>
<path fill="none" stroke="midnightblue" d="M526.29,-716.86C469.28,-707.33 374.82,-691.53 312.98,-681.2"/>
<polygon fill="midnightblue" stroke="midnightblue" points="313.41,-677.72 302.97,-679.52 312.26,-684.62 313.41,-677.72"/>
</g>
<!-- Node21 -->
<g id="node21" class="node">
<title>Node21</title>
<g id="a_node21"><a xlink:title=" ">
<polygon fill="white" stroke="#bfbfbf" points="328,-660.5 328,-679.5 438,-679.5 438,-660.5 328,-660.5"/>
<text text-anchor="middle" x="383" y="-667.5" font-family="Helvetica,sans-Serif" font-size="10.00">odp/api/abi/buffer.h</text>
</a>
</g>
</g>
<!-- Node17&#45;&gt;Node21 -->
<g id="edge26" class="edge">
<title>Node17&#45;&gt;Node21</title>
<path fill="none" stroke="midnightblue" d="M544.58,-716.44C511.72,-707.2 459.22,-692.44 423.03,-682.26"/>
<polygon fill="midnightblue" stroke="midnightblue" points="423.85,-678.85 413.28,-679.52 421.96,-685.59 423.85,-678.85"/>
</g>
<!-- Node22 -->
<g id="node22" class="node">
<title>Node22</title>
<g id="a_node22"><a xlink:title=" ">
<polygon fill="white" stroke="#bfbfbf" points="456,-660.5 456,-679.5 560,-679.5 560,-660.5 456,-660.5"/>
<text text-anchor="middle" x="508" y="-667.5" font-family="Helvetica,sans-Serif" font-size="10.00">odp/api/abi/pool.h</text>
</a>
</g>
</g>
<!-- Node17&#45;&gt;Node22 -->
<g id="edge27" class="edge">
<title>Node17&#45;&gt;Node22</title>
<path fill="none" stroke="midnightblue" d="M564.24,-716.32C554.23,-708.26 539.11,-696.08 527.07,-686.37"/>
<polygon fill="midnightblue" stroke="midnightblue" points="528.94,-683.38 518.96,-679.83 524.55,-688.83 528.94,-683.38"/>
</g>
<!-- Node23 -->
<g id="node23" class="node">
<title>Node23</title>
<g id="a_node23"><a xlink:href="spec_2packet_8h.html" target="_top" xlink:title=" ">
<polygon fill="white" stroke="black" points="726,-660.5 726,-679.5 848,-679.5 848,-660.5 726,-660.5"/>
<text text-anchor="middle" x="787" y="-667.5" font-family="Helvetica,sans-Serif" font-size="10.00">odp/api/spec/packet.h</text>
</a>
</g>
</g>
<!-- Node17&#45;&gt;Node23 -->
<g id="edge28" class="edge">
<title>Node17&#45;&gt;Node23</title>
<path fill="none" stroke="midnightblue" d="M608.59,-716.44C645.19,-707.12 703.84,-692.18 743.83,-682"/>
<polygon fill="midnightblue" stroke="midnightblue" points="744.74,-685.38 753.57,-679.52 743.01,-678.59 744.74,-685.38"/>
</g>
<!-- Node23&#45;&gt;Node5 -->
<g id="edge29" class="edge">
<title>Node23&#45;&gt;Node5</title>
<path fill="none" stroke="midnightblue" d="M757.88,-660.44C740.36,-653.62 719.48,-642.14 709,-624 695.83,-601.2 707.62,-559.44 727,-537 879.36,-360.63 1193,-529.57 1193,-296.5 1193,-296.5 1193,-296.5 1193,-121 1193,-70.73 1135.87,-39.1 1096.5,-23.27"/>
<polygon fill="midnightblue" stroke="midnightblue" points="1097.5,-19.91 1086.91,-19.59 1094.99,-26.45 1097.5,-19.91"/>
</g>
<!-- Node23&#45;&gt;Node13 -->
<g id="edge63" class="edge">
<title>Node23&#45;&gt;Node13</title>
<path fill="none" stroke="midnightblue" d="M725.82,-661.14C722.5,-660.75 719.21,-660.36 716,-660 572.74,-643.8 76,-697.68 76,-553.5 76,-553.5 76,-553.5 76,-121 76,-57.53 153.66,-30.49 212.91,-19.1"/>
<polygon fill="midnightblue" stroke="midnightblue" points="213.78,-22.5 222.99,-17.28 212.53,-15.61 213.78,-22.5"/>
</g>
<!-- Node24 -->
<g id="node24" class="node">
<title>Node24</title>
<g id="a_node24"><a xlink:href="proto__stats__types_8h.html" target="_top" xlink:title=" ">
<polygon fill="white" stroke="black" points="236,-470.5 236,-500.5 346,-500.5 346,-470.5 236,-470.5"/>
<text text-anchor="start" x="244" y="-488.5" font-family="Helvetica,sans-Serif" font-size="10.00">odp/api/proto_stats</text>
<text text-anchor="middle" x="291" y="-477.5" font-family="Helvetica,sans-Serif" font-size="10.00">_types.h</text>
</a>
</g>
</g>
<!-- Node23&#45;&gt;Node24 -->
<g id="edge30" class="edge">
<title>Node23&#45;&gt;Node24</title>
<path fill="none" stroke="midnightblue" d="M763.74,-660.44C687.39,-632.35 443.35,-542.56 339.03,-504.17"/>
<polygon fill="midnightblue" stroke="midnightblue" points="339.98,-500.79 329.38,-500.62 337.56,-507.36 339.98,-500.79"/>
</g>
<!-- Node27 -->
<g id="node27" class="node">
<title>Node27</title>
<g id="a_node27"><a xlink:href="time_8h.html" target="_top" xlink:title=" ">
<polygon fill="white" stroke="black" points="295.5,-286 295.5,-305 382.5,-305 382.5,-286 295.5,-286"/>
<text text-anchor="middle" x="339" y="-293" font-family="Helvetica,sans-Serif" font-size="10.00">odp/api/time.h</text>
</a>
</g>
</g>
<!-- Node23&#45;&gt;Node27 -->
<g id="edge36" class="edge">
<title>Node23&#45;&gt;Node27</title>
<path fill="none" stroke="midnightblue" d="M725.83,-661.07C566.68,-640.05 152,-582.48 152,-553.5 152,-553.5 152,-553.5 152,-417.5 152,-353.61 229.89,-321.79 285.13,-307.25"/>
<polygon fill="midnightblue" stroke="midnightblue" points="286.31,-310.57 295.16,-304.74 284.61,-303.78 286.31,-310.57"/>
</g>
<!-- Node30 -->
<g id="node30" class="node">
<title>Node30</title>
<g id="a_node30"><a xlink:href="packet__types_8h.html" target="_top" xlink:title=" ">
<polygon fill="white" stroke="black" points="718.5,-604.5 718.5,-623.5 847.5,-623.5 847.5,-604.5 718.5,-604.5"/>
<text text-anchor="middle" x="783" y="-611.5" font-family="Helvetica,sans-Serif" font-size="10.00">odp/api/packet_types.h</text>
</a>
</g>
</g>
<!-- Node23&#45;&gt;Node30 -->
<g id="edge42" class="edge">
<title>Node23&#45;&gt;Node30</title>
<path fill="none" stroke="midnightblue" d="M786.34,-660.08C785.82,-653.01 785.06,-642.86 784.41,-633.99"/>
<polygon fill="midnightblue" stroke="midnightblue" points="787.88,-633.47 783.65,-623.75 780.9,-633.98 787.88,-633.47"/>
</g>
<!-- Node25 -->
<g id="node25" class="node">
<title>Node25</title>
<g id="a_node25"><a xlink:title=" ">
<polygon fill="white" stroke="#bfbfbf" points="180,-403.5 180,-433.5 308,-433.5 308,-403.5 180,-403.5"/>
<text text-anchor="start" x="188" y="-421.5" font-family="Helvetica,sans-Serif" font-size="10.00">odp/api/abi/proto_stats</text>
<text text-anchor="middle" x="244" y="-410.5" font-family="Helvetica,sans-Serif" font-size="10.00">_types.h</text>
</a>
</g>
</g>
<!-- Node24&#45;&gt;Node25 -->
<g id="edge31" class="edge">
<title>Node24&#45;&gt;Node25</title>
<path fill="none" stroke="midnightblue" d="M280.8,-470.4C274.77,-462.05 266.98,-451.29 260.13,-441.81"/>
<polygon fill="midnightblue" stroke="midnightblue" points="262.87,-439.63 254.18,-433.58 257.2,-443.73 262.87,-439.63"/>
</g>
<!-- Node26 -->
<g id="node26" class="node">
<title>Node26</title>
<g id="a_node26"><a xlink:href="spec_2proto__stats__types_8h.html" target="_top" xlink:title=" ">
<polygon fill="white" stroke="black" points="475.5,-280.5 475.5,-310.5 582.5,-310.5 582.5,-280.5 475.5,-280.5"/>
<text text-anchor="start" x="483.5" y="-298.5" font-family="Helvetica,sans-Serif" font-size="10.00">odp/api/spec/proto</text>
<text text-anchor="middle" x="529" y="-287.5" font-family="Helvetica,sans-Serif" font-size="10.00">_stats_types.h</text>
</a>
</g>
</g>
<!-- Node24&#45;&gt;Node26 -->
<g id="edge32" class="edge">
<title>Node24&#45;&gt;Node26</title>
<path fill="none" stroke="midnightblue" d="M297.71,-470.28C311.43,-442.67 345.29,-381.49 391,-347 412.84,-330.52 440.61,-318.98 465.5,-311.14"/>
<polygon fill="midnightblue" stroke="midnightblue" points="466.67,-314.44 475.24,-308.21 464.65,-307.74 466.67,-314.44"/>
</g>
<!-- Node26&#45;&gt;Node5 -->
<g id="edge33" class="edge">
<title>Node26&#45;&gt;Node5</title>
<path fill="none" stroke="midnightblue" d="M527.39,-280.19C525.3,-253.71 525.1,-197.11 557,-168 603.83,-125.26 779.55,-151.11 840,-132 846.35,-129.99 940.16,-79.21 946,-76 977.59,-58.65 1013.68,-37.92 1036.63,-24.62"/>
<polygon fill="midnightblue" stroke="midnightblue" points="1038.44,-27.61 1045.33,-19.57 1034.92,-21.56 1038.44,-27.61"/>
</g>
<!-- Node26&#45;&gt;Node6 -->
<g id="edge34" class="edge">
<title>Node26&#45;&gt;Node6</title>
<path fill="none" stroke="midnightblue" d="M557.68,-280.4C577.52,-270.64 603.76,-257.74 623.19,-248.18"/>
<polygon fill="midnightblue" stroke="midnightblue" points="624.96,-251.21 632.39,-243.66 621.88,-244.93 624.96,-251.21"/>
</g>
<!-- Node26&#45;&gt;Node13 -->
<g id="edge35" class="edge">
<title>Node26&#45;&gt;Node13</title>
<path fill="none" stroke="midnightblue" d="M487.05,-280.48C429.63,-258.79 328.61,-211.15 284,-132 265.83,-99.76 270.28,-54.64 274.84,-29.6"/>
<polygon fill="midnightblue" stroke="midnightblue" points="278.3,-30.13 276.86,-19.63 271.44,-28.74 278.3,-30.13"/>
</g>
<!-- Node27&#45;&gt;Node6 -->
<g id="edge37" class="edge">
<title>Node27&#45;&gt;Node6</title>
<path fill="none" stroke="midnightblue" d="M382.57,-286.16C438.28,-275.51 534.75,-257.05 595.33,-245.46"/>
<polygon fill="midnightblue" stroke="midnightblue" points="596.3,-248.84 605.47,-243.52 594.99,-241.96 596.3,-248.84"/>
</g>
<!-- Node28 -->
<g id="node28" class="node">
<title>Node28</title>
<g id="a_node28"><a xlink:title=" ">
<polygon fill="white" stroke="#bfbfbf" points="250.5,-224.5 250.5,-243.5 355.5,-243.5 355.5,-224.5 250.5,-224.5"/>
<text text-anchor="middle" x="303" y="-231.5" font-family="Helvetica,sans-Serif" font-size="10.00">odp/api/abi/time.h</text>
</a>
</g>
</g>
<!-- Node27&#45;&gt;Node28 -->
<g id="edge38" class="edge">
<title>Node27&#45;&gt;Node28</title>
<path fill="none" stroke="midnightblue" d="M333.84,-285.98C328.55,-277.23 320.16,-263.37 313.47,-252.31"/>
<polygon fill="midnightblue" stroke="midnightblue" points="316.32,-250.25 308.15,-243.51 310.33,-253.88 316.32,-250.25"/>
</g>
<!-- Node29 -->
<g id="node29" class="node">
<title>Node29</title>
<g id="a_node29"><a xlink:href="spec_2time_8h.html" target="_top" xlink:title=" ">
<polygon fill="white" stroke="black" points="402.5,-56.5 402.5,-75.5 515.5,-75.5 515.5,-56.5 402.5,-56.5"/>
<text text-anchor="middle" x="459" y="-63.5" font-family="Helvetica,sans-Serif" font-size="10.00">odp/api/spec/time.h</text>
</a>
</g>
</g>
<!-- Node27&#45;&gt;Node29 -->
<g id="edge39" class="edge">
<title>Node27&#45;&gt;Node29</title>
<path fill="none" stroke="midnightblue" d="M343.56,-285.86C361.23,-252.36 425.44,-130.62 449.67,-84.7"/>
<polygon fill="midnightblue" stroke="midnightblue" points="452.87,-86.13 454.44,-75.65 446.68,-82.86 452.87,-86.13"/>
</g>
<!-- Node29&#45;&gt;Node5 -->
<g id="edge40" class="edge">
<title>Node29&#45;&gt;Node5</title>
<path fill="none" stroke="midnightblue" d="M515.7,-56.97C518.5,-56.63 521.28,-56.3 524,-56 690.22,-37.53 886.21,-22.88 988.96,-15.74"/>
<polygon fill="midnightblue" stroke="midnightblue" points="989.47,-19.21 999.21,-15.03 988.99,-12.23 989.47,-19.21"/>
</g>
<!-- Node29&#45;&gt;Node13 -->
<g id="edge41" class="edge">
<title>Node29&#45;&gt;Node13</title>
<path fill="none" stroke="midnightblue" d="M430.48,-56.44C399.93,-47.28 351.29,-32.69 317.4,-22.52"/>
<polygon fill="midnightblue" stroke="midnightblue" points="317.97,-19.04 307.39,-19.52 315.96,-25.74 317.97,-19.04"/>
</g>
<!-- Node30&#45;&gt;Node19 -->
<g id="edge43" class="edge">
<title>Node30&#45;&gt;Node19</title>
<path fill="none" stroke="midnightblue" d="M783.86,-604.48C784.57,-597.47 785.6,-587.19 786.56,-577.7"/>
<polygon fill="midnightblue" stroke="midnightblue" points="790.06,-577.82 787.59,-567.52 783.1,-577.12 790.06,-577.82"/>
</g>
<!-- Node31 -->
<g id="node31" class="node">
<title>Node31</title>
<g id="a_node31"><a xlink:href="spec_2packet__types_8h.html" target="_top" xlink:title=" ">
<polygon fill="white" stroke="black" points="547.5,-537.5 547.5,-567.5 660.5,-567.5 660.5,-537.5 547.5,-537.5"/>
<text text-anchor="start" x="555.5" y="-555.5" font-family="Helvetica,sans-Serif" font-size="10.00">odp/api/spec/packet</text>
<text text-anchor="middle" x="604" y="-544.5" font-family="Helvetica,sans-Serif" font-size="10.00">_types.h</text>
</a>
</g>
</g>
<!-- Node30&#45;&gt;Node31 -->
<g id="edge44" class="edge">
<title>Node30&#45;&gt;Node31</title>
<path fill="none" stroke="midnightblue" d="M757.35,-604.48C730.96,-595.7 689.1,-581.79 655.78,-570.71"/>
<polygon fill="midnightblue" stroke="midnightblue" points="656.78,-567.36 646.19,-567.52 654.57,-574 656.78,-567.36"/>
</g>
<!-- Node31&#45;&gt;Node5 -->
<g id="edge45" class="edge">
<title>Node31&#45;&gt;Node5</title>
<path fill="none" stroke="midnightblue" d="M634.94,-537.35C649.79,-528.93 666.4,-516.79 676,-501 691.61,-475.33 683,-463.98 685,-434 688.68,-379 673.74,-365.92 669,-311 667.82,-297.27 661.28,-291.41 669,-280 699.86,-234.42 850.9,-214.77 899,-188 935.66,-167.6 943.7,-159.94 975,-132 1000.34,-109.38 1007.57,-103.86 1027,-76 1037.28,-61.26 1046.31,-42.87 1052.32,-29.41"/>
<polygon fill="midnightblue" stroke="midnightblue" points="1055.7,-30.41 1056.45,-19.84 1049.27,-27.64 1055.7,-30.41"/>
</g>
<!-- Node31&#45;&gt;Node13 -->
<g id="edge62" class="edge">
<title>Node31&#45;&gt;Node13</title>
<path fill="none" stroke="midnightblue" d="M575.11,-537.39C533.6,-516.68 455.23,-475.95 393,-434 276.11,-355.2 146,-375.97 146,-235 146,-235 146,-235 146,-121 146,-90.2 148.64,-78.18 170,-56 185.44,-39.97 207.42,-29.44 227.6,-22.63"/>
<polygon fill="midnightblue" stroke="midnightblue" points="228.84,-25.91 237.33,-19.57 226.74,-19.23 228.84,-25.91"/>
</g>
<!-- Node31&#45;&gt;Node24 -->
<g id="edge46" class="edge">
<title>Node31&#45;&gt;Node24</title>
<path fill="none" stroke="midnightblue" d="M547.29,-539.81C497.83,-529.61 424.16,-514.38 360,-501 358.75,-500.74 357.49,-500.48 356.22,-500.21"/>
<polygon fill="midnightblue" stroke="midnightblue" points="356.86,-496.77 346.36,-498.15 355.43,-503.62 356.86,-496.77"/>
</g>
<!-- Node31&#45;&gt;Node32 -->
<g id="edge47" class="edge">
<title>Node31&#45;&gt;Node32</title>
<path fill="none" stroke="midnightblue" d="M604,-537.4C604,-528.06 604,-515.71 604,-505.52"/>
<polygon fill="midnightblue" stroke="midnightblue" points="607.5,-505.19 604,-495.19 600.5,-505.19 607.5,-505.19"/>
</g>
<!-- Node33 -->
<g id="node33" class="node">
<title>Node33</title>
<g id="a_node33"><a xlink:title=" ">
<polygon fill="white" stroke="#bfbfbf" points="531.5,-409 531.5,-428 676.5,-428 676.5,-409 531.5,-409"/>
<text text-anchor="middle" x="604" y="-416" font-family="Helvetica,sans-Serif" font-size="10.00">odp/api/abi/queue_types.h</text>
</a>
</g>
</g>
<!-- Node32&#45;&gt;Node33 -->
<g id="edge48" class="edge">
<title>Node32&#45;&gt;Node33</title>
<path fill="none" stroke="midnightblue" d="M604,-475.73C604,-466.18 604,-450.62 604,-438.28"/>
<polygon fill="midnightblue" stroke="midnightblue" points="607.5,-438.13 604,-428.13 600.5,-438.13 607.5,-438.13"/>
</g>
<!-- Node34 -->
<g id="node34" class="node">
<title>Node34</title>
<g id="a_node34"><a xlink:href="spec_2queue__types_8h.html" target="_top" xlink:title=" ">
<polygon fill="white" stroke="black" points="402.5,-403.5 402.5,-433.5 513.5,-433.5 513.5,-403.5 402.5,-403.5"/>
<text text-anchor="start" x="410.5" y="-421.5" font-family="Helvetica,sans-Serif" font-size="10.00">odp/api/spec/queue</text>
<text text-anchor="middle" x="458" y="-410.5" font-family="Helvetica,sans-Serif" font-size="10.00">_types.h</text>
</a>
</g>
</g>
<!-- Node32&#45;&gt;Node34 -->
<g id="edge49" class="edge">
<title>Node32&#45;&gt;Node34</title>
<path fill="none" stroke="midnightblue" d="M584.61,-475.87C562.8,-466.16 526.75,-450.11 498.69,-437.61"/>
<polygon fill="midnightblue" stroke="midnightblue" points="500.07,-434.4 489.51,-433.53 497.22,-440.79 500.07,-434.4"/>
</g>
<!-- Node34&#45;&gt;Node5 -->
<g id="edge50" class="edge">
<title>Node34&#45;&gt;Node5</title>
<path fill="none" stroke="midnightblue" d="M513.76,-404.4C516.54,-403.9 519.3,-403.42 522,-403 662.92,-380.86 1155,-439.14 1155,-296.5 1155,-296.5 1155,-296.5 1155,-121 1155,-77.74 1112.39,-43.09 1084.25,-24.91"/>
<polygon fill="midnightblue" stroke="midnightblue" points="1086.03,-21.9 1075.69,-19.6 1082.34,-27.85 1086.03,-21.9"/>
</g>
<!-- Node34&#45;&gt;Node13 -->
<g id="edge61" class="edge">
<title>Node34&#45;&gt;Node13</title>
<path fill="none" stroke="midnightblue" d="M427.04,-403.39C390.37,-385.6 328.87,-352.31 286,-311 239.05,-265.76 222,-244.2 222,-179 222,-179 222,-179 222,-121 222,-84.3 247.32,-47.66 264.21,-27.3"/>
<polygon fill="midnightblue" stroke="midnightblue" points="266.95,-29.48 270.83,-19.62 261.65,-24.9 266.95,-29.48"/>
</g>
<!-- Node34&#45;&gt;Node35 -->
<g id="edge51" class="edge">
<title>Node34&#45;&gt;Node35</title>
<path fill="none" stroke="midnightblue" d="M513.79,-404.57C516.56,-404.02 519.31,-403.49 522,-403 604.98,-387.88 700.7,-375.2 766.66,-367.19"/>
<polygon fill="midnightblue" stroke="midnightblue" points="767.48,-370.62 776.99,-365.94 766.64,-363.67 767.48,-370.62"/>
</g>
<!-- Node37 -->
<g id="node37" class="node">
<title>Node37</title>
<g id="a_node37"><a xlink:href="deprecated_8h.html" target="_top" xlink:title=" ">
<polygon fill="white" stroke="black" points="400.5,-347.5 400.5,-366.5 519.5,-366.5 519.5,-347.5 400.5,-347.5"/>
<text text-anchor="middle" x="460" y="-354.5" font-family="Helvetica,sans-Serif" font-size="10.00">odp/api/deprecated.h</text>
</a>
</g>
</g>
<!-- Node34&#45;&gt;Node37 -->
<g id="edge57" class="edge">
<title>Node34&#45;&gt;Node37</title>
<path fill="none" stroke="midnightblue" d="M458.47,-403.4C458.74,-395.47 459.08,-385.46 459.37,-376.86"/>
<polygon fill="midnightblue" stroke="midnightblue" points="462.87,-376.77 459.71,-366.66 455.87,-376.53 462.87,-376.77"/>
</g>
<!-- Node35&#45;&gt;Node2 -->
<g id="edge52" class="edge">
<title>Node35&#45;&gt;Node2</title>
<path fill="none" stroke="midnightblue" d="M851.73,-347.48C855.78,-340.17 861.81,-329.3 867.26,-319.47"/>
<polygon fill="midnightblue" stroke="midnightblue" points="870.43,-320.97 872.22,-310.52 864.31,-317.57 870.43,-320.97"/>
</g>
<!-- Node36 -->
<g id="node36" class="node">
<title>Node36</title>
<g id="a_node36"><a xlink:href="spec_2schedule__types_8h.html" target="_top" xlink:title=" ">
<polygon fill="white" stroke="black" points="678.5,-280.5 678.5,-310.5 803.5,-310.5 803.5,-280.5 678.5,-280.5"/>
<text text-anchor="start" x="686.5" y="-298.5" font-family="Helvetica,sans-Serif" font-size="10.00">odp/api/spec/schedule</text>
<text text-anchor="middle" x="741" y="-287.5" font-family="Helvetica,sans-Serif" font-size="10.00">_types.h</text>
</a>
</g>
</g>
<!-- Node35&#45;&gt;Node36 -->
<g id="edge53" class="edge">
<title>Node35&#45;&gt;Node36</title>
<path fill="none" stroke="midnightblue" d="M831.81,-347.48C816.99,-339.15 793.92,-326.21 774.75,-315.45"/>
<polygon fill="midnightblue" stroke="midnightblue" points="776.42,-312.37 765.98,-310.52 772.99,-318.47 776.42,-312.37"/>
</g>
<!-- Node36&#45;&gt;Node5 -->
<g id="edge54" class="edge">
<title>Node36&#45;&gt;Node5</title>
<path fill="none" stroke="midnightblue" d="M800.26,-280.46C897.2,-256.64 1079,-208.11 1079,-179 1079,-179 1079,-179 1079,-121 1079,-88.49 1070.84,-51.35 1065.22,-29.61"/>
<polygon fill="midnightblue" stroke="midnightblue" points="1068.54,-28.5 1062.56,-19.75 1061.78,-30.32 1068.54,-28.5"/>
</g>
<!-- Node36&#45;&gt;Node6 -->
<g id="edge55" class="edge">
<title>Node36&#45;&gt;Node6</title>
<path fill="none" stroke="midnightblue" d="M719.43,-280.4C705.12,-271.04 686.39,-258.79 671.99,-249.38"/>
<polygon fill="midnightblue" stroke="midnightblue" points="673.53,-246.2 663.24,-243.66 669.7,-252.06 673.53,-246.2"/>
</g>
<!-- Node36&#45;&gt;Node13 -->
<g id="edge56" class="edge">
<title>Node36&#45;&gt;Node13</title>
<path fill="none" stroke="midnightblue" d="M678.34,-287.2C587.21,-273.29 418.49,-234.58 322,-132 294.72,-103 284.58,-55.58 280.94,-29.55"/>
<polygon fill="midnightblue" stroke="midnightblue" points="284.4,-29.03 279.71,-19.53 277.45,-29.88 284.4,-29.03"/>
</g>
<!-- Node38 -->
<g id="node38" class="node">
<title>Node38</title>
<g id="a_node38"><a xlink:href="spec_2deprecated_8h.html" target="_top" xlink:title=" ">
<polygon fill="white" stroke="black" points="533.5,-56.5 533.5,-75.5 678.5,-75.5 678.5,-56.5 533.5,-56.5"/>
<text text-anchor="middle" x="606" y="-63.5" font-family="Helvetica,sans-Serif" font-size="10.00">odp/api/spec/deprecated.h</text>
</a>
</g>
</g>
<!-- Node37&#45;&gt;Node38 -->
<g id="edge58" class="edge">
<title>Node37&#45;&gt;Node38</title>
<path fill="none" stroke="midnightblue" d="M459.68,-347.4C459.37,-333.13 459.66,-303.79 466,-280 480.18,-226.79 488.98,-214.17 519,-168 540.3,-135.23 571.36,-101.75 590.03,-82.75"/>
<polygon fill="midnightblue" stroke="midnightblue" points="592.64,-85.09 597.21,-75.54 587.67,-80.15 592.64,-85.09"/>
</g>
<!-- Node38&#45;&gt;Node5 -->
<g id="edge59" class="edge">
<title>Node38&#45;&gt;Node5</title>
<path fill="none" stroke="midnightblue" d="M677.69,-56.47C762.93,-46.33 904.3,-29.52 989.16,-19.43"/>
<polygon fill="midnightblue" stroke="midnightblue" points="989.71,-22.89 999.22,-18.23 988.88,-15.93 989.71,-22.89"/>
</g>
<!-- Node38&#45;&gt;Node13 -->
<g id="edge60" class="edge">
<title>Node38&#45;&gt;Node13</title>
<path fill="none" stroke="midnightblue" d="M554.19,-56.44C496.18,-46.87 402.26,-31.36 340.56,-21.17"/>
<polygon fill="midnightblue" stroke="midnightblue" points="341.01,-17.69 330.57,-19.52 339.87,-24.6 341.01,-17.69"/>
</g>
<!-- Node40 -->
<g id="node40" class="node">
<title>Node40</title>
<g id="a_node40"><a xlink:title=" ">
<polygon fill="white" stroke="#bfbfbf" points="1221.5,-286 1221.5,-305 1344.5,-305 1344.5,-286 1221.5,-286"/>
<text text-anchor="middle" x="1283" y="-293" font-family="Helvetica,sans-Serif" font-size="10.00">odp/api/abi/thrmask.h</text>
</a>
</g>
</g>
<!-- Node39&#45;&gt;Node40 -->
<g id="edge68" class="edge">
<title>Node39&#45;&gt;Node40</title>
<path fill="none" stroke="midnightblue" d="M1275.29,-347.48C1276.56,-339.08 1278.54,-325.98 1280.18,-315.16"/>
<polygon fill="midnightblue" stroke="midnightblue" points="1283.68,-315.42 1281.71,-305.01 1276.76,-314.37 1283.68,-315.42"/>
</g>
<!-- Node41 -->
<g id="node41" class="node">
<title>Node41</title>
<g id="a_node41"><a xlink:href="spec_2thrmask_8h.html" target="_top" xlink:title=" ">
<polygon fill="white" stroke="black" points="995.5,-286 995.5,-305 1126.5,-305 1126.5,-286 995.5,-286"/>
<text text-anchor="middle" x="1061" y="-293" font-family="Helvetica,sans-Serif" font-size="10.00">odp/api/spec/thrmask.h</text>
</a>
</g>
</g>
<!-- Node39&#45;&gt;Node41 -->
<g id="edge69" class="edge">
<title>Node39&#45;&gt;Node41</title>
<path fill="none" stroke="midnightblue" d="M1243.48,-347.48C1206.08,-337.03 1142.57,-319.29 1101.21,-307.73"/>
<polygon fill="midnightblue" stroke="midnightblue" points="1102.03,-304.33 1091.46,-305.01 1100.15,-311.07 1102.03,-304.33"/>
</g>
<!-- Node41&#45;&gt;Node5 -->
<g id="edge70" class="edge">
<title>Node41&#45;&gt;Node5</title>
<path fill="none" stroke="midnightblue" d="M1068.55,-285.92C1083.84,-267.63 1117,-222.9 1117,-179 1117,-179 1117,-179 1117,-121 1117,-84.3 1091.68,-47.66 1074.79,-27.3"/>
<polygon fill="midnightblue" stroke="midnightblue" points="1077.35,-24.9 1068.17,-19.62 1072.05,-29.48 1077.35,-24.9"/>
</g>
<!-- Node41&#45;&gt;Node6 -->
<g id="edge71" class="edge">
<title>Node41&#45;&gt;Node6</title>
<path fill="none" stroke="midnightblue" d="M1015.79,-285.95C1004.45,-283.9 992.29,-281.79 981,-280 931.49,-272.15 797.93,-254.39 716.4,-243.67"/>
<polygon fill="midnightblue" stroke="midnightblue" points="716.6,-240.17 706.23,-242.34 715.69,-247.11 716.6,-240.17"/>
</g>
<!-- Node41&#45;&gt;Node13 -->
<g id="edge72" class="edge">
<title>Node41&#45;&gt;Node13</title>
<path fill="none" stroke="midnightblue" d="M1030.14,-285.97C972.61,-269.67 845.53,-231.81 743,-188 725.45,-180.5 723.05,-174.2 705,-168 619.17,-138.52 591.63,-155.59 504,-132 433.67,-113.07 412.28,-113.76 350,-76 328.02,-62.67 306.82,-41.9 293.4,-27.43"/>
<polygon fill="midnightblue" stroke="midnightblue" points="295.75,-24.82 286.45,-19.75 290.56,-29.51 295.75,-24.82"/>
</g>
</g>
</svg>
