<?xml version="1.0" encoding="UTF-8" standalone="no"?>
<!DOCTYPE svg PUBLIC "-//W3C//DTD SVG 1.1//EN"
 "http://www.w3.org/Graphics/SVG/1.1/DTD/svg11.dtd">
<!-- Generated by graphviz version 2.43.0 (0)
 -->
<!-- Title: std_types.h Pages: 1 -->
<svg width="3119pt" height="420pt"
 viewBox="0.00 0.00 3119.00 420.00" xmlns="http://www.w3.org/2000/svg" xmlns:xlink="http://www.w3.org/1999/xlink">
<g id="graph0" class="graph" transform="scale(1 1) rotate(0) translate(4 416)">
<title>std_types.h</title>
<polygon fill="white" stroke="transparent" points="-4,4 -4,-416 3115,-416 3115,4 -4,4"/>
<!-- Node1 -->
<g id="node1" class="node">
<title>Node1</title>
<g id="a_node1"><a xlink:title=" ">
<polygon fill="#bfbfbf" stroke="black" points="1461,-392.5 1461,-411.5 1534,-411.5 1534,-392.5 1461,-392.5"/>
<text text-anchor="middle" x="1497.5" y="-399.5" font-family="Helvetica,sans-Serif" font-size="10.00">std_types.h</text>
</a>
</g>
</g>
<!-- Node2 -->
<g id="node2" class="node">
<title>Node2</title>
<g id="a_node2"><a xlink:href="std__types_8h.html" target="_top" xlink:title=" ">
<polygon fill="white" stroke="black" points="1461,-336.5 1461,-355.5 1534,-355.5 1534,-336.5 1461,-336.5"/>
<text text-anchor="middle" x="1497.5" y="-343.5" font-family="Helvetica,sans-Serif" font-size="10.00">std_types.h</text>
</a>
</g>
</g>
<!-- Node1&#45;&gt;Node2 -->
<g id="edge1" class="edge">
<title>Node1&#45;&gt;Node2</title>
<path fill="none" stroke="midnightblue" d="M1497.5,-381.8C1497.5,-372.91 1497.5,-362.78 1497.5,-355.75"/>
<polygon fill="midnightblue" stroke="midnightblue" points="1494,-382.08 1497.5,-392.08 1501,-382.08 1494,-382.08"/>
</g>
<!-- Node3 -->
<g id="node3" class="node">
<title>Node3</title>
<g id="a_node3"><a xlink:href="abi-default_2atomic_8h.html" target="_top" xlink:title=" ">
<polygon fill="white" stroke="black" points="0,-280.5 0,-299.5 59,-299.5 59,-280.5 0,-280.5"/>
<text text-anchor="middle" x="29.5" y="-287.5" font-family="Helvetica,sans-Serif" font-size="10.00">atomic.h</text>
</a>
</g>
</g>
<!-- Node2&#45;&gt;Node3 -->
<g id="edge2" class="edge">
<title>Node2&#45;&gt;Node3</title>
<path fill="none" stroke="midnightblue" d="M1450.67,-344.79C1235.92,-343.64 343.99,-336.71 67.5,-300 64.81,-299.64 62.04,-299.18 59.27,-298.65"/>
<polygon fill="midnightblue" stroke="midnightblue" points="1450.94,-348.29 1460.96,-344.85 1450.98,-341.29 1450.94,-348.29"/>
</g>
<!-- Node4 -->
<g id="node4" class="node">
<title>Node4</title>
<g id="a_node4"><a xlink:href="abi-default_2barrier_8h.html" target="_top" xlink:title=" ">
<polygon fill="white" stroke="black" points="77,-280.5 77,-299.5 134,-299.5 134,-280.5 77,-280.5"/>
<text text-anchor="middle" x="105.5" y="-287.5" font-family="Helvetica,sans-Serif" font-size="10.00">barrier.h</text>
</a>
</g>
</g>
<!-- Node2&#45;&gt;Node4 -->
<g id="edge3" class="edge">
<title>Node2&#45;&gt;Node4</title>
<path fill="none" stroke="midnightblue" d="M1450.48,-344.69C1242.52,-343.15 404.15,-334.84 143.5,-300 140.41,-299.59 137.2,-299.03 134.02,-298.4"/>
<polygon fill="midnightblue" stroke="midnightblue" points="1450.73,-348.2 1460.75,-344.77 1450.78,-341.2 1450.73,-348.2"/>
</g>
<!-- Node5 -->
<g id="node5" class="node">
<title>Node5</title>
<g id="a_node5"><a xlink:href="abi-default_2byteorder_8h.html" target="_top" xlink:title=" ">
<polygon fill="white" stroke="black" points="152.5,-280.5 152.5,-299.5 224.5,-299.5 224.5,-280.5 152.5,-280.5"/>
<text text-anchor="middle" x="188.5" y="-287.5" font-family="Helvetica,sans-Serif" font-size="10.00">byteorder.h</text>
</a>
</g>
</g>
<!-- Node2&#45;&gt;Node5 -->
<g id="edge4" class="edge">
<title>Node2&#45;&gt;Node5</title>
<path fill="none" stroke="midnightblue" d="M1450.74,-344.35C1251.96,-341.43 476.15,-328.4 233.5,-300 230.65,-299.67 227.71,-299.25 224.77,-298.78"/>
<polygon fill="midnightblue" stroke="midnightblue" points="1450.8,-347.85 1460.85,-344.5 1450.91,-340.85 1450.8,-347.85"/>
</g>
<!-- Node6 -->
<g id="node6" class="node">
<title>Node6</title>
<g id="a_node6"><a xlink:href="abi-default_2cpumask_8h.html" target="_top" xlink:title=" ">
<polygon fill="white" stroke="black" points="242.5,-280.5 242.5,-299.5 312.5,-299.5 312.5,-280.5 242.5,-280.5"/>
<text text-anchor="middle" x="277.5" y="-287.5" font-family="Helvetica,sans-Serif" font-size="10.00">cpumask.h</text>
</a>
</g>
</g>
<!-- Node2&#45;&gt;Node6 -->
<g id="edge5" class="edge">
<title>Node2&#45;&gt;Node6</title>
<path fill="none" stroke="midnightblue" d="M1450.63,-344.23C1260.46,-340.95 545.84,-327.05 321.5,-300 318.71,-299.66 315.84,-299.24 312.96,-298.77"/>
<polygon fill="midnightblue" stroke="midnightblue" points="1450.79,-347.73 1460.85,-344.41 1450.91,-340.73 1450.79,-347.73"/>
</g>
<!-- Node7 -->
<g id="node7" class="node">
<title>Node7</title>
<g id="a_node7"><a xlink:href="abi-default_2init_8h.html" target="_top" xlink:title=" ">
<polygon fill="white" stroke="black" points="331,-280.5 331,-299.5 372,-299.5 372,-280.5 331,-280.5"/>
<text text-anchor="middle" x="351.5" y="-287.5" font-family="Helvetica,sans-Serif" font-size="10.00">init.h</text>
</a>
</g>
</g>
<!-- Node2&#45;&gt;Node7 -->
<g id="edge6" class="edge">
<title>Node2&#45;&gt;Node7</title>
<path fill="none" stroke="midnightblue" d="M1450.8,-344.74C1266.73,-343.45 591.22,-336.3 380.5,-300 377.8,-299.53 375,-298.89 372.25,-298.15"/>
<polygon fill="midnightblue" stroke="midnightblue" points="1450.93,-348.24 1460.96,-344.81 1450.98,-341.24 1450.93,-348.24"/>
</g>
<!-- Node8 -->
<g id="node8" class="node">
<title>Node8</title>
<g id="a_node8"><a xlink:href="abi-default_2ipsec_8h.html" target="_top" xlink:title=" ">
<polygon fill="white" stroke="black" points="390,-280.5 390,-299.5 441,-299.5 441,-280.5 390,-280.5"/>
<text text-anchor="middle" x="415.5" y="-287.5" font-family="Helvetica,sans-Serif" font-size="10.00">ipsec.h</text>
</a>
</g>
</g>
<!-- Node2&#45;&gt;Node8 -->
<g id="edge7" class="edge">
<title>Node2&#45;&gt;Node8</title>
<path fill="none" stroke="midnightblue" d="M1450.88,-344.29C1274.46,-341.4 647.69,-329.26 450.5,-300 447.52,-299.56 444.43,-298.97 441.37,-298.29"/>
<polygon fill="midnightblue" stroke="midnightblue" points="1450.83,-347.79 1460.88,-344.45 1450.94,-340.79 1450.83,-347.79"/>
</g>
<!-- Node9 -->
<g id="node9" class="node">
<title>Node9</title>
<g id="a_node9"><a xlink:href="abi-default_2packet__io_8h.html" target="_top" xlink:title=" ">
<polygon fill="white" stroke="black" points="459.5,-280.5 459.5,-299.5 531.5,-299.5 531.5,-280.5 459.5,-280.5"/>
<text text-anchor="middle" x="495.5" y="-287.5" font-family="Helvetica,sans-Serif" font-size="10.00">packet_io.h</text>
</a>
</g>
</g>
<!-- Node2&#45;&gt;Node9 -->
<g id="edge8" class="edge">
<title>Node2&#45;&gt;Node9</title>
<path fill="none" stroke="midnightblue" d="M1450.52,-345.28C1311.14,-345.6 888.04,-342.68 540.5,-300 537.65,-299.65 534.72,-299.22 531.77,-298.74"/>
<polygon fill="midnightblue" stroke="midnightblue" points="1450.84,-348.78 1460.83,-345.25 1450.82,-341.78 1450.84,-348.78"/>
</g>
<!-- Node10 -->
<g id="node10" class="node">
<title>Node10</title>
<g id="a_node10"><a xlink:href="abi-default_2rwlock__recursive_8h.html" target="_top" xlink:title=" ">
<polygon fill="white" stroke="black" points="549.5,-280.5 549.5,-299.5 657.5,-299.5 657.5,-280.5 549.5,-280.5"/>
<text text-anchor="middle" x="603.5" y="-287.5" font-family="Helvetica,sans-Serif" font-size="10.00">rwlock_recursive.h</text>
</a>
</g>
</g>
<!-- Node2&#45;&gt;Node10 -->
<g id="edge9" class="edge">
<title>Node2&#45;&gt;Node10</title>
<path fill="none" stroke="midnightblue" d="M1450.86,-343.91C1324.38,-340.64 964.4,-329.29 666.5,-300 663.64,-299.72 660.71,-299.4 657.76,-299.06"/>
<polygon fill="midnightblue" stroke="midnightblue" points="1450.88,-347.41 1460.96,-344.17 1451.05,-340.41 1450.88,-347.41"/>
</g>
<!-- Node11 -->
<g id="node11" class="node">
<title>Node11</title>
<g id="a_node11"><a xlink:href="abi-default_2schedule_8h.html" target="_top" xlink:title=" ">
<polygon fill="white" stroke="black" points="676,-280.5 676,-299.5 745,-299.5 745,-280.5 676,-280.5"/>
<text text-anchor="middle" x="710.5" y="-287.5" font-family="Helvetica,sans-Serif" font-size="10.00">schedule.h</text>
</a>
</g>
</g>
<!-- Node2&#45;&gt;Node11 -->
<g id="edge10" class="edge">
<title>Node2&#45;&gt;Node11</title>
<path fill="none" stroke="midnightblue" d="M1450.91,-344.46C1333.53,-342.61 1016.29,-334.53 754.5,-300 751.41,-299.59 748.21,-299.09 745.01,-298.54"/>
<polygon fill="midnightblue" stroke="midnightblue" points="1450.94,-347.96 1460.99,-344.61 1451.04,-340.96 1450.94,-347.96"/>
</g>
<!-- Node12 -->
<g id="node12" class="node">
<title>Node12</title>
<g id="a_node12"><a xlink:href="abi-default_2spinlock__recursive_8h.html" target="_top" xlink:title=" ">
<polygon fill="white" stroke="black" points="763.5,-280.5 763.5,-299.5 879.5,-299.5 879.5,-280.5 763.5,-280.5"/>
<text text-anchor="middle" x="821.5" y="-287.5" font-family="Helvetica,sans-Serif" font-size="10.00">spinlock_recursive.h</text>
</a>
</g>
</g>
<!-- Node2&#45;&gt;Node12 -->
<g id="edge11" class="edge">
<title>Node2&#45;&gt;Node12</title>
<path fill="none" stroke="midnightblue" d="M1450.71,-342.5C1348.51,-336.83 1097.75,-321.77 888.5,-300 885.58,-299.7 882.59,-299.37 879.58,-299.02"/>
<polygon fill="midnightblue" stroke="midnightblue" points="1450.53,-345.99 1460.71,-343.05 1450.91,-339 1450.53,-345.99"/>
</g>
<!-- Node13 -->
<g id="node13" class="node">
<title>Node13</title>
<g id="a_node13"><a xlink:href="abi-default_2traffic__mngr_8h.html" target="_top" xlink:title=" ">
<polygon fill="white" stroke="black" points="897.5,-280.5 897.5,-299.5 981.5,-299.5 981.5,-280.5 897.5,-280.5"/>
<text text-anchor="middle" x="939.5" y="-287.5" font-family="Helvetica,sans-Serif" font-size="10.00">traffic_mngr.h</text>
</a>
</g>
</g>
<!-- Node2&#45;&gt;Node13 -->
<g id="edge12" class="edge">
<title>Node2&#45;&gt;Node13</title>
<path fill="none" stroke="midnightblue" d="M1450.69,-342.2C1361.09,-336.54 1159.24,-322.34 990.5,-300 987.65,-299.62 984.71,-299.2 981.76,-298.75"/>
<polygon fill="midnightblue" stroke="midnightblue" points="1450.6,-345.7 1460.8,-342.83 1451.04,-338.71 1450.6,-345.7"/>
</g>
<!-- Node14 -->
<g id="node14" class="node">
<title>Node14</title>
<g id="a_node14"><a xlink:href="barrier_8h.html" target="_top" xlink:title=" ">
<polygon fill="white" stroke="black" points="1000,-280.5 1000,-299.5 1057,-299.5 1057,-280.5 1000,-280.5"/>
<text text-anchor="middle" x="1028.5" y="-287.5" font-family="Helvetica,sans-Serif" font-size="10.00">barrier.h</text>
</a>
</g>
</g>
<!-- Node2&#45;&gt;Node14 -->
<g id="edge13" class="edge">
<title>Node2&#45;&gt;Node14</title>
<path fill="none" stroke="midnightblue" d="M1450.68,-342.2C1371.09,-336.98 1204.52,-324.04 1065.5,-300 1062.76,-299.53 1059.93,-298.97 1057.1,-298.36"/>
<polygon fill="midnightblue" stroke="midnightblue" points="1450.66,-345.7 1460.86,-342.86 1451.11,-338.72 1450.66,-345.7"/>
</g>
<!-- Node15 -->
<g id="node15" class="node">
<title>Node15</title>
<g id="a_node15"><a xlink:href="buffer_8h.html" target="_top" xlink:title=" ">
<polygon fill="white" stroke="black" points="1075,-280.5 1075,-299.5 1128,-299.5 1128,-280.5 1075,-280.5"/>
<text text-anchor="middle" x="1101.5" y="-287.5" font-family="Helvetica,sans-Serif" font-size="10.00">buffer.h</text>
</a>
</g>
</g>
<!-- Node2&#45;&gt;Node15 -->
<g id="edge14" class="edge">
<title>Node2&#45;&gt;Node15</title>
<path fill="none" stroke="midnightblue" d="M1450.82,-340.44C1382.76,-333.48 1252.41,-318.99 1142.5,-300 1137.9,-299.21 1133.04,-298.25 1128.34,-297.25"/>
<polygon fill="midnightblue" stroke="midnightblue" points="1450.5,-343.92 1460.8,-341.45 1451.2,-336.96 1450.5,-343.92"/>
</g>
<!-- Node16 -->
<g id="node16" class="node">
<title>Node16</title>
<g id="a_node16"><a xlink:href="classification_8h.html" target="_top" xlink:title=" ">
<polygon fill="white" stroke="black" points="1217,-56.5 1217,-75.5 1306,-75.5 1306,-56.5 1217,-56.5"/>
<text text-anchor="middle" x="1261.5" y="-63.5" font-family="Helvetica,sans-Serif" font-size="10.00">classification.h</text>
</a>
</g>
</g>
<!-- Node2&#45;&gt;Node16 -->
<g id="edge15" class="edge">
<title>Node2&#45;&gt;Node16</title>
<path fill="none" stroke="midnightblue" d="M1450.27,-341.9C1388.61,-336.92 1285.26,-325.02 1257.5,-300 1193.27,-242.12 1170.83,-190.3 1207.5,-112 1215.16,-95.64 1232.01,-83.16 1244.87,-75.54"/>
<polygon fill="midnightblue" stroke="midnightblue" points="1450.29,-345.42 1460.53,-342.7 1450.83,-338.44 1450.29,-345.42"/>
</g>
<!-- Node17 -->
<g id="node17" class="node">
<title>Node17</title>
<g id="a_node17"><a xlink:href="spec_2ipsec_8h.html" target="_top" xlink:title=" ">
<polygon fill="white" stroke="red" points="1272,-0.5 1272,-19.5 1323,-19.5 1323,-0.5 1272,-0.5"/>
<text text-anchor="middle" x="1297.5" y="-7.5" font-family="Helvetica,sans-Serif" font-size="10.00">ipsec.h</text>
</a>
</g>
</g>
<!-- Node2&#45;&gt;Node17 -->
<g id="edge45" class="edge">
<title>Node2&#45;&gt;Node17</title>
<path fill="none" stroke="midnightblue" d="M1450.89,-341.36C1385.26,-335.5 1269.67,-322.34 1234.5,-300 1229.11,-296.58 1150.5,-183.33 1150.5,-179 1150.5,-179 1150.5,-179 1150.5,-121 1150.5,-61.07 1229.78,-29.84 1271.89,-17.48"/>
<polygon fill="midnightblue" stroke="midnightblue" points="1450.71,-344.85 1460.98,-342.23 1451.32,-337.88 1450.71,-344.85"/>
</g>
<!-- Node19 -->
<g id="node18" class="node">
<title>Node19</title>
<g id="a_node18"><a xlink:href="crypto_8h.html" target="_top" xlink:title=" ">
<polygon fill="white" stroke="black" points="1667.5,-168.5 1667.5,-187.5 1723.5,-187.5 1723.5,-168.5 1667.5,-168.5"/>
<text text-anchor="middle" x="1695.5" y="-175.5" font-family="Helvetica,sans-Serif" font-size="10.00">crypto.h</text>
</a>
</g>
</g>
<!-- Node2&#45;&gt;Node19 -->
<g id="edge17" class="edge">
<title>Node2&#45;&gt;Node19</title>
<path fill="none" stroke="midnightblue" d="M1524.92,-331.89C1542.88,-323.16 1566.78,-311.26 1587.5,-300 1602.9,-291.63 1605.51,-287.19 1621.5,-280 1668.8,-258.73 1702,-285.95 1732.5,-244 1746.32,-224.99 1722.1,-200.37 1706.72,-187.57"/>
<polygon fill="midnightblue" stroke="midnightblue" points="1523.09,-328.89 1515.62,-336.39 1526.14,-335.19 1523.09,-328.89"/>
</g>
<!-- Node20 -->
<g id="node19" class="node">
<title>Node20</title>
<g id="a_node19"><a xlink:href="packet_8h.html" target="_top" xlink:title=" ">
<polygon fill="white" stroke="black" points="1440.5,-280.5 1440.5,-299.5 1498.5,-299.5 1498.5,-280.5 1440.5,-280.5"/>
<text text-anchor="middle" x="1469.5" y="-287.5" font-family="Helvetica,sans-Serif" font-size="10.00">packet.h</text>
</a>
</g>
</g>
<!-- Node2&#45;&gt;Node20 -->
<g id="edge19" class="edge">
<title>Node2&#45;&gt;Node20</title>
<path fill="none" stroke="midnightblue" d="M1488.16,-326.98C1483.41,-317.82 1477.84,-307.09 1474.04,-299.75"/>
<polygon fill="midnightblue" stroke="midnightblue" points="1485.17,-328.82 1492.88,-336.08 1491.38,-325.59 1485.17,-328.82"/>
</g>
<!-- Node21 -->
<g id="node20" class="node">
<title>Node21</title>
<g id="a_node20"><a xlink:href="spec_2comp_8h.html" target="_top" xlink:title=" ">
<polygon fill="white" stroke="black" points="1421,-224.5 1421,-243.5 1474,-243.5 1474,-224.5 1421,-224.5"/>
<text text-anchor="middle" x="1447.5" y="-231.5" font-family="Helvetica,sans-Serif" font-size="10.00">comp.h</text>
</a>
</g>
</g>
<!-- Node2&#45;&gt;Node21 -->
<g id="edge39" class="edge">
<title>Node2&#45;&gt;Node21</title>
<path fill="none" stroke="midnightblue" d="M1466.12,-331.83C1452.92,-324.53 1438.92,-314.05 1431.5,-300 1421.73,-281.51 1433.61,-256.88 1441.52,-243.89"/>
<polygon fill="midnightblue" stroke="midnightblue" points="1464.54,-334.96 1475.04,-336.38 1467.72,-328.72 1464.54,-334.96"/>
</g>
<!-- Node23 -->
<g id="node22" class="node">
<title>Node23</title>
<g id="a_node22"><a xlink:href="spec_2crypto_8h.html" target="_top" xlink:title=" ">
<polygon fill="white" stroke="black" points="1667.5,-224.5 1667.5,-243.5 1723.5,-243.5 1723.5,-224.5 1667.5,-224.5"/>
<text text-anchor="middle" x="1695.5" y="-231.5" font-family="Helvetica,sans-Serif" font-size="10.00">crypto.h</text>
</a>
</g>
</g>
<!-- Node2&#45;&gt;Node23 -->
<g id="edge42" class="edge">
<title>Node2&#45;&gt;Node23</title>
<path fill="none" stroke="midnightblue" d="M1515.77,-330.09C1533.59,-316.01 1561.84,-294.88 1588.5,-280 1615.6,-264.87 1648.81,-251.66 1670.98,-243.53"/>
<polygon fill="midnightblue" stroke="midnightblue" points="1513.53,-327.4 1507.91,-336.38 1517.91,-332.87 1513.53,-327.4"/>
</g>
<!-- Node37 -->
<g id="node24" class="node">
<title>Node37</title>
<g id="a_node24"><a xlink:href="spec_2packet__flags_8h.html" target="_top" xlink:title=" ">
<polygon fill="white" stroke="red" points="1563.5,-224.5 1563.5,-243.5 1649.5,-243.5 1649.5,-224.5 1563.5,-224.5"/>
<text text-anchor="middle" x="1606.5" y="-231.5" font-family="Helvetica,sans-Serif" font-size="10.00">packet_flags.h</text>
</a>
</g>
</g>
<!-- Node2&#45;&gt;Node37 -->
<g id="edge46" class="edge">
<title>Node2&#45;&gt;Node37</title>
<path fill="none" stroke="midnightblue" d="M1510.04,-327.68C1520.25,-314.08 1535.39,-295 1550.5,-280 1564.48,-266.12 1582.54,-252.23 1594.31,-243.63"/>
<polygon fill="midnightblue" stroke="midnightblue" points="1506.95,-325.97 1503.82,-336.1 1512.58,-330.13 1506.95,-325.97"/>
</g>
<!-- Node31 -->
<g id="node26" class="node">
<title>Node31</title>
<g id="a_node26"><a xlink:href="packet__io_8h.html" target="_top" xlink:title=" ">
<polygon fill="white" stroke="black" points="1292.5,-168.5 1292.5,-187.5 1364.5,-187.5 1364.5,-168.5 1292.5,-168.5"/>
<text text-anchor="middle" x="1328.5" y="-175.5" font-family="Helvetica,sans-Serif" font-size="10.00">packet_io.h</text>
</a>
</g>
</g>
<!-- Node2&#45;&gt;Node31 -->
<g id="edge32" class="edge">
<title>Node2&#45;&gt;Node31</title>
<path fill="none" stroke="midnightblue" d="M1450.45,-341.13C1395.84,-335.61 1310.56,-323.43 1289.5,-300 1266.85,-274.8 1270.53,-255.3 1283.5,-224 1289.93,-208.48 1304.59,-195.53 1315.44,-187.56"/>
<polygon fill="midnightblue" stroke="midnightblue" points="1450.31,-344.64 1460.6,-342.12 1450.99,-337.67 1450.31,-344.64"/>
</g>
<!-- Node32 -->
<g id="node27" class="node">
<title>Node32</title>
<g id="a_node27"><a xlink:href="spec_2classification_8h.html" target="_top" xlink:title=" ">
<polygon fill="white" stroke="black" points="1217,-112.5 1217,-131.5 1306,-131.5 1306,-112.5 1217,-112.5"/>
<text text-anchor="middle" x="1261.5" y="-119.5" font-family="Helvetica,sans-Serif" font-size="10.00">classification.h</text>
</a>
</g>
</g>
<!-- Node2&#45;&gt;Node32 -->
<g id="edge38" class="edge">
<title>Node2&#45;&gt;Node32</title>
<path fill="none" stroke="midnightblue" d="M1450.81,-342.13C1392.13,-337.48 1296.33,-326.02 1273.5,-300 1230.03,-250.45 1250.85,-160.06 1258.85,-131.73"/>
<polygon fill="midnightblue" stroke="midnightblue" points="1450.72,-345.64 1460.95,-342.9 1451.24,-338.66 1450.72,-345.64"/>
</g>
<!-- Node33 -->
<g id="node28" class="node">
<title>Node33</title>
<g id="a_node28"><a xlink:href="spec_2traffic__mngr_8h.html" target="_top" xlink:title=" ">
<polygon fill="white" stroke="red" points="1362.5,-112.5 1362.5,-131.5 1446.5,-131.5 1446.5,-112.5 1362.5,-112.5"/>
<text text-anchor="middle" x="1404.5" y="-119.5" font-family="Helvetica,sans-Serif" font-size="10.00">traffic_mngr.h</text>
</a>
</g>
</g>
<!-- Node2&#45;&gt;Node33 -->
<g id="edge57" class="edge">
<title>Node2&#45;&gt;Node33</title>
<path fill="none" stroke="midnightblue" d="M1465.11,-332.02C1450.65,-324.67 1434.62,-314.08 1424.5,-300 1386.05,-246.51 1397.74,-159.5 1402.75,-131.78"/>
<polygon fill="midnightblue" stroke="midnightblue" points="1463.77,-335.26 1474.31,-336.39 1466.77,-328.94 1463.77,-335.26"/>
</g>
<!-- Node39 -->
<g id="node29" class="node">
<title>Node39</title>
<g id="a_node29"><a xlink:href="proto__stats_8h.html" target="_top" xlink:title=" ">
<polygon fill="white" stroke="black" points="1630.5,-280.5 1630.5,-299.5 1710.5,-299.5 1710.5,-280.5 1630.5,-280.5"/>
<text text-anchor="middle" x="1670.5" y="-287.5" font-family="Helvetica,sans-Serif" font-size="10.00">proto_stats.h</text>
</a>
</g>
</g>
<!-- Node2&#45;&gt;Node39 -->
<g id="edge33" class="edge">
<title>Node2&#45;&gt;Node39</title>
<path fill="none" stroke="midnightblue" d="M1534.55,-333.44C1567.16,-323.26 1613.91,-308.66 1643.22,-299.52"/>
<polygon fill="midnightblue" stroke="midnightblue" points="1533.42,-330.12 1524.91,-336.44 1535.5,-336.8 1533.42,-330.12"/>
</g>
<!-- Node27 -->
<g id="node30" class="node">
<title>Node27</title>
<g id="a_node30"><a xlink:href="queue_8h.html" target="_top" xlink:title=" ">
<polygon fill="white" stroke="black" points="1728.5,-280.5 1728.5,-299.5 1784.5,-299.5 1784.5,-280.5 1728.5,-280.5"/>
<text text-anchor="middle" x="1756.5" y="-287.5" font-family="Helvetica,sans-Serif" font-size="10.00">queue.h</text>
</a>
</g>
</g>
<!-- Node2&#45;&gt;Node27 -->
<g id="edge34" class="edge">
<title>Node2&#45;&gt;Node27</title>
<path fill="none" stroke="midnightblue" d="M1544.17,-336.08C1589.17,-327.36 1659.14,-313.45 1719.5,-300 1722.34,-299.37 1725.3,-298.69 1728.24,-297.99"/>
<polygon fill="midnightblue" stroke="midnightblue" points="1543.28,-332.69 1534.13,-338.03 1544.61,-339.56 1543.28,-332.69"/>
</g>
<!-- Node40 -->
<g id="node32" class="node">
<title>Node40</title>
<g id="a_node32"><a xlink:href="spec_2chksum_8h.html" target="_top" xlink:title=" ">
<polygon fill="white" stroke="black" points="1802.5,-280.5 1802.5,-299.5 1866.5,-299.5 1866.5,-280.5 1802.5,-280.5"/>
<text text-anchor="middle" x="1834.5" y="-287.5" font-family="Helvetica,sans-Serif" font-size="10.00">chksum.h</text>
</a>
</g>
</g>
<!-- Node2&#45;&gt;Node40 -->
<g id="edge36" class="edge">
<title>Node2&#45;&gt;Node40</title>
<path fill="none" stroke="midnightblue" d="M1544.12,-338.87C1602.56,-330.97 1705.75,-316.28 1793.5,-300 1796.37,-299.47 1799.34,-298.88 1802.31,-298.27"/>
<polygon fill="midnightblue" stroke="midnightblue" points="1543.53,-335.42 1534.08,-340.22 1544.46,-342.36 1543.53,-335.42"/>
</g>
<!-- Node42 -->
<g id="node34" class="node">
<title>Node42</title>
<g id="a_node34"><a xlink:href="spec_2cpu_8h.html" target="_top" xlink:title=" ">
<polygon fill="white" stroke="black" points="1885,-280.5 1885,-299.5 1928,-299.5 1928,-280.5 1885,-280.5"/>
<text text-anchor="middle" x="1906.5" y="-287.5" font-family="Helvetica,sans-Serif" font-size="10.00">cpu.h</text>
</a>
</g>
</g>
<!-- Node2&#45;&gt;Node42 -->
<g id="edge40" class="edge">
<title>Node2&#45;&gt;Node42</title>
<path fill="none" stroke="midnightblue" d="M1544.11,-341.92C1615.86,-336.63 1757.44,-324 1875.5,-300 1878.58,-299.37 1881.79,-298.59 1884.93,-297.75"/>
<polygon fill="midnightblue" stroke="midnightblue" points="1543.76,-338.44 1534.04,-342.65 1544.27,-345.42 1543.76,-338.44"/>
</g>
<!-- Node45 -->
<g id="node36" class="node">
<title>Node45</title>
<g id="a_node36"><a xlink:href="spec_2hash_8h.html" target="_top" xlink:title=" ">
<polygon fill="white" stroke="red" points="1946,-280.5 1946,-299.5 1995,-299.5 1995,-280.5 1946,-280.5"/>
<text text-anchor="middle" x="1970.5" y="-287.5" font-family="Helvetica,sans-Serif" font-size="10.00">hash.h</text>
</a>
</g>
</g>
<!-- Node2&#45;&gt;Node45 -->
<g id="edge43" class="edge">
<title>Node2&#45;&gt;Node45</title>
<path fill="none" stroke="midnightblue" d="M1544.52,-342.6C1625.23,-337.95 1795.12,-325.79 1936.5,-300 1939.5,-299.45 1942.63,-298.77 1945.72,-298.04"/>
<polygon fill="midnightblue" stroke="midnightblue" points="1543.98,-339.13 1534.2,-343.18 1544.38,-346.12 1543.98,-339.13"/>
</g>
<!-- Node47 -->
<g id="node37" class="node">
<title>Node47</title>
<g id="a_node37"><a xlink:href="spec_2init_8h.html" target="_top" xlink:title=" ">
<polygon fill="white" stroke="red" points="2013,-280.5 2013,-299.5 2054,-299.5 2054,-280.5 2013,-280.5"/>
<text text-anchor="middle" x="2033.5" y="-287.5" font-family="Helvetica,sans-Serif" font-size="10.00">init.h</text>
</a>
</g>
</g>
<!-- Node2&#45;&gt;Node47 -->
<g id="edge44" class="edge">
<title>Node2&#45;&gt;Node47</title>
<path fill="none" stroke="midnightblue" d="M1544.17,-344C1633.92,-341.39 1836.47,-332.14 2003.5,-300 2006.6,-299.4 2009.83,-298.62 2012.98,-297.75"/>
<polygon fill="midnightblue" stroke="midnightblue" points="1543.95,-340.51 1534.05,-344.28 1544.14,-347.5 1543.95,-340.51"/>
</g>
<!-- Node52 -->
<g id="node38" class="node">
<title>Node52</title>
<g id="a_node38"><a xlink:href="spec_2pool_8h.html" target="_top" xlink:title=" ">
<polygon fill="white" stroke="red" points="2093,-224.5 2093,-243.5 2140,-243.5 2140,-224.5 2093,-224.5"/>
<text text-anchor="middle" x="2116.5" y="-231.5" font-family="Helvetica,sans-Serif" font-size="10.00">pool.h</text>
</a>
</g>
</g>
<!-- Node2&#45;&gt;Node52 -->
<g id="edge47" class="edge">
<title>Node2&#45;&gt;Node52</title>
<path fill="none" stroke="midnightblue" d="M1544.58,-343.34C1671.99,-338.56 2017.05,-323.58 2062.5,-300 2086.98,-287.3 2104.63,-258.2 2112.28,-243.63"/>
<polygon fill="midnightblue" stroke="midnightblue" points="1544.22,-339.85 1534.36,-343.72 1544.48,-346.85 1544.22,-339.85"/>
</g>
<!-- Node55 -->
<g id="node39" class="node">
<title>Node55</title>
<g id="a_node39"><a xlink:href="pool__types_8h.html" target="_top" xlink:title=" ">
<polygon fill="white" stroke="black" points="2111,-280.5 2111,-299.5 2190,-299.5 2190,-280.5 2111,-280.5"/>
<text text-anchor="middle" x="2150.5" y="-287.5" font-family="Helvetica,sans-Serif" font-size="10.00">pool_types.h</text>
</a>
</g>
</g>
<!-- Node2&#45;&gt;Node55 -->
<g id="edge48" class="edge">
<title>Node2&#45;&gt;Node55</title>
<path fill="none" stroke="midnightblue" d="M1544.25,-342.93C1645.3,-338.13 1891.51,-324.73 2096.5,-300 2101.12,-299.44 2105.96,-298.77 2110.75,-298.04"/>
<polygon fill="midnightblue" stroke="midnightblue" points="1543.9,-339.44 1534.08,-343.4 1544.23,-346.43 1543.9,-339.44"/>
</g>
<!-- Node56 -->
<g id="node40" class="node">
<title>Node56</title>
<g id="a_node40"><a xlink:href="spec_2proto__stats__types_8h.html" target="_top" xlink:title=" ">
<polygon fill="white" stroke="red" points="2208,-280.5 2208,-299.5 2321,-299.5 2321,-280.5 2208,-280.5"/>
<text text-anchor="middle" x="2264.5" y="-287.5" font-family="Helvetica,sans-Serif" font-size="10.00">proto_stats_types.h</text>
</a>
</g>
</g>
<!-- Node2&#45;&gt;Node56 -->
<g id="edge50" class="edge">
<title>Node2&#45;&gt;Node56</title>
<path fill="none" stroke="midnightblue" d="M1544.14,-343.2C1656.91,-338.58 1953.24,-324.91 2199.5,-300 2202.22,-299.72 2205,-299.42 2207.81,-299.1"/>
<polygon fill="midnightblue" stroke="midnightblue" points="1543.97,-339.7 1534.12,-343.6 1544.25,-346.7 1543.97,-339.7"/>
</g>
<!-- Node35 -->
<g id="node41" class="node">
<title>Node35</title>
<g id="a_node41"><a xlink:href="spec_2schedule_8h.html" target="_top" xlink:title=" ">
<polygon fill="white" stroke="red" points="2339,-280.5 2339,-299.5 2408,-299.5 2408,-280.5 2339,-280.5"/>
<text text-anchor="middle" x="2373.5" y="-287.5" font-family="Helvetica,sans-Serif" font-size="10.00">schedule.h</text>
</a>
</g>
</g>
<!-- Node2&#45;&gt;Node35 -->
<g id="edge51" class="edge">
<title>Node2&#45;&gt;Node35</title>
<path fill="none" stroke="midnightblue" d="M1544.38,-344.96C1671.46,-344.33 2032.99,-338.94 2330.5,-300 2333.22,-299.64 2336.03,-299.21 2338.84,-298.73"/>
<polygon fill="midnightblue" stroke="midnightblue" points="1544.21,-341.46 1534.22,-345.01 1544.24,-348.46 1544.21,-341.46"/>
</g>
<!-- Node62 -->
<g id="node42" class="node">
<title>Node62</title>
<g id="a_node42"><a xlink:href="spec_2schedule__types_8h.html" target="_top" xlink:title=" ">
<polygon fill="white" stroke="red" points="2426,-280.5 2426,-299.5 2527,-299.5 2527,-280.5 2426,-280.5"/>
<text text-anchor="middle" x="2476.5" y="-287.5" font-family="Helvetica,sans-Serif" font-size="10.00">schedule_types.h</text>
</a>
</g>
</g>
<!-- Node2&#45;&gt;Node62 -->
<g id="edge52" class="edge">
<title>Node2&#45;&gt;Node62</title>
<path fill="none" stroke="midnightblue" d="M1544.46,-344.4C1680.11,-342.31 2084.09,-333.49 2417.5,-300 2420.18,-299.73 2422.93,-299.42 2425.69,-299.09"/>
<polygon fill="midnightblue" stroke="midnightblue" points="1544.36,-340.9 1534.41,-344.55 1544.46,-347.9 1544.36,-340.9"/>
</g>
<!-- Node68 -->
<g id="node43" class="node">
<title>Node68</title>
<g id="a_node43"><a xlink:href="spec_2stash_8h.html" target="_top" xlink:title=" ">
<polygon fill="white" stroke="red" points="2545.5,-280.5 2545.5,-299.5 2597.5,-299.5 2597.5,-280.5 2545.5,-280.5"/>
<text text-anchor="middle" x="2571.5" y="-287.5" font-family="Helvetica,sans-Serif" font-size="10.00">stash.h</text>
</a>
</g>
</g>
<!-- Node2&#45;&gt;Node68 -->
<g id="edge53" class="edge">
<title>Node2&#45;&gt;Node68</title>
<path fill="none" stroke="midnightblue" d="M1544.32,-344.27C1720.15,-341.32 2341.03,-329.04 2536.5,-300 2539.35,-299.58 2542.31,-299.01 2545.25,-298.38"/>
<polygon fill="midnightblue" stroke="midnightblue" points="1544.05,-340.77 1534.1,-344.44 1544.16,-347.77 1544.05,-340.77"/>
</g>
<!-- Node70 -->
<g id="node44" class="node">
<title>Node70</title>
<g id="a_node44"><a xlink:href="spec_2std_8h.html" target="_top" xlink:title=" ">
<polygon fill="white" stroke="red" points="2616,-280.5 2616,-299.5 2657,-299.5 2657,-280.5 2616,-280.5"/>
<text text-anchor="middle" x="2636.5" y="-287.5" font-family="Helvetica,sans-Serif" font-size="10.00">std.h</text>
</a>
</g>
</g>
<!-- Node2&#45;&gt;Node70 -->
<g id="edge54" class="edge">
<title>Node2&#45;&gt;Node70</title>
<path fill="none" stroke="midnightblue" d="M1544.16,-344.66C1727.31,-343.1 2397.24,-335.06 2606.5,-300 2609.5,-299.5 2612.63,-298.78 2615.68,-297.98"/>
<polygon fill="midnightblue" stroke="midnightblue" points="1544.02,-341.16 1534.05,-344.75 1544.08,-348.16 1544.02,-341.16"/>
</g>
<!-- Node72 -->
<g id="node45" class="node">
<title>Node72</title>
<g id="a_node45"><a xlink:href="spec_2threshold_8h.html" target="_top" xlink:title=" ">
<polygon fill="white" stroke="red" points="2675,-280.5 2675,-299.5 2746,-299.5 2746,-280.5 2675,-280.5"/>
<text text-anchor="middle" x="2710.5" y="-287.5" font-family="Helvetica,sans-Serif" font-size="10.00">threshold.h</text>
</a>
</g>
</g>
<!-- Node2&#45;&gt;Node72 -->
<g id="edge55" class="edge">
<title>Node2&#45;&gt;Node72</title>
<path fill="none" stroke="midnightblue" d="M1544.4,-344.22C1733.92,-340.9 2443.62,-326.9 2666.5,-300 2669.13,-299.68 2671.84,-299.29 2674.56,-298.85"/>
<polygon fill="midnightblue" stroke="midnightblue" points="1544.16,-340.72 1534.22,-344.39 1544.28,-347.72 1544.16,-340.72"/>
</g>
<!-- Node74 -->
<g id="node46" class="node">
<title>Node74</title>
<g id="a_node46"><a xlink:href="spec_2thrmask_8h.html" target="_top" xlink:title=" ">
<polygon fill="white" stroke="red" points="2764.5,-280.5 2764.5,-299.5 2830.5,-299.5 2830.5,-280.5 2764.5,-280.5"/>
<text text-anchor="middle" x="2797.5" y="-287.5" font-family="Helvetica,sans-Serif" font-size="10.00">thrmask.h</text>
</a>
</g>
</g>
<!-- Node2&#45;&gt;Node74 -->
<g id="edge56" class="edge">
<title>Node2&#45;&gt;Node74</title>
<path fill="none" stroke="midnightblue" d="M1544.37,-344.42C1742.78,-341.82 2514.33,-329.92 2755.5,-300 2758.31,-299.65 2761.21,-299.21 2764.12,-298.71"/>
<polygon fill="midnightblue" stroke="midnightblue" points="1544.23,-340.93 1534.28,-344.56 1544.32,-347.92 1544.23,-340.93"/>
</g>
<!-- Node76 -->
<g id="node47" class="node">
<title>Node76</title>
<g id="a_node47"><a xlink:href="system__info_8h.html" target="_top" xlink:title=" ">
<polygon fill="white" stroke="black" points="2848.5,-280.5 2848.5,-299.5 2934.5,-299.5 2934.5,-280.5 2848.5,-280.5"/>
<text text-anchor="middle" x="2891.5" y="-287.5" font-family="Helvetica,sans-Serif" font-size="10.00">system_info.h</text>
</a>
</g>
</g>
<!-- Node2&#45;&gt;Node76 -->
<g id="edge58" class="edge">
<title>Node2&#45;&gt;Node76</title>
<path fill="none" stroke="midnightblue" d="M1544.4,-344.3C1750.9,-341.06 2580.37,-326.64 2839.5,-300 2842.42,-299.7 2845.42,-299.33 2848.43,-298.92"/>
<polygon fill="midnightblue" stroke="midnightblue" points="1544.14,-340.8 1534.2,-344.45 1544.25,-347.8 1544.14,-340.8"/>
</g>
<!-- Node77 -->
<g id="node48" class="node">
<title>Node77</title>
<g id="a_node48"><a xlink:href="time_8h.html" target="_top" xlink:title=" ">
<polygon fill="white" stroke="red" points="1298.5,-280.5 1298.5,-299.5 1346.5,-299.5 1346.5,-280.5 1298.5,-280.5"/>
<text text-anchor="middle" x="1322.5" y="-287.5" font-family="Helvetica,sans-Serif" font-size="10.00">time.h</text>
</a>
</g>
</g>
<!-- Node2&#45;&gt;Node77 -->
<g id="edge59" class="edge">
<title>Node2&#45;&gt;Node77</title>
<path fill="none" stroke="midnightblue" d="M1460.11,-333.46C1425.82,-322.88 1376.06,-307.53 1346.72,-298.47"/>
<polygon fill="midnightblue" stroke="midnightblue" points="1459.18,-336.84 1469.77,-336.44 1461.25,-330.15 1459.18,-336.84"/>
</g>
<!-- Node78 -->
<g id="node49" class="node">
<title>Node78</title>
<g id="a_node49"><a xlink:href="timer_8h.html" target="_top" xlink:title=" ">
<polygon fill="white" stroke="black" points="2953,-280.5 2953,-299.5 3004,-299.5 3004,-280.5 2953,-280.5"/>
<text text-anchor="middle" x="2978.5" y="-287.5" font-family="Helvetica,sans-Serif" font-size="10.00">timer.h</text>
</a>
</g>
</g>
<!-- Node2&#45;&gt;Node78 -->
<g id="edge61" class="edge">
<title>Node2&#45;&gt;Node78</title>
<path fill="none" stroke="midnightblue" d="M1544.19,-344.93C1760.21,-344.4 2663.99,-339.79 2943.5,-300 2946.48,-299.58 2949.58,-298.99 2952.63,-298.33"/>
<polygon fill="midnightblue" stroke="midnightblue" points="1544.13,-341.43 1534.14,-344.95 1544.15,-348.43 1544.13,-341.43"/>
</g>
<!-- Node79 -->
<g id="node50" class="node">
<title>Node79</title>
<g id="a_node50"><a xlink:href="strong__types_8h.html" target="_top" xlink:title=" ">
<polygon fill="white" stroke="black" points="3022,-280.5 3022,-299.5 3111,-299.5 3111,-280.5 3022,-280.5"/>
<text text-anchor="middle" x="3066.5" y="-287.5" font-family="Helvetica,sans-Serif" font-size="10.00">strong_types.h</text>
</a>
</g>
</g>
<!-- Node2&#45;&gt;Node79 -->
<g id="edge62" class="edge">
<title>Node2&#45;&gt;Node79</title>
<path fill="none" stroke="midnightblue" d="M1544.22,-344.49C1766.44,-341.91 2718.01,-329.33 3013.5,-300 3016.19,-299.73 3018.96,-299.41 3021.74,-299.05"/>
<polygon fill="midnightblue" stroke="midnightblue" points="1544.15,-340.99 1534.19,-344.6 1544.23,-347.99 1544.15,-340.99"/>
</g>
<!-- Node16&#45;&gt;Node17 -->
<g id="edge16" class="edge">
<title>Node16&#45;&gt;Node17</title>
<path fill="none" stroke="midnightblue" d="M1273.12,-47.57C1279.32,-38.27 1286.67,-27.25 1291.67,-19.75"/>
<polygon fill="midnightblue" stroke="midnightblue" points="1270.08,-45.82 1267.44,-56.08 1275.9,-49.7 1270.08,-45.82"/>
</g>
<!-- Node19&#45;&gt;Node17 -->
<g id="edge18" class="edge">
<title>Node19&#45;&gt;Node17</title>
<path fill="none" stroke="midnightblue" d="M1665.3,-164.41C1587.89,-132.12 1383.84,-47.01 1318.18,-19.62"/>
<polygon fill="midnightblue" stroke="midnightblue" points="1664.36,-167.81 1674.94,-168.42 1667.06,-161.34 1664.36,-167.81"/>
</g>
<!-- Node20&#45;&gt;Node21 -->
<g id="edge20" class="edge">
<title>Node20&#45;&gt;Node21</title>
<path fill="none" stroke="midnightblue" d="M1462.04,-270.69C1458.33,-261.59 1454.02,-251.01 1451.07,-243.75"/>
<polygon fill="midnightblue" stroke="midnightblue" points="1458.85,-272.14 1465.87,-280.08 1465.34,-269.5 1458.85,-272.14"/>
</g>
<!-- Node20&#45;&gt;Node23 -->
<g id="edge22" class="edge">
<title>Node20&#45;&gt;Node23</title>
<path fill="none" stroke="midnightblue" d="M1508.84,-279.69C1547.08,-270.63 1606.79,-256.44 1658.5,-244 1661.33,-243.32 1664.28,-242.61 1667.22,-241.89"/>
<polygon fill="midnightblue" stroke="midnightblue" points="1507.57,-276.4 1498.65,-282.11 1509.19,-283.21 1507.57,-276.4"/>
</g>
<!-- Node24 -->
<g id="node23" class="node">
<title>Node24</title>
<g id="a_node23"><a xlink:href="spec_2event_8h.html" target="_top" xlink:title=" ">
<polygon fill="white" stroke="red" points="1492,-224.5 1492,-243.5 1545,-243.5 1545,-224.5 1492,-224.5"/>
<text text-anchor="middle" x="1518.5" y="-231.5" font-family="Helvetica,sans-Serif" font-size="10.00">event.h</text>
</a>
</g>
</g>
<!-- Node20&#45;&gt;Node24 -->
<g id="edge24" class="edge">
<title>Node20&#45;&gt;Node24</title>
<path fill="none" stroke="midnightblue" d="M1484.53,-272.43C1493.12,-262.97 1503.54,-251.48 1510.56,-243.75"/>
<polygon fill="midnightblue" stroke="midnightblue" points="1481.72,-270.33 1477.59,-280.08 1486.9,-275.03 1481.72,-270.33"/>
</g>
<!-- Node20&#45;&gt;Node37 -->
<g id="edge25" class="edge">
<title>Node20&#45;&gt;Node37</title>
<path fill="none" stroke="midnightblue" d="M1500.52,-276.77C1526.26,-266.63 1562.19,-252.47 1584.89,-243.52"/>
<polygon fill="midnightblue" stroke="midnightblue" points="1499.23,-273.52 1491.21,-280.44 1501.79,-280.03 1499.23,-273.52"/>
</g>
<!-- Node30 -->
<g id="node25" class="node">
<title>Node30</title>
<g id="a_node25"><a xlink:href="spec_2packet__io_8h.html" target="_top" xlink:title=" ">
<polygon fill="white" stroke="black" points="1292.5,-224.5 1292.5,-243.5 1364.5,-243.5 1364.5,-224.5 1292.5,-224.5"/>
<text text-anchor="middle" x="1328.5" y="-231.5" font-family="Helvetica,sans-Serif" font-size="10.00">packet_io.h</text>
</a>
</g>
</g>
<!-- Node20&#45;&gt;Node30 -->
<g id="edge26" class="edge">
<title>Node20&#45;&gt;Node30</title>
<path fill="none" stroke="midnightblue" d="M1437.57,-276.77C1411.09,-266.63 1374.11,-252.47 1350.74,-243.52"/>
<polygon fill="midnightblue" stroke="midnightblue" points="1436.57,-280.14 1447.16,-280.44 1439.07,-273.6 1436.57,-280.14"/>
</g>
<!-- Node22 -->
<g id="node21" class="node">
<title>Node22</title>
<g id="a_node21"><a xlink:href="comp_8h.html" target="_top" xlink:title=" ">
<polygon fill="white" stroke="black" points="1421,-168.5 1421,-187.5 1474,-187.5 1474,-168.5 1421,-168.5"/>
<text text-anchor="middle" x="1447.5" y="-175.5" font-family="Helvetica,sans-Serif" font-size="10.00">comp.h</text>
</a>
</g>
</g>
<!-- Node21&#45;&gt;Node22 -->
<g id="edge21" class="edge">
<title>Node21&#45;&gt;Node22</title>
<path fill="none" stroke="midnightblue" d="M1447.5,-213.8C1447.5,-204.91 1447.5,-194.78 1447.5,-187.75"/>
<polygon fill="midnightblue" stroke="midnightblue" points="1444,-214.08 1447.5,-224.08 1451,-214.08 1444,-214.08"/>
</g>
<!-- Node23&#45;&gt;Node19 -->
<g id="edge23" class="edge">
<title>Node23&#45;&gt;Node19</title>
<path fill="none" stroke="midnightblue" d="M1695.5,-213.8C1695.5,-204.91 1695.5,-194.78 1695.5,-187.75"/>
<polygon fill="midnightblue" stroke="midnightblue" points="1692,-214.08 1695.5,-224.08 1699,-214.08 1692,-214.08"/>
</g>
<!-- Node30&#45;&gt;Node31 -->
<g id="edge27" class="edge">
<title>Node30&#45;&gt;Node31</title>
<path fill="none" stroke="midnightblue" d="M1328.5,-213.8C1328.5,-204.91 1328.5,-194.78 1328.5,-187.75"/>
<polygon fill="midnightblue" stroke="midnightblue" points="1325,-214.08 1328.5,-224.08 1332,-214.08 1325,-214.08"/>
</g>
<!-- Node31&#45;&gt;Node17 -->
<g id="edge30" class="edge">
<title>Node31&#45;&gt;Node17</title>
<path fill="none" stroke="midnightblue" d="M1327.76,-158.19C1326.48,-134.18 1323.12,-91.5 1314.5,-56 1311.35,-43.02 1305.49,-28.68 1301.55,-19.76"/>
<polygon fill="midnightblue" stroke="midnightblue" points="1324.27,-158.54 1328.23,-168.36 1331.26,-158.21 1324.27,-158.54"/>
</g>
<!-- Node31&#45;&gt;Node32 -->
<g id="edge28" class="edge">
<title>Node31&#45;&gt;Node32</title>
<path fill="none" stroke="midnightblue" d="M1309.67,-161.82C1297.66,-152.15 1282.53,-139.95 1272.46,-131.83"/>
<polygon fill="midnightblue" stroke="midnightblue" points="1307.75,-164.77 1317.74,-168.32 1312.15,-159.32 1307.75,-164.77"/>
</g>
<!-- Node31&#45;&gt;Node33 -->
<g id="edge31" class="edge">
<title>Node31&#45;&gt;Node33</title>
<path fill="none" stroke="midnightblue" d="M1349.08,-162.38C1362.81,-152.62 1380.43,-140.11 1392.07,-131.83"/>
<polygon fill="midnightblue" stroke="midnightblue" points="1346.84,-159.68 1340.71,-168.32 1350.89,-165.38 1346.84,-159.68"/>
</g>
<!-- Node32&#45;&gt;Node16 -->
<g id="edge29" class="edge">
<title>Node32&#45;&gt;Node16</title>
<path fill="none" stroke="midnightblue" d="M1261.5,-101.8C1261.5,-92.91 1261.5,-82.78 1261.5,-75.75"/>
<polygon fill="midnightblue" stroke="midnightblue" points="1258,-102.08 1261.5,-112.08 1265,-102.08 1258,-102.08"/>
</g>
<!-- Node28 -->
<g id="node31" class="node">
<title>Node28</title>
<g id="a_node31"><a xlink:href="spec_2packet__io__stats_8h.html" target="_top" xlink:title=" ">
<polygon fill="white" stroke="red" points="1780,-224.5 1780,-243.5 1881,-243.5 1881,-224.5 1780,-224.5"/>
<text text-anchor="middle" x="1830.5" y="-231.5" font-family="Helvetica,sans-Serif" font-size="10.00">packet_io_stats.h</text>
</a>
</g>
</g>
<!-- Node27&#45;&gt;Node28 -->
<g id="edge35" class="edge">
<title>Node27&#45;&gt;Node28</title>
<path fill="none" stroke="midnightblue" d="M1776.53,-274.38C1789.91,-264.62 1807.06,-252.11 1818.39,-243.83"/>
<polygon fill="midnightblue" stroke="midnightblue" points="1774.4,-271.6 1768.39,-280.32 1778.53,-277.26 1774.4,-271.6"/>
</g>
<!-- Node41 -->
<g id="node33" class="node">
<title>Node41</title>
<g id="a_node33"><a xlink:href="chksum_8h.html" target="_top" xlink:title=" ">
<polygon fill="white" stroke="black" points="1899.5,-224.5 1899.5,-243.5 1963.5,-243.5 1963.5,-224.5 1899.5,-224.5"/>
<text text-anchor="middle" x="1931.5" y="-231.5" font-family="Helvetica,sans-Serif" font-size="10.00">chksum.h</text>
</a>
</g>
</g>
<!-- Node40&#45;&gt;Node41 -->
<g id="edge37" class="edge">
<title>Node40&#45;&gt;Node41</title>
<path fill="none" stroke="midnightblue" d="M1858.84,-275.45C1876.74,-265.48 1900.55,-252.23 1915.95,-243.65"/>
<polygon fill="midnightblue" stroke="midnightblue" points="1857.12,-272.4 1850.08,-280.32 1860.52,-278.52 1857.12,-272.4"/>
</g>
<!-- Node43 -->
<g id="node35" class="node">
<title>Node43</title>
<g id="a_node35"><a xlink:href="cpu_8h.html" target="_top" xlink:title=" ">
<polygon fill="white" stroke="red" points="1982,-224.5 1982,-243.5 2025,-243.5 2025,-224.5 1982,-224.5"/>
<text text-anchor="middle" x="2003.5" y="-231.5" font-family="Helvetica,sans-Serif" font-size="10.00">cpu.h</text>
</a>
</g>
</g>
<!-- Node42&#45;&gt;Node43 -->
<g id="edge41" class="edge">
<title>Node42&#45;&gt;Node43</title>
<path fill="none" stroke="midnightblue" d="M1930.84,-275.45C1948.74,-265.48 1972.55,-252.23 1987.95,-243.65"/>
<polygon fill="midnightblue" stroke="midnightblue" points="1929.12,-272.4 1922.08,-280.32 1932.52,-278.52 1929.12,-272.4"/>
</g>
<!-- Node55&#45;&gt;Node52 -->
<g id="edge49" class="edge">
<title>Node55&#45;&gt;Node52</title>
<path fill="none" stroke="midnightblue" d="M2139.52,-271.57C2133.67,-262.27 2126.73,-251.25 2122.01,-243.75"/>
<polygon fill="midnightblue" stroke="midnightblue" points="2136.6,-273.49 2144.89,-280.08 2142.52,-269.76 2136.6,-273.49"/>
</g>
<!-- Node77&#45;&gt;Node30 -->
<g id="edge60" class="edge">
<title>Node77&#45;&gt;Node30</title>
<path fill="none" stroke="midnightblue" d="M1324.6,-270.1C1325.6,-261.14 1326.74,-250.86 1327.53,-243.75"/>
<polygon fill="midnightblue" stroke="midnightblue" points="1321.12,-269.76 1323.49,-280.08 1328.07,-270.53 1321.12,-269.76"/>
</g>
</g>
</svg>
