<?xml version="1.0" encoding="UTF-8" standalone="no"?>
<!DOCTYPE svg PUBLIC "-//W3C//DTD SVG 1.1//EN"
 "http://www.w3.org/Graphics/SVG/1.1/DTD/svg11.dtd">
<!-- Generated by graphviz version 2.43.0 (0)
 -->
<!-- Title: queue_types.h Pages: 1 -->
<svg width="602pt" height="980pt"
 viewBox="0.00 0.00 602.00 980.00" xmlns="http://www.w3.org/2000/svg" xmlns:xlink="http://www.w3.org/1999/xlink">
<g id="graph0" class="graph" transform="scale(1 1) rotate(0) translate(4 976)">
<title>queue_types.h</title>
<polygon fill="white" stroke="transparent" points="-4,4 -4,-976 598,-976 598,4 -4,4"/>
<!-- Node1 -->
<g id="node1" class="node">
<title>Node1</title>
<g id="a_node1"><a xlink:title=" ">
<polygon fill="#bfbfbf" stroke="black" points="364,-952.5 364,-971.5 452,-971.5 452,-952.5 364,-952.5"/>
<text text-anchor="middle" x="408" y="-959.5" font-family="Helvetica,sans-Serif" font-size="10.00">queue_types.h</text>
</a>
</g>
</g>
<!-- Node2 -->
<g id="node2" class="node">
<title>Node2</title>
<g id="a_node2"><a xlink:href="queue__types_8h.html" target="_top" xlink:title=" ">
<polygon fill="white" stroke="black" points="364,-896.5 364,-915.5 452,-915.5 452,-896.5 364,-896.5"/>
<text text-anchor="middle" x="408" y="-903.5" font-family="Helvetica,sans-Serif" font-size="10.00">queue_types.h</text>
</a>
</g>
</g>
<!-- Node1&#45;&gt;Node2 -->
<g id="edge1" class="edge">
<title>Node1&#45;&gt;Node2</title>
<path fill="none" stroke="midnightblue" d="M408,-941.8C408,-932.91 408,-922.78 408,-915.75"/>
<polygon fill="midnightblue" stroke="midnightblue" points="404.5,-942.08 408,-952.08 411.5,-942.08 404.5,-942.08"/>
</g>
<!-- Node3 -->
<g id="node3" class="node">
<title>Node3</title>
<g id="a_node3"><a xlink:href="spec_2packet__io_8h.html" target="_top" xlink:title=" ">
<polygon fill="white" stroke="black" points="251,-280.5 251,-299.5 323,-299.5 323,-280.5 251,-280.5"/>
<text text-anchor="middle" x="287" y="-287.5" font-family="Helvetica,sans-Serif" font-size="10.00">packet_io.h</text>
</a>
</g>
</g>
<!-- Node2&#45;&gt;Node3 -->
<g id="edge2" class="edge">
<title>Node2&#45;&gt;Node3</title>
<path fill="none" stroke="midnightblue" d="M418.14,-887.43C429.4,-866.24 446,-829.19 446,-795 446,-795 446,-795 446,-401 446,-341.59 369.99,-311.75 323.08,-298.99"/>
<polygon fill="midnightblue" stroke="midnightblue" points="415.05,-885.78 413.28,-896.23 421.18,-889.17 415.05,-885.78"/>
</g>
<!-- Node11 -->
<g id="node11" class="node">
<title>Node11</title>
<g id="a_node11"><a xlink:href="spec_2packet__types_8h.html" target="_top" xlink:title=" ">
<polygon fill="white" stroke="black" points="251,-840.5 251,-859.5 341,-859.5 341,-840.5 251,-840.5"/>
<text text-anchor="middle" x="296" y="-847.5" font-family="Helvetica,sans-Serif" font-size="10.00">packet_types.h</text>
</a>
</g>
</g>
<!-- Node2&#45;&gt;Node11 -->
<g id="edge12" class="edge">
<title>Node2&#45;&gt;Node11</title>
<path fill="none" stroke="midnightblue" d="M380.75,-891.86C359.98,-881.85 331.98,-868.35 313.95,-859.65"/>
<polygon fill="midnightblue" stroke="midnightblue" points="379.48,-895.13 390.01,-896.32 382.52,-888.83 379.48,-895.13"/>
</g>
<!-- Node21 -->
<g id="node21" class="node">
<title>Node21</title>
<g id="a_node21"><a xlink:href="spec_2queue_8h.html" target="_top" xlink:title=" ">
<polygon fill="white" stroke="black" points="274,-504.5 274,-523.5 330,-523.5 330,-504.5 274,-504.5"/>
<text text-anchor="middle" x="302" y="-511.5" font-family="Helvetica,sans-Serif" font-size="10.00">queue.h</text>
</a>
</g>
</g>
<!-- Node2&#45;&gt;Node21 -->
<g id="edge34" class="edge">
<title>Node2&#45;&gt;Node21</title>
<path fill="none" stroke="midnightblue" d="M397.86,-887.43C386.6,-866.24 370,-829.19 370,-795 370,-795 370,-795 370,-625 370,-594.9 366.89,-585.56 351,-560 341.61,-544.89 325.79,-531.68 314.67,-523.54"/>
<polygon fill="midnightblue" stroke="midnightblue" points="394.82,-889.17 402.72,-896.23 400.95,-885.78 394.82,-889.17"/>
</g>
<!-- Node25 -->
<g id="node25" class="node">
<title>Node25</title>
<g id="a_node25"><a xlink:href="spec_2schedule_8h.html" target="_top" xlink:title=" ">
<polygon fill="white" stroke="black" points="348.5,-504.5 348.5,-523.5 417.5,-523.5 417.5,-504.5 348.5,-504.5"/>
<text text-anchor="middle" x="383" y="-511.5" font-family="Helvetica,sans-Serif" font-size="10.00">schedule.h</text>
</a>
</g>
</g>
<!-- Node2&#45;&gt;Node25 -->
<g id="edge35" class="edge">
<title>Node2&#45;&gt;Node25</title>
<path fill="none" stroke="midnightblue" d="M408,-886.25C408,-864.36 408,-827.05 408,-795 408,-795 408,-795 408,-625 408,-586.42 393.2,-542.08 386.37,-523.69"/>
<polygon fill="midnightblue" stroke="midnightblue" points="404.5,-886.44 408,-896.44 411.5,-886.44 404.5,-886.44"/>
</g>
<!-- Node30 -->
<g id="node30" class="node">
<title>Node30</title>
<g id="a_node30"><a xlink:href="queue__inline__types_8h_source.html" target="_top" xlink:title=" ">
<polygon fill="white" stroke="black" points="474,-840.5 474,-859.5 594,-859.5 594,-840.5 474,-840.5"/>
<text text-anchor="middle" x="534" y="-847.5" font-family="Helvetica,sans-Serif" font-size="10.00">queue_inline_types.h</text>
</a>
</g>
</g>
<!-- Node2&#45;&gt;Node30 -->
<g id="edge36" class="edge">
<title>Node2&#45;&gt;Node30</title>
<path fill="none" stroke="midnightblue" d="M437.16,-892.5C460.78,-882.38 493.43,-868.39 514.13,-859.52"/>
<polygon fill="midnightblue" stroke="midnightblue" points="435.78,-889.29 427.97,-896.44 438.54,-895.72 435.78,-889.29"/>
</g>
<!-- Node4 -->
<g id="node4" class="node">
<title>Node4</title>
<g id="a_node4"><a xlink:href="packet__io_8h.html" target="_top" xlink:title=" ">
<polygon fill="white" stroke="black" points="231,-224.5 231,-243.5 303,-243.5 303,-224.5 231,-224.5"/>
<text text-anchor="middle" x="267" y="-231.5" font-family="Helvetica,sans-Serif" font-size="10.00">packet_io.h</text>
</a>
</g>
</g>
<!-- Node3&#45;&gt;Node4 -->
<g id="edge3" class="edge">
<title>Node3&#45;&gt;Node4</title>
<path fill="none" stroke="midnightblue" d="M280.22,-270.69C276.85,-261.59 272.93,-251.01 270.24,-243.75"/>
<polygon fill="midnightblue" stroke="midnightblue" points="276.94,-271.92 283.7,-280.08 283.51,-269.49 276.94,-271.92"/>
</g>
<!-- Node5 -->
<g id="node5" class="node">
<title>Node5</title>
<g id="a_node5"><a xlink:href="spec_2classification_8h.html" target="_top" xlink:title=" ">
<polygon fill="white" stroke="black" points="113.5,-168.5 113.5,-187.5 202.5,-187.5 202.5,-168.5 113.5,-168.5"/>
<text text-anchor="middle" x="158" y="-175.5" font-family="Helvetica,sans-Serif" font-size="10.00">classification.h</text>
</a>
</g>
</g>
<!-- Node4&#45;&gt;Node5 -->
<g id="edge4" class="edge">
<title>Node4&#45;&gt;Node5</title>
<path fill="none" stroke="midnightblue" d="M240.48,-219.86C220.27,-209.85 193.01,-196.35 175.47,-187.65"/>
<polygon fill="midnightblue" stroke="midnightblue" points="238.97,-223.02 249.49,-224.32 242.08,-216.75 238.97,-223.02"/>
</g>
<!-- Node7 -->
<g id="node7" class="node">
<title>Node7</title>
<g id="a_node7"><a xlink:href="spec_2ipsec_8h.html" target="_top" xlink:title=" ">
<polygon fill="white" stroke="black" points="184.5,-56.5 184.5,-75.5 235.5,-75.5 235.5,-56.5 184.5,-56.5"/>
<text text-anchor="middle" x="210" y="-63.5" font-family="Helvetica,sans-Serif" font-size="10.00">ipsec.h</text>
</a>
</g>
</g>
<!-- Node4&#45;&gt;Node7 -->
<g id="edge8" class="edge">
<title>Node4&#45;&gt;Node7</title>
<path fill="none" stroke="midnightblue" d="M288.71,-218.07C298.06,-210.31 307.97,-199.95 313,-188 326.1,-156.86 331.5,-140.26 313,-112 296.01,-86.04 260.39,-74.97 235.84,-70.3"/>
<polygon fill="midnightblue" stroke="midnightblue" points="286.56,-215.31 280.79,-224.19 290.84,-220.85 286.56,-215.31"/>
</g>
<!-- Node9 -->
<g id="node9" class="node">
<title>Node9</title>
<g id="a_node9"><a xlink:href="spec_2traffic__mngr_8h.html" target="_top" xlink:title=" ">
<polygon fill="white" stroke="black" points="220,-168.5 220,-187.5 304,-187.5 304,-168.5 220,-168.5"/>
<text text-anchor="middle" x="262" y="-175.5" font-family="Helvetica,sans-Serif" font-size="10.00">traffic_mngr.h</text>
</a>
</g>
</g>
<!-- Node4&#45;&gt;Node9 -->
<g id="edge9" class="edge">
<title>Node4&#45;&gt;Node9</title>
<path fill="none" stroke="midnightblue" d="M265.25,-214.1C264.42,-205.14 263.47,-194.86 262.81,-187.75"/>
<polygon fill="midnightblue" stroke="midnightblue" points="261.77,-214.45 266.17,-224.08 268.74,-213.8 261.77,-214.45"/>
</g>
<!-- Node6 -->
<g id="node6" class="node">
<title>Node6</title>
<g id="a_node6"><a xlink:href="classification_8h.html" target="_top" xlink:title=" ">
<polygon fill="white" stroke="black" points="113.5,-112.5 113.5,-131.5 202.5,-131.5 202.5,-112.5 113.5,-112.5"/>
<text text-anchor="middle" x="158" y="-119.5" font-family="Helvetica,sans-Serif" font-size="10.00">classification.h</text>
</a>
</g>
</g>
<!-- Node5&#45;&gt;Node6 -->
<g id="edge5" class="edge">
<title>Node5&#45;&gt;Node6</title>
<path fill="none" stroke="midnightblue" d="M158,-157.8C158,-148.91 158,-138.78 158,-131.75"/>
<polygon fill="midnightblue" stroke="midnightblue" points="154.5,-158.08 158,-168.08 161.5,-158.08 154.5,-158.08"/>
</g>
<!-- Node6&#45;&gt;Node7 -->
<g id="edge6" class="edge">
<title>Node6&#45;&gt;Node7</title>
<path fill="none" stroke="midnightblue" d="M173.68,-104.72C182.84,-95.2 194.05,-83.56 201.57,-75.75"/>
<polygon fill="midnightblue" stroke="midnightblue" points="171,-102.45 166.59,-112.08 176.04,-107.31 171,-102.45"/>
</g>
<!-- Node8 -->
<g id="node8" class="node">
<title>Node8</title>
<g id="a_node8"><a xlink:href="ipsec_8h.html" target="_top" xlink:title=" ">
<polygon fill="white" stroke="black" points="184.5,-0.5 184.5,-19.5 235.5,-19.5 235.5,-0.5 184.5,-0.5"/>
<text text-anchor="middle" x="210" y="-7.5" font-family="Helvetica,sans-Serif" font-size="10.00">ipsec.h</text>
</a>
</g>
</g>
<!-- Node7&#45;&gt;Node8 -->
<g id="edge7" class="edge">
<title>Node7&#45;&gt;Node8</title>
<path fill="none" stroke="midnightblue" d="M210,-45.8C210,-36.91 210,-26.78 210,-19.75"/>
<polygon fill="midnightblue" stroke="midnightblue" points="206.5,-46.08 210,-56.08 213.5,-46.08 206.5,-46.08"/>
</g>
<!-- Node10 -->
<g id="node10" class="node">
<title>Node10</title>
<g id="a_node10"><a xlink:href="traffic__mngr_8h.html" target="_top" xlink:title=" ">
<polygon fill="white" stroke="black" points="220,-112.5 220,-131.5 304,-131.5 304,-112.5 220,-112.5"/>
<text text-anchor="middle" x="262" y="-119.5" font-family="Helvetica,sans-Serif" font-size="10.00">traffic_mngr.h</text>
</a>
</g>
</g>
<!-- Node9&#45;&gt;Node10 -->
<g id="edge10" class="edge">
<title>Node9&#45;&gt;Node10</title>
<path fill="none" stroke="midnightblue" d="M262,-157.8C262,-148.91 262,-138.78 262,-131.75"/>
<polygon fill="midnightblue" stroke="midnightblue" points="258.5,-158.08 262,-168.08 265.5,-158.08 258.5,-158.08"/>
</g>
<!-- Node10&#45;&gt;Node7 -->
<g id="edge11" class="edge">
<title>Node10&#45;&gt;Node7</title>
<path fill="none" stroke="midnightblue" d="M246.32,-104.72C237.16,-95.2 225.95,-83.56 218.43,-75.75"/>
<polygon fill="midnightblue" stroke="midnightblue" points="243.96,-107.31 253.41,-112.08 249,-102.45 243.96,-107.31"/>
</g>
<!-- Node12 -->
<g id="node12" class="node">
<title>Node12</title>
<g id="a_node12"><a xlink:href="packet__types_8h.html" target="_top" xlink:title=" ">
<polygon fill="white" stroke="black" points="242,-784.5 242,-803.5 332,-803.5 332,-784.5 242,-784.5"/>
<text text-anchor="middle" x="287" y="-791.5" font-family="Helvetica,sans-Serif" font-size="10.00">packet_types.h</text>
</a>
</g>
</g>
<!-- Node11&#45;&gt;Node12 -->
<g id="edge13" class="edge">
<title>Node11&#45;&gt;Node12</title>
<path fill="none" stroke="midnightblue" d="M292.85,-830.1C291.36,-821.14 289.64,-810.86 288.46,-803.75"/>
<polygon fill="midnightblue" stroke="midnightblue" points="289.42,-830.79 294.51,-840.08 296.32,-829.64 289.42,-830.79"/>
</g>
<!-- Node13 -->
<g id="node13" class="node">
<title>Node13</title>
<g id="a_node13"><a xlink:href="spec_2packet_8h.html" target="_top" xlink:title=" ">
<polygon fill="white" stroke="black" points="148,-728.5 148,-747.5 206,-747.5 206,-728.5 148,-728.5"/>
<text text-anchor="middle" x="177" y="-735.5" font-family="Helvetica,sans-Serif" font-size="10.00">packet.h</text>
</a>
</g>
</g>
<!-- Node12&#45;&gt;Node13 -->
<g id="edge14" class="edge">
<title>Node12&#45;&gt;Node13</title>
<path fill="none" stroke="midnightblue" d="M260.24,-779.86C239.84,-769.85 212.33,-756.35 194.63,-747.65"/>
<polygon fill="midnightblue" stroke="midnightblue" points="258.81,-783.06 269.33,-784.32 261.89,-776.78 258.81,-783.06"/>
</g>
<!-- Node29 -->
<g id="node29" class="node">
<title>Node29</title>
<g id="a_node29"><a xlink:href="packet__inlines_8h.html" target="_top" xlink:title=" ">
<polygon fill="white" stroke="black" points="239.5,-728.5 239.5,-747.5 334.5,-747.5 334.5,-728.5 239.5,-728.5"/>
<text text-anchor="middle" x="287" y="-735.5" font-family="Helvetica,sans-Serif" font-size="10.00">packet_inlines.h</text>
</a>
</g>
</g>
<!-- Node12&#45;&gt;Node29 -->
<g id="edge33" class="edge">
<title>Node12&#45;&gt;Node29</title>
<path fill="none" stroke="midnightblue" d="M287,-773.8C287,-764.91 287,-754.78 287,-747.75"/>
<polygon fill="midnightblue" stroke="midnightblue" points="283.5,-774.08 287,-784.08 290.5,-774.08 283.5,-774.08"/>
</g>
<!-- Node14 -->
<g id="node14" class="node">
<title>Node14</title>
<g id="a_node14"><a xlink:href="packet_8h.html" target="_top" xlink:title=" ">
<polygon fill="white" stroke="black" points="140,-672.5 140,-691.5 198,-691.5 198,-672.5 140,-672.5"/>
<text text-anchor="middle" x="169" y="-679.5" font-family="Helvetica,sans-Serif" font-size="10.00">packet.h</text>
</a>
</g>
</g>
<!-- Node13&#45;&gt;Node14 -->
<g id="edge15" class="edge">
<title>Node13&#45;&gt;Node14</title>
<path fill="none" stroke="midnightblue" d="M174.2,-718.1C172.87,-709.14 171.35,-698.86 170.3,-691.75"/>
<polygon fill="midnightblue" stroke="midnightblue" points="170.75,-718.7 175.68,-728.08 177.68,-717.68 170.75,-718.7"/>
</g>
<!-- Node14&#45;&gt;Node3 -->
<g id="edge32" class="edge">
<title>Node14&#45;&gt;Node3</title>
<path fill="none" stroke="midnightblue" d="M141.01,-667.69C127.75,-660.09 112.74,-649.4 103,-636 85.31,-611.65 84,-601.1 84,-571 84,-571 84,-571 84,-401 84,-326.04 192.32,-301.9 250.71,-294.33"/>
<polygon fill="midnightblue" stroke="midnightblue" points="139.35,-670.77 149.81,-672.44 142.68,-664.61 139.35,-670.77"/>
</g>
<!-- Node15 -->
<g id="node15" class="node">
<title>Node15</title>
<g id="a_node15"><a xlink:href="spec_2comp_8h.html" target="_top" xlink:title=" ">
<polygon fill="white" stroke="black" points="112.5,-616.5 112.5,-635.5 165.5,-635.5 165.5,-616.5 112.5,-616.5"/>
<text text-anchor="middle" x="139" y="-623.5" font-family="Helvetica,sans-Serif" font-size="10.00">comp.h</text>
</a>
</g>
</g>
<!-- Node14&#45;&gt;Node15 -->
<g id="edge16" class="edge">
<title>Node14&#45;&gt;Node15</title>
<path fill="none" stroke="midnightblue" d="M159.15,-663.27C154.03,-654.05 147.98,-643.17 143.86,-635.75"/>
<polygon fill="midnightblue" stroke="midnightblue" points="156.13,-665.04 164.05,-672.08 162.25,-661.64 156.13,-665.04"/>
</g>
<!-- Node17 -->
<g id="node17" class="node">
<title>Node17</title>
<g id="a_node17"><a xlink:href="spec_2crypto_8h.html" target="_top" xlink:title=" ">
<polygon fill="white" stroke="black" points="0,-616.5 0,-635.5 56,-635.5 56,-616.5 0,-616.5"/>
<text text-anchor="middle" x="28" y="-623.5" font-family="Helvetica,sans-Serif" font-size="10.00">crypto.h</text>
</a>
</g>
</g>
<!-- Node14&#45;&gt;Node17 -->
<g id="edge18" class="edge">
<title>Node14&#45;&gt;Node17</title>
<path fill="none" stroke="midnightblue" d="M137.07,-668.77C110.59,-658.63 73.61,-644.47 50.24,-635.52"/>
<polygon fill="midnightblue" stroke="midnightblue" points="136.07,-672.14 146.66,-672.44 138.57,-665.6 136.07,-672.14"/>
</g>
<!-- Node19 -->
<g id="node19" class="node">
<title>Node19</title>
<g id="a_node19"><a xlink:href="spec_2event_8h.html" target="_top" xlink:title=" ">
<polygon fill="white" stroke="black" points="288.5,-616.5 288.5,-635.5 341.5,-635.5 341.5,-616.5 288.5,-616.5"/>
<text text-anchor="middle" x="315" y="-623.5" font-family="Helvetica,sans-Serif" font-size="10.00">event.h</text>
</a>
</g>
</g>
<!-- Node14&#45;&gt;Node19 -->
<g id="edge21" class="edge">
<title>Node14&#45;&gt;Node19</title>
<path fill="none" stroke="midnightblue" d="M201.7,-668.91C229.15,-658.75 267.67,-644.51 291.97,-635.52"/>
<polygon fill="midnightblue" stroke="midnightblue" points="200.3,-665.69 192.13,-672.44 202.73,-672.26 200.3,-665.69"/>
</g>
<!-- Node27 -->
<g id="node27" class="node">
<title>Node27</title>
<g id="a_node27"><a xlink:href="spec_2packet__flags_8h.html" target="_top" xlink:title=" ">
<polygon fill="white" stroke="black" points="184,-616.5 184,-635.5 270,-635.5 270,-616.5 184,-616.5"/>
<text text-anchor="middle" x="227" y="-623.5" font-family="Helvetica,sans-Serif" font-size="10.00">packet_flags.h</text>
</a>
</g>
</g>
<!-- Node14&#45;&gt;Node27 -->
<g id="edge30" class="edge">
<title>Node14&#45;&gt;Node27</title>
<path fill="none" stroke="midnightblue" d="M185.91,-665.25C196.2,-655.67 208.97,-643.79 217.51,-635.83"/>
<polygon fill="midnightblue" stroke="midnightblue" points="183.25,-662.95 178.32,-672.32 188.02,-668.07 183.25,-662.95"/>
</g>
<!-- Node16 -->
<g id="node16" class="node">
<title>Node16</title>
<g id="a_node16"><a xlink:href="comp_8h.html" target="_top" xlink:title=" ">
<polygon fill="white" stroke="black" points="112.5,-560.5 112.5,-579.5 165.5,-579.5 165.5,-560.5 112.5,-560.5"/>
<text text-anchor="middle" x="139" y="-567.5" font-family="Helvetica,sans-Serif" font-size="10.00">comp.h</text>
</a>
</g>
</g>
<!-- Node15&#45;&gt;Node16 -->
<g id="edge17" class="edge">
<title>Node15&#45;&gt;Node16</title>
<path fill="none" stroke="midnightblue" d="M139,-605.8C139,-596.91 139,-586.78 139,-579.75"/>
<polygon fill="midnightblue" stroke="midnightblue" points="135.5,-606.08 139,-616.08 142.5,-606.08 135.5,-606.08"/>
</g>
<!-- Node18 -->
<g id="node18" class="node">
<title>Node18</title>
<g id="a_node18"><a xlink:href="crypto_8h.html" target="_top" xlink:title=" ">
<polygon fill="white" stroke="black" points="0,-392.5 0,-411.5 56,-411.5 56,-392.5 0,-392.5"/>
<text text-anchor="middle" x="28" y="-399.5" font-family="Helvetica,sans-Serif" font-size="10.00">crypto.h</text>
</a>
</g>
</g>
<!-- Node17&#45;&gt;Node18 -->
<g id="edge19" class="edge">
<title>Node17&#45;&gt;Node18</title>
<path fill="none" stroke="midnightblue" d="M28,-606.3C28,-560.64 28,-444.85 28,-411.88"/>
<polygon fill="midnightblue" stroke="midnightblue" points="24.5,-606.3 28,-616.3 31.5,-606.3 24.5,-606.3"/>
</g>
<!-- Node18&#45;&gt;Node7 -->
<g id="edge20" class="edge">
<title>Node18&#45;&gt;Node7</title>
<path fill="none" stroke="midnightblue" d="M30.47,-382.29C33.13,-360.43 37,-323.16 37,-291 37,-291 37,-291 37,-177 37,-107.95 136.35,-80.38 184.47,-71.08"/>
<polygon fill="midnightblue" stroke="midnightblue" points="26.96,-382.1 29.18,-392.46 33.91,-382.98 26.96,-382.1"/>
</g>
<!-- Node20 -->
<g id="node20" class="node">
<title>Node20</title>
<g id="a_node20"><a xlink:href="event_8h.html" target="_top" xlink:title=" ">
<polygon fill="white" stroke="black" points="288.5,-560.5 288.5,-579.5 341.5,-579.5 341.5,-560.5 288.5,-560.5"/>
<text text-anchor="middle" x="315" y="-567.5" font-family="Helvetica,sans-Serif" font-size="10.00">event.h</text>
</a>
</g>
</g>
<!-- Node19&#45;&gt;Node20 -->
<g id="edge22" class="edge">
<title>Node19&#45;&gt;Node20</title>
<path fill="none" stroke="midnightblue" d="M315,-605.8C315,-596.91 315,-586.78 315,-579.75"/>
<polygon fill="midnightblue" stroke="midnightblue" points="311.5,-606.08 315,-616.08 318.5,-606.08 311.5,-606.08"/>
</g>
<!-- Node20&#45;&gt;Node21 -->
<g id="edge23" class="edge">
<title>Node20&#45;&gt;Node21</title>
<path fill="none" stroke="midnightblue" d="M310.45,-550.1C308.29,-541.14 305.82,-530.86 304.11,-523.75"/>
<polygon fill="midnightblue" stroke="midnightblue" points="307.11,-551.18 312.85,-560.08 313.92,-549.54 307.11,-551.18"/>
</g>
<!-- Node20&#45;&gt;Node25 -->
<g id="edge28" class="edge">
<title>Node20&#45;&gt;Node25</title>
<path fill="none" stroke="midnightblue" d="M333.76,-554.1C346,-544.38 361.56,-532.03 371.88,-523.83"/>
<polygon fill="midnightblue" stroke="midnightblue" points="331.58,-551.36 325.93,-560.32 335.93,-556.85 331.58,-551.36"/>
</g>
<!-- Node22 -->
<g id="node22" class="node">
<title>Node22</title>
<g id="a_node22"><a xlink:href="queue_8h.html" target="_top" xlink:title=" ">
<polygon fill="white" stroke="black" points="272,-448.5 272,-467.5 328,-467.5 328,-448.5 272,-448.5"/>
<text text-anchor="middle" x="300" y="-455.5" font-family="Helvetica,sans-Serif" font-size="10.00">queue.h</text>
</a>
</g>
</g>
<!-- Node21&#45;&gt;Node22 -->
<g id="edge24" class="edge">
<title>Node21&#45;&gt;Node22</title>
<path fill="none" stroke="midnightblue" d="M301.29,-493.8C300.96,-484.91 300.58,-474.78 300.32,-467.75"/>
<polygon fill="midnightblue" stroke="midnightblue" points="297.8,-494.22 301.67,-504.08 304.8,-493.96 297.8,-494.22"/>
</g>
<!-- Node23 -->
<g id="node23" class="node">
<title>Node23</title>
<g id="a_node23"><a xlink:href="spec_2packet__io__stats_8h.html" target="_top" xlink:title=" ">
<polygon fill="white" stroke="black" points="248.5,-392.5 248.5,-411.5 349.5,-411.5 349.5,-392.5 248.5,-392.5"/>
<text text-anchor="middle" x="299" y="-399.5" font-family="Helvetica,sans-Serif" font-size="10.00">packet_io_stats.h</text>
</a>
</g>
</g>
<!-- Node22&#45;&gt;Node23 -->
<g id="edge25" class="edge">
<title>Node22&#45;&gt;Node23</title>
<path fill="none" stroke="midnightblue" d="M299.64,-437.8C299.48,-428.91 299.29,-418.78 299.16,-411.75"/>
<polygon fill="midnightblue" stroke="midnightblue" points="296.15,-438.15 299.83,-448.08 303.15,-438.02 296.15,-438.15"/>
</g>
<!-- Node24 -->
<g id="node24" class="node">
<title>Node24</title>
<g id="a_node24"><a xlink:href="packet__io__stats_8h.html" target="_top" xlink:title=" ">
<polygon fill="white" stroke="black" points="246.5,-336.5 246.5,-355.5 347.5,-355.5 347.5,-336.5 246.5,-336.5"/>
<text text-anchor="middle" x="297" y="-343.5" font-family="Helvetica,sans-Serif" font-size="10.00">packet_io_stats.h</text>
</a>
</g>
</g>
<!-- Node23&#45;&gt;Node24 -->
<g id="edge26" class="edge">
<title>Node23&#45;&gt;Node24</title>
<path fill="none" stroke="midnightblue" d="M298.29,-381.8C297.96,-372.91 297.58,-362.78 297.32,-355.75"/>
<polygon fill="midnightblue" stroke="midnightblue" points="294.8,-382.22 298.67,-392.08 301.8,-381.96 294.8,-382.22"/>
</g>
<!-- Node24&#45;&gt;Node3 -->
<g id="edge27" class="edge">
<title>Node24&#45;&gt;Node3</title>
<path fill="none" stroke="midnightblue" d="M293.5,-326.1C291.84,-317.14 289.94,-306.86 288.62,-299.75"/>
<polygon fill="midnightblue" stroke="midnightblue" points="290.09,-326.89 295.35,-336.08 296.97,-325.61 290.09,-326.89"/>
</g>
<!-- Node26 -->
<g id="node26" class="node">
<title>Node26</title>
<g id="a_node26"><a xlink:href="schedule_8h.html" target="_top" xlink:title=" ">
<polygon fill="white" stroke="black" points="348.5,-448.5 348.5,-467.5 417.5,-467.5 417.5,-448.5 348.5,-448.5"/>
<text text-anchor="middle" x="383" y="-455.5" font-family="Helvetica,sans-Serif" font-size="10.00">schedule.h</text>
</a>
</g>
</g>
<!-- Node25&#45;&gt;Node26 -->
<g id="edge29" class="edge">
<title>Node25&#45;&gt;Node26</title>
<path fill="none" stroke="midnightblue" d="M383,-493.8C383,-484.91 383,-474.78 383,-467.75"/>
<polygon fill="midnightblue" stroke="midnightblue" points="379.5,-494.08 383,-504.08 386.5,-494.08 379.5,-494.08"/>
</g>
<!-- Node28 -->
<g id="node28" class="node">
<title>Node28</title>
<g id="a_node28"><a xlink:href="packet__flags_8h.html" target="_top" xlink:title=" ">
<polygon fill="white" stroke="black" points="184,-560.5 184,-579.5 270,-579.5 270,-560.5 184,-560.5"/>
<text text-anchor="middle" x="227" y="-567.5" font-family="Helvetica,sans-Serif" font-size="10.00">packet_flags.h</text>
</a>
</g>
</g>
<!-- Node27&#45;&gt;Node28 -->
<g id="edge31" class="edge">
<title>Node27&#45;&gt;Node28</title>
<path fill="none" stroke="midnightblue" d="M227,-605.8C227,-596.91 227,-586.78 227,-579.75"/>
<polygon fill="midnightblue" stroke="midnightblue" points="223.5,-606.08 227,-616.08 230.5,-606.08 223.5,-606.08"/>
</g>
<!-- Node31 -->
<g id="node31" class="node">
<title>Node31</title>
<g id="a_node31"><a xlink:href="queue__inlines_8h_source.html" target="_top" xlink:title=" ">
<polygon fill="white" stroke="black" points="487.5,-784.5 487.5,-803.5 580.5,-803.5 580.5,-784.5 487.5,-784.5"/>
<text text-anchor="middle" x="534" y="-791.5" font-family="Helvetica,sans-Serif" font-size="10.00">queue_inlines.h</text>
</a>
</g>
</g>
<!-- Node30&#45;&gt;Node31 -->
<g id="edge37" class="edge">
<title>Node30&#45;&gt;Node31</title>
<path fill="none" stroke="midnightblue" d="M534,-829.8C534,-820.91 534,-810.78 534,-803.75"/>
<polygon fill="midnightblue" stroke="midnightblue" points="530.5,-830.08 534,-840.08 537.5,-830.08 530.5,-830.08"/>
</g>
</g>
</svg>
