<?xml version="1.0" encoding="UTF-8" standalone="no"?>
<!DOCTYPE svg PUBLIC "-//W3C//DTD SVG 1.1//EN"
 "http://www.w3.org/Graphics/SVG/1.1/DTD/svg11.dtd">
<!-- Generated by graphviz version 2.43.0 (0)
 -->
<!-- Title: queue.h Pages: 1 -->
<svg width="1132pt" height="912pt"
 viewBox="0.00 0.00 1132.00 912.00" xmlns="http://www.w3.org/2000/svg" xmlns:xlink="http://www.w3.org/1999/xlink">
<g id="graph0" class="graph" transform="scale(1 1) rotate(0) translate(4 908)">
<title>queue.h</title>
<polygon fill="white" stroke="transparent" points="-4,4 -4,-908 1128,-908 1128,4 -4,4"/>
<!-- Node1 -->
<g id="node1" class="node">
<title>Node1</title>
<g id="a_node1"><a xlink:title=" ">
<polygon fill="#bfbfbf" stroke="black" points="962,-884.5 962,-903.5 1018,-903.5 1018,-884.5 962,-884.5"/>
<text text-anchor="middle" x="990" y="-891.5" font-family="Helvetica,sans-Serif" font-size="10.00">queue.h</text>
</a>
</g>
</g>
<!-- Node2 -->
<g id="node2" class="node">
<title>Node2</title>
<g id="a_node2"><a xlink:title=" ">
<polygon fill="white" stroke="#bfbfbf" points="129.5,-0.5 129.5,-19.5 250.5,-19.5 250.5,-0.5 129.5,-0.5"/>
<text text-anchor="middle" x="190" y="-7.5" font-family="Helvetica,sans-Serif" font-size="10.00">odp/visibility_begin.h</text>
</a>
</g>
</g>
<!-- Node1&#45;&gt;Node2 -->
<g id="edge1" class="edge">
<title>Node1&#45;&gt;Node2</title>
<path fill="none" stroke="midnightblue" d="M961.97,-892.91C800.86,-892.01 0,-882.54 0,-783 0,-783 0,-783 0,-121 0,-62.69 67.85,-34.79 122.46,-21.78"/>
<polygon fill="midnightblue" stroke="midnightblue" points="123.49,-25.13 132.48,-19.52 121.95,-18.3 123.49,-25.13"/>
</g>
<!-- Node3 -->
<g id="node3" class="node">
<title>Node3</title>
<g id="a_node3"><a xlink:href="event_8h.html" target="_top" xlink:title=" ">
<polygon fill="white" stroke="black" points="907,-828.5 907,-847.5 999,-847.5 999,-828.5 907,-828.5"/>
<text text-anchor="middle" x="953" y="-835.5" font-family="Helvetica,sans-Serif" font-size="10.00">odp/api/event.h</text>
</a>
</g>
</g>
<!-- Node1&#45;&gt;Node3 -->
<g id="edge2" class="edge">
<title>Node1&#45;&gt;Node3</title>
<path fill="none" stroke="midnightblue" d="M983.89,-884.08C978.72,-876.53 971.15,-865.49 964.81,-856.23"/>
<polygon fill="midnightblue" stroke="midnightblue" points="967.54,-854.02 959,-847.75 961.76,-857.98 967.54,-854.02"/>
</g>
<!-- Node14 -->
<g id="node14" class="node">
<title>Node14</title>
<g id="a_node14"><a xlink:title=" ">
<polygon fill="white" stroke="#bfbfbf" points="878,-0.5 878,-19.5 990,-19.5 990,-0.5 878,-0.5"/>
<text text-anchor="middle" x="934" y="-7.5" font-family="Helvetica,sans-Serif" font-size="10.00">odp/visibility_end.h</text>
</a>
</g>
</g>
<!-- Node1&#45;&gt;Node14 -->
<g id="edge62" class="edge">
<title>Node1&#45;&gt;Node14</title>
<path fill="none" stroke="midnightblue" d="M1017.12,-884.47C1056.27,-870.27 1124,-837.78 1124,-783 1124,-783 1124,-783 1124,-121 1124,-62.24 1055.1,-34.36 1000.29,-21.48"/>
<polygon fill="midnightblue" stroke="midnightblue" points="1000.76,-18 990.24,-19.24 999.24,-24.83 1000.76,-18"/>
</g>
<!-- Node29 -->
<g id="node29" class="node">
<title>Node29</title>
<g id="a_node29"><a xlink:href="queue__types_8h.html" target="_top" xlink:title=" ">
<polygon fill="white" stroke="black" points="792.5,-476 792.5,-495 919.5,-495 919.5,-476 792.5,-476"/>
<text text-anchor="middle" x="856" y="-483" font-family="Helvetica,sans-Serif" font-size="10.00">odp/api/queue_types.h</text>
</a>
</g>
</g>
<!-- Node1&#45;&gt;Node29 -->
<g id="edge61" class="edge">
<title>Node1&#45;&gt;Node29</title>
<path fill="none" stroke="midnightblue" d="M994.99,-884.49C1005.09,-866.44 1027,-822.69 1027,-783 1027,-783 1027,-783 1027,-669 1027,-585.96 931.56,-525.14 883.28,-499.68"/>
<polygon fill="midnightblue" stroke="midnightblue" points="884.79,-496.52 874.3,-495.07 881.6,-502.75 884.79,-496.52"/>
</g>
<!-- Node4 -->
<g id="node4" class="node">
<title>Node4</title>
<g id="a_node4"><a xlink:title=" ">
<polygon fill="white" stroke="#bfbfbf" points="851,-660.5 851,-679.5 961,-679.5 961,-660.5 851,-660.5"/>
<text text-anchor="middle" x="906" y="-667.5" font-family="Helvetica,sans-Serif" font-size="10.00">odp/api/abi/event.h</text>
</a>
</g>
</g>
<!-- Node3&#45;&gt;Node4 -->
<g id="edge3" class="edge">
<title>Node3&#45;&gt;Node4</title>
<path fill="none" stroke="midnightblue" d="M950.47,-828.08C943.07,-801.95 921.35,-725.21 911.26,-689.58"/>
<polygon fill="midnightblue" stroke="midnightblue" points="914.52,-688.24 908.43,-679.57 907.78,-690.14 914.52,-688.24"/>
</g>
<!-- Node5 -->
<g id="node5" class="node">
<title>Node5</title>
<g id="a_node5"><a xlink:href="spec_2event_8h.html" target="_top" xlink:title=" ">
<polygon fill="white" stroke="black" points="690,-772.5 690,-791.5 808,-791.5 808,-772.5 690,-772.5"/>
<text text-anchor="middle" x="749" y="-779.5" font-family="Helvetica,sans-Serif" font-size="10.00">odp/api/spec/event.h</text>
</a>
</g>
</g>
<!-- Node3&#45;&gt;Node5 -->
<g id="edge4" class="edge">
<title>Node3&#45;&gt;Node5</title>
<path fill="none" stroke="midnightblue" d="M920.68,-828.44C885.61,-819.16 829.5,-804.31 791.04,-794.13"/>
<polygon fill="midnightblue" stroke="midnightblue" points="791.74,-790.69 781.17,-791.52 789.94,-797.46 791.74,-790.69"/>
</g>
<!-- Node5&#45;&gt;Node2 -->
<g id="edge5" class="edge">
<title>Node5&#45;&gt;Node2</title>
<path fill="none" stroke="midnightblue" d="M689.91,-778.06C519.29,-768.78 38,-736.77 38,-671 38,-671 38,-671 38,-121 38,-67.44 100.71,-37.3 145.57,-22.59"/>
<polygon fill="midnightblue" stroke="midnightblue" points="146.63,-25.93 155.13,-19.6 144.54,-19.25 146.63,-25.93"/>
</g>
<!-- Node6 -->
<g id="node6" class="node">
<title>Node6</title>
<g id="a_node6"><a xlink:href="packet_8h.html" target="_top" xlink:title=" ">
<polygon fill="white" stroke="black" points="546.5,-716.5 546.5,-735.5 643.5,-735.5 643.5,-716.5 546.5,-716.5"/>
<text text-anchor="middle" x="595" y="-723.5" font-family="Helvetica,sans-Serif" font-size="10.00">odp/api/packet.h</text>
</a>
</g>
</g>
<!-- Node5&#45;&gt;Node6 -->
<g id="edge6" class="edge">
<title>Node5&#45;&gt;Node6</title>
<path fill="none" stroke="midnightblue" d="M724.6,-772.44C698.8,-763.4 657.92,-749.06 628.98,-738.92"/>
<polygon fill="midnightblue" stroke="midnightblue" points="629.88,-735.52 619.29,-735.52 627.57,-742.13 629.88,-735.52"/>
</g>
<!-- Node5&#45;&gt;Node14 -->
<g id="edge60" class="edge">
<title>Node5&#45;&gt;Node14</title>
<path fill="none" stroke="midnightblue" d="M782.85,-772.41C829.53,-759.17 914.19,-729.92 970,-680 1044.74,-613.15 1086,-586.77 1086,-486.5 1086,-486.5 1086,-486.5 1086,-121 1086,-67.44 1023.29,-37.3 978.43,-22.59"/>
<polygon fill="midnightblue" stroke="midnightblue" points="979.46,-19.25 968.87,-19.6 977.37,-25.93 979.46,-19.25"/>
</g>
<!-- Node6&#45;&gt;Node4 -->
<g id="edge18" class="edge">
<title>Node6&#45;&gt;Node4</title>
<path fill="none" stroke="midnightblue" d="M643.59,-716.56C698.58,-707.01 788.14,-691.46 847.07,-681.23"/>
<polygon fill="midnightblue" stroke="midnightblue" points="847.72,-684.67 856.98,-679.51 846.53,-677.77 847.72,-684.67"/>
</g>
<!-- Node7 -->
<g id="node7" class="node">
<title>Node7</title>
<g id="a_node7"><a xlink:href="std__types_8h.html" target="_top" xlink:title=" ">
<polygon fill="white" stroke="black" points="380,-224.5 380,-243.5 492,-243.5 492,-224.5 380,-224.5"/>
<text text-anchor="middle" x="436" y="-231.5" font-family="Helvetica,sans-Serif" font-size="10.00">odp/api/std_types.h</text>
</a>
</g>
</g>
<!-- Node6&#45;&gt;Node7 -->
<g id="edge7" class="edge">
<title>Node6&#45;&gt;Node7</title>
<path fill="none" stroke="midnightblue" d="M612.18,-716.41C625.95,-708.68 644.77,-696.07 656,-680 673.24,-655.33 675,-645.1 675,-615 675,-615 675,-615 675,-551.5 675,-408.69 518.13,-289.54 458.57,-249.45"/>
<polygon fill="midnightblue" stroke="midnightblue" points="460.15,-246.3 449.88,-243.7 456.29,-252.14 460.15,-246.3"/>
</g>
<!-- Node15 -->
<g id="node15" class="node">
<title>Node15</title>
<g id="a_node15"><a xlink:title=" ">
<polygon fill="white" stroke="#bfbfbf" points="703.5,-660.5 703.5,-679.5 832.5,-679.5 832.5,-660.5 703.5,-660.5"/>
<text text-anchor="middle" x="768" y="-667.5" font-family="Helvetica,sans-Serif" font-size="10.00">odp/api/abi/packet_io.h</text>
</a>
</g>
</g>
<!-- Node6&#45;&gt;Node15 -->
<g id="edge19" class="edge">
<title>Node6&#45;&gt;Node15</title>
<path fill="none" stroke="midnightblue" d="M622.41,-716.44C651.77,-707.28 698.52,-692.69 731.1,-682.52"/>
<polygon fill="midnightblue" stroke="midnightblue" points="732.21,-685.84 740.72,-679.52 730.13,-679.16 732.21,-685.84"/>
</g>
<!-- Node16 -->
<g id="node16" class="node">
<title>Node16</title>
<g id="a_node16"><a xlink:title=" ">
<polygon fill="white" stroke="#bfbfbf" points="460,-537.5 460,-567.5 566,-567.5 566,-537.5 460,-537.5"/>
<text text-anchor="start" x="468" y="-555.5" font-family="Helvetica,sans-Serif" font-size="10.00">odp/api/abi/packet</text>
<text text-anchor="middle" x="513" y="-544.5" font-family="Helvetica,sans-Serif" font-size="10.00">_types.h</text>
</a>
</g>
</g>
<!-- Node6&#45;&gt;Node16 -->
<g id="edge20" class="edge">
<title>Node6&#45;&gt;Node16</title>
<path fill="none" stroke="midnightblue" d="M576.74,-716.44C562.72,-708.88 544.11,-696.49 534,-680 514.68,-648.47 511.59,-604.6 511.8,-577.67"/>
<polygon fill="midnightblue" stroke="midnightblue" points="515.3,-577.67 512.04,-567.59 508.3,-577.5 515.3,-577.67"/>
</g>
<!-- Node17 -->
<g id="node17" class="node">
<title>Node17</title>
<g id="a_node17"><a xlink:title=" ">
<polygon fill="white" stroke="#bfbfbf" points="103.5,-660.5 103.5,-679.5 218.5,-679.5 218.5,-660.5 103.5,-660.5"/>
<text text-anchor="middle" x="161" y="-667.5" font-family="Helvetica,sans-Serif" font-size="10.00">odp/api/abi/packet.h</text>
</a>
</g>
</g>
<!-- Node6&#45;&gt;Node17 -->
<g id="edge21" class="edge">
<title>Node6&#45;&gt;Node17</title>
<path fill="none" stroke="midnightblue" d="M546.3,-719.21C477.91,-711.04 349.25,-695.52 228.87,-680.1"/>
<polygon fill="midnightblue" stroke="midnightblue" points="229.1,-676.6 218.74,-678.8 228.21,-683.54 229.1,-676.6"/>
</g>
<!-- Node18 -->
<g id="node18" class="node">
<title>Node18</title>
<g id="a_node18"><a xlink:title=" ">
<polygon fill="white" stroke="#bfbfbf" points="377,-660.5 377,-679.5 487,-679.5 487,-660.5 377,-660.5"/>
<text text-anchor="middle" x="432" y="-667.5" font-family="Helvetica,sans-Serif" font-size="10.00">odp/api/abi/buffer.h</text>
</a>
</g>
</g>
<!-- Node6&#45;&gt;Node18 -->
<g id="edge22" class="edge">
<title>Node6&#45;&gt;Node18</title>
<path fill="none" stroke="midnightblue" d="M569.17,-716.44C541.75,-707.36 498.22,-692.94 467.57,-682.78"/>
<polygon fill="midnightblue" stroke="midnightblue" points="468.3,-679.34 457.71,-679.52 466.1,-685.98 468.3,-679.34"/>
</g>
<!-- Node19 -->
<g id="node19" class="node">
<title>Node19</title>
<g id="a_node19"><a xlink:title=" ">
<polygon fill="white" stroke="#bfbfbf" points="543,-660.5 543,-679.5 647,-679.5 647,-660.5 543,-660.5"/>
<text text-anchor="middle" x="595" y="-667.5" font-family="Helvetica,sans-Serif" font-size="10.00">odp/api/abi/pool.h</text>
</a>
</g>
</g>
<!-- Node6&#45;&gt;Node19 -->
<g id="edge23" class="edge">
<title>Node6&#45;&gt;Node19</title>
<path fill="none" stroke="midnightblue" d="M595,-716.08C595,-709.01 595,-698.86 595,-689.99"/>
<polygon fill="midnightblue" stroke="midnightblue" points="598.5,-689.75 595,-679.75 591.5,-689.75 598.5,-689.75"/>
</g>
<!-- Node20 -->
<g id="node20" class="node">
<title>Node20</title>
<g id="a_node20"><a xlink:href="spec_2packet_8h.html" target="_top" xlink:title=" ">
<polygon fill="white" stroke="black" points="237,-660.5 237,-679.5 359,-679.5 359,-660.5 237,-660.5"/>
<text text-anchor="middle" x="298" y="-667.5" font-family="Helvetica,sans-Serif" font-size="10.00">odp/api/spec/packet.h</text>
</a>
</g>
</g>
<!-- Node6&#45;&gt;Node20 -->
<g id="edge24" class="edge">
<title>Node6&#45;&gt;Node20</title>
<path fill="none" stroke="midnightblue" d="M547.94,-716.44C495.59,-706.92 411.01,-691.55 354.96,-681.36"/>
<polygon fill="midnightblue" stroke="midnightblue" points="355.31,-677.86 344.84,-679.52 354.05,-684.75 355.31,-677.86"/>
</g>
<!-- Node8 -->
<g id="node8" class="node">
<title>Node8</title>
<g id="a_node8"><a xlink:title=" ">
<polygon fill="white" stroke="#bfbfbf" points="360,-168.5 360,-187.5 490,-187.5 490,-168.5 360,-168.5"/>
<text text-anchor="middle" x="425" y="-175.5" font-family="Helvetica,sans-Serif" font-size="10.00">odp/api/abi/std_types.h</text>
</a>
</g>
</g>
<!-- Node7&#45;&gt;Node8 -->
<g id="edge8" class="edge">
<title>Node7&#45;&gt;Node8</title>
<path fill="none" stroke="midnightblue" d="M434.18,-224.08C432.73,-216.93 430.63,-206.64 428.81,-197.69"/>
<polygon fill="midnightblue" stroke="midnightblue" points="432.21,-196.85 426.78,-187.75 425.35,-198.25 432.21,-196.85"/>
</g>
<!-- Node9 -->
<g id="node9" class="node">
<title>Node9</title>
<g id="a_node9"><a xlink:href="spec_2std__types_8h.html" target="_top" xlink:title=" ">
<polygon fill="white" stroke="black" points="546.5,-168.5 546.5,-187.5 683.5,-187.5 683.5,-168.5 546.5,-168.5"/>
<text text-anchor="middle" x="615" y="-175.5" font-family="Helvetica,sans-Serif" font-size="10.00">odp/api/spec/std_types.h</text>
</a>
</g>
</g>
<!-- Node7&#45;&gt;Node9 -->
<g id="edge9" class="edge">
<title>Node7&#45;&gt;Node9</title>
<path fill="none" stroke="midnightblue" d="M464.36,-224.44C494.74,-215.28 543.11,-200.69 576.82,-190.52"/>
<polygon fill="midnightblue" stroke="midnightblue" points="578.21,-193.76 586.77,-187.52 576.18,-187.05 578.21,-193.76"/>
</g>
<!-- Node9&#45;&gt;Node2 -->
<g id="edge10" class="edge">
<title>Node9&#45;&gt;Node2</title>
<path fill="none" stroke="midnightblue" d="M583.23,-168.49C556.7,-160.76 518.31,-148.13 487,-132 434.82,-105.12 432.51,-80.12 379,-56 341.62,-39.15 297.12,-28.16 260.69,-21.25"/>
<polygon fill="midnightblue" stroke="midnightblue" points="261.11,-17.77 250.64,-19.42 259.85,-24.66 261.11,-17.77"/>
</g>
<!-- Node10 -->
<g id="node10" class="node">
<title>Node10</title>
<g id="a_node10"><a xlink:title=" ">
<polygon fill="white" stroke="#bfbfbf" points="495.5,-112.5 495.5,-131.5 548.5,-131.5 548.5,-112.5 495.5,-112.5"/>
<text text-anchor="middle" x="522" y="-119.5" font-family="Helvetica,sans-Serif" font-size="10.00">stdint.h</text>
</a>
</g>
</g>
<!-- Node9&#45;&gt;Node10 -->
<g id="edge11" class="edge">
<title>Node9&#45;&gt;Node10</title>
<path fill="none" stroke="midnightblue" d="M600.06,-168.32C585.41,-159.82 562.87,-146.73 545.76,-136.8"/>
<polygon fill="midnightblue" stroke="midnightblue" points="547.31,-133.65 536.9,-131.65 543.8,-139.7 547.31,-133.65"/>
</g>
<!-- Node11 -->
<g id="node11" class="node">
<title>Node11</title>
<g id="a_node11"><a xlink:href="align_8h.html" target="_top" xlink:title=" ">
<polygon fill="white" stroke="black" points="566.5,-112.5 566.5,-131.5 655.5,-131.5 655.5,-112.5 566.5,-112.5"/>
<text text-anchor="middle" x="611" y="-119.5" font-family="Helvetica,sans-Serif" font-size="10.00">odp/api/align.h</text>
</a>
</g>
</g>
<!-- Node9&#45;&gt;Node11 -->
<g id="edge12" class="edge">
<title>Node9&#45;&gt;Node11</title>
<path fill="none" stroke="midnightblue" d="M614.34,-168.08C613.82,-161.01 613.06,-150.86 612.41,-141.99"/>
<polygon fill="midnightblue" stroke="midnightblue" points="615.88,-141.47 611.65,-131.75 608.9,-141.98 615.88,-141.47"/>
</g>
<!-- Node9&#45;&gt;Node14 -->
<g id="edge17" class="edge">
<title>Node9&#45;&gt;Node14</title>
<path fill="none" stroke="midnightblue" d="M626.11,-168.44C636.8,-159.9 653.04,-146.05 665,-132 691.05,-101.4 680.83,-78.69 714,-56 759.27,-25.04 821.22,-14.51 867.85,-11.32"/>
<polygon fill="midnightblue" stroke="midnightblue" points="868.07,-14.81 877.85,-10.73 867.66,-7.82 868.07,-14.81"/>
</g>
<!-- Node12 -->
<g id="node12" class="node">
<title>Node12</title>
<g id="a_node12"><a xlink:title=" ">
<polygon fill="white" stroke="#bfbfbf" points="426.5,-56.5 426.5,-75.5 533.5,-75.5 533.5,-56.5 426.5,-56.5"/>
<text text-anchor="middle" x="480" y="-63.5" font-family="Helvetica,sans-Serif" font-size="10.00">odp/api/abi/align.h</text>
</a>
</g>
</g>
<!-- Node11&#45;&gt;Node12 -->
<g id="edge13" class="edge">
<title>Node11&#45;&gt;Node12</title>
<path fill="none" stroke="midnightblue" d="M590.24,-112.44C568.68,-103.56 534.74,-89.56 510.21,-79.45"/>
<polygon fill="midnightblue" stroke="midnightblue" points="511.24,-76.09 500.66,-75.52 508.57,-82.56 511.24,-76.09"/>
</g>
<!-- Node13 -->
<g id="node13" class="node">
<title>Node13</title>
<g id="a_node13"><a xlink:href="spec_2align_8h.html" target="_top" xlink:title=" ">
<polygon fill="white" stroke="black" points="552,-56.5 552,-75.5 666,-75.5 666,-56.5 552,-56.5"/>
<text text-anchor="middle" x="609" y="-63.5" font-family="Helvetica,sans-Serif" font-size="10.00">odp/api/spec/align.h</text>
</a>
</g>
</g>
<!-- Node11&#45;&gt;Node13 -->
<g id="edge14" class="edge">
<title>Node11&#45;&gt;Node13</title>
<path fill="none" stroke="midnightblue" d="M610.67,-112.08C610.41,-105.01 610.03,-94.86 609.7,-85.99"/>
<polygon fill="midnightblue" stroke="midnightblue" points="613.19,-85.61 609.32,-75.75 606.2,-85.87 613.19,-85.61"/>
</g>
<!-- Node13&#45;&gt;Node2 -->
<g id="edge15" class="edge">
<title>Node13&#45;&gt;Node2</title>
<path fill="none" stroke="midnightblue" d="M551.77,-57.16C548.8,-56.77 545.87,-56.38 543,-56 445.22,-43.1 332.11,-28.79 260.82,-19.84"/>
<polygon fill="midnightblue" stroke="midnightblue" points="260.97,-16.33 250.61,-18.56 260.1,-23.28 260.97,-16.33"/>
</g>
<!-- Node13&#45;&gt;Node14 -->
<g id="edge16" class="edge">
<title>Node13&#45;&gt;Node14</title>
<path fill="none" stroke="midnightblue" d="M660.5,-56.44C718.14,-46.87 811.49,-31.36 872.81,-21.17"/>
<polygon fill="midnightblue" stroke="midnightblue" points="873.45,-24.61 882.74,-19.52 872.31,-17.7 873.45,-24.61"/>
</g>
<!-- Node20&#45;&gt;Node2 -->
<g id="edge25" class="edge">
<title>Node20&#45;&gt;Node2</title>
<path fill="none" stroke="midnightblue" d="M268.52,-660.38C208.13,-641.85 76,-596.4 76,-553.5 76,-553.5 76,-553.5 76,-121 76,-74.11 126.55,-40.89 160.33,-23.93"/>
<polygon fill="midnightblue" stroke="midnightblue" points="161.87,-27.07 169.36,-19.58 158.83,-20.77 161.87,-27.07"/>
</g>
<!-- Node20&#45;&gt;Node14 -->
<g id="edge59" class="edge">
<title>Node20&#45;&gt;Node14</title>
<path fill="none" stroke="midnightblue" d="M359.06,-660.66C537.89,-635.42 1048,-557.23 1048,-486.5 1048,-486.5 1048,-486.5 1048,-121 1048,-74.11 997.45,-40.89 963.67,-23.93"/>
<polygon fill="midnightblue" stroke="midnightblue" points="965.17,-20.77 954.64,-19.58 962.13,-27.07 965.17,-20.77"/>
</g>
<!-- Node21 -->
<g id="node21" class="node">
<title>Node21</title>
<g id="a_node21"><a xlink:href="proto__stats__types_8h.html" target="_top" xlink:title=" ">
<polygon fill="white" stroke="black" points="236,-470.5 236,-500.5 346,-500.5 346,-470.5 236,-470.5"/>
<text text-anchor="start" x="244" y="-488.5" font-family="Helvetica,sans-Serif" font-size="10.00">odp/api/proto_stats</text>
<text text-anchor="middle" x="291" y="-477.5" font-family="Helvetica,sans-Serif" font-size="10.00">_types.h</text>
</a>
</g>
</g>
<!-- Node20&#45;&gt;Node21 -->
<g id="edge26" class="edge">
<title>Node20&#45;&gt;Node21</title>
<path fill="none" stroke="midnightblue" d="M297.66,-660.2C296.63,-633.39 293.52,-552.09 291.94,-510.93"/>
<polygon fill="midnightblue" stroke="midnightblue" points="295.43,-510.55 291.54,-500.69 288.43,-510.82 295.43,-510.55"/>
</g>
<!-- Node24 -->
<g id="node24" class="node">
<title>Node24</title>
<g id="a_node24"><a xlink:href="time_8h.html" target="_top" xlink:title=" ">
<polygon fill="white" stroke="black" points="212.5,-286 212.5,-305 299.5,-305 299.5,-286 212.5,-286"/>
<text text-anchor="middle" x="256" y="-293" font-family="Helvetica,sans-Serif" font-size="10.00">odp/api/time.h</text>
</a>
</g>
</g>
<!-- Node20&#45;&gt;Node24 -->
<g id="edge32" class="edge">
<title>Node20&#45;&gt;Node24</title>
<path fill="none" stroke="midnightblue" d="M268.81,-660.49C226.2,-646.07 152,-612.48 152,-553.5 152,-553.5 152,-553.5 152,-417.5 152,-369.05 200.55,-330.32 231.3,-310.65"/>
<polygon fill="midnightblue" stroke="midnightblue" points="233.53,-313.39 240.2,-305.16 229.85,-307.43 233.53,-313.39"/>
</g>
<!-- Node27 -->
<g id="node27" class="node">
<title>Node27</title>
<g id="a_node27"><a xlink:href="packet__types_8h.html" target="_top" xlink:title=" ">
<polygon fill="white" stroke="black" points="319.5,-604.5 319.5,-623.5 448.5,-623.5 448.5,-604.5 319.5,-604.5"/>
<text text-anchor="middle" x="384" y="-611.5" font-family="Helvetica,sans-Serif" font-size="10.00">odp/api/packet_types.h</text>
</a>
</g>
</g>
<!-- Node20&#45;&gt;Node27 -->
<g id="edge38" class="edge">
<title>Node20&#45;&gt;Node27</title>
<path fill="none" stroke="midnightblue" d="M311.82,-660.32C325.23,-651.9 345.82,-638.97 361.59,-629.07"/>
<polygon fill="midnightblue" stroke="midnightblue" points="363.61,-631.94 370.22,-623.65 359.89,-626.01 363.61,-631.94"/>
</g>
<!-- Node22 -->
<g id="node22" class="node">
<title>Node22</title>
<g id="a_node22"><a xlink:title=" ">
<polygon fill="white" stroke="#bfbfbf" points="180,-403.5 180,-433.5 308,-433.5 308,-403.5 180,-403.5"/>
<text text-anchor="start" x="188" y="-421.5" font-family="Helvetica,sans-Serif" font-size="10.00">odp/api/abi/proto_stats</text>
<text text-anchor="middle" x="244" y="-410.5" font-family="Helvetica,sans-Serif" font-size="10.00">_types.h</text>
</a>
</g>
</g>
<!-- Node21&#45;&gt;Node22 -->
<g id="edge27" class="edge">
<title>Node21&#45;&gt;Node22</title>
<path fill="none" stroke="midnightblue" d="M280.8,-470.4C274.77,-462.05 266.98,-451.29 260.13,-441.81"/>
<polygon fill="midnightblue" stroke="midnightblue" points="262.87,-439.63 254.18,-433.58 257.2,-443.73 262.87,-439.63"/>
</g>
<!-- Node23 -->
<g id="node23" class="node">
<title>Node23</title>
<g id="a_node23"><a xlink:href="spec_2proto__stats__types_8h.html" target="_top" xlink:title=" ">
<polygon fill="white" stroke="black" points="340.5,-280.5 340.5,-310.5 447.5,-310.5 447.5,-280.5 340.5,-280.5"/>
<text text-anchor="start" x="348.5" y="-298.5" font-family="Helvetica,sans-Serif" font-size="10.00">odp/api/spec/proto</text>
<text text-anchor="middle" x="394" y="-287.5" font-family="Helvetica,sans-Serif" font-size="10.00">_stats_types.h</text>
</a>
</g>
</g>
<!-- Node21&#45;&gt;Node23 -->
<g id="edge28" class="edge">
<title>Node21&#45;&gt;Node23</title>
<path fill="none" stroke="midnightblue" d="M298.74,-470.37C316.38,-438.17 359.7,-359.1 381.31,-319.66"/>
<polygon fill="midnightblue" stroke="midnightblue" points="384.57,-320.99 386.31,-310.54 378.43,-317.63 384.57,-320.99"/>
</g>
<!-- Node23&#45;&gt;Node2 -->
<g id="edge29" class="edge">
<title>Node23&#45;&gt;Node2</title>
<path fill="none" stroke="midnightblue" d="M379.46,-280.44C346.11,-247.51 263.21,-161.66 214,-76 205.57,-61.33 199.16,-43.16 195.1,-29.77"/>
<polygon fill="midnightblue" stroke="midnightblue" points="198.36,-28.47 192.24,-19.82 191.64,-30.4 198.36,-28.47"/>
</g>
<!-- Node23&#45;&gt;Node7 -->
<g id="edge30" class="edge">
<title>Node23&#45;&gt;Node7</title>
<path fill="none" stroke="midnightblue" d="M403.95,-280.4C409.99,-271.84 417.74,-260.87 424.1,-251.86"/>
<polygon fill="midnightblue" stroke="midnightblue" points="426.98,-253.85 429.89,-243.66 421.26,-249.81 426.98,-253.85"/>
</g>
<!-- Node23&#45;&gt;Node14 -->
<g id="edge31" class="edge">
<title>Node23&#45;&gt;Node14</title>
<path fill="none" stroke="midnightblue" d="M447.81,-280.64C542.97,-254.02 743.48,-188.2 877,-76 894.16,-61.58 910.69,-41.88 921.49,-27.95"/>
<polygon fill="midnightblue" stroke="midnightblue" points="924.45,-29.83 927.71,-19.75 918.88,-25.6 924.45,-29.83"/>
</g>
<!-- Node24&#45;&gt;Node7 -->
<g id="edge33" class="edge">
<title>Node24&#45;&gt;Node7</title>
<path fill="none" stroke="midnightblue" d="M281.79,-285.98C312.93,-275.68 365.48,-258.31 400.45,-246.75"/>
<polygon fill="midnightblue" stroke="midnightblue" points="401.86,-249.97 410.26,-243.51 399.66,-243.32 401.86,-249.97"/>
</g>
<!-- Node25 -->
<g id="node25" class="node">
<title>Node25</title>
<g id="a_node25"><a xlink:title=" ">
<polygon fill="white" stroke="#bfbfbf" points="180.5,-224.5 180.5,-243.5 285.5,-243.5 285.5,-224.5 180.5,-224.5"/>
<text text-anchor="middle" x="233" y="-231.5" font-family="Helvetica,sans-Serif" font-size="10.00">odp/api/abi/time.h</text>
</a>
</g>
</g>
<!-- Node24&#45;&gt;Node25 -->
<g id="edge34" class="edge">
<title>Node24&#45;&gt;Node25</title>
<path fill="none" stroke="midnightblue" d="M252.7,-285.98C249.39,-277.4 244.18,-263.93 239.95,-252.98"/>
<polygon fill="midnightblue" stroke="midnightblue" points="243.16,-251.57 236.29,-243.51 236.63,-254.1 243.16,-251.57"/>
</g>
<!-- Node26 -->
<g id="node26" class="node">
<title>Node26</title>
<g id="a_node26"><a xlink:href="spec_2time_8h.html" target="_top" xlink:title=" ">
<polygon fill="white" stroke="black" points="256.5,-56.5 256.5,-75.5 369.5,-75.5 369.5,-56.5 256.5,-56.5"/>
<text text-anchor="middle" x="313" y="-63.5" font-family="Helvetica,sans-Serif" font-size="10.00">odp/api/spec/time.h</text>
</a>
</g>
</g>
<!-- Node24&#45;&gt;Node26 -->
<g id="edge35" class="edge">
<title>Node24&#45;&gt;Node26</title>
<path fill="none" stroke="midnightblue" d="M265.22,-285.82C274.5,-276.46 288.35,-260.67 295,-244 316.6,-189.85 316.13,-119.33 314.4,-86.02"/>
<polygon fill="midnightblue" stroke="midnightblue" points="317.88,-85.64 313.76,-75.87 310.89,-86.07 317.88,-85.64"/>
</g>
<!-- Node26&#45;&gt;Node2 -->
<g id="edge36" class="edge">
<title>Node26&#45;&gt;Node2</title>
<path fill="none" stroke="midnightblue" d="M293.51,-56.44C273.36,-47.6 241.68,-33.69 218.67,-23.59"/>
<polygon fill="midnightblue" stroke="midnightblue" points="219.96,-20.33 209.4,-19.52 217.15,-26.74 219.96,-20.33"/>
</g>
<!-- Node26&#45;&gt;Node14 -->
<g id="edge37" class="edge">
<title>Node26&#45;&gt;Node14</title>
<path fill="none" stroke="midnightblue" d="M369.76,-60.06C484.79,-50.06 744.9,-27.44 867.59,-16.78"/>
<polygon fill="midnightblue" stroke="midnightblue" points="867.94,-20.26 877.6,-15.9 867.33,-13.28 867.94,-20.26"/>
</g>
<!-- Node27&#45;&gt;Node16 -->
<g id="edge39" class="edge">
<title>Node27&#45;&gt;Node16</title>
<path fill="none" stroke="midnightblue" d="M402.48,-604.48C420.93,-595.96 449.87,-582.62 473.5,-571.72"/>
<polygon fill="midnightblue" stroke="midnightblue" points="474.98,-574.89 482.6,-567.52 472.05,-568.53 474.98,-574.89"/>
</g>
<!-- Node28 -->
<g id="node28" class="node">
<title>Node28</title>
<g id="a_node28"><a xlink:href="spec_2packet__types_8h.html" target="_top" xlink:title=" ">
<polygon fill="white" stroke="black" points="327.5,-537.5 327.5,-567.5 440.5,-567.5 440.5,-537.5 327.5,-537.5"/>
<text text-anchor="start" x="335.5" y="-555.5" font-family="Helvetica,sans-Serif" font-size="10.00">odp/api/spec/packet</text>
<text text-anchor="middle" x="384" y="-544.5" font-family="Helvetica,sans-Serif" font-size="10.00">_types.h</text>
</a>
</g>
</g>
<!-- Node27&#45;&gt;Node28 -->
<g id="edge40" class="edge">
<title>Node27&#45;&gt;Node28</title>
<path fill="none" stroke="midnightblue" d="M384,-604.48C384,-597.47 384,-587.19 384,-577.7"/>
<polygon fill="midnightblue" stroke="midnightblue" points="387.5,-577.52 384,-567.52 380.5,-577.52 387.5,-577.52"/>
</g>
<!-- Node28&#45;&gt;Node2 -->
<g id="edge41" class="edge">
<title>Node28&#45;&gt;Node2</title>
<path fill="none" stroke="midnightblue" d="M381.25,-537.2C374.95,-508.12 356.84,-441.55 317,-403 243.79,-332.15 114,-398.38 114,-296.5 114,-296.5 114,-296.5 114,-121 114,-81.28 147.96,-45.5 170.48,-26.15"/>
<polygon fill="midnightblue" stroke="midnightblue" points="172.98,-28.63 178.46,-19.57 168.52,-23.24 172.98,-28.63"/>
</g>
<!-- Node28&#45;&gt;Node14 -->
<g id="edge58" class="edge">
<title>Node28&#45;&gt;Node14</title>
<path fill="none" stroke="midnightblue" d="M440.58,-537.83C551.84,-510.76 791.33,-451.43 826,-434 845.78,-424.06 845.52,-413.52 865,-403 909.89,-378.75 935.27,-400.21 974,-367 1000.71,-344.1 1010,-331.68 1010,-296.5 1010,-296.5 1010,-296.5 1010,-121 1010,-81.28 976.04,-45.5 953.52,-26.15"/>
<polygon fill="midnightblue" stroke="midnightblue" points="955.48,-23.24 945.54,-19.57 951.02,-28.63 955.48,-23.24"/>
</g>
<!-- Node28&#45;&gt;Node21 -->
<g id="edge42" class="edge">
<title>Node28&#45;&gt;Node21</title>
<path fill="none" stroke="midnightblue" d="M363.82,-537.4C350.9,-528.37 333.94,-516.51 319.64,-506.52"/>
<polygon fill="midnightblue" stroke="midnightblue" points="321.34,-503.44 311.14,-500.58 317.33,-509.17 321.34,-503.44"/>
</g>
<!-- Node28&#45;&gt;Node29 -->
<g id="edge43" class="edge">
<title>Node28&#45;&gt;Node29</title>
<path fill="none" stroke="midnightblue" d="M440.59,-538.88C444.11,-538.21 447.6,-537.58 451,-537 566.05,-517.42 700.7,-502.13 782.11,-493.72"/>
<polygon fill="midnightblue" stroke="midnightblue" points="782.67,-497.18 792.26,-492.67 781.95,-490.21 782.67,-497.18"/>
</g>
<!-- Node30 -->
<g id="node30" class="node">
<title>Node30</title>
<g id="a_node30"><a xlink:title=" ">
<polygon fill="white" stroke="#bfbfbf" points="873.5,-409 873.5,-428 1018.5,-428 1018.5,-409 873.5,-409"/>
<text text-anchor="middle" x="946" y="-416" font-family="Helvetica,sans-Serif" font-size="10.00">odp/api/abi/queue_types.h</text>
</a>
</g>
</g>
<!-- Node29&#45;&gt;Node30 -->
<g id="edge44" class="edge">
<title>Node29&#45;&gt;Node30</title>
<path fill="none" stroke="midnightblue" d="M868.14,-475.73C882.85,-465.11 907.86,-447.05 925.56,-434.26"/>
<polygon fill="midnightblue" stroke="midnightblue" points="928,-436.82 934.05,-428.13 923.9,-431.14 928,-436.82"/>
</g>
<!-- Node31 -->
<g id="node31" class="node">
<title>Node31</title>
<g id="a_node31"><a xlink:href="spec_2queue__types_8h.html" target="_top" xlink:title=" ">
<polygon fill="white" stroke="black" points="705.5,-403.5 705.5,-433.5 816.5,-433.5 816.5,-403.5 705.5,-403.5"/>
<text text-anchor="start" x="713.5" y="-421.5" font-family="Helvetica,sans-Serif" font-size="10.00">odp/api/spec/queue</text>
<text text-anchor="middle" x="761" y="-410.5" font-family="Helvetica,sans-Serif" font-size="10.00">_types.h</text>
</a>
</g>
</g>
<!-- Node29&#45;&gt;Node31 -->
<g id="edge45" class="edge">
<title>Node29&#45;&gt;Node31</title>
<path fill="none" stroke="midnightblue" d="M843.19,-475.73C829.61,-466.44 807.71,-451.46 789.93,-439.3"/>
<polygon fill="midnightblue" stroke="midnightblue" points="791.82,-436.35 781.59,-433.59 787.87,-442.12 791.82,-436.35"/>
</g>
<!-- Node31&#45;&gt;Node2 -->
<g id="edge46" class="edge">
<title>Node31&#45;&gt;Node2</title>
<path fill="none" stroke="midnightblue" d="M705.35,-413.13C580.45,-402.34 282.61,-370.89 204,-311 153.84,-272.79 152,-242.05 152,-179 152,-179 152,-179 152,-121 152,-86.81 168.6,-49.76 179.86,-28.57"/>
<polygon fill="midnightblue" stroke="midnightblue" points="182.95,-30.22 184.72,-19.77 176.82,-26.83 182.95,-30.22"/>
</g>
<!-- Node31&#45;&gt;Node14 -->
<g id="edge57" class="edge">
<title>Node31&#45;&gt;Node14</title>
<path fill="none" stroke="midnightblue" d="M816.63,-405.84C869.76,-394.23 943.16,-376.78 953,-367 976.02,-344.12 972,-328.95 972,-296.5 972,-296.5 972,-296.5 972,-121 972,-86.81 955.4,-49.76 944.14,-28.57"/>
<polygon fill="midnightblue" stroke="midnightblue" points="947.18,-26.83 939.28,-19.77 941.05,-30.22 947.18,-26.83"/>
</g>
<!-- Node32 -->
<g id="node32" class="node">
<title>Node32</title>
<g id="a_node32"><a xlink:href="schedule__types_8h.html" target="_top" xlink:title=" ">
<polygon fill="white" stroke="black" points="666,-347.5 666,-366.5 806,-366.5 806,-347.5 666,-347.5"/>
<text text-anchor="middle" x="736" y="-354.5" font-family="Helvetica,sans-Serif" font-size="10.00">odp/api/schedule_types.h</text>
</a>
</g>
</g>
<!-- Node31&#45;&gt;Node32 -->
<g id="edge47" class="edge">
<title>Node31&#45;&gt;Node32</title>
<path fill="none" stroke="midnightblue" d="M755.08,-403.4C751.63,-395.2 747.25,-384.78 743.56,-375.99"/>
<polygon fill="midnightblue" stroke="midnightblue" points="746.74,-374.52 739.64,-366.66 740.28,-377.23 746.74,-374.52"/>
</g>
<!-- Node35 -->
<g id="node35" class="node">
<title>Node35</title>
<g id="a_node35"><a xlink:href="deprecated_8h.html" target="_top" xlink:title=" ">
<polygon fill="white" stroke="black" points="824.5,-347.5 824.5,-366.5 943.5,-366.5 943.5,-347.5 824.5,-347.5"/>
<text text-anchor="middle" x="884" y="-354.5" font-family="Helvetica,sans-Serif" font-size="10.00">odp/api/deprecated.h</text>
</a>
</g>
</g>
<!-- Node31&#45;&gt;Node35 -->
<g id="edge53" class="edge">
<title>Node31&#45;&gt;Node35</title>
<path fill="none" stroke="midnightblue" d="M790.15,-403.4C810.42,-393.59 837.24,-380.62 857.02,-371.05"/>
<polygon fill="midnightblue" stroke="midnightblue" points="858.62,-374.16 866.1,-366.66 855.58,-367.86 858.62,-374.16"/>
</g>
<!-- Node33 -->
<g id="node33" class="node">
<title>Node33</title>
<g id="a_node33"><a xlink:title=" ">
<polygon fill="white" stroke="#bfbfbf" points="788.5,-280.5 788.5,-310.5 905.5,-310.5 905.5,-280.5 788.5,-280.5"/>
<text text-anchor="start" x="796.5" y="-298.5" font-family="Helvetica,sans-Serif" font-size="10.00">odp/api/abi/schedule</text>
<text text-anchor="middle" x="847" y="-287.5" font-family="Helvetica,sans-Serif" font-size="10.00">_types.h</text>
</a>
</g>
</g>
<!-- Node32&#45;&gt;Node33 -->
<g id="edge48" class="edge">
<title>Node32&#45;&gt;Node33</title>
<path fill="none" stroke="midnightblue" d="M751.9,-347.48C767.5,-339.12 791.8,-326.09 811.93,-315.3"/>
<polygon fill="midnightblue" stroke="midnightblue" points="813.68,-318.33 820.84,-310.52 810.37,-312.16 813.68,-318.33"/>
</g>
<!-- Node34 -->
<g id="node34" class="node">
<title>Node34</title>
<g id="a_node34"><a xlink:href="spec_2schedule__types_8h.html" target="_top" xlink:title=" ">
<polygon fill="white" stroke="black" points="645.5,-280.5 645.5,-310.5 770.5,-310.5 770.5,-280.5 645.5,-280.5"/>
<text text-anchor="start" x="653.5" y="-298.5" font-family="Helvetica,sans-Serif" font-size="10.00">odp/api/spec/schedule</text>
<text text-anchor="middle" x="708" y="-287.5" font-family="Helvetica,sans-Serif" font-size="10.00">_types.h</text>
</a>
</g>
</g>
<!-- Node32&#45;&gt;Node34 -->
<g id="edge49" class="edge">
<title>Node32&#45;&gt;Node34</title>
<path fill="none" stroke="midnightblue" d="M731.99,-347.48C728.59,-340.25 723.54,-329.53 718.95,-319.78"/>
<polygon fill="midnightblue" stroke="midnightblue" points="722.02,-318.08 714.6,-310.52 715.69,-321.06 722.02,-318.08"/>
</g>
<!-- Node34&#45;&gt;Node2 -->
<g id="edge50" class="edge">
<title>Node34&#45;&gt;Node2</title>
<path fill="none" stroke="midnightblue" d="M685.81,-280.32C640.12,-251.25 536.66,-186.09 499,-168 391.9,-116.56 346.28,-142.77 248,-76 229.12,-63.17 212.34,-42.87 201.75,-28.38"/>
<polygon fill="midnightblue" stroke="midnightblue" points="204.34,-25.98 195.72,-19.82 198.62,-30.01 204.34,-25.98"/>
</g>
<!-- Node34&#45;&gt;Node7 -->
<g id="edge51" class="edge">
<title>Node34&#45;&gt;Node7</title>
<path fill="none" stroke="midnightblue" d="M645.26,-280.77C596.39,-270.09 529.55,-255.46 484.68,-245.65"/>
<polygon fill="midnightblue" stroke="midnightblue" points="485.41,-242.23 474.89,-243.51 483.91,-249.06 485.41,-242.23"/>
</g>
<!-- Node34&#45;&gt;Node14 -->
<g id="edge52" class="edge">
<title>Node34&#45;&gt;Node14</title>
<path fill="none" stroke="midnightblue" d="M770.58,-281.44C810.42,-271.98 857.21,-258.38 872,-244 932.62,-185.08 936.18,-74.12 934.98,-29.89"/>
<polygon fill="midnightblue" stroke="midnightblue" points="938.47,-29.57 934.58,-19.72 931.48,-29.85 938.47,-29.57"/>
</g>
<!-- Node36 -->
<g id="node36" class="node">
<title>Node36</title>
<g id="a_node36"><a xlink:href="spec_2deprecated_8h.html" target="_top" xlink:title=" ">
<polygon fill="white" stroke="black" points="722.5,-56.5 722.5,-75.5 867.5,-75.5 867.5,-56.5 722.5,-56.5"/>
<text text-anchor="middle" x="795" y="-63.5" font-family="Helvetica,sans-Serif" font-size="10.00">odp/api/spec/deprecated.h</text>
</a>
</g>
</g>
<!-- Node35&#45;&gt;Node36 -->
<g id="edge54" class="edge">
<title>Node35&#45;&gt;Node36</title>
<path fill="none" stroke="midnightblue" d="M892.48,-347.23C900.05,-338.75 910.6,-325.13 915,-311 919.09,-297.84 918.5,-293.33 915,-280 893.94,-199.73 835.05,-117.82 808.4,-83.6"/>
<polygon fill="midnightblue" stroke="midnightblue" points="811.03,-81.28 802.08,-75.61 805.53,-85.62 811.03,-81.28"/>
</g>
<!-- Node36&#45;&gt;Node2 -->
<g id="edge55" class="edge">
<title>Node36&#45;&gt;Node2</title>
<path fill="none" stroke="midnightblue" d="M722.32,-58.51C605.29,-48.07 376.52,-27.65 260.74,-17.31"/>
<polygon fill="midnightblue" stroke="midnightblue" points="260.84,-13.81 250.57,-16.41 260.22,-20.78 260.84,-13.81"/>
</g>
<!-- Node36&#45;&gt;Node14 -->
<g id="edge56" class="edge">
<title>Node36&#45;&gt;Node14</title>
<path fill="none" stroke="midnightblue" d="M817.02,-56.44C840.1,-47.48 876.56,-33.31 902.64,-23.18"/>
<polygon fill="midnightblue" stroke="midnightblue" points="904.02,-26.4 912.08,-19.52 901.49,-19.88 904.02,-26.4"/>
</g>
</g>
</svg>
