<?xml version="1.0" encoding="UTF-8" standalone="no"?>
<!DOCTYPE svg PUBLIC "-//W3C//DTD SVG 1.1//EN"
 "http://www.w3.org/Graphics/SVG/1.1/DTD/svg11.dtd">
<!-- Generated by graphviz version 2.43.0 (0)
 -->
<!-- Title: event.h Pages: 1 -->
<svg width="1130pt" height="800pt"
 viewBox="0.00 0.00 1130.00 800.00" xmlns="http://www.w3.org/2000/svg" xmlns:xlink="http://www.w3.org/1999/xlink">
<g id="graph0" class="graph" transform="scale(1 1) rotate(0) translate(4 796)">
<title>event.h</title>
<polygon fill="white" stroke="transparent" points="-4,4 -4,-796 1126,-796 1126,4 -4,4"/>
<!-- Node1 -->
<g id="node1" class="node">
<title>Node1</title>
<g id="a_node1"><a xlink:title=" ">
<polygon fill="#bfbfbf" stroke="black" points="748.5,-772.5 748.5,-791.5 801.5,-791.5 801.5,-772.5 748.5,-772.5"/>
<text text-anchor="middle" x="775" y="-779.5" font-family="Helvetica,sans-Serif" font-size="10.00">event.h</text>
</a>
</g>
</g>
<!-- Node2 -->
<g id="node2" class="node">
<title>Node2</title>
<g id="a_node2"><a xlink:title=" ">
<polygon fill="white" stroke="#bfbfbf" points="815.5,-0.5 815.5,-19.5 936.5,-19.5 936.5,-0.5 815.5,-0.5"/>
<text text-anchor="middle" x="876" y="-7.5" font-family="Helvetica,sans-Serif" font-size="10.00">odp/visibility_begin.h</text>
</a>
</g>
</g>
<!-- Node1&#45;&gt;Node2 -->
<g id="edge1" class="edge">
<title>Node1&#45;&gt;Node2</title>
<path fill="none" stroke="midnightblue" d="M801.65,-778.37C882.91,-769.61 1122,-738.15 1122,-671 1122,-671 1122,-671 1122,-121 1122,-43.7 1019.52,-20.36 946.85,-13.53"/>
<polygon fill="midnightblue" stroke="midnightblue" points="947.07,-10.03 936.81,-12.67 946.47,-17.01 947.07,-10.03"/>
</g>
<!-- Node3 -->
<g id="node3" class="node">
<title>Node3</title>
<g id="a_node3"><a xlink:href="packet_8h.html" target="_top" xlink:title=" ">
<polygon fill="white" stroke="black" points="726.5,-716.5 726.5,-735.5 823.5,-735.5 823.5,-716.5 726.5,-716.5"/>
<text text-anchor="middle" x="775" y="-723.5" font-family="Helvetica,sans-Serif" font-size="10.00">odp/api/packet.h</text>
</a>
</g>
</g>
<!-- Node1&#45;&gt;Node3 -->
<g id="edge2" class="edge">
<title>Node1&#45;&gt;Node3</title>
<path fill="none" stroke="midnightblue" d="M775,-772.08C775,-765.01 775,-754.86 775,-745.99"/>
<polygon fill="midnightblue" stroke="midnightblue" points="778.5,-745.75 775,-735.75 771.5,-745.75 778.5,-745.75"/>
</g>
<!-- Node11 -->
<g id="node11" class="node">
<title>Node11</title>
<g id="a_node11"><a xlink:title=" ">
<polygon fill="white" stroke="#bfbfbf" points="115,-0.5 115,-19.5 227,-19.5 227,-0.5 115,-0.5"/>
<text text-anchor="middle" x="171" y="-7.5" font-family="Helvetica,sans-Serif" font-size="10.00">odp/visibility_end.h</text>
</a>
</g>
</g>
<!-- Node1&#45;&gt;Node11 -->
<g id="edge56" class="edge">
<title>Node1&#45;&gt;Node11</title>
<path fill="none" stroke="midnightblue" d="M748.32,-780.09C612.05,-775.08 0,-748.29 0,-671 0,-671 0,-671 0,-121 0,-64.74 66.28,-35.9 116.31,-22.14"/>
<polygon fill="midnightblue" stroke="midnightblue" points="117.28,-25.5 126.07,-19.58 115.51,-18.73 117.28,-25.5"/>
</g>
<!-- Node4 -->
<g id="node4" class="node">
<title>Node4</title>
<g id="a_node4"><a xlink:href="std__types_8h.html" target="_top" xlink:title=" ">
<polygon fill="white" stroke="black" points="389,-224.5 389,-243.5 501,-243.5 501,-224.5 389,-224.5"/>
<text text-anchor="middle" x="445" y="-231.5" font-family="Helvetica,sans-Serif" font-size="10.00">odp/api/std_types.h</text>
</a>
</g>
</g>
<!-- Node3&#45;&gt;Node4 -->
<g id="edge3" class="edge">
<title>Node3&#45;&gt;Node4</title>
<path fill="none" stroke="midnightblue" d="M823.79,-719.81C851.4,-714.34 884.43,-703.1 905,-680 943.3,-637 933,-611.08 933,-553.5 933,-553.5 933,-553.5 933,-417.5 933,-328.13 642.25,-267.99 509.6,-245.21"/>
<polygon fill="midnightblue" stroke="midnightblue" points="510,-241.73 499.56,-243.5 508.83,-248.63 510,-241.73"/>
</g>
<!-- Node12 -->
<g id="node12" class="node">
<title>Node12</title>
<g id="a_node12"><a xlink:title=" ">
<polygon fill="white" stroke="#bfbfbf" points="237,-660.5 237,-679.5 347,-679.5 347,-660.5 237,-660.5"/>
<text text-anchor="middle" x="292" y="-667.5" font-family="Helvetica,sans-Serif" font-size="10.00">odp/api/abi/event.h</text>
</a>
</g>
</g>
<!-- Node3&#45;&gt;Node12 -->
<g id="edge14" class="edge">
<title>Node3&#45;&gt;Node12</title>
<path fill="none" stroke="midnightblue" d="M726.23,-720.29C649.87,-712.79 497.15,-697.33 357.2,-680.11"/>
<polygon fill="midnightblue" stroke="midnightblue" points="357.5,-676.62 347.14,-678.87 356.64,-683.57 357.5,-676.62"/>
</g>
<!-- Node13 -->
<g id="node13" class="node">
<title>Node13</title>
<g id="a_node13"><a xlink:title=" ">
<polygon fill="white" stroke="#bfbfbf" points="505.5,-660.5 505.5,-679.5 634.5,-679.5 634.5,-660.5 505.5,-660.5"/>
<text text-anchor="middle" x="570" y="-667.5" font-family="Helvetica,sans-Serif" font-size="10.00">odp/api/abi/packet_io.h</text>
</a>
</g>
</g>
<!-- Node3&#45;&gt;Node13 -->
<g id="edge15" class="edge">
<title>Node3&#45;&gt;Node13</title>
<path fill="none" stroke="midnightblue" d="M742.52,-716.44C707.28,-707.16 650.9,-692.31 612.24,-682.13"/>
<polygon fill="midnightblue" stroke="midnightblue" points="612.89,-678.68 602.33,-679.52 611.11,-685.45 612.89,-678.68"/>
</g>
<!-- Node14 -->
<g id="node14" class="node">
<title>Node14</title>
<g id="a_node14"><a xlink:title=" ">
<polygon fill="white" stroke="#bfbfbf" points="979,-537.5 979,-567.5 1085,-567.5 1085,-537.5 979,-537.5"/>
<text text-anchor="start" x="987" y="-555.5" font-family="Helvetica,sans-Serif" font-size="10.00">odp/api/abi/packet</text>
<text text-anchor="middle" x="1032" y="-544.5" font-family="Helvetica,sans-Serif" font-size="10.00">_types.h</text>
</a>
</g>
</g>
<!-- Node3&#45;&gt;Node14 -->
<g id="edge16" class="edge">
<title>Node3&#45;&gt;Node14</title>
<path fill="none" stroke="midnightblue" d="M823.68,-724.77C898.03,-723.27 1034.5,-715.6 1065,-680 1090.32,-650.45 1066.92,-603.74 1048.71,-576.11"/>
<polygon fill="midnightblue" stroke="midnightblue" points="1051.59,-574.12 1043.04,-567.86 1045.82,-578.08 1051.59,-574.12"/>
</g>
<!-- Node15 -->
<g id="node15" class="node">
<title>Node15</title>
<g id="a_node15"><a xlink:title=" ">
<polygon fill="white" stroke="#bfbfbf" points="652.5,-660.5 652.5,-679.5 767.5,-679.5 767.5,-660.5 652.5,-660.5"/>
<text text-anchor="middle" x="710" y="-667.5" font-family="Helvetica,sans-Serif" font-size="10.00">odp/api/abi/packet.h</text>
</a>
</g>
</g>
<!-- Node3&#45;&gt;Node15 -->
<g id="edge17" class="edge">
<title>Node3&#45;&gt;Node15</title>
<path fill="none" stroke="midnightblue" d="M764.56,-716.32C754.85,-708.26 740.18,-696.08 728.5,-686.37"/>
<polygon fill="midnightblue" stroke="midnightblue" points="730.56,-683.53 720.63,-679.83 726.09,-688.92 730.56,-683.53"/>
</g>
<!-- Node16 -->
<g id="node16" class="node">
<title>Node16</title>
<g id="a_node16"><a xlink:title=" ">
<polygon fill="white" stroke="#bfbfbf" points="786,-660.5 786,-679.5 896,-679.5 896,-660.5 786,-660.5"/>
<text text-anchor="middle" x="841" y="-667.5" font-family="Helvetica,sans-Serif" font-size="10.00">odp/api/abi/buffer.h</text>
</a>
</g>
</g>
<!-- Node3&#45;&gt;Node16 -->
<g id="edge18" class="edge">
<title>Node3&#45;&gt;Node16</title>
<path fill="none" stroke="midnightblue" d="M785.6,-716.32C795.46,-708.26 810.35,-696.08 822.22,-686.37"/>
<polygon fill="midnightblue" stroke="midnightblue" points="824.68,-688.88 830.2,-679.83 820.25,-683.46 824.68,-688.88"/>
</g>
<!-- Node17 -->
<g id="node17" class="node">
<title>Node17</title>
<g id="a_node17"><a xlink:title=" ">
<polygon fill="white" stroke="#bfbfbf" points="952,-660.5 952,-679.5 1056,-679.5 1056,-660.5 952,-660.5"/>
<text text-anchor="middle" x="1004" y="-667.5" font-family="Helvetica,sans-Serif" font-size="10.00">odp/api/abi/pool.h</text>
</a>
</g>
</g>
<!-- Node3&#45;&gt;Node17 -->
<g id="edge19" class="edge">
<title>Node3&#45;&gt;Node17</title>
<path fill="none" stroke="midnightblue" d="M811.29,-716.44C850.98,-707.08 914.71,-692.06 957.91,-681.87"/>
<polygon fill="midnightblue" stroke="midnightblue" points="958.95,-685.22 967.88,-679.52 957.35,-678.41 958.95,-685.22"/>
</g>
<!-- Node18 -->
<g id="node18" class="node">
<title>Node18</title>
<g id="a_node18"><a xlink:href="spec_2packet_8h.html" target="_top" xlink:title=" ">
<polygon fill="white" stroke="black" points="365,-660.5 365,-679.5 487,-679.5 487,-660.5 365,-660.5"/>
<text text-anchor="middle" x="426" y="-667.5" font-family="Helvetica,sans-Serif" font-size="10.00">odp/api/spec/packet.h</text>
</a>
</g>
</g>
<!-- Node3&#45;&gt;Node18 -->
<g id="edge20" class="edge">
<title>Node3&#45;&gt;Node18</title>
<path fill="none" stroke="midnightblue" d="M726.47,-717.49C665.19,-708.01 559.52,-691.66 491.22,-681.09"/>
<polygon fill="midnightblue" stroke="midnightblue" points="491.43,-677.58 481.01,-679.51 490.36,-684.5 491.43,-677.58"/>
</g>
<!-- Node5 -->
<g id="node5" class="node">
<title>Node5</title>
<g id="a_node5"><a xlink:title=" ">
<polygon fill="white" stroke="#bfbfbf" points="380,-168.5 380,-187.5 510,-187.5 510,-168.5 380,-168.5"/>
<text text-anchor="middle" x="445" y="-175.5" font-family="Helvetica,sans-Serif" font-size="10.00">odp/api/abi/std_types.h</text>
</a>
</g>
</g>
<!-- Node4&#45;&gt;Node5 -->
<g id="edge4" class="edge">
<title>Node4&#45;&gt;Node5</title>
<path fill="none" stroke="midnightblue" d="M445,-224.08C445,-217.01 445,-206.86 445,-197.99"/>
<polygon fill="midnightblue" stroke="midnightblue" points="448.5,-197.75 445,-187.75 441.5,-197.75 448.5,-197.75"/>
</g>
<!-- Node6 -->
<g id="node6" class="node">
<title>Node6</title>
<g id="a_node6"><a xlink:href="spec_2std__types_8h.html" target="_top" xlink:title=" ">
<polygon fill="white" stroke="black" points="528.5,-168.5 528.5,-187.5 665.5,-187.5 665.5,-168.5 528.5,-168.5"/>
<text text-anchor="middle" x="597" y="-175.5" font-family="Helvetica,sans-Serif" font-size="10.00">odp/api/spec/std_types.h</text>
</a>
</g>
</g>
<!-- Node4&#45;&gt;Node6 -->
<g id="edge5" class="edge">
<title>Node4&#45;&gt;Node6</title>
<path fill="none" stroke="midnightblue" d="M469.08,-224.44C494.54,-215.4 534.89,-201.06 563.46,-190.92"/>
<polygon fill="midnightblue" stroke="midnightblue" points="564.78,-194.16 573.03,-187.52 562.43,-187.57 564.78,-194.16"/>
</g>
<!-- Node6&#45;&gt;Node2 -->
<g id="edge6" class="edge">
<title>Node6&#45;&gt;Node2</title>
<path fill="none" stroke="midnightblue" d="M618.38,-168.43C656.45,-152.73 737.79,-117.17 800,-76 822.23,-61.29 845.14,-40.84 859.91,-26.83"/>
<polygon fill="midnightblue" stroke="midnightblue" points="862.45,-29.24 867.23,-19.78 857.59,-24.2 862.45,-29.24"/>
</g>
<!-- Node7 -->
<g id="node7" class="node">
<title>Node7</title>
<g id="a_node7"><a xlink:title=" ">
<polygon fill="white" stroke="#bfbfbf" points="601.5,-112.5 601.5,-131.5 654.5,-131.5 654.5,-112.5 601.5,-112.5"/>
<text text-anchor="middle" x="628" y="-119.5" font-family="Helvetica,sans-Serif" font-size="10.00">stdint.h</text>
</a>
</g>
</g>
<!-- Node6&#45;&gt;Node7 -->
<g id="edge7" class="edge">
<title>Node6&#45;&gt;Node7</title>
<path fill="none" stroke="midnightblue" d="M602.12,-168.08C606.41,-160.61 612.66,-149.72 617.94,-140.52"/>
<polygon fill="midnightblue" stroke="midnightblue" points="621.03,-142.17 622.98,-131.75 614.96,-138.68 621.03,-142.17"/>
</g>
<!-- Node8 -->
<g id="node8" class="node">
<title>Node8</title>
<g id="a_node8"><a xlink:href="align_8h.html" target="_top" xlink:title=" ">
<polygon fill="white" stroke="black" points="494.5,-112.5 494.5,-131.5 583.5,-131.5 583.5,-112.5 494.5,-112.5"/>
<text text-anchor="middle" x="539" y="-119.5" font-family="Helvetica,sans-Serif" font-size="10.00">odp/api/align.h</text>
</a>
</g>
</g>
<!-- Node6&#45;&gt;Node8 -->
<g id="edge8" class="edge">
<title>Node6&#45;&gt;Node8</title>
<path fill="none" stroke="midnightblue" d="M587.68,-168.32C579.11,-160.34 566.19,-148.31 555.81,-138.65"/>
<polygon fill="midnightblue" stroke="midnightblue" points="558.19,-136.09 548.49,-131.83 553.42,-141.21 558.19,-136.09"/>
</g>
<!-- Node6&#45;&gt;Node11 -->
<g id="edge13" class="edge">
<title>Node6&#45;&gt;Node11</title>
<path fill="none" stroke="midnightblue" d="M541.17,-168.46C469.66,-155.86 343.46,-127.98 247,-76 223.27,-63.21 200.37,-42.03 186.02,-27.34"/>
<polygon fill="midnightblue" stroke="midnightblue" points="188.41,-24.77 178.98,-19.94 183.34,-29.59 188.41,-24.77"/>
</g>
<!-- Node9 -->
<g id="node9" class="node">
<title>Node9</title>
<g id="a_node9"><a xlink:title=" ">
<polygon fill="white" stroke="#bfbfbf" points="387.5,-56.5 387.5,-75.5 494.5,-75.5 494.5,-56.5 387.5,-56.5"/>
<text text-anchor="middle" x="441" y="-63.5" font-family="Helvetica,sans-Serif" font-size="10.00">odp/api/abi/align.h</text>
</a>
</g>
</g>
<!-- Node8&#45;&gt;Node9 -->
<g id="edge9" class="edge">
<title>Node8&#45;&gt;Node9</title>
<path fill="none" stroke="midnightblue" d="M523.25,-112.32C507.68,-103.74 483.62,-90.49 465.54,-80.52"/>
<polygon fill="midnightblue" stroke="midnightblue" points="467.15,-77.42 456.71,-75.65 463.78,-83.55 467.15,-77.42"/>
</g>
<!-- Node10 -->
<g id="node10" class="node">
<title>Node10</title>
<g id="a_node10"><a xlink:href="spec_2align_8h.html" target="_top" xlink:title=" ">
<polygon fill="white" stroke="black" points="513,-56.5 513,-75.5 627,-75.5 627,-56.5 513,-56.5"/>
<text text-anchor="middle" x="570" y="-63.5" font-family="Helvetica,sans-Serif" font-size="10.00">odp/api/spec/align.h</text>
</a>
</g>
</g>
<!-- Node8&#45;&gt;Node10 -->
<g id="edge10" class="edge">
<title>Node8&#45;&gt;Node10</title>
<path fill="none" stroke="midnightblue" d="M544.12,-112.08C548.41,-104.61 554.66,-93.72 559.94,-84.52"/>
<polygon fill="midnightblue" stroke="midnightblue" points="563.03,-86.17 564.98,-75.75 556.96,-82.68 563.03,-86.17"/>
</g>
<!-- Node10&#45;&gt;Node2 -->
<g id="edge11" class="edge">
<title>Node10&#45;&gt;Node2</title>
<path fill="none" stroke="midnightblue" d="M618.49,-56.44C672.54,-46.9 759.93,-31.48 817.67,-21.29"/>
<polygon fill="midnightblue" stroke="midnightblue" points="818.5,-24.7 827.74,-19.52 817.28,-17.81 818.5,-24.7"/>
</g>
<!-- Node10&#45;&gt;Node11 -->
<g id="edge12" class="edge">
<title>Node10&#45;&gt;Node11</title>
<path fill="none" stroke="midnightblue" d="M512.76,-57.19C509.8,-56.79 506.86,-56.39 504,-56 411.49,-43.44 304.51,-29 237.3,-19.94"/>
<polygon fill="midnightblue" stroke="midnightblue" points="237.65,-16.45 227.27,-18.58 236.71,-23.39 237.65,-16.45"/>
</g>
<!-- Node18&#45;&gt;Node2 -->
<g id="edge21" class="edge">
<title>Node18&#45;&gt;Node2</title>
<path fill="none" stroke="midnightblue" d="M482.7,-660.47C629.2,-634.9 1009,-544.68 1009,-296.5 1009,-296.5 1009,-296.5 1009,-121 1009,-70.73 951.87,-39.1 912.5,-23.27"/>
<polygon fill="midnightblue" stroke="midnightblue" points="913.5,-19.91 902.91,-19.59 910.99,-26.45 913.5,-19.91"/>
</g>
<!-- Node18&#45;&gt;Node11 -->
<g id="edge55" class="edge">
<title>Node18&#45;&gt;Node11</title>
<path fill="none" stroke="midnightblue" d="M367.32,-660.48C304.93,-651.05 210.58,-635.66 176,-624 110.74,-602 38,-622.37 38,-553.5 38,-553.5 38,-553.5 38,-121 38,-70.73 95.13,-39.1 134.5,-23.27"/>
<polygon fill="midnightblue" stroke="midnightblue" points="136.01,-26.45 144.09,-19.59 133.5,-19.91 136.01,-26.45"/>
</g>
<!-- Node19 -->
<g id="node19" class="node">
<title>Node19</title>
<g id="a_node19"><a xlink:href="proto__stats__types_8h.html" target="_top" xlink:title=" ">
<polygon fill="white" stroke="black" points="244,-470.5 244,-500.5 354,-500.5 354,-470.5 244,-470.5"/>
<text text-anchor="start" x="252" y="-488.5" font-family="Helvetica,sans-Serif" font-size="10.00">odp/api/proto_stats</text>
<text text-anchor="middle" x="299" y="-477.5" font-family="Helvetica,sans-Serif" font-size="10.00">_types.h</text>
</a>
</g>
</g>
<!-- Node18&#45;&gt;Node19 -->
<g id="edge22" class="edge">
<title>Node18&#45;&gt;Node19</title>
<path fill="none" stroke="midnightblue" d="M407.38,-660.47C392.34,-652.78 371.52,-640.19 358,-624 329.53,-589.91 312.77,-540.01 304.78,-510.63"/>
<polygon fill="midnightblue" stroke="midnightblue" points="308.13,-509.61 302.22,-500.81 301.35,-511.37 308.13,-509.61"/>
</g>
<!-- Node22 -->
<g id="node22" class="node">
<title>Node22</title>
<g id="a_node22"><a xlink:href="time_8h.html" target="_top" xlink:title=" ">
<polygon fill="white" stroke="black" points="151.5,-286 151.5,-305 238.5,-305 238.5,-286 151.5,-286"/>
<text text-anchor="middle" x="195" y="-293" font-family="Helvetica,sans-Serif" font-size="10.00">odp/api/time.h</text>
</a>
</g>
</g>
<!-- Node18&#45;&gt;Node22 -->
<g id="edge28" class="edge">
<title>Node18&#45;&gt;Node22</title>
<path fill="none" stroke="midnightblue" d="M387.54,-660.45C296.62,-639.7 76,-586.01 76,-553.5 76,-553.5 76,-553.5 76,-417.5 76,-366.06 131.35,-328.51 166.55,-309.82"/>
<polygon fill="midnightblue" stroke="midnightblue" points="168.57,-312.72 175.88,-305.06 165.38,-306.49 168.57,-312.72"/>
</g>
<!-- Node25 -->
<g id="node25" class="node">
<title>Node25</title>
<g id="a_node25"><a xlink:href="packet__types_8h.html" target="_top" xlink:title=" ">
<polygon fill="white" stroke="black" points="366.5,-604.5 366.5,-623.5 495.5,-623.5 495.5,-604.5 366.5,-604.5"/>
<text text-anchor="middle" x="431" y="-611.5" font-family="Helvetica,sans-Serif" font-size="10.00">odp/api/packet_types.h</text>
</a>
</g>
</g>
<!-- Node18&#45;&gt;Node25 -->
<g id="edge34" class="edge">
<title>Node18&#45;&gt;Node25</title>
<path fill="none" stroke="midnightblue" d="M426.83,-660.08C427.48,-653.01 428.42,-642.86 429.24,-633.99"/>
<polygon fill="midnightblue" stroke="midnightblue" points="432.75,-634.03 430.19,-623.75 425.78,-633.39 432.75,-634.03"/>
</g>
<!-- Node20 -->
<g id="node20" class="node">
<title>Node20</title>
<g id="a_node20"><a xlink:title=" ">
<polygon fill="white" stroke="#bfbfbf" points="143,-403.5 143,-433.5 271,-433.5 271,-403.5 143,-403.5"/>
<text text-anchor="start" x="151" y="-421.5" font-family="Helvetica,sans-Serif" font-size="10.00">odp/api/abi/proto_stats</text>
<text text-anchor="middle" x="207" y="-410.5" font-family="Helvetica,sans-Serif" font-size="10.00">_types.h</text>
</a>
</g>
</g>
<!-- Node19&#45;&gt;Node20 -->
<g id="edge23" class="edge">
<title>Node19&#45;&gt;Node20</title>
<path fill="none" stroke="midnightblue" d="M279.04,-470.4C266.26,-461.37 249.48,-449.51 235.33,-439.52"/>
<polygon fill="midnightblue" stroke="midnightblue" points="237.11,-436.49 226.92,-433.58 233.07,-442.21 237.11,-436.49"/>
</g>
<!-- Node21 -->
<g id="node21" class="node">
<title>Node21</title>
<g id="a_node21"><a xlink:href="spec_2proto__stats__types_8h.html" target="_top" xlink:title=" ">
<polygon fill="white" stroke="black" points="257.5,-280.5 257.5,-310.5 364.5,-310.5 364.5,-280.5 257.5,-280.5"/>
<text text-anchor="start" x="265.5" y="-298.5" font-family="Helvetica,sans-Serif" font-size="10.00">odp/api/spec/proto</text>
<text text-anchor="middle" x="311" y="-287.5" font-family="Helvetica,sans-Serif" font-size="10.00">_stats_types.h</text>
</a>
</g>
</g>
<!-- Node19&#45;&gt;Node21 -->
<g id="edge24" class="edge">
<title>Node19&#45;&gt;Node21</title>
<path fill="none" stroke="midnightblue" d="M299.9,-470.37C301.94,-438.44 306.92,-360.44 309.46,-320.67"/>
<polygon fill="midnightblue" stroke="midnightblue" points="312.96,-320.74 310.1,-310.54 305.97,-320.29 312.96,-320.74"/>
</g>
<!-- Node21&#45;&gt;Node2 -->
<g id="edge25" class="edge">
<title>Node21&#45;&gt;Node2</title>
<path fill="none" stroke="midnightblue" d="M364.52,-282.13C404.76,-272.53 461.13,-258.47 510,-244 584.26,-222.01 606.35,-223.84 675,-188 749.39,-149.17 767.34,-135.01 827,-76 841.86,-61.3 855.9,-41.9 865.11,-28.13"/>
<polygon fill="midnightblue" stroke="midnightblue" points="868.13,-29.91 870.67,-19.62 862.27,-26.08 868.13,-29.91"/>
</g>
<!-- Node21&#45;&gt;Node4 -->
<g id="edge26" class="edge">
<title>Node21&#45;&gt;Node4</title>
<path fill="none" stroke="midnightblue" d="M342.76,-280.4C365.04,-270.51 394.59,-257.38 416.19,-247.79"/>
<polygon fill="midnightblue" stroke="midnightblue" points="417.78,-250.91 425.5,-243.66 414.94,-244.52 417.78,-250.91"/>
</g>
<!-- Node21&#45;&gt;Node11 -->
<g id="edge27" class="edge">
<title>Node21&#45;&gt;Node11</title>
<path fill="none" stroke="midnightblue" d="M300.26,-280.28C289.33,-265.92 271.79,-243.17 256,-224 221.55,-182.18 196.02,-182.35 176,-132 162.45,-97.93 165.04,-54.13 168.07,-29.67"/>
<polygon fill="midnightblue" stroke="midnightblue" points="171.56,-30 169.48,-19.61 164.62,-29.03 171.56,-30"/>
</g>
<!-- Node22&#45;&gt;Node4 -->
<g id="edge29" class="edge">
<title>Node22&#45;&gt;Node4</title>
<path fill="none" stroke="midnightblue" d="M226.07,-285.95C233.57,-283.94 241.56,-281.85 249,-280 298.87,-267.59 356.18,-254.57 395.9,-245.75"/>
<polygon fill="midnightblue" stroke="midnightblue" points="396.85,-249.12 405.85,-243.54 395.33,-242.29 396.85,-249.12"/>
</g>
<!-- Node23 -->
<g id="node23" class="node">
<title>Node23</title>
<g id="a_node23"><a xlink:title=" ">
<polygon fill="white" stroke="#bfbfbf" points="142.5,-224.5 142.5,-243.5 247.5,-243.5 247.5,-224.5 142.5,-224.5"/>
<text text-anchor="middle" x="195" y="-231.5" font-family="Helvetica,sans-Serif" font-size="10.00">odp/api/abi/time.h</text>
</a>
</g>
</g>
<!-- Node22&#45;&gt;Node23 -->
<g id="edge30" class="edge">
<title>Node22&#45;&gt;Node23</title>
<path fill="none" stroke="midnightblue" d="M195,-285.98C195,-277.58 195,-264.48 195,-253.66"/>
<polygon fill="midnightblue" stroke="midnightblue" points="198.5,-253.51 195,-243.51 191.5,-253.51 198.5,-253.51"/>
</g>
<!-- Node24 -->
<g id="node24" class="node">
<title>Node24</title>
<g id="a_node24"><a xlink:href="spec_2time_8h.html" target="_top" xlink:title=" ">
<polygon fill="white" stroke="black" points="256.5,-56.5 256.5,-75.5 369.5,-75.5 369.5,-56.5 256.5,-56.5"/>
<text text-anchor="middle" x="313" y="-63.5" font-family="Helvetica,sans-Serif" font-size="10.00">odp/api/spec/time.h</text>
</a>
</g>
</g>
<!-- Node22&#45;&gt;Node24 -->
<g id="edge31" class="edge">
<title>Node22&#45;&gt;Node24</title>
<path fill="none" stroke="midnightblue" d="M209.62,-285.87C223.44,-277.01 243.82,-261.98 256,-244 290.49,-193.09 305.21,-119.96 310.49,-85.85"/>
<polygon fill="midnightblue" stroke="midnightblue" points="313.96,-86.27 311.93,-75.87 307.03,-85.26 313.96,-86.27"/>
</g>
<!-- Node24&#45;&gt;Node2 -->
<g id="edge32" class="edge">
<title>Node24&#45;&gt;Node2</title>
<path fill="none" stroke="midnightblue" d="M369.5,-57.12C372.72,-56.73 375.9,-56.35 379,-56 530.58,-38.81 708.77,-23.98 805.26,-16.39"/>
<polygon fill="midnightblue" stroke="midnightblue" points="805.77,-19.86 815.47,-15.59 805.23,-12.88 805.77,-19.86"/>
</g>
<!-- Node24&#45;&gt;Node11 -->
<g id="edge33" class="edge">
<title>Node24&#45;&gt;Node11</title>
<path fill="none" stroke="midnightblue" d="M290.5,-56.44C266.92,-47.48 229.68,-33.31 203.04,-23.18"/>
<polygon fill="midnightblue" stroke="midnightblue" points="203.99,-19.8 193.4,-19.52 201.5,-26.34 203.99,-19.8"/>
</g>
<!-- Node25&#45;&gt;Node14 -->
<g id="edge35" class="edge">
<title>Node25&#45;&gt;Node14</title>
<path fill="none" stroke="midnightblue" d="M495.6,-606.6C611.55,-595.12 853.58,-571.16 968.63,-559.77"/>
<polygon fill="midnightblue" stroke="midnightblue" points="969.09,-563.25 978.69,-558.78 968.4,-556.28 969.09,-563.25"/>
</g>
<!-- Node26 -->
<g id="node26" class="node">
<title>Node26</title>
<g id="a_node26"><a xlink:href="spec_2packet__types_8h.html" target="_top" xlink:title=" ">
<polygon fill="white" stroke="black" points="374.5,-537.5 374.5,-567.5 487.5,-567.5 487.5,-537.5 374.5,-537.5"/>
<text text-anchor="start" x="382.5" y="-555.5" font-family="Helvetica,sans-Serif" font-size="10.00">odp/api/spec/packet</text>
<text text-anchor="middle" x="431" y="-544.5" font-family="Helvetica,sans-Serif" font-size="10.00">_types.h</text>
</a>
</g>
</g>
<!-- Node25&#45;&gt;Node26 -->
<g id="edge36" class="edge">
<title>Node25&#45;&gt;Node26</title>
<path fill="none" stroke="midnightblue" d="M431,-604.48C431,-597.47 431,-587.19 431,-577.7"/>
<polygon fill="midnightblue" stroke="midnightblue" points="434.5,-577.52 431,-567.52 427.5,-577.52 434.5,-577.52"/>
</g>
<!-- Node26&#45;&gt;Node2 -->
<g id="edge37" class="edge">
<title>Node26&#45;&gt;Node2</title>
<path fill="none" stroke="midnightblue" d="M487.51,-550.44C625.99,-544.57 971,-508.65 971,-296.5 971,-296.5 971,-296.5 971,-121 971,-77.74 928.39,-43.09 900.25,-24.91"/>
<polygon fill="midnightblue" stroke="midnightblue" points="902.03,-21.9 891.69,-19.6 898.34,-27.85 902.03,-21.9"/>
</g>
<!-- Node26&#45;&gt;Node11 -->
<g id="edge54" class="edge">
<title>Node26&#45;&gt;Node11</title>
<path fill="none" stroke="midnightblue" d="M374.47,-547.31C304.64,-538.77 188.43,-512.82 134,-434 67.95,-338.36 76,-295.23 76,-179 76,-179 76,-179 76,-121 76,-77.74 118.61,-43.09 146.75,-24.91"/>
<polygon fill="midnightblue" stroke="midnightblue" points="148.66,-27.85 155.31,-19.6 144.97,-21.9 148.66,-27.85"/>
</g>
<!-- Node26&#45;&gt;Node19 -->
<g id="edge38" class="edge">
<title>Node26&#45;&gt;Node19</title>
<path fill="none" stroke="midnightblue" d="M402.36,-537.4C383.16,-527.94 357.67,-515.39 336.81,-505.12"/>
<polygon fill="midnightblue" stroke="midnightblue" points="338.1,-501.85 327.59,-500.58 335.01,-508.13 338.1,-501.85"/>
</g>
<!-- Node27 -->
<g id="node27" class="node">
<title>Node27</title>
<g id="a_node27"><a xlink:href="queue__types_8h.html" target="_top" xlink:title=" ">
<polygon fill="white" stroke="black" points="373.5,-476 373.5,-495 500.5,-495 500.5,-476 373.5,-476"/>
<text text-anchor="middle" x="437" y="-483" font-family="Helvetica,sans-Serif" font-size="10.00">odp/api/queue_types.h</text>
</a>
</g>
</g>
<!-- Node26&#45;&gt;Node27 -->
<g id="edge39" class="edge">
<title>Node26&#45;&gt;Node27</title>
<path fill="none" stroke="midnightblue" d="M432.3,-537.4C433.17,-527.96 434.33,-515.45 435.27,-505.19"/>
<polygon fill="midnightblue" stroke="midnightblue" points="438.76,-505.47 436.2,-495.19 431.79,-504.83 438.76,-505.47"/>
</g>
<!-- Node28 -->
<g id="node28" class="node">
<title>Node28</title>
<g id="a_node28"><a xlink:title=" ">
<polygon fill="white" stroke="#bfbfbf" points="364.5,-409 364.5,-428 509.5,-428 509.5,-409 364.5,-409"/>
<text text-anchor="middle" x="437" y="-416" font-family="Helvetica,sans-Serif" font-size="10.00">odp/api/abi/queue_types.h</text>
</a>
</g>
</g>
<!-- Node27&#45;&gt;Node28 -->
<g id="edge40" class="edge">
<title>Node27&#45;&gt;Node28</title>
<path fill="none" stroke="midnightblue" d="M437,-475.73C437,-466.18 437,-450.62 437,-438.28"/>
<polygon fill="midnightblue" stroke="midnightblue" points="440.5,-438.13 437,-428.13 433.5,-438.13 440.5,-438.13"/>
</g>
<!-- Node29 -->
<g id="node29" class="node">
<title>Node29</title>
<g id="a_node29"><a xlink:href="spec_2queue__types_8h.html" target="_top" xlink:title=" ">
<polygon fill="white" stroke="black" points="528.5,-403.5 528.5,-433.5 639.5,-433.5 639.5,-403.5 528.5,-403.5"/>
<text text-anchor="start" x="536.5" y="-421.5" font-family="Helvetica,sans-Serif" font-size="10.00">odp/api/spec/queue</text>
<text text-anchor="middle" x="584" y="-410.5" font-family="Helvetica,sans-Serif" font-size="10.00">_types.h</text>
</a>
</g>
</g>
<!-- Node27&#45;&gt;Node29 -->
<g id="edge41" class="edge">
<title>Node27&#45;&gt;Node29</title>
<path fill="none" stroke="midnightblue" d="M456.52,-475.87C478.48,-466.16 514.78,-450.11 543.03,-437.61"/>
<polygon fill="midnightblue" stroke="midnightblue" points="544.54,-440.77 552.27,-433.53 541.71,-434.37 544.54,-440.77"/>
</g>
<!-- Node29&#45;&gt;Node2 -->
<g id="edge42" class="edge">
<title>Node29&#45;&gt;Node2</title>
<path fill="none" stroke="midnightblue" d="M639.61,-418.04C694.43,-416.06 778.54,-406.07 839,-367 899.49,-327.91 933,-307.02 933,-235 933,-235 933,-235 933,-121 933,-84.3 907.68,-47.66 890.79,-27.3"/>
<polygon fill="midnightblue" stroke="midnightblue" points="893.35,-24.9 884.17,-19.62 888.05,-29.48 893.35,-24.9"/>
</g>
<!-- Node29&#45;&gt;Node11 -->
<g id="edge53" class="edge">
<title>Node29&#45;&gt;Node11</title>
<path fill="none" stroke="midnightblue" d="M528.15,-404.86C410.81,-378.18 148.83,-318.02 142,-311 100.18,-268.02 114,-238.97 114,-179 114,-179 114,-179 114,-121 114,-84.3 139.32,-47.66 156.21,-27.3"/>
<polygon fill="midnightblue" stroke="midnightblue" points="158.95,-29.48 162.83,-19.62 153.65,-24.9 158.95,-29.48"/>
</g>
<!-- Node30 -->
<g id="node30" class="node">
<title>Node30</title>
<g id="a_node30"><a xlink:href="schedule__types_8h.html" target="_top" xlink:title=" ">
<polygon fill="white" stroke="black" points="514,-347.5 514,-366.5 654,-366.5 654,-347.5 514,-347.5"/>
<text text-anchor="middle" x="584" y="-354.5" font-family="Helvetica,sans-Serif" font-size="10.00">odp/api/schedule_types.h</text>
</a>
</g>
</g>
<!-- Node29&#45;&gt;Node30 -->
<g id="edge43" class="edge">
<title>Node29&#45;&gt;Node30</title>
<path fill="none" stroke="midnightblue" d="M584,-403.4C584,-395.47 584,-385.46 584,-376.86"/>
<polygon fill="midnightblue" stroke="midnightblue" points="587.5,-376.66 584,-366.66 580.5,-376.66 587.5,-376.66"/>
</g>
<!-- Node33 -->
<g id="node33" class="node">
<title>Node33</title>
<g id="a_node33"><a xlink:href="deprecated_8h.html" target="_top" xlink:title=" ">
<polygon fill="white" stroke="black" points="710.5,-347.5 710.5,-366.5 829.5,-366.5 829.5,-347.5 710.5,-347.5"/>
<text text-anchor="middle" x="770" y="-354.5" font-family="Helvetica,sans-Serif" font-size="10.00">odp/api/deprecated.h</text>
</a>
</g>
</g>
<!-- Node29&#45;&gt;Node33 -->
<g id="edge49" class="edge">
<title>Node29&#45;&gt;Node33</title>
<path fill="none" stroke="midnightblue" d="M628.08,-403.4C660.22,-393.12 703.26,-379.35 733.48,-369.68"/>
<polygon fill="midnightblue" stroke="midnightblue" points="734.75,-372.95 743.21,-366.57 732.62,-366.28 734.75,-372.95"/>
</g>
<!-- Node31 -->
<g id="node31" class="node">
<title>Node31</title>
<g id="a_node31"><a xlink:title=" ">
<polygon fill="white" stroke="#bfbfbf" points="525.5,-280.5 525.5,-310.5 642.5,-310.5 642.5,-280.5 525.5,-280.5"/>
<text text-anchor="start" x="533.5" y="-298.5" font-family="Helvetica,sans-Serif" font-size="10.00">odp/api/abi/schedule</text>
<text text-anchor="middle" x="584" y="-287.5" font-family="Helvetica,sans-Serif" font-size="10.00">_types.h</text>
</a>
</g>
</g>
<!-- Node30&#45;&gt;Node31 -->
<g id="edge44" class="edge">
<title>Node30&#45;&gt;Node31</title>
<path fill="none" stroke="midnightblue" d="M584,-347.48C584,-340.47 584,-330.19 584,-320.7"/>
<polygon fill="midnightblue" stroke="midnightblue" points="587.5,-320.52 584,-310.52 580.5,-320.52 587.5,-320.52"/>
</g>
<!-- Node32 -->
<g id="node32" class="node">
<title>Node32</title>
<g id="a_node32"><a xlink:href="spec_2schedule__types_8h.html" target="_top" xlink:title=" ">
<polygon fill="white" stroke="black" points="382.5,-280.5 382.5,-310.5 507.5,-310.5 507.5,-280.5 382.5,-280.5"/>
<text text-anchor="start" x="390.5" y="-298.5" font-family="Helvetica,sans-Serif" font-size="10.00">odp/api/spec/schedule</text>
<text text-anchor="middle" x="445" y="-287.5" font-family="Helvetica,sans-Serif" font-size="10.00">_types.h</text>
</a>
</g>
</g>
<!-- Node30&#45;&gt;Node32 -->
<g id="edge45" class="edge">
<title>Node30&#45;&gt;Node32</title>
<path fill="none" stroke="midnightblue" d="M564.08,-347.48C544.12,-338.93 512.75,-325.5 487.22,-314.57"/>
<polygon fill="midnightblue" stroke="midnightblue" points="488.33,-311.24 477.76,-310.52 485.58,-317.68 488.33,-311.24"/>
</g>
<!-- Node32&#45;&gt;Node2 -->
<g id="edge46" class="edge">
<title>Node32&#45;&gt;Node2</title>
<path fill="none" stroke="midnightblue" d="M507.77,-281.53C510.89,-280.99 513.98,-280.48 517,-280 586.82,-269.01 777.98,-288.36 833,-244 898.24,-191.4 886.87,-74.95 879.51,-29.59"/>
<polygon fill="midnightblue" stroke="midnightblue" points="882.95,-28.92 877.78,-19.68 876.05,-30.13 882.95,-28.92"/>
</g>
<!-- Node32&#45;&gt;Node4 -->
<g id="edge47" class="edge">
<title>Node32&#45;&gt;Node4</title>
<path fill="none" stroke="midnightblue" d="M445,-280.4C445,-272.47 445,-262.46 445,-253.86"/>
<polygon fill="midnightblue" stroke="midnightblue" points="448.5,-253.66 445,-243.66 441.5,-253.66 448.5,-253.66"/>
</g>
<!-- Node32&#45;&gt;Node11 -->
<g id="edge48" class="edge">
<title>Node32&#45;&gt;Node11</title>
<path fill="none" stroke="midnightblue" d="M425.41,-280.33C412.23,-270.55 394.64,-257 380,-244 301.5,-174.32 280.16,-157.49 214,-76 201.65,-60.78 189.51,-41.98 181.29,-28.52"/>
<polygon fill="midnightblue" stroke="midnightblue" points="184.2,-26.56 176.06,-19.79 178.2,-30.16 184.2,-26.56"/>
</g>
<!-- Node34 -->
<g id="node34" class="node">
<title>Node34</title>
<g id="a_node34"><a xlink:href="spec_2deprecated_8h.html" target="_top" xlink:title=" ">
<polygon fill="white" stroke="black" points="645.5,-56.5 645.5,-75.5 790.5,-75.5 790.5,-56.5 645.5,-56.5"/>
<text text-anchor="middle" x="718" y="-63.5" font-family="Helvetica,sans-Serif" font-size="10.00">odp/api/spec/deprecated.h</text>
</a>
</g>
</g>
<!-- Node33&#45;&gt;Node34 -->
<g id="edge50" class="edge">
<title>Node33&#45;&gt;Node34</title>
<path fill="none" stroke="midnightblue" d="M768.44,-347.35C761.28,-307.55 731.41,-141.55 721.34,-85.55"/>
<polygon fill="midnightblue" stroke="midnightblue" points="724.77,-84.84 719.55,-75.62 717.88,-86.08 724.77,-84.84"/>
</g>
<!-- Node34&#45;&gt;Node2 -->
<g id="edge51" class="edge">
<title>Node34&#45;&gt;Node2</title>
<path fill="none" stroke="midnightblue" d="M743.04,-56.44C769.62,-47.36 811.81,-32.94 841.52,-22.78"/>
<polygon fill="midnightblue" stroke="midnightblue" points="842.75,-26.06 851.08,-19.52 840.49,-19.44 842.75,-26.06"/>
</g>
<!-- Node34&#45;&gt;Node11 -->
<g id="edge52" class="edge">
<title>Node34&#45;&gt;Node11</title>
<path fill="none" stroke="midnightblue" d="M645.13,-56.95C642.04,-56.63 638.99,-56.31 636,-56 494.03,-41.34 327.53,-25.57 237.3,-17.15"/>
<polygon fill="midnightblue" stroke="midnightblue" points="237.49,-13.65 227.21,-16.2 236.84,-20.62 237.49,-13.65"/>
</g>
</g>
</svg>
