<?xml version="1.0" encoding="UTF-8" standalone="no"?>
<!DOCTYPE svg PUBLIC "-//W3C//DTD SVG 1.1//EN"
 "http://www.w3.org/Graphics/SVG/1.1/DTD/svg11.dtd">
<!-- Generated by graphviz version 2.43.0 (0)
 -->
<!-- Title: align.h Pages: 1 -->
<svg width="3120pt" height="532pt"
 viewBox="0.00 0.00 3119.50 532.00" xmlns="http://www.w3.org/2000/svg" xmlns:xlink="http://www.w3.org/1999/xlink">
<g id="graph0" class="graph" transform="scale(1 1) rotate(0) translate(4 528)">
<title>align.h</title>
<polygon fill="white" stroke="transparent" points="-4,4 -4,-528 3115.5,-528 3115.5,4 -4,4"/>
<!-- Node1 -->
<g id="node1" class="node">
<title>Node1</title>
<g id="a_node1"><a xlink:title=" ">
<polygon fill="#bfbfbf" stroke="black" points="119.5,-504.5 119.5,-523.5 169.5,-523.5 169.5,-504.5 119.5,-504.5"/>
<text text-anchor="middle" x="144.5" y="-511.5" font-family="Helvetica,sans-Serif" font-size="10.00">align.h</text>
</a>
</g>
</g>
<!-- Node2 -->
<g id="node2" class="node">
<title>Node2</title>
<g id="a_node2"><a xlink:href="align_8h.html" target="_top" xlink:title=" ">
<polygon fill="white" stroke="black" points="119.5,-448.5 119.5,-467.5 169.5,-467.5 169.5,-448.5 119.5,-448.5"/>
<text text-anchor="middle" x="144.5" y="-455.5" font-family="Helvetica,sans-Serif" font-size="10.00">align.h</text>
</a>
</g>
</g>
<!-- Node1&#45;&gt;Node2 -->
<g id="edge1" class="edge">
<title>Node1&#45;&gt;Node2</title>
<path fill="none" stroke="midnightblue" d="M144.5,-493.8C144.5,-484.91 144.5,-474.78 144.5,-467.75"/>
<polygon fill="midnightblue" stroke="midnightblue" points="141,-494.08 144.5,-504.08 148,-494.08 141,-494.08"/>
</g>
<!-- Node3 -->
<g id="node3" class="node">
<title>Node3</title>
<g id="a_node3"><a xlink:href="abi-default_2atomic_8h.html" target="_top" xlink:title=" ">
<polygon fill="white" stroke="black" points="0,-280.5 0,-299.5 59,-299.5 59,-280.5 0,-280.5"/>
<text text-anchor="middle" x="29.5" y="-287.5" font-family="Helvetica,sans-Serif" font-size="10.00">atomic.h</text>
</a>
</g>
</g>
<!-- Node2&#45;&gt;Node3 -->
<g id="edge2" class="edge">
<title>Node2&#45;&gt;Node3</title>
<path fill="none" stroke="midnightblue" d="M132.56,-439.76C108.19,-404.59 53.52,-325.68 35.44,-299.57"/>
<polygon fill="midnightblue" stroke="midnightblue" points="129.75,-441.85 138.32,-448.08 135.5,-437.86 129.75,-441.85"/>
</g>
<!-- Node4 -->
<g id="node4" class="node">
<title>Node4</title>
<g id="a_node4"><a xlink:href="abi-default_2cpumask_8h.html" target="_top" xlink:title=" ">
<polygon fill="white" stroke="black" points="77.5,-280.5 77.5,-299.5 147.5,-299.5 147.5,-280.5 77.5,-280.5"/>
<text text-anchor="middle" x="112.5" y="-287.5" font-family="Helvetica,sans-Serif" font-size="10.00">cpumask.h</text>
</a>
</g>
</g>
<!-- Node2&#45;&gt;Node4 -->
<g id="edge3" class="edge">
<title>Node2&#45;&gt;Node4</title>
<path fill="none" stroke="midnightblue" d="M138.7,-438.88C136.24,-430.73 133.49,-420.94 131.5,-412 122.24,-370.27 115.81,-319.48 113.47,-299.58"/>
<polygon fill="midnightblue" stroke="midnightblue" points="135.37,-439.95 141.68,-448.46 142.05,-437.87 135.37,-439.95"/>
</g>
<!-- Node5 -->
<g id="node5" class="node">
<title>Node5</title>
<g id="a_node5"><a xlink:href="spec_2std__types_8h.html" target="_top" xlink:title=" ">
<polygon fill="white" stroke="black" points="141,-392.5 141,-411.5 214,-411.5 214,-392.5 141,-392.5"/>
<text text-anchor="middle" x="177.5" y="-399.5" font-family="Helvetica,sans-Serif" font-size="10.00">std_types.h</text>
</a>
</g>
</g>
<!-- Node2&#45;&gt;Node5 -->
<g id="edge4" class="edge">
<title>Node2&#45;&gt;Node5</title>
<path fill="none" stroke="midnightblue" d="M155.33,-439.27C160.97,-430.05 167.62,-419.17 172.15,-411.75"/>
<polygon fill="midnightblue" stroke="midnightblue" points="152.18,-437.73 149.95,-448.08 158.15,-441.38 152.18,-437.73"/>
</g>
<!-- Node82 -->
<g id="node50" class="node">
<title>Node82</title>
<g id="a_node50"><a xlink:href="time__inlines_8h_source.html" target="_top" xlink:title=" ">
<polygon fill="white" stroke="black" points="232.5,-392.5 232.5,-411.5 318.5,-411.5 318.5,-392.5 232.5,-392.5"/>
<text text-anchor="middle" x="275.5" y="-399.5" font-family="Helvetica,sans-Serif" font-size="10.00">time_inlines.h</text>
</a>
</g>
</g>
<!-- Node2&#45;&gt;Node82 -->
<g id="edge64" class="edge">
<title>Node2&#45;&gt;Node82</title>
<path fill="none" stroke="midnightblue" d="M174.82,-444.5C199.38,-434.38 233.32,-420.39 254.84,-411.52"/>
<polygon fill="midnightblue" stroke="midnightblue" points="173.17,-441.4 165.26,-448.44 175.84,-447.87 173.17,-441.4"/>
</g>
<!-- Node6 -->
<g id="node6" class="node">
<title>Node6</title>
<g id="a_node6"><a xlink:href="std__types_8h.html" target="_top" xlink:title=" ">
<polygon fill="white" stroke="black" points="1202,-336.5 1202,-355.5 1275,-355.5 1275,-336.5 1202,-336.5"/>
<text text-anchor="middle" x="1238.5" y="-343.5" font-family="Helvetica,sans-Serif" font-size="10.00">std_types.h</text>
</a>
</g>
</g>
<!-- Node5&#45;&gt;Node6 -->
<g id="edge5" class="edge">
<title>Node5&#45;&gt;Node6</title>
<path fill="none" stroke="midnightblue" d="M224.09,-392.15C611.94,-346.59 1070.8,-345.85 1201.93,-346.66"/>
<polygon fill="midnightblue" stroke="midnightblue" points="223.6,-388.68 214.08,-393.33 224.42,-395.63 223.6,-388.68"/>
</g>
<!-- Node6&#45;&gt;Node3 -->
<g id="edge6" class="edge">
<title>Node6&#45;&gt;Node3</title>
<path fill="none" stroke="midnightblue" d="M1191.54,-344.37C1001.78,-341.67 291.22,-329.71 68.5,-300 65.47,-299.6 62.33,-299.06 59.2,-298.46"/>
<polygon fill="midnightblue" stroke="midnightblue" points="1191.69,-347.88 1201.74,-344.52 1191.79,-340.88 1191.69,-347.88"/>
</g>
<!-- Node6&#45;&gt;Node4 -->
<g id="edge9" class="edge">
<title>Node6&#45;&gt;Node4</title>
<path fill="none" stroke="midnightblue" d="M1191.59,-344.05C1011.1,-340.24 361.43,-325.06 156.5,-300 153.71,-299.66 150.84,-299.24 147.96,-298.76"/>
<polygon fill="midnightblue" stroke="midnightblue" points="1191.73,-347.55 1201.81,-344.26 1191.88,-340.56 1191.73,-347.55"/>
</g>
<!-- Node7 -->
<g id="node7" class="node">
<title>Node7</title>
<g id="a_node7"><a xlink:href="abi-default_2barrier_8h.html" target="_top" xlink:title=" ">
<polygon fill="white" stroke="black" points="2397,-280.5 2397,-299.5 2454,-299.5 2454,-280.5 2397,-280.5"/>
<text text-anchor="middle" x="2425.5" y="-287.5" font-family="Helvetica,sans-Serif" font-size="10.00">barrier.h</text>
</a>
</g>
</g>
<!-- Node6&#45;&gt;Node7 -->
<g id="edge7" class="edge">
<title>Node6&#45;&gt;Node7</title>
<path fill="none" stroke="midnightblue" d="M1285.29,-344.41C1472.77,-341.87 2170.01,-330.54 2388.5,-300 2391.25,-299.62 2394.09,-299.12 2396.93,-298.55"/>
<polygon fill="midnightblue" stroke="midnightblue" points="1285.16,-340.92 1275.21,-344.55 1285.26,-347.91 1285.16,-340.92"/>
</g>
<!-- Node8 -->
<g id="node8" class="node">
<title>Node8</title>
<g id="a_node8"><a xlink:href="abi-default_2byteorder_8h.html" target="_top" xlink:title=" ">
<polygon fill="white" stroke="black" points="2472.5,-280.5 2472.5,-299.5 2544.5,-299.5 2544.5,-280.5 2472.5,-280.5"/>
<text text-anchor="middle" x="2508.5" y="-287.5" font-family="Helvetica,sans-Serif" font-size="10.00">byteorder.h</text>
</a>
</g>
</g>
<!-- Node6&#45;&gt;Node8 -->
<g id="edge8" class="edge">
<title>Node6&#45;&gt;Node8</title>
<path fill="none" stroke="midnightblue" d="M1285.39,-344.29C1480.52,-341.16 2228.98,-327.58 2463.5,-300 2466.35,-299.67 2469.29,-299.25 2472.23,-298.77"/>
<polygon fill="midnightblue" stroke="midnightblue" points="1285.13,-340.79 1275.19,-344.45 1285.24,-347.79 1285.13,-340.79"/>
</g>
<!-- Node9 -->
<g id="node9" class="node">
<title>Node9</title>
<g id="a_node9"><a xlink:href="abi-default_2init_8h.html" target="_top" xlink:title=" ">
<polygon fill="white" stroke="black" points="2563,-280.5 2563,-299.5 2604,-299.5 2604,-280.5 2563,-280.5"/>
<text text-anchor="middle" x="2583.5" y="-287.5" font-family="Helvetica,sans-Serif" font-size="10.00">init.h</text>
</a>
</g>
</g>
<!-- Node6&#45;&gt;Node9 -->
<g id="edge10" class="edge">
<title>Node6&#45;&gt;Node9</title>
<path fill="none" stroke="midnightblue" d="M1285.22,-345.01C1489.1,-344.8 2301.89,-341.34 2553.5,-300 2556.5,-299.51 2559.63,-298.8 2562.68,-297.99"/>
<polygon fill="midnightblue" stroke="midnightblue" points="1285.14,-341.51 1275.15,-345.02 1285.15,-348.51 1285.14,-341.51"/>
</g>
<!-- Node10 -->
<g id="node10" class="node">
<title>Node10</title>
<g id="a_node10"><a xlink:href="abi-default_2ipsec_8h.html" target="_top" xlink:title=" ">
<polygon fill="white" stroke="black" points="2622,-280.5 2622,-299.5 2673,-299.5 2673,-280.5 2622,-280.5"/>
<text text-anchor="middle" x="2647.5" y="-287.5" font-family="Helvetica,sans-Serif" font-size="10.00">ipsec.h</text>
</a>
</g>
</g>
<!-- Node6&#45;&gt;Node10 -->
<g id="edge11" class="edge">
<title>Node6&#45;&gt;Node10</title>
<path fill="none" stroke="midnightblue" d="M1285.26,-344.89C1494.84,-344.16 2348.87,-338.84 2613.5,-300 2616.16,-299.61 2618.91,-299.09 2621.64,-298.49"/>
<polygon fill="midnightblue" stroke="midnightblue" points="1285.19,-341.39 1275.21,-344.92 1285.22,-348.39 1285.19,-341.39"/>
</g>
<!-- Node11 -->
<g id="node11" class="node">
<title>Node11</title>
<g id="a_node11"><a xlink:href="abi-default_2packet__io_8h.html" target="_top" xlink:title=" ">
<polygon fill="white" stroke="black" points="2691.5,-280.5 2691.5,-299.5 2763.5,-299.5 2763.5,-280.5 2691.5,-280.5"/>
<text text-anchor="middle" x="2727.5" y="-287.5" font-family="Helvetica,sans-Serif" font-size="10.00">packet_io.h</text>
</a>
</g>
</g>
<!-- Node6&#45;&gt;Node11 -->
<g id="edge12" class="edge">
<title>Node6&#45;&gt;Node11</title>
<path fill="none" stroke="midnightblue" d="M1285.08,-344.59C1500.61,-342.54 2402.4,-332.15 2682.5,-300 2685.35,-299.67 2688.29,-299.26 2691.23,-298.79"/>
<polygon fill="midnightblue" stroke="midnightblue" points="1285.02,-341.09 1275.05,-344.68 1285.09,-348.09 1285.02,-341.09"/>
</g>
<!-- Node12 -->
<g id="node12" class="node">
<title>Node12</title>
<g id="a_node12"><a xlink:href="abi-default_2rwlock__recursive_8h.html" target="_top" xlink:title=" ">
<polygon fill="white" stroke="black" points="2781.5,-280.5 2781.5,-299.5 2889.5,-299.5 2889.5,-280.5 2781.5,-280.5"/>
<text text-anchor="middle" x="2835.5" y="-287.5" font-family="Helvetica,sans-Serif" font-size="10.00">rwlock_recursive.h</text>
</a>
</g>
</g>
<!-- Node6&#45;&gt;Node12 -->
<g id="edge13" class="edge">
<title>Node6&#45;&gt;Node12</title>
<path fill="none" stroke="midnightblue" d="M1285.39,-344.34C1509.5,-341.06 2472.97,-325.71 2772.5,-300 2775.36,-299.75 2778.29,-299.47 2781.25,-299.15"/>
<polygon fill="midnightblue" stroke="midnightblue" points="1285.23,-340.84 1275.28,-344.48 1285.33,-347.84 1285.23,-340.84"/>
</g>
<!-- Node13 -->
<g id="node13" class="node">
<title>Node13</title>
<g id="a_node13"><a xlink:href="abi-default_2schedule_8h.html" target="_top" xlink:title=" ">
<polygon fill="white" stroke="black" points="2908,-280.5 2908,-299.5 2977,-299.5 2977,-280.5 2908,-280.5"/>
<text text-anchor="middle" x="2942.5" y="-287.5" font-family="Helvetica,sans-Serif" font-size="10.00">schedule.h</text>
</a>
</g>
</g>
<!-- Node6&#45;&gt;Node13 -->
<g id="edge14" class="edge">
<title>Node6&#45;&gt;Node13</title>
<path fill="none" stroke="midnightblue" d="M1285.41,-344.84C1520.68,-343.84 2573.58,-337.34 2898.5,-300 2901.44,-299.66 2904.48,-299.23 2907.52,-298.73"/>
<polygon fill="midnightblue" stroke="midnightblue" points="1285.14,-341.34 1275.15,-344.88 1285.17,-348.34 1285.14,-341.34"/>
</g>
<!-- Node14 -->
<g id="node14" class="node">
<title>Node14</title>
<g id="a_node14"><a xlink:href="abi-default_2spinlock__recursive_8h.html" target="_top" xlink:title=" ">
<polygon fill="white" stroke="black" points="2995.5,-280.5 2995.5,-299.5 3111.5,-299.5 3111.5,-280.5 2995.5,-280.5"/>
<text text-anchor="middle" x="3053.5" y="-287.5" font-family="Helvetica,sans-Serif" font-size="10.00">spinlock_recursive.h</text>
</a>
</g>
</g>
<!-- Node6&#45;&gt;Node14 -->
<g id="edge15" class="edge">
<title>Node6&#45;&gt;Node14</title>
<path fill="none" stroke="midnightblue" d="M1285.5,-344.48C1528.26,-341.67 2642.1,-327.48 2986.5,-300 2989.42,-299.77 2992.42,-299.49 2995.44,-299.19"/>
<polygon fill="midnightblue" stroke="midnightblue" points="1285.21,-340.98 1275.26,-344.59 1285.29,-347.98 1285.21,-340.98"/>
</g>
<!-- Node15 -->
<g id="node15" class="node">
<title>Node15</title>
<g id="a_node15"><a xlink:href="abi-default_2traffic__mngr_8h.html" target="_top" xlink:title=" ">
<polygon fill="white" stroke="black" points="165.5,-280.5 165.5,-299.5 249.5,-299.5 249.5,-280.5 165.5,-280.5"/>
<text text-anchor="middle" x="207.5" y="-287.5" font-family="Helvetica,sans-Serif" font-size="10.00">traffic_mngr.h</text>
</a>
</g>
</g>
<!-- Node6&#45;&gt;Node15 -->
<g id="edge16" class="edge">
<title>Node6&#45;&gt;Node15</title>
<path fill="none" stroke="midnightblue" d="M1191.84,-344.99C1050.71,-344.48 616.05,-339.59 258.5,-300 255.64,-299.68 252.7,-299.31 249.74,-298.89"/>
<polygon fill="midnightblue" stroke="midnightblue" points="1191.87,-348.49 1201.88,-345.02 1191.89,-341.49 1191.87,-348.49"/>
</g>
<!-- Node16 -->
<g id="node16" class="node">
<title>Node16</title>
<g id="a_node16"><a xlink:href="barrier_8h.html" target="_top" xlink:title=" ">
<polygon fill="white" stroke="black" points="268,-280.5 268,-299.5 325,-299.5 325,-280.5 268,-280.5"/>
<text text-anchor="middle" x="296.5" y="-287.5" font-family="Helvetica,sans-Serif" font-size="10.00">barrier.h</text>
</a>
</g>
</g>
<!-- Node6&#45;&gt;Node16 -->
<g id="edge17" class="edge">
<title>Node6&#45;&gt;Node16</title>
<path fill="none" stroke="midnightblue" d="M1191.72,-343.84C1030.96,-339.68 501.74,-324.42 333.5,-300 330.75,-299.6 327.91,-299.09 325.08,-298.52"/>
<polygon fill="midnightblue" stroke="midnightblue" points="1191.69,-347.34 1201.77,-344.1 1191.87,-340.34 1191.69,-347.34"/>
</g>
<!-- Node17 -->
<g id="node17" class="node">
<title>Node17</title>
<g id="a_node17"><a xlink:href="buffer_8h.html" target="_top" xlink:title=" ">
<polygon fill="white" stroke="black" points="343,-280.5 343,-299.5 396,-299.5 396,-280.5 343,-280.5"/>
<text text-anchor="middle" x="369.5" y="-287.5" font-family="Helvetica,sans-Serif" font-size="10.00">buffer.h</text>
</a>
</g>
</g>
<!-- Node6&#45;&gt;Node17 -->
<g id="edge18" class="edge">
<title>Node6&#45;&gt;Node17</title>
<path fill="none" stroke="midnightblue" d="M1191.88,-345.1C1065.51,-344.81 706.03,-340.2 410.5,-300 405.88,-299.37 401.01,-298.49 396.3,-297.53"/>
<polygon fill="midnightblue" stroke="midnightblue" points="1191.98,-348.6 1201.98,-345.12 1191.99,-341.6 1191.98,-348.6"/>
</g>
<!-- Node18 -->
<g id="node18" class="node">
<title>Node18</title>
<g id="a_node18"><a xlink:href="classification_8h.html" target="_top" xlink:title=" ">
<polygon fill="white" stroke="black" points="491,-56.5 491,-75.5 580,-75.5 580,-56.5 491,-56.5"/>
<text text-anchor="middle" x="535.5" y="-63.5" font-family="Helvetica,sans-Serif" font-size="10.00">classification.h</text>
</a>
</g>
</g>
<!-- Node6&#45;&gt;Node18 -->
<g id="edge19" class="edge">
<title>Node6&#45;&gt;Node18</title>
<path fill="none" stroke="midnightblue" d="M1191.71,-345.61C1055.63,-346.8 662.14,-346.08 543.5,-300 500.47,-283.29 462.5,-281.16 462.5,-235 462.5,-235 462.5,-235 462.5,-177 462.5,-146.9 465,-137.17 481.5,-112 491.67,-96.49 508.8,-83.53 521.04,-75.56"/>
<polygon fill="midnightblue" stroke="midnightblue" points="1191.85,-349.11 1201.81,-345.51 1191.78,-342.11 1191.85,-349.11"/>
</g>
<!-- Node19 -->
<g id="node19" class="node">
<title>Node19</title>
<g id="a_node19"><a xlink:href="spec_2ipsec_8h.html" target="_top" xlink:title=" ">
<polygon fill="white" stroke="red" points="597,-0.5 597,-19.5 648,-19.5 648,-0.5 597,-0.5"/>
<text text-anchor="middle" x="622.5" y="-7.5" font-family="Helvetica,sans-Serif" font-size="10.00">ipsec.h</text>
</a>
</g>
</g>
<!-- Node6&#45;&gt;Node19 -->
<g id="edge46" class="edge">
<title>Node6&#45;&gt;Node19</title>
<path fill="none" stroke="midnightblue" d="M1191.92,-344.16C1037.91,-341.13 551.32,-329.3 487.5,-300 450.94,-283.21 424.5,-275.23 424.5,-235 424.5,-235 424.5,-235 424.5,-121 424.5,-43.14 542.94,-19.92 596.61,-13.39"/>
<polygon fill="midnightblue" stroke="midnightblue" points="1191.93,-347.66 1202,-344.36 1192.07,-340.67 1191.93,-347.66"/>
</g>
<!-- Node21 -->
<g id="node20" class="node">
<title>Node21</title>
<g id="a_node20"><a xlink:href="crypto_8h.html" target="_top" xlink:title=" ">
<polygon fill="white" stroke="black" points="719.5,-168.5 719.5,-187.5 775.5,-187.5 775.5,-168.5 719.5,-168.5"/>
<text text-anchor="middle" x="747.5" y="-175.5" font-family="Helvetica,sans-Serif" font-size="10.00">crypto.h</text>
</a>
</g>
</g>
<!-- Node6&#45;&gt;Node21 -->
<g id="edge21" class="edge">
<title>Node6&#45;&gt;Node21</title>
<path fill="none" stroke="midnightblue" d="M1191.83,-342.36C1101.34,-336.77 909.17,-322.36 889.5,-300 848.55,-253.43 1046.42,-271.45 1006.5,-224 977.27,-189.25 836.98,-181.33 775.95,-179.53"/>
<polygon fill="midnightblue" stroke="midnightblue" points="1191.63,-345.86 1201.82,-342.97 1192.05,-338.87 1191.63,-345.86"/>
</g>
<!-- Node22 -->
<g id="node21" class="node">
<title>Node22</title>
<g id="a_node21"><a xlink:href="packet_8h.html" target="_top" xlink:title=" ">
<polygon fill="white" stroke="black" points="708.5,-280.5 708.5,-299.5 766.5,-299.5 766.5,-280.5 708.5,-280.5"/>
<text text-anchor="middle" x="737.5" y="-287.5" font-family="Helvetica,sans-Serif" font-size="10.00">packet.h</text>
</a>
</g>
</g>
<!-- Node6&#45;&gt;Node22 -->
<g id="edge23" class="edge">
<title>Node6&#45;&gt;Node22</title>
<path fill="none" stroke="midnightblue" d="M1191.69,-342.08C1108.57,-336.53 929.89,-322.9 780.5,-300 775.98,-299.31 771.21,-298.44 766.57,-297.53"/>
<polygon fill="midnightblue" stroke="midnightblue" points="1191.61,-345.59 1201.82,-342.75 1192.07,-338.6 1191.61,-345.59"/>
</g>
<!-- Node23 -->
<g id="node22" class="node">
<title>Node23</title>
<g id="a_node22"><a xlink:href="spec_2comp_8h.html" target="_top" xlink:title=" ">
<polygon fill="white" stroke="red" points="840,-224.5 840,-243.5 893,-243.5 893,-224.5 840,-224.5"/>
<text text-anchor="middle" x="866.5" y="-231.5" font-family="Helvetica,sans-Serif" font-size="10.00">comp.h</text>
</a>
</g>
</g>
<!-- Node6&#45;&gt;Node23 -->
<g id="edge41" class="edge">
<title>Node6&#45;&gt;Node23</title>
<path fill="none" stroke="midnightblue" d="M1191.92,-343.06C1093.21,-338.45 870.09,-325.34 847.5,-300 833.1,-283.85 849.22,-257.34 859.42,-243.7"/>
<polygon fill="midnightblue" stroke="midnightblue" points="1191.77,-346.55 1201.92,-343.51 1192.09,-339.56 1191.77,-346.55"/>
</g>
<!-- Node25 -->
<g id="node23" class="node">
<title>Node25</title>
<g id="a_node23"><a xlink:href="spec_2crypto_8h.html" target="_top" xlink:title=" ">
<polygon fill="white" stroke="black" points="694.5,-224.5 694.5,-243.5 750.5,-243.5 750.5,-224.5 694.5,-224.5"/>
<text text-anchor="middle" x="722.5" y="-231.5" font-family="Helvetica,sans-Serif" font-size="10.00">crypto.h</text>
</a>
</g>
</g>
<!-- Node6&#45;&gt;Node25 -->
<g id="edge43" class="edge">
<title>Node6&#45;&gt;Node25</title>
<path fill="none" stroke="midnightblue" d="M1191.64,-344.63C1066.63,-343.16 732.51,-335.88 699.5,-300 684.59,-283.79 702.99,-257.3 714.53,-243.69"/>
<polygon fill="midnightblue" stroke="midnightblue" points="1191.63,-348.13 1201.67,-344.74 1191.71,-341.13 1191.63,-348.13"/>
</g>
<!-- Node39 -->
<g id="node25" class="node">
<title>Node39</title>
<g id="a_node25"><a xlink:href="spec_2packet__flags_8h.html" target="_top" xlink:title=" ">
<polygon fill="white" stroke="red" points="911.5,-224.5 911.5,-243.5 997.5,-243.5 997.5,-224.5 911.5,-224.5"/>
<text text-anchor="middle" x="954.5" y="-231.5" font-family="Helvetica,sans-Serif" font-size="10.00">packet_flags.h</text>
</a>
</g>
</g>
<!-- Node6&#45;&gt;Node39 -->
<g id="edge47" class="edge">
<title>Node6&#45;&gt;Node39</title>
<path fill="none" stroke="midnightblue" d="M1191.64,-342.91C1094.51,-338.08 878.44,-324.68 856.5,-300 833.64,-274.29 883.33,-254.27 919.97,-243.58"/>
<polygon fill="midnightblue" stroke="midnightblue" points="1191.61,-346.41 1201.77,-343.4 1191.95,-339.42 1191.61,-346.41"/>
</g>
<!-- Node33 -->
<g id="node27" class="node">
<title>Node33</title>
<g id="a_node27"><a xlink:href="packet__io_8h.html" target="_top" xlink:title=" ">
<polygon fill="white" stroke="black" points="603.5,-168.5 603.5,-187.5 675.5,-187.5 675.5,-168.5 603.5,-168.5"/>
<text text-anchor="middle" x="639.5" y="-175.5" font-family="Helvetica,sans-Serif" font-size="10.00">packet_io.h</text>
</a>
</g>
</g>
<!-- Node6&#45;&gt;Node33 -->
<g id="edge35" class="edge">
<title>Node6&#45;&gt;Node33</title>
<path fill="none" stroke="midnightblue" d="M1191.52,-345.31C1050.16,-345.77 635.94,-343.37 595.5,-300 572.46,-275.3 582.75,-255.28 595.5,-224 601.77,-208.62 616.11,-195.64 626.72,-187.63"/>
<polygon fill="midnightblue" stroke="midnightblue" points="1191.63,-348.81 1201.61,-345.27 1191.6,-341.81 1191.63,-348.81"/>
</g>
<!-- Node34 -->
<g id="node28" class="node">
<title>Node34</title>
<g id="a_node28"><a xlink:href="spec_2classification_8h.html" target="_top" xlink:title=" ">
<polygon fill="white" stroke="black" points="491,-112.5 491,-131.5 580,-131.5 580,-112.5 491,-112.5"/>
<text text-anchor="middle" x="535.5" y="-119.5" font-family="Helvetica,sans-Serif" font-size="10.00">classification.h</text>
</a>
</g>
</g>
<!-- Node6&#45;&gt;Node34 -->
<g id="edge40" class="edge">
<title>Node6&#45;&gt;Node34</title>
<path fill="none" stroke="midnightblue" d="M1191.35,-345.22C1045.33,-345.45 607.56,-342.54 561.5,-300 512.44,-254.69 527.45,-160.64 533.51,-131.68"/>
<polygon fill="midnightblue" stroke="midnightblue" points="1191.77,-348.72 1201.76,-345.2 1191.75,-341.72 1191.77,-348.72"/>
</g>
<!-- Node35 -->
<g id="node29" class="node">
<title>Node35</title>
<g id="a_node29"><a xlink:href="spec_2traffic__mngr_8h.html" target="_top" xlink:title=" ">
<polygon fill="white" stroke="red" points="597.5,-112.5 597.5,-131.5 681.5,-131.5 681.5,-112.5 597.5,-112.5"/>
<text text-anchor="middle" x="639.5" y="-119.5" font-family="Helvetica,sans-Serif" font-size="10.00">traffic_mngr.h</text>
</a>
</g>
</g>
<!-- Node6&#45;&gt;Node35 -->
<g id="edge58" class="edge">
<title>Node6&#45;&gt;Node35</title>
<path fill="none" stroke="midnightblue" d="M1191.35,-345.4C1047.44,-346.14 621.07,-344.51 579.5,-300 539.2,-256.85 567.18,-220.34 594.5,-168 602.37,-152.92 617.06,-139.7 627.51,-131.56"/>
<polygon fill="midnightblue" stroke="midnightblue" points="1191.63,-348.9 1201.61,-345.34 1191.59,-341.9 1191.63,-348.9"/>
</g>
<!-- Node41 -->
<g id="node30" class="node">
<title>Node41</title>
<g id="a_node30"><a xlink:href="proto__stats_8h.html" target="_top" xlink:title=" ">
<polygon fill="white" stroke="black" points="898.5,-280.5 898.5,-299.5 978.5,-299.5 978.5,-280.5 898.5,-280.5"/>
<text text-anchor="middle" x="938.5" y="-287.5" font-family="Helvetica,sans-Serif" font-size="10.00">proto_stats.h</text>
</a>
</g>
</g>
<!-- Node6&#45;&gt;Node41 -->
<g id="edge36" class="edge">
<title>Node6&#45;&gt;Node41</title>
<path fill="none" stroke="midnightblue" d="M1191.97,-336.72C1141.57,-327.74 1058.82,-312.94 987.5,-300 984.61,-299.47 981.62,-298.93 978.61,-298.38"/>
<polygon fill="midnightblue" stroke="midnightblue" points="1191.45,-340.18 1201.91,-338.49 1192.68,-333.29 1191.45,-340.18"/>
</g>
<!-- Node29 -->
<g id="node31" class="node">
<title>Node29</title>
<g id="a_node31"><a xlink:href="queue_8h.html" target="_top" xlink:title=" ">
<polygon fill="white" stroke="black" points="996.5,-280.5 996.5,-299.5 1052.5,-299.5 1052.5,-280.5 996.5,-280.5"/>
<text text-anchor="middle" x="1024.5" y="-287.5" font-family="Helvetica,sans-Serif" font-size="10.00">queue.h</text>
</a>
</g>
</g>
<!-- Node6&#45;&gt;Node29 -->
<g id="edge37" class="edge">
<title>Node6&#45;&gt;Node29</title>
<path fill="none" stroke="midnightblue" d="M1194.8,-333.97C1152.32,-323.25 1089.05,-307.29 1052.78,-298.14"/>
<polygon fill="midnightblue" stroke="midnightblue" points="1194.04,-337.39 1204.59,-336.44 1195.75,-330.6 1194.04,-337.39"/>
</g>
<!-- Node42 -->
<g id="node33" class="node">
<title>Node42</title>
<g id="a_node33"><a xlink:href="spec_2chksum_8h.html" target="_top" xlink:title=" ">
<polygon fill="white" stroke="red" points="1070.5,-280.5 1070.5,-299.5 1134.5,-299.5 1134.5,-280.5 1070.5,-280.5"/>
<text text-anchor="middle" x="1102.5" y="-287.5" font-family="Helvetica,sans-Serif" font-size="10.00">chksum.h</text>
</a>
</g>
</g>
<!-- Node6&#45;&gt;Node42 -->
<g id="edge39" class="edge">
<title>Node6&#45;&gt;Node42</title>
<path fill="none" stroke="midnightblue" d="M1207.37,-332.64C1181.84,-322.5 1146.39,-308.43 1123.95,-299.52"/>
<polygon fill="midnightblue" stroke="midnightblue" points="1206.36,-336.01 1216.95,-336.44 1208.95,-329.5 1206.36,-336.01"/>
</g>
<!-- Node44 -->
<g id="node34" class="node">
<title>Node44</title>
<g id="a_node34"><a xlink:href="spec_2cpu_8h.html" target="_top" xlink:title=" ">
<polygon fill="white" stroke="red" points="1153,-280.5 1153,-299.5 1196,-299.5 1196,-280.5 1153,-280.5"/>
<text text-anchor="middle" x="1174.5" y="-287.5" font-family="Helvetica,sans-Serif" font-size="10.00">cpu.h</text>
</a>
</g>
</g>
<!-- Node6&#45;&gt;Node44 -->
<g id="edge42" class="edge">
<title>Node6&#45;&gt;Node44</title>
<path fill="none" stroke="midnightblue" d="M1220.51,-329.82C1209.04,-320.15 1194.59,-307.95 1184.97,-299.83"/>
<polygon fill="midnightblue" stroke="midnightblue" points="1218.32,-332.55 1228.22,-336.32 1222.83,-327.2 1218.32,-332.55"/>
</g>
<!-- Node47 -->
<g id="node35" class="node">
<title>Node47</title>
<g id="a_node35"><a xlink:href="spec_2hash_8h.html" target="_top" xlink:title=" ">
<polygon fill="white" stroke="red" points="1214,-280.5 1214,-299.5 1263,-299.5 1263,-280.5 1214,-280.5"/>
<text text-anchor="middle" x="1238.5" y="-287.5" font-family="Helvetica,sans-Serif" font-size="10.00">hash.h</text>
</a>
</g>
</g>
<!-- Node6&#45;&gt;Node47 -->
<g id="edge44" class="edge">
<title>Node6&#45;&gt;Node47</title>
<path fill="none" stroke="midnightblue" d="M1238.5,-325.8C1238.5,-316.91 1238.5,-306.78 1238.5,-299.75"/>
<polygon fill="midnightblue" stroke="midnightblue" points="1235,-326.08 1238.5,-336.08 1242,-326.08 1235,-326.08"/>
</g>
<!-- Node49 -->
<g id="node36" class="node">
<title>Node49</title>
<g id="a_node36"><a xlink:href="spec_2init_8h.html" target="_top" xlink:title=" ">
<polygon fill="white" stroke="red" points="1281,-280.5 1281,-299.5 1322,-299.5 1322,-280.5 1281,-280.5"/>
<text text-anchor="middle" x="1301.5" y="-287.5" font-family="Helvetica,sans-Serif" font-size="10.00">init.h</text>
</a>
</g>
</g>
<!-- Node6&#45;&gt;Node49 -->
<g id="edge45" class="edge">
<title>Node6&#45;&gt;Node49</title>
<path fill="none" stroke="midnightblue" d="M1256.54,-329.54C1267.77,-319.91 1281.82,-307.87 1291.19,-299.83"/>
<polygon fill="midnightblue" stroke="midnightblue" points="1253.94,-327.16 1248.62,-336.32 1258.49,-332.47 1253.94,-327.16"/>
</g>
<!-- Node54 -->
<g id="node37" class="node">
<title>Node54</title>
<g id="a_node37"><a xlink:href="spec_2pool_8h.html" target="_top" xlink:title=" ">
<polygon fill="white" stroke="red" points="1361,-224.5 1361,-243.5 1408,-243.5 1408,-224.5 1361,-224.5"/>
<text text-anchor="middle" x="1384.5" y="-231.5" font-family="Helvetica,sans-Serif" font-size="10.00">pool.h</text>
</a>
</g>
</g>
<!-- Node6&#45;&gt;Node54 -->
<g id="edge48" class="edge">
<title>Node6&#45;&gt;Node54</title>
<path fill="none" stroke="midnightblue" d="M1272.99,-332.56C1291.47,-324.89 1313.96,-313.86 1331.5,-300 1352.52,-283.39 1370.7,-257.08 1379.27,-243.59"/>
<polygon fill="midnightblue" stroke="midnightblue" points="1271.46,-329.4 1263.47,-336.36 1274.06,-335.9 1271.46,-329.4"/>
</g>
<!-- Node57 -->
<g id="node38" class="node">
<title>Node57</title>
<g id="a_node38"><a xlink:href="pool__types_8h.html" target="_top" xlink:title=" ">
<polygon fill="white" stroke="black" points="1379,-280.5 1379,-299.5 1458,-299.5 1458,-280.5 1379,-280.5"/>
<text text-anchor="middle" x="1418.5" y="-287.5" font-family="Helvetica,sans-Serif" font-size="10.00">pool_types.h</text>
</a>
</g>
</g>
<!-- Node6&#45;&gt;Node57 -->
<g id="edge49" class="edge">
<title>Node6&#45;&gt;Node57</title>
<path fill="none" stroke="midnightblue" d="M1276.61,-333.57C1310.56,-323.38 1359.49,-308.7 1390.11,-299.52"/>
<polygon fill="midnightblue" stroke="midnightblue" points="1275.59,-330.22 1267.02,-336.44 1277.61,-336.92 1275.59,-330.22"/>
</g>
<!-- Node58 -->
<g id="node39" class="node">
<title>Node58</title>
<g id="a_node39"><a xlink:href="spec_2proto__stats__types_8h.html" target="_top" xlink:title=" ">
<polygon fill="white" stroke="red" points="1476,-280.5 1476,-299.5 1589,-299.5 1589,-280.5 1476,-280.5"/>
<text text-anchor="middle" x="1532.5" y="-287.5" font-family="Helvetica,sans-Serif" font-size="10.00">proto_stats_types.h</text>
</a>
</g>
</g>
<!-- Node6&#45;&gt;Node58 -->
<g id="edge51" class="edge">
<title>Node6&#45;&gt;Node58</title>
<path fill="none" stroke="midnightblue" d="M1284.98,-336.46C1340.04,-326.35 1431.2,-309.61 1486.18,-299.51"/>
<polygon fill="midnightblue" stroke="midnightblue" points="1284.34,-333.02 1275.14,-338.27 1285.61,-339.91 1284.34,-333.02"/>
</g>
<!-- Node37 -->
<g id="node40" class="node">
<title>Node37</title>
<g id="a_node40"><a xlink:href="spec_2schedule_8h.html" target="_top" xlink:title=" ">
<polygon fill="white" stroke="red" points="1607,-280.5 1607,-299.5 1676,-299.5 1676,-280.5 1607,-280.5"/>
<text text-anchor="middle" x="1641.5" y="-287.5" font-family="Helvetica,sans-Serif" font-size="10.00">schedule.h</text>
</a>
</g>
</g>
<!-- Node6&#45;&gt;Node37 -->
<g id="edge52" class="edge">
<title>Node6&#45;&gt;Node37</title>
<path fill="none" stroke="midnightblue" d="M1285.27,-340.39C1354.11,-333.33 1486.66,-318.66 1598.5,-300 1601.21,-299.55 1604.01,-299.05 1606.81,-298.51"/>
<polygon fill="midnightblue" stroke="midnightblue" points="1284.78,-336.92 1275.18,-341.42 1285.48,-343.89 1284.78,-336.92"/>
</g>
<!-- Node64 -->
<g id="node41" class="node">
<title>Node64</title>
<g id="a_node41"><a xlink:href="spec_2schedule__types_8h.html" target="_top" xlink:title=" ">
<polygon fill="white" stroke="red" points="1694,-280.5 1694,-299.5 1795,-299.5 1795,-280.5 1694,-280.5"/>
<text text-anchor="middle" x="1744.5" y="-287.5" font-family="Helvetica,sans-Serif" font-size="10.00">schedule_types.h</text>
</a>
</g>
</g>
<!-- Node6&#45;&gt;Node64 -->
<g id="edge53" class="edge">
<title>Node6&#45;&gt;Node64</title>
<path fill="none" stroke="midnightblue" d="M1285.5,-341.06C1367.04,-334.06 1539.98,-318.41 1685.5,-300 1688.28,-299.65 1691.12,-299.27 1693.99,-298.88"/>
<polygon fill="midnightblue" stroke="midnightblue" points="1284.74,-337.62 1275.07,-341.95 1285.34,-344.59 1284.74,-337.62"/>
</g>
<!-- Node70 -->
<g id="node42" class="node">
<title>Node70</title>
<g id="a_node42"><a xlink:href="spec_2stash_8h.html" target="_top" xlink:title=" ">
<polygon fill="white" stroke="red" points="1813.5,-280.5 1813.5,-299.5 1865.5,-299.5 1865.5,-280.5 1813.5,-280.5"/>
<text text-anchor="middle" x="1839.5" y="-287.5" font-family="Helvetica,sans-Serif" font-size="10.00">stash.h</text>
</a>
</g>
</g>
<!-- Node6&#45;&gt;Node70 -->
<g id="edge54" class="edge">
<title>Node6&#45;&gt;Node70</title>
<path fill="none" stroke="midnightblue" d="M1285.28,-344C1382.58,-341.33 1613.6,-331.89 1804.5,-300 1807.35,-299.52 1810.3,-298.93 1813.23,-298.27"/>
<polygon fill="midnightblue" stroke="midnightblue" points="1285.09,-340.51 1275.19,-344.27 1285.27,-347.5 1285.09,-340.51"/>
</g>
<!-- Node72 -->
<g id="node43" class="node">
<title>Node72</title>
<g id="a_node43"><a xlink:href="spec_2std_8h.html" target="_top" xlink:title=" ">
<polygon fill="white" stroke="red" points="1884,-280.5 1884,-299.5 1925,-299.5 1925,-280.5 1884,-280.5"/>
<text text-anchor="middle" x="1904.5" y="-287.5" font-family="Helvetica,sans-Serif" font-size="10.00">std.h</text>
</a>
</g>
</g>
<!-- Node6&#45;&gt;Node72 -->
<g id="edge55" class="edge">
<title>Node6&#45;&gt;Node72</title>
<path fill="none" stroke="midnightblue" d="M1285.09,-345.2C1390.81,-344.91 1656.64,-339.88 1874.5,-300 1877.6,-299.43 1880.84,-298.66 1883.99,-297.8"/>
<polygon fill="midnightblue" stroke="midnightblue" points="1285.06,-341.7 1275.06,-345.22 1285.07,-348.7 1285.06,-341.7"/>
</g>
<!-- Node74 -->
<g id="node44" class="node">
<title>Node74</title>
<g id="a_node44"><a xlink:href="spec_2threshold_8h.html" target="_top" xlink:title=" ">
<polygon fill="white" stroke="red" points="1943,-280.5 1943,-299.5 2014,-299.5 2014,-280.5 1943,-280.5"/>
<text text-anchor="middle" x="1978.5" y="-287.5" font-family="Helvetica,sans-Serif" font-size="10.00">threshold.h</text>
</a>
</g>
</g>
<!-- Node6&#45;&gt;Node74 -->
<g id="edge56" class="edge">
<title>Node6&#45;&gt;Node74</title>
<path fill="none" stroke="midnightblue" d="M1285.6,-344.18C1398.22,-341.74 1691.8,-332.51 1934.5,-300 1937.13,-299.65 1939.83,-299.23 1942.55,-298.77"/>
<polygon fill="midnightblue" stroke="midnightblue" points="1285.2,-340.69 1275.27,-344.4 1285.35,-347.69 1285.2,-340.69"/>
</g>
<!-- Node76 -->
<g id="node45" class="node">
<title>Node76</title>
<g id="a_node45"><a xlink:href="spec_2thrmask_8h.html" target="_top" xlink:title=" ">
<polygon fill="white" stroke="red" points="2032.5,-280.5 2032.5,-299.5 2098.5,-299.5 2098.5,-280.5 2032.5,-280.5"/>
<text text-anchor="middle" x="2065.5" y="-287.5" font-family="Helvetica,sans-Serif" font-size="10.00">thrmask.h</text>
</a>
</g>
</g>
<!-- Node6&#45;&gt;Node76 -->
<g id="edge57" class="edge">
<title>Node6&#45;&gt;Node76</title>
<path fill="none" stroke="midnightblue" d="M1285.18,-344.82C1407.15,-343.82 1745.15,-337.57 2023.5,-300 2026.31,-299.62 2029.21,-299.16 2032.11,-298.64"/>
<polygon fill="midnightblue" stroke="midnightblue" points="1285.05,-341.32 1275.08,-344.9 1285.1,-348.32 1285.05,-341.32"/>
</g>
<!-- Node78 -->
<g id="node46" class="node">
<title>Node78</title>
<g id="a_node46"><a xlink:href="system__info_8h.html" target="_top" xlink:title=" ">
<polygon fill="white" stroke="black" points="2116.5,-280.5 2116.5,-299.5 2202.5,-299.5 2202.5,-280.5 2116.5,-280.5"/>
<text text-anchor="middle" x="2159.5" y="-287.5" font-family="Helvetica,sans-Serif" font-size="10.00">system_info.h</text>
</a>
</g>
</g>
<!-- Node6&#45;&gt;Node78 -->
<g id="edge59" class="edge">
<title>Node6&#45;&gt;Node78</title>
<path fill="none" stroke="midnightblue" d="M1285.09,-344.55C1415.42,-342.85 1794.69,-335.04 2107.5,-300 2110.41,-299.67 2113.41,-299.29 2116.43,-298.86"/>
<polygon fill="midnightblue" stroke="midnightblue" points="1285.01,-341.05 1275.05,-344.67 1285.1,-348.05 1285.01,-341.05"/>
</g>
<!-- Node79 -->
<g id="node47" class="node">
<title>Node79</title>
<g id="a_node47"><a xlink:href="time_8h.html" target="_top" xlink:title=" ">
<polygon fill="white" stroke="red" points="604.5,-280.5 604.5,-299.5 652.5,-299.5 652.5,-280.5 604.5,-280.5"/>
<text text-anchor="middle" x="628.5" y="-287.5" font-family="Helvetica,sans-Serif" font-size="10.00">time.h</text>
</a>
</g>
</g>
<!-- Node6&#45;&gt;Node79 -->
<g id="edge60" class="edge">
<title>Node6&#45;&gt;Node79</title>
<path fill="none" stroke="midnightblue" d="M1191.63,-343.76C1093.6,-340.62 859.96,-330.33 666.5,-300 661.95,-299.29 657.13,-298.32 652.51,-297.28"/>
<polygon fill="midnightblue" stroke="midnightblue" points="1191.7,-347.26 1201.8,-344.07 1191.91,-340.26 1191.7,-347.26"/>
</g>
<!-- Node80 -->
<g id="node48" class="node">
<title>Node80</title>
<g id="a_node48"><a xlink:href="timer_8h.html" target="_top" xlink:title=" ">
<polygon fill="white" stroke="black" points="2221,-280.5 2221,-299.5 2272,-299.5 2272,-280.5 2221,-280.5"/>
<text text-anchor="middle" x="2246.5" y="-287.5" font-family="Helvetica,sans-Serif" font-size="10.00">timer.h</text>
</a>
</g>
</g>
<!-- Node6&#45;&gt;Node80 -->
<g id="edge62" class="edge">
<title>Node6&#45;&gt;Node80</title>
<path fill="none" stroke="midnightblue" d="M1285.11,-344.11C1453.44,-340.72 2029.47,-327.32 2211.5,-300 2214.48,-299.55 2217.57,-298.96 2220.63,-298.28"/>
<polygon fill="midnightblue" stroke="midnightblue" points="1285.01,-340.61 1275.09,-344.31 1285.15,-347.61 1285.01,-340.61"/>
</g>
<!-- Node81 -->
<g id="node49" class="node">
<title>Node81</title>
<g id="a_node49"><a xlink:href="strong__types_8h.html" target="_top" xlink:title=" ">
<polygon fill="white" stroke="black" points="2290,-280.5 2290,-299.5 2379,-299.5 2379,-280.5 2290,-280.5"/>
<text text-anchor="middle" x="2334.5" y="-287.5" font-family="Helvetica,sans-Serif" font-size="10.00">strong_types.h</text>
</a>
</g>
</g>
<!-- Node6&#45;&gt;Node81 -->
<g id="edge63" class="edge">
<title>Node6&#45;&gt;Node81</title>
<path fill="none" stroke="midnightblue" d="M1285.13,-345.06C1432.04,-344.82 1898.24,-340.65 2281.5,-300 2284.19,-299.71 2286.95,-299.38 2289.74,-299.01"/>
<polygon fill="midnightblue" stroke="midnightblue" points="1285.11,-341.56 1275.11,-345.07 1285.12,-348.56 1285.11,-341.56"/>
</g>
<!-- Node18&#45;&gt;Node19 -->
<g id="edge20" class="edge">
<title>Node18&#45;&gt;Node19</title>
<path fill="none" stroke="midnightblue" d="M558.22,-50.9C574.17,-41 595,-28.07 608.56,-19.65"/>
<polygon fill="midnightblue" stroke="midnightblue" points="556.13,-48.08 549.48,-56.32 559.82,-54.02 556.13,-48.08"/>
</g>
<!-- Node21&#45;&gt;Node19 -->
<g id="edge22" class="edge">
<title>Node21&#45;&gt;Node19</title>
<path fill="none" stroke="midnightblue" d="M740.72,-158.95C730.7,-133.92 710.11,-88.12 682.5,-56 669.51,-40.89 650.62,-27.77 637.52,-19.66"/>
<polygon fill="midnightblue" stroke="midnightblue" points="737.47,-160.26 744.35,-168.31 743.99,-157.72 737.47,-160.26"/>
</g>
<!-- Node22&#45;&gt;Node23 -->
<g id="edge24" class="edge">
<title>Node22&#45;&gt;Node23</title>
<path fill="none" stroke="midnightblue" d="M767.35,-276.5C791.54,-266.38 824.96,-252.39 846.16,-243.52"/>
<polygon fill="midnightblue" stroke="midnightblue" points="765.81,-273.35 757.94,-280.44 768.52,-279.81 765.81,-273.35"/>
</g>
<!-- Node22&#45;&gt;Node25 -->
<g id="edge25" class="edge">
<title>Node22&#45;&gt;Node25</title>
<path fill="none" stroke="midnightblue" d="M732.33,-270.4C729.82,-261.36 726.93,-250.94 724.93,-243.75"/>
<polygon fill="midnightblue" stroke="midnightblue" points="728.97,-271.38 735.02,-280.08 735.72,-269.51 728.97,-271.38"/>
</g>
<!-- Node26 -->
<g id="node24" class="node">
<title>Node26</title>
<g id="a_node24"><a xlink:href="spec_2event_8h.html" target="_top" xlink:title=" ">
<polygon fill="white" stroke="red" points="769,-224.5 769,-243.5 822,-243.5 822,-224.5 769,-224.5"/>
<text text-anchor="middle" x="795.5" y="-231.5" font-family="Helvetica,sans-Serif" font-size="10.00">event.h</text>
</a>
</g>
</g>
<!-- Node22&#45;&gt;Node26 -->
<g id="edge27" class="edge">
<title>Node22&#45;&gt;Node26</title>
<path fill="none" stroke="midnightblue" d="M754.41,-273.25C764.7,-263.67 777.47,-251.79 786.01,-243.83"/>
<polygon fill="midnightblue" stroke="midnightblue" points="751.75,-270.95 746.82,-280.32 756.52,-276.07 751.75,-270.95"/>
</g>
<!-- Node22&#45;&gt;Node39 -->
<g id="edge28" class="edge">
<title>Node22&#45;&gt;Node39</title>
<path fill="none" stroke="midnightblue" d="M776.64,-279.26C817.49,-269.09 880.94,-253.31 919.98,-243.59"/>
<polygon fill="midnightblue" stroke="midnightblue" points="775.62,-275.91 766.77,-281.72 777.31,-282.7 775.62,-275.91"/>
</g>
<!-- Node32 -->
<g id="node26" class="node">
<title>Node32</title>
<g id="a_node26"><a xlink:href="spec_2packet__io_8h.html" target="_top" xlink:title=" ">
<polygon fill="white" stroke="black" points="604.5,-224.5 604.5,-243.5 676.5,-243.5 676.5,-224.5 604.5,-224.5"/>
<text text-anchor="middle" x="640.5" y="-231.5" font-family="Helvetica,sans-Serif" font-size="10.00">packet_io.h</text>
</a>
</g>
</g>
<!-- Node22&#45;&gt;Node32 -->
<g id="edge29" class="edge">
<title>Node22&#45;&gt;Node32</title>
<path fill="none" stroke="midnightblue" d="M713.16,-275.45C695.26,-265.48 671.45,-252.23 656.05,-243.65"/>
<polygon fill="midnightblue" stroke="midnightblue" points="711.48,-278.52 721.92,-280.32 714.88,-272.4 711.48,-278.52"/>
</g>
<!-- Node25&#45;&gt;Node21 -->
<g id="edge26" class="edge">
<title>Node25&#45;&gt;Node21</title>
<path fill="none" stroke="midnightblue" d="M730.84,-214.98C735.08,-205.82 740.05,-195.09 743.45,-187.75"/>
<polygon fill="midnightblue" stroke="midnightblue" points="727.65,-213.54 726.63,-224.08 734.01,-216.48 727.65,-213.54"/>
</g>
<!-- Node32&#45;&gt;Node33 -->
<g id="edge30" class="edge">
<title>Node32&#45;&gt;Node33</title>
<path fill="none" stroke="midnightblue" d="M640.14,-213.8C639.98,-204.91 639.79,-194.78 639.66,-187.75"/>
<polygon fill="midnightblue" stroke="midnightblue" points="636.65,-214.15 640.33,-224.08 643.65,-214.02 636.65,-214.15"/>
</g>
<!-- Node33&#45;&gt;Node19 -->
<g id="edge33" class="edge">
<title>Node33&#45;&gt;Node19</title>
<path fill="none" stroke="midnightblue" d="M663.62,-162.47C673.94,-154.83 684.88,-144.44 690.5,-132 694.16,-123.9 693.1,-120.5 690.5,-112 678.65,-73.18 646.33,-35.78 630.9,-19.5"/>
<polygon fill="midnightblue" stroke="midnightblue" points="661.49,-159.69 655.23,-168.24 665.46,-165.46 661.49,-159.69"/>
</g>
<!-- Node33&#45;&gt;Node34 -->
<g id="edge31" class="edge">
<title>Node33&#45;&gt;Node34</title>
<path fill="none" stroke="midnightblue" d="M613.67,-163.59C594.44,-153.61 568.76,-140.27 552.17,-131.65"/>
<polygon fill="midnightblue" stroke="midnightblue" points="612.3,-166.82 622.79,-168.32 615.53,-160.61 612.3,-166.82"/>
</g>
<!-- Node33&#45;&gt;Node35 -->
<g id="edge34" class="edge">
<title>Node33&#45;&gt;Node35</title>
<path fill="none" stroke="midnightblue" d="M639.5,-157.8C639.5,-148.91 639.5,-138.78 639.5,-131.75"/>
<polygon fill="midnightblue" stroke="midnightblue" points="636,-158.08 639.5,-168.08 643,-158.08 636,-158.08"/>
</g>
<!-- Node34&#45;&gt;Node18 -->
<g id="edge32" class="edge">
<title>Node34&#45;&gt;Node18</title>
<path fill="none" stroke="midnightblue" d="M535.5,-101.8C535.5,-92.91 535.5,-82.78 535.5,-75.75"/>
<polygon fill="midnightblue" stroke="midnightblue" points="532,-102.08 535.5,-112.08 539,-102.08 532,-102.08"/>
</g>
<!-- Node30 -->
<g id="node32" class="node">
<title>Node30</title>
<g id="a_node32"><a xlink:href="spec_2packet__io__stats_8h.html" target="_top" xlink:title=" ">
<polygon fill="white" stroke="red" points="1054,-224.5 1054,-243.5 1155,-243.5 1155,-224.5 1054,-224.5"/>
<text text-anchor="middle" x="1104.5" y="-231.5" font-family="Helvetica,sans-Serif" font-size="10.00">packet_io_stats.h</text>
</a>
</g>
</g>
<!-- Node29&#45;&gt;Node30 -->
<g id="edge38" class="edge">
<title>Node29&#45;&gt;Node30</title>
<path fill="none" stroke="midnightblue" d="M1045.8,-274.62C1060.42,-264.76 1079.33,-251.99 1091.68,-243.65"/>
<polygon fill="midnightblue" stroke="midnightblue" points="1043.68,-271.83 1037.35,-280.32 1047.6,-277.63 1043.68,-271.83"/>
</g>
<!-- Node57&#45;&gt;Node54 -->
<g id="edge50" class="edge">
<title>Node57&#45;&gt;Node54</title>
<path fill="none" stroke="midnightblue" d="M1407.52,-271.57C1401.67,-262.27 1394.73,-251.25 1390.01,-243.75"/>
<polygon fill="midnightblue" stroke="midnightblue" points="1404.6,-273.49 1412.89,-280.08 1410.52,-269.76 1404.6,-273.49"/>
</g>
<!-- Node79&#45;&gt;Node32 -->
<g id="edge61" class="edge">
<title>Node79&#45;&gt;Node32</title>
<path fill="none" stroke="midnightblue" d="M632.7,-270.1C634.69,-261.14 636.98,-250.86 638.56,-243.75"/>
<polygon fill="midnightblue" stroke="midnightblue" points="629.23,-269.56 630.48,-280.08 636.07,-271.08 629.23,-269.56"/>
</g>
</g>
</svg>
