<?xml version="1.0" encoding="UTF-8" standalone="no"?>
<!DOCTYPE svg PUBLIC "-//W3C//DTD SVG 1.1//EN"
 "http://www.w3.org/Graphics/SVG/1.1/DTD/svg11.dtd">
<!-- Generated by graphviz version 2.43.0 (0)
 -->
<!-- Title: schedule_types.h Pages: 1 -->
<svg width="652pt" height="1092pt"
 viewBox="0.00 0.00 651.50 1092.00" xmlns="http://www.w3.org/2000/svg" xmlns:xlink="http://www.w3.org/1999/xlink">
<g id="graph0" class="graph" transform="scale(1 1) rotate(0) translate(4 1088)">
<title>schedule_types.h</title>
<polygon fill="white" stroke="transparent" points="-4,4 -4,-1088 647.5,-1088 647.5,4 -4,4"/>
<!-- Node1 -->
<g id="node1" class="node">
<title>Node1</title>
<g id="a_node1"><a xlink:title=" ">
<polygon fill="#bfbfbf" stroke="black" points="533.5,-1064.5 533.5,-1083.5 634.5,-1083.5 634.5,-1064.5 533.5,-1064.5"/>
<text text-anchor="middle" x="584" y="-1071.5" font-family="Helvetica,sans-Serif" font-size="10.00">schedule_types.h</text>
</a>
</g>
</g>
<!-- Node2 -->
<g id="node2" class="node">
<title>Node2</title>
<g id="a_node2"><a xlink:href="schedule__types_8h.html" target="_top" xlink:title=" ">
<polygon fill="white" stroke="black" points="533.5,-1008.5 533.5,-1027.5 634.5,-1027.5 634.5,-1008.5 533.5,-1008.5"/>
<text text-anchor="middle" x="584" y="-1015.5" font-family="Helvetica,sans-Serif" font-size="10.00">schedule_types.h</text>
</a>
</g>
</g>
<!-- Node1&#45;&gt;Node2 -->
<g id="edge1" class="edge">
<title>Node1&#45;&gt;Node2</title>
<path fill="none" stroke="midnightblue" d="M584,-1053.8C584,-1044.91 584,-1034.78 584,-1027.75"/>
<polygon fill="midnightblue" stroke="midnightblue" points="580.5,-1054.08 584,-1064.08 587.5,-1054.08 580.5,-1054.08"/>
</g>
<!-- Node3 -->
<g id="node3" class="node">
<title>Node3</title>
<g id="a_node3"><a xlink:href="spec_2queue__types_8h.html" target="_top" xlink:title=" ">
<polygon fill="white" stroke="black" points="504,-952.5 504,-971.5 592,-971.5 592,-952.5 504,-952.5"/>
<text text-anchor="middle" x="548" y="-959.5" font-family="Helvetica,sans-Serif" font-size="10.00">queue_types.h</text>
</a>
</g>
</g>
<!-- Node2&#45;&gt;Node3 -->
<g id="edge2" class="edge">
<title>Node2&#45;&gt;Node3</title>
<path fill="none" stroke="midnightblue" d="M572.38,-999.57C566.18,-990.27 558.83,-979.25 553.83,-971.75"/>
<polygon fill="midnightblue" stroke="midnightblue" points="569.6,-1001.7 578.06,-1008.08 575.42,-997.82 569.6,-1001.7"/>
</g>
<!-- Node27 -->
<g id="node27" class="node">
<title>Node27</title>
<g id="a_node27"><a xlink:href="spec_2schedule_8h.html" target="_top" xlink:title=" ">
<polygon fill="white" stroke="black" points="574.5,-504.5 574.5,-523.5 643.5,-523.5 643.5,-504.5 574.5,-504.5"/>
<text text-anchor="middle" x="609" y="-511.5" font-family="Helvetica,sans-Serif" font-size="10.00">schedule.h</text>
</a>
</g>
</g>
<!-- Node2&#45;&gt;Node27 -->
<g id="edge40" class="edge">
<title>Node2&#45;&gt;Node27</title>
<path fill="none" stroke="midnightblue" d="M594.14,-999.43C605.4,-978.24 622,-941.19 622,-907 622,-907 622,-907 622,-625 622,-586.92 614.22,-541.94 610.7,-523.52"/>
<polygon fill="midnightblue" stroke="midnightblue" points="591.05,-997.78 589.28,-1008.23 597.18,-1001.17 591.05,-997.78"/>
</g>
<!-- Node4 -->
<g id="node4" class="node">
<title>Node4</title>
<g id="a_node4"><a xlink:href="queue__types_8h.html" target="_top" xlink:title=" ">
<polygon fill="white" stroke="black" points="458,-896.5 458,-915.5 546,-915.5 546,-896.5 458,-896.5"/>
<text text-anchor="middle" x="502" y="-903.5" font-family="Helvetica,sans-Serif" font-size="10.00">queue_types.h</text>
</a>
</g>
</g>
<!-- Node3&#45;&gt;Node4 -->
<g id="edge3" class="edge">
<title>Node3&#45;&gt;Node4</title>
<path fill="none" stroke="midnightblue" d="M533.89,-944.43C525.82,-934.97 516.04,-923.48 509.45,-915.75"/>
<polygon fill="midnightblue" stroke="midnightblue" points="531.25,-946.74 540.4,-952.08 536.58,-942.2 531.25,-946.74"/>
</g>
<!-- Node5 -->
<g id="node5" class="node">
<title>Node5</title>
<g id="a_node5"><a xlink:href="spec_2packet__io_8h.html" target="_top" xlink:title=" ">
<polygon fill="white" stroke="black" points="255,-280.5 255,-299.5 327,-299.5 327,-280.5 255,-280.5"/>
<text text-anchor="middle" x="291" y="-287.5" font-family="Helvetica,sans-Serif" font-size="10.00">packet_io.h</text>
</a>
</g>
</g>
<!-- Node4&#45;&gt;Node5 -->
<g id="edge4" class="edge">
<title>Node4&#45;&gt;Node5</title>
<path fill="none" stroke="midnightblue" d="M513.57,-887.93C526.6,-866.99 546,-829.96 546,-795 546,-795 546,-795 546,-401 546,-306.86 397.67,-292.33 327.26,-290.74"/>
<polygon fill="midnightblue" stroke="midnightblue" points="510.61,-886.05 508.12,-896.35 516.49,-889.85 510.61,-886.05"/>
</g>
<!-- Node13 -->
<g id="node13" class="node">
<title>Node13</title>
<g id="a_node13"><a xlink:href="spec_2packet__types_8h.html" target="_top" xlink:title=" ">
<polygon fill="white" stroke="black" points="229,-840.5 229,-859.5 319,-859.5 319,-840.5 229,-840.5"/>
<text text-anchor="middle" x="274" y="-847.5" font-family="Helvetica,sans-Serif" font-size="10.00">packet_types.h</text>
</a>
</g>
</g>
<!-- Node4&#45;&gt;Node13 -->
<g id="edge14" class="edge">
<title>Node4&#45;&gt;Node13</title>
<path fill="none" stroke="midnightblue" d="M455.93,-894.09C412.85,-883.89 349.41,-868.86 309.96,-859.52"/>
<polygon fill="midnightblue" stroke="midnightblue" points="455.34,-897.54 465.87,-896.44 456.95,-890.73 455.34,-897.54"/>
</g>
<!-- Node23 -->
<g id="node23" class="node">
<title>Node23</title>
<g id="a_node23"><a xlink:href="spec_2queue_8h.html" target="_top" xlink:title=" ">
<polygon fill="white" stroke="black" points="287,-504.5 287,-523.5 343,-523.5 343,-504.5 287,-504.5"/>
<text text-anchor="middle" x="315" y="-511.5" font-family="Helvetica,sans-Serif" font-size="10.00">queue.h</text>
</a>
</g>
</g>
<!-- Node4&#45;&gt;Node23 -->
<g id="edge36" class="edge">
<title>Node4&#45;&gt;Node23</title>
<path fill="none" stroke="midnightblue" d="M447.95,-894.25C427,-887.58 404.39,-876.92 389,-860 368.75,-837.74 370,-825.1 370,-795 370,-795 370,-795 370,-625 370,-594.9 364.89,-586.7 351,-560 343.71,-545.98 331.7,-532.12 323.58,-523.57"/>
<polygon fill="midnightblue" stroke="midnightblue" points="447.17,-897.67 457.75,-897.12 449.14,-890.95 447.17,-897.67"/>
</g>
<!-- Node4&#45;&gt;Node27 -->
<g id="edge37" class="edge">
<title>Node4&#45;&gt;Node27</title>
<path fill="none" stroke="midnightblue" d="M525.74,-891.06C537.4,-883.2 550.88,-872.45 560,-860 578.2,-835.16 584,-825.8 584,-795 584,-795 584,-795 584,-625 584,-586.42 598.8,-542.08 605.63,-523.69"/>
<polygon fill="midnightblue" stroke="midnightblue" points="523.8,-888.14 517.27,-896.49 527.58,-894.04 523.8,-888.14"/>
</g>
<!-- Node32 -->
<g id="node32" class="node">
<title>Node32</title>
<g id="a_node32"><a xlink:href="queue__inline__types_8h_source.html" target="_top" xlink:title=" ">
<polygon fill="white" stroke="black" points="398,-840.5 398,-859.5 518,-859.5 518,-840.5 398,-840.5"/>
<text text-anchor="middle" x="458" y="-847.5" font-family="Helvetica,sans-Serif" font-size="10.00">queue_inline_types.h</text>
</a>
</g>
</g>
<!-- Node4&#45;&gt;Node32 -->
<g id="edge38" class="edge">
<title>Node4&#45;&gt;Node32</title>
<path fill="none" stroke="midnightblue" d="M488.27,-888.14C480.6,-878.74 471.37,-867.4 465.13,-859.75"/>
<polygon fill="midnightblue" stroke="midnightblue" points="485.7,-890.54 494.73,-896.08 491.13,-886.12 485.7,-890.54"/>
</g>
<!-- Node6 -->
<g id="node6" class="node">
<title>Node6</title>
<g id="a_node6"><a xlink:href="packet__io_8h.html" target="_top" xlink:title=" ">
<polygon fill="white" stroke="black" points="246,-224.5 246,-243.5 318,-243.5 318,-224.5 246,-224.5"/>
<text text-anchor="middle" x="282" y="-231.5" font-family="Helvetica,sans-Serif" font-size="10.00">packet_io.h</text>
</a>
</g>
</g>
<!-- Node5&#45;&gt;Node6 -->
<g id="edge5" class="edge">
<title>Node5&#45;&gt;Node6</title>
<path fill="none" stroke="midnightblue" d="M287.85,-270.1C286.36,-261.14 284.64,-250.86 283.46,-243.75"/>
<polygon fill="midnightblue" stroke="midnightblue" points="284.42,-270.79 289.51,-280.08 291.32,-269.64 284.42,-270.79"/>
</g>
<!-- Node7 -->
<g id="node7" class="node">
<title>Node7</title>
<g id="a_node7"><a xlink:href="spec_2classification_8h.html" target="_top" xlink:title=" ">
<polygon fill="white" stroke="black" points="305.5,-168.5 305.5,-187.5 394.5,-187.5 394.5,-168.5 305.5,-168.5"/>
<text text-anchor="middle" x="350" y="-175.5" font-family="Helvetica,sans-Serif" font-size="10.00">classification.h</text>
</a>
</g>
</g>
<!-- Node6&#45;&gt;Node7 -->
<g id="edge6" class="edge">
<title>Node6&#45;&gt;Node7</title>
<path fill="none" stroke="midnightblue" d="M300.76,-218.1C313,-208.38 328.56,-196.03 338.88,-187.83"/>
<polygon fill="midnightblue" stroke="midnightblue" points="298.58,-215.36 292.93,-224.32 302.93,-220.85 298.58,-215.36"/>
</g>
<!-- Node9 -->
<g id="node9" class="node">
<title>Node9</title>
<g id="a_node9"><a xlink:href="spec_2ipsec_8h.html" target="_top" xlink:title=" ">
<polygon fill="white" stroke="black" points="216.5,-56.5 216.5,-75.5 267.5,-75.5 267.5,-56.5 216.5,-56.5"/>
<text text-anchor="middle" x="242" y="-63.5" font-family="Helvetica,sans-Serif" font-size="10.00">ipsec.h</text>
</a>
</g>
</g>
<!-- Node6&#45;&gt;Node9 -->
<g id="edge10" class="edge">
<title>Node6&#45;&gt;Node9</title>
<path fill="none" stroke="midnightblue" d="M279.15,-214.24C275.32,-190.29 267.82,-147.67 258,-112 254.43,-99.05 248.97,-84.47 245.45,-75.51"/>
<polygon fill="midnightblue" stroke="midnightblue" points="275.74,-215.05 280.74,-224.39 282.65,-213.97 275.74,-215.05"/>
</g>
<!-- Node11 -->
<g id="node11" class="node">
<title>Node11</title>
<g id="a_node11"><a xlink:href="spec_2traffic__mngr_8h.html" target="_top" xlink:title=" ">
<polygon fill="white" stroke="black" points="165,-168.5 165,-187.5 249,-187.5 249,-168.5 165,-168.5"/>
<text text-anchor="middle" x="207" y="-175.5" font-family="Helvetica,sans-Serif" font-size="10.00">traffic_mngr.h</text>
</a>
</g>
</g>
<!-- Node6&#45;&gt;Node11 -->
<g id="edge11" class="edge">
<title>Node6&#45;&gt;Node11</title>
<path fill="none" stroke="midnightblue" d="M261.69,-218.38C248.14,-208.62 230.76,-196.11 219.27,-187.83"/>
<polygon fill="midnightblue" stroke="midnightblue" points="259.79,-221.32 269.95,-224.32 263.88,-215.64 259.79,-221.32"/>
</g>
<!-- Node8 -->
<g id="node8" class="node">
<title>Node8</title>
<g id="a_node8"><a xlink:href="classification_8h.html" target="_top" xlink:title=" ">
<polygon fill="white" stroke="black" points="305.5,-112.5 305.5,-131.5 394.5,-131.5 394.5,-112.5 305.5,-112.5"/>
<text text-anchor="middle" x="350" y="-119.5" font-family="Helvetica,sans-Serif" font-size="10.00">classification.h</text>
</a>
</g>
</g>
<!-- Node7&#45;&gt;Node8 -->
<g id="edge7" class="edge">
<title>Node7&#45;&gt;Node8</title>
<path fill="none" stroke="midnightblue" d="M350,-157.8C350,-148.91 350,-138.78 350,-131.75"/>
<polygon fill="midnightblue" stroke="midnightblue" points="346.5,-158.08 350,-168.08 353.5,-158.08 346.5,-158.08"/>
</g>
<!-- Node8&#45;&gt;Node9 -->
<g id="edge8" class="edge">
<title>Node8&#45;&gt;Node9</title>
<path fill="none" stroke="midnightblue" d="M323.45,-107.73C303.45,-97.73 276.61,-84.31 259.31,-75.65"/>
<polygon fill="midnightblue" stroke="midnightblue" points="322.14,-110.98 332.65,-112.32 325.27,-104.72 322.14,-110.98"/>
</g>
<!-- Node10 -->
<g id="node10" class="node">
<title>Node10</title>
<g id="a_node10"><a xlink:href="ipsec_8h.html" target="_top" xlink:title=" ">
<polygon fill="white" stroke="black" points="216.5,-0.5 216.5,-19.5 267.5,-19.5 267.5,-0.5 216.5,-0.5"/>
<text text-anchor="middle" x="242" y="-7.5" font-family="Helvetica,sans-Serif" font-size="10.00">ipsec.h</text>
</a>
</g>
</g>
<!-- Node9&#45;&gt;Node10 -->
<g id="edge9" class="edge">
<title>Node9&#45;&gt;Node10</title>
<path fill="none" stroke="midnightblue" d="M242,-45.8C242,-36.91 242,-26.78 242,-19.75"/>
<polygon fill="midnightblue" stroke="midnightblue" points="238.5,-46.08 242,-56.08 245.5,-46.08 238.5,-46.08"/>
</g>
<!-- Node12 -->
<g id="node12" class="node">
<title>Node12</title>
<g id="a_node12"><a xlink:href="traffic__mngr_8h.html" target="_top" xlink:title=" ">
<polygon fill="white" stroke="black" points="165,-112.5 165,-131.5 249,-131.5 249,-112.5 165,-112.5"/>
<text text-anchor="middle" x="207" y="-119.5" font-family="Helvetica,sans-Serif" font-size="10.00">traffic_mngr.h</text>
</a>
</g>
</g>
<!-- Node11&#45;&gt;Node12 -->
<g id="edge12" class="edge">
<title>Node11&#45;&gt;Node12</title>
<path fill="none" stroke="midnightblue" d="M207,-157.8C207,-148.91 207,-138.78 207,-131.75"/>
<polygon fill="midnightblue" stroke="midnightblue" points="203.5,-158.08 207,-168.08 210.5,-158.08 203.5,-158.08"/>
</g>
<!-- Node12&#45;&gt;Node9 -->
<g id="edge13" class="edge">
<title>Node12&#45;&gt;Node9</title>
<path fill="none" stroke="midnightblue" d="M218.3,-103.57C224.32,-94.27 231.47,-83.25 236.33,-75.75"/>
<polygon fill="midnightblue" stroke="midnightblue" points="215.28,-101.79 212.78,-112.08 221.16,-105.6 215.28,-101.79"/>
</g>
<!-- Node14 -->
<g id="node14" class="node">
<title>Node14</title>
<g id="a_node14"><a xlink:href="packet__types_8h.html" target="_top" xlink:title=" ">
<polygon fill="white" stroke="black" points="226,-784.5 226,-803.5 316,-803.5 316,-784.5 226,-784.5"/>
<text text-anchor="middle" x="271" y="-791.5" font-family="Helvetica,sans-Serif" font-size="10.00">packet_types.h</text>
</a>
</g>
</g>
<!-- Node13&#45;&gt;Node14 -->
<g id="edge15" class="edge">
<title>Node13&#45;&gt;Node14</title>
<path fill="none" stroke="midnightblue" d="M272.93,-829.8C272.44,-820.91 271.88,-810.78 271.49,-803.75"/>
<polygon fill="midnightblue" stroke="midnightblue" points="269.46,-830.29 273.5,-840.08 276.44,-829.9 269.46,-830.29"/>
</g>
<!-- Node15 -->
<g id="node15" class="node">
<title>Node15</title>
<g id="a_node15"><a xlink:href="spec_2packet_8h.html" target="_top" xlink:title=" ">
<polygon fill="white" stroke="black" points="144,-728.5 144,-747.5 202,-747.5 202,-728.5 144,-728.5"/>
<text text-anchor="middle" x="173" y="-735.5" font-family="Helvetica,sans-Serif" font-size="10.00">packet.h</text>
</a>
</g>
</g>
<!-- Node14&#45;&gt;Node15 -->
<g id="edge16" class="edge">
<title>Node14&#45;&gt;Node15</title>
<path fill="none" stroke="midnightblue" d="M246.41,-779.45C228.32,-769.48 204.27,-756.23 188.71,-747.65"/>
<polygon fill="midnightblue" stroke="midnightblue" points="244.81,-782.56 255.25,-784.32 248.19,-776.43 244.81,-782.56"/>
</g>
<!-- Node31 -->
<g id="node31" class="node">
<title>Node31</title>
<g id="a_node31"><a xlink:href="packet__inlines_8h.html" target="_top" xlink:title=" ">
<polygon fill="white" stroke="black" points="223.5,-728.5 223.5,-747.5 318.5,-747.5 318.5,-728.5 223.5,-728.5"/>
<text text-anchor="middle" x="271" y="-735.5" font-family="Helvetica,sans-Serif" font-size="10.00">packet_inlines.h</text>
</a>
</g>
</g>
<!-- Node14&#45;&gt;Node31 -->
<g id="edge35" class="edge">
<title>Node14&#45;&gt;Node31</title>
<path fill="none" stroke="midnightblue" d="M271,-773.8C271,-764.91 271,-754.78 271,-747.75"/>
<polygon fill="midnightblue" stroke="midnightblue" points="267.5,-774.08 271,-784.08 274.5,-774.08 267.5,-774.08"/>
</g>
<!-- Node16 -->
<g id="node16" class="node">
<title>Node16</title>
<g id="a_node16"><a xlink:href="packet_8h.html" target="_top" xlink:title=" ">
<polygon fill="white" stroke="black" points="133,-672.5 133,-691.5 191,-691.5 191,-672.5 133,-672.5"/>
<text text-anchor="middle" x="162" y="-679.5" font-family="Helvetica,sans-Serif" font-size="10.00">packet.h</text>
</a>
</g>
</g>
<!-- Node15&#45;&gt;Node16 -->
<g id="edge17" class="edge">
<title>Node15&#45;&gt;Node16</title>
<path fill="none" stroke="midnightblue" d="M169.15,-718.1C167.32,-709.14 165.23,-698.86 163.78,-691.75"/>
<polygon fill="midnightblue" stroke="midnightblue" points="165.76,-718.98 171.18,-728.08 172.62,-717.59 165.76,-718.98"/>
</g>
<!-- Node16&#45;&gt;Node5 -->
<g id="edge34" class="edge">
<title>Node16&#45;&gt;Node5</title>
<path fill="none" stroke="midnightblue" d="M160.36,-662.27C158.58,-640.39 156,-603.1 156,-571 156,-571 156,-571 156,-401 156,-346.13 223.86,-313.77 263.35,-299.58"/>
<polygon fill="midnightblue" stroke="midnightblue" points="156.89,-662.78 161.22,-672.45 163.86,-662.19 156.89,-662.78"/>
</g>
<!-- Node17 -->
<g id="node17" class="node">
<title>Node17</title>
<g id="a_node17"><a xlink:href="spec_2comp_8h.html" target="_top" xlink:title=" ">
<polygon fill="white" stroke="black" points="74.5,-616.5 74.5,-635.5 127.5,-635.5 127.5,-616.5 74.5,-616.5"/>
<text text-anchor="middle" x="101" y="-623.5" font-family="Helvetica,sans-Serif" font-size="10.00">comp.h</text>
</a>
</g>
</g>
<!-- Node16&#45;&gt;Node17 -->
<g id="edge18" class="edge">
<title>Node16&#45;&gt;Node17</title>
<path fill="none" stroke="midnightblue" d="M144.53,-665.54C133.66,-655.91 120.06,-643.87 110.98,-635.83"/>
<polygon fill="midnightblue" stroke="midnightblue" points="142.39,-668.32 152.2,-672.32 147.03,-663.07 142.39,-668.32"/>
</g>
<!-- Node19 -->
<g id="node19" class="node">
<title>Node19</title>
<g id="a_node19"><a xlink:href="spec_2crypto_8h.html" target="_top" xlink:title=" ">
<polygon fill="white" stroke="black" points="0,-616.5 0,-635.5 56,-635.5 56,-616.5 0,-616.5"/>
<text text-anchor="middle" x="28" y="-623.5" font-family="Helvetica,sans-Serif" font-size="10.00">crypto.h</text>
</a>
</g>
</g>
<!-- Node16&#45;&gt;Node19 -->
<g id="edge20" class="edge">
<title>Node16&#45;&gt;Node19</title>
<path fill="none" stroke="midnightblue" d="M131.32,-668.64C106.18,-658.5 71.25,-644.43 49.13,-635.52"/>
<polygon fill="midnightblue" stroke="midnightblue" points="130.18,-671.95 140.77,-672.44 132.8,-665.46 130.18,-671.95"/>
</g>
<!-- Node21 -->
<g id="node21" class="node">
<title>Node21</title>
<g id="a_node21"><a xlink:href="spec_2event_8h.html" target="_top" xlink:title=" ">
<polygon fill="white" stroke="black" points="288.5,-616.5 288.5,-635.5 341.5,-635.5 341.5,-616.5 288.5,-616.5"/>
<text text-anchor="middle" x="315" y="-623.5" font-family="Helvetica,sans-Serif" font-size="10.00">event.h</text>
</a>
</g>
</g>
<!-- Node16&#45;&gt;Node21 -->
<g id="edge23" class="edge">
<title>Node16&#45;&gt;Node21</title>
<path fill="none" stroke="midnightblue" d="M195.89,-669.04C224.68,-658.88 265.29,-644.55 290.87,-635.52"/>
<polygon fill="midnightblue" stroke="midnightblue" points="194.51,-665.81 186.24,-672.44 196.84,-672.42 194.51,-665.81"/>
</g>
<!-- Node29 -->
<g id="node29" class="node">
<title>Node29</title>
<g id="a_node29"><a xlink:href="spec_2packet__flags_8h.html" target="_top" xlink:title=" ">
<polygon fill="white" stroke="black" points="184,-616.5 184,-635.5 270,-635.5 270,-616.5 184,-616.5"/>
<text text-anchor="middle" x="227" y="-623.5" font-family="Helvetica,sans-Serif" font-size="10.00">packet_flags.h</text>
</a>
</g>
</g>
<!-- Node16&#45;&gt;Node29 -->
<g id="edge32" class="edge">
<title>Node16&#45;&gt;Node29</title>
<path fill="none" stroke="midnightblue" d="M180.27,-665.82C191.92,-656.15 206.6,-643.95 216.37,-635.83"/>
<polygon fill="midnightblue" stroke="midnightblue" points="177.9,-663.24 172.44,-672.32 182.37,-668.63 177.9,-663.24"/>
</g>
<!-- Node18 -->
<g id="node18" class="node">
<title>Node18</title>
<g id="a_node18"><a xlink:href="comp_8h.html" target="_top" xlink:title=" ">
<polygon fill="white" stroke="black" points="74.5,-560.5 74.5,-579.5 127.5,-579.5 127.5,-560.5 74.5,-560.5"/>
<text text-anchor="middle" x="101" y="-567.5" font-family="Helvetica,sans-Serif" font-size="10.00">comp.h</text>
</a>
</g>
</g>
<!-- Node17&#45;&gt;Node18 -->
<g id="edge19" class="edge">
<title>Node17&#45;&gt;Node18</title>
<path fill="none" stroke="midnightblue" d="M101,-605.8C101,-596.91 101,-586.78 101,-579.75"/>
<polygon fill="midnightblue" stroke="midnightblue" points="97.5,-606.08 101,-616.08 104.5,-606.08 97.5,-606.08"/>
</g>
<!-- Node20 -->
<g id="node20" class="node">
<title>Node20</title>
<g id="a_node20"><a xlink:href="crypto_8h.html" target="_top" xlink:title=" ">
<polygon fill="white" stroke="black" points="45,-392.5 45,-411.5 101,-411.5 101,-392.5 45,-392.5"/>
<text text-anchor="middle" x="73" y="-399.5" font-family="Helvetica,sans-Serif" font-size="10.00">crypto.h</text>
</a>
</g>
</g>
<!-- Node19&#45;&gt;Node20 -->
<g id="edge21" class="edge">
<title>Node19&#45;&gt;Node20</title>
<path fill="none" stroke="midnightblue" d="M31.79,-606.3C41.05,-560.64 64.52,-444.85 71.2,-411.88"/>
<polygon fill="midnightblue" stroke="midnightblue" points="28.32,-605.8 29.76,-616.3 35.18,-607.19 28.32,-605.8"/>
</g>
<!-- Node20&#45;&gt;Node9 -->
<g id="edge22" class="edge">
<title>Node20&#45;&gt;Node9</title>
<path fill="none" stroke="midnightblue" d="M82.59,-383.4C93.26,-362.15 109,-325.02 109,-291 109,-291 109,-291 109,-177 109,-121.87 177.71,-89.16 216.36,-75.13"/>
<polygon fill="midnightblue" stroke="midnightblue" points="79.38,-381.99 77.86,-392.47 85.59,-385.23 79.38,-381.99"/>
</g>
<!-- Node22 -->
<g id="node22" class="node">
<title>Node22</title>
<g id="a_node22"><a xlink:href="event_8h.html" target="_top" xlink:title=" ">
<polygon fill="white" stroke="black" points="288.5,-560.5 288.5,-579.5 341.5,-579.5 341.5,-560.5 288.5,-560.5"/>
<text text-anchor="middle" x="315" y="-567.5" font-family="Helvetica,sans-Serif" font-size="10.00">event.h</text>
</a>
</g>
</g>
<!-- Node21&#45;&gt;Node22 -->
<g id="edge24" class="edge">
<title>Node21&#45;&gt;Node22</title>
<path fill="none" stroke="midnightblue" d="M315,-605.8C315,-596.91 315,-586.78 315,-579.75"/>
<polygon fill="midnightblue" stroke="midnightblue" points="311.5,-606.08 315,-616.08 318.5,-606.08 311.5,-606.08"/>
</g>
<!-- Node22&#45;&gt;Node23 -->
<g id="edge25" class="edge">
<title>Node22&#45;&gt;Node23</title>
<path fill="none" stroke="midnightblue" d="M315,-549.8C315,-540.91 315,-530.78 315,-523.75"/>
<polygon fill="midnightblue" stroke="midnightblue" points="311.5,-550.08 315,-560.08 318.5,-550.08 311.5,-550.08"/>
</g>
<!-- Node22&#45;&gt;Node27 -->
<g id="edge30" class="edge">
<title>Node22&#45;&gt;Node27</title>
<path fill="none" stroke="midnightblue" d="M351.64,-562.27C408.73,-551.78 518.17,-531.68 574.15,-521.4"/>
<polygon fill="midnightblue" stroke="midnightblue" points="350.81,-558.86 341.61,-564.11 352.08,-565.75 350.81,-558.86"/>
</g>
<!-- Node24 -->
<g id="node24" class="node">
<title>Node24</title>
<g id="a_node24"><a xlink:href="queue_8h.html" target="_top" xlink:title=" ">
<polygon fill="white" stroke="black" points="286,-448.5 286,-467.5 342,-467.5 342,-448.5 286,-448.5"/>
<text text-anchor="middle" x="314" y="-455.5" font-family="Helvetica,sans-Serif" font-size="10.00">queue.h</text>
</a>
</g>
</g>
<!-- Node23&#45;&gt;Node24 -->
<g id="edge26" class="edge">
<title>Node23&#45;&gt;Node24</title>
<path fill="none" stroke="midnightblue" d="M314.64,-493.8C314.48,-484.91 314.29,-474.78 314.16,-467.75"/>
<polygon fill="midnightblue" stroke="midnightblue" points="311.15,-494.15 314.83,-504.08 318.15,-494.02 311.15,-494.15"/>
</g>
<!-- Node25 -->
<g id="node25" class="node">
<title>Node25</title>
<g id="a_node25"><a xlink:href="spec_2packet__io__stats_8h.html" target="_top" xlink:title=" ">
<polygon fill="white" stroke="black" points="261.5,-392.5 261.5,-411.5 362.5,-411.5 362.5,-392.5 261.5,-392.5"/>
<text text-anchor="middle" x="312" y="-399.5" font-family="Helvetica,sans-Serif" font-size="10.00">packet_io_stats.h</text>
</a>
</g>
</g>
<!-- Node24&#45;&gt;Node25 -->
<g id="edge27" class="edge">
<title>Node24&#45;&gt;Node25</title>
<path fill="none" stroke="midnightblue" d="M313.29,-437.8C312.96,-428.91 312.58,-418.78 312.32,-411.75"/>
<polygon fill="midnightblue" stroke="midnightblue" points="309.8,-438.22 313.67,-448.08 316.8,-437.96 309.8,-438.22"/>
</g>
<!-- Node26 -->
<g id="node26" class="node">
<title>Node26</title>
<g id="a_node26"><a xlink:href="packet__io__stats_8h.html" target="_top" xlink:title=" ">
<polygon fill="white" stroke="black" points="242.5,-336.5 242.5,-355.5 343.5,-355.5 343.5,-336.5 242.5,-336.5"/>
<text text-anchor="middle" x="293" y="-343.5" font-family="Helvetica,sans-Serif" font-size="10.00">packet_io_stats.h</text>
</a>
</g>
</g>
<!-- Node25&#45;&gt;Node26 -->
<g id="edge28" class="edge">
<title>Node25&#45;&gt;Node26</title>
<path fill="none" stroke="midnightblue" d="M305.45,-382.4C302.28,-373.36 298.61,-362.94 296.08,-355.75"/>
<polygon fill="midnightblue" stroke="midnightblue" points="302.24,-383.81 308.86,-392.08 308.85,-381.49 302.24,-383.81"/>
</g>
<!-- Node26&#45;&gt;Node5 -->
<g id="edge29" class="edge">
<title>Node26&#45;&gt;Node5</title>
<path fill="none" stroke="midnightblue" d="M292.29,-325.8C291.96,-316.91 291.58,-306.78 291.32,-299.75"/>
<polygon fill="midnightblue" stroke="midnightblue" points="288.8,-326.22 292.67,-336.08 295.8,-325.96 288.8,-326.22"/>
</g>
<!-- Node28 -->
<g id="node28" class="node">
<title>Node28</title>
<g id="a_node28"><a xlink:href="schedule_8h.html" target="_top" xlink:title=" ">
<polygon fill="white" stroke="black" points="574.5,-448.5 574.5,-467.5 643.5,-467.5 643.5,-448.5 574.5,-448.5"/>
<text text-anchor="middle" x="609" y="-455.5" font-family="Helvetica,sans-Serif" font-size="10.00">schedule.h</text>
</a>
</g>
</g>
<!-- Node27&#45;&gt;Node28 -->
<g id="edge31" class="edge">
<title>Node27&#45;&gt;Node28</title>
<path fill="none" stroke="midnightblue" d="M609,-493.8C609,-484.91 609,-474.78 609,-467.75"/>
<polygon fill="midnightblue" stroke="midnightblue" points="605.5,-494.08 609,-504.08 612.5,-494.08 605.5,-494.08"/>
</g>
<!-- Node30 -->
<g id="node30" class="node">
<title>Node30</title>
<g id="a_node30"><a xlink:href="packet__flags_8h.html" target="_top" xlink:title=" ">
<polygon fill="white" stroke="black" points="184,-560.5 184,-579.5 270,-579.5 270,-560.5 184,-560.5"/>
<text text-anchor="middle" x="227" y="-567.5" font-family="Helvetica,sans-Serif" font-size="10.00">packet_flags.h</text>
</a>
</g>
</g>
<!-- Node29&#45;&gt;Node30 -->
<g id="edge33" class="edge">
<title>Node29&#45;&gt;Node30</title>
<path fill="none" stroke="midnightblue" d="M227,-605.8C227,-596.91 227,-586.78 227,-579.75"/>
<polygon fill="midnightblue" stroke="midnightblue" points="223.5,-606.08 227,-616.08 230.5,-606.08 223.5,-606.08"/>
</g>
<!-- Node33 -->
<g id="node33" class="node">
<title>Node33</title>
<g id="a_node33"><a xlink:href="queue__inlines_8h_source.html" target="_top" xlink:title=" ">
<polygon fill="white" stroke="black" points="411.5,-784.5 411.5,-803.5 504.5,-803.5 504.5,-784.5 411.5,-784.5"/>
<text text-anchor="middle" x="458" y="-791.5" font-family="Helvetica,sans-Serif" font-size="10.00">queue_inlines.h</text>
</a>
</g>
</g>
<!-- Node32&#45;&gt;Node33 -->
<g id="edge39" class="edge">
<title>Node32&#45;&gt;Node33</title>
<path fill="none" stroke="midnightblue" d="M458,-829.8C458,-820.91 458,-810.78 458,-803.75"/>
<polygon fill="midnightblue" stroke="midnightblue" points="454.5,-830.08 458,-840.08 461.5,-830.08 454.5,-830.08"/>
</g>
</g>
</svg>
