<?xml version="1.0" encoding="UTF-8" standalone="no"?>
<!DOCTYPE svg PUBLIC "-//W3C//DTD SVG 1.1//EN"
 "http://www.w3.org/Graphics/SVG/1.1/DTD/svg11.dtd">
<!-- Generated by graphviz version 2.43.0 (0)
 -->
<!-- Title: packet_io_stats.h Pages: 1 -->
<svg width="1246pt" height="1024pt"
 viewBox="0.00 0.00 1246.00 1024.00" xmlns="http://www.w3.org/2000/svg" xmlns:xlink="http://www.w3.org/1999/xlink">
<g id="graph0" class="graph" transform="scale(1 1) rotate(0) translate(4 1020)">
<title>packet_io_stats.h</title>
<polygon fill="white" stroke="transparent" points="-4,4 -4,-1020 1242,-1020 1242,4 -4,4"/>
<!-- Node1 -->
<g id="node1" class="node">
<title>Node1</title>
<g id="a_node1"><a xlink:title=" ">
<polygon fill="#bfbfbf" stroke="black" points="166.5,-996.5 166.5,-1015.5 267.5,-1015.5 267.5,-996.5 166.5,-996.5"/>
<text text-anchor="middle" x="217" y="-1003.5" font-family="Helvetica,sans-Serif" font-size="10.00">packet_io_stats.h</text>
</a>
</g>
</g>
<!-- Node2 -->
<g id="node2" class="node">
<title>Node2</title>
<g id="a_node2"><a xlink:title=" ">
<polygon fill="white" stroke="#bfbfbf" points="148.5,-0.5 148.5,-19.5 269.5,-19.5 269.5,-0.5 148.5,-0.5"/>
<text text-anchor="middle" x="209" y="-7.5" font-family="Helvetica,sans-Serif" font-size="10.00">odp/visibility_begin.h</text>
</a>
</g>
</g>
<!-- Node1&#45;&gt;Node2 -->
<g id="edge1" class="edge">
<title>Node1&#45;&gt;Node2</title>
<path fill="none" stroke="midnightblue" d="M166.4,-1001.23C102.28,-993.38 0,-969.23 0,-895 0,-895 0,-895 0,-121 0,-57.01 77.67,-30.16 138.31,-18.95"/>
<polygon fill="midnightblue" stroke="midnightblue" points="139.02,-22.38 148.27,-17.22 137.82,-15.48 139.02,-22.38"/>
</g>
<!-- Node3 -->
<g id="node3" class="node">
<title>Node3</title>
<g id="a_node3"><a xlink:href="deprecated_8h.html" target="_top" xlink:title=" ">
<polygon fill="white" stroke="black" points="180.5,-347.5 180.5,-366.5 299.5,-366.5 299.5,-347.5 180.5,-347.5"/>
<text text-anchor="middle" x="240" y="-354.5" font-family="Helvetica,sans-Serif" font-size="10.00">odp/api/deprecated.h</text>
</a>
</g>
</g>
<!-- Node1&#45;&gt;Node3 -->
<g id="edge2" class="edge">
<title>Node1&#45;&gt;Node3</title>
<path fill="none" stroke="midnightblue" d="M178.92,-996.46C131.88,-983.4 58,-953.57 58,-895 58,-895 58,-895 58,-725 58,-573.33 77.39,-522.33 171,-403 181.54,-389.56 197.27,-378.87 211.04,-371.28"/>
<polygon fill="midnightblue" stroke="midnightblue" points="212.92,-374.25 220.18,-366.53 209.7,-368.04 212.92,-374.25"/>
</g>
<!-- Node5 -->
<g id="node5" class="node">
<title>Node5</title>
<g id="a_node5"><a xlink:title=" ">
<polygon fill="white" stroke="#bfbfbf" points="935,-0.5 935,-19.5 1047,-19.5 1047,-0.5 935,-0.5"/>
<text text-anchor="middle" x="991" y="-7.5" font-family="Helvetica,sans-Serif" font-size="10.00">odp/visibility_end.h</text>
</a>
</g>
</g>
<!-- Node1&#45;&gt;Node5 -->
<g id="edge73" class="edge">
<title>Node1&#45;&gt;Node5</title>
<path fill="none" stroke="midnightblue" d="M267.63,-1004.92C473.65,-1003.96 1238,-993.72 1238,-895 1238,-895 1238,-895 1238,-121 1238,-41.64 1130.29,-19.13 1057.13,-12.99"/>
<polygon fill="midnightblue" stroke="midnightblue" points="1057.28,-9.49 1047.05,-12.22 1056.76,-16.47 1057.28,-9.49"/>
</g>
<!-- Node6 -->
<g id="node6" class="node">
<title>Node6</title>
<g id="a_node6"><a xlink:href="queue_8h.html" target="_top" xlink:title=" ">
<polygon fill="white" stroke="black" points="393.5,-940.5 393.5,-959.5 488.5,-959.5 488.5,-940.5 393.5,-940.5"/>
<text text-anchor="middle" x="441" y="-947.5" font-family="Helvetica,sans-Serif" font-size="10.00">odp/api/queue.h</text>
</a>
</g>
</g>
<!-- Node1&#45;&gt;Node6 -->
<g id="edge6" class="edge">
<title>Node1&#45;&gt;Node6</title>
<path fill="none" stroke="midnightblue" d="M252.49,-996.44C291.32,-987.08 353.66,-972.06 395.92,-961.87"/>
<polygon fill="midnightblue" stroke="midnightblue" points="396.77,-965.26 405.67,-959.52 395.13,-958.46 396.77,-965.26"/>
</g>
<!-- Node4 -->
<g id="node4" class="node">
<title>Node4</title>
<g id="a_node4"><a xlink:href="spec_2deprecated_8h.html" target="_top" xlink:title=" ">
<polygon fill="white" stroke="black" points="256.5,-56.5 256.5,-75.5 401.5,-75.5 401.5,-56.5 256.5,-56.5"/>
<text text-anchor="middle" x="329" y="-63.5" font-family="Helvetica,sans-Serif" font-size="10.00">odp/api/spec/deprecated.h</text>
</a>
</g>
</g>
<!-- Node3&#45;&gt;Node4 -->
<g id="edge3" class="edge">
<title>Node3&#45;&gt;Node4</title>
<path fill="none" stroke="midnightblue" d="M241.85,-347.04C244.86,-332.76 251.17,-304 258,-280 278.68,-207.29 308.78,-122.5 322.15,-85.67"/>
<polygon fill="midnightblue" stroke="midnightblue" points="325.6,-86.43 325.74,-75.84 319.02,-84.03 325.6,-86.43"/>
</g>
<!-- Node4&#45;&gt;Node2 -->
<g id="edge4" class="edge">
<title>Node4&#45;&gt;Node2</title>
<path fill="none" stroke="midnightblue" d="M309.99,-56.44C290.41,-47.64 259.69,-33.81 237.27,-23.72"/>
<polygon fill="midnightblue" stroke="midnightblue" points="238.48,-20.43 227.93,-19.52 235.61,-26.81 238.48,-20.43"/>
</g>
<!-- Node4&#45;&gt;Node5 -->
<g id="edge5" class="edge">
<title>Node4&#45;&gt;Node5</title>
<path fill="none" stroke="midnightblue" d="M401.74,-59.07C531.27,-48.5 800,-26.58 924.73,-16.41"/>
<polygon fill="midnightblue" stroke="midnightblue" points="925.22,-19.88 934.9,-15.58 924.65,-12.9 925.22,-19.88"/>
</g>
<!-- Node7 -->
<g id="node7" class="node">
<title>Node7</title>
<g id="a_node7"><a xlink:href="std__types_8h.html" target="_top" xlink:title=" ">
<polygon fill="white" stroke="black" points="702,-224.5 702,-243.5 814,-243.5 814,-224.5 702,-224.5"/>
<text text-anchor="middle" x="758" y="-231.5" font-family="Helvetica,sans-Serif" font-size="10.00">odp/api/std_types.h</text>
</a>
</g>
</g>
<!-- Node6&#45;&gt;Node7 -->
<g id="edge7" class="edge">
<title>Node6&#45;&gt;Node7</title>
<path fill="none" stroke="midnightblue" d="M488.62,-947.43C611.97,-943.05 939.56,-929.33 1045,-904 1117.64,-886.55 1200,-913.7 1200,-839 1200,-839 1200,-839 1200,-669 1200,-465.15 1123.31,-397.88 957,-280 918.29,-252.56 865.6,-241.52 824.17,-237.22"/>
<polygon fill="midnightblue" stroke="midnightblue" points="824.44,-233.73 814.16,-236.29 823.79,-240.7 824.44,-233.73"/>
</g>
<!-- Node14 -->
<g id="node14" class="node">
<title>Node14</title>
<g id="a_node14"><a xlink:title=" ">
<polygon fill="white" stroke="#bfbfbf" points="1024,-660.5 1024,-679.5 1134,-679.5 1134,-660.5 1024,-660.5"/>
<text text-anchor="middle" x="1079" y="-667.5" font-family="Helvetica,sans-Serif" font-size="10.00">odp/api/abi/event.h</text>
</a>
</g>
</g>
<!-- Node6&#45;&gt;Node14 -->
<g id="edge18" class="edge">
<title>Node6&#45;&gt;Node14</title>
<path fill="none" stroke="midnightblue" d="M488.59,-946.78C649.3,-938.64 1162,-907.34 1162,-839 1162,-839 1162,-839 1162,-781 1162,-739.91 1124.64,-704.44 1100.05,-685.55"/>
<polygon fill="midnightblue" stroke="midnightblue" points="1102.09,-682.7 1091.97,-679.57 1097.93,-688.33 1102.09,-682.7"/>
</g>
<!-- Node15 -->
<g id="node15" class="node">
<title>Node15</title>
<g id="a_node15"><a xlink:title=" ">
<polygon fill="white" stroke="#bfbfbf" points="180.5,-409 180.5,-428 325.5,-428 325.5,-409 180.5,-409"/>
<text text-anchor="middle" x="253" y="-416" font-family="Helvetica,sans-Serif" font-size="10.00">odp/api/abi/queue_types.h</text>
</a>
</g>
</g>
<!-- Node6&#45;&gt;Node15 -->
<g id="edge19" class="edge">
<title>Node6&#45;&gt;Node15</title>
<path fill="none" stroke="midnightblue" d="M393.39,-943.9C298.75,-932.44 96,-900.69 96,-839 96,-839 96,-839 96,-725 96,-602.01 197.91,-478.9 237.52,-435.69"/>
<polygon fill="midnightblue" stroke="midnightblue" points="240.3,-437.84 244.56,-428.14 235.18,-433.07 240.3,-437.84"/>
</g>
<!-- Node16 -->
<g id="node16" class="node">
<title>Node16</title>
<g id="a_node16"><a xlink:title=" ">
<polygon fill="white" stroke="#bfbfbf" points="563.5,-884.5 563.5,-903.5 676.5,-903.5 676.5,-884.5 563.5,-884.5"/>
<text text-anchor="middle" x="620" y="-891.5" font-family="Helvetica,sans-Serif" font-size="10.00">odp/api/abi/queue.h</text>
</a>
</g>
</g>
<!-- Node6&#45;&gt;Node16 -->
<g id="edge20" class="edge">
<title>Node6&#45;&gt;Node16</title>
<path fill="none" stroke="midnightblue" d="M469.36,-940.44C499.74,-931.28 548.11,-916.69 581.82,-906.52"/>
<polygon fill="midnightblue" stroke="midnightblue" points="583.21,-909.76 591.77,-903.52 581.18,-903.05 583.21,-909.76"/>
</g>
<!-- Node17 -->
<g id="node17" class="node">
<title>Node17</title>
<g id="a_node17"><a xlink:title=" ">
<polygon fill="white" stroke="#bfbfbf" points="200,-660.5 200,-679.5 310,-679.5 310,-660.5 200,-660.5"/>
<text text-anchor="middle" x="255" y="-667.5" font-family="Helvetica,sans-Serif" font-size="10.00">odp/api/abi/buffer.h</text>
</a>
</g>
</g>
<!-- Node6&#45;&gt;Node17 -->
<g id="edge21" class="edge">
<title>Node6&#45;&gt;Node17</title>
<path fill="none" stroke="midnightblue" d="M433.06,-940.32C425.11,-931.47 412.69,-917.19 403,-904 346.24,-826.74 287.82,-727.95 264.99,-688.45"/>
<polygon fill="midnightblue" stroke="midnightblue" points="267.99,-686.66 259.97,-679.74 261.93,-690.15 267.99,-686.66"/>
</g>
<!-- Node18 -->
<g id="node18" class="node">
<title>Node18</title>
<g id="a_node18"><a xlink:title=" ">
<polygon fill="white" stroke="#bfbfbf" points="366,-660.5 366,-679.5 470,-679.5 470,-660.5 366,-660.5"/>
<text text-anchor="middle" x="418" y="-667.5" font-family="Helvetica,sans-Serif" font-size="10.00">odp/api/abi/pool.h</text>
</a>
</g>
</g>
<!-- Node6&#45;&gt;Node18 -->
<g id="edge22" class="edge">
<title>Node6&#45;&gt;Node18</title>
<path fill="none" stroke="midnightblue" d="M434.88,-940.35C422.79,-922.38 397,-879.31 397,-839 397,-839 397,-839 397,-781 397,-748.38 406.02,-711.28 412.23,-689.57"/>
<polygon fill="midnightblue" stroke="midnightblue" points="415.67,-690.32 415.17,-679.73 408.96,-688.32 415.67,-690.32"/>
</g>
<!-- Node19 -->
<g id="node19" class="node">
<title>Node19</title>
<g id="a_node19"><a xlink:href="spec_2queue_8h.html" target="_top" xlink:title=" ">
<polygon fill="white" stroke="black" points="425,-884.5 425,-903.5 545,-903.5 545,-884.5 425,-884.5"/>
<text text-anchor="middle" x="485" y="-891.5" font-family="Helvetica,sans-Serif" font-size="10.00">odp/api/spec/queue.h</text>
</a>
</g>
</g>
<!-- Node6&#45;&gt;Node19 -->
<g id="edge23" class="edge">
<title>Node6&#45;&gt;Node19</title>
<path fill="none" stroke="midnightblue" d="M448.27,-940.08C454.54,-932.38 463.79,-921.03 471.43,-911.65"/>
<polygon fill="midnightblue" stroke="midnightblue" points="474.27,-913.71 477.87,-903.75 468.84,-909.29 474.27,-913.71"/>
</g>
<!-- Node8 -->
<g id="node8" class="node">
<title>Node8</title>
<g id="a_node8"><a xlink:title=" ">
<polygon fill="white" stroke="#bfbfbf" points="852,-168.5 852,-187.5 982,-187.5 982,-168.5 852,-168.5"/>
<text text-anchor="middle" x="917" y="-175.5" font-family="Helvetica,sans-Serif" font-size="10.00">odp/api/abi/std_types.h</text>
</a>
</g>
</g>
<!-- Node7&#45;&gt;Node8 -->
<g id="edge8" class="edge">
<title>Node7&#45;&gt;Node8</title>
<path fill="none" stroke="midnightblue" d="M783.19,-224.44C809.94,-215.36 852.4,-200.94 882.31,-190.78"/>
<polygon fill="midnightblue" stroke="midnightblue" points="883.58,-194.05 891.92,-187.52 881.33,-187.42 883.58,-194.05"/>
</g>
<!-- Node9 -->
<g id="node9" class="node">
<title>Node9</title>
<g id="a_node9"><a xlink:href="spec_2std__types_8h.html" target="_top" xlink:title=" ">
<polygon fill="white" stroke="black" points="658.5,-168.5 658.5,-187.5 795.5,-187.5 795.5,-168.5 658.5,-168.5"/>
<text text-anchor="middle" x="727" y="-175.5" font-family="Helvetica,sans-Serif" font-size="10.00">odp/api/spec/std_types.h</text>
</a>
</g>
</g>
<!-- Node7&#45;&gt;Node9 -->
<g id="edge9" class="edge">
<title>Node7&#45;&gt;Node9</title>
<path fill="none" stroke="midnightblue" d="M752.88,-224.08C748.59,-216.61 742.34,-205.72 737.06,-196.52"/>
<polygon fill="midnightblue" stroke="midnightblue" points="740.04,-194.68 732.02,-187.75 733.97,-198.17 740.04,-194.68"/>
</g>
<!-- Node9&#45;&gt;Node2 -->
<g id="edge10" class="edge">
<title>Node9&#45;&gt;Node2</title>
<path fill="none" stroke="midnightblue" d="M706.02,-168.48C664.17,-151.41 567.4,-111.6 487,-76 467.73,-67.47 464.06,-62.48 444,-56 390.23,-38.64 327.26,-27.02 280.04,-19.95"/>
<polygon fill="midnightblue" stroke="midnightblue" points="280.31,-16.45 269.91,-18.46 279.3,-23.38 280.31,-16.45"/>
</g>
<!-- Node9&#45;&gt;Node5 -->
<g id="edge17" class="edge">
<title>Node9&#45;&gt;Node5</title>
<path fill="none" stroke="midnightblue" d="M759.46,-168.44C784.87,-160.94 820.55,-148.65 849,-132 900.46,-101.88 951.33,-52.52 975.86,-27.15"/>
<polygon fill="midnightblue" stroke="midnightblue" points="978.49,-29.47 982.86,-19.82 973.42,-24.63 978.49,-29.47"/>
</g>
<!-- Node10 -->
<g id="node10" class="node">
<title>Node10</title>
<g id="a_node10"><a xlink:title=" ">
<polygon fill="white" stroke="#bfbfbf" points="787.5,-112.5 787.5,-131.5 840.5,-131.5 840.5,-112.5 787.5,-112.5"/>
<text text-anchor="middle" x="814" y="-119.5" font-family="Helvetica,sans-Serif" font-size="10.00">stdint.h</text>
</a>
</g>
</g>
<!-- Node9&#45;&gt;Node10 -->
<g id="edge11" class="edge">
<title>Node9&#45;&gt;Node10</title>
<path fill="none" stroke="midnightblue" d="M740.98,-168.32C754.55,-159.9 775.38,-146.97 791.32,-137.07"/>
<polygon fill="midnightblue" stroke="midnightblue" points="793.41,-139.9 800.06,-131.65 789.71,-133.95 793.41,-139.9"/>
</g>
<!-- Node11 -->
<g id="node11" class="node">
<title>Node11</title>
<g id="a_node11"><a xlink:href="align_8h.html" target="_top" xlink:title=" ">
<polygon fill="white" stroke="black" points="680.5,-112.5 680.5,-131.5 769.5,-131.5 769.5,-112.5 680.5,-112.5"/>
<text text-anchor="middle" x="725" y="-119.5" font-family="Helvetica,sans-Serif" font-size="10.00">odp/api/align.h</text>
</a>
</g>
</g>
<!-- Node9&#45;&gt;Node11 -->
<g id="edge12" class="edge">
<title>Node9&#45;&gt;Node11</title>
<path fill="none" stroke="midnightblue" d="M726.67,-168.08C726.41,-161.01 726.03,-150.86 725.7,-141.99"/>
<polygon fill="midnightblue" stroke="midnightblue" points="729.19,-141.61 725.32,-131.75 722.2,-141.87 729.19,-141.61"/>
</g>
<!-- Node12 -->
<g id="node12" class="node">
<title>Node12</title>
<g id="a_node12"><a xlink:title=" ">
<polygon fill="white" stroke="#bfbfbf" points="798.5,-56.5 798.5,-75.5 905.5,-75.5 905.5,-56.5 798.5,-56.5"/>
<text text-anchor="middle" x="852" y="-63.5" font-family="Helvetica,sans-Serif" font-size="10.00">odp/api/abi/align.h</text>
</a>
</g>
</g>
<!-- Node11&#45;&gt;Node12 -->
<g id="edge13" class="edge">
<title>Node11&#45;&gt;Node12</title>
<path fill="none" stroke="midnightblue" d="M745.12,-112.44C766.02,-103.56 798.93,-89.56 822.72,-79.45"/>
<polygon fill="midnightblue" stroke="midnightblue" points="824.14,-82.65 831.97,-75.52 821.4,-76.21 824.14,-82.65"/>
</g>
<!-- Node13 -->
<g id="node13" class="node">
<title>Node13</title>
<g id="a_node13"><a xlink:href="spec_2align_8h.html" target="_top" xlink:title=" ">
<polygon fill="white" stroke="black" points="666,-56.5 666,-75.5 780,-75.5 780,-56.5 666,-56.5"/>
<text text-anchor="middle" x="723" y="-63.5" font-family="Helvetica,sans-Serif" font-size="10.00">odp/api/spec/align.h</text>
</a>
</g>
</g>
<!-- Node11&#45;&gt;Node13 -->
<g id="edge14" class="edge">
<title>Node11&#45;&gt;Node13</title>
<path fill="none" stroke="midnightblue" d="M724.67,-112.08C724.41,-105.01 724.03,-94.86 723.7,-85.99"/>
<polygon fill="midnightblue" stroke="midnightblue" points="727.19,-85.61 723.32,-75.75 720.2,-85.87 727.19,-85.61"/>
</g>
<!-- Node13&#45;&gt;Node2 -->
<g id="edge15" class="edge">
<title>Node13&#45;&gt;Node2</title>
<path fill="none" stroke="midnightblue" d="M665.53,-58.96C570.84,-49.01 382.31,-29.21 279.63,-18.42"/>
<polygon fill="midnightblue" stroke="midnightblue" points="279.98,-14.94 269.67,-17.37 279.25,-21.9 279.98,-14.94"/>
</g>
<!-- Node13&#45;&gt;Node5 -->
<g id="edge16" class="edge">
<title>Node13&#45;&gt;Node5</title>
<path fill="none" stroke="midnightblue" d="M765.47,-56.44C812.41,-46.98 888.08,-31.74 938.65,-21.55"/>
<polygon fill="midnightblue" stroke="midnightblue" points="939.62,-24.92 948.73,-19.52 938.24,-18.06 939.62,-24.92"/>
</g>
<!-- Node19&#45;&gt;Node2 -->
<g id="edge24" class="edge">
<title>Node19&#45;&gt;Node2</title>
<path fill="none" stroke="midnightblue" d="M424.98,-885.92C385.04,-879.61 332.18,-868.16 289,-848 194.25,-803.77 134,-775.57 134,-671 134,-671 134,-671 134,-613 134,-517 38,-515.5 38,-419.5 38,-419.5 38,-419.5 38,-121 38,-64.74 104.28,-35.9 154.31,-22.14"/>
<polygon fill="midnightblue" stroke="midnightblue" points="155.28,-25.5 164.07,-19.58 153.51,-18.73 155.28,-25.5"/>
</g>
<!-- Node19&#45;&gt;Node5 -->
<g id="edge72" class="edge">
<title>Node19&#45;&gt;Node5</title>
<path fill="none" stroke="midnightblue" d="M534.63,-884.46C615.28,-869.87 779.22,-837.3 913,-792 970.66,-772.48 983.33,-762.78 1038,-736 1085.49,-712.73 1109.64,-721.04 1143,-680 1161.99,-656.65 1162,-645.1 1162,-615 1162,-615 1162,-615 1162,-121 1162,-64.74 1095.72,-35.9 1045.69,-22.14"/>
<polygon fill="midnightblue" stroke="midnightblue" points="1046.49,-18.73 1035.93,-19.58 1044.72,-25.5 1046.49,-18.73"/>
</g>
<!-- Node20 -->
<g id="node20" class="node">
<title>Node20</title>
<g id="a_node20"><a xlink:href="event_8h.html" target="_top" xlink:title=" ">
<polygon fill="white" stroke="black" points="533,-828.5 533,-847.5 625,-847.5 625,-828.5 533,-828.5"/>
<text text-anchor="middle" x="579" y="-835.5" font-family="Helvetica,sans-Serif" font-size="10.00">odp/api/event.h</text>
</a>
</g>
</g>
<!-- Node19&#45;&gt;Node20 -->
<g id="edge25" class="edge">
<title>Node19&#45;&gt;Node20</title>
<path fill="none" stroke="midnightblue" d="M500.1,-884.32C514.9,-875.82 537.69,-862.73 554.98,-852.8"/>
<polygon fill="midnightblue" stroke="midnightblue" points="557.01,-855.67 563.93,-847.65 553.52,-849.6 557.01,-855.67"/>
</g>
<!-- Node35 -->
<g id="node35" class="node">
<title>Node35</title>
<g id="a_node35"><a xlink:href="queue__types_8h.html" target="_top" xlink:title=" ">
<polygon fill="white" stroke="black" points="218.5,-476 218.5,-495 345.5,-495 345.5,-476 218.5,-476"/>
<text text-anchor="middle" x="282" y="-483" font-family="Helvetica,sans-Serif" font-size="10.00">odp/api/queue_types.h</text>
</a>
</g>
</g>
<!-- Node19&#45;&gt;Node35 -->
<g id="edge71" class="edge">
<title>Node19&#45;&gt;Node35</title>
<path fill="none" stroke="midnightblue" d="M444.72,-884.45C360.19,-863.88 172,-803.24 172,-671 172,-671 172,-671 172,-613 172,-561.61 224.33,-520.93 256.8,-500.64"/>
<polygon fill="midnightblue" stroke="midnightblue" points="259.01,-503.39 265.77,-495.23 255.4,-497.4 259.01,-503.39"/>
</g>
<!-- Node20&#45;&gt;Node14 -->
<g id="edge26" class="edge">
<title>Node20&#45;&gt;Node14</title>
<path fill="none" stroke="midnightblue" d="M625.17,-834.04C707.18,-827.14 881.7,-804.91 1010,-736 1032.54,-723.89 1053.16,-702.51 1065.87,-687.59"/>
<polygon fill="midnightblue" stroke="midnightblue" points="1068.74,-689.62 1072.39,-679.67 1063.33,-685.17 1068.74,-689.62"/>
</g>
<!-- Node21 -->
<g id="node21" class="node">
<title>Node21</title>
<g id="a_node21"><a xlink:href="spec_2event_8h.html" target="_top" xlink:title=" ">
<polygon fill="white" stroke="black" points="520,-772.5 520,-791.5 638,-791.5 638,-772.5 520,-772.5"/>
<text text-anchor="middle" x="579" y="-779.5" font-family="Helvetica,sans-Serif" font-size="10.00">odp/api/spec/event.h</text>
</a>
</g>
</g>
<!-- Node20&#45;&gt;Node21 -->
<g id="edge27" class="edge">
<title>Node20&#45;&gt;Node21</title>
<path fill="none" stroke="midnightblue" d="M579,-828.08C579,-821.01 579,-810.86 579,-801.99"/>
<polygon fill="midnightblue" stroke="midnightblue" points="582.5,-801.75 579,-791.75 575.5,-801.75 582.5,-801.75"/>
</g>
<!-- Node21&#45;&gt;Node2 -->
<g id="edge28" class="edge">
<title>Node21&#45;&gt;Node2</title>
<path fill="none" stroke="midnightblue" d="M553.33,-772.38C510.52,-757.36 422.74,-723.76 357,-680 286.12,-632.82 76,-504.65 76,-419.5 76,-419.5 76,-419.5 76,-121 76,-70.73 133.13,-39.1 172.5,-23.27"/>
<polygon fill="midnightblue" stroke="midnightblue" points="174.01,-26.45 182.09,-19.59 171.5,-19.91 174.01,-26.45"/>
</g>
<!-- Node21&#45;&gt;Node5 -->
<g id="edge70" class="edge">
<title>Node21&#45;&gt;Node5</title>
<path fill="none" stroke="midnightblue" d="M638.01,-777.95C720.07,-771.21 870.44,-749.55 976,-680 1087.2,-606.74 1124,-552.66 1124,-419.5 1124,-419.5 1124,-419.5 1124,-121 1124,-70.73 1066.87,-39.1 1027.5,-23.27"/>
<polygon fill="midnightblue" stroke="midnightblue" points="1028.5,-19.91 1017.91,-19.59 1025.99,-26.45 1028.5,-19.91"/>
</g>
<!-- Node22 -->
<g id="node22" class="node">
<title>Node22</title>
<g id="a_node22"><a xlink:href="packet_8h.html" target="_top" xlink:title=" ">
<polygon fill="white" stroke="black" points="530.5,-716.5 530.5,-735.5 627.5,-735.5 627.5,-716.5 530.5,-716.5"/>
<text text-anchor="middle" x="579" y="-723.5" font-family="Helvetica,sans-Serif" font-size="10.00">odp/api/packet.h</text>
</a>
</g>
</g>
<!-- Node21&#45;&gt;Node22 -->
<g id="edge29" class="edge">
<title>Node21&#45;&gt;Node22</title>
<path fill="none" stroke="midnightblue" d="M579,-772.08C579,-765.01 579,-754.86 579,-745.99"/>
<polygon fill="midnightblue" stroke="midnightblue" points="582.5,-745.75 579,-735.75 575.5,-745.75 582.5,-745.75"/>
</g>
<!-- Node22&#45;&gt;Node7 -->
<g id="edge30" class="edge">
<title>Node22&#45;&gt;Node7</title>
<path fill="none" stroke="midnightblue" d="M571.71,-716.33C564.89,-707.71 555.01,-693.8 550,-680 528.2,-619.98 518.54,-598.42 536,-537 572.73,-407.81 603.22,-378.07 695,-280 706.38,-267.84 721.51,-256.91 734.08,-248.86"/>
<polygon fill="midnightblue" stroke="midnightblue" points="736.03,-251.77 742.7,-243.54 732.35,-245.82 736.03,-251.77"/>
</g>
<!-- Node22&#45;&gt;Node14 -->
<g id="edge31" class="edge">
<title>Node22&#45;&gt;Node14</title>
<path fill="none" stroke="midnightblue" d="M627.85,-719.72C718.37,-709.95 912.15,-689.02 1013.76,-678.05"/>
<polygon fill="midnightblue" stroke="midnightblue" points="1014.33,-681.5 1023.9,-676.95 1013.58,-674.55 1014.33,-681.5"/>
</g>
<!-- Node22&#45;&gt;Node17 -->
<g id="edge35" class="edge">
<title>Node22&#45;&gt;Node17</title>
<path fill="none" stroke="midnightblue" d="M530.49,-716.92C473.39,-707.4 378.47,-691.58 316.31,-681.22"/>
<polygon fill="midnightblue" stroke="midnightblue" points="316.69,-677.73 306.25,-679.54 315.54,-684.64 316.69,-677.73"/>
</g>
<!-- Node22&#45;&gt;Node18 -->
<g id="edge36" class="edge">
<title>Node22&#45;&gt;Node18</title>
<path fill="none" stroke="midnightblue" d="M553.49,-716.44C526.4,-707.36 483.41,-692.94 453.13,-682.78"/>
<polygon fill="midnightblue" stroke="midnightblue" points="453.99,-679.38 443.39,-679.52 451.76,-686.01 453.99,-679.38"/>
</g>
<!-- Node23 -->
<g id="node23" class="node">
<title>Node23</title>
<g id="a_node23"><a xlink:title=" ">
<polygon fill="white" stroke="#bfbfbf" points="838.5,-660.5 838.5,-679.5 967.5,-679.5 967.5,-660.5 838.5,-660.5"/>
<text text-anchor="middle" x="903" y="-667.5" font-family="Helvetica,sans-Serif" font-size="10.00">odp/api/abi/packet_io.h</text>
</a>
</g>
</g>
<!-- Node22&#45;&gt;Node23 -->
<g id="edge32" class="edge">
<title>Node22&#45;&gt;Node23</title>
<path fill="none" stroke="midnightblue" d="M627.51,-716.92C684.61,-707.4 779.53,-691.58 841.69,-681.22"/>
<polygon fill="midnightblue" stroke="midnightblue" points="842.46,-684.64 851.75,-679.54 841.31,-677.73 842.46,-684.64"/>
</g>
<!-- Node24 -->
<g id="node24" class="node">
<title>Node24</title>
<g id="a_node24"><a xlink:title=" ">
<polygon fill="white" stroke="#bfbfbf" points="545,-537.5 545,-567.5 651,-567.5 651,-537.5 545,-537.5"/>
<text text-anchor="start" x="553" y="-555.5" font-family="Helvetica,sans-Serif" font-size="10.00">odp/api/abi/packet</text>
<text text-anchor="middle" x="598" y="-544.5" font-family="Helvetica,sans-Serif" font-size="10.00">_types.h</text>
</a>
</g>
</g>
<!-- Node22&#45;&gt;Node24 -->
<g id="edge33" class="edge">
<title>Node22&#45;&gt;Node24</title>
<path fill="none" stroke="midnightblue" d="M572.63,-716.23C566.74,-707.53 558.39,-693.57 555,-680 552.84,-671.38 553.3,-668.73 555,-660 560.81,-630.09 575,-597.94 585.5,-576.89"/>
<polygon fill="midnightblue" stroke="midnightblue" points="588.73,-578.27 590.17,-567.77 582.5,-575.08 588.73,-578.27"/>
</g>
<!-- Node25 -->
<g id="node25" class="node">
<title>Node25</title>
<g id="a_node25"><a xlink:title=" ">
<polygon fill="white" stroke="#bfbfbf" points="564.5,-660.5 564.5,-679.5 679.5,-679.5 679.5,-660.5 564.5,-660.5"/>
<text text-anchor="middle" x="622" y="-667.5" font-family="Helvetica,sans-Serif" font-size="10.00">odp/api/abi/packet.h</text>
</a>
</g>
</g>
<!-- Node22&#45;&gt;Node25 -->
<g id="edge34" class="edge">
<title>Node22&#45;&gt;Node25</title>
<path fill="none" stroke="midnightblue" d="M586.1,-716.08C592.24,-708.38 601.27,-697.03 608.74,-687.65"/>
<polygon fill="midnightblue" stroke="midnightblue" points="611.54,-689.75 615.03,-679.75 606.06,-685.39 611.54,-689.75"/>
</g>
<!-- Node26 -->
<g id="node26" class="node">
<title>Node26</title>
<g id="a_node26"><a xlink:href="spec_2packet_8h.html" target="_top" xlink:title=" ">
<polygon fill="white" stroke="black" points="698,-660.5 698,-679.5 820,-679.5 820,-660.5 698,-660.5"/>
<text text-anchor="middle" x="759" y="-667.5" font-family="Helvetica,sans-Serif" font-size="10.00">odp/api/spec/packet.h</text>
</a>
</g>
</g>
<!-- Node22&#45;&gt;Node26 -->
<g id="edge37" class="edge">
<title>Node22&#45;&gt;Node26</title>
<path fill="none" stroke="midnightblue" d="M607.52,-716.44C638.07,-707.28 686.71,-692.69 720.6,-682.52"/>
<polygon fill="midnightblue" stroke="midnightblue" points="722.04,-685.74 730.61,-679.52 720.03,-679.04 722.04,-685.74"/>
</g>
<!-- Node26&#45;&gt;Node2 -->
<g id="edge38" class="edge">
<title>Node26&#45;&gt;Node2</title>
<path fill="none" stroke="midnightblue" d="M717.2,-660.43C603.22,-636.43 290.12,-566.02 209,-501 171.81,-471.19 114,-307.77 114,-296.5 114,-296.5 114,-296.5 114,-121 114,-77.74 156.61,-43.09 184.75,-24.91"/>
<polygon fill="midnightblue" stroke="midnightblue" points="186.66,-27.85 193.31,-19.6 182.97,-21.9 186.66,-27.85"/>
</g>
<!-- Node26&#45;&gt;Node5 -->
<g id="edge69" class="edge">
<title>Node26&#45;&gt;Node5</title>
<path fill="none" stroke="midnightblue" d="M820.35,-660.83C858.83,-654.2 908.77,-642.79 950,-624 998.83,-601.75 1048,-607.16 1048,-553.5 1048,-553.5 1048,-553.5 1048,-484.5 1048,-399.25 1086,-381.75 1086,-296.5 1086,-296.5 1086,-296.5 1086,-121 1086,-77.74 1043.39,-43.09 1015.25,-24.91"/>
<polygon fill="midnightblue" stroke="midnightblue" points="1017.03,-21.9 1006.69,-19.6 1013.34,-27.85 1017.03,-21.9"/>
</g>
<!-- Node27 -->
<g id="node27" class="node">
<title>Node27</title>
<g id="a_node27"><a xlink:href="proto__stats__types_8h.html" target="_top" xlink:title=" ">
<polygon fill="white" stroke="black" points="724,-470.5 724,-500.5 834,-500.5 834,-470.5 724,-470.5"/>
<text text-anchor="start" x="732" y="-488.5" font-family="Helvetica,sans-Serif" font-size="10.00">odp/api/proto_stats</text>
<text text-anchor="middle" x="779" y="-477.5" font-family="Helvetica,sans-Serif" font-size="10.00">_types.h</text>
</a>
</g>
</g>
<!-- Node26&#45;&gt;Node27 -->
<g id="edge39" class="edge">
<title>Node26&#45;&gt;Node27</title>
<path fill="none" stroke="midnightblue" d="M767.75,-660.29C775.56,-651.84 786.45,-638.25 791,-624 803.28,-585.54 794.2,-538.15 786.55,-510.24"/>
<polygon fill="midnightblue" stroke="midnightblue" points="789.89,-509.18 783.74,-500.56 783.17,-511.14 789.89,-509.18"/>
</g>
<!-- Node30 -->
<g id="node30" class="node">
<title>Node30</title>
<g id="a_node30"><a xlink:href="time_8h.html" target="_top" xlink:title=" ">
<polygon fill="white" stroke="black" points="861.5,-286 861.5,-305 948.5,-305 948.5,-286 861.5,-286"/>
<text text-anchor="middle" x="905" y="-293" font-family="Helvetica,sans-Serif" font-size="10.00">odp/api/time.h</text>
</a>
</g>
</g>
<!-- Node26&#45;&gt;Node30 -->
<g id="edge45" class="edge">
<title>Node26&#45;&gt;Node30</title>
<path fill="none" stroke="midnightblue" d="M794.7,-660.49C863.99,-642.91 1010,-600.33 1010,-553.5 1010,-553.5 1010,-553.5 1010,-417.5 1010,-368.64 960.56,-329.86 929.53,-310.34"/>
<polygon fill="midnightblue" stroke="midnightblue" points="931.31,-307.32 920.95,-305.12 927.68,-313.31 931.31,-307.32"/>
</g>
<!-- Node33 -->
<g id="node33" class="node">
<title>Node33</title>
<g id="a_node33"><a xlink:href="packet__types_8h.html" target="_top" xlink:title=" ">
<polygon fill="white" stroke="black" points="653.5,-604.5 653.5,-623.5 782.5,-623.5 782.5,-604.5 653.5,-604.5"/>
<text text-anchor="middle" x="718" y="-611.5" font-family="Helvetica,sans-Serif" font-size="10.00">odp/api/packet_types.h</text>
</a>
</g>
</g>
<!-- Node26&#45;&gt;Node33 -->
<g id="edge51" class="edge">
<title>Node26&#45;&gt;Node33</title>
<path fill="none" stroke="midnightblue" d="M752.23,-660.08C746.44,-652.46 737.94,-641.26 730.86,-631.94"/>
<polygon fill="midnightblue" stroke="midnightblue" points="733.48,-629.6 724.64,-623.75 727.9,-633.83 733.48,-629.6"/>
</g>
<!-- Node28 -->
<g id="node28" class="node">
<title>Node28</title>
<g id="a_node28"><a xlink:title=" ">
<polygon fill="white" stroke="#bfbfbf" points="786,-403.5 786,-433.5 914,-433.5 914,-403.5 786,-403.5"/>
<text text-anchor="start" x="794" y="-421.5" font-family="Helvetica,sans-Serif" font-size="10.00">odp/api/abi/proto_stats</text>
<text text-anchor="middle" x="850" y="-410.5" font-family="Helvetica,sans-Serif" font-size="10.00">_types.h</text>
</a>
</g>
</g>
<!-- Node27&#45;&gt;Node28 -->
<g id="edge40" class="edge">
<title>Node27&#45;&gt;Node28</title>
<path fill="none" stroke="midnightblue" d="M794.41,-470.4C803.99,-461.62 816.49,-450.18 827.2,-440.37"/>
<polygon fill="midnightblue" stroke="midnightblue" points="829.61,-442.91 834.62,-433.58 824.88,-437.75 829.61,-442.91"/>
</g>
<!-- Node29 -->
<g id="node29" class="node">
<title>Node29</title>
<g id="a_node29"><a xlink:href="spec_2proto__stats__types_8h.html" target="_top" xlink:title=" ">
<polygon fill="white" stroke="black" points="704.5,-280.5 704.5,-310.5 811.5,-310.5 811.5,-280.5 704.5,-280.5"/>
<text text-anchor="start" x="712.5" y="-298.5" font-family="Helvetica,sans-Serif" font-size="10.00">odp/api/spec/proto</text>
<text text-anchor="middle" x="758" y="-287.5" font-family="Helvetica,sans-Serif" font-size="10.00">_stats_types.h</text>
</a>
</g>
</g>
<!-- Node27&#45;&gt;Node29 -->
<g id="edge41" class="edge">
<title>Node27&#45;&gt;Node29</title>
<path fill="none" stroke="midnightblue" d="M777.42,-470.37C773.86,-438.44 765.14,-360.44 760.7,-320.67"/>
<polygon fill="midnightblue" stroke="midnightblue" points="764.16,-320.09 759.57,-310.54 757.2,-320.86 764.16,-320.09"/>
</g>
<!-- Node29&#45;&gt;Node2 -->
<g id="edge42" class="edge">
<title>Node29&#45;&gt;Node2</title>
<path fill="none" stroke="midnightblue" d="M729.75,-280.45C711.01,-270.82 686.09,-257.41 665,-244 635.3,-225.11 442.03,-70.6 410,-56 368.84,-37.24 319.29,-26.03 279.68,-19.49"/>
<polygon fill="midnightblue" stroke="midnightblue" points="280,-16 269.57,-17.89 278.9,-22.91 280,-16"/>
</g>
<!-- Node29&#45;&gt;Node5 -->
<g id="edge44" class="edge">
<title>Node29&#45;&gt;Node5</title>
<path fill="none" stroke="midnightblue" d="M786.26,-280.42C815.71,-265.87 863.3,-242.71 905,-224 942.8,-207.04 968.04,-222.5 991,-188 1023.72,-138.83 1007.31,-63.72 997.1,-29.34"/>
<polygon fill="midnightblue" stroke="midnightblue" points="1000.4,-28.18 994.07,-19.69 993.72,-30.28 1000.4,-28.18"/>
</g>
<!-- Node29&#45;&gt;Node7 -->
<g id="edge43" class="edge">
<title>Node29&#45;&gt;Node7</title>
<path fill="none" stroke="midnightblue" d="M758,-280.4C758,-272.47 758,-262.46 758,-253.86"/>
<polygon fill="midnightblue" stroke="midnightblue" points="761.5,-253.66 758,-243.66 754.5,-253.66 761.5,-253.66"/>
</g>
<!-- Node30&#45;&gt;Node7 -->
<g id="edge46" class="edge">
<title>Node30&#45;&gt;Node7</title>
<path fill="none" stroke="midnightblue" d="M883.94,-285.98C858.94,-275.86 817.06,-258.9 788.51,-247.35"/>
<polygon fill="midnightblue" stroke="midnightblue" points="789.61,-244.02 779.02,-243.51 786.98,-250.51 789.61,-244.02"/>
</g>
<!-- Node31 -->
<g id="node31" class="node">
<title>Node31</title>
<g id="a_node31"><a xlink:title=" ">
<polygon fill="white" stroke="#bfbfbf" points="914.5,-224.5 914.5,-243.5 1019.5,-243.5 1019.5,-224.5 914.5,-224.5"/>
<text text-anchor="middle" x="967" y="-231.5" font-family="Helvetica,sans-Serif" font-size="10.00">odp/api/abi/time.h</text>
</a>
</g>
</g>
<!-- Node30&#45;&gt;Node31 -->
<g id="edge47" class="edge">
<title>Node30&#45;&gt;Node31</title>
<path fill="none" stroke="midnightblue" d="M913.88,-285.98C923.46,-276.78 938.91,-261.96 950.69,-250.66"/>
<polygon fill="midnightblue" stroke="midnightblue" points="953.34,-252.96 958.13,-243.51 948.49,-247.91 953.34,-252.96"/>
</g>
<!-- Node32 -->
<g id="node32" class="node">
<title>Node32</title>
<g id="a_node32"><a xlink:href="spec_2time_8h.html" target="_top" xlink:title=" ">
<polygon fill="white" stroke="black" points="496.5,-56.5 496.5,-75.5 609.5,-75.5 609.5,-56.5 496.5,-56.5"/>
<text text-anchor="middle" x="553" y="-63.5" font-family="Helvetica,sans-Serif" font-size="10.00">odp/api/spec/time.h</text>
</a>
</g>
</g>
<!-- Node30&#45;&gt;Node32 -->
<g id="edge48" class="edge">
<title>Node30&#45;&gt;Node32</title>
<path fill="none" stroke="midnightblue" d="M862.39,-285.91C804.69,-274.05 707.24,-253.08 693,-244 628.36,-202.77 580.74,-121.15 561.89,-84.98"/>
<polygon fill="midnightblue" stroke="midnightblue" points="564.81,-83.01 557.16,-75.68 558.57,-86.18 564.81,-83.01"/>
</g>
<!-- Node32&#45;&gt;Node2 -->
<g id="edge49" class="edge">
<title>Node32&#45;&gt;Node2</title>
<path fill="none" stroke="midnightblue" d="M498.49,-56.44C437.35,-46.85 338.26,-31.29 273.36,-21.1"/>
<polygon fill="midnightblue" stroke="midnightblue" points="273.67,-17.61 263.25,-19.52 272.59,-24.52 273.67,-17.61"/>
</g>
<!-- Node32&#45;&gt;Node5 -->
<g id="edge50" class="edge">
<title>Node32&#45;&gt;Node5</title>
<path fill="none" stroke="midnightblue" d="M609.58,-57.81C614.46,-57.19 619.31,-56.58 624,-56 729.1,-42.9 851.17,-27.99 924.68,-19.05"/>
<polygon fill="midnightblue" stroke="midnightblue" points="925.22,-22.51 934.72,-17.83 924.37,-15.56 925.22,-22.51"/>
</g>
<!-- Node33&#45;&gt;Node24 -->
<g id="edge52" class="edge">
<title>Node33&#45;&gt;Node24</title>
<path fill="none" stroke="midnightblue" d="M700.81,-604.48C683.8,-596.04 657.2,-582.86 635.33,-572.01"/>
<polygon fill="midnightblue" stroke="midnightblue" points="636.8,-568.83 626.28,-567.52 633.69,-575.1 636.8,-568.83"/>
</g>
<!-- Node34 -->
<g id="node34" class="node">
<title>Node34</title>
<g id="a_node34"><a xlink:href="spec_2packet__types_8h.html" target="_top" xlink:title=" ">
<polygon fill="white" stroke="black" points="669.5,-537.5 669.5,-567.5 782.5,-567.5 782.5,-537.5 669.5,-537.5"/>
<text text-anchor="start" x="677.5" y="-555.5" font-family="Helvetica,sans-Serif" font-size="10.00">odp/api/spec/packet</text>
<text text-anchor="middle" x="726" y="-544.5" font-family="Helvetica,sans-Serif" font-size="10.00">_types.h</text>
</a>
</g>
</g>
<!-- Node33&#45;&gt;Node34 -->
<g id="edge53" class="edge">
<title>Node33&#45;&gt;Node34</title>
<path fill="none" stroke="midnightblue" d="M719.15,-604.48C720.09,-597.47 721.47,-587.19 722.75,-577.7"/>
<polygon fill="midnightblue" stroke="midnightblue" points="726.25,-577.9 724.11,-567.52 719.31,-576.97 726.25,-577.9"/>
</g>
<!-- Node34&#45;&gt;Node2 -->
<g id="edge54" class="edge">
<title>Node34&#45;&gt;Node2</title>
<path fill="none" stroke="midnightblue" d="M669.41,-539.17C597.55,-522.07 471.11,-487.15 373,-434 353.53,-423.45 353.99,-412.52 334,-403 267.02,-371.1 224.65,-418.24 171,-367 147.53,-344.59 152,-328.95 152,-296.5 152,-296.5 152,-296.5 152,-121 152,-84.3 177.32,-47.66 194.21,-27.3"/>
<polygon fill="midnightblue" stroke="midnightblue" points="196.95,-29.48 200.83,-19.62 191.65,-24.9 196.95,-29.48"/>
</g>
<!-- Node34&#45;&gt;Node5 -->
<g id="edge68" class="edge">
<title>Node34&#45;&gt;Node5</title>
<path fill="none" stroke="midnightblue" d="M766.15,-537.5C789.41,-528.58 818.8,-515.92 843,-501 970.06,-422.69 1048,-384.26 1048,-235 1048,-235 1048,-235 1048,-121 1048,-84.3 1022.68,-47.66 1005.79,-27.3"/>
<polygon fill="midnightblue" stroke="midnightblue" points="1008.35,-24.9 999.17,-19.62 1003.05,-29.48 1008.35,-24.9"/>
</g>
<!-- Node34&#45;&gt;Node27 -->
<g id="edge55" class="edge">
<title>Node34&#45;&gt;Node27</title>
<path fill="none" stroke="midnightblue" d="M737.5,-537.4C744.38,-528.96 753.26,-518.07 761.04,-508.52"/>
<polygon fill="midnightblue" stroke="midnightblue" points="763.92,-510.54 767.52,-500.58 758.49,-506.11 763.92,-510.54"/>
</g>
<!-- Node34&#45;&gt;Node35 -->
<g id="edge56" class="edge">
<title>Node34&#45;&gt;Node35</title>
<path fill="none" stroke="midnightblue" d="M669.19,-538.65C666.08,-538.07 663.01,-537.51 660,-537 527.6,-514.57 492.75,-521.28 360,-501 351.97,-499.77 343.49,-498.34 335.21,-496.86"/>
<polygon fill="midnightblue" stroke="midnightblue" points="335.7,-493.4 325.24,-495.05 334.45,-500.28 335.7,-493.4"/>
</g>
<!-- Node35&#45;&gt;Node15 -->
<g id="edge57" class="edge">
<title>Node35&#45;&gt;Node15</title>
<path fill="none" stroke="midnightblue" d="M278.09,-475.73C273.74,-465.99 266.6,-449.98 261.04,-437.53"/>
<polygon fill="midnightblue" stroke="midnightblue" points="264.12,-435.83 256.85,-428.13 257.73,-438.69 264.12,-435.83"/>
</g>
<!-- Node36 -->
<g id="node36" class="node">
<title>Node36</title>
<g id="a_node36"><a xlink:href="spec_2queue__types_8h.html" target="_top" xlink:title=" ">
<polygon fill="white" stroke="black" points="382.5,-403.5 382.5,-433.5 493.5,-433.5 493.5,-403.5 382.5,-403.5"/>
<text text-anchor="start" x="390.5" y="-421.5" font-family="Helvetica,sans-Serif" font-size="10.00">odp/api/spec/queue</text>
<text text-anchor="middle" x="438" y="-410.5" font-family="Helvetica,sans-Serif" font-size="10.00">_types.h</text>
</a>
</g>
</g>
<!-- Node35&#45;&gt;Node36 -->
<g id="edge58" class="edge">
<title>Node35&#45;&gt;Node36</title>
<path fill="none" stroke="midnightblue" d="M302.72,-475.87C326.12,-466.12 364.87,-449.97 394.92,-437.45"/>
<polygon fill="midnightblue" stroke="midnightblue" points="396.45,-440.61 404.33,-433.53 393.76,-434.14 396.45,-440.61"/>
</g>
<!-- Node36&#45;&gt;Node2 -->
<g id="edge59" class="edge">
<title>Node36&#45;&gt;Node2</title>
<path fill="none" stroke="midnightblue" d="M411.35,-403.36C363.66,-377.83 267.8,-325.35 258,-311 196.28,-220.64 202.4,-79.85 206.95,-29.6"/>
<polygon fill="midnightblue" stroke="midnightblue" points="210.44,-29.87 207.95,-19.57 203.47,-29.17 210.44,-29.87"/>
</g>
<!-- Node36&#45;&gt;Node3 -->
<g id="edge66" class="edge">
<title>Node36&#45;&gt;Node3</title>
<path fill="none" stroke="midnightblue" d="M391.33,-403.47C356.87,-393.12 310.54,-379.2 278.26,-369.5"/>
<polygon fill="midnightblue" stroke="midnightblue" points="278.89,-366.03 268.31,-366.51 276.88,-372.74 278.89,-366.03"/>
</g>
<!-- Node36&#45;&gt;Node5 -->
<g id="edge67" class="edge">
<title>Node36&#45;&gt;Node5</title>
<path fill="none" stroke="midnightblue" d="M465.39,-403.4C481.48,-394.32 501.61,-381.52 517,-367 551.72,-334.24 543.55,-310.83 580,-280 622.8,-243.8 641.09,-245.15 693,-224 741.03,-204.43 757.94,-211.83 804,-188 840.95,-168.88 846.09,-157.44 879,-132 910.52,-107.63 922.29,-105.56 949,-76 962.19,-61.4 974.04,-42.23 981.76,-28.5"/>
<polygon fill="midnightblue" stroke="midnightblue" points="984.89,-30.06 986.61,-19.61 978.75,-26.71 984.89,-30.06"/>
</g>
<!-- Node37 -->
<g id="node37" class="node">
<title>Node37</title>
<g id="a_node37"><a xlink:href="schedule__types_8h.html" target="_top" xlink:title=" ">
<polygon fill="white" stroke="black" points="368,-347.5 368,-366.5 508,-366.5 508,-347.5 368,-347.5"/>
<text text-anchor="middle" x="438" y="-354.5" font-family="Helvetica,sans-Serif" font-size="10.00">odp/api/schedule_types.h</text>
</a>
</g>
</g>
<!-- Node36&#45;&gt;Node37 -->
<g id="edge60" class="edge">
<title>Node36&#45;&gt;Node37</title>
<path fill="none" stroke="midnightblue" d="M438,-403.4C438,-395.47 438,-385.46 438,-376.86"/>
<polygon fill="midnightblue" stroke="midnightblue" points="441.5,-376.66 438,-366.66 434.5,-376.66 441.5,-376.66"/>
</g>
<!-- Node38 -->
<g id="node38" class="node">
<title>Node38</title>
<g id="a_node38"><a xlink:title=" ">
<polygon fill="white" stroke="#bfbfbf" points="267.5,-280.5 267.5,-310.5 384.5,-310.5 384.5,-280.5 267.5,-280.5"/>
<text text-anchor="start" x="275.5" y="-298.5" font-family="Helvetica,sans-Serif" font-size="10.00">odp/api/abi/schedule</text>
<text text-anchor="middle" x="326" y="-287.5" font-family="Helvetica,sans-Serif" font-size="10.00">_types.h</text>
</a>
</g>
</g>
<!-- Node37&#45;&gt;Node38 -->
<g id="edge61" class="edge">
<title>Node37&#45;&gt;Node38</title>
<path fill="none" stroke="midnightblue" d="M421.95,-347.48C406.22,-339.12 381.7,-326.09 361.39,-315.3"/>
<polygon fill="midnightblue" stroke="midnightblue" points="362.87,-312.12 352.4,-310.52 359.59,-318.31 362.87,-312.12"/>
</g>
<!-- Node39 -->
<g id="node39" class="node">
<title>Node39</title>
<g id="a_node39"><a xlink:href="spec_2schedule__types_8h.html" target="_top" xlink:title=" ">
<polygon fill="white" stroke="black" points="402.5,-280.5 402.5,-310.5 527.5,-310.5 527.5,-280.5 402.5,-280.5"/>
<text text-anchor="start" x="410.5" y="-298.5" font-family="Helvetica,sans-Serif" font-size="10.00">odp/api/spec/schedule</text>
<text text-anchor="middle" x="465" y="-287.5" font-family="Helvetica,sans-Serif" font-size="10.00">_types.h</text>
</a>
</g>
</g>
<!-- Node37&#45;&gt;Node39 -->
<g id="edge62" class="edge">
<title>Node37&#45;&gt;Node39</title>
<path fill="none" stroke="midnightblue" d="M441.87,-347.48C445.15,-340.25 450.01,-329.53 454.44,-319.78"/>
<polygon fill="midnightblue" stroke="midnightblue" points="457.69,-321.08 458.64,-310.52 451.32,-318.18 457.69,-321.08"/>
</g>
<!-- Node39&#45;&gt;Node2 -->
<g id="edge63" class="edge">
<title>Node39&#45;&gt;Node2</title>
<path fill="none" stroke="midnightblue" d="M448.24,-280.39C409.64,-247.35 312.75,-161.31 247,-76 235.55,-61.15 225,-42.53 217.94,-29.04"/>
<polygon fill="midnightblue" stroke="midnightblue" points="220.92,-27.18 213.26,-19.86 214.69,-30.36 220.92,-27.18"/>
</g>
<!-- Node39&#45;&gt;Node5 -->
<g id="edge65" class="edge">
<title>Node39&#45;&gt;Node5</title>
<path fill="none" stroke="midnightblue" d="M471.51,-280.39C491.9,-237.99 559.07,-111.22 657,-56 701.46,-30.93 840.46,-19.13 924.48,-14.16"/>
<polygon fill="midnightblue" stroke="midnightblue" points="924.91,-17.64 934.7,-13.57 924.51,-10.65 924.91,-17.64"/>
</g>
<!-- Node39&#45;&gt;Node7 -->
<g id="edge64" class="edge">
<title>Node39&#45;&gt;Node7</title>
<path fill="none" stroke="midnightblue" d="M527.86,-281.74C581.03,-270.94 656.31,-255.65 706.1,-245.54"/>
<polygon fill="midnightblue" stroke="midnightblue" points="706.91,-248.95 716.02,-243.53 705.52,-242.09 706.91,-248.95"/>
</g>
</g>
</svg>
