<?xml version="1.0" encoding="UTF-8" standalone="no"?>
<!DOCTYPE svg PUBLIC "-//W3C//DTD SVG 1.1//EN"
 "http://www.w3.org/Graphics/SVG/1.1/DTD/svg11.dtd">
<!-- Generated by graphviz version 2.43.0 (0)
 -->
<!-- Title: crypto.h Pages: 1 -->
<svg width="1074pt" height="800pt"
 viewBox="0.00 0.00 1074.00 800.00" xmlns="http://www.w3.org/2000/svg" xmlns:xlink="http://www.w3.org/1999/xlink">
<g id="graph0" class="graph" transform="scale(1 1) rotate(0) translate(4 796)">
<title>crypto.h</title>
<polygon fill="white" stroke="transparent" points="-4,4 -4,-796 1070,-796 1070,4 -4,4"/>
<!-- Node1 -->
<g id="node1" class="node">
<title>Node1</title>
<g id="a_node1"><a xlink:title=" ">
<polygon fill="#bfbfbf" stroke="black" points="501,-772.5 501,-791.5 557,-791.5 557,-772.5 501,-772.5"/>
<text text-anchor="middle" x="529" y="-779.5" font-family="Helvetica,sans-Serif" font-size="10.00">crypto.h</text>
</a>
</g>
</g>
<!-- Node2 -->
<g id="node2" class="node">
<title>Node2</title>
<g id="a_node2"><a xlink:title=" ">
<polygon fill="white" stroke="#bfbfbf" points="160.5,-0.5 160.5,-19.5 281.5,-19.5 281.5,-0.5 160.5,-0.5"/>
<text text-anchor="middle" x="221" y="-7.5" font-family="Helvetica,sans-Serif" font-size="10.00">odp/visibility_begin.h</text>
</a>
</g>
</g>
<!-- Node1&#45;&gt;Node2 -->
<g id="edge1" class="edge">
<title>Node1&#45;&gt;Node2</title>
<path fill="none" stroke="midnightblue" d="M500.94,-780.64C413.29,-779.15 145.84,-771.71 68,-736 30,-718.57 0,-712.81 0,-671 0,-671 0,-671 0,-121 0,-52.76 85.5,-26.85 150.14,-17.02"/>
<polygon fill="midnightblue" stroke="midnightblue" points="150.91,-20.44 160.32,-15.57 149.93,-13.51 150.91,-20.44"/>
</g>
<!-- Node3 -->
<g id="node3" class="node">
<title>Node3</title>
<g id="a_node3"><a xlink:href="deprecated_8h.html" target="_top" xlink:title=" ">
<polygon fill="white" stroke="black" points="160.5,-347.5 160.5,-366.5 279.5,-366.5 279.5,-347.5 160.5,-347.5"/>
<text text-anchor="middle" x="220" y="-354.5" font-family="Helvetica,sans-Serif" font-size="10.00">odp/api/deprecated.h</text>
</a>
</g>
</g>
<!-- Node1&#45;&gt;Node3 -->
<g id="edge2" class="edge">
<title>Node1&#45;&gt;Node3</title>
<path fill="none" stroke="midnightblue" d="M500.84,-780.76C396.51,-779.12 38,-766.55 38,-671 38,-671 38,-671 38,-551.5 38,-462.46 141.51,-397.67 192.4,-371.19"/>
<polygon fill="midnightblue" stroke="midnightblue" points="194.21,-374.2 201.55,-366.55 191.05,-367.96 194.21,-374.2"/>
</g>
<!-- Node5 -->
<g id="node5" class="node">
<title>Node5</title>
<g id="a_node5"><a xlink:title=" ">
<polygon fill="white" stroke="#bfbfbf" points="689,-0.5 689,-19.5 801,-19.5 801,-0.5 689,-0.5"/>
<text text-anchor="middle" x="745" y="-7.5" font-family="Helvetica,sans-Serif" font-size="10.00">odp/visibility_end.h</text>
</a>
</g>
</g>
<!-- Node1&#45;&gt;Node5 -->
<g id="edge58" class="edge">
<title>Node1&#45;&gt;Node5</title>
<path fill="none" stroke="midnightblue" d="M557.12,-781.29C667.61,-781.71 1066,-775.92 1066,-671 1066,-671 1066,-671 1066,-121 1066,-82.28 1041.87,-74.76 1008,-56 975.05,-37.75 877.8,-24.52 811.26,-17.31"/>
<polygon fill="midnightblue" stroke="midnightblue" points="811.58,-13.82 801.27,-16.24 810.84,-20.78 811.58,-13.82"/>
</g>
<!-- Node6 -->
<g id="node6" class="node">
<title>Node6</title>
<g id="a_node6"><a xlink:href="std__types_8h.html" target="_top" xlink:title=" ">
<polygon fill="white" stroke="black" points="783,-224.5 783,-243.5 895,-243.5 895,-224.5 783,-224.5"/>
<text text-anchor="middle" x="839" y="-231.5" font-family="Helvetica,sans-Serif" font-size="10.00">odp/api/std_types.h</text>
</a>
</g>
</g>
<!-- Node1&#45;&gt;Node6 -->
<g id="edge6" class="edge">
<title>Node1&#45;&gt;Node6</title>
<path fill="none" stroke="midnightblue" d="M557.14,-780.36C657.23,-777.32 990,-760.48 990,-671 990,-671 990,-671 990,-356 990,-298.26 921.93,-263.51 877.19,-246.9"/>
<polygon fill="midnightblue" stroke="midnightblue" points="878.35,-243.6 867.76,-243.54 876,-250.19 878.35,-243.6"/>
</g>
<!-- Node13 -->
<g id="node13" class="node">
<title>Node13</title>
<g id="a_node13"><a xlink:href="packet_8h.html" target="_top" xlink:title=" ">
<polygon fill="white" stroke="black" points="480.5,-716.5 480.5,-735.5 577.5,-735.5 577.5,-716.5 480.5,-716.5"/>
<text text-anchor="middle" x="529" y="-723.5" font-family="Helvetica,sans-Serif" font-size="10.00">odp/api/packet.h</text>
</a>
</g>
</g>
<!-- Node1&#45;&gt;Node13 -->
<g id="edge17" class="edge">
<title>Node1&#45;&gt;Node13</title>
<path fill="none" stroke="midnightblue" d="M529,-772.08C529,-765.01 529,-754.86 529,-745.99"/>
<polygon fill="midnightblue" stroke="midnightblue" points="532.5,-745.75 529,-735.75 525.5,-745.75 532.5,-745.75"/>
</g>
<!-- Node4 -->
<g id="node4" class="node">
<title>Node4</title>
<g id="a_node4"><a xlink:href="spec_2deprecated_8h.html" target="_top" xlink:title=" ">
<polygon fill="white" stroke="black" points="198.5,-56.5 198.5,-75.5 343.5,-75.5 343.5,-56.5 198.5,-56.5"/>
<text text-anchor="middle" x="271" y="-63.5" font-family="Helvetica,sans-Serif" font-size="10.00">odp/api/spec/deprecated.h</text>
</a>
</g>
</g>
<!-- Node3&#45;&gt;Node4 -->
<g id="edge3" class="edge">
<title>Node3&#45;&gt;Node4</title>
<path fill="none" stroke="midnightblue" d="M219.12,-347.07C217.89,-332.82 216.1,-304.11 219,-280 227.82,-206.71 253.12,-122.22 264.87,-85.56"/>
<polygon fill="midnightblue" stroke="midnightblue" points="268.28,-86.38 268.05,-75.79 261.63,-84.22 268.28,-86.38"/>
</g>
<!-- Node4&#45;&gt;Node2 -->
<g id="edge4" class="edge">
<title>Node4&#45;&gt;Node2</title>
<path fill="none" stroke="midnightblue" d="M262.74,-56.08C255.54,-48.3 244.89,-36.8 236.15,-27.37"/>
<polygon fill="midnightblue" stroke="midnightblue" points="238.47,-24.71 229.1,-19.75 233.33,-29.47 238.47,-24.71"/>
</g>
<!-- Node4&#45;&gt;Node5 -->
<g id="edge5" class="edge">
<title>Node4&#45;&gt;Node5</title>
<path fill="none" stroke="midnightblue" d="M343.51,-56.74C434.81,-46.34 590.38,-28.61 678.67,-18.56"/>
<polygon fill="midnightblue" stroke="midnightblue" points="679.29,-22.01 688.83,-17.4 678.5,-15.05 679.29,-22.01"/>
</g>
<!-- Node7 -->
<g id="node7" class="node">
<title>Node7</title>
<g id="a_node7"><a xlink:title=" ">
<polygon fill="white" stroke="#bfbfbf" points="832,-168.5 832,-187.5 962,-187.5 962,-168.5 832,-168.5"/>
<text text-anchor="middle" x="897" y="-175.5" font-family="Helvetica,sans-Serif" font-size="10.00">odp/api/abi/std_types.h</text>
</a>
</g>
</g>
<!-- Node6&#45;&gt;Node7 -->
<g id="edge7" class="edge">
<title>Node6&#45;&gt;Node7</title>
<path fill="none" stroke="midnightblue" d="M848.32,-224.32C856.89,-216.34 869.81,-204.31 880.19,-194.65"/>
<polygon fill="midnightblue" stroke="midnightblue" points="882.58,-197.21 887.51,-187.83 877.81,-192.09 882.58,-197.21"/>
</g>
<!-- Node8 -->
<g id="node8" class="node">
<title>Node8</title>
<g id="a_node8"><a xlink:href="spec_2std__types_8h.html" target="_top" xlink:title=" ">
<polygon fill="white" stroke="black" points="676.5,-168.5 676.5,-187.5 813.5,-187.5 813.5,-168.5 676.5,-168.5"/>
<text text-anchor="middle" x="745" y="-175.5" font-family="Helvetica,sans-Serif" font-size="10.00">odp/api/spec/std_types.h</text>
</a>
</g>
</g>
<!-- Node6&#45;&gt;Node8 -->
<g id="edge8" class="edge">
<title>Node6&#45;&gt;Node8</title>
<path fill="none" stroke="midnightblue" d="M823.9,-224.32C809.1,-215.82 786.31,-202.73 769.02,-192.8"/>
<polygon fill="midnightblue" stroke="midnightblue" points="770.48,-189.6 760.07,-187.65 766.99,-195.67 770.48,-189.6"/>
</g>
<!-- Node8&#45;&gt;Node2 -->
<g id="edge9" class="edge">
<title>Node8&#45;&gt;Node2</title>
<path fill="none" stroke="midnightblue" d="M735.51,-168.43C709.69,-145.69 635.16,-83.63 561,-56 472.06,-22.86 362.05,-13.54 291.7,-11.23"/>
<polygon fill="midnightblue" stroke="midnightblue" points="291.71,-7.73 281.61,-10.94 291.5,-14.73 291.71,-7.73"/>
</g>
<!-- Node8&#45;&gt;Node5 -->
<g id="edge16" class="edge">
<title>Node8&#45;&gt;Node5</title>
<path fill="none" stroke="midnightblue" d="M767.37,-168.37C813.04,-150.25 914.27,-107.32 933,-76 937.56,-68.37 938.51,-62.98 933,-56 917.86,-36.81 859.1,-24.89 811.25,-18.18"/>
<polygon fill="midnightblue" stroke="midnightblue" points="811.6,-14.7 801.23,-16.83 810.67,-21.63 811.6,-14.7"/>
</g>
<!-- Node9 -->
<g id="node9" class="node">
<title>Node9</title>
<g id="a_node9"><a xlink:title=" ">
<polygon fill="white" stroke="#bfbfbf" points="908.5,-112.5 908.5,-131.5 961.5,-131.5 961.5,-112.5 908.5,-112.5"/>
<text text-anchor="middle" x="935" y="-119.5" font-family="Helvetica,sans-Serif" font-size="10.00">stdint.h</text>
</a>
</g>
</g>
<!-- Node8&#45;&gt;Node9 -->
<g id="edge10" class="edge">
<title>Node8&#45;&gt;Node9</title>
<path fill="none" stroke="midnightblue" d="M775.11,-168.44C808.53,-158.94 862.5,-143.61 898.35,-133.41"/>
<polygon fill="midnightblue" stroke="midnightblue" points="899.74,-136.66 908.41,-130.56 897.83,-129.93 899.74,-136.66"/>
</g>
<!-- Node10 -->
<g id="node10" class="node">
<title>Node10</title>
<g id="a_node10"><a xlink:href="align_8h.html" target="_top" xlink:title=" ">
<polygon fill="white" stroke="black" points="700.5,-112.5 700.5,-131.5 789.5,-131.5 789.5,-112.5 700.5,-112.5"/>
<text text-anchor="middle" x="745" y="-119.5" font-family="Helvetica,sans-Serif" font-size="10.00">odp/api/align.h</text>
</a>
</g>
</g>
<!-- Node8&#45;&gt;Node10 -->
<g id="edge11" class="edge">
<title>Node8&#45;&gt;Node10</title>
<path fill="none" stroke="midnightblue" d="M745,-168.08C745,-161.01 745,-150.86 745,-141.99"/>
<polygon fill="midnightblue" stroke="midnightblue" points="748.5,-141.75 745,-131.75 741.5,-141.75 748.5,-141.75"/>
</g>
<!-- Node11 -->
<g id="node11" class="node">
<title>Node11</title>
<g id="a_node11"><a xlink:title=" ">
<polygon fill="white" stroke="#bfbfbf" points="816.5,-56.5 816.5,-75.5 923.5,-75.5 923.5,-56.5 816.5,-56.5"/>
<text text-anchor="middle" x="870" y="-63.5" font-family="Helvetica,sans-Serif" font-size="10.00">odp/api/abi/align.h</text>
</a>
</g>
</g>
<!-- Node10&#45;&gt;Node11 -->
<g id="edge12" class="edge">
<title>Node10&#45;&gt;Node11</title>
<path fill="none" stroke="midnightblue" d="M764.81,-112.44C785.29,-103.6 817.48,-89.69 840.86,-79.59"/>
<polygon fill="midnightblue" stroke="midnightblue" points="842.49,-82.7 850.29,-75.52 839.72,-76.27 842.49,-82.7"/>
</g>
<!-- Node12 -->
<g id="node12" class="node">
<title>Node12</title>
<g id="a_node12"><a xlink:href="spec_2align_8h.html" target="_top" xlink:title=" ">
<polygon fill="white" stroke="black" points="646,-56.5 646,-75.5 760,-75.5 760,-56.5 646,-56.5"/>
<text text-anchor="middle" x="703" y="-63.5" font-family="Helvetica,sans-Serif" font-size="10.00">odp/api/spec/align.h</text>
</a>
</g>
</g>
<!-- Node10&#45;&gt;Node12 -->
<g id="edge13" class="edge">
<title>Node10&#45;&gt;Node12</title>
<path fill="none" stroke="midnightblue" d="M738.06,-112.08C732.07,-104.38 723.25,-93.03 715.95,-83.65"/>
<polygon fill="midnightblue" stroke="midnightblue" points="718.71,-81.5 709.81,-75.75 713.18,-85.79 718.71,-81.5"/>
</g>
<!-- Node12&#45;&gt;Node2 -->
<g id="edge14" class="edge">
<title>Node12&#45;&gt;Node2</title>
<path fill="none" stroke="midnightblue" d="M645.66,-57.65C641.04,-57.08 636.44,-56.52 632,-56 512.71,-41.91 373.75,-27.01 291.82,-18.38"/>
<polygon fill="midnightblue" stroke="midnightblue" points="291.93,-14.88 281.62,-17.31 291.2,-21.84 291.93,-14.88"/>
</g>
<!-- Node12&#45;&gt;Node5 -->
<g id="edge15" class="edge">
<title>Node12&#45;&gt;Node5</title>
<path fill="none" stroke="midnightblue" d="M709.94,-56.08C715.93,-48.38 724.75,-37.03 732.05,-27.65"/>
<polygon fill="midnightblue" stroke="midnightblue" points="734.82,-29.79 738.19,-19.75 729.29,-25.5 734.82,-29.79"/>
</g>
<!-- Node13&#45;&gt;Node6 -->
<g id="edge18" class="edge">
<title>Node13&#45;&gt;Node6</title>
<path fill="none" stroke="midnightblue" d="M577.7,-722.58C679.2,-717.1 906.25,-702.47 933,-680 956.05,-660.64 952,-645.1 952,-615 952,-615 952,-615 952,-356 952,-305.56 898.89,-267.41 865.49,-248.41"/>
<polygon fill="midnightblue" stroke="midnightblue" points="867.11,-245.3 856.66,-243.56 863.74,-251.44 867.11,-245.3"/>
</g>
<!-- Node14 -->
<g id="node14" class="node">
<title>Node14</title>
<g id="a_node14"><a xlink:title=" ">
<polygon fill="white" stroke="#bfbfbf" points="264,-660.5 264,-679.5 374,-679.5 374,-660.5 264,-660.5"/>
<text text-anchor="middle" x="319" y="-667.5" font-family="Helvetica,sans-Serif" font-size="10.00">odp/api/abi/event.h</text>
</a>
</g>
</g>
<!-- Node13&#45;&gt;Node14 -->
<g id="edge19" class="edge">
<title>Node13&#45;&gt;Node14</title>
<path fill="none" stroke="midnightblue" d="M495.72,-716.44C459.55,-707.14 401.62,-692.25 362.02,-682.06"/>
<polygon fill="midnightblue" stroke="midnightblue" points="362.68,-678.62 352.12,-679.52 360.93,-685.4 362.68,-678.62"/>
</g>
<!-- Node15 -->
<g id="node15" class="node">
<title>Node15</title>
<g id="a_node15"><a xlink:title=" ">
<polygon fill="white" stroke="#bfbfbf" points="392.5,-660.5 392.5,-679.5 521.5,-679.5 521.5,-660.5 392.5,-660.5"/>
<text text-anchor="middle" x="457" y="-667.5" font-family="Helvetica,sans-Serif" font-size="10.00">odp/api/abi/packet_io.h</text>
</a>
</g>
</g>
<!-- Node13&#45;&gt;Node15 -->
<g id="edge20" class="edge">
<title>Node13&#45;&gt;Node15</title>
<path fill="none" stroke="midnightblue" d="M517.43,-716.32C506.58,-708.18 490.12,-695.84 477.12,-686.09"/>
<polygon fill="midnightblue" stroke="midnightblue" points="478.88,-683.03 468.78,-679.83 474.68,-688.63 478.88,-683.03"/>
</g>
<!-- Node16 -->
<g id="node16" class="node">
<title>Node16</title>
<g id="a_node16"><a xlink:title=" ">
<polygon fill="white" stroke="#bfbfbf" points="204,-537.5 204,-567.5 310,-567.5 310,-537.5 204,-537.5"/>
<text text-anchor="start" x="212" y="-555.5" font-family="Helvetica,sans-Serif" font-size="10.00">odp/api/abi/packet</text>
<text text-anchor="middle" x="257" y="-544.5" font-family="Helvetica,sans-Serif" font-size="10.00">_types.h</text>
</a>
</g>
</g>
<!-- Node13&#45;&gt;Node16 -->
<g id="edge21" class="edge">
<title>Node13&#45;&gt;Node16</title>
<path fill="none" stroke="midnightblue" d="M480.36,-723.03C379.66,-718.46 155.78,-705.52 133,-680 97.4,-640.13 167.29,-596.09 215.85,-571.92"/>
<polygon fill="midnightblue" stroke="midnightblue" points="217.47,-575.02 224.93,-567.5 214.41,-568.73 217.47,-575.02"/>
</g>
<!-- Node17 -->
<g id="node17" class="node">
<title>Node17</title>
<g id="a_node17"><a xlink:title=" ">
<polygon fill="white" stroke="#bfbfbf" points="680.5,-660.5 680.5,-679.5 795.5,-679.5 795.5,-660.5 680.5,-660.5"/>
<text text-anchor="middle" x="738" y="-667.5" font-family="Helvetica,sans-Serif" font-size="10.00">odp/api/abi/packet.h</text>
</a>
</g>
</g>
<!-- Node13&#45;&gt;Node17 -->
<g id="edge22" class="edge">
<title>Node13&#45;&gt;Node17</title>
<path fill="none" stroke="midnightblue" d="M562.12,-716.44C598.12,-707.14 655.77,-692.25 695.19,-682.06"/>
<polygon fill="midnightblue" stroke="midnightblue" points="696.23,-685.41 705.04,-679.52 694.48,-678.63 696.23,-685.41"/>
</g>
<!-- Node18 -->
<g id="node18" class="node">
<title>Node18</title>
<g id="a_node18"><a xlink:title=" ">
<polygon fill="white" stroke="#bfbfbf" points="814,-660.5 814,-679.5 924,-679.5 924,-660.5 814,-660.5"/>
<text text-anchor="middle" x="869" y="-667.5" font-family="Helvetica,sans-Serif" font-size="10.00">odp/api/abi/buffer.h</text>
</a>
</g>
</g>
<!-- Node13&#45;&gt;Node18 -->
<g id="edge23" class="edge">
<title>Node13&#45;&gt;Node18</title>
<path fill="none" stroke="midnightblue" d="M577.71,-717.26C637.5,-707.77 739.04,-691.64 805.05,-681.16"/>
<polygon fill="midnightblue" stroke="midnightblue" points="806,-684.55 815.33,-679.52 804.9,-677.64 806,-684.55"/>
</g>
<!-- Node19 -->
<g id="node19" class="node">
<title>Node19</title>
<g id="a_node19"><a xlink:title=" ">
<polygon fill="white" stroke="#bfbfbf" points="142,-660.5 142,-679.5 246,-679.5 246,-660.5 142,-660.5"/>
<text text-anchor="middle" x="194" y="-667.5" font-family="Helvetica,sans-Serif" font-size="10.00">odp/api/abi/pool.h</text>
</a>
</g>
</g>
<!-- Node13&#45;&gt;Node19 -->
<g id="edge24" class="edge">
<title>Node13&#45;&gt;Node19</title>
<path fill="none" stroke="midnightblue" d="M480.29,-717.15C421.03,-707.6 320.92,-691.46 256.16,-681.02"/>
<polygon fill="midnightblue" stroke="midnightblue" points="256.51,-677.53 246.08,-679.39 255.4,-684.44 256.51,-677.53"/>
</g>
<!-- Node20 -->
<g id="node20" class="node">
<title>Node20</title>
<g id="a_node20"><a xlink:href="spec_2packet_8h.html" target="_top" xlink:title=" ">
<polygon fill="white" stroke="black" points="540,-660.5 540,-679.5 662,-679.5 662,-660.5 540,-660.5"/>
<text text-anchor="middle" x="601" y="-667.5" font-family="Helvetica,sans-Serif" font-size="10.00">odp/api/spec/packet.h</text>
</a>
</g>
</g>
<!-- Node13&#45;&gt;Node20 -->
<g id="edge25" class="edge">
<title>Node13&#45;&gt;Node20</title>
<path fill="none" stroke="midnightblue" d="M540.57,-716.32C551.42,-708.18 567.88,-695.84 580.88,-686.09"/>
<polygon fill="midnightblue" stroke="midnightblue" points="583.32,-688.63 589.22,-679.83 579.12,-683.03 583.32,-688.63"/>
</g>
<!-- Node20&#45;&gt;Node2 -->
<g id="edge26" class="edge">
<title>Node20&#45;&gt;Node2</title>
<path fill="none" stroke="midnightblue" d="M547.59,-660.49C451.08,-644.35 252.34,-607.35 195,-568 102.71,-504.67 56,-469.93 56,-358 56,-358 56,-358 56,-121 56,-65.44 121.57,-36.22 170.04,-22.2"/>
<polygon fill="midnightblue" stroke="midnightblue" points="171.08,-25.55 179.79,-19.52 169.22,-18.8 171.08,-25.55"/>
</g>
<!-- Node20&#45;&gt;Node5 -->
<g id="edge57" class="edge">
<title>Node20&#45;&gt;Node5</title>
<path fill="none" stroke="midnightblue" d="M655.16,-660.47C744.75,-644.81 914,-608.02 914,-553.5 914,-553.5 914,-553.5 914,-417.5 914,-321.86 1028,-330.64 1028,-235 1028,-235 1028,-235 1028,-121 1028,-85.09 1010.39,-75.14 980,-56 929.36,-24.11 861.28,-13.86 811.44,-11"/>
<polygon fill="midnightblue" stroke="midnightblue" points="811.57,-7.5 801.41,-10.5 811.23,-14.49 811.57,-7.5"/>
</g>
<!-- Node21 -->
<g id="node21" class="node">
<title>Node21</title>
<g id="a_node21"><a xlink:href="proto__stats__types_8h.html" target="_top" xlink:title=" ">
<polygon fill="white" stroke="black" points="634,-470.5 634,-500.5 744,-500.5 744,-470.5 634,-470.5"/>
<text text-anchor="start" x="642" y="-488.5" font-family="Helvetica,sans-Serif" font-size="10.00">odp/api/proto_stats</text>
<text text-anchor="middle" x="689" y="-477.5" font-family="Helvetica,sans-Serif" font-size="10.00">_types.h</text>
</a>
</g>
</g>
<!-- Node20&#45;&gt;Node21 -->
<g id="edge27" class="edge">
<title>Node20&#45;&gt;Node21</title>
<path fill="none" stroke="midnightblue" d="M605.24,-660.2C618.28,-633.16 658.04,-550.7 677.72,-509.89"/>
<polygon fill="midnightblue" stroke="midnightblue" points="680.96,-511.22 682.16,-500.69 674.66,-508.18 680.96,-511.22"/>
</g>
<!-- Node24 -->
<g id="node24" class="node">
<title>Node24</title>
<g id="a_node24"><a xlink:href="time_8h.html" target="_top" xlink:title=" ">
<polygon fill="white" stroke="black" points="606.5,-286 606.5,-305 693.5,-305 693.5,-286 606.5,-286"/>
<text text-anchor="middle" x="650" y="-293" font-family="Helvetica,sans-Serif" font-size="10.00">odp/api/time.h</text>
</a>
</g>
</g>
<!-- Node20&#45;&gt;Node24 -->
<g id="edge33" class="edge">
<title>Node20&#45;&gt;Node24</title>
<path fill="none" stroke="midnightblue" d="M601,-660.31C601,-641.06 601,-593.4 601,-553.5 601,-553.5 601,-553.5 601,-417.5 601,-378.04 623.67,-336.28 638.17,-313.6"/>
<polygon fill="midnightblue" stroke="midnightblue" points="641.19,-315.39 643.79,-305.12 635.35,-311.52 641.19,-315.39"/>
</g>
<!-- Node27 -->
<g id="node27" class="node">
<title>Node27</title>
<g id="a_node27"><a xlink:href="packet__types_8h.html" target="_top" xlink:title=" ">
<polygon fill="white" stroke="black" points="420.5,-604.5 420.5,-623.5 549.5,-623.5 549.5,-604.5 420.5,-604.5"/>
<text text-anchor="middle" x="485" y="-611.5" font-family="Helvetica,sans-Serif" font-size="10.00">odp/api/packet_types.h</text>
</a>
</g>
</g>
<!-- Node20&#45;&gt;Node27 -->
<g id="edge39" class="edge">
<title>Node20&#45;&gt;Node27</title>
<path fill="none" stroke="midnightblue" d="M582.62,-660.44C563.78,-651.68 534.27,-637.94 512.62,-627.86"/>
<polygon fill="midnightblue" stroke="midnightblue" points="513.84,-624.56 503.29,-623.52 510.88,-630.91 513.84,-624.56"/>
</g>
<!-- Node22 -->
<g id="node22" class="node">
<title>Node22</title>
<g id="a_node22"><a xlink:title=" ">
<polygon fill="white" stroke="#bfbfbf" points="629,-403.5 629,-433.5 757,-433.5 757,-403.5 629,-403.5"/>
<text text-anchor="start" x="637" y="-421.5" font-family="Helvetica,sans-Serif" font-size="10.00">odp/api/abi/proto_stats</text>
<text text-anchor="middle" x="693" y="-410.5" font-family="Helvetica,sans-Serif" font-size="10.00">_types.h</text>
</a>
</g>
</g>
<!-- Node21&#45;&gt;Node22 -->
<g id="edge28" class="edge">
<title>Node21&#45;&gt;Node22</title>
<path fill="none" stroke="midnightblue" d="M689.87,-470.4C690.35,-462.56 690.96,-452.6 691.52,-443.57"/>
<polygon fill="midnightblue" stroke="midnightblue" points="695.01,-443.77 692.13,-433.58 688.03,-443.34 695.01,-443.77"/>
</g>
<!-- Node23 -->
<g id="node23" class="node">
<title>Node23</title>
<g id="a_node23"><a xlink:href="spec_2proto__stats__types_8h.html" target="_top" xlink:title=" ">
<polygon fill="white" stroke="black" points="770.5,-280.5 770.5,-310.5 877.5,-310.5 877.5,-280.5 770.5,-280.5"/>
<text text-anchor="start" x="778.5" y="-298.5" font-family="Helvetica,sans-Serif" font-size="10.00">odp/api/spec/proto</text>
<text text-anchor="middle" x="824" y="-287.5" font-family="Helvetica,sans-Serif" font-size="10.00">_stats_types.h</text>
</a>
</g>
</g>
<!-- Node21&#45;&gt;Node23 -->
<g id="edge29" class="edge">
<title>Node21&#45;&gt;Node23</title>
<path fill="none" stroke="midnightblue" d="M718.8,-470.42C734.55,-461.75 753.21,-449.35 766,-434 794.36,-399.97 810.71,-350.05 818.44,-320.65"/>
<polygon fill="midnightblue" stroke="midnightblue" points="821.87,-321.37 820.91,-310.82 815.08,-319.67 821.87,-321.37"/>
</g>
<!-- Node23&#45;&gt;Node2 -->
<g id="edge30" class="edge">
<title>Node23&#45;&gt;Node2</title>
<path fill="none" stroke="midnightblue" d="M809.02,-280.44C792.21,-265.17 763.64,-240.72 736,-224 656.3,-175.8 438.78,-89.82 352,-56 320.41,-43.69 283.88,-31.29 257.44,-22.63"/>
<polygon fill="midnightblue" stroke="midnightblue" points="258.42,-19.27 247.83,-19.51 256.25,-25.93 258.42,-19.27"/>
</g>
<!-- Node23&#45;&gt;Node5 -->
<g id="edge32" class="edge">
<title>Node23&#45;&gt;Node5</title>
<path fill="none" stroke="midnightblue" d="M877.9,-281.22C926.37,-265.66 990,-234.65 990,-179 990,-179 990,-179 990,-121 990,-42.4 883.77,-19.62 811.21,-13.22"/>
<polygon fill="midnightblue" stroke="midnightblue" points="811.45,-9.73 801.21,-12.43 810.9,-16.71 811.45,-9.73"/>
</g>
<!-- Node23&#45;&gt;Node6 -->
<g id="edge31" class="edge">
<title>Node23&#45;&gt;Node6</title>
<path fill="none" stroke="midnightblue" d="M827.55,-280.4C829.58,-272.38 832.13,-262.23 834.32,-253.57"/>
<polygon fill="midnightblue" stroke="midnightblue" points="837.77,-254.21 836.82,-243.66 830.98,-252.5 837.77,-254.21"/>
</g>
<!-- Node24&#45;&gt;Node6 -->
<g id="edge34" class="edge">
<title>Node24&#45;&gt;Node6</title>
<path fill="none" stroke="midnightblue" d="M677.08,-285.98C709.92,-275.64 765.43,-258.16 802.15,-246.6"/>
<polygon fill="midnightblue" stroke="midnightblue" points="803.48,-249.85 811.97,-243.51 801.38,-243.17 803.48,-249.85"/>
</g>
<!-- Node25 -->
<g id="node25" class="node">
<title>Node25</title>
<g id="a_node25"><a xlink:title=" ">
<polygon fill="white" stroke="#bfbfbf" points="621.5,-224.5 621.5,-243.5 726.5,-243.5 726.5,-224.5 621.5,-224.5"/>
<text text-anchor="middle" x="674" y="-231.5" font-family="Helvetica,sans-Serif" font-size="10.00">odp/api/abi/time.h</text>
</a>
</g>
</g>
<!-- Node24&#45;&gt;Node25 -->
<g id="edge35" class="edge">
<title>Node24&#45;&gt;Node25</title>
<path fill="none" stroke="midnightblue" d="M653.44,-285.98C656.9,-277.4 662.33,-263.93 666.75,-252.98"/>
<polygon fill="midnightblue" stroke="midnightblue" points="670.07,-254.09 670.57,-243.51 663.58,-251.47 670.07,-254.09"/>
</g>
<!-- Node26 -->
<g id="node26" class="node">
<title>Node26</title>
<g id="a_node26"><a xlink:href="spec_2time_8h.html" target="_top" xlink:title=" ">
<polygon fill="white" stroke="black" points="438.5,-56.5 438.5,-75.5 551.5,-75.5 551.5,-56.5 438.5,-56.5"/>
<text text-anchor="middle" x="495" y="-63.5" font-family="Helvetica,sans-Serif" font-size="10.00">odp/api/spec/time.h</text>
</a>
</g>
</g>
<!-- Node24&#45;&gt;Node26 -->
<g id="edge36" class="edge">
<title>Node24&#45;&gt;Node26</title>
<path fill="none" stroke="midnightblue" d="M643.33,-285.65C635.83,-275.63 623.34,-258.79 613,-244 572.53,-186.12 526.68,-115.95 506.07,-84.15"/>
<polygon fill="midnightblue" stroke="midnightblue" points="508.89,-82.06 500.52,-75.56 503.01,-85.86 508.89,-82.06"/>
</g>
<!-- Node26&#45;&gt;Node2 -->
<g id="edge37" class="edge">
<title>Node26&#45;&gt;Node2</title>
<path fill="none" stroke="midnightblue" d="M451.58,-56.44C403.48,-46.96 325.91,-31.67 274.19,-21.48"/>
<polygon fill="midnightblue" stroke="midnightblue" points="274.7,-18.02 264.21,-19.52 273.35,-24.88 274.7,-18.02"/>
</g>
<!-- Node26&#45;&gt;Node5 -->
<g id="edge38" class="edge">
<title>Node26&#45;&gt;Node5</title>
<path fill="none" stroke="midnightblue" d="M534.61,-56.44C578.23,-47.02 648.4,-31.87 695.58,-21.68"/>
<polygon fill="midnightblue" stroke="midnightblue" points="696.54,-25.05 705.57,-19.52 695.06,-18.21 696.54,-25.05"/>
</g>
<!-- Node27&#45;&gt;Node16 -->
<g id="edge40" class="edge">
<title>Node27&#45;&gt;Node16</title>
<path fill="none" stroke="midnightblue" d="M452.33,-604.48C417.95,-595.5 362.97,-581.15 320.08,-569.96"/>
<polygon fill="midnightblue" stroke="midnightblue" points="320.86,-566.55 310.3,-567.41 319.09,-573.32 320.86,-566.55"/>
</g>
<!-- Node28 -->
<g id="node28" class="node">
<title>Node28</title>
<g id="a_node28"><a xlink:href="spec_2packet__types_8h.html" target="_top" xlink:title=" ">
<polygon fill="white" stroke="black" points="428.5,-537.5 428.5,-567.5 541.5,-567.5 541.5,-537.5 428.5,-537.5"/>
<text text-anchor="start" x="436.5" y="-555.5" font-family="Helvetica,sans-Serif" font-size="10.00">odp/api/spec/packet</text>
<text text-anchor="middle" x="485" y="-544.5" font-family="Helvetica,sans-Serif" font-size="10.00">_types.h</text>
</a>
</g>
</g>
<!-- Node27&#45;&gt;Node28 -->
<g id="edge41" class="edge">
<title>Node27&#45;&gt;Node28</title>
<path fill="none" stroke="midnightblue" d="M485,-604.48C485,-597.47 485,-587.19 485,-577.7"/>
<polygon fill="midnightblue" stroke="midnightblue" points="488.5,-577.52 485,-567.52 481.5,-577.52 488.5,-577.52"/>
</g>
<!-- Node28&#45;&gt;Node2 -->
<g id="edge42" class="edge">
<title>Node28&#45;&gt;Node2</title>
<path fill="none" stroke="midnightblue" d="M428.15,-548.87C319.7,-540.48 94,-505.31 94,-358 94,-358 94,-358 94,-121 94,-71.87 148.99,-39.77 186.6,-23.56"/>
<polygon fill="midnightblue" stroke="midnightblue" points="188.3,-26.64 196.21,-19.59 185.63,-20.17 188.3,-26.64"/>
</g>
<!-- Node28&#45;&gt;Node5 -->
<g id="edge56" class="edge">
<title>Node28&#45;&gt;Node5</title>
<path fill="none" stroke="midnightblue" d="M499.42,-537.1C508.35,-527.53 519.51,-514.32 527,-501 545.78,-467.62 555,-457.8 555,-419.5 555,-419.5 555,-419.5 555,-294.5 555,-193.08 613.27,-175.94 692,-112 721.33,-88.18 748.72,-107.87 769,-76 778.64,-60.85 768.88,-41.26 759.06,-27.57"/>
<polygon fill="midnightblue" stroke="midnightblue" points="761.7,-25.27 752.8,-19.52 756.18,-29.57 761.7,-25.27"/>
</g>
<!-- Node28&#45;&gt;Node21 -->
<g id="edge43" class="edge">
<title>Node28&#45;&gt;Node21</title>
<path fill="none" stroke="midnightblue" d="M529.01,-537.48C560.14,-527.56 602.06,-514.2 635.18,-503.65"/>
<polygon fill="midnightblue" stroke="midnightblue" points="636.25,-506.98 644.71,-500.61 634.12,-500.31 636.25,-506.98"/>
</g>
<!-- Node29 -->
<g id="node29" class="node">
<title>Node29</title>
<g id="a_node29"><a xlink:href="queue__types_8h.html" target="_top" xlink:title=" ">
<polygon fill="white" stroke="black" points="390.5,-476 390.5,-495 517.5,-495 517.5,-476 390.5,-476"/>
<text text-anchor="middle" x="454" y="-483" font-family="Helvetica,sans-Serif" font-size="10.00">odp/api/queue_types.h</text>
</a>
</g>
</g>
<!-- Node28&#45;&gt;Node29 -->
<g id="edge44" class="edge">
<title>Node28&#45;&gt;Node29</title>
<path fill="none" stroke="midnightblue" d="M478.27,-537.4C473.68,-527.76 467.55,-514.91 462.6,-504.54"/>
<polygon fill="midnightblue" stroke="midnightblue" points="465.61,-502.71 458.15,-495.19 459.29,-505.73 465.61,-502.71"/>
</g>
<!-- Node30 -->
<g id="node30" class="node">
<title>Node30</title>
<g id="a_node30"><a xlink:title=" ">
<polygon fill="white" stroke="#bfbfbf" points="381.5,-409 381.5,-428 526.5,-428 526.5,-409 381.5,-409"/>
<text text-anchor="middle" x="454" y="-416" font-family="Helvetica,sans-Serif" font-size="10.00">odp/api/abi/queue_types.h</text>
</a>
</g>
</g>
<!-- Node29&#45;&gt;Node30 -->
<g id="edge45" class="edge">
<title>Node29&#45;&gt;Node30</title>
<path fill="none" stroke="midnightblue" d="M454,-475.73C454,-466.18 454,-450.62 454,-438.28"/>
<polygon fill="midnightblue" stroke="midnightblue" points="457.5,-438.13 454,-428.13 450.5,-438.13 457.5,-438.13"/>
</g>
<!-- Node31 -->
<g id="node31" class="node">
<title>Node31</title>
<g id="a_node31"><a xlink:href="spec_2queue__types_8h.html" target="_top" xlink:title=" ">
<polygon fill="white" stroke="black" points="252.5,-403.5 252.5,-433.5 363.5,-433.5 363.5,-403.5 252.5,-403.5"/>
<text text-anchor="start" x="260.5" y="-421.5" font-family="Helvetica,sans-Serif" font-size="10.00">odp/api/spec/queue</text>
<text text-anchor="middle" x="308" y="-410.5" font-family="Helvetica,sans-Serif" font-size="10.00">_types.h</text>
</a>
</g>
</g>
<!-- Node29&#45;&gt;Node31 -->
<g id="edge46" class="edge">
<title>Node29&#45;&gt;Node31</title>
<path fill="none" stroke="midnightblue" d="M434.61,-475.87C412.8,-466.16 376.75,-450.11 348.69,-437.61"/>
<polygon fill="midnightblue" stroke="midnightblue" points="350.07,-434.4 339.51,-433.53 347.22,-440.79 350.07,-434.4"/>
</g>
<!-- Node31&#45;&gt;Node2 -->
<g id="edge47" class="edge">
<title>Node31&#45;&gt;Node2</title>
<path fill="none" stroke="midnightblue" d="M252.29,-412.82C218.62,-407.12 177.27,-394.57 151,-367 128.61,-343.51 132,-328.95 132,-296.5 132,-296.5 132,-296.5 132,-121 132,-78.85 171.99,-43.78 198.36,-25.24"/>
<polygon fill="midnightblue" stroke="midnightblue" points="200.38,-28.1 206.7,-19.6 196.46,-22.3 200.38,-28.1"/>
</g>
<!-- Node31&#45;&gt;Node3 -->
<g id="edge54" class="edge">
<title>Node31&#45;&gt;Node3</title>
<path fill="none" stroke="midnightblue" d="M287.15,-403.4C273.3,-394.04 255.19,-381.79 241.26,-372.38"/>
<polygon fill="midnightblue" stroke="midnightblue" points="243.05,-369.36 232.8,-366.66 239.13,-375.16 243.05,-369.36"/>
</g>
<!-- Node31&#45;&gt;Node5 -->
<g id="edge55" class="edge">
<title>Node31&#45;&gt;Node5</title>
<path fill="none" stroke="midnightblue" d="M363.76,-404.11C390.42,-396.04 421.91,-383.99 447,-367 474.63,-348.29 478.29,-338.63 497,-311 569.49,-203.95 535.4,-135.96 637,-56 656.29,-40.82 681.44,-29.94 702.61,-22.69"/>
<polygon fill="midnightblue" stroke="midnightblue" points="703.92,-25.94 712.34,-19.51 701.74,-19.29 703.92,-25.94"/>
</g>
<!-- Node32 -->
<g id="node32" class="node">
<title>Node32</title>
<g id="a_node32"><a xlink:href="schedule__types_8h.html" target="_top" xlink:title=" ">
<polygon fill="white" stroke="black" points="298,-347.5 298,-366.5 438,-366.5 438,-347.5 298,-347.5"/>
<text text-anchor="middle" x="368" y="-354.5" font-family="Helvetica,sans-Serif" font-size="10.00">odp/api/schedule_types.h</text>
</a>
</g>
</g>
<!-- Node31&#45;&gt;Node32 -->
<g id="edge48" class="edge">
<title>Node31&#45;&gt;Node32</title>
<path fill="none" stroke="midnightblue" d="M322.22,-403.4C331.21,-394.49 342.84,-382.95 352.13,-373.74"/>
<polygon fill="midnightblue" stroke="midnightblue" points="354.63,-376.18 359.27,-366.66 349.7,-371.21 354.63,-376.18"/>
</g>
<!-- Node33 -->
<g id="node33" class="node">
<title>Node33</title>
<g id="a_node33"><a xlink:title=" ">
<polygon fill="white" stroke="#bfbfbf" points="228.5,-280.5 228.5,-310.5 345.5,-310.5 345.5,-280.5 228.5,-280.5"/>
<text text-anchor="start" x="236.5" y="-298.5" font-family="Helvetica,sans-Serif" font-size="10.00">odp/api/abi/schedule</text>
<text text-anchor="middle" x="287" y="-287.5" font-family="Helvetica,sans-Serif" font-size="10.00">_types.h</text>
</a>
</g>
</g>
<!-- Node32&#45;&gt;Node33 -->
<g id="edge49" class="edge">
<title>Node32&#45;&gt;Node33</title>
<path fill="none" stroke="midnightblue" d="M356.39,-347.48C345.42,-339.42 328.55,-327.02 314.19,-316.47"/>
<polygon fill="midnightblue" stroke="midnightblue" points="316.22,-313.62 306.09,-310.52 312.08,-319.26 316.22,-313.62"/>
</g>
<!-- Node34 -->
<g id="node34" class="node">
<title>Node34</title>
<g id="a_node34"><a xlink:href="spec_2schedule__types_8h.html" target="_top" xlink:title=" ">
<polygon fill="white" stroke="black" points="363.5,-280.5 363.5,-310.5 488.5,-310.5 488.5,-280.5 363.5,-280.5"/>
<text text-anchor="start" x="371.5" y="-298.5" font-family="Helvetica,sans-Serif" font-size="10.00">odp/api/spec/schedule</text>
<text text-anchor="middle" x="426" y="-287.5" font-family="Helvetica,sans-Serif" font-size="10.00">_types.h</text>
</a>
</g>
</g>
<!-- Node32&#45;&gt;Node34 -->
<g id="edge50" class="edge">
<title>Node32&#45;&gt;Node34</title>
<path fill="none" stroke="midnightblue" d="M376.31,-347.48C383.8,-339.79 395.13,-328.17 405.08,-317.96"/>
<polygon fill="midnightblue" stroke="midnightblue" points="407.86,-320.13 412.33,-310.52 402.84,-315.24 407.86,-320.13"/>
</g>
<!-- Node34&#45;&gt;Node2 -->
<g id="edge51" class="edge">
<title>Node34&#45;&gt;Node2</title>
<path fill="none" stroke="midnightblue" d="M399.9,-280.45C347.97,-250.79 232.91,-176.21 189,-76 181.63,-59.18 193.08,-40.4 204.27,-27.37"/>
<polygon fill="midnightblue" stroke="midnightblue" points="207.15,-29.42 211.4,-19.71 202.02,-24.65 207.15,-29.42"/>
</g>
<!-- Node34&#45;&gt;Node5 -->
<g id="edge53" class="edge">
<title>Node34&#45;&gt;Node5</title>
<path fill="none" stroke="midnightblue" d="M422.76,-280.36C418.09,-258.68 410,-215.84 410,-179 410,-179 410,-179 410,-121 410,-90.9 406.25,-75.71 429,-56 465.3,-24.55 597.31,-15.06 678.79,-12.21"/>
<polygon fill="midnightblue" stroke="midnightblue" points="679.07,-15.7 688.95,-11.88 678.84,-8.71 679.07,-15.7"/>
</g>
<!-- Node34&#45;&gt;Node6 -->
<g id="edge52" class="edge">
<title>Node34&#45;&gt;Node6</title>
<path fill="none" stroke="midnightblue" d="M488.73,-285.46C565.39,-274.42 694.54,-255.81 772.77,-244.54"/>
<polygon fill="midnightblue" stroke="midnightblue" points="773.59,-247.96 782.99,-243.07 772.59,-241.03 773.59,-247.96"/>
</g>
</g>
</svg>
