<?xml version="1.0" encoding="UTF-8" standalone="no"?>
<!DOCTYPE svg PUBLIC "-//W3C//DTD SVG 1.1//EN"
 "http://www.w3.org/Graphics/SVG/1.1/DTD/svg11.dtd">
<!-- Generated by graphviz version 2.43.0 (0)
 -->
<!-- Title: deprecated.h Pages: 1 -->
<svg width="740pt" height="1092pt"
 viewBox="0.00 0.00 739.50 1092.00" xmlns="http://www.w3.org/2000/svg" xmlns:xlink="http://www.w3.org/1999/xlink">
<g id="graph0" class="graph" transform="scale(1 1) rotate(0) translate(4 1088)">
<title>deprecated.h</title>
<polygon fill="white" stroke="transparent" points="-4,4 -4,-1088 735.5,-1088 735.5,4 -4,4"/>
<!-- Node1 -->
<g id="node1" class="node">
<title>Node1</title>
<g id="a_node1"><a xlink:title=" ">
<polygon fill="#bfbfbf" stroke="black" points="115.5,-1064.5 115.5,-1083.5 195.5,-1083.5 195.5,-1064.5 115.5,-1064.5"/>
<text text-anchor="middle" x="155.5" y="-1071.5" font-family="Helvetica,sans-Serif" font-size="10.00">deprecated.h</text>
</a>
</g>
</g>
<!-- Node2 -->
<g id="node2" class="node">
<title>Node2</title>
<g id="a_node2"><a xlink:href="deprecated_8h.html" target="_top" xlink:title=" ">
<polygon fill="white" stroke="black" points="115.5,-1008.5 115.5,-1027.5 195.5,-1027.5 195.5,-1008.5 115.5,-1008.5"/>
<text text-anchor="middle" x="155.5" y="-1015.5" font-family="Helvetica,sans-Serif" font-size="10.00">deprecated.h</text>
</a>
</g>
</g>
<!-- Node1&#45;&gt;Node2 -->
<g id="edge1" class="edge">
<title>Node1&#45;&gt;Node2</title>
<path fill="none" stroke="midnightblue" d="M155.5,-1053.8C155.5,-1044.91 155.5,-1034.78 155.5,-1027.75"/>
<polygon fill="midnightblue" stroke="midnightblue" points="152,-1054.08 155.5,-1064.08 159,-1054.08 152,-1054.08"/>
</g>
<!-- Node3 -->
<g id="node3" class="node">
<title>Node3</title>
<g id="a_node3"><a xlink:href="abi-default_2classification_8h_source.html" target="_top" xlink:title=" ">
<polygon fill="white" stroke="black" points="0,-952.5 0,-971.5 89,-971.5 89,-952.5 0,-952.5"/>
<text text-anchor="middle" x="44.5" y="-959.5" font-family="Helvetica,sans-Serif" font-size="10.00">classification.h</text>
</a>
</g>
</g>
<!-- Node2&#45;&gt;Node3 -->
<g id="edge2" class="edge">
<title>Node2&#45;&gt;Node3</title>
<path fill="none" stroke="midnightblue" d="M128.49,-1003.86C107.91,-993.85 80.16,-980.35 62.29,-971.65"/>
<polygon fill="midnightblue" stroke="midnightblue" points="127.14,-1007.1 137.67,-1008.32 130.2,-1000.8 127.14,-1007.1"/>
</g>
<!-- Node4 -->
<g id="node4" class="node">
<title>Node4</title>
<g id="a_node4"><a xlink:href="spec_2crypto_8h.html" target="_top" xlink:title=" ">
<polygon fill="white" stroke="black" points="71.5,-616.5 71.5,-635.5 127.5,-635.5 127.5,-616.5 71.5,-616.5"/>
<text text-anchor="middle" x="99.5" y="-623.5" font-family="Helvetica,sans-Serif" font-size="10.00">crypto.h</text>
</a>
</g>
</g>
<!-- Node2&#45;&gt;Node4 -->
<g id="edge3" class="edge">
<title>Node2&#45;&gt;Node4</title>
<path fill="none" stroke="midnightblue" d="M145.36,-999.43C134.1,-978.24 117.5,-941.19 117.5,-907 117.5,-907 117.5,-907 117.5,-737 117.5,-698.88 106.84,-654.29 101.93,-635.76"/>
<polygon fill="midnightblue" stroke="midnightblue" points="142.32,-1001.17 150.22,-1008.23 148.45,-997.78 142.32,-1001.17"/>
</g>
<!-- Node8 -->
<g id="node8" class="node">
<title>Node8</title>
<g id="a_node8"><a xlink:href="spec_2packet__io_8h.html" target="_top" xlink:title=" ">
<polygon fill="white" stroke="black" points="393.5,-280.5 393.5,-299.5 465.5,-299.5 465.5,-280.5 393.5,-280.5"/>
<text text-anchor="middle" x="429.5" y="-287.5" font-family="Helvetica,sans-Serif" font-size="10.00">packet_io.h</text>
</a>
</g>
</g>
<!-- Node2&#45;&gt;Node8 -->
<g id="edge7" class="edge">
<title>Node2&#45;&gt;Node8</title>
<path fill="none" stroke="midnightblue" d="M205.59,-1012.71C345.72,-1000.04 731.5,-960.32 731.5,-907 731.5,-907 731.5,-907 731.5,-401 731.5,-344.99 545.79,-309.18 465.63,-296.33"/>
<polygon fill="midnightblue" stroke="midnightblue" points="205.19,-1009.23 195.55,-1013.61 205.82,-1016.2 205.19,-1009.23"/>
</g>
<!-- Node14 -->
<g id="node14" class="node">
<title>Node14</title>
<g id="a_node14"><a xlink:href="spec_2packet__io__stats_8h.html" target="_top" xlink:title=" ">
<polygon fill="white" stroke="black" points="266,-392.5 266,-411.5 367,-411.5 367,-392.5 266,-392.5"/>
<text text-anchor="middle" x="316.5" y="-399.5" font-family="Helvetica,sans-Serif" font-size="10.00">packet_io_stats.h</text>
</a>
</g>
</g>
<!-- Node2&#45;&gt;Node14 -->
<g id="edge16" class="edge">
<title>Node2&#45;&gt;Node14</title>
<path fill="none" stroke="midnightblue" d="M155.5,-998.25C155.5,-976.36 155.5,-939.05 155.5,-907 155.5,-907 155.5,-907 155.5,-513 155.5,-454.27 229.45,-424.62 277.11,-411.61"/>
<polygon fill="midnightblue" stroke="midnightblue" points="152,-998.44 155.5,-1008.44 159,-998.44 152,-998.44"/>
</g>
<!-- Node16 -->
<g id="node16" class="node">
<title>Node16</title>
<g id="a_node16"><a xlink:href="spec_2queue__types_8h.html" target="_top" xlink:title=" ">
<polygon fill="white" stroke="black" points="292.5,-952.5 292.5,-971.5 380.5,-971.5 380.5,-952.5 292.5,-952.5"/>
<text text-anchor="middle" x="336.5" y="-959.5" font-family="Helvetica,sans-Serif" font-size="10.00">queue_types.h</text>
</a>
</g>
</g>
<!-- Node2&#45;&gt;Node16 -->
<g id="edge19" class="edge">
<title>Node2&#45;&gt;Node16</title>
<path fill="none" stroke="midnightblue" d="M193.82,-1005.57C227.96,-995.38 277.16,-980.7 307.95,-971.52"/>
<polygon fill="midnightblue" stroke="midnightblue" points="192.76,-1002.23 184.18,-1008.44 194.76,-1008.94 192.76,-1002.23"/>
</g>
<!-- Node5 -->
<g id="node5" class="node">
<title>Node5</title>
<g id="a_node5"><a xlink:href="crypto_8h.html" target="_top" xlink:title=" ">
<polygon fill="white" stroke="black" points="123.5,-392.5 123.5,-411.5 179.5,-411.5 179.5,-392.5 123.5,-392.5"/>
<text text-anchor="middle" x="151.5" y="-399.5" font-family="Helvetica,sans-Serif" font-size="10.00">crypto.h</text>
</a>
</g>
</g>
<!-- Node4&#45;&gt;Node5 -->
<g id="edge4" class="edge">
<title>Node4&#45;&gt;Node5</title>
<path fill="none" stroke="midnightblue" d="M103.88,-606.3C114.57,-560.64 141.7,-444.85 149.42,-411.88"/>
<polygon fill="midnightblue" stroke="midnightblue" points="100.41,-605.76 101.54,-616.3 107.23,-607.36 100.41,-605.76"/>
</g>
<!-- Node6 -->
<g id="node6" class="node">
<title>Node6</title>
<g id="a_node6"><a xlink:href="spec_2ipsec_8h.html" target="_top" xlink:title=" ">
<polygon fill="white" stroke="black" points="324,-56.5 324,-75.5 375,-75.5 375,-56.5 324,-56.5"/>
<text text-anchor="middle" x="349.5" y="-63.5" font-family="Helvetica,sans-Serif" font-size="10.00">ipsec.h</text>
</a>
</g>
</g>
<!-- Node5&#45;&gt;Node6 -->
<g id="edge5" class="edge">
<title>Node5&#45;&gt;Node6</title>
<path fill="none" stroke="midnightblue" d="M173.45,-386.27C198.64,-367.43 236.5,-332.24 236.5,-291 236.5,-291 236.5,-291 236.5,-177 236.5,-145.72 242.38,-135.08 263.5,-112 279.88,-94.1 305.05,-82.1 323.93,-75.02"/>
<polygon fill="midnightblue" stroke="midnightblue" points="171.23,-383.56 165.16,-392.24 175.32,-389.24 171.23,-383.56"/>
</g>
<!-- Node7 -->
<g id="node7" class="node">
<title>Node7</title>
<g id="a_node7"><a xlink:href="ipsec_8h.html" target="_top" xlink:title=" ">
<polygon fill="white" stroke="black" points="324,-0.5 324,-19.5 375,-19.5 375,-0.5 324,-0.5"/>
<text text-anchor="middle" x="349.5" y="-7.5" font-family="Helvetica,sans-Serif" font-size="10.00">ipsec.h</text>
</a>
</g>
</g>
<!-- Node6&#45;&gt;Node7 -->
<g id="edge6" class="edge">
<title>Node6&#45;&gt;Node7</title>
<path fill="none" stroke="midnightblue" d="M349.5,-45.8C349.5,-36.91 349.5,-26.78 349.5,-19.75"/>
<polygon fill="midnightblue" stroke="midnightblue" points="346,-46.08 349.5,-56.08 353,-46.08 346,-46.08"/>
</g>
<!-- Node9 -->
<g id="node9" class="node">
<title>Node9</title>
<g id="a_node9"><a xlink:href="packet__io_8h.html" target="_top" xlink:title=" ">
<polygon fill="white" stroke="black" points="378.5,-224.5 378.5,-243.5 450.5,-243.5 450.5,-224.5 378.5,-224.5"/>
<text text-anchor="middle" x="414.5" y="-231.5" font-family="Helvetica,sans-Serif" font-size="10.00">packet_io.h</text>
</a>
</g>
</g>
<!-- Node8&#45;&gt;Node9 -->
<g id="edge8" class="edge">
<title>Node8&#45;&gt;Node9</title>
<path fill="none" stroke="midnightblue" d="M424.33,-270.4C421.82,-261.36 418.93,-250.94 416.93,-243.75"/>
<polygon fill="midnightblue" stroke="midnightblue" points="420.97,-271.38 427.02,-280.08 427.72,-269.51 420.97,-271.38"/>
</g>
<!-- Node9&#45;&gt;Node6 -->
<g id="edge12" class="edge">
<title>Node9&#45;&gt;Node6</title>
<path fill="none" stroke="midnightblue" d="M407.21,-214.39C393.19,-178.59 362.95,-101.34 352.85,-75.57"/>
<polygon fill="midnightblue" stroke="midnightblue" points="404.1,-216.04 411.01,-224.08 410.62,-213.49 404.1,-216.04"/>
</g>
<!-- Node10 -->
<g id="node10" class="node">
<title>Node10</title>
<g id="a_node10"><a xlink:href="spec_2classification_8h.html" target="_top" xlink:title=" ">
<polygon fill="white" stroke="black" points="413,-168.5 413,-187.5 502,-187.5 502,-168.5 413,-168.5"/>
<text text-anchor="middle" x="457.5" y="-175.5" font-family="Helvetica,sans-Serif" font-size="10.00">classification.h</text>
</a>
</g>
</g>
<!-- Node9&#45;&gt;Node10 -->
<g id="edge9" class="edge">
<title>Node9&#45;&gt;Node10</title>
<path fill="none" stroke="midnightblue" d="M427.92,-216.14C435.41,-206.74 444.44,-195.4 450.53,-187.75"/>
<polygon fill="midnightblue" stroke="midnightblue" points="425.09,-214.08 421.6,-224.08 430.57,-218.44 425.09,-214.08"/>
</g>
<!-- Node12 -->
<g id="node12" class="node">
<title>Node12</title>
<g id="a_node12"><a xlink:href="spec_2traffic__mngr_8h.html" target="_top" xlink:title=" ">
<polygon fill="white" stroke="black" points="272.5,-168.5 272.5,-187.5 356.5,-187.5 356.5,-168.5 272.5,-168.5"/>
<text text-anchor="middle" x="314.5" y="-175.5" font-family="Helvetica,sans-Serif" font-size="10.00">traffic_mngr.h</text>
</a>
</g>
</g>
<!-- Node9&#45;&gt;Node12 -->
<g id="edge13" class="edge">
<title>Node9&#45;&gt;Node12</title>
<path fill="none" stroke="midnightblue" d="M389.41,-219.45C370.95,-209.48 346.4,-196.23 330.53,-187.65"/>
<polygon fill="midnightblue" stroke="midnightblue" points="387.97,-222.65 398.43,-224.32 391.3,-216.49 387.97,-222.65"/>
</g>
<!-- Node11 -->
<g id="node11" class="node">
<title>Node11</title>
<g id="a_node11"><a xlink:href="classification_8h.html" target="_top" xlink:title=" ">
<polygon fill="white" stroke="black" points="413,-112.5 413,-131.5 502,-131.5 502,-112.5 413,-112.5"/>
<text text-anchor="middle" x="457.5" y="-119.5" font-family="Helvetica,sans-Serif" font-size="10.00">classification.h</text>
</a>
</g>
</g>
<!-- Node10&#45;&gt;Node11 -->
<g id="edge10" class="edge">
<title>Node10&#45;&gt;Node11</title>
<path fill="none" stroke="midnightblue" d="M457.5,-157.8C457.5,-148.91 457.5,-138.78 457.5,-131.75"/>
<polygon fill="midnightblue" stroke="midnightblue" points="454,-158.08 457.5,-168.08 461,-158.08 454,-158.08"/>
</g>
<!-- Node11&#45;&gt;Node6 -->
<g id="edge11" class="edge">
<title>Node11&#45;&gt;Node6</title>
<path fill="none" stroke="midnightblue" d="M430.95,-107.73C410.95,-97.73 384.11,-84.31 366.81,-75.65"/>
<polygon fill="midnightblue" stroke="midnightblue" points="429.64,-110.98 440.15,-112.32 432.77,-104.72 429.64,-110.98"/>
</g>
<!-- Node13 -->
<g id="node13" class="node">
<title>Node13</title>
<g id="a_node13"><a xlink:href="traffic__mngr_8h.html" target="_top" xlink:title=" ">
<polygon fill="white" stroke="black" points="272.5,-112.5 272.5,-131.5 356.5,-131.5 356.5,-112.5 272.5,-112.5"/>
<text text-anchor="middle" x="314.5" y="-119.5" font-family="Helvetica,sans-Serif" font-size="10.00">traffic_mngr.h</text>
</a>
</g>
</g>
<!-- Node12&#45;&gt;Node13 -->
<g id="edge14" class="edge">
<title>Node12&#45;&gt;Node13</title>
<path fill="none" stroke="midnightblue" d="M314.5,-157.8C314.5,-148.91 314.5,-138.78 314.5,-131.75"/>
<polygon fill="midnightblue" stroke="midnightblue" points="311,-158.08 314.5,-168.08 318,-158.08 311,-158.08"/>
</g>
<!-- Node13&#45;&gt;Node6 -->
<g id="edge15" class="edge">
<title>Node13&#45;&gt;Node6</title>
<path fill="none" stroke="midnightblue" d="M325.8,-103.57C331.82,-94.27 338.97,-83.25 343.83,-75.75"/>
<polygon fill="midnightblue" stroke="midnightblue" points="322.78,-101.79 320.28,-112.08 328.66,-105.6 322.78,-101.79"/>
</g>
<!-- Node15 -->
<g id="node15" class="node">
<title>Node15</title>
<g id="a_node15"><a xlink:href="packet__io__stats_8h.html" target="_top" xlink:title=" ">
<polygon fill="white" stroke="black" points="274,-336.5 274,-355.5 375,-355.5 375,-336.5 274,-336.5"/>
<text text-anchor="middle" x="324.5" y="-343.5" font-family="Helvetica,sans-Serif" font-size="10.00">packet_io_stats.h</text>
</a>
</g>
</g>
<!-- Node14&#45;&gt;Node15 -->
<g id="edge17" class="edge">
<title>Node14&#45;&gt;Node15</title>
<path fill="none" stroke="midnightblue" d="M319.3,-382.1C320.63,-373.14 322.15,-362.86 323.2,-355.75"/>
<polygon fill="midnightblue" stroke="midnightblue" points="315.82,-381.68 317.82,-392.08 322.75,-382.7 315.82,-381.68"/>
</g>
<!-- Node15&#45;&gt;Node8 -->
<g id="edge18" class="edge">
<title>Node15&#45;&gt;Node8</title>
<path fill="none" stroke="midnightblue" d="M350.31,-331.73C369.75,-321.73 395.85,-308.31 412.67,-299.65"/>
<polygon fill="midnightblue" stroke="midnightblue" points="348.66,-328.64 341.37,-336.32 351.86,-334.86 348.66,-328.64"/>
</g>
<!-- Node17 -->
<g id="node17" class="node">
<title>Node17</title>
<g id="a_node17"><a xlink:href="queue__types_8h.html" target="_top" xlink:title=" ">
<polygon fill="white" stroke="black" points="437.5,-896.5 437.5,-915.5 525.5,-915.5 525.5,-896.5 437.5,-896.5"/>
<text text-anchor="middle" x="481.5" y="-903.5" font-family="Helvetica,sans-Serif" font-size="10.00">queue_types.h</text>
</a>
</g>
</g>
<!-- Node16&#45;&gt;Node17 -->
<g id="edge20" class="edge">
<title>Node16&#45;&gt;Node17</title>
<path fill="none" stroke="midnightblue" d="M368.98,-948.91C396.24,-938.75 434.49,-924.51 458.63,-915.52"/>
<polygon fill="midnightblue" stroke="midnightblue" points="367.63,-945.67 359.48,-952.44 370.07,-952.23 367.63,-945.67"/>
</g>
<!-- Node17&#45;&gt;Node8 -->
<g id="edge21" class="edge">
<title>Node17&#45;&gt;Node8</title>
<path fill="none" stroke="midnightblue" d="M500.5,-889.74C522.43,-870.27 555.5,-834.39 555.5,-795 555.5,-795 555.5,-795 555.5,-401 555.5,-347.57 490.41,-314.12 453.79,-299.53"/>
<polygon fill="midnightblue" stroke="midnightblue" points="498.07,-887.21 492.74,-896.36 502.62,-892.53 498.07,-887.21"/>
</g>
<!-- Node18 -->
<g id="node18" class="node">
<title>Node18</title>
<g id="a_node18"><a xlink:href="spec_2packet__types_8h.html" target="_top" xlink:title=" ">
<polygon fill="white" stroke="black" points="379.5,-840.5 379.5,-859.5 469.5,-859.5 469.5,-840.5 379.5,-840.5"/>
<text text-anchor="middle" x="424.5" y="-847.5" font-family="Helvetica,sans-Serif" font-size="10.00">packet_types.h</text>
</a>
</g>
</g>
<!-- Node17&#45;&gt;Node18 -->
<g id="edge22" class="edge">
<title>Node17&#45;&gt;Node18</title>
<path fill="none" stroke="midnightblue" d="M464.88,-889.25C454.77,-879.67 442.22,-867.79 433.82,-859.83"/>
<polygon fill="midnightblue" stroke="midnightblue" points="462.68,-891.99 472.34,-896.32 467.49,-886.91 462.68,-891.99"/>
</g>
<!-- Node26 -->
<g id="node26" class="node">
<title>Node26</title>
<g id="a_node26"><a xlink:href="spec_2queue_8h.html" target="_top" xlink:title=" ">
<polygon fill="white" stroke="black" points="288.5,-504.5 288.5,-523.5 344.5,-523.5 344.5,-504.5 288.5,-504.5"/>
<text text-anchor="middle" x="316.5" y="-511.5" font-family="Helvetica,sans-Serif" font-size="10.00">queue.h</text>
</a>
</g>
</g>
<!-- Node17&#45;&gt;Node26 -->
<g id="edge40" class="edge">
<title>Node17&#45;&gt;Node26</title>
<path fill="none" stroke="midnightblue" d="M427.37,-895.74C343.96,-879.92 193.5,-844.52 193.5,-795 193.5,-795 193.5,-795 193.5,-625 193.5,-594.9 192.58,-582.56 212.5,-560 232.16,-537.73 264.81,-526.08 288.29,-520.26"/>
<polygon fill="midnightblue" stroke="midnightblue" points="426.97,-899.23 437.45,-897.62 428.26,-892.35 426.97,-899.23"/>
</g>
<!-- Node28 -->
<g id="node28" class="node">
<title>Node28</title>
<g id="a_node28"><a xlink:href="spec_2schedule_8h.html" target="_top" xlink:title=" ">
<polygon fill="white" stroke="black" points="458,-504.5 458,-523.5 527,-523.5 527,-504.5 458,-504.5"/>
<text text-anchor="middle" x="492.5" y="-511.5" font-family="Helvetica,sans-Serif" font-size="10.00">schedule.h</text>
</a>
</g>
</g>
<!-- Node17&#45;&gt;Node28 -->
<g id="edge41" class="edge">
<title>Node17&#45;&gt;Node28</title>
<path fill="none" stroke="midnightblue" d="M491.09,-887.4C501.76,-866.15 517.5,-829.02 517.5,-795 517.5,-795 517.5,-795 517.5,-625 517.5,-586.42 502.7,-542.08 495.87,-523.69"/>
<polygon fill="midnightblue" stroke="midnightblue" points="487.88,-885.99 486.36,-896.47 494.09,-889.23 487.88,-885.99"/>
</g>
<!-- Node33 -->
<g id="node33" class="node">
<title>Node33</title>
<g id="a_node33"><a xlink:href="queue__inline__types_8h_source.html" target="_top" xlink:title=" ">
<polygon fill="white" stroke="black" points="583.5,-840.5 583.5,-859.5 703.5,-859.5 703.5,-840.5 583.5,-840.5"/>
<text text-anchor="middle" x="643.5" y="-847.5" font-family="Helvetica,sans-Serif" font-size="10.00">queue_inline_types.h</text>
</a>
</g>
</g>
<!-- Node17&#45;&gt;Node33 -->
<g id="edge42" class="edge">
<title>Node17&#45;&gt;Node33</title>
<path fill="none" stroke="midnightblue" d="M516.98,-893.17C547.49,-883 590.74,-868.59 617.95,-859.52"/>
<polygon fill="midnightblue" stroke="midnightblue" points="515.55,-889.96 507.17,-896.44 517.76,-896.6 515.55,-889.96"/>
</g>
<!-- Node19 -->
<g id="node19" class="node">
<title>Node19</title>
<g id="a_node19"><a xlink:href="packet__types_8h.html" target="_top" xlink:title=" ">
<polygon fill="white" stroke="black" points="359.5,-784.5 359.5,-803.5 449.5,-803.5 449.5,-784.5 359.5,-784.5"/>
<text text-anchor="middle" x="404.5" y="-791.5" font-family="Helvetica,sans-Serif" font-size="10.00">packet_types.h</text>
</a>
</g>
</g>
<!-- Node18&#45;&gt;Node19 -->
<g id="edge23" class="edge">
<title>Node18&#45;&gt;Node19</title>
<path fill="none" stroke="midnightblue" d="M417.72,-830.69C414.35,-821.59 410.43,-811.01 407.74,-803.75"/>
<polygon fill="midnightblue" stroke="midnightblue" points="414.44,-831.92 421.2,-840.08 421.01,-829.49 414.44,-831.92"/>
</g>
<!-- Node20 -->
<g id="node20" class="node">
<title>Node20</title>
<g id="a_node20"><a xlink:href="spec_2packet_8h.html" target="_top" xlink:title=" ">
<polygon fill="white" stroke="black" points="375.5,-728.5 375.5,-747.5 433.5,-747.5 433.5,-728.5 375.5,-728.5"/>
<text text-anchor="middle" x="404.5" y="-735.5" font-family="Helvetica,sans-Serif" font-size="10.00">packet.h</text>
</a>
</g>
</g>
<!-- Node19&#45;&gt;Node20 -->
<g id="edge24" class="edge">
<title>Node19&#45;&gt;Node20</title>
<path fill="none" stroke="midnightblue" d="M404.5,-773.8C404.5,-764.91 404.5,-754.78 404.5,-747.75"/>
<polygon fill="midnightblue" stroke="midnightblue" points="401,-774.08 404.5,-784.08 408,-774.08 401,-774.08"/>
</g>
<!-- Node32 -->
<g id="node32" class="node">
<title>Node32</title>
<g id="a_node32"><a xlink:href="packet__inlines_8h.html" target="_top" xlink:title=" ">
<polygon fill="white" stroke="black" points="262,-728.5 262,-747.5 357,-747.5 357,-728.5 262,-728.5"/>
<text text-anchor="middle" x="309.5" y="-735.5" font-family="Helvetica,sans-Serif" font-size="10.00">packet_inlines.h</text>
</a>
</g>
</g>
<!-- Node19&#45;&gt;Node32 -->
<g id="edge39" class="edge">
<title>Node19&#45;&gt;Node32</title>
<path fill="none" stroke="midnightblue" d="M380.18,-779.18C362.7,-769.24 339.67,-756.15 324.73,-747.65"/>
<polygon fill="midnightblue" stroke="midnightblue" points="378.81,-782.43 389.24,-784.32 382.27,-776.34 378.81,-782.43"/>
</g>
<!-- Node21 -->
<g id="node21" class="node">
<title>Node21</title>
<g id="a_node21"><a xlink:href="packet_8h.html" target="_top" xlink:title=" ">
<polygon fill="white" stroke="black" points="341.5,-672.5 341.5,-691.5 399.5,-691.5 399.5,-672.5 341.5,-672.5"/>
<text text-anchor="middle" x="370.5" y="-679.5" font-family="Helvetica,sans-Serif" font-size="10.00">packet.h</text>
</a>
</g>
</g>
<!-- Node20&#45;&gt;Node21 -->
<g id="edge25" class="edge">
<title>Node20&#45;&gt;Node21</title>
<path fill="none" stroke="midnightblue" d="M393.52,-719.57C387.67,-710.27 380.73,-699.25 376.01,-691.75"/>
<polygon fill="midnightblue" stroke="midnightblue" points="390.6,-721.49 398.89,-728.08 396.52,-717.76 390.6,-721.49"/>
</g>
<!-- Node21&#45;&gt;Node4 -->
<g id="edge28" class="edge">
<title>Node21&#45;&gt;Node4</title>
<path fill="none" stroke="midnightblue" d="M331.4,-673.21C276.16,-662.2 176.59,-642.36 127.89,-632.66"/>
<polygon fill="midnightblue" stroke="midnightblue" points="331.01,-676.7 341.5,-675.22 332.38,-669.83 331.01,-676.7"/>
</g>
<!-- Node21&#45;&gt;Node8 -->
<g id="edge38" class="edge">
<title>Node21&#45;&gt;Node8</title>
<path fill="none" stroke="midnightblue" d="M409.39,-671.58C427.97,-664.91 448.51,-653.88 459.5,-636 501.3,-568.03 429.5,-538.79 429.5,-459 429.5,-459 429.5,-459 429.5,-401 429.5,-363.19 429.5,-318.06 429.5,-299.56"/>
<polygon fill="midnightblue" stroke="midnightblue" points="408.05,-668.34 399.63,-674.76 410.23,-674.99 408.05,-668.34"/>
</g>
<!-- Node22 -->
<g id="node22" class="node">
<title>Node22</title>
<g id="a_node22"><a xlink:href="spec_2comp_8h.html" target="_top" xlink:title=" ">
<polygon fill="white" stroke="black" points="222,-616.5 222,-635.5 275,-635.5 275,-616.5 222,-616.5"/>
<text text-anchor="middle" x="248.5" y="-623.5" font-family="Helvetica,sans-Serif" font-size="10.00">comp.h</text>
</a>
</g>
</g>
<!-- Node21&#45;&gt;Node22 -->
<g id="edge26" class="edge">
<title>Node21&#45;&gt;Node22</title>
<path fill="none" stroke="midnightblue" d="M341.96,-668.37C319.11,-658.26 287.69,-644.35 267.74,-635.52"/>
<polygon fill="midnightblue" stroke="midnightblue" points="340.61,-671.6 351.17,-672.44 343.44,-665.2 340.61,-671.6"/>
</g>
<!-- Node24 -->
<g id="node24" class="node">
<title>Node24</title>
<g id="a_node24"><a xlink:href="spec_2event_8h.html" target="_top" xlink:title=" ">
<polygon fill="white" stroke="black" points="398,-616.5 398,-635.5 451,-635.5 451,-616.5 398,-616.5"/>
<text text-anchor="middle" x="424.5" y="-623.5" font-family="Helvetica,sans-Serif" font-size="10.00">event.h</text>
</a>
</g>
</g>
<!-- Node21&#45;&gt;Node24 -->
<g id="edge29" class="edge">
<title>Node21&#45;&gt;Node24</title>
<path fill="none" stroke="midnightblue" d="M386.5,-665C396.07,-655.43 407.86,-643.64 415.75,-635.75"/>
<polygon fill="midnightblue" stroke="midnightblue" points="384.01,-662.54 379.42,-672.08 388.96,-667.49 384.01,-662.54"/>
</g>
<!-- Node30 -->
<g id="node30" class="node">
<title>Node30</title>
<g id="a_node30"><a xlink:href="spec_2packet__flags_8h.html" target="_top" xlink:title=" ">
<polygon fill="white" stroke="black" points="293.5,-616.5 293.5,-635.5 379.5,-635.5 379.5,-616.5 293.5,-616.5"/>
<text text-anchor="middle" x="336.5" y="-623.5" font-family="Helvetica,sans-Serif" font-size="10.00">packet_flags.h</text>
</a>
</g>
</g>
<!-- Node21&#45;&gt;Node30 -->
<g id="edge36" class="edge">
<title>Node21&#45;&gt;Node30</title>
<path fill="none" stroke="midnightblue" d="M359.52,-663.57C353.67,-654.27 346.73,-643.25 342.01,-635.75"/>
<polygon fill="midnightblue" stroke="midnightblue" points="356.6,-665.49 364.89,-672.08 362.52,-661.76 356.6,-665.49"/>
</g>
<!-- Node23 -->
<g id="node23" class="node">
<title>Node23</title>
<g id="a_node23"><a xlink:href="comp_8h.html" target="_top" xlink:title=" ">
<polygon fill="white" stroke="black" points="222,-560.5 222,-579.5 275,-579.5 275,-560.5 222,-560.5"/>
<text text-anchor="middle" x="248.5" y="-567.5" font-family="Helvetica,sans-Serif" font-size="10.00">comp.h</text>
</a>
</g>
</g>
<!-- Node22&#45;&gt;Node23 -->
<g id="edge27" class="edge">
<title>Node22&#45;&gt;Node23</title>
<path fill="none" stroke="midnightblue" d="M248.5,-605.8C248.5,-596.91 248.5,-586.78 248.5,-579.75"/>
<polygon fill="midnightblue" stroke="midnightblue" points="245,-606.08 248.5,-616.08 252,-606.08 245,-606.08"/>
</g>
<!-- Node25 -->
<g id="node25" class="node">
<title>Node25</title>
<g id="a_node25"><a xlink:href="event_8h.html" target="_top" xlink:title=" ">
<polygon fill="white" stroke="black" points="398,-560.5 398,-579.5 451,-579.5 451,-560.5 398,-560.5"/>
<text text-anchor="middle" x="424.5" y="-567.5" font-family="Helvetica,sans-Serif" font-size="10.00">event.h</text>
</a>
</g>
</g>
<!-- Node24&#45;&gt;Node25 -->
<g id="edge30" class="edge">
<title>Node24&#45;&gt;Node25</title>
<path fill="none" stroke="midnightblue" d="M424.5,-605.8C424.5,-596.91 424.5,-586.78 424.5,-579.75"/>
<polygon fill="midnightblue" stroke="midnightblue" points="421,-606.08 424.5,-616.08 428,-606.08 421,-606.08"/>
</g>
<!-- Node25&#45;&gt;Node26 -->
<g id="edge31" class="edge">
<title>Node25&#45;&gt;Node26</title>
<path fill="none" stroke="midnightblue" d="M397.95,-555.73C377.95,-545.73 351.11,-532.31 333.81,-523.65"/>
<polygon fill="midnightblue" stroke="midnightblue" points="396.64,-558.98 407.15,-560.32 399.77,-552.72 396.64,-558.98"/>
</g>
<!-- Node25&#45;&gt;Node28 -->
<g id="edge34" class="edge">
<title>Node25&#45;&gt;Node28</title>
<path fill="none" stroke="midnightblue" d="M443.26,-554.1C455.5,-544.38 471.06,-532.03 481.38,-523.83"/>
<polygon fill="midnightblue" stroke="midnightblue" points="441.08,-551.36 435.43,-560.32 445.43,-556.85 441.08,-551.36"/>
</g>
<!-- Node27 -->
<g id="node27" class="node">
<title>Node27</title>
<g id="a_node27"><a xlink:href="queue_8h.html" target="_top" xlink:title=" ">
<polygon fill="white" stroke="black" points="288.5,-448.5 288.5,-467.5 344.5,-467.5 344.5,-448.5 288.5,-448.5"/>
<text text-anchor="middle" x="316.5" y="-455.5" font-family="Helvetica,sans-Serif" font-size="10.00">queue.h</text>
</a>
</g>
</g>
<!-- Node26&#45;&gt;Node27 -->
<g id="edge32" class="edge">
<title>Node26&#45;&gt;Node27</title>
<path fill="none" stroke="midnightblue" d="M316.5,-493.8C316.5,-484.91 316.5,-474.78 316.5,-467.75"/>
<polygon fill="midnightblue" stroke="midnightblue" points="313,-494.08 316.5,-504.08 320,-494.08 313,-494.08"/>
</g>
<!-- Node27&#45;&gt;Node14 -->
<g id="edge33" class="edge">
<title>Node27&#45;&gt;Node14</title>
<path fill="none" stroke="midnightblue" d="M316.5,-437.8C316.5,-428.91 316.5,-418.78 316.5,-411.75"/>
<polygon fill="midnightblue" stroke="midnightblue" points="313,-438.08 316.5,-448.08 320,-438.08 313,-438.08"/>
</g>
<!-- Node29 -->
<g id="node29" class="node">
<title>Node29</title>
<g id="a_node29"><a xlink:href="schedule_8h.html" target="_top" xlink:title=" ">
<polygon fill="white" stroke="black" points="458,-448.5 458,-467.5 527,-467.5 527,-448.5 458,-448.5"/>
<text text-anchor="middle" x="492.5" y="-455.5" font-family="Helvetica,sans-Serif" font-size="10.00">schedule.h</text>
</a>
</g>
</g>
<!-- Node28&#45;&gt;Node29 -->
<g id="edge35" class="edge">
<title>Node28&#45;&gt;Node29</title>
<path fill="none" stroke="midnightblue" d="M492.5,-493.8C492.5,-484.91 492.5,-474.78 492.5,-467.75"/>
<polygon fill="midnightblue" stroke="midnightblue" points="489,-494.08 492.5,-504.08 496,-494.08 489,-494.08"/>
</g>
<!-- Node31 -->
<g id="node31" class="node">
<title>Node31</title>
<g id="a_node31"><a xlink:href="packet__flags_8h.html" target="_top" xlink:title=" ">
<polygon fill="white" stroke="black" points="293.5,-560.5 293.5,-579.5 379.5,-579.5 379.5,-560.5 293.5,-560.5"/>
<text text-anchor="middle" x="336.5" y="-567.5" font-family="Helvetica,sans-Serif" font-size="10.00">packet_flags.h</text>
</a>
</g>
</g>
<!-- Node30&#45;&gt;Node31 -->
<g id="edge37" class="edge">
<title>Node30&#45;&gt;Node31</title>
<path fill="none" stroke="midnightblue" d="M336.5,-605.8C336.5,-596.91 336.5,-586.78 336.5,-579.75"/>
<polygon fill="midnightblue" stroke="midnightblue" points="333,-606.08 336.5,-616.08 340,-606.08 333,-606.08"/>
</g>
<!-- Node34 -->
<g id="node34" class="node">
<title>Node34</title>
<g id="a_node34"><a xlink:href="queue__inlines_8h_source.html" target="_top" xlink:title=" ">
<polygon fill="white" stroke="black" points="597,-784.5 597,-803.5 690,-803.5 690,-784.5 597,-784.5"/>
<text text-anchor="middle" x="643.5" y="-791.5" font-family="Helvetica,sans-Serif" font-size="10.00">queue_inlines.h</text>
</a>
</g>
</g>
<!-- Node33&#45;&gt;Node34 -->
<g id="edge43" class="edge">
<title>Node33&#45;&gt;Node34</title>
<path fill="none" stroke="midnightblue" d="M643.5,-829.8C643.5,-820.91 643.5,-810.78 643.5,-803.75"/>
<polygon fill="midnightblue" stroke="midnightblue" points="640,-830.08 643.5,-840.08 647,-830.08 640,-830.08"/>
</g>
</g>
</svg>
