<?xml version="1.0" encoding="UTF-8" standalone="no"?>
<!DOCTYPE svg PUBLIC "-//W3C//DTD SVG 1.1//EN"
 "http://www.w3.org/Graphics/SVG/1.1/DTD/svg11.dtd">
<!-- Generated by graphviz version 2.43.0 (0)
 -->
<!-- Title: odp_pool_info_t Pages: 1 -->
<svg width="296pt" height="162pt"
 viewBox="0.00 0.00 295.50 162.00" xmlns="http://www.w3.org/2000/svg" xmlns:xlink="http://www.w3.org/1999/xlink">
<g id="graph0" class="graph" transform="scale(1 1) rotate(0) translate(4 158)">
<title>odp_pool_info_t</title>
<polygon fill="white" stroke="transparent" points="-4,4 -4,-158 291.5,-158 291.5,4 -4,4"/>
<!-- Node1 -->
<g id="node1" class="node">
<title>Node1</title>
<g id="a_node1"><a xlink:title="Pool information struct Used to get information about a pool.">
<polygon fill="#bfbfbf" stroke="black" points="84,-0.5 84,-19.5 178,-19.5 178,-0.5 84,-0.5"/>
<text text-anchor="middle" x="131" y="-7.5" font-family="Helvetica,sans-Serif" font-size="10.00">odp_pool_info_t</text>
</a>
</g>
</g>
<!-- Node2 -->
<g id="node2" class="node">
<title>Node2</title>
<g id="a_node2"><a xlink:href="structodp__pool__ext__param__t.html" target="_top" xlink:title="External memory pool parameters.">
<polygon fill="white" stroke="black" points="0,-67.5 0,-86.5 128,-86.5 128,-67.5 0,-67.5"/>
<text text-anchor="middle" x="64" y="-74.5" font-family="Helvetica,sans-Serif" font-size="10.00">odp_pool_ext_param_t</text>
</a>
</g>
</g>
<!-- Node2&#45;&gt;Node1 -->
<g id="edge1" class="edge">
<title>Node2&#45;&gt;Node1</title>
<path fill="none" stroke="#9a32cd" stroke-dasharray="5,2" d="M73.01,-58.2C77.01,-51.38 82.14,-43.85 88,-38 95.36,-30.65 105.08,-24.34 113.41,-19.68"/>
<polygon fill="#9a32cd" stroke="#9a32cd" points="69.72,-56.93 68.02,-67.38 75.87,-60.27 69.72,-56.93"/>
<text text-anchor="middle" x="129" y="-41" font-family="Helvetica,sans-Serif" font-size="10.00"> pool_ext_param</text>
</g>
<!-- Node3 -->
<g id="node3" class="node">
<title>Node3</title>
<g id="a_node3"><a xlink:href="unionodp__pool__stats__opt__t.html" target="_top" xlink:title="Pool statistics counters options.">
<polygon fill="white" stroke="black" points="4,-134.5 4,-153.5 124,-153.5 124,-134.5 4,-134.5"/>
<text text-anchor="middle" x="64" y="-141.5" font-family="Helvetica,sans-Serif" font-size="10.00">odp_pool_stats_opt_t</text>
</a>
</g>
</g>
<!-- Node3&#45;&gt;Node2 -->
<g id="edge2" class="edge">
<title>Node3&#45;&gt;Node2</title>
<path fill="none" stroke="#9a32cd" stroke-dasharray="5,2" d="M64,-124.04C64,-111.67 64,-96.12 64,-86.63"/>
<polygon fill="#9a32cd" stroke="#9a32cd" points="60.5,-124.23 64,-134.23 67.5,-124.23 60.5,-124.23"/>
<text text-anchor="middle" x="78" y="-108" font-family="Helvetica,sans-Serif" font-size="10.00"> stats</text>
</g>
<!-- Node4 -->
<g id="node4" class="node">
<title>Node4</title>
<g id="a_node4"><a xlink:href="structodp__pool__param__t.html" target="_top" xlink:title="Pool parameters.">
<polygon fill="white" stroke="black" points="146.5,-67.5 146.5,-86.5 253.5,-86.5 253.5,-67.5 146.5,-67.5"/>
<text text-anchor="middle" x="200" y="-74.5" font-family="Helvetica,sans-Serif" font-size="10.00">odp_pool_param_t</text>
</a>
</g>
</g>
<!-- Node3&#45;&gt;Node4 -->
<g id="edge5" class="edge">
<title>Node3&#45;&gt;Node4</title>
<path fill="none" stroke="#9a32cd" stroke-dasharray="5,2" d="M91.32,-129.94C118.26,-117.07 158.66,-97.76 181.87,-86.67"/>
<polygon fill="#9a32cd" stroke="#9a32cd" points="89.57,-126.9 82.06,-134.37 92.59,-133.21 89.57,-126.9"/>
<text text-anchor="middle" x="155" y="-108" font-family="Helvetica,sans-Serif" font-size="10.00"> stats</text>
</g>
<!-- Node4&#45;&gt;Node1 -->
<g id="edge3" class="edge">
<title>Node4&#45;&gt;Node1</title>
<path fill="none" stroke="#9a32cd" stroke-dasharray="5,2" d="M188.04,-58.67C182.9,-51.84 176.57,-44.17 170,-38 162.56,-31.01 153.17,-24.46 145.48,-19.56"/>
<polygon fill="#9a32cd" stroke="#9a32cd" points="185.53,-61.18 194.22,-67.24 191.21,-57.08 185.53,-61.18"/>
<text text-anchor="middle" x="201" y="-41" font-family="Helvetica,sans-Serif" font-size="10.00"> params</text>
</g>
<!-- Node5 -->
<g id="node5" class="node">
<title>Node5</title>
<g id="a_node5"><a xlink:href="structodp__pool__pkt__subparam__t.html" target="_top" xlink:title="Packet pool subparameters.">
<polygon fill="white" stroke="black" points="142.5,-134.5 142.5,-153.5 287.5,-153.5 287.5,-134.5 142.5,-134.5"/>
<text text-anchor="middle" x="215" y="-141.5" font-family="Helvetica,sans-Serif" font-size="10.00">odp_pool_pkt_subparam_t</text>
</a>
</g>
</g>
<!-- Node5&#45;&gt;Node4 -->
<g id="edge4" class="edge">
<title>Node5&#45;&gt;Node4</title>
<path fill="none" stroke="#9a32cd" stroke-dasharray="5,2" d="M210.71,-124.41C207.84,-111.99 204.2,-96.22 201.99,-86.63"/>
<polygon fill="#9a32cd" stroke="#9a32cd" points="207.32,-125.28 212.98,-134.23 214.14,-123.7 207.32,-125.28"/>
<text text-anchor="middle" x="219.5" y="-108" font-family="Helvetica,sans-Serif" font-size="10.00"> sub</text>
</g>
</g>
</svg>
