<?xml version="1.0" encoding="UTF-8" standalone="no"?>
<!DOCTYPE svg PUBLIC "-//W3C//DTD SVG 1.1//EN"
 "http://www.w3.org/Graphics/SVG/1.1/DTD/svg11.dtd">
<!-- Generated by graphviz version 2.43.0 (0)
 -->
<!-- Title: odp_timer_pool_info_t Pages: 1 -->
<svg width="286pt" height="184pt"
 viewBox="0.00 0.00 286.00 184.00" xmlns="http://www.w3.org/2000/svg" xmlns:xlink="http://www.w3.org/1999/xlink">
<g id="graph0" class="graph" transform="scale(1 1) rotate(0) translate(4 180)">
<title>odp_timer_pool_info_t</title>
<polygon fill="white" stroke="transparent" points="-4,4 -4,-180 282,-180 282,4 -4,4"/>
<!-- Node1 -->
<g id="node1" class="node">
<title>Node1</title>
<g id="a_node1"><a xlink:title="ODP timer pool information and configuration.">
<polygon fill="#bfbfbf" stroke="black" points="57.5,-0.5 57.5,-19.5 182.5,-19.5 182.5,-0.5 57.5,-0.5"/>
<text text-anchor="middle" x="120" y="-7.5" font-family="Helvetica,sans-Serif" font-size="10.00">odp_timer_pool_info_t</text>
</a>
</g>
</g>
<!-- Node2 -->
<g id="node2" class="node">
<title>Node2</title>
<g id="a_node2"><a xlink:href="structodp__timer__pool__param__t.html" target="_top" xlink:title="Timer pool parameters.">
<polygon fill="white" stroke="black" points="0,-67.5 0,-86.5 138,-86.5 138,-67.5 0,-67.5"/>
<text text-anchor="middle" x="69" y="-74.5" font-family="Helvetica,sans-Serif" font-size="10.00">odp_timer_pool_param_t</text>
</a>
</g>
</g>
<!-- Node2&#45;&gt;Node1 -->
<g id="edge1" class="edge">
<title>Node2&#45;&gt;Node1</title>
<path fill="none" stroke="#9a32cd" stroke-dasharray="5,2" d="M82.13,-59.27C92.07,-46.6 105.33,-29.7 113.23,-19.63"/>
<polygon fill="#9a32cd" stroke="#9a32cd" points="79.3,-57.21 75.88,-67.23 84.8,-61.53 79.3,-57.21"/>
<text text-anchor="middle" x="114.5" y="-41" font-family="Helvetica,sans-Serif" font-size="10.00"> param</text>
</g>
<!-- Node3 -->
<g id="node3" class="node">
<title>Node3</title>
<g id="a_node3"><a xlink:href="structodp__timer__tick__info__t.html" target="_top" xlink:title="Timer tick information.">
<polygon fill="white" stroke="black" points="156,-67.5 156,-86.5 278,-86.5 278,-67.5 156,-67.5"/>
<text text-anchor="middle" x="217" y="-74.5" font-family="Helvetica,sans-Serif" font-size="10.00">odp_timer_tick_info_t</text>
</a>
</g>
</g>
<!-- Node3&#45;&gt;Node1 -->
<g id="edge2" class="edge">
<title>Node3&#45;&gt;Node1</title>
<path fill="none" stroke="#9a32cd" stroke-dasharray="5,2" d="M195.5,-61.59C176.31,-48.74 148.85,-30.33 132.87,-19.63"/>
<polygon fill="#9a32cd" stroke="#9a32cd" points="193.66,-64.57 203.92,-67.23 197.56,-58.76 193.66,-64.57"/>
<text text-anchor="middle" x="197" y="-41" font-family="Helvetica,sans-Serif" font-size="10.00"> tick_info</text>
</g>
<!-- Node4 -->
<g id="node4" class="node">
<title>Node4</title>
<g id="a_node4"><a xlink:href="structodp__fract__u64__t.html" target="_top" xlink:title="Unsigned 64 bit fractional number.">
<polygon fill="white" stroke="black" points="169.5,-156.5 169.5,-175.5 264.5,-175.5 264.5,-156.5 169.5,-156.5"/>
<text text-anchor="middle" x="217" y="-163.5" font-family="Helvetica,sans-Serif" font-size="10.00">odp_fract_u64_t</text>
</a>
</g>
</g>
<!-- Node4&#45;&gt;Node3 -->
<g id="edge3" class="edge">
<title>Node4&#45;&gt;Node3</title>
<path fill="none" stroke="#9a32cd" stroke-dasharray="5,2" d="M217,-146.19C217,-127.74 217,-100.41 217,-86.62"/>
<polygon fill="#9a32cd" stroke="#9a32cd" points="213.5,-146.34 217,-156.34 220.5,-146.34 213.5,-146.34"/>
<text text-anchor="middle" x="240" y="-130" font-family="Helvetica,sans-Serif" font-size="10.00"> nsec</text>
<text text-anchor="middle" x="240" y="-119" font-family="Helvetica,sans-Serif" font-size="10.00">clk_cycle</text>
<text text-anchor="middle" x="240" y="-108" font-family="Helvetica,sans-Serif" font-size="10.00">freq</text>
</g>
</g>
</svg>
