<?xml version="1.0" encoding="UTF-8" standalone="no"?>
<!DOCTYPE svg PUBLIC "-//W3C//DTD SVG 1.1//EN"
 "http://www.w3.org/Graphics/SVG/1.1/DTD/svg11.dtd">
<!-- Generated by graphviz version 2.43.0 (0)
 -->
<!-- Title: odp_ipsec_config_t Pages: 1 -->
<svg width="399pt" height="173pt"
 viewBox="0.00 0.00 399.00 173.00" xmlns="http://www.w3.org/2000/svg" xmlns:xlink="http://www.w3.org/1999/xlink">
<g id="graph0" class="graph" transform="scale(1 1) rotate(0) translate(4 169)">
<title>odp_ipsec_config_t</title>
<polygon fill="white" stroke="transparent" points="-4,4 -4,-169 395,-169 395,4 -4,4"/>
<!-- Node1 -->
<g id="node1" class="node">
<title>Node1</title>
<g id="a_node1"><a xlink:title="IPSEC configuration options.">
<polygon fill="#bfbfbf" stroke="black" points="39.5,-0.5 39.5,-19.5 148.5,-19.5 148.5,-0.5 39.5,-0.5"/>
<text text-anchor="middle" x="94" y="-7.5" font-family="Helvetica,sans-Serif" font-size="10.00">odp_ipsec_config_t</text>
</a>
</g>
</g>
<!-- Node2 -->
<g id="node2" class="node">
<title>Node2</title>
<g id="a_node2"><a xlink:href="structodp__ipsec__outbound__config__t.html" target="_top" xlink:title="Configuration options for IPSEC outbound processing.">
<polygon fill="white" stroke="black" points="0,-67.5 0,-97.5 116,-97.5 116,-67.5 0,-67.5"/>
<text text-anchor="start" x="8" y="-85.5" font-family="Helvetica,sans-Serif" font-size="10.00">odp_ipsec_outbound</text>
<text text-anchor="middle" x="58" y="-74.5" font-family="Helvetica,sans-Serif" font-size="10.00">_config_t</text>
</a>
</g>
</g>
<!-- Node2&#45;&gt;Node1 -->
<g id="edge1" class="edge">
<title>Node2&#45;&gt;Node1</title>
<path fill="none" stroke="#9a32cd" stroke-dasharray="5,2" d="M69.88,-58.24C76.58,-45.12 84.57,-29.48 89.46,-19.89"/>
<polygon fill="#9a32cd" stroke="#9a32cd" points="66.72,-56.74 65.29,-67.23 72.95,-59.92 66.72,-56.74"/>
<text text-anchor="middle" x="104.5" y="-41" font-family="Helvetica,sans-Serif" font-size="10.00"> outbound</text>
</g>
<!-- Node3 -->
<g id="node3" class="node">
<title>Node3</title>
<g id="a_node3"><a xlink:href="structodp__ipsec__inbound__config__t.html" target="_top" xlink:title="Configuration options for IPSEC inbound processing.">
<polygon fill="white" stroke="black" points="134.5,-73 134.5,-92 287.5,-92 287.5,-73 134.5,-73"/>
<text text-anchor="middle" x="211" y="-80" font-family="Helvetica,sans-Serif" font-size="10.00">odp_ipsec_inbound_config_t</text>
</a>
</g>
</g>
<!-- Node3&#45;&gt;Node1 -->
<g id="edge2" class="edge">
<title>Node3&#45;&gt;Node1</title>
<path fill="none" stroke="#9a32cd" stroke-dasharray="5,2" d="M187.97,-67.62C164.36,-53.39 128.35,-31.7 108.46,-19.72"/>
<polygon fill="#9a32cd" stroke="#9a32cd" points="186.28,-70.69 196.65,-72.86 189.89,-64.7 186.28,-70.69"/>
<text text-anchor="middle" x="178.5" y="-41" font-family="Helvetica,sans-Serif" font-size="10.00"> inbound</text>
</g>
<!-- Node4 -->
<g id="node4" class="node">
<title>Node4</title>
<g id="a_node4"><a xlink:href="unionodp__proto__chksums__t.html" target="_top" xlink:title="Flags to control packet data checksum checking.">
<polygon fill="white" stroke="black" points="17.5,-145.5 17.5,-164.5 140.5,-164.5 140.5,-145.5 17.5,-145.5"/>
<text text-anchor="middle" x="79" y="-152.5" font-family="Helvetica,sans-Serif" font-size="10.00">odp_proto_chksums_t</text>
</a>
</g>
</g>
<!-- Node4&#45;&gt;Node3 -->
<g id="edge3" class="edge">
<title>Node4&#45;&gt;Node3</title>
<path fill="none" stroke="#9a32cd" stroke-dasharray="5,2" d="M104.04,-140.62C130.8,-126.34 172.39,-104.12 195.02,-92.03"/>
<polygon fill="#9a32cd" stroke="#9a32cd" points="102.09,-137.7 94.92,-145.5 105.39,-143.87 102.09,-137.7"/>
<text text-anchor="middle" x="172.5" y="-119" font-family="Helvetica,sans-Serif" font-size="10.00"> chksums</text>
</g>
<!-- Node5 -->
<g id="node5" class="node">
<title>Node5</title>
<g id="a_node5"><a xlink:href="struct__odp__abi__queue__t.html" target="_top" xlink:title=" ">
<polygon fill="white" stroke="black" points="159,-145.5 159,-164.5 263,-164.5 263,-145.5 159,-145.5"/>
<text text-anchor="middle" x="211" y="-152.5" font-family="Helvetica,sans-Serif" font-size="10.00">_odp_abi_queue_t</text>
</a>
</g>
</g>
<!-- Node5&#45;&gt;Node3 -->
<g id="edge4" class="edge">
<title>Node5&#45;&gt;Node3</title>
<path fill="none" stroke="#9a32cd" stroke-dasharray="5,2" d="M211,-134.94C211,-121.03 211,-102.82 211,-92.22"/>
<polygon fill="#9a32cd" stroke="#9a32cd" points="207.5,-135.36 211,-145.36 214.5,-135.36 207.5,-135.36"/>
<text text-anchor="middle" x="247.5" y="-119" font-family="Helvetica,sans-Serif" font-size="10.00"> default_queue</text>
</g>
<!-- Node6 -->
<g id="node6" class="node">
<title>Node6</title>
<g id="a_node6"><a xlink:href="structodp__reass__config__t.html" target="_top" xlink:title="Fragment reassembly configuration.">
<polygon fill="white" stroke="black" points="281,-145.5 281,-164.5 391,-164.5 391,-145.5 281,-145.5"/>
<text text-anchor="middle" x="336" y="-152.5" font-family="Helvetica,sans-Serif" font-size="10.00">odp_reass_config_t</text>
</a>
</g>
</g>
<!-- Node6&#45;&gt;Node3 -->
<g id="edge5" class="edge">
<title>Node6&#45;&gt;Node3</title>
<path fill="none" stroke="#9a32cd" stroke-dasharray="5,2" d="M318.99,-138.67C310.16,-131.21 298.95,-122.48 288,-116 271.52,-106.24 251.56,-97.91 236.1,-92.12"/>
<polygon fill="#9a32cd" stroke="#9a32cd" points="316.79,-141.4 326.64,-145.32 321.38,-136.12 316.79,-141.4"/>
<text text-anchor="middle" x="333.5" y="-119" font-family="Helvetica,sans-Serif" font-size="10.00"> reassembly</text>
</g>
</g>
</svg>
