<?xml version="1.0" encoding="UTF-8" standalone="no"?>
<!DOCTYPE svg PUBLIC "-//W3C//DTD SVG 1.1//EN"
 "http://www.w3.org/Graphics/SVG/1.1/DTD/svg11.dtd">
<!-- Generated by graphviz version 2.43.0 (0)
 -->
<!-- Title: time.h Pages: 1 -->
<svg width="553pt" height="812pt"
 viewBox="0.00 0.00 553.00 812.00" xmlns="http://www.w3.org/2000/svg" xmlns:xlink="http://www.w3.org/1999/xlink">
<g id="graph0" class="graph" transform="scale(1 1) rotate(0) translate(4 808)">
<title>time.h</title>
<polygon fill="white" stroke="transparent" points="-4,4 -4,-808 549,-808 549,4 -4,4"/>
<!-- Node1 -->
<g id="node1" class="node">
<title>Node1</title>
<g id="a_node1"><a xlink:title=" ">
<polygon fill="#bfbfbf" stroke="black" points="397.5,-784.5 397.5,-803.5 445.5,-803.5 445.5,-784.5 397.5,-784.5"/>
<text text-anchor="middle" x="421.5" y="-791.5" font-family="Helvetica,sans-Serif" font-size="10.00">time.h</text>
</a>
</g>
</g>
<!-- Node2 -->
<g id="node2" class="node">
<title>Node2</title>
<g id="a_node2"><a xlink:href="spec_2packet_8h.html" target="_top" xlink:title=" ">
<polygon fill="white" stroke="black" points="293.5,-728.5 293.5,-747.5 351.5,-747.5 351.5,-728.5 293.5,-728.5"/>
<text text-anchor="middle" x="322.5" y="-735.5" font-family="Helvetica,sans-Serif" font-size="10.00">packet.h</text>
</a>
</g>
</g>
<!-- Node1&#45;&gt;Node2 -->
<g id="edge1" class="edge">
<title>Node1&#45;&gt;Node2</title>
<path fill="none" stroke="midnightblue" d="M396.66,-779.45C378.39,-769.48 354.08,-756.23 338.37,-747.65"/>
<polygon fill="midnightblue" stroke="midnightblue" points="395.14,-782.61 405.59,-784.32 398.49,-776.46 395.14,-782.61"/>
</g>
<!-- Node16 -->
<g id="node16" class="node">
<title>Node16</title>
<g id="a_node16"><a xlink:href="spec_2packet__io_8h.html" target="_top" xlink:title=" ">
<polygon fill="white" stroke="black" points="172.5,-280.5 172.5,-299.5 244.5,-299.5 244.5,-280.5 172.5,-280.5"/>
<text text-anchor="middle" x="208.5" y="-287.5" font-family="Helvetica,sans-Serif" font-size="10.00">packet_io.h</text>
</a>
</g>
</g>
<!-- Node1&#45;&gt;Node16 -->
<g id="edge29" class="edge">
<title>Node1&#45;&gt;Node16</title>
<path fill="none" stroke="midnightblue" d="M421.5,-774.25C421.5,-752.36 421.5,-715.05 421.5,-683 421.5,-683 421.5,-683 421.5,-401 421.5,-322.34 305.4,-299.87 244.63,-293.5"/>
<polygon fill="midnightblue" stroke="midnightblue" points="418,-774.44 421.5,-784.44 425,-774.44 418,-774.44"/>
</g>
<!-- Node26 -->
<g id="node26" class="node">
<title>Node26</title>
<g id="a_node26"><a xlink:href="packet__inlines_8h.html" target="_top" xlink:title=" ">
<polygon fill="white" stroke="black" points="450,-728.5 450,-747.5 545,-747.5 545,-728.5 450,-728.5"/>
<text text-anchor="middle" x="497.5" y="-735.5" font-family="Helvetica,sans-Serif" font-size="10.00">packet_inlines.h</text>
</a>
</g>
</g>
<!-- Node1&#45;&gt;Node26 -->
<g id="edge30" class="edge">
<title>Node1&#45;&gt;Node26</title>
<path fill="none" stroke="midnightblue" d="M442.08,-778.38C455.81,-768.62 473.43,-756.11 485.07,-747.83"/>
<polygon fill="midnightblue" stroke="midnightblue" points="439.84,-775.68 433.71,-784.32 443.89,-781.38 439.84,-775.68"/>
</g>
<!-- Node3 -->
<g id="node3" class="node">
<title>Node3</title>
<g id="a_node3"><a xlink:href="packet_8h.html" target="_top" xlink:title=" ">
<polygon fill="white" stroke="black" points="223.5,-672.5 223.5,-691.5 281.5,-691.5 281.5,-672.5 223.5,-672.5"/>
<text text-anchor="middle" x="252.5" y="-679.5" font-family="Helvetica,sans-Serif" font-size="10.00">packet.h</text>
</a>
</g>
</g>
<!-- Node2&#45;&gt;Node3 -->
<g id="edge2" class="edge">
<title>Node2&#45;&gt;Node3</title>
<path fill="none" stroke="midnightblue" d="M303.19,-722.1C290.59,-712.38 274.57,-700.03 263.95,-691.83"/>
<polygon fill="midnightblue" stroke="midnightblue" points="301.2,-724.99 311.25,-728.32 305.47,-719.44 301.2,-724.99"/>
</g>
<!-- Node4 -->
<g id="node4" class="node">
<title>Node4</title>
<g id="a_node4"><a xlink:href="spec_2comp_8h.html" target="_top" xlink:title=" ">
<polygon fill="white" stroke="black" points="14,-616.5 14,-635.5 67,-635.5 67,-616.5 14,-616.5"/>
<text text-anchor="middle" x="40.5" y="-623.5" font-family="Helvetica,sans-Serif" font-size="10.00">comp.h</text>
</a>
</g>
</g>
<!-- Node3&#45;&gt;Node4 -->
<g id="edge3" class="edge">
<title>Node3&#45;&gt;Node4</title>
<path fill="none" stroke="midnightblue" d="M213.75,-671.13C171.24,-660.3 104.16,-643.22 67.18,-633.8"/>
<polygon fill="midnightblue" stroke="midnightblue" points="212.91,-674.53 223.47,-673.6 214.64,-667.74 212.91,-674.53"/>
</g>
<!-- Node6 -->
<g id="node6" class="node">
<title>Node6</title>
<g id="a_node6"><a xlink:href="spec_2crypto_8h.html" target="_top" xlink:title=" ">
<polygon fill="white" stroke="black" points="108.5,-616.5 108.5,-635.5 164.5,-635.5 164.5,-616.5 108.5,-616.5"/>
<text text-anchor="middle" x="136.5" y="-623.5" font-family="Helvetica,sans-Serif" font-size="10.00">crypto.h</text>
</a>
</g>
</g>
<!-- Node3&#45;&gt;Node6 -->
<g id="edge5" class="edge">
<title>Node3&#45;&gt;Node6</title>
<path fill="none" stroke="midnightblue" d="M224.78,-668.1C203.11,-658.01 173.6,-644.27 154.79,-635.52"/>
<polygon fill="midnightblue" stroke="midnightblue" points="223.58,-671.4 234.12,-672.44 226.53,-665.05 223.58,-671.4"/>
</g>
<!-- Node10 -->
<g id="node10" class="node">
<title>Node10</title>
<g id="a_node10"><a xlink:href="spec_2event_8h.html" target="_top" xlink:title=" ">
<polygon fill="white" stroke="black" points="194,-616.5 194,-635.5 247,-635.5 247,-616.5 194,-616.5"/>
<text text-anchor="middle" x="220.5" y="-623.5" font-family="Helvetica,sans-Serif" font-size="10.00">event.h</text>
</a>
</g>
</g>
<!-- Node3&#45;&gt;Node10 -->
<g id="edge9" class="edge">
<title>Node3&#45;&gt;Node10</title>
<path fill="none" stroke="midnightblue" d="M242,-663.27C236.53,-654.05 230.08,-643.17 225.69,-635.75"/>
<polygon fill="midnightblue" stroke="midnightblue" points="239.11,-665.26 247.22,-672.08 245.13,-661.7 239.11,-665.26"/>
</g>
<!-- Node3&#45;&gt;Node16 -->
<g id="edge28" class="edge">
<title>Node3&#45;&gt;Node16</title>
<path fill="none" stroke="midnightblue" d="M256.67,-662.01C264.7,-623.79 281.5,-534.73 281.5,-459 281.5,-459 281.5,-459 281.5,-401 281.5,-370.5 276.39,-361.39 259.5,-336 249.43,-320.86 233.02,-307.65 221.54,-299.53"/>
<polygon fill="midnightblue" stroke="midnightblue" points="253.17,-661.66 254.49,-672.17 260.01,-663.13 253.17,-661.66"/>
</g>
<!-- Node24 -->
<g id="node24" class="node">
<title>Node24</title>
<g id="a_node24"><a xlink:href="spec_2packet__flags_8h.html" target="_top" xlink:title=" ">
<polygon fill="white" stroke="black" points="307.5,-616.5 307.5,-635.5 393.5,-635.5 393.5,-616.5 307.5,-616.5"/>
<text text-anchor="middle" x="350.5" y="-623.5" font-family="Helvetica,sans-Serif" font-size="10.00">packet_flags.h</text>
</a>
</g>
</g>
<!-- Node3&#45;&gt;Node24 -->
<g id="edge26" class="edge">
<title>Node3&#45;&gt;Node24</title>
<path fill="none" stroke="midnightblue" d="M277.09,-667.45C295.18,-657.48 319.23,-644.23 334.79,-635.65"/>
<polygon fill="midnightblue" stroke="midnightblue" points="275.31,-664.43 268.25,-672.32 278.69,-670.56 275.31,-664.43"/>
</g>
<!-- Node5 -->
<g id="node5" class="node">
<title>Node5</title>
<g id="a_node5"><a xlink:href="comp_8h.html" target="_top" xlink:title=" ">
<polygon fill="white" stroke="black" points="0,-560.5 0,-579.5 53,-579.5 53,-560.5 0,-560.5"/>
<text text-anchor="middle" x="26.5" y="-567.5" font-family="Helvetica,sans-Serif" font-size="10.00">comp.h</text>
</a>
</g>
</g>
<!-- Node4&#45;&gt;Node5 -->
<g id="edge4" class="edge">
<title>Node4&#45;&gt;Node5</title>
<path fill="none" stroke="midnightblue" d="M35.68,-606.4C33.33,-597.36 30.63,-586.94 28.77,-579.75"/>
<polygon fill="midnightblue" stroke="midnightblue" points="32.29,-607.28 38.19,-616.08 39.07,-605.52 32.29,-607.28"/>
</g>
<!-- Node7 -->
<g id="node7" class="node">
<title>Node7</title>
<g id="a_node7"><a xlink:href="crypto_8h.html" target="_top" xlink:title=" ">
<polygon fill="white" stroke="black" points="65.5,-392.5 65.5,-411.5 121.5,-411.5 121.5,-392.5 65.5,-392.5"/>
<text text-anchor="middle" x="93.5" y="-399.5" font-family="Helvetica,sans-Serif" font-size="10.00">crypto.h</text>
</a>
</g>
</g>
<!-- Node6&#45;&gt;Node7 -->
<g id="edge6" class="edge">
<title>Node6&#45;&gt;Node7</title>
<path fill="none" stroke="midnightblue" d="M128.31,-607C119.71,-587.13 106.58,-554 100.5,-524 92.09,-482.55 92.57,-431.6 93.17,-411.62"/>
<polygon fill="midnightblue" stroke="midnightblue" points="125.2,-608.6 132.45,-616.33 131.6,-605.76 125.2,-608.6"/>
</g>
<!-- Node8 -->
<g id="node8" class="node">
<title>Node8</title>
<g id="a_node8"><a xlink:href="spec_2ipsec_8h.html" target="_top" xlink:title=" ">
<polygon fill="white" stroke="black" points="145,-56.5 145,-75.5 196,-75.5 196,-56.5 145,-56.5"/>
<text text-anchor="middle" x="170.5" y="-63.5" font-family="Helvetica,sans-Serif" font-size="10.00">ipsec.h</text>
</a>
</g>
</g>
<!-- Node7&#45;&gt;Node8 -->
<g id="edge7" class="edge">
<title>Node7&#45;&gt;Node8</title>
<path fill="none" stroke="midnightblue" d="M94.05,-382.25C94.64,-360.36 95.5,-323.06 95.5,-291 95.5,-291 95.5,-291 95.5,-177 95.5,-132.39 138.13,-92.52 159.11,-75.6"/>
<polygon fill="midnightblue" stroke="midnightblue" points="90.54,-382.35 93.76,-392.44 97.54,-382.55 90.54,-382.35"/>
</g>
<!-- Node9 -->
<g id="node9" class="node">
<title>Node9</title>
<g id="a_node9"><a xlink:href="ipsec_8h.html" target="_top" xlink:title=" ">
<polygon fill="white" stroke="black" points="145,-0.5 145,-19.5 196,-19.5 196,-0.5 145,-0.5"/>
<text text-anchor="middle" x="170.5" y="-7.5" font-family="Helvetica,sans-Serif" font-size="10.00">ipsec.h</text>
</a>
</g>
</g>
<!-- Node8&#45;&gt;Node9 -->
<g id="edge8" class="edge">
<title>Node8&#45;&gt;Node9</title>
<path fill="none" stroke="midnightblue" d="M170.5,-45.8C170.5,-36.91 170.5,-26.78 170.5,-19.75"/>
<polygon fill="midnightblue" stroke="midnightblue" points="167,-46.08 170.5,-56.08 174,-46.08 167,-46.08"/>
</g>
<!-- Node11 -->
<g id="node11" class="node">
<title>Node11</title>
<g id="a_node11"><a xlink:href="event_8h.html" target="_top" xlink:title=" ">
<polygon fill="white" stroke="black" points="192,-560.5 192,-579.5 245,-579.5 245,-560.5 192,-560.5"/>
<text text-anchor="middle" x="218.5" y="-567.5" font-family="Helvetica,sans-Serif" font-size="10.00">event.h</text>
</a>
</g>
</g>
<!-- Node10&#45;&gt;Node11 -->
<g id="edge10" class="edge">
<title>Node10&#45;&gt;Node11</title>
<path fill="none" stroke="midnightblue" d="M219.79,-605.8C219.46,-596.91 219.08,-586.78 218.82,-579.75"/>
<polygon fill="midnightblue" stroke="midnightblue" points="216.3,-606.22 220.17,-616.08 223.3,-605.96 216.3,-606.22"/>
</g>
<!-- Node12 -->
<g id="node12" class="node">
<title>Node12</title>
<g id="a_node12"><a xlink:href="spec_2queue_8h.html" target="_top" xlink:title=" ">
<polygon fill="white" stroke="black" points="109.5,-504.5 109.5,-523.5 165.5,-523.5 165.5,-504.5 109.5,-504.5"/>
<text text-anchor="middle" x="137.5" y="-511.5" font-family="Helvetica,sans-Serif" font-size="10.00">queue.h</text>
</a>
</g>
</g>
<!-- Node11&#45;&gt;Node12 -->
<g id="edge11" class="edge">
<title>Node11&#45;&gt;Node12</title>
<path fill="none" stroke="midnightblue" d="M196.93,-554.62C182.14,-544.76 162.99,-531.99 150.48,-523.65"/>
<polygon fill="midnightblue" stroke="midnightblue" points="195.22,-557.69 205.49,-560.32 199.11,-551.86 195.22,-557.69"/>
</g>
<!-- Node22 -->
<g id="node22" class="node">
<title>Node22</title>
<g id="a_node22"><a xlink:href="spec_2schedule_8h.html" target="_top" xlink:title=" ">
<polygon fill="white" stroke="black" points="184,-504.5 184,-523.5 253,-523.5 253,-504.5 184,-504.5"/>
<text text-anchor="middle" x="218.5" y="-511.5" font-family="Helvetica,sans-Serif" font-size="10.00">schedule.h</text>
</a>
</g>
</g>
<!-- Node11&#45;&gt;Node22 -->
<g id="edge24" class="edge">
<title>Node11&#45;&gt;Node22</title>
<path fill="none" stroke="midnightblue" d="M218.5,-549.8C218.5,-540.91 218.5,-530.78 218.5,-523.75"/>
<polygon fill="midnightblue" stroke="midnightblue" points="215,-550.08 218.5,-560.08 222,-550.08 215,-550.08"/>
</g>
<!-- Node13 -->
<g id="node13" class="node">
<title>Node13</title>
<g id="a_node13"><a xlink:href="queue_8h.html" target="_top" xlink:title=" ">
<polygon fill="white" stroke="black" points="109.5,-448.5 109.5,-467.5 165.5,-467.5 165.5,-448.5 109.5,-448.5"/>
<text text-anchor="middle" x="137.5" y="-455.5" font-family="Helvetica,sans-Serif" font-size="10.00">queue.h</text>
</a>
</g>
</g>
<!-- Node12&#45;&gt;Node13 -->
<g id="edge12" class="edge">
<title>Node12&#45;&gt;Node13</title>
<path fill="none" stroke="midnightblue" d="M137.5,-493.8C137.5,-484.91 137.5,-474.78 137.5,-467.75"/>
<polygon fill="midnightblue" stroke="midnightblue" points="134,-494.08 137.5,-504.08 141,-494.08 134,-494.08"/>
</g>
<!-- Node14 -->
<g id="node14" class="node">
<title>Node14</title>
<g id="a_node14"><a xlink:href="spec_2packet__io__stats_8h.html" target="_top" xlink:title=" ">
<polygon fill="white" stroke="black" points="147,-392.5 147,-411.5 248,-411.5 248,-392.5 147,-392.5"/>
<text text-anchor="middle" x="197.5" y="-399.5" font-family="Helvetica,sans-Serif" font-size="10.00">packet_io_stats.h</text>
</a>
</g>
</g>
<!-- Node13&#45;&gt;Node14 -->
<g id="edge13" class="edge">
<title>Node13&#45;&gt;Node14</title>
<path fill="none" stroke="midnightblue" d="M154.68,-441.54C165.38,-431.91 178.76,-419.87 187.68,-411.83"/>
<polygon fill="midnightblue" stroke="midnightblue" points="152.23,-439.03 147.14,-448.32 156.91,-444.24 152.23,-439.03"/>
</g>
<!-- Node15 -->
<g id="node15" class="node">
<title>Node15</title>
<g id="a_node15"><a xlink:href="packet__io__stats_8h.html" target="_top" xlink:title=" ">
<polygon fill="white" stroke="black" points="149,-336.5 149,-355.5 250,-355.5 250,-336.5 149,-336.5"/>
<text text-anchor="middle" x="199.5" y="-343.5" font-family="Helvetica,sans-Serif" font-size="10.00">packet_io_stats.h</text>
</a>
</g>
</g>
<!-- Node14&#45;&gt;Node15 -->
<g id="edge14" class="edge">
<title>Node14&#45;&gt;Node15</title>
<path fill="none" stroke="midnightblue" d="M198.21,-381.8C198.54,-372.91 198.92,-362.78 199.18,-355.75"/>
<polygon fill="midnightblue" stroke="midnightblue" points="194.7,-381.96 197.83,-392.08 201.7,-382.22 194.7,-381.96"/>
</g>
<!-- Node15&#45;&gt;Node16 -->
<g id="edge15" class="edge">
<title>Node15&#45;&gt;Node16</title>
<path fill="none" stroke="midnightblue" d="M202.65,-326.1C204.14,-317.14 205.86,-306.86 207.04,-299.75"/>
<polygon fill="midnightblue" stroke="midnightblue" points="199.18,-325.64 200.99,-336.08 206.08,-326.79 199.18,-325.64"/>
</g>
<!-- Node17 -->
<g id="node17" class="node">
<title>Node17</title>
<g id="a_node17"><a xlink:href="packet__io_8h.html" target="_top" xlink:title=" ">
<polygon fill="white" stroke="black" points="172.5,-224.5 172.5,-243.5 244.5,-243.5 244.5,-224.5 172.5,-224.5"/>
<text text-anchor="middle" x="208.5" y="-231.5" font-family="Helvetica,sans-Serif" font-size="10.00">packet_io.h</text>
</a>
</g>
</g>
<!-- Node16&#45;&gt;Node17 -->
<g id="edge16" class="edge">
<title>Node16&#45;&gt;Node17</title>
<path fill="none" stroke="midnightblue" d="M208.5,-269.8C208.5,-260.91 208.5,-250.78 208.5,-243.75"/>
<polygon fill="midnightblue" stroke="midnightblue" points="205,-270.08 208.5,-280.08 212,-270.08 205,-270.08"/>
</g>
<!-- Node17&#45;&gt;Node8 -->
<g id="edge20" class="edge">
<title>Node17&#45;&gt;Node8</title>
<path fill="none" stroke="midnightblue" d="M182.64,-218.95C171.49,-211.38 159.63,-200.93 153.5,-188 135.15,-149.28 156.34,-96.33 166.1,-75.71"/>
<polygon fill="midnightblue" stroke="midnightblue" points="180.97,-222.03 191.3,-224.39 184.69,-216.1 180.97,-222.03"/>
</g>
<!-- Node18 -->
<g id="node18" class="node">
<title>Node18</title>
<g id="a_node18"><a xlink:href="spec_2classification_8h.html" target="_top" xlink:title=" ">
<polygon fill="white" stroke="black" points="163,-168.5 163,-187.5 252,-187.5 252,-168.5 163,-168.5"/>
<text text-anchor="middle" x="207.5" y="-175.5" font-family="Helvetica,sans-Serif" font-size="10.00">classification.h</text>
</a>
</g>
</g>
<!-- Node17&#45;&gt;Node18 -->
<g id="edge17" class="edge">
<title>Node17&#45;&gt;Node18</title>
<path fill="none" stroke="midnightblue" d="M208.14,-213.8C207.98,-204.91 207.79,-194.78 207.66,-187.75"/>
<polygon fill="midnightblue" stroke="midnightblue" points="204.65,-214.15 208.33,-224.08 211.65,-214.02 204.65,-214.15"/>
</g>
<!-- Node20 -->
<g id="node20" class="node">
<title>Node20</title>
<g id="a_node20"><a xlink:href="spec_2traffic__mngr_8h.html" target="_top" xlink:title=" ">
<polygon fill="white" stroke="black" points="269.5,-168.5 269.5,-187.5 353.5,-187.5 353.5,-168.5 269.5,-168.5"/>
<text text-anchor="middle" x="311.5" y="-175.5" font-family="Helvetica,sans-Serif" font-size="10.00">traffic_mngr.h</text>
</a>
</g>
</g>
<!-- Node17&#45;&gt;Node20 -->
<g id="edge21" class="edge">
<title>Node17&#45;&gt;Node20</title>
<path fill="none" stroke="midnightblue" d="M234.08,-219.59C253.12,-209.61 278.56,-196.27 294.99,-187.65"/>
<polygon fill="midnightblue" stroke="midnightblue" points="232.28,-216.58 225.05,-224.32 235.53,-222.78 232.28,-216.58"/>
</g>
<!-- Node19 -->
<g id="node19" class="node">
<title>Node19</title>
<g id="a_node19"><a xlink:href="classification_8h.html" target="_top" xlink:title=" ">
<polygon fill="white" stroke="black" points="163,-112.5 163,-131.5 252,-131.5 252,-112.5 163,-112.5"/>
<text text-anchor="middle" x="207.5" y="-119.5" font-family="Helvetica,sans-Serif" font-size="10.00">classification.h</text>
</a>
</g>
</g>
<!-- Node18&#45;&gt;Node19 -->
<g id="edge18" class="edge">
<title>Node18&#45;&gt;Node19</title>
<path fill="none" stroke="midnightblue" d="M207.5,-157.8C207.5,-148.91 207.5,-138.78 207.5,-131.75"/>
<polygon fill="midnightblue" stroke="midnightblue" points="204,-158.08 207.5,-168.08 211,-158.08 204,-158.08"/>
</g>
<!-- Node19&#45;&gt;Node8 -->
<g id="edge19" class="edge">
<title>Node19&#45;&gt;Node8</title>
<path fill="none" stroke="midnightblue" d="M195.55,-103.57C189.19,-94.27 181.63,-83.25 176.5,-75.75"/>
<polygon fill="midnightblue" stroke="midnightblue" points="192.85,-105.81 201.39,-112.08 198.63,-101.86 192.85,-105.81"/>
</g>
<!-- Node21 -->
<g id="node21" class="node">
<title>Node21</title>
<g id="a_node21"><a xlink:href="traffic__mngr_8h.html" target="_top" xlink:title=" ">
<polygon fill="white" stroke="black" points="269.5,-112.5 269.5,-131.5 353.5,-131.5 353.5,-112.5 269.5,-112.5"/>
<text text-anchor="middle" x="311.5" y="-119.5" font-family="Helvetica,sans-Serif" font-size="10.00">traffic_mngr.h</text>
</a>
</g>
</g>
<!-- Node20&#45;&gt;Node21 -->
<g id="edge22" class="edge">
<title>Node20&#45;&gt;Node21</title>
<path fill="none" stroke="midnightblue" d="M311.5,-157.8C311.5,-148.91 311.5,-138.78 311.5,-131.75"/>
<polygon fill="midnightblue" stroke="midnightblue" points="308,-158.08 311.5,-168.08 315,-158.08 308,-158.08"/>
</g>
<!-- Node21&#45;&gt;Node8 -->
<g id="edge23" class="edge">
<title>Node21&#45;&gt;Node8</title>
<path fill="none" stroke="midnightblue" d="M279.57,-108.77C253.09,-98.63 216.11,-84.47 192.74,-75.52"/>
<polygon fill="midnightblue" stroke="midnightblue" points="278.57,-112.14 289.16,-112.44 281.07,-105.6 278.57,-112.14"/>
</g>
<!-- Node23 -->
<g id="node23" class="node">
<title>Node23</title>
<g id="a_node23"><a xlink:href="schedule_8h.html" target="_top" xlink:title=" ">
<polygon fill="white" stroke="black" points="184,-448.5 184,-467.5 253,-467.5 253,-448.5 184,-448.5"/>
<text text-anchor="middle" x="218.5" y="-455.5" font-family="Helvetica,sans-Serif" font-size="10.00">schedule.h</text>
</a>
</g>
</g>
<!-- Node22&#45;&gt;Node23 -->
<g id="edge25" class="edge">
<title>Node22&#45;&gt;Node23</title>
<path fill="none" stroke="midnightblue" d="M218.5,-493.8C218.5,-484.91 218.5,-474.78 218.5,-467.75"/>
<polygon fill="midnightblue" stroke="midnightblue" points="215,-494.08 218.5,-504.08 222,-494.08 215,-494.08"/>
</g>
<!-- Node25 -->
<g id="node25" class="node">
<title>Node25</title>
<g id="a_node25"><a xlink:href="packet__flags_8h.html" target="_top" xlink:title=" ">
<polygon fill="white" stroke="black" points="307.5,-560.5 307.5,-579.5 393.5,-579.5 393.5,-560.5 307.5,-560.5"/>
<text text-anchor="middle" x="350.5" y="-567.5" font-family="Helvetica,sans-Serif" font-size="10.00">packet_flags.h</text>
</a>
</g>
</g>
<!-- Node24&#45;&gt;Node25 -->
<g id="edge27" class="edge">
<title>Node24&#45;&gt;Node25</title>
<path fill="none" stroke="midnightblue" d="M350.5,-605.8C350.5,-596.91 350.5,-586.78 350.5,-579.75"/>
<polygon fill="midnightblue" stroke="midnightblue" points="347,-606.08 350.5,-616.08 354,-606.08 347,-606.08"/>
</g>
</g>
</svg>
