<?xml version="1.0" encoding="UTF-8" standalone="no"?>
<!DOCTYPE svg PUBLIC "-//W3C//DTD SVG 1.1//EN"
 "http://www.w3.org/Graphics/SVG/1.1/DTD/svg11.dtd">
<!-- Generated by graphviz version 2.43.0 (0)
 -->
<!-- Title: timer.h Pages: 1 -->
<svg width="930pt" height="308pt"
 viewBox="0.00 0.00 929.56 308.00" xmlns="http://www.w3.org/2000/svg" xmlns:xlink="http://www.w3.org/1999/xlink">
<g id="graph0" class="graph" transform="scale(1 1) rotate(0) translate(4 304)">
<title>timer.h</title>
<polygon fill="white" stroke="transparent" points="-4,4 -4,-304 925.56,-304 925.56,4 -4,4"/>
<!-- Node1 -->
<g id="node1" class="node">
<title>Node1</title>
<g id="a_node1"><a xlink:title=" ">
<polygon fill="#bfbfbf" stroke="black" points="491.06,-280.5 491.06,-299.5 542.06,-299.5 542.06,-280.5 491.06,-280.5"/>
<text text-anchor="middle" x="516.56" y="-287.5" font-family="Helvetica,sans-Serif" font-size="10.00">timer.h</text>
</a>
</g>
</g>
<!-- Node2 -->
<g id="node2" class="node">
<title>Node2</title>
<g id="a_node2"><a xlink:href="std__types_8h.html" target="_top" xlink:title=" ">
<polygon fill="white" stroke="black" points="222.56,-224.5 222.56,-243.5 334.56,-243.5 334.56,-224.5 222.56,-224.5"/>
<text text-anchor="middle" x="278.56" y="-231.5" font-family="Helvetica,sans-Serif" font-size="10.00">odp/api/std_types.h</text>
</a>
</g>
</g>
<!-- Node1&#45;&gt;Node2 -->
<g id="edge1" class="edge">
<title>Node1&#45;&gt;Node2</title>
<path fill="none" stroke="midnightblue" d="M490.63,-283.12C451.18,-274.17 375.45,-256.98 325.98,-245.76"/>
<polygon fill="midnightblue" stroke="midnightblue" points="326.68,-242.33 316.15,-243.53 325.13,-249.16 326.68,-242.33"/>
</g>
<!-- Node11 -->
<g id="node11" class="node">
<title>Node11</title>
<g id="a_node11"><a xlink:title=" ">
<polygon fill="white" stroke="#bfbfbf" points="399.56,-224.5 399.56,-243.5 509.56,-243.5 509.56,-224.5 399.56,-224.5"/>
<text text-anchor="middle" x="454.56" y="-231.5" font-family="Helvetica,sans-Serif" font-size="10.00">odp/api/abi/event.h</text>
</a>
</g>
</g>
<!-- Node1&#45;&gt;Node11 -->
<g id="edge12" class="edge">
<title>Node1&#45;&gt;Node11</title>
<path fill="none" stroke="midnightblue" d="M506.6,-280.32C497.43,-272.34 483.62,-260.31 472.53,-250.65"/>
<polygon fill="midnightblue" stroke="midnightblue" points="474.54,-247.76 464.7,-243.83 469.94,-253.04 474.54,-247.76"/>
</g>
<!-- Node12 -->
<g id="node12" class="node">
<title>Node12</title>
<g id="a_node12"><a xlink:title=" ">
<polygon fill="white" stroke="#bfbfbf" points="527.56,-224.5 527.56,-243.5 631.56,-243.5 631.56,-224.5 527.56,-224.5"/>
<text text-anchor="middle" x="579.56" y="-231.5" font-family="Helvetica,sans-Serif" font-size="10.00">odp/api/abi/pool.h</text>
</a>
</g>
</g>
<!-- Node1&#45;&gt;Node12 -->
<g id="edge13" class="edge">
<title>Node1&#45;&gt;Node12</title>
<path fill="none" stroke="midnightblue" d="M526.68,-280.32C536.08,-272.26 550.3,-260.08 561.63,-250.37"/>
<polygon fill="midnightblue" stroke="midnightblue" points="563.94,-253 569.25,-243.83 559.38,-247.68 563.94,-253"/>
</g>
<!-- Node13 -->
<g id="node13" class="node">
<title>Node13</title>
<g id="a_node13"><a xlink:title=" ">
<polygon fill="white" stroke="#bfbfbf" points="650.06,-224.5 650.06,-243.5 795.06,-243.5 795.06,-224.5 650.06,-224.5"/>
<text text-anchor="middle" x="722.56" y="-231.5" font-family="Helvetica,sans-Serif" font-size="10.00">odp/api/abi/queue_types.h</text>
</a>
</g>
</g>
<!-- Node1&#45;&gt;Node13 -->
<g id="edge14" class="edge">
<title>Node1&#45;&gt;Node13</title>
<path fill="none" stroke="midnightblue" d="M542.23,-282.27C576.81,-273.21 638.78,-256.96 680.28,-246.08"/>
<polygon fill="midnightblue" stroke="midnightblue" points="681.32,-249.43 690.1,-243.51 679.54,-242.66 681.32,-249.43"/>
</g>
<!-- Node14 -->
<g id="node14" class="node">
<title>Node14</title>
<g id="a_node14"><a xlink:title=" ">
<polygon fill="white" stroke="#bfbfbf" points="813.56,-224.5 813.56,-243.5 921.56,-243.5 921.56,-224.5 813.56,-224.5"/>
<text text-anchor="middle" x="867.56" y="-231.5" font-family="Helvetica,sans-Serif" font-size="10.00">odp/api/abi/timer.h</text>
</a>
</g>
</g>
<!-- Node1&#45;&gt;Node14 -->
<g id="edge15" class="edge">
<title>Node1&#45;&gt;Node14</title>
<path fill="none" stroke="midnightblue" d="M542.08,-285.07C596.43,-276.71 725.02,-256.93 803.32,-244.88"/>
<polygon fill="midnightblue" stroke="midnightblue" points="804.2,-248.29 813.55,-243.31 803.13,-241.37 804.2,-248.29"/>
</g>
<!-- Node15 -->
<g id="node15" class="node">
<title>Node15</title>
<g id="a_node15"><a xlink:href="spec_2timer_8h.html" target="_top" xlink:title=" ">
<polygon fill="white" stroke="black" points="313.56,-56.5 313.56,-75.5 429.56,-75.5 429.56,-56.5 313.56,-56.5"/>
<text text-anchor="middle" x="371.56" y="-63.5" font-family="Helvetica,sans-Serif" font-size="10.00">odp/api/spec/timer.h</text>
</a>
</g>
</g>
<!-- Node1&#45;&gt;Node15 -->
<g id="edge16" class="edge">
<title>Node1&#45;&gt;Node15</title>
<path fill="none" stroke="midnightblue" d="M490.95,-287.6C461.7,-284.51 414.78,-274.74 390.56,-244 353.78,-197.33 361.53,-120.92 367.67,-85.77"/>
<polygon fill="midnightblue" stroke="midnightblue" points="371.18,-86.01 369.62,-75.53 364.31,-84.7 371.18,-86.01"/>
</g>
<!-- Node3 -->
<g id="node3" class="node">
<title>Node3</title>
<g id="a_node3"><a xlink:title=" ">
<polygon fill="white" stroke="#bfbfbf" points="213.56,-168.5 213.56,-187.5 343.56,-187.5 343.56,-168.5 213.56,-168.5"/>
<text text-anchor="middle" x="278.56" y="-175.5" font-family="Helvetica,sans-Serif" font-size="10.00">odp/api/abi/std_types.h</text>
</a>
</g>
</g>
<!-- Node2&#45;&gt;Node3 -->
<g id="edge2" class="edge">
<title>Node2&#45;&gt;Node3</title>
<path fill="none" stroke="midnightblue" d="M278.56,-224.08C278.56,-217.01 278.56,-206.86 278.56,-197.99"/>
<polygon fill="midnightblue" stroke="midnightblue" points="282.06,-197.75 278.56,-187.75 275.06,-197.75 282.06,-197.75"/>
</g>
<!-- Node4 -->
<g id="node4" class="node">
<title>Node4</title>
<g id="a_node4"><a xlink:href="spec_2std__types_8h.html" target="_top" xlink:title=" ">
<polygon fill="white" stroke="black" points="58.06,-168.5 58.06,-187.5 195.06,-187.5 195.06,-168.5 58.06,-168.5"/>
<text text-anchor="middle" x="126.56" y="-175.5" font-family="Helvetica,sans-Serif" font-size="10.00">odp/api/spec/std_types.h</text>
</a>
</g>
</g>
<!-- Node2&#45;&gt;Node4 -->
<g id="edge3" class="edge">
<title>Node2&#45;&gt;Node4</title>
<path fill="none" stroke="midnightblue" d="M254.47,-224.44C229.01,-215.4 188.66,-201.06 160.1,-190.92"/>
<polygon fill="midnightblue" stroke="midnightblue" points="161.12,-187.57 150.53,-187.52 158.78,-194.16 161.12,-187.57"/>
</g>
<!-- Node5 -->
<g id="node5" class="node">
<title>Node5</title>
<g id="a_node5"><a xlink:title=" ">
<polygon fill="white" stroke="#bfbfbf" points="115.06,-0.5 115.06,-19.5 236.06,-19.5 236.06,-0.5 115.06,-0.5"/>
<text text-anchor="middle" x="175.56" y="-7.5" font-family="Helvetica,sans-Serif" font-size="10.00">odp/visibility_begin.h</text>
</a>
</g>
</g>
<!-- Node4&#45;&gt;Node5 -->
<g id="edge4" class="edge">
<title>Node4&#45;&gt;Node5</title>
<path fill="none" stroke="midnightblue" d="M106.01,-168.43C63.59,-149.52 -26.87,-102.23 8.56,-56 20.64,-40.23 64.83,-28.75 104.72,-21.32"/>
<polygon fill="midnightblue" stroke="midnightblue" points="105.52,-24.74 114.74,-19.53 104.28,-17.85 105.52,-24.74"/>
</g>
<!-- Node6 -->
<g id="node6" class="node">
<title>Node6</title>
<g id="a_node6"><a xlink:title=" ">
<polygon fill="white" stroke="#bfbfbf" points="161.06,-112.5 161.06,-131.5 214.06,-131.5 214.06,-112.5 161.06,-112.5"/>
<text text-anchor="middle" x="187.56" y="-119.5" font-family="Helvetica,sans-Serif" font-size="10.00">stdint.h</text>
</a>
</g>
</g>
<!-- Node4&#45;&gt;Node6 -->
<g id="edge5" class="edge">
<title>Node4&#45;&gt;Node6</title>
<path fill="none" stroke="midnightblue" d="M136.36,-168.32C145.38,-160.34 158.96,-148.31 169.88,-138.65"/>
<polygon fill="midnightblue" stroke="midnightblue" points="172.41,-141.08 177.58,-131.83 167.77,-135.84 172.41,-141.08"/>
</g>
<!-- Node7 -->
<g id="node7" class="node">
<title>Node7</title>
<g id="a_node7"><a xlink:href="align_8h.html" target="_top" xlink:title=" ">
<polygon fill="white" stroke="black" points="54.06,-112.5 54.06,-131.5 143.06,-131.5 143.06,-112.5 54.06,-112.5"/>
<text text-anchor="middle" x="98.56" y="-119.5" font-family="Helvetica,sans-Serif" font-size="10.00">odp/api/align.h</text>
</a>
</g>
</g>
<!-- Node4&#45;&gt;Node7 -->
<g id="edge6" class="edge">
<title>Node4&#45;&gt;Node7</title>
<path fill="none" stroke="midnightblue" d="M121.93,-168.08C118.1,-160.69 112.53,-149.95 107.79,-140.81"/>
<polygon fill="midnightblue" stroke="midnightblue" points="110.81,-139.02 103.09,-131.75 104.59,-142.24 110.81,-139.02"/>
</g>
<!-- Node10 -->
<g id="node10" class="node">
<title>Node10</title>
<g id="a_node10"><a xlink:title=" ">
<polygon fill="white" stroke="#bfbfbf" points="254.56,-0.5 254.56,-19.5 366.56,-19.5 366.56,-0.5 254.56,-0.5"/>
<text text-anchor="middle" x="310.56" y="-7.5" font-family="Helvetica,sans-Serif" font-size="10.00">odp/visibility_end.h</text>
</a>
</g>
</g>
<!-- Node4&#45;&gt;Node10 -->
<g id="edge11" class="edge">
<title>Node4&#45;&gt;Node10</title>
<path fill="none" stroke="midnightblue" d="M153.6,-168.45C174.22,-161.03 202.54,-148.82 223.56,-132 260.11,-102.73 288.46,-54.37 301.94,-28.54"/>
<polygon fill="midnightblue" stroke="midnightblue" points="305.1,-30.05 306.5,-19.55 298.86,-26.88 305.1,-30.05"/>
</g>
<!-- Node8 -->
<g id="node8" class="node">
<title>Node8</title>
<g id="a_node8"><a xlink:title=" ">
<polygon fill="white" stroke="#bfbfbf" points="18.06,-56.5 18.06,-75.5 125.06,-75.5 125.06,-56.5 18.06,-56.5"/>
<text text-anchor="middle" x="71.56" y="-63.5" font-family="Helvetica,sans-Serif" font-size="10.00">odp/api/abi/align.h</text>
</a>
</g>
</g>
<!-- Node7&#45;&gt;Node8 -->
<g id="edge7" class="edge">
<title>Node7&#45;&gt;Node8</title>
<path fill="none" stroke="midnightblue" d="M94.1,-112.08C90.4,-104.69 85.03,-93.95 80.46,-84.81"/>
<polygon fill="midnightblue" stroke="midnightblue" points="83.54,-83.13 75.93,-75.75 77.27,-86.26 83.54,-83.13"/>
</g>
<!-- Node9 -->
<g id="node9" class="node">
<title>Node9</title>
<g id="a_node9"><a xlink:href="spec_2align_8h.html" target="_top" xlink:title=" ">
<polygon fill="white" stroke="black" points="143.56,-56.5 143.56,-75.5 257.56,-75.5 257.56,-56.5 143.56,-56.5"/>
<text text-anchor="middle" x="200.56" y="-63.5" font-family="Helvetica,sans-Serif" font-size="10.00">odp/api/spec/align.h</text>
</a>
</g>
</g>
<!-- Node7&#45;&gt;Node9 -->
<g id="edge8" class="edge">
<title>Node7&#45;&gt;Node9</title>
<path fill="none" stroke="midnightblue" d="M114.95,-112.32C131.23,-103.7 156.42,-90.36 175.27,-80.39"/>
<polygon fill="midnightblue" stroke="midnightblue" points="177.01,-83.43 184.21,-75.65 173.73,-77.24 177.01,-83.43"/>
</g>
<!-- Node9&#45;&gt;Node5 -->
<g id="edge9" class="edge">
<title>Node9&#45;&gt;Node5</title>
<path fill="none" stroke="midnightblue" d="M196.43,-56.08C193.04,-48.77 188.14,-38.18 183.94,-29.1"/>
<polygon fill="midnightblue" stroke="midnightblue" points="186.99,-27.36 179.61,-19.75 180.63,-30.3 186.99,-27.36"/>
</g>
<!-- Node9&#45;&gt;Node10 -->
<g id="edge10" class="edge">
<title>Node9&#45;&gt;Node10</title>
<path fill="none" stroke="midnightblue" d="M218.23,-56.32C235.95,-47.62 263.46,-34.12 283.85,-24.11"/>
<polygon fill="midnightblue" stroke="midnightblue" points="285.49,-27.2 292.93,-19.65 282.41,-20.92 285.49,-27.2"/>
</g>
<!-- Node15&#45;&gt;Node5 -->
<g id="edge17" class="edge">
<title>Node15&#45;&gt;Node5</title>
<path fill="none" stroke="midnightblue" d="M340.5,-56.44C306.95,-47.2 253.36,-32.44 216.42,-22.26"/>
<polygon fill="midnightblue" stroke="midnightblue" points="217.04,-18.8 206.47,-19.52 215.18,-25.55 217.04,-18.8"/>
</g>
<!-- Node15&#45;&gt;Node10 -->
<g id="edge18" class="edge">
<title>Node15&#45;&gt;Node10</title>
<path fill="none" stroke="midnightblue" d="M361.76,-56.32C352.74,-48.34 339.15,-36.31 328.24,-26.65"/>
<polygon fill="midnightblue" stroke="midnightblue" points="330.34,-23.84 320.54,-19.83 325.7,-29.08 330.34,-23.84"/>
</g>
</g>
</svg>
