<?xml version="1.0" encoding="UTF-8" standalone="no"?>
<!DOCTYPE svg PUBLIC "-//W3C//DTD SVG 1.1//EN"
 "http://www.w3.org/Graphics/SVG/1.1/DTD/svg11.dtd">
<!-- Generated by graphviz version 2.43.0 (0)
 -->
<!-- Title: cli.h Pages: 1 -->
<svg width="291pt" height="196pt"
 viewBox="0.00 0.00 291.00 196.00" xmlns="http://www.w3.org/2000/svg" xmlns:xlink="http://www.w3.org/1999/xlink">
<g id="graph0" class="graph" transform="scale(1 1) rotate(0) translate(4 192)">
<title>cli.h</title>
<polygon fill="white" stroke="transparent" points="-4,4 -4,-192 287,-192 287,4 -4,4"/>
<!-- Node1 -->
<g id="node1" class="node">
<title>Node1</title>
<g id="a_node1"><a xlink:title=" ">
<polygon fill="#bfbfbf" stroke="black" points="118.5,-168.5 118.5,-187.5 155.5,-187.5 155.5,-168.5 118.5,-168.5"/>
<text text-anchor="middle" x="137" y="-175.5" font-family="Helvetica,sans-Serif" font-size="10.00">cli.h</text>
</a>
</g>
</g>
<!-- Node2 -->
<g id="node2" class="node">
<title>Node2</title>
<g id="a_node2"><a xlink:title=" ">
<polygon fill="white" stroke="#bfbfbf" points="0,-0.5 0,-19.5 64,-19.5 64,-0.5 0,-0.5"/>
<text text-anchor="middle" x="32" y="-7.5" font-family="Helvetica,sans-Serif" font-size="10.00">odp_api.h</text>
</a>
</g>
</g>
<!-- Node1&#45;&gt;Node2 -->
<g id="edge1" class="edge">
<title>Node1&#45;&gt;Node2</title>
<path fill="none" stroke="midnightblue" d="M118.14,-174.23C95.15,-169.77 57.16,-158.59 39,-132 17.92,-101.12 22.73,-54.81 27.65,-29.37"/>
<polygon fill="midnightblue" stroke="midnightblue" points="31.07,-30.07 29.75,-19.56 24.23,-28.6 31.07,-30.07"/>
</g>
<!-- Node3 -->
<g id="node3" class="node">
<title>Node3</title>
<g id="a_node3"><a xlink:href="ip_8h.html" target="_top" xlink:title=" ">
<polygon fill="white" stroke="black" points="48.5,-112.5 48.5,-131.5 137.5,-131.5 137.5,-112.5 48.5,-112.5"/>
<text text-anchor="middle" x="93" y="-119.5" font-family="Helvetica,sans-Serif" font-size="10.00">odp/helper/ip.h</text>
</a>
</g>
</g>
<!-- Node1&#45;&gt;Node3 -->
<g id="edge2" class="edge">
<title>Node1&#45;&gt;Node3</title>
<path fill="none" stroke="midnightblue" d="M129.73,-168.08C123.46,-160.38 114.21,-149.03 106.57,-139.65"/>
<polygon fill="midnightblue" stroke="midnightblue" points="109.16,-137.29 100.13,-131.75 103.73,-141.71 109.16,-137.29"/>
</g>
<!-- Node6 -->
<g id="node6" class="node">
<title>Node6</title>
<g id="a_node6"><a xlink:title=" ">
<polygon fill="white" stroke="#bfbfbf" points="155.5,-112.5 155.5,-131.5 208.5,-131.5 208.5,-112.5 155.5,-112.5"/>
<text text-anchor="middle" x="182" y="-119.5" font-family="Helvetica,sans-Serif" font-size="10.00">stdint.h</text>
</a>
</g>
</g>
<!-- Node1&#45;&gt;Node6 -->
<g id="edge7" class="edge">
<title>Node1&#45;&gt;Node6</title>
<path fill="none" stroke="midnightblue" d="M144.43,-168.08C150.85,-160.38 160.31,-149.03 168.12,-139.65"/>
<polygon fill="midnightblue" stroke="midnightblue" points="170.99,-141.67 174.71,-131.75 165.62,-137.19 170.99,-141.67"/>
</g>
<!-- Node7 -->
<g id="node7" class="node">
<title>Node7</title>
<g id="a_node7"><a xlink:title=" ">
<polygon fill="white" stroke="#bfbfbf" points="227,-112.5 227,-131.5 283,-131.5 283,-112.5 227,-112.5"/>
<text text-anchor="middle" x="255" y="-119.5" font-family="Helvetica,sans-Serif" font-size="10.00">stdarg.h</text>
</a>
</g>
</g>
<!-- Node1&#45;&gt;Node7 -->
<g id="edge8" class="edge">
<title>Node1&#45;&gt;Node7</title>
<path fill="none" stroke="midnightblue" d="M155.7,-168.44C174.94,-159.64 205.15,-145.81 227.2,-135.72"/>
<polygon fill="midnightblue" stroke="midnightblue" points="228.75,-138.86 236.39,-131.52 225.84,-132.5 228.75,-138.86"/>
</g>
<!-- Node3&#45;&gt;Node2 -->
<g id="edge3" class="edge">
<title>Node3&#45;&gt;Node2</title>
<path fill="none" stroke="midnightblue" d="M82.56,-112.4C73.04,-104.03 59.25,-90.49 51,-76 42.82,-61.63 37.89,-43.44 35.11,-29.95"/>
<polygon fill="midnightblue" stroke="midnightblue" points="38.52,-29.12 33.26,-19.92 31.64,-30.39 38.52,-29.12"/>
</g>
<!-- Node4 -->
<g id="node4" class="node">
<title>Node4</title>
<g id="a_node4"><a xlink:href="chksum_8h.html" target="_top" xlink:title=" ">
<polygon fill="white" stroke="black" points="60.5,-56.5 60.5,-75.5 179.5,-75.5 179.5,-56.5 60.5,-56.5"/>
<text text-anchor="middle" x="120" y="-63.5" font-family="Helvetica,sans-Serif" font-size="10.00">odp/helper/chksum.h</text>
</a>
</g>
</g>
<!-- Node3&#45;&gt;Node4 -->
<g id="edge4" class="edge">
<title>Node3&#45;&gt;Node4</title>
<path fill="none" stroke="midnightblue" d="M97.46,-112.08C101.15,-104.69 106.52,-93.95 111.09,-84.81"/>
<polygon fill="midnightblue" stroke="midnightblue" points="114.28,-86.26 115.62,-75.75 108.02,-83.13 114.28,-86.26"/>
</g>
<!-- Node5 -->
<g id="node5" class="node">
<title>Node5</title>
<g id="a_node5"><a xlink:title=" ">
<polygon fill="white" stroke="#bfbfbf" points="197.5,-56.5 197.5,-75.5 250.5,-75.5 250.5,-56.5 197.5,-56.5"/>
<text text-anchor="middle" x="224" y="-63.5" font-family="Helvetica,sans-Serif" font-size="10.00">string.h</text>
</a>
</g>
</g>
<!-- Node3&#45;&gt;Node5 -->
<g id="edge6" class="edge">
<title>Node3&#45;&gt;Node5</title>
<path fill="none" stroke="midnightblue" d="M113.76,-112.44C135.32,-103.56 169.26,-89.56 193.79,-79.45"/>
<polygon fill="midnightblue" stroke="midnightblue" points="195.43,-82.56 203.34,-75.52 192.76,-76.09 195.43,-82.56"/>
</g>
<!-- Node4&#45;&gt;Node2 -->
<g id="edge5" class="edge">
<title>Node4&#45;&gt;Node2</title>
<path fill="none" stroke="midnightblue" d="M105.86,-56.32C92.13,-47.9 71.06,-34.97 54.94,-25.07"/>
<polygon fill="midnightblue" stroke="midnightblue" points="56.46,-21.9 46.1,-19.65 52.8,-27.87 56.46,-21.9"/>
</g>
</g>
</svg>
