<?xml version="1.0" encoding="UTF-8" standalone="no"?>
<!DOCTYPE svg PUBLIC "-//W3C//DTD SVG 1.1//EN"
 "http://www.w3.org/Graphics/SVG/1.1/DTD/svg11.dtd">
<!-- Generated by graphviz version 2.43.0 (0)
 -->
<!-- Title: odph_api.h Pages: 1 -->
<svg width="2128pt" height="207pt"
 viewBox="0.00 0.00 2127.50 207.00" xmlns="http://www.w3.org/2000/svg" xmlns:xlink="http://www.w3.org/1999/xlink">
<g id="graph0" class="graph" transform="scale(1 1) rotate(0) translate(4 203)">
<title>odph_api.h</title>
<polygon fill="white" stroke="transparent" points="-4,4 -4,-203 2123.5,-203 2123.5,4 -4,4"/>
<!-- Node1 -->
<g id="node1" class="node">
<title>Node1</title>
<g id="a_node1"><a xlink:title=" ">
<polygon fill="#bfbfbf" stroke="black" points="1129.5,-179.5 1129.5,-198.5 1199.5,-198.5 1199.5,-179.5 1129.5,-179.5"/>
<text text-anchor="middle" x="1164.5" y="-186.5" font-family="Helvetica,sans-Serif" font-size="10.00">odph_api.h</text>
</a>
</g>
</g>
<!-- Node2 -->
<g id="node2" class="node">
<title>Node2</title>
<g id="a_node2"><a xlink:href="odph__debug_8h.html" target="_top" xlink:title=" ">
<polygon fill="white" stroke="black" points="113.5,-123.5 113.5,-142.5 253.5,-142.5 253.5,-123.5 113.5,-123.5"/>
<text text-anchor="middle" x="183.5" y="-130.5" font-family="Helvetica,sans-Serif" font-size="10.00">odp/helper/odph_debug.h</text>
</a>
</g>
</g>
<!-- Node1&#45;&gt;Node2 -->
<g id="edge1" class="edge">
<title>Node1&#45;&gt;Node2</title>
<path fill="none" stroke="midnightblue" d="M1129.14,-186.71C1009.75,-182.27 610.68,-166.49 281.5,-143 275.71,-142.59 269.74,-142.13 263.73,-141.63"/>
<polygon fill="midnightblue" stroke="midnightblue" points="263.86,-138.13 253.6,-140.79 263.27,-145.11 263.86,-138.13"/>
</g>
<!-- Node3 -->
<g id="node3" class="node">
<title>Node3</title>
<g id="a_node3"><a xlink:href="autoheader__external_8h_source.html" target="_top" xlink:title=" ">
<polygon fill="white" stroke="black" points="0,-56.5 0,-86.5 127,-86.5 127,-56.5 0,-56.5"/>
<text text-anchor="start" x="8" y="-74.5" font-family="Helvetica,sans-Serif" font-size="10.00">odp/helper/autoheader</text>
<text text-anchor="middle" x="63.5" y="-63.5" font-family="Helvetica,sans-Serif" font-size="10.00">_external.h</text>
</a>
</g>
</g>
<!-- Node1&#45;&gt;Node3 -->
<g id="edge47" class="edge">
<title>Node1&#45;&gt;Node3</title>
<path fill="none" stroke="midnightblue" d="M1129.39,-187.45C950.72,-184.55 149.31,-170.06 104.5,-143 87.5,-132.73 76.82,-112.55 70.64,-96.4"/>
<polygon fill="midnightblue" stroke="midnightblue" points="73.79,-94.81 67.2,-86.52 67.18,-97.11 73.79,-94.81"/>
</g>
<!-- Node6 -->
<g id="node6" class="node">
<title>Node6</title>
<g id="a_node6"><a xlink:href="chksum_8h.html" target="_top" xlink:title=" ">
<polygon fill="white" stroke="black" points="1385,-62 1385,-81 1504,-81 1504,-62 1385,-62"/>
<text text-anchor="middle" x="1444.5" y="-69" font-family="Helvetica,sans-Serif" font-size="10.00">odp/helper/chksum.h</text>
</a>
</g>
</g>
<!-- Node1&#45;&gt;Node6 -->
<g id="edge5" class="edge">
<title>Node1&#45;&gt;Node6</title>
<path fill="none" stroke="midnightblue" d="M1199.56,-183.5C1237.42,-177.71 1298.84,-165.6 1347.5,-143 1378.45,-128.63 1409.53,-103.76 1427.88,-87.73"/>
<polygon fill="midnightblue" stroke="midnightblue" points="1430.24,-90.32 1435.38,-81.05 1425.58,-85.09 1430.24,-90.32"/>
</g>
<!-- Node8 -->
<g id="node8" class="node">
<title>Node8</title>
<g id="a_node8"><a xlink:href="odph__cuckootable_8h.html" target="_top" xlink:title=" ">
<polygon fill="white" stroke="black" points="323.5,-123.5 323.5,-142.5 491.5,-142.5 491.5,-123.5 323.5,-123.5"/>
<text text-anchor="middle" x="407.5" y="-130.5" font-family="Helvetica,sans-Serif" font-size="10.00">odp/helper/odph_cuckootable.h</text>
</a>
</g>
</g>
<!-- Node1&#45;&gt;Node8 -->
<g id="edge7" class="edge">
<title>Node1&#45;&gt;Node8</title>
<path fill="none" stroke="midnightblue" d="M1129.47,-185.9C1031.08,-179.93 743.84,-162.08 505.5,-143 504.23,-142.9 502.95,-142.8 501.67,-142.69"/>
<polygon fill="midnightblue" stroke="midnightblue" points="501.94,-139.2 491.69,-141.86 501.36,-146.18 501.94,-139.2"/>
</g>
<!-- Node9 -->
<g id="node9" class="node">
<title>Node9</title>
<g id="a_node9"><a xlink:href="table_8h.html" target="_top" xlink:title=" ">
<polygon fill="white" stroke="black" points="574,-62 574,-81 679,-81 679,-62 574,-62"/>
<text text-anchor="middle" x="626.5" y="-69" font-family="Helvetica,sans-Serif" font-size="10.00">odp/helper/table.h</text>
</a>
</g>
</g>
<!-- Node1&#45;&gt;Node9 -->
<g id="edge37" class="edge">
<title>Node1&#45;&gt;Node9</title>
<path fill="none" stroke="midnightblue" d="M1129.46,-188.19C1003.48,-188.53 578.91,-186.42 538.5,-143 516.89,-119.78 557.88,-97.72 590.88,-84.64"/>
<polygon fill="midnightblue" stroke="midnightblue" points="592.25,-87.87 600.36,-81.04 589.77,-81.32 592.25,-87.87"/>
</g>
<!-- Node11 -->
<g id="node11" class="node">
<title>Node11</title>
<g id="a_node11"><a xlink:href="strong__types_8h.html" target="_top" xlink:title=" ">
<polygon fill="white" stroke="black" points="389,-0.5 389,-19.5 532,-19.5 532,-0.5 389,-0.5"/>
<text text-anchor="middle" x="460.5" y="-7.5" font-family="Helvetica,sans-Serif" font-size="10.00">odp/helper/strong_types.h</text>
</a>
</g>
</g>
<!-- Node1&#45;&gt;Node11 -->
<g id="edge34" class="edge">
<title>Node1&#45;&gt;Node11</title>
<path fill="none" stroke="midnightblue" d="M1129.31,-187.47C972.4,-184.96 342.97,-173.02 314.5,-143 269.8,-95.87 371.98,-45.95 427.56,-23.37"/>
<polygon fill="midnightblue" stroke="midnightblue" points="429.03,-26.56 437.02,-19.61 426.44,-20.05 429.03,-26.56"/>
</g>
<!-- Node12 -->
<g id="node12" class="node">
<title>Node12</title>
<g id="a_node12"><a xlink:href="eth_8h.html" target="_top" xlink:title=" ">
<polygon fill="white" stroke="black" points="801.5,-62 801.5,-81 897.5,-81 897.5,-62 801.5,-62"/>
<text text-anchor="middle" x="849.5" y="-69" font-family="Helvetica,sans-Serif" font-size="10.00">odp/helper/eth.h</text>
</a>
</g>
</g>
<!-- Node1&#45;&gt;Node12 -->
<g id="edge11" class="edge">
<title>Node1&#45;&gt;Node12</title>
<path fill="none" stroke="midnightblue" d="M1157.08,-179.24C1144.51,-165.02 1117.56,-137.09 1088.5,-123 1014.3,-87.03 986.93,-105.17 906.5,-87 901.71,-85.92 896.71,-84.73 891.74,-83.52"/>
<polygon fill="midnightblue" stroke="midnightblue" points="892.23,-80.03 881.68,-81.01 890.54,-86.82 892.23,-80.03"/>
</g>
<!-- Node13 -->
<g id="node13" class="node">
<title>Node13</title>
<g id="a_node13"><a xlink:href="gtp_8h.html" target="_top" xlink:title=" ">
<polygon fill="white" stroke="black" points="915.5,-62 915.5,-81 1011.5,-81 1011.5,-62 915.5,-62"/>
<text text-anchor="middle" x="963.5" y="-69" font-family="Helvetica,sans-Serif" font-size="10.00">odp/helper/gtp.h</text>
</a>
</g>
</g>
<!-- Node1&#45;&gt;Node13 -->
<g id="edge13" class="edge">
<title>Node1&#45;&gt;Node13</title>
<path fill="none" stroke="midnightblue" d="M1161.11,-179.48C1155.17,-165.62 1141.57,-138.19 1121.5,-123 1111.89,-115.72 1047.25,-96.36 1003.68,-83.83"/>
<polygon fill="midnightblue" stroke="midnightblue" points="1004.5,-80.43 993.92,-81.04 1002.57,-87.16 1004.5,-80.43"/>
</g>
<!-- Node14 -->
<g id="node14" class="node">
<title>Node14</title>
<g id="a_node14"><a xlink:href="odph__hashtable_8h.html" target="_top" xlink:title=" ">
<polygon fill="white" stroke="black" points="547.5,-123.5 547.5,-142.5 705.5,-142.5 705.5,-123.5 547.5,-123.5"/>
<text text-anchor="middle" x="626.5" y="-130.5" font-family="Helvetica,sans-Serif" font-size="10.00">odp/helper/odph_hashtable.h</text>
</a>
</g>
</g>
<!-- Node1&#45;&gt;Node14 -->
<g id="edge15" class="edge">
<title>Node1&#45;&gt;Node14</title>
<path fill="none" stroke="midnightblue" d="M1129.49,-184.53C1055.33,-177.16 876.7,-159.39 715.74,-143.12"/>
<polygon fill="midnightblue" stroke="midnightblue" points="715.95,-139.63 705.65,-142.1 715.25,-146.59 715.95,-139.63"/>
</g>
<!-- Node15 -->
<g id="node15" class="node">
<title>Node15</title>
<g id="a_node15"><a xlink:href="icmp_8h.html" target="_top" xlink:title=" ">
<polygon fill="white" stroke="black" points="1029.5,-62 1029.5,-81 1133.5,-81 1133.5,-62 1029.5,-62"/>
<text text-anchor="middle" x="1081.5" y="-69" font-family="Helvetica,sans-Serif" font-size="10.00">odp/helper/icmp.h</text>
</a>
</g>
</g>
<!-- Node1&#45;&gt;Node15 -->
<g id="edge17" class="edge">
<title>Node1&#45;&gt;Node15</title>
<path fill="none" stroke="midnightblue" d="M1166.13,-179.28C1168.11,-166.09 1170.03,-140.7 1159.5,-123 1149.37,-105.96 1130.99,-93.64 1114.62,-85.44"/>
<polygon fill="midnightblue" stroke="midnightblue" points="1115.83,-82.15 1105.29,-81.08 1112.87,-88.49 1115.83,-82.15"/>
</g>
<!-- Node16 -->
<g id="node16" class="node">
<title>Node16</title>
<g id="a_node16"><a xlink:href="igmp_8h.html" target="_top" xlink:title=" ">
<polygon fill="white" stroke="black" points="1152,-62 1152,-81 1257,-81 1257,-62 1152,-62"/>
<text text-anchor="middle" x="1204.5" y="-69" font-family="Helvetica,sans-Serif" font-size="10.00">odp/helper/igmp.h</text>
</a>
</g>
</g>
<!-- Node1&#45;&gt;Node16 -->
<g id="edge19" class="edge">
<title>Node1&#45;&gt;Node16</title>
<path fill="none" stroke="midnightblue" d="M1173.2,-179.23C1181.02,-170.74 1192.09,-157.11 1197.5,-143 1203.89,-126.32 1205.28,-105.89 1205.29,-91.32"/>
<polygon fill="midnightblue" stroke="midnightblue" points="1208.79,-91 1205.07,-81.08 1201.79,-91.15 1208.79,-91"/>
</g>
<!-- Node17 -->
<g id="node17" class="node">
<title>Node17</title>
<g id="a_node17"><a xlink:href="ip_8h.html" target="_top" xlink:title=" ">
<polygon fill="white" stroke="black" points="1250,-123.5 1250,-142.5 1339,-142.5 1339,-123.5 1250,-123.5"/>
<text text-anchor="middle" x="1294.5" y="-130.5" font-family="Helvetica,sans-Serif" font-size="10.00">odp/helper/ip.h</text>
</a>
</g>
</g>
<!-- Node1&#45;&gt;Node17 -->
<g id="edge21" class="edge">
<title>Node1&#45;&gt;Node17</title>
<path fill="none" stroke="midnightblue" d="M1185.1,-179.44C1206.49,-170.56 1240.18,-156.56 1264.52,-146.45"/>
<polygon fill="midnightblue" stroke="midnightblue" points="1266.11,-149.58 1274,-142.52 1263.42,-143.12 1266.11,-149.58"/>
</g>
<!-- Node19 -->
<g id="node19" class="node">
<title>Node19</title>
<g id="a_node19"><a xlink:href="ipsec_8h.html" target="_top" xlink:title=" ">
<polygon fill="white" stroke="black" points="1511.5,-123.5 1511.5,-142.5 1617.5,-142.5 1617.5,-123.5 1511.5,-123.5"/>
<text text-anchor="middle" x="1564.5" y="-130.5" font-family="Helvetica,sans-Serif" font-size="10.00">odp/helper/ipsec.h</text>
</a>
</g>
</g>
<!-- Node1&#45;&gt;Node19 -->
<g id="edge25" class="edge">
<title>Node1&#45;&gt;Node19</title>
<path fill="none" stroke="midnightblue" d="M1199.55,-183.47C1259.22,-175.73 1384.61,-159.34 1501.23,-143.16"/>
<polygon fill="midnightblue" stroke="midnightblue" points="1501.98,-146.59 1511.41,-141.75 1501.02,-139.66 1501.98,-146.59"/>
</g>
<!-- Node20 -->
<g id="node20" class="node">
<title>Node20</title>
<g id="a_node20"><a xlink:href="odph__lineartable_8h.html" target="_top" xlink:title=" ">
<polygon fill="white" stroke="black" points="917.5,-123.5 917.5,-142.5 1079.5,-142.5 1079.5,-123.5 917.5,-123.5"/>
<text text-anchor="middle" x="998.5" y="-130.5" font-family="Helvetica,sans-Serif" font-size="10.00">odp/helper/odph_lineartable.h</text>
</a>
</g>
</g>
<!-- Node1&#45;&gt;Node20 -->
<g id="edge27" class="edge">
<title>Node1&#45;&gt;Node20</title>
<path fill="none" stroke="midnightblue" d="M1138.2,-179.44C1110.15,-170.32 1065.56,-155.81 1034.32,-145.65"/>
<polygon fill="midnightblue" stroke="midnightblue" points="1035.27,-142.28 1024.68,-142.52 1033.11,-148.94 1035.27,-142.28"/>
</g>
<!-- Node21 -->
<g id="node21" class="node">
<title>Node21</title>
<g id="a_node21"><a xlink:href="odph__iplookuptable_8h.html" target="_top" xlink:title=" ">
<polygon fill="white" stroke="black" points="723.5,-123.5 723.5,-142.5 899.5,-142.5 899.5,-123.5 723.5,-123.5"/>
<text text-anchor="middle" x="811.5" y="-130.5" font-family="Helvetica,sans-Serif" font-size="10.00">odp/helper/odph_iplookuptable.h</text>
</a>
</g>
</g>
<!-- Node1&#45;&gt;Node21 -->
<g id="edge30" class="edge">
<title>Node1&#45;&gt;Node21</title>
<path fill="none" stroke="midnightblue" d="M1129.36,-182.62C1070.74,-173.66 952.05,-155.5 877.46,-144.09"/>
<polygon fill="midnightblue" stroke="midnightblue" points="877.65,-140.58 867.24,-142.53 876.59,-147.5 877.65,-140.58"/>
</g>
<!-- Node22 -->
<g id="node22" class="node">
<title>Node22</title>
<g id="a_node22"><a xlink:href="sctp_8h.html" target="_top" xlink:title=" ">
<polygon fill="white" stroke="black" points="1636,-123.5 1636,-142.5 1737,-142.5 1737,-123.5 1636,-123.5"/>
<text text-anchor="middle" x="1686.5" y="-130.5" font-family="Helvetica,sans-Serif" font-size="10.00">odp/helper/sctp.h</text>
</a>
</g>
</g>
<!-- Node1&#45;&gt;Node22 -->
<g id="edge32" class="edge">
<title>Node1&#45;&gt;Node22</title>
<path fill="none" stroke="midnightblue" d="M1199.63,-185.2C1275.35,-179.04 1459.77,-163.31 1625.41,-143.07"/>
<polygon fill="midnightblue" stroke="midnightblue" points="1626.29,-146.49 1635.79,-141.8 1625.43,-139.54 1626.29,-146.49"/>
</g>
<!-- Node23 -->
<g id="node23" class="node">
<title>Node23</title>
<g id="a_node23"><a xlink:href="tcp_8h.html" target="_top" xlink:title=" ">
<polygon fill="white" stroke="black" points="1755,-123.5 1755,-142.5 1850,-142.5 1850,-123.5 1755,-123.5"/>
<text text-anchor="middle" x="1802.5" y="-130.5" font-family="Helvetica,sans-Serif" font-size="10.00">odp/helper/tcp.h</text>
</a>
</g>
</g>
<!-- Node1&#45;&gt;Node23 -->
<g id="edge35" class="edge">
<title>Node1&#45;&gt;Node23</title>
<path fill="none" stroke="midnightblue" d="M1199.63,-186.25C1288.84,-181.61 1531.52,-167.67 1744.82,-142.98"/>
<polygon fill="midnightblue" stroke="midnightblue" points="1745.43,-146.43 1754.95,-141.8 1744.61,-139.48 1745.43,-146.43"/>
</g>
<!-- Node24 -->
<g id="node24" class="node">
<title>Node24</title>
<g id="a_node24"><a xlink:href="threads_8h.html" target="_top" xlink:title=" ">
<polygon fill="white" stroke="black" points="1868,-123.5 1868,-142.5 1985,-142.5 1985,-123.5 1868,-123.5"/>
<text text-anchor="middle" x="1926.5" y="-130.5" font-family="Helvetica,sans-Serif" font-size="10.00">odp/helper/threads.h</text>
</a>
</g>
</g>
<!-- Node1&#45;&gt;Node24 -->
<g id="edge38" class="edge">
<title>Node1&#45;&gt;Node24</title>
<path fill="none" stroke="midnightblue" d="M1199.59,-186.55C1300.25,-182.23 1598.76,-168.18 1857.95,-142.98"/>
<polygon fill="midnightblue" stroke="midnightblue" points="1858.31,-146.46 1867.92,-142.01 1857.63,-139.5 1858.31,-146.46"/>
</g>
<!-- Node28 -->
<g id="node28" class="node">
<title>Node28</title>
<g id="a_node28"><a xlink:href="udp_8h.html" target="_top" xlink:title=" ">
<polygon fill="white" stroke="black" points="1395.5,-123.5 1395.5,-142.5 1493.5,-142.5 1493.5,-123.5 1395.5,-123.5"/>
<text text-anchor="middle" x="1444.5" y="-130.5" font-family="Helvetica,sans-Serif" font-size="10.00">odp/helper/udp.h</text>
</a>
</g>
</g>
<!-- Node1&#45;&gt;Node28 -->
<g id="edge43" class="edge">
<title>Node1&#45;&gt;Node28</title>
<path fill="none" stroke="midnightblue" d="M1199.68,-181.22C1247.52,-171.99 1333.58,-155.39 1389.86,-144.54"/>
<polygon fill="midnightblue" stroke="midnightblue" points="1390.85,-147.91 1400.01,-142.58 1389.53,-141.04 1390.85,-147.91"/>
</g>
<!-- Node29 -->
<g id="node29" class="node">
<title>Node29</title>
<g id="a_node29"><a xlink:href="version_8h.html" target="_top" xlink:title=" ">
<polygon fill="white" stroke="black" points="2003.5,-123.5 2003.5,-142.5 2119.5,-142.5 2119.5,-123.5 2003.5,-123.5"/>
<text text-anchor="middle" x="2061.5" y="-130.5" font-family="Helvetica,sans-Serif" font-size="10.00">odp/helper/version.h</text>
</a>
</g>
</g>
<!-- Node1&#45;&gt;Node29 -->
<g id="edge46" class="edge">
<title>Node1&#45;&gt;Node29</title>
<path fill="none" stroke="midnightblue" d="M1199.72,-187.06C1313.07,-183.84 1678.77,-171.84 1993.07,-142.95"/>
<polygon fill="midnightblue" stroke="midnightblue" points="1993.66,-146.41 2003.29,-142 1993.01,-139.44 1993.66,-146.41"/>
</g>
<!-- Node2&#45;&gt;Node3 -->
<g id="edge2" class="edge">
<title>Node2&#45;&gt;Node3</title>
<path fill="none" stroke="midnightblue" d="M166.31,-123.48C149.3,-115.04 122.7,-101.86 100.83,-91.01"/>
<polygon fill="midnightblue" stroke="midnightblue" points="102.3,-87.83 91.78,-86.52 99.19,-94.1 102.3,-87.83"/>
</g>
<!-- Node4 -->
<g id="node4" class="node">
<title>Node4</title>
<g id="a_node4"><a xlink:title=" ">
<polygon fill="white" stroke="#bfbfbf" points="145.5,-62 145.5,-81 195.5,-81 195.5,-62 145.5,-62"/>
<text text-anchor="middle" x="170.5" y="-69" font-family="Helvetica,sans-Serif" font-size="10.00">stdio.h</text>
</a>
</g>
</g>
<!-- Node2&#45;&gt;Node4 -->
<g id="edge3" class="edge">
<title>Node2&#45;&gt;Node4</title>
<path fill="none" stroke="midnightblue" d="M181.64,-123.48C179.78,-114.99 176.88,-101.7 174.5,-90.82"/>
<polygon fill="midnightblue" stroke="midnightblue" points="177.91,-90.03 172.36,-81.01 171.07,-91.53 177.91,-90.03"/>
</g>
<!-- Node5 -->
<g id="node5" class="node">
<title>Node5</title>
<g id="a_node5"><a xlink:title=" ">
<polygon fill="white" stroke="#bfbfbf" points="214,-62 214,-81 267,-81 267,-62 214,-62"/>
<text text-anchor="middle" x="240.5" y="-69" font-family="Helvetica,sans-Serif" font-size="10.00">stdlib.h</text>
</a>
</g>
</g>
<!-- Node2&#45;&gt;Node5 -->
<g id="edge4" class="edge">
<title>Node2&#45;&gt;Node5</title>
<path fill="none" stroke="midnightblue" d="M191.67,-123.48C200.39,-114.37 214.4,-99.74 225.19,-88.48"/>
<polygon fill="midnightblue" stroke="midnightblue" points="227.96,-90.65 232.35,-81.01 222.9,-85.81 227.96,-90.65"/>
</g>
<!-- Node7 -->
<g id="node7" class="node">
<title>Node7</title>
<g id="a_node7"><a xlink:title=" ">
<polygon fill="white" stroke="#bfbfbf" points="1368.5,-0.5 1368.5,-19.5 1432.5,-19.5 1432.5,-0.5 1368.5,-0.5"/>
<text text-anchor="middle" x="1400.5" y="-7.5" font-family="Helvetica,sans-Serif" font-size="10.00">odp_api.h</text>
</a>
</g>
</g>
<!-- Node6&#45;&gt;Node7 -->
<g id="edge6" class="edge">
<title>Node6&#45;&gt;Node7</title>
<path fill="none" stroke="midnightblue" d="M1438.2,-61.98C1431.6,-53.05 1421.06,-38.81 1412.81,-27.64"/>
<polygon fill="midnightblue" stroke="midnightblue" points="1415.55,-25.47 1406.79,-19.51 1409.92,-29.63 1415.55,-25.47"/>
</g>
<!-- Node8&#45;&gt;Node9 -->
<g id="edge8" class="edge">
<title>Node8&#45;&gt;Node9</title>
<path fill="none" stroke="midnightblue" d="M438.88,-123.48C477.42,-113 542.91,-95.21 585.42,-83.66"/>
<polygon fill="midnightblue" stroke="midnightblue" points="586.45,-87.01 595.18,-81.01 584.61,-80.25 586.45,-87.01"/>
</g>
<!-- Node10 -->
<g id="node10" class="node">
<title>Node10</title>
<g id="a_node10"><a xlink:title=" ">
<polygon fill="white" stroke="#bfbfbf" points="657,-0.5 657,-19.5 710,-19.5 710,-0.5 657,-0.5"/>
<text text-anchor="middle" x="683.5" y="-7.5" font-family="Helvetica,sans-Serif" font-size="10.00">stdint.h</text>
</a>
</g>
</g>
<!-- Node9&#45;&gt;Node10 -->
<g id="edge9" class="edge">
<title>Node9&#45;&gt;Node10</title>
<path fill="none" stroke="midnightblue" d="M634.67,-61.98C643.39,-52.87 657.4,-38.24 668.19,-26.98"/>
<polygon fill="midnightblue" stroke="midnightblue" points="670.96,-29.15 675.35,-19.51 665.9,-24.31 670.96,-29.15"/>
</g>
<!-- Node9&#45;&gt;Node11 -->
<g id="edge10" class="edge">
<title>Node9&#45;&gt;Node11</title>
<path fill="none" stroke="midnightblue" d="M602.72,-61.98C574.12,-51.72 525.95,-34.46 493.7,-22.9"/>
<polygon fill="midnightblue" stroke="midnightblue" points="494.83,-19.59 484.24,-19.51 492.47,-26.18 494.83,-19.59"/>
</g>
<!-- Node12&#45;&gt;Node7 -->
<g id="edge12" class="edge">
<title>Node12&#45;&gt;Node7</title>
<path fill="none" stroke="midnightblue" d="M879.48,-61.93C888.14,-59.71 897.64,-57.52 906.5,-56 1072.31,-27.54 1272.73,-16.31 1358.38,-12.59"/>
<polygon fill="midnightblue" stroke="midnightblue" points="1358.64,-16.08 1368.49,-12.16 1358.35,-9.09 1358.64,-16.08"/>
</g>
<!-- Node13&#45;&gt;Node7 -->
<g id="edge14" class="edge">
<title>Node13&#45;&gt;Node7</title>
<path fill="none" stroke="midnightblue" d="M994.1,-61.93C1002.6,-59.76 1011.87,-57.6 1020.5,-56 1141.96,-33.46 1287.47,-19.92 1358,-14.2"/>
<polygon fill="midnightblue" stroke="midnightblue" points="1358.57,-17.67 1368.26,-13.38 1358.01,-10.69 1358.57,-17.67"/>
</g>
<!-- Node14&#45;&gt;Node9 -->
<g id="edge16" class="edge">
<title>Node14&#45;&gt;Node9</title>
<path fill="none" stroke="midnightblue" d="M626.5,-123.48C626.5,-115.08 626.5,-101.98 626.5,-91.16"/>
<polygon fill="midnightblue" stroke="midnightblue" points="630,-91.01 626.5,-81.01 623,-91.01 630,-91.01"/>
</g>
<!-- Node15&#45;&gt;Node7 -->
<g id="edge18" class="edge">
<title>Node15&#45;&gt;Node7</title>
<path fill="none" stroke="midnightblue" d="M1115.94,-61.93C1124.59,-59.88 1133.86,-57.78 1142.5,-56 1218.12,-40.43 1306.93,-25.72 1358.17,-17.58"/>
<polygon fill="midnightblue" stroke="midnightblue" points="1358.87,-21.01 1368.2,-15.99 1357.78,-14.09 1358.87,-21.01"/>
</g>
<!-- Node16&#45;&gt;Node7 -->
<g id="edge20" class="edge">
<title>Node16&#45;&gt;Node7</title>
<path fill="none" stroke="midnightblue" d="M1232.58,-61.98C1266.79,-51.59 1324.7,-34.01 1362.77,-22.45"/>
<polygon fill="midnightblue" stroke="midnightblue" points="1363.92,-25.76 1372.47,-19.51 1361.88,-19.06 1363.92,-25.76"/>
</g>
<!-- Node17&#45;&gt;Node6 -->
<g id="edge23" class="edge">
<title>Node17&#45;&gt;Node6</title>
<path fill="none" stroke="midnightblue" d="M1315.99,-123.48C1341.61,-113.31 1384.61,-96.26 1413.74,-84.7"/>
<polygon fill="midnightblue" stroke="midnightblue" points="1415.04,-87.95 1423.05,-81.01 1412.46,-81.44 1415.04,-87.95"/>
</g>
<!-- Node17&#45;&gt;Node7 -->
<g id="edge22" class="edge">
<title>Node17&#45;&gt;Node7</title>
<path fill="none" stroke="midnightblue" d="M1302.68,-123.49C1311.25,-114.53 1325.01,-99.95 1336.5,-87 1354.29,-66.93 1374.08,-43.21 1386.88,-27.67"/>
<polygon fill="midnightblue" stroke="midnightblue" points="1389.9,-29.51 1393.54,-19.55 1384.49,-25.06 1389.9,-29.51"/>
</g>
<!-- Node18 -->
<g id="node18" class="node">
<title>Node18</title>
<g id="a_node18"><a xlink:title=" ">
<polygon fill="white" stroke="#bfbfbf" points="1275,-62 1275,-81 1328,-81 1328,-62 1275,-62"/>
<text text-anchor="middle" x="1301.5" y="-69" font-family="Helvetica,sans-Serif" font-size="10.00">string.h</text>
</a>
</g>
</g>
<!-- Node17&#45;&gt;Node18 -->
<g id="edge24" class="edge">
<title>Node17&#45;&gt;Node18</title>
<path fill="none" stroke="midnightblue" d="M1295.5,-123.48C1296.49,-115.08 1298.03,-101.98 1299.3,-91.16"/>
<polygon fill="midnightblue" stroke="midnightblue" points="1302.81,-91.35 1300.5,-81.01 1295.85,-90.53 1302.81,-91.35"/>
</g>
<!-- Node19&#45;&gt;Node7 -->
<g id="edge26" class="edge">
<title>Node19&#45;&gt;Node7</title>
<path fill="none" stroke="midnightblue" d="M1562.85,-123.4C1559.41,-107.78 1550.04,-74.66 1529.5,-56 1505.53,-34.22 1470.42,-22.87 1442.89,-17.02"/>
<polygon fill="midnightblue" stroke="midnightblue" points="1443.23,-13.52 1432.74,-15.04 1441.88,-20.39 1443.23,-13.52"/>
</g>
<!-- Node20&#45;&gt;Node9 -->
<g id="edge29" class="edge">
<title>Node20&#45;&gt;Node9</title>
<path fill="none" stroke="midnightblue" d="M945.2,-123.48C877.61,-112.66 761.23,-94.05 689.37,-82.56"/>
<polygon fill="midnightblue" stroke="midnightblue" points="689.53,-79.04 679.1,-80.91 688.42,-85.95 689.53,-79.04"/>
</g>
<!-- Node20&#45;&gt;Node10 -->
<g id="edge28" class="edge">
<title>Node20&#45;&gt;Node10</title>
<path fill="none" stroke="midnightblue" d="M927.22,-123.49C886.53,-116.92 835.27,-105.69 792.5,-87 756.99,-71.48 721.14,-43.6 700.7,-26.27"/>
<polygon fill="midnightblue" stroke="midnightblue" points="702.78,-23.44 692.92,-19.55 698.2,-28.74 702.78,-23.44"/>
</g>
<!-- Node21&#45;&gt;Node9 -->
<g id="edge31" class="edge">
<title>Node21&#45;&gt;Node9</title>
<path fill="none" stroke="midnightblue" d="M784.99,-123.48C752.85,-113.14 698.51,-95.66 662.57,-84.1"/>
<polygon fill="midnightblue" stroke="midnightblue" points="663.55,-80.74 652.96,-81.01 661.4,-87.4 663.55,-80.74"/>
</g>
<!-- Node22&#45;&gt;Node7 -->
<g id="edge33" class="edge">
<title>Node22&#45;&gt;Node7</title>
<path fill="none" stroke="midnightblue" d="M1673.92,-123.38C1651.04,-108.03 1600.71,-75.72 1554.5,-56 1517.74,-40.31 1473.82,-28.08 1442.3,-20.35"/>
<polygon fill="midnightblue" stroke="midnightblue" points="1443.07,-16.93 1432.53,-18 1441.43,-23.74 1443.07,-16.93"/>
</g>
<!-- Node23&#45;&gt;Node7 -->
<g id="edge36" class="edge">
<title>Node23&#45;&gt;Node7</title>
<path fill="none" stroke="midnightblue" d="M1782.25,-123.43C1745.94,-108.29 1667.13,-76.48 1598.5,-56 1545.52,-40.19 1483.13,-26.86 1442.76,-18.91"/>
<polygon fill="midnightblue" stroke="midnightblue" points="1443.22,-15.43 1432.73,-16.95 1441.88,-22.3 1443.22,-15.43"/>
</g>
<!-- Node25 -->
<g id="node25" class="node">
<title>Node25</title>
<g id="a_node25"><a xlink:href="pthread_8h.html" target="_top" xlink:title=" ">
<polygon fill="white" stroke="black" points="1895,-62 1895,-81 1958,-81 1958,-62 1895,-62"/>
<text text-anchor="middle" x="1926.5" y="-69" font-family="Helvetica,sans-Serif" font-size="10.00">pthread.h</text>
</a>
</g>
</g>
<!-- Node24&#45;&gt;Node25 -->
<g id="edge39" class="edge">
<title>Node24&#45;&gt;Node25</title>
<path fill="none" stroke="midnightblue" d="M1921.6,-123.48C1919.77,-115.08 1919.3,-101.98 1920.19,-91.16"/>
<polygon fill="midnightblue" stroke="midnightblue" points="1923.69,-91.4 1921.6,-81.01 1916.75,-90.43 1923.69,-91.4"/>
</g>
<!-- Node26 -->
<g id="node26" class="node">
<title>Node26</title>
<g id="a_node26"><a xlink:title=" ">
<polygon fill="white" stroke="#bfbfbf" points="1976,-62 1976,-81 2033,-81 2033,-62 1976,-62"/>
<text text-anchor="middle" x="2004.5" y="-69" font-family="Helvetica,sans-Serif" font-size="10.00">getopt.h</text>
</a>
</g>
</g>
<!-- Node24&#45;&gt;Node26 -->
<g id="edge41" class="edge">
<title>Node24&#45;&gt;Node26</title>
<path fill="none" stroke="midnightblue" d="M1937.68,-123.48C1950.07,-114.02 1970.29,-98.6 1985.25,-87.19"/>
<polygon fill="midnightblue" stroke="midnightblue" points="1987.52,-89.86 1993.35,-81.01 1983.27,-84.29 1987.52,-89.86"/>
</g>
<!-- Node27 -->
<g id="node27" class="node">
<title>Node27</title>
<g id="a_node27"><a xlink:title=" ">
<polygon fill="white" stroke="#bfbfbf" points="1804.5,-62 1804.5,-81 1876.5,-81 1876.5,-62 1804.5,-62"/>
<text text-anchor="middle" x="1840.5" y="-69" font-family="Helvetica,sans-Serif" font-size="10.00">sys/types.h</text>
</a>
</g>
</g>
<!-- Node24&#45;&gt;Node27 -->
<g id="edge42" class="edge">
<title>Node24&#45;&gt;Node27</title>
<path fill="none" stroke="midnightblue" d="M1914.18,-123.48C1900.38,-113.93 1877.8,-98.31 1861.27,-86.87"/>
<polygon fill="midnightblue" stroke="midnightblue" points="1863.01,-83.82 1852.8,-81.01 1859.03,-89.58 1863.01,-83.82"/>
</g>
<!-- Node25&#45;&gt;Node24 -->
<g id="edge40" class="edge">
<title>Node25&#45;&gt;Node24</title>
<path fill="none" stroke="midnightblue" d="M1931.4,-81.01C1933.23,-89.4 1933.7,-102.5 1932.82,-113.32"/>
<polygon fill="midnightblue" stroke="midnightblue" points="1929.31,-113.09 1931.4,-123.48 1936.25,-114.05 1929.31,-113.09"/>
</g>
<!-- Node28&#45;&gt;Node6 -->
<g id="edge45" class="edge">
<title>Node28&#45;&gt;Node6</title>
<path fill="none" stroke="midnightblue" d="M1444.5,-123.48C1444.5,-115.08 1444.5,-101.98 1444.5,-91.16"/>
<polygon fill="midnightblue" stroke="midnightblue" points="1448,-91.01 1444.5,-81.01 1441,-91.01 1448,-91.01"/>
</g>
<!-- Node28&#45;&gt;Node7 -->
<g id="edge44" class="edge">
<title>Node28&#45;&gt;Node7</title>
<path fill="none" stroke="midnightblue" d="M1467.95,-123.41C1483.66,-116.28 1503.12,-104.46 1512.5,-87 1519.02,-74.86 1520.22,-67.41 1512.5,-56 1496.93,-32.96 1467.4,-21.71 1442.57,-16.23"/>
<polygon fill="midnightblue" stroke="midnightblue" points="1443.11,-12.77 1432.63,-14.27 1441.76,-19.63 1443.11,-12.77"/>
</g>
</g>
</svg>
